<?xml version="1.0" encoding="UTF-8"?>
<svg id="a" xmlns="http://www.w3.org/2000/svg" version="1.1" xmlns:xlink="http://www.w3.org/1999/xlink" viewBox="0 0 198.8 219.6">
  <defs>
    <style>
      .cls-1 {
        fill: #1e1210;
      }

      .cls-1, .cls-2, .cls-3, .cls-4, .cls-5 {
        stroke-width: 0px;
      }

      .cls-2 {
        fill: none;
      }

      .cls-3 {
        fill: #39b2bf;
      }

      .cls-6 {
        clip-path: url(#clippath);
      }

      .cls-4 {
        fill: #d3e9ff;
      }

      .cls-5 {
        fill: #fff;
      }
    </style>
    <clipPath id="clippath">
      <path class="cls-2" d="M151.9,76.7h.1c6.9-.1,8.7,6.4,7.5,12.3-1.5,7.8-7.3,10.6-10.7,9.5-3.1,12.3-9.5,16.7-15.7,19,.7,5.3.3,10.5,6.7,15.9,3.3,2.8,12.2,4.5,17.8,6.4,8.8,3.1,16.3,7.6,19.2,15,2.7,6.7,2.7,36.3,2.3,41.7-.2,2.5-1.5,4.9-3.6,6.3-11.9,8.3-44.9,10.6-57.2,10.6s-45.2-2.3-57.2-10.6c-2.1-1.5-3.4-3.8-3.6-6.3-.4-5.4-.4-35,2.3-41.7,3-7.4,10.4-12,19.2-15,5.6-1.9,14.5-3.7,17.8-6.4,6.4-5.4,6-10.6,6.7-15.9-6.2-2.3-12.5-6.7-15.7-19h0c-3.3,1.1-9.2-1.7-10.7-9.6-1.2-5.9.6-12.4,7.5-12.3h.1c-11.9-51.1,33.4-45.1,33.4-45.1,0,0,45.3-6.1,33.4,45Z"/>
    </clipPath>
  </defs>
  <g>
    <g>
      <path class="cls-3" d="M118.4,122.7s-32.8.2-43.8-10.8l3.8-28.3c-15.2-59.5,40.1-56.5,40.1-56.5,0,0,55.2-3,40.1,56.5l3.8,28.3c-11.1,11-43.8,10.8-43.8,10.8Z"/>
      <path class="cls-1" d="M118.7,124.5h-.2c-1.5,0-33.7,0-45.1-11.3-.4-.4-.6-1-.5-1.6l3.7-27.9c-4.8-19.1-3-33.9,5.4-44.1,5.3-6.4,13.3-11,23.2-13.1,7-1.5,12.5-1.3,13.3-1.3.8,0,6.4-.2,13.4,1.3,9.9,2.1,17.9,6.7,23.2,13.1,8.4,10.2,10.2,25,5.4,44.1l3.7,27.9c0,.6-.1,1.2-.5,1.6-11.1,11-41.7,11.3-44.9,11.3h0ZM118.4,120.8h0c.9,0,8.6,0,17.5-1.3,11.5-1.6,19.9-4.5,24.3-8.4l-3.6-27.3c0-.2,0-.5,0-.7,4.6-18,3.1-31.8-4.6-41.1-6-7.3-14.7-10.5-21-11.8-6.9-1.5-12.5-1.2-12.6-1.2h-.2c0,0-5.6-.3-12.6,1.2-6.3,1.4-15.1,4.5-21,11.8-7.6,9.3-9.2,23.1-4.6,41.1,0,.2,0,.5,0,.7l-3.6,27.3c4.4,3.9,12.8,6.8,24.3,8.4,9.3,1.3,17.5,1.3,17.5,1.3h0Z"/>
    </g>
    <g class="cls-6">
      <path class="cls-5" d="M151.9,76.7h.1c6.9-.1,8.7,6.4,7.5,12.3-1.5,7.8-7.3,10.6-10.7,9.6-3.1,12.3-9.5,16.7-15.7,19h0c.7,5.3.3,10.5,6.7,15.9,3.3,2.8,12.2,4.5,17.8,6.4,8.8,3.1,16.3,7.6,19.2,15,2.7,6.6,2.7,36.3,2.3,41.7-.2,2.5-1.5,4.9-3.6,6.3-11.9,8.3-44.9,10.6-57.2,10.6s-45.2-2.3-57.2-10.6c-2.1-1.4-3.4-3.8-3.6-6.3-.4-5.4-.4-35.1,2.3-41.7,3-7.4,10.4-12,19.2-15,5.6-1.9,14.5-3.6,17.8-6.4,6.4-5.4,6-10.6,6.7-15.9-6.2-2.3-12.5-6.7-15.7-19h0c-3.3,1.1-9.2-1.7-10.7-9.6-1.2-5.9.6-12.4,7.5-12.3h.1c-9.1-50.8,33.4-49.6,33.4-49.6,0,0,42.2-1.8,33.4,49.6h0Z"/>
    </g>
    <path class="cls-4" d="M97.6,50.9l-3.4-2.2c1.1.8,2.2,1.5,3.4,2.2Z"/>
    <path class="cls-3" d="M118.4,30.5s-47.6-5-32.5,50.1l3.6-16.1s1.9-4,8.8-13.1l-.8-.5c-1.1-.7-2.3-1.4-3.4-2.2l3.4,2.2c21.4,12.9,49.7,13.6,49.7,13.6l3.6,16.1c15.1-55-32.5-50.1-32.5-50.1h0Z"/>
    <path class="cls-1" d="M103.7,119.4c-.2,0-.4,0-.7-.1-4-1.5-7.1-3.5-9.7-6.2-3.2-3.4-5.6-8-7.1-14,0,0,0,0,0-.1-.2-.6-.3-1.1-.4-1.6-.2-1,.4-2,1.4-2.2s2,.4,2.2,1.4c0,.4.2.8.3,1.3,0,0,0,0,0,.1,3.1,12,9.1,15.7,14.5,17.7,1,.4,1.4,1.4,1.1,2.4-.3.8-1,1.2-1.7,1.2Z"/>
    <path class="cls-1" d="M86.5,100.6c-1.5,0-3.1-.5-4.6-1.3-1.9-1.1-5.2-3.9-6.4-9.9-.9-4.6-.1-8.8,2.1-11.5,1.7-2,4.2-3.1,7.3-3,1,0,1.8.9,1.8,1.9,0,1-.9,1.8-1.9,1.8-1.9,0-3.3.5-4.3,1.7-1.5,1.7-2,5-1.3,8.4.4,2,1.5,5.6,4.7,7.5,1.3.7,2.7,1,3.6.7,1-.3,2,.2,2.3,1.2.3,1-.2,2-1.2,2.3-.7.2-1.3.3-2.1.3h0Z"/>
    <path class="cls-1" d="M133.2,119.4c-.8,0-1.5-.5-1.7-1.2-.4-1,.1-2,1.1-2.4,3.5-1.3,6.1-3,8.3-5.3,2.8-3,4.9-7.1,6.2-12.4.1-.5.2-1,.3-1.5.2-1,1.2-1.6,2.2-1.4,1,.2,1.6,1.2,1.4,2.2-.1.5-.2,1-.4,1.6-1.5,6-3.8,10.6-7.1,14.1-2.6,2.7-5.7,4.7-9.7,6.2-.2,0-.4.1-.6.1h0Z"/>
    <path class="cls-1" d="M150.4,100.6c-.7,0-1.4,0-2-.3-.8-.2-1.3-.9-1.3-1.8s.8-1.8,1.9-1.8h0c.2,0,.4,0,.6,0,1,.3,2.4,0,3.6-.7,1.4-.8,3.8-2.8,4.6-7.4.7-3.4.2-6.6-1.3-8.4-1-1.2-2.4-1.7-4.4-1.7h0c-1,0-1.8-.8-1.9-1.8,0-1,.8-1.9,1.8-1.9,3,0,5.6,1,7.3,3,2.2,2.7,3,6.8,2.1,11.5-1.2,6.1-4.5,8.8-6.4,9.9-1.5.9-3.1,1.3-4.6,1.3h0Z"/>
    <path class="cls-1" d="M86,82.4c-.8,0-1.6-.5-1.8-1.4-.4-1.4-.7-2.7-1-3.9-.2-1,.4-2,1.4-2.2s2,.4,2.2,1.4c.3,1.2.6,2.5.9,3.8.3,1-.3,2-1.3,2.3-.2,0-.3,0-.5,0Z"/>
    <path class="cls-1" d="M150.9,82.4c-.2,0-.3,0-.5,0-1-.3-1.6-1.3-1.3-2.3.4-1.3.7-2.6.9-3.8.2-1,1.2-1.6,2.2-1.4,1,.2,1.6,1.2,1.4,2.2-.3,1.2-.6,2.6-1,3.9-.2.8-1,1.4-1.8,1.4h0Z"/>
    <path class="cls-1" d="M118.4,215.4c-6.2,0-17.6-.6-28.9-2.2-14-2-23.8-4.9-29.3-8.7-2.5-1.8-4.1-4.6-4.4-7.7-.3-4.6-.5-35.2,2.4-42.5,2.8-7,9.5-12.3,20.3-16.1,1.8-.6,3.8-1.2,6-1.8,4.3-1.2,9.2-2.6,11.2-4.2,5-4.2,5.4-8,5.8-12.5,0-.7.2-1.5.2-2.2.1-1,1.1-1.7,2.1-1.6,1,.1,1.7,1.1,1.6,2.1,0,.7-.2,1.4-.2,2.1-.5,4.6-1,9.8-7.1,15-2.6,2.1-7.6,3.6-12.6,5-2.1.6-4.1,1.2-5.8,1.8-9.8,3.4-15.7,8-18.1,14-2.4,6-2.6,35-2.2,40.9.2,2,1.2,3.8,2.8,4.9,4.9,3.4,14.5,6.2,27.7,8.1,11.2,1.6,22.3,2.2,28.4,2.2,13.5,0,44.9-2.5,56.1-10.2,1.6-1.1,2.6-2.9,2.8-4.9.4-5.9.2-34.9-2.2-40.9-2.4-6-8.3-10.5-18.1-14-1.7-.6-3.7-1.1-5.8-1.8-4.9-1.4-10-2.8-12.6-5-6.1-5.1-6.6-10.4-7.1-15,0-.7-.1-1.4-.2-2.1-.1-1,.6-1.9,1.6-2.1,1-.1,1.9.6,2.1,1.6.1.7.2,1.5.2,2.2.5,4.5.9,8.3,5.8,12.5,1.9,1.6,6.9,3,11.2,4.2,2.2.6,4.2,1.2,6,1.8,10.9,3.8,17.5,9.1,20.3,16.1,2.9,7.3,2.8,37.9,2.4,42.5-.2,3.1-1.8,5.9-4.4,7.7-5.5,3.8-15.3,6.7-29.3,8.7-11.4,1.6-22.7,2.2-28.9,2.2h0Z"/>
    <path class="cls-1" d="M118.4,93.5c-.4,0-.8-.4-.8-.8v-1c0-.4.4-.8.8-.8s.8.4.8.8v1c0,.4-.4.8-.8.8Z"/>
    <path class="cls-1" d="M118.4,105.2c-5.6,0-7.7-2.2-8.5-4.1h0c-.3-.8,0-1.6.8-1.9.7-.3,1.6,0,1.9.8h0c.8,2,4,2.3,5.8,2.3s5-.3,5.8-2.2h0c.3-.8,1.2-1.2,1.9-.8.7.3,1.1,1.2.8,1.9h0c-.8,1.9-2.8,4.1-8.5,4.1h0Z"/>
    <path class="cls-1" d="M118.4,146.6c-17.2,0-20.2-2.7-21.3-3.6h0c-.8-.7-.9-1.9-.2-2.6s1.8-.9,2.6-.2h0c2.8,2.6,15.1,2.8,18.8,2.8s16-.2,18.8-2.7h0c.8-.7,1.9-.6,2.6.1.7.8.6,1.9-.2,2.6h0c-.7.7-1.9,1.5-4.9,2.2-3.8.9-9.3,1.4-16.4,1.4h0Z"/>
    <ellipse class="cls-1" cx="105.6" cy="80.2" rx="3" ry="3.3"/>
    <path class="cls-1" d="M103.7,119.4c-.2,0-.4,0-.7-.1-4.2-1.6-7.4-3.7-10-6.6-3.3-3.7-5.7-8.7-7.2-15.3-.2-1,.4-2,1.4-2.2,1-.2,2,.4,2.2,1.4,2.9,13.1,9.2,17.1,14.9,19.2,1,.4,1.4,1.4,1.1,2.4-.3.8-1,1.2-1.7,1.2h0Z"/>
    <path class="cls-1" d="M133.2,119.4c-.8,0-1.5-.5-1.7-1.2-.4-1,.1-2,1.1-2.4,10.3-3.8,13.3-11.9,14.9-19.2.2-1,1.2-1.6,2.2-1.4s1.6,1.2,1.4,2.2c-1.4,6.5-3.7,11.5-7.1,15.3-2.6,2.9-5.8,5-10.1,6.6-.2,0-.4.1-.6.1h0Z"/>
    <path class="cls-3" d="M118.4,213.5c-13.7,0-52.3-2.9-59.3-13.9-.6-7.2-2.2-36.9.9-44.7,3-7.4,10.4-12,19.2-15,5.6-1.9,14.5-3.6,17.8-6.4l21.5,37.8,21.5-37.8c3.3,2.8,12.2,4.5,17.8,6.4,8.8,3.1,16.3,7.6,19.2,15,3.1,7.8,1.5,37.6.9,44.7-7,11-45.6,13.9-59.3,13.9h0Z"/>
    <path class="cls-1" d="M118.4,173.2c-.7,0-1.3-.4-1.6-.9l-21.5-37.8c-.5-.9-.2-2,.7-2.5s2-.2,2.5.7l19.8,35,19.9-35c.5-.9,1.6-1.2,2.5-.7.9.5,1.2,1.6.7,2.5l-21.5,37.8c-.3.6-.9.9-1.6.9h0Z"/>
    <path class="cls-1" d="M110.4,179.2c-.3,0-.7-.1-.9-.3l-23.4-19.2c-.3-.3-.5-.7-.5-1.1s.2-.8.5-1.1l5.5-4.4-5.2-4.8c-.3-.3-.5-.7-.5-1.1,0-.4.2-.8.5-1.1l6.9-5.6c.6-.5,1.5-.4,2,.2.5.6.4,1.5-.2,2l-5.6,4.6,5.2,4.8c.3.3.5.7.5,1.1,0,.4-.2.8-.5,1.1l-5.4,4.4,22,18.1c.6.5.7,1.4.2,2-.3.4-.7.5-1.1.5h0Z"/>
    <path class="cls-1" d="M126.5,179.2c-.4,0-.8-.2-1.1-.5-.5-.6-.4-1.5.2-2l22-18.1-5.4-4.4c-.3-.3-.5-.7-.5-1.1,0-.4.2-.8.5-1.1l5.2-4.8-5.6-4.6c-.6-.5-.7-1.4-.2-2s1.4-.7,2-.2l6.9,5.6c.3.3.5.7.5,1.1,0,.4-.2.8-.5,1.1l-5.2,4.8,5.5,4.4c.3.3.5.7.5,1.1,0,.4-.2.9-.5,1.1l-23.4,19.2c-.3.2-.6.3-.9.3h0Z"/>
    <path class="cls-1" d="M150.9,82.4h0c-.9,0-1.6-.6-1.8-1.4l-3.3-14.7c-2.8-.2-9.2-.6-17.2-2.2-9.8-1.9-23.9-5.8-35.3-13.8-.8-.6-1.1-1.7-.5-2.6.6-.8,1.7-1,2.6-.5,21,14.6,51.7,15.4,52,15.4.9,0,1.6.6,1.8,1.4l2.1,9.2c.4-.3,1-.5,1.6-.4,1,.2,1.6,1.2,1.4,2.2-.4,1.9-.9,4-1.4,6-.2.8-.9,1.4-1.8,1.4h0Z"/>
    <path class="cls-1" d="M86,82.4c-.8,0-1.6-.6-1.8-1.4-.5-1.9-1-3.7-1.3-5.5-.2-1,.4-2,1.4-2.2.5-.1,1,0,1.4.2l2.2-9.5c0-.1,0-.3.1-.4,0-.2,2-4.3,9-13.4.6-.8,1.8-1,2.6-.3.8.6,1,1.8.3,2.6-5.9,7.7-8.1,11.7-8.5,12.6l-3.6,15.9c-.2.8-.9,1.4-1.8,1.4h0Z"/>
    <path class="cls-1" d="M145.9,57.9c-.3,0-.6-.1-.9-.3-8.1-7.9-23-16.1-34.6-19-.7-.2-1.1-.8-.9-1.5.2-.7.8-1.1,1.5-.9,12,3,27.4,11.5,35.7,19.7.5.5.5,1.3,0,1.8-.2.2-.6.4-.9.4h0Z"/>
    <path class="cls-1" d="M118.4,215.4c-6.2,0-17.6-.6-28.9-2.2-14-2-23.8-4.9-29.3-8.7-2.5-1.8-4.1-4.6-4.4-7.7-.3-4.6-.5-35.2,2.4-42.5,2.8-7,9.5-12.3,20.3-16.1,1.8-.6,3.8-1.2,6-1.8,4.3-1.2,9.2-2.6,11.2-4.2,5-4.2,5.4-8,5.8-12.5,0-.7.2-1.5.2-2.2.1-1,1.1-1.7,2.1-1.6,1,.1,1.7,1.1,1.6,2.1,0,.7-.2,1.4-.2,2.1-.5,4.6-1,9.8-7.1,15-2.6,2.1-7.6,3.6-12.6,5-2.1.6-4.1,1.2-5.8,1.8-9.8,3.4-15.7,8-18.1,14-2.4,6-2.6,35-2.2,40.9.2,2,1.2,3.8,2.8,4.9,4.9,3.4,14.5,6.2,27.7,8.1,11.2,1.6,22.3,2.2,28.4,2.2,13.5,0,44.9-2.5,56.1-10.2,1.6-1.1,2.6-2.9,2.8-4.9.4-5.9.2-34.9-2.2-40.9-2.4-6-8.3-10.5-18.1-14-1.7-.6-3.7-1.1-5.8-1.8-4.9-1.4-10-2.8-12.6-5-6.1-5.1-6.6-10.4-7.1-15,0-.7-.1-1.4-.2-2.1-.1-1,.6-1.9,1.6-2.1,1-.1,1.9.6,2.1,1.6.1.7.2,1.5.2,2.2.5,4.5.9,8.3,5.8,12.5,1.9,1.6,6.9,3,11.2,4.2,2.2.6,4.2,1.2,6,1.8,10.9,3.8,17.5,9.1,20.3,16.1,2.9,7.3,2.8,37.9,2.4,42.5-.2,3.1-1.8,5.9-4.4,7.7-5.5,3.8-15.3,6.7-29.3,8.7-11.4,1.6-22.7,2.2-28.9,2.2h0Z"/>
    <ellipse class="cls-1" cx="131.3" cy="80.2" rx="3" ry="3.3"/>
    <path class="cls-1" d="M128.1,74.4c-.5,0-.9-.2-1.2-.7-.4-.7-.2-1.6.4-2,.9-.6,4.1-2.5,7.6-2.5s1.4.7,1.4,1.4-.6,1.4-1.4,1.4c-2.2,0-4.6,1-6.1,2-.2.2-.5.2-.8.2h0Z"/>
    <path class="cls-1" d="M108.8,74.4c-.3,0-.5,0-.8-.2-1.5-1-3.9-2-6.1-2s-1.4-.7-1.4-1.4.7-1.4,1.4-1.4c3.5,0,6.7,1.9,7.6,2.5.7.4.9,1.3.4,2-.3.4-.7.7-1.2.7Z"/>
  </g>
  <g>
    <path class="cls-5" d="M29.5,139.6l-1.8-8.6c-.2-1.2.1-2.5,1-3.3,1-1,2.6-1.4,4-.8,1.2.5,2,1.5,2.2,2.7l-.3-1.7c-.2-1.2.1-2.5,1-3.3,1-1,2.6-1.4,4-.8,1.2.5,2,1.5,2.2,2.7l-.3-1.3c-.2-1.2.1-2.5,1-3.3,1-1,2.6-1.4,4-.8,1.2.5,2,1.5,2.2,2.7l-3.5-16.9c-.2-1.2.1-2.5,1-3.3,1-1,2.6-1.4,4-.8,1.2.5,2,1.5,2.2,2.7l5.7,27.9h.4c0,0,1.5-10.6,1.5-10.6.2-1.2,1-2.3,2.1-2.8,1.3-.6,2.9-.4,4,.6.9.8,1.4,2.1,1.2,3.3,0,0-1.9,14.2-2.6,18-2.7,14.9-7.4,14.7-15.7,16.4-8.9,1.8-15.7.7-17.9-10.1-.6-3-1.2-5.9-1.7-8.2h0Z"/>
    <g>
      <path class="cls-1" d="M58.3,135c-.9,0-1.6-.6-1.8-1.5l-5.7-27.9c-.1-.6-.5-1.1-1.1-1.3-.7-.3-1.5-.1-2,.4-.4.4-.6,1.1-.5,1.7l3.5,16.9c.2,1-.4,2-1.4,2.2s-2-.4-2.2-1.4l-3.5-16.9c-.4-1.8.2-3.7,1.5-5,1.6-1.6,3.9-2.1,6-1.2,1.7.7,3,2.2,3.4,4l5.7,27.9c.2,1-.4,2-1.4,2.2-.1,0-.2,0-.4,0h0Z"/>
      <path class="cls-1" d="M47,138.5c-.7,0-1.4-.1-2.1-.4-1.7-.7-3-2.2-3.4-4-.2-1,.4-2,1.4-2.2,1-.2,2,.4,2.2,1.4.1.6.5,1.1,1.1,1.3.7.3,1.5.1,2-.4.4-.4.6-1.1.5-1.7l-1.8-8.6c-.1-.6-.5-1.1-1.1-1.3-.7-.3-1.5-.1-2,.4-.4.4-.6,1.1-.5,1.7l.3,1.3c.2,1-.4,2-1.4,2.2-1,.2-2-.4-2.2-1.4l-.3-1.3c-.4-1.8.2-3.7,1.5-5,1.6-1.6,3.9-2.1,6-1.2,1.7.7,3,2.2,3.4,4l1.8,8.6c.4,1.8-.2,3.7-1.5,5-1.1,1.1-2.5,1.6-3.9,1.6h0Z"/>
      <path class="cls-1" d="M40,141.3c-.7,0-1.4-.1-2.1-.4-1.7-.7-3-2.2-3.4-4-.2-1,.4-2,1.4-2.2s2,.4,2.2,1.4c.1.6.5,1.1,1.1,1.3.7.3,1.5.1,2-.4.4-.4.6-1.1.5-1.7l-1.8-8.6c-.1-.6-.5-1.1-1.1-1.3-.7-.3-1.5-.1-2,.4-.4.4-.6,1.1-.5,1.7l.3,1.7c.2,1-.4,2-1.4,2.2s-2-.4-2.2-1.4l-.3-1.7c-.4-1.8.2-3.7,1.5-5,1.6-1.6,3.9-2.1,6-1.2,1.7.7,3,2.2,3.4,4l1.8,8.6c.4,1.8-.2,3.7-1.5,5-1.1,1.1-2.5,1.6-3.9,1.6h0Z"/>
      <path class="cls-1" d="M33.2,144.4c-.7,0-1.4-.1-2.1-.4-1.7-.7-3-2.2-3.4-4,0,0,0-.1,0-.2,0,0,0-.1,0-.2l-1.7-8.2c-.4-1.8.2-3.7,1.5-5,1.6-1.6,3.9-2.1,6-1.2,1.7.7,3,2.2,3.4,4l1.8,8.6c.4,1.8-.2,3.7-1.5,5-1.1,1.1-2.5,1.6-3.9,1.6h0ZM31.3,139c0,0,0,.1,0,.2.1.6.5,1.1,1.1,1.3.7.3,1.5.1,2-.4.4-.4.6-1.1.5-1.6l-1.8-8.6c-.1-.6-.5-1.1-1.1-1.3-.7-.3-1.5-.1-2,.4-.4.4-.6,1.1-.5,1.7l1.7,8.2c0,0,0,.1,0,.2h0Z"/>
      <path class="cls-1" d="M43.1,160.5c-2.4,0-4.4-.4-6.2-1.2-3.9-1.8-6.3-5.4-7.5-11.1-.5-2.2-.9-4.4-1.3-6.4l-.5-2.3c-.5-2.4-.8-3.9-.8-3.9-.2-1,.5-2,1.5-2.2s2,.4,2.2,1.4c0,0,.3,1.6.8,3.9l.5,2.3c.4,1.9.8,4.1,1.3,6.4,1.4,6.6,4.4,8,5.4,8.5,2.4,1.1,5.7,1.1,10.3.2.6-.1,1.2-.2,1.8-.4,3.5-.7,6-1.2,7.9-2.9,2.1-1.9,3.6-5.6,4.6-11.6.7-3.7,2.5-17.8,2.6-17.9h0c0-.6-.1-1.2-.6-1.6-.6-.5-1.3-.6-2-.3-.6.3-.9.8-1,1.4l-1.6,11.2c0,.7-.6,1.2-1.2,1.5-.4.1-10.1,3.7-8.3,13.4.2,1-.5,2-1.5,2.2-1,.2-2-.5-2.2-1.5-1-5.3.6-10.1,4.6-13.8,1.9-1.8,3.9-2.9,5.1-3.4l1.4-10.1c.3-1.8,1.4-3.4,3.1-4.2,2-.9,4.4-.6,6,.9,1.4,1.2,2.1,3.1,1.8,4.9,0,.7-1.9,14.3-2.6,18.1-1.2,6.9-3,11.2-5.8,13.7-2.7,2.5-5.9,3.1-9.7,3.8-.6.1-1.1.2-1.7.4-2.4.5-4.5.7-6.4.7h0Z"/>
    </g>
  </g>
  <g>
    <g>
      <path class="cls-5" d="M37.1,210.8l-1.4-5.4h97.3l-1.4,5.4c-.7,4.1-4.2,7-8.3,7H45.5c-4.1,0-7.6-3-8.3-7Z"/>
      <path class="cls-1" d="M123.4,219.6H45.5c-5,0-9.2-3.6-10.1-8.5l-1.3-5.3c-.1-.6,0-1.1.3-1.6s.9-.7,1.5-.7h97.3c.6,0,1.1.3,1.5.7.4.4.5,1,.3,1.6l-1.4,5.3c-.9,4.9-5.1,8.5-10.1,8.5h0ZM38.2,207.3l.8,3.1s0,0,0,.1c.5,3.2,3.3,5.5,6.5,5.5h77.9c3.2,0,6-2.3,6.5-5.5,0,0,0-.1,0-.1l.8-3.1H38.2Z"/>
    </g>
    <g>
      <path class="cls-5" d="M12.1,209.4L1.9,157.4c0-4.7,3.8-8.4,8.4-8.4h80.4c4.7,0,8.4,3.8,8.4,8.4l10.3,51.9c0,4.7-3.8,8.4-8.4,8.4H20.6c-4.7,0-8.4-3.8-8.4-8.4h0Z"/>
      <path class="cls-1" d="M101,219.6H20.6c-5.6,0-10.2-4.5-10.3-10.1L0,157.8c0-.1,0-.2,0-.4,0-5.7,4.6-10.3,10.3-10.3h80.4c5.6,0,10.2,4.5,10.3,10.1l10.2,51.7c0,.1,0,.2,0,.4,0,5.7-4.6,10.3-10.3,10.3h0ZM3.7,157.3l10.2,51.7c0,.1,0,.2,0,.4,0,3.6,3,6.6,6.6,6.6h80.4c3.6,0,6.5-2.9,6.6-6.4l-10.2-51.7c0-.1,0-.2,0-.4,0-3.6-2.9-6.6-6.6-6.6H10.3c-3.6,0-6.5,2.9-6.6,6.4Z"/>
    </g>
    <circle class="cls-3" cx="55.6" cy="183.4" r="6"/>
  </g>
  <g>
    <path class="cls-5" d="M161.2,186.2c-7.2-2-15-3.9-19.6-3.2-.6,0-1.8,1.1-3.4,2.6-.6-.8-3.8,1-4.8,1.5l-7.8,4.1c-1.1.6-1.8,1.7-1.9,2.9-.2,1.5.6,2.9,1.9,3.6.2.1.5.2.8.3-.3.4-.5.6-.5.6-.8.9-1.1,2.2-.8,3.4.4,1.4,1.6,2.5,3,2.7,1.2.2,2.4-.3,3.3-1.2l2-2.3c-.8.9-1,2.1-.7,3.3.4,1.4,1.6,2.5,3,2.7,1.2.2,2.4-.3,3.3-1.2l1.5-1.7h0c-.7.9-.9,2.1-.6,3.2.4,1.4,1.6,2.5,3,2.7,1.2.2,2.4-.3,3.3-1.2l1.9-2.1c-.5.9-.7,1.9-.4,2.9.4,1.4,1.6,2.5,3.1,2.7,1.2.2,2.4-.3,3.3-1.2l1.8-2.1s1.4-1.6,3.3-3.7c16.6,4.6,27.4-12.1,2.1-19.1h0Z"/>
    <g>
      <path class="cls-1" d="M136.1,209.1c-.3,0-.5,0-.8,0-2.2-.3-4-1.9-4.6-4-.5-1.7,0-3.6,1.1-5h0c0,0,0-.1,0-.1l8.2-9.3c.7-.8,1.9-.8,2.6-.2.8.7.8,1.9.2,2.6l-1.2,1.3-7.1,8c-.4.5-.5,1.1-.4,1.6.2.7.8,1.2,1.5,1.3.6,0,1.2-.1,1.6-.6l10.1-11.5c.7-.8,1.9-.8,2.6-.2.8.7.8,1.9.2,2.6l-10.1,11.5c-1.1,1.2-2.6,1.9-4.1,1.9h0Z"/>
      <path class="cls-1" d="M151.2,214.2c-.3,0-.5,0-.8,0-2.2-.3-4-1.9-4.6-4-.4-1.5-.2-3.1.6-4.4.2-.3.3-.5.6-.8,0,0,0,0,0,0l7.6-8.3c.7-.8,1.9-.8,2.6-.1.8.7.8,1.9.1,2.6l-7.6,8.3c0,0-.1.1-.1.2,0,0,0,0,0,0-.3.4-.4.9-.2,1.4.2.7.8,1.2,1.5,1.3.6,0,1.2-.1,1.6-.6l1.8-2.1s1.4-1.6,3.3-3.7c.5-.5,1.2-.8,1.9-.6,7.4,2.1,13.6-.6,14.6-4.4.9-3.2-2.1-8-13.5-11.2-6.8-1.9-14.4-3.8-18.7-3.2-.2.1-.9.6-2.6,2.2-4,3.7-10,10.4-11.7,12.3-.3.3-.5.5-.5.6-.4.5-.6,1.1-.4,1.7.2.7.8,1.2,1.5,1.3.6,0,1.2-.1,1.6-.6l9.1-10.4c.7-.8,1.9-.8,2.6-.2.8.7.8,1.9.2,2.6l-9.1,10.4c-1.2,1.4-3.1,2.1-4.9,1.8-2.2-.3-4-1.9-4.6-4-.5-1.8,0-3.7,1.2-5.1,0,0,0,0,0,0,0,0,.2-.2.5-.6,1.8-2,7.9-8.7,12-12.5,2.6-2.4,3.6-3,4.5-3.1,5-.7,12.7,1.2,20.4,3.3,14,3.9,17.4,10.7,16,15.8-.8,2.9-3.3,5.4-6.9,6.7-3.3,1.2-7.2,1.4-11.2.5-1.5,1.7-2.5,2.9-2.5,2.9l-1.8,2.1c-1.1,1.2-2.6,1.9-4.1,1.9h0ZM141.8,184.8h0Z"/>
      <path class="cls-1" d="M143.3,212c-.2,0-.5,0-.8,0-2.2-.3-4-1.9-4.6-4-.5-1.8,0-3.7,1.2-5.1l8.4-9.6c.7-.8,1.9-.8,2.6-.2.8.7.8,1.9.2,2.6l-8.4,9.6c-.4.5-.6,1.1-.4,1.7.2.7.8,1.2,1.5,1.3.6,0,1.2-.1,1.6-.6,0,0,0,0,0,0l9.9-10.9c.7-.8,1.9-.8,2.6-.1s.8,1.9.1,2.6l-9.9,10.9c-1.1,1.2-2.6,1.9-4.1,1.9h0Z"/>
      <path class="cls-1" d="M126.3,199.9c-.2,0-.3,0-.5,0h0c-.4-.1-.8-.3-1.2-.5-1.9-1.1-3.1-3.2-2.8-5.4.2-1.9,1.3-3.5,2.9-4.4l8-4.2c2.3-1.2,5.4-2.9,6.9-.9.6.8.5,2-.4,2.6-.6.4-1.3.5-1.9.2-.4.1-1.2.4-2.9,1.3h-.2c0,.1-7.8,4.2-7.8,4.2-.5.3-.9.8-1,1.4,0,.7.3,1.4.9,1.8.1,0,.2.1.4.1,1,.3,1.6,1.3,1.3,2.3-.2.8-1,1.4-1.8,1.4h0ZM136.6,186.7h0Z"/>
    </g>
  </g>
  <g>
    <path class="cls-5" d="M176.4,122.6c0-5.7-4.2-10.9-8.7-10.9,4.5,0,8.7-5.3,8.7-10.9,0,5.7,4.2,10.9,8.7,10.9-4.5,0-8.7,5.3-8.7,10.9Z"/>
    <path class="cls-1" d="M176.4,124.5c-1,0-1.9-.8-1.9-1.8,0-4.6-3.4-9.1-6.9-9.1s-1.9-.8-1.9-1.8.8-1.8,1.9-1.8c3.5,0,6.9-4.5,6.9-9.1s.8-1.8,1.9-1.8,1.9.8,1.9,1.8c0,4.6,3.4,9.1,6.9,9.1s1.9.8,1.9,1.8-.8,1.8-1.9,1.8c-3.5,0-6.9,4.5-6.9,9.1s-.8,1.8-1.9,1.8ZM172.9,111.7c1.4,1,2.6,2.4,3.5,4,.9-1.6,2.1-3,3.5-4-1.4-1-2.6-2.4-3.5-4-.9,1.6-2.1,3-3.5,4Z"/>
  </g>
  <g>
    <path class="cls-5" d="M188.2,102.6c0-5.7-4.2-10.9-8.7-10.9,4.5,0,8.7-5.3,8.7-10.9,0,5.7,4.2,10.9,8.7,10.9-4.5,0-8.7,5.3-8.7,10.9Z"/>
    <path class="cls-1" d="M188.2,104.4c-1,0-1.9-.8-1.9-1.8,0-4.6-3.4-9.1-6.9-9.1s-1.9-.8-1.9-1.8.8-1.8,1.9-1.8c3.5,0,6.9-4.5,6.9-9.1s.8-1.8,1.9-1.8,1.9.8,1.9,1.8c0,4.6,3.4,9.1,6.9,9.1s1.9.8,1.9,1.8-.8,1.8-1.9,1.8c-3.5,0-6.9,4.5-6.9,9.1s-.8,1.8-1.9,1.8ZM184.7,91.6c1.4,1,2.6,2.4,3.5,4,.9-1.6,2.1-3,3.5-4-1.4-1-2.6-2.4-3.5-4-.9,1.6-2.1,3-3.5,4Z"/>
  </g>
  <g>
    <g>
      <path class="cls-1" d="M44.6,21.2c-1,0-1.8-.8-1.8-1.9V1.9C42.7.8,43.6,0,44.6,0s1.8.8,1.8,1.9v17.5c0,1-.8,1.9-1.8,1.9Z"/>
      <path class="cls-1" d="M34.7,22.7c-.8,0-1.5-.5-1.8-1.3l-5.4-16.6c-.3-1,.2-2,1.2-2.3,1-.3,2,.2,2.3,1.2l5.4,16.6c.3,1-.2,2-1.2,2.3-.2,0-.4,0-.6,0h0Z"/>
      <path class="cls-1" d="M25.7,27.3c-.6,0-1.1-.3-1.5-.8l-10.3-14.1c-.6-.8-.4-2,.4-2.6s2-.4,2.6.4l10.3,14.1c.6.8.4,2-.4,2.6-.3.2-.7.4-1.1.4Z"/>
      <path class="cls-1" d="M18.6,34.4c-.4,0-.8-.1-1.1-.3L3.4,23.8c-.8-.6-1-1.8-.4-2.6s1.8-1,2.6-.4l14.1,10.3c.8.6,1,1.8.4,2.6-.4.5-.9.8-1.5.8Z"/>
    </g>
    <g>
      <g>
        <path class="cls-5" d="M41.5,67.3c0-1.2.5-2.4,1.4-3.1,1-.8,2.4-.8,3.4,0,.9.7,1.4,1.8,1.4,3.1v13.3c0,1.2-.5,2.4-1.4,3.1-1,.8-2.4.8-3.4,0-.9-.7-1.4-1.8-1.4-3.1v-13.3Z"/>
        <path class="cls-1" d="M44.6,86.2c-1,0-2-.3-2.8-1-1.3-1-2.1-2.7-2.1-4.5v-13.3c0-1.8.8-3.5,2.1-4.5,1.7-1.3,4-1.3,5.7,0,1.3,1,2.1,2.7,2.1,4.5v13.3c0,1.8-.8,3.5-2.1,4.5-.8.7-1.8,1-2.8,1ZM44.6,65.5c-.2,0-.4,0-.5.2-.4.3-.7.9-.7,1.6v13.3c0,.7.3,1.3.7,1.6.3.3.7.3,1.1,0,.4-.3.7-.9.7-1.6v-13.3c0-.7-.3-1.3-.7-1.6-.2-.1-.4-.2-.5-.2Z"/>
      </g>
      <g>
        <circle class="cls-5" cx="44.6" cy="50.4" r="20"/>
        <path class="cls-1" d="M44.6,72.3c-12.1,0-21.9-9.8-21.9-21.9s9.8-21.9,21.9-21.9,21.9,9.8,21.9,21.9-9.8,21.9-21.9,21.9ZM44.6,32.2c-10,0-18.2,8.2-18.2,18.2s8.2,18.2,18.2,18.2,18.2-8.2,18.2-18.2-8.2-18.2-18.2-18.2Z"/>
      </g>
      <circle class="cls-3" cx="43.8" cy="52.6" r="13.7"/>
      <g>
        <g>
          <path class="cls-5" d="M37.9,77.1c-1.2,0-2.4-.5-3.1-1.4-.8-1-.8-2.4,0-3.4.7-.9,1.8-1.4,3.1-1.4h13.3c1.2,0,2.4.5,3.1,1.4.8,1,.8,2.4,0,3.4-.7.9-1.8,1.4-3.1,1.4h-13.3Z"/>
          <path class="cls-1" d="M51.2,78.9h-13.3c-1.8,0-3.5-.8-4.5-2.1-1.3-1.7-1.3-4,0-5.7,1-1.3,2.7-2.1,4.5-2.1h13.3c1.8,0,3.5.8,4.5,2.1,1.3,1.7,1.3,4,0,5.7-1,1.3-2.7,2.1-4.5,2.1ZM37.9,72.8c-.7,0-1.3.3-1.6.7-.3.3-.3.7,0,1.1.3.4.9.7,1.6.7h13.3c.7,0,1.3-.3,1.6-.7.3-.3.3-.7,0-1.1-.3-.4-.9-.7-1.6-.7h-13.3Z"/>
        </g>
        <g>
          <path class="cls-5" d="M35,70.9c-1.2,0-2.4-.5-3.1-1.4-.8-1-.8-2.4,0-3.4.7-.9,1.8-1.4,3.1-1.4h19c1.2,0,2.4.5,3.1,1.4.8,1,.8,2.4,0,3.4-.7.9-1.8,1.4-3.1,1.4h-19Z"/>
          <path class="cls-1" d="M54.1,72.8h-19c-1.8,0-3.5-.8-4.5-2.1-1.3-1.7-1.3-4,0-5.7,1-1.3,2.7-2.1,4.5-2.1h19c1.8,0,3.5.8,4.5,2.1,1.3,1.7,1.3,4,0,5.7-1,1.3-2.7,2.1-4.5,2.1ZM35.1,66.7c-.7,0-1.3.3-1.6.7-.3.3-.3.7,0,1.1.3.4.9.7,1.6.7h19c.7,0,1.3-.3,1.6-.7.3-.3.3-.7,0-1.1-.3-.4-.9-.7-1.6-.7h-19Z"/>
        </g>
      </g>
      <path class="cls-1" d="M51.7,66l-3-2.1c0-.1,7.8-11.3,1.9-15.8-1-.8-2-1-3-.8.5.6.9,1.3,1.2,2.1.8,1.9,1,3.8.5,5.3-.6,2-2.4,3.2-4.7,3.2s-4.1-1.2-4.7-3.2c-.5-1.5-.3-3.4.5-5.3.3-.7.7-1.4,1.2-2.1-1-.2-2,0-3,.8-6,4.5,1.8,15.7,1.9,15.8l-3,2.1c0-.1-2.4-3.5-3.8-7.5-2.5-7.5,0-11.4,2.7-13.4,2.6-2,5.5-2.2,8.2-.6,2.7-1.6,5.6-1.4,8.2.6,2.6,2,5.2,5.9,2.7,13.4-1.4,4.1-3.7,7.4-3.8,7.5h0ZM44.6,49.5c-1,1.4-1.5,3.1-1.2,4,0,.2.2.6,1.2.6s1.1-.4,1.2-.6c.3-.9-.2-2.6-1.2-4Z"/>
    </g>
  </g>
</svg>