<svg id="a" xmlns="http://www.w3.org/2000/svg" version="1.1" viewBox="0 0 180.2 193.3"><defs><clipPath id="clippath"><path d="M151 51.2h.1c6.9-.1 8.6 6.4 7.5 12.2-1.5 7.8-7.3 10.6-10.6 9.5-3.1 12.3-9.4 16.6-15.6 18.9.7 5.3.3 10.5 6.7 15.8 3.2 2.7 12.1 4.4 17.6 6.4 8.7 3 16.2 7.6 19.1 15 2.6 6.6 2.7 36.1 2.3 41.5-.2 2.5-1.5 4.8-3.6 6.3-11.9 8.2-44.7 10.5-56.8 10.5s-45-2.3-56.8-10.5c-2.1-1.4-3.4-3.8-3.6-6.3-.4-5.3-.4-34.9 2.3-41.5 3-7.4 10.4-11.9 19.1-15 5.5-1.9 14.4-3.6 17.7-6.4 6.4-5.4 6-10.6 6.7-15.8-6.2-2.3-12.4-6.6-15.6-18.9-3.3 1.1-9.1-1.7-10.6-9.5-1.1-5.9.6-12.4 7.5-12.2h.1C72.7.3 117.8 6.4 117.8 6.4s45.1-6 33.3 44.8Z" style="fill:none;stroke-width:0"/></clipPath><style>.cls-1{fill:#1e1210}.cls-1,.cls-3,.cls-4{stroke-width:0}.cls-3{fill:#39b2bf}.cls-4{fill:#fff}</style></defs><path class="cls-3" d="M117.8 96.9s-32.6.2-43.6-10.7l3.7-28.1C62.8-1.1 117.8 1.9 117.8 1.9s54.9-3 39.8 56.2l3.7 28.1c-11 10.9-43.6 10.7-43.6 10.7Z"/><path class="cls-1" d="M118 98.8h-.2c-1.5 0-33.5 0-44.9-11.2-.4-.4-.6-1-.5-1.6l3.7-27.8c-4.8-18.9-3-33.7 5.4-43.8 5.3-6.4 13.2-10.9 23.1-13C111.4-.2 117 0 117.8 0c.8 0 6.3-.2 13.3 1.3 9.8 2.1 17.8 6.6 23.1 13 8.3 10.1 10.1 24.9 5.4 43.8l3.7 27.8c0 .6-.1 1.2-.5 1.6-11 10.9-41.5 11.2-44.7 11.2Zm-.2-3.7c.9 0 8.6 0 17.4-1.2 11.4-1.6 19.8-4.4 24.2-8.3l-3.6-27.2v-.7c4.6-17.9 3-31.7-4.5-40.9-5.9-7.2-14.6-10.4-20.9-11.8-6.9-1.5-12.4-1.2-12.5-1.2h-.2s-5.6-.3-12.5 1.2c-6.3 1.4-15 4.5-20.9 11.8-7.6 9.2-9.1 23-4.5 40.9v.7l-3.6 27.2c4.4 3.9 12.7 6.7 24.2 8.3 9.3 1.3 17.4 1.2 17.4 1.2Z"/><path class="cls-4" d="M151 51.2h.1c6.9-.1 8.6 6.4 7.5 12.2-1.5 7.8-7.3 10.6-10.6 9.5-3.1 12.3-9.4 16.6-15.6 18.9.7 5.3.3 10.5 6.7 15.8 3.2 2.7 12.1 4.4 17.6 6.4 8.7 3.1 16.2 7.6 19.1 15 2.6 6.6 2.7 36.1 2.3 41.5-.2 2.5-1.5 4.8-3.6 6.3-11.9 8.2-44.7 10.5-56.8 10.5s-45-2.3-56.8-10.5c-2.1-1.4-3.4-3.8-3.6-6.3-.4-5.3-.4-34.9 2.3-41.5 3-7.4 10.4-11.9 19.1-14.9 5.5-1.9 14.4-3.6 17.7-6.4 6.4-5.4 6-10.6 6.7-15.8-6.2-2.3-12.4-6.6-15.6-18.9-3.3 1.1-9.1-1.7-10.6-9.5-1.1-5.9.6-12.4 7.5-12.2h.1C75.5.6 117.8 1.9 117.8 1.9s42-1.8 33.3 49.3Z" style="clip-path:url(#clippath)"/><path d="m97.1 25.5-3.3-2.2c1.1.8 2.2 1.5 3.3 2.2Z" style="fill:#74c6be;stroke-width:0"/><path class="cls-3" d="M117.8 5.2S70.5.3 85.5 55l3.6-16s1.9-4 8.7-13l-.8-.5c-1.1-.7-2.2-1.4-3.3-2.2l3.3 2.2C118.3 38.4 146.4 39 146.4 39l3.6 16C165.1.3 117.8 5.2 117.8 5.2Z"/><path class="cls-1" d="M103.1 93.7c-.2 0-.4 0-.6-.1-4-1.5-7.1-3.5-9.6-6.2-3.2-3.4-5.5-8-7.1-13.9v-.1c-.2-.6-.3-1.1-.4-1.6-.2-1 .4-2 1.4-2.2 1-.2 2 .4 2.2 1.4 0 .4.2.8.3 1.3v.1c3.1 11.9 9 15.6 14.4 17.6.9.4 1.4 1.4 1.1 2.4-.3.7-1 1.2-1.7 1.2Z"/><path class="cls-1" d="M86.1 75c-1.5 0-3.1-.4-4.6-1.3-1.9-1.1-5.2-3.9-6.4-9.9-.9-4.6-.1-8.8 2.1-11.4 1.7-2 4.2-3.1 7.2-3 1 0 1.8.9 1.8 1.9s-.9 1.8-1.9 1.8c-1.9 0-3.3.5-4.3 1.7-1.5 1.7-2 4.9-1.3 8.3.4 2 1.5 5.6 4.6 7.4 1.3.7 2.6 1 3.6.7 1-.3 2 .2 2.3 1.2s-.2 2-1.2 2.3c-.7.2-1.3.3-2.1.3ZM132.4 93.7c-.8 0-1.4-.5-1.7-1.2-.4-.9.1-2 1.1-2.4 3.5-1.3 6.1-3 8.3-5.3 2.8-3 4.9-7 6.2-12.4.1-.5.2-1 .3-1.4.2-1 1.2-1.6 2.2-1.4s1.6 1.2 1.4 2.2c-.1.5-.2 1-.4 1.6-1.5 6-3.8 10.5-7.1 14-2.6 2.7-5.6 4.7-9.7 6.2-.2 0-.4.1-.6.1Z"/><path class="cls-1" d="M149.5 75c-.7 0-1.4 0-2-.3-.8-.2-1.3-.9-1.3-1.8s.8-1.8 1.8-1.8h.6c1 .3 2.4 0 3.6-.7 1.3-.8 3.7-2.8 4.6-7.4.7-3.4.2-6.6-1.3-8.3-1-1.2-2.4-1.7-4.3-1.7-1 0-1.9-.8-1.9-1.8s.8-1.9 1.8-1.9c3 0 5.5 1 7.2 3 2.2 2.6 3 6.8 2.1 11.4-1.2 6-4.5 8.8-6.4 9.9-1.5.9-3.1 1.3-4.6 1.3ZM85.5 56.8c-.8 0-1.6-.5-1.8-1.4-.4-1.4-.7-2.7-1-3.9-.2-1 .4-2 1.4-2.2s2 .4 2.2 1.4c.3 1.2.6 2.5.9 3.8.3 1-.3 2-1.3 2.3h-.5Z"/><path class="cls-1" d="M150.1 56.8h-.5c-1-.3-1.6-1.3-1.3-2.3.4-1.3.7-2.6.9-3.8.2-1 1.2-1.6 2.2-1.4 1 .2 1.6 1.2 1.4 2.2-.3 1.2-.6 2.6-1 3.9-.2.8-1 1.4-1.8 1.4ZM117.8 189.1c-6.2 0-17.5-.6-28.8-2.2-13.9-2-23.7-4.9-29.1-8.6-2.5-1.8-4.1-4.6-4.3-7.7-.3-4.6-.5-35 2.4-42.3 2.8-7 9.4-12.2 20.2-16 1.8-.6 3.8-1.2 6-1.8 4.3-1.2 9.2-2.6 11.1-4.2 4.9-4.2 5.3-8 5.8-12.4 0-.7.2-1.5.2-2.2.1-1 1.1-1.7 2.1-1.6 1 .1 1.7 1.1 1.6 2.1 0 .7-.2 1.4-.2 2.1-.5 4.6-1 9.8-7.1 14.9-2.5 2.1-7.6 3.6-12.5 4.9-2.1.6-4.1 1.2-5.8 1.7-9.7 3.4-15.6 7.9-18 13.9-2.4 6-2.6 34.8-2.2 40.6.2 2 1.2 3.8 2.8 4.9 4.9 3.4 14.4 6.2 27.5 8 11.1 1.6 22.2 2.1 28.3 2.1 13.4 0 44.7-2.5 55.8-10.2 1.6-1.1 2.6-2.9 2.8-4.9.4-5.8.2-34.7-2.2-40.6-2.4-5.9-8.3-10.5-18-13.9-1.7-.6-3.6-1.1-5.7-1.7-4.9-1.4-9.9-2.8-12.5-5-6.1-5.1-6.6-10.3-7.1-14.9 0-.7-.1-1.4-.2-2.1-.1-1 .6-1.9 1.6-2.1s1.9.6 2.1 1.6c.1.7.2 1.5.2 2.2.5 4.5.9 8.3 5.8 12.4 1.9 1.6 6.8 3 11.1 4.2s4.2 1.2 5.9 1.8c10.8 3.8 17.4 9 20.2 16 2.9 7.3 2.8 37.6 2.4 42.3-.2 3.1-1.8 5.9-4.4 7.7-5.4 3.8-15.2 6.7-29.1 8.6-11.3 1.6-22.6 2.2-28.8 2.2ZM117.8 67.9c-.4 0-.8-.4-.8-.8v-1c0-.4.4-.8.8-.8s.8.4.8.8v1c0 .4-.4.8-.8.8Z"/><path class="cls-1" d="M117.8 120.7c-17.1 0-20.1-2.7-21.2-3.6-.8-.7-.9-1.8-.2-2.6s1.8-.9 2.6-.2c2.8 2.6 15 2.7 18.7 2.7s15.9-.2 18.7-2.7c.8-.7 1.9-.6 2.6.1.7.8.6 1.9-.2 2.6-.7.7-1.9 1.5-4.9 2.2-3.7.9-9.2 1.4-16.3 1.4ZM101 47.9c-.4 0-.8-.2-1-.5-.5-.6-.5-1.5 0-2 2.1-2 5.9-2.6 9-1.3.7.3 1.1 1.1.8 1.9-.3.7-1.1 1.1-1.9.8-2.3-.9-4.8-.3-6 .8-.3.3-.6.4-1 .4ZM103.1 93.7c-.2 0-.4 0-.7-.1-4.2-1.6-7.4-3.7-10-6.6-3.3-3.7-5.7-8.7-7.1-15.2-.2-1 .4-2 1.4-2.2 1-.2 2 .4 2.2 1.4 2.9 13.1 9.1 17 14.8 19.1.9.4 1.4 1.4 1.1 2.4-.3.7-1 1.2-1.7 1.2ZM132.4 93.7c-.8 0-1.4-.5-1.7-1.2-.4-.9.1-2 1.1-2.4C142 86.3 145 78.3 146.6 71c.2-1 1.2-1.6 2.2-1.4s1.6 1.2 1.4 2.2c-1.4 6.5-3.7 11.5-7.1 15.2-2.6 2.9-5.8 5-10 6.6-.2 0-.4.1-.6.1Z"/><path class="cls-3" d="M117.8 187.2c-13.6 0-52.1-2.9-59-13.8-.6-7.1-2.2-36.7.9-44.5 3-7.4 10.4-11.9 19.1-14.9 5.5-1.9 14.4-3.6 17.7-6.4l21.3 37.6 21.3-37.6c3.2 2.7 12.1 4.4 17.6 6.4 8.7 3.1 16.2 7.6 19.1 14.9 3.1 7.8 1.4 37.4.9 44.5-6.9 10.9-45.4 13.8-59 13.8Z"/><path class="cls-1" d="M117.8 147.1c-.7 0-1.3-.4-1.6-.9l-21.3-37.6c-.5-.9-.2-2 .7-2.5.9-.5 2-.2 2.5.7l19.7 34.8 19.7-34.8c.5-.9 1.6-1.2 2.5-.7.9.5 1.2 1.6.7 2.5l-21.3 37.6c-.3.6-.9.9-1.6.9ZM109.8 153.1c-.3 0-.6-.1-.9-.3l-23.2-19.1c-.3-.3-.5-.7-.5-1.1 0-.4.2-.8.5-1.1l5.4-4.4-5.1-4.7c-.3-.3-.5-.7-.5-1.1s.2-.8.5-1.1l6.9-5.6c.6-.5 1.5-.4 2 .2s.4 1.5-.2 2l-5.6 4.6 5.1 4.7c.3.3.5.7.5 1.1 0 .4-.2.8-.5 1.1l-5.4 4.3 21.9 17.9c.6.5.7 1.4.2 2-.3.4-.7.5-1.1.5ZM125.8 153.1c-.4 0-.8-.2-1.1-.5-.5-.6-.4-1.5.2-2l21.9-17.9-5.4-4.3c-.3-.3-.5-.7-.5-1.1s.2-.8.5-1.1l5.1-4.7-5.6-4.6c-.6-.5-.7-1.4-.2-2 .5-.6 1.4-.7 2-.2l6.9 5.6c.3.3.5.7.5 1.1 0 .4-.2.8-.5 1.1l-5.1 4.7 5.4 4.4c.3.3.5.7.5 1.1s-.2.8-.5 1.1l-23.2 19.1c-.3.2-.6.3-.9.3ZM150.1 56.8c-.9 0-1.6-.6-1.8-1.4L145 40.7c-2.8-.2-9.1-.6-17.2-2.2-9.7-1.9-23.8-5.8-35.2-13.7-.8-.6-1-1.7-.5-2.6s1.7-1 2.6-.5C115.6 36.2 146.1 37 146.4 37c.9 0 1.6.6 1.8 1.4l2.1 9.1c.4-.3 1-.5 1.5-.4 1 .2 1.6 1.2 1.4 2.2-.4 1.9-.9 3.9-1.4 6-.2.8-.9 1.4-1.8 1.4Z"/><path class="cls-1" d="M85.5 56.8c-.8 0-1.6-.5-1.8-1.4-.5-1.9-1-3.7-1.3-5.5-.2-1 .4-2 1.4-2.2.5-.1 1 0 1.4.2l2.1-9.5c0-.1 0-.2.1-.4 0-.2 2-4.3 8.9-13.3.6-.8 1.8-1 2.6-.4s1 1.8.3 2.6c-5.9 7.7-8 11.7-8.4 12.5l-3.6 15.8c-.2.8-.9 1.4-1.8 1.4ZM145.1 32.5c-.3 0-.6-.1-.9-.3-8.1-7.9-22.8-16-34.4-18.9-.7-.2-1.1-.8-.9-1.5s.8-1.1 1.5-.9c11.9 3 27.2 11.4 35.6 19.5.5.5.5 1.2 0 1.7-.2.2-.6.4-.9.4ZM117.8 189.1c-6.2 0-17.5-.6-28.8-2.2-13.9-2-23.7-4.9-29.1-8.6-2.5-1.8-4.1-4.6-4.3-7.7-.3-4.6-.5-35 2.4-42.3 2.8-7 9.4-12.2 20.2-16 1.8-.6 3.8-1.2 6-1.8 4.3-1.2 9.2-2.6 11.1-4.2 4.9-4.2 5.3-8 5.8-12.4 0-.7.2-1.5.2-2.2.1-1 1.1-1.7 2.1-1.6 1 .1 1.7 1.1 1.6 2.1 0 .7-.2 1.4-.2 2.1-.5 4.6-1 9.8-7.1 14.9-2.5 2.1-7.6 3.6-12.5 4.9-2.1.6-4.1 1.2-5.8 1.7-9.7 3.4-15.6 7.9-18 13.9-2.4 6-2.6 34.8-2.2 40.6.2 2 1.2 3.8 2.8 4.9 4.9 3.4 14.4 6.2 27.5 8 11.1 1.6 22.2 2.1 28.3 2.1 13.4 0 44.7-2.5 55.8-10.2 1.6-1.1 2.6-2.9 2.8-4.9.4-5.8.2-34.7-2.2-40.6-2.4-5.9-8.3-10.5-18-13.9-1.7-.6-3.6-1.1-5.7-1.7-4.9-1.4-9.9-2.8-12.5-5-6.1-5.1-6.6-10.3-7.1-14.9 0-.7-.1-1.4-.2-2.1-.1-1 .6-1.9 1.6-2.1s1.9.6 2.1 1.6c.1.7.2 1.5.2 2.2.5 4.5.9 8.3 5.8 12.4 1.9 1.6 6.8 3 11.1 4.2s4.2 1.2 5.9 1.8c10.8 3.8 17.4 9 20.2 16 2.9 7.3 2.8 37.6 2.4 42.3-.2 3.1-1.8 5.9-4.4 7.7-5.4 3.8-15.2 6.7-29.1 8.6-11.3 1.6-22.6 2.2-28.8 2.2ZM134.6 47.9c-.4 0-.7-.1-1-.4-1.1-1.1-3.7-1.7-6-.8-.7.3-1.6 0-1.9-.8-.3-.7 0-1.6.8-1.9 3.1-1.2 6.9-.7 9 1.3.6.5.6 1.5 0 2-.3.3-.7.5-1 .5ZM117.8 82.5c-7.5 0-10.6-7.2-10.7-7.5-.2-.4-.1-.9.1-1.3.3-.4.7-.6 1.2-.6h18.7c.5 0 .9.2 1.2.6.3.4.3.9.1 1.3-.1.3-3.2 7.5-10.7 7.5Zm-6.9-6.6c1.2 1.7 3.4 3.8 6.9 3.8s5.7-2.1 6.9-3.8h-13.8ZM134.6 57.9c-.4 0-.9-.2-1.2-.6-.9-1.2-2.1-1.4-2.8-1.4-1.1 0-2.2.3-2.8 1-.5.6-1.4.7-2 .2-.6-.5-.7-1.4-.2-2 1.1-1.3 3.1-2 5.1-2 2.1 0 3.9 1 5 2.6.5.6.3 1.5-.3 2-.3.2-.6.3-.8.3ZM101 57.9c-.3 0-.6 0-.8-.3-.6-.5-.8-1.4-.3-2 1.1-1.6 3-2.5 5-2.6 2 0 3.9.7 5.1 2 .5.6.4 1.5-.2 2-.6.5-1.5.5-2-.2-.5-.6-1.7-1-2.8-1-.7 0-2 .2-2.8 1.4-.3.4-.7.6-1.2.6Z"/><path class="cls-4" d="M34 109.5 23.2 96.3c-.8-.9-2-1.4-3.2-1.2-1.5.2-2.6 1.3-3 2.7-.3 1.2 0 2.4.8 3.4 0 0 6 8.4 8.9 11.3 2.7 3.1 5.5 24.9 20.9 21 9.1-2.3 11.4-8.7 13.3-9.6 3.3-1.6 6.7-1.8 8.3-4.3 1.9-2.9 3.4-10.9 3.4-10.9.4-1.2.2-2.4-.6-3.4-.9-1.2-2.4-1.7-3.8-1.3-1.2.3-2.1 1.2-2.5 2.3l-2.1 6s-3.1 1.4-4.5.2-3-10.7-3-10.7l4.9-2.5 7 3c1.2.4 2.4.3 3.4-.4 1.2-.8 1.8-2.3 1.4-3.8-.3-1.2-1.1-2.2-2.3-2.6 0 0-7.2-3.6-9-4.4-1.6-.7-13.5 4.4-13.2 6.6.4 3.9.8 6.6.8 6.6l-7.5-23.2c-.3-1.2-1.3-2.1-2.4-2.5-1.4-.4-2.9 0-3.9 1.1-.8.9-1.1 2.2-.7 3.4l6.6 22.6-10.6-19.8c-.5-1.1-1.6-1.8-2.8-2-1.5-.2-2.9.5-3.6 1.8-.6 1.1-.7 2.4-.1 3.5l9.9 20.3Z"/><path class="cls-1" d="M43.9 135.8c-4.2 0-7.8-1.8-10.8-5.5-3.1-3.8-4.9-8.8-6.3-12.5-.6-1.7-1.3-3.5-1.7-4-2.8-2.9-8.3-10.6-9-11.4-1.2-1.4-1.6-3.2-1.1-5 .6-2.1 2.3-3.7 4.5-4 1.8-.3 3.7.4 4.9 1.8l.7.8-2.9-5.9c-.8-1.7-.8-3.6.2-5.2 1.1-1.9 3.2-3 5.4-2.7 1.8.2 3.4 1.3 4.2 3l2.3 4.3-1.7-5.8c-.5-1.8-.1-3.7 1.1-5.1 1.4-1.7 3.7-2.4 5.8-1.7 1.8.5 3.1 1.9 3.7 3.7L47.8 95c.3-.3.6-.5.9-.7 1.7-1.2 4.2-2.5 7-3.6 4.8-1.9 6-1.4 6.5-1.2 1.7.8 8.1 4 9 4.4 1.7.7 2.9 2.1 3.3 3.9.5 2.1-.3 4.2-2 5.5.3.2.6.5.8.9 1.1 1.4 1.4 3.3.9 5-.2 1.3-1.6 8.4-3.6 11.4-1.4 2.2-3.8 3-6 3.8-1 .3-2 .7-3 1.2-.2.2-.8.8-1.2 1.4-2 2.4-5.3 6.6-12.4 8.4-1.4.4-2.8.5-4 .5ZM20.4 96.9h-.3c-.7 0-1.3.6-1.5 1.3-.2.6 0 1.2.4 1.7l.1.2s6 8.3 8.7 11.1c.9 1 1.5 2.8 2.4 5.2 1.2 3.4 2.9 8.1 5.7 11.4 3 3.7 6.5 4.8 11 3.7 5.9-1.5 8.7-4.9 10.5-7.1.9-1.1 1.5-1.9 2.4-2.3 1.2-.6 2.4-1 3.5-1.4 1.9-.7 3.4-1.2 4.2-2.3 1.4-2.1 2.7-8.1 3.1-10.2v-.3c.2-.6 0-1.2-.3-1.7-.4-.6-1.2-.8-1.9-.7-.6.2-1.1.6-1.3 1.2l-2.1 6c-.2.5-.5.9-1 1.1-.7.3-4.2 1.8-6.5 0-.8-.6-1.6-1.8-2.7-6.8-.6-2.6-1-4.9-1-5-.1-.8.3-1.6 1-1.9l4.9-2.5c.5-.2 1.1-.3 1.6 0l7 3c.6.2 1.2.1 1.7-.2.6-.4.9-1.2.7-1.9-.1-.6-.6-1.1-1.1-1.3h-.2s-6.7-3.3-8.7-4.3c-.7 0-2.8.6-5.7 2-3 1.4-4.6 2.5-5.1 3.1.4 3.6.7 6.1.8 6.1.1.9-.5 1.8-1.4 2.1-.9.2-1.9-.3-2.2-1.2l-7.5-23.2c-.2-.6-.6-1-1.2-1.2-.7-.2-1.5 0-1.9.6-.4.5-.5 1.1-.4 1.7l6.6 22.6c.3.9-.2 1.9-1.1 2.2s-1.9 0-2.3-.8L28.7 87.1c-.3-.6-.8-.9-1.4-1-.7 0-1.4.3-1.8.9-.3.5-.3 1.2 0 1.7l9.9 20.3c.4.8.1 1.9-.7 2.4-.8.5-1.8.3-2.4-.4L21.5 97.8c-.4-.4-.8-.6-1.3-.6Zm39.8 14.3Zm-.1 0c.3.1 1.1 0 1.9-.2l1.8-5.2c.3-.9.9-1.8 1.6-2.4l-4.5-1.9-3 1.5c.7 3.6 1.6 7.4 2.2 8.3Z"/><path class="cls-4" d="m36.9 184.5-1.4-5.3h96.8l-1.4 5.3c-.7 4-4.2 7-8.3 7H45.2c-4.1 0-7.6-2.9-8.3-7Z"/><path class="cls-1" d="M122.7 193.3H45.2c-5 0-9.2-3.5-10.1-8.4l-1.3-5.3c-.1-.6 0-1.1.3-1.6.3-.4.9-.7 1.5-.7h96.8c.6 0 1.1.3 1.5.7s.5 1 .3 1.6l-1.3 5.3c-.9 4.9-5.1 8.4-10.1 8.4ZM37.9 181l.8 3v.1c.5 3.1 3.3 5.4 6.5 5.4h77.5c3.2 0 5.9-2.3 6.5-5.4v-.1l.8-3H37.9Z"/><path class="cls-4" d="M12.1 183.1 1.8 131.5c0-4.6 3.8-8.4 8.4-8.4h80c4.6 0 8.4 3.8 8.4 8.4l10.2 51.6c0 4.6-3.8 8.4-8.4 8.4H20.5c-4.6 0-8.4-3.8-8.4-8.4Z"/><path class="cls-1" d="M100.4 193.3H20.5c-5.6 0-10.1-4.5-10.2-10.1L0 131.8v-.4c0-5.6 4.6-10.2 10.2-10.2h80c5.6 0 10.1 4.5 10.2 10l10.2 51.5v.4c0 5.6-4.6 10.2-10.2 10.2Zm-96.7-62 10.2 51.4v.4c0 3.6 2.9 6.6 6.6 6.6h80c3.6 0 6.5-2.9 6.6-6.4l-10.2-51.4v-.4c0-3.6-2.9-6.6-6.6-6.6H10.2c-3.6 0-6.5 2.8-6.5 6.4Z"/><circle class="cls-3" cx="55.3" cy="157.3" r="6"/><path class="cls-4" d="M160.3 160.1c-7.2-2-14.9-3.9-19.5-3.2-.6 0-1.8 1.1-3.4 2.6-.6-.8-3.7 1-4.7 1.5l-7.8 4.1c-1.1.6-1.8 1.6-1.9 2.9-.1 1.5.6 2.9 1.9 3.6.2.1.5.2.8.3-.3.4-.5.6-.5.6-.8.9-1.1 2.2-.8 3.4.4 1.4 1.6 2.5 3 2.7 1.2.2 2.4-.3 3.2-1.2l2-2.3c-.8.9-1 2.1-.7 3.3.4 1.4 1.6 2.5 3 2.7 1.2.2 2.4-.3 3.2-1.2l1.5-1.7c-.7.9-.9 2.1-.6 3.2.4 1.4 1.6 2.5 3 2.7 1.2.2 2.4-.3 3.2-1.2l1.9-2.1c-.5.9-.7 1.9-.4 2.9.4 1.4 1.6 2.5 3 2.7 1.2.2 2.4-.3 3.2-1.2l1.8-2.1s1.4-1.6 3.3-3.7c16.5 4.6 27.2-12.1 2.1-19Z"/><path class="cls-1" d="M135.4 182.8h-.8c-2.2-.3-4-1.9-4.6-4-.5-1.7 0-3.6 1.1-4.9v-.1l8.1-9.2c.7-.8 1.8-.8 2.6-.2s.8 1.8.2 2.6l-1.1 1.3-7 8c-.4.4-.5 1.1-.4 1.6.2.7.8 1.2 1.5 1.3.6 0 1.2-.1 1.6-.6l10.1-11.5c.7-.8 1.8-.8 2.6-.2.8.7.8 1.8.2 2.6L139.4 181c-1.1 1.2-2.6 1.9-4.1 1.9Z"/><path class="cls-1" d="M150.3 187.9h-.8c-2.2-.3-4-1.9-4.6-4-.4-1.5-.2-3.1.6-4.3.1-.2.3-.5.6-.7l7.6-8.2c.7-.8 1.9-.8 2.6-.1.8.7.8 1.9.1 2.6l-7.6 8.2s-.1.1-.1.2c-.3.4-.4.9-.2 1.4.2.7.8 1.2 1.5 1.3.6 0 1.2-.1 1.6-.6l1.8-2.1s1.4-1.6 3.3-3.7c.5-.5 1.2-.7 1.9-.6 7.4 2.1 13.5-.6 14.5-4.3.9-3.2-2.1-8-13.4-11.1-6.8-1.9-14.3-3.7-18.6-3.2-.2.1-.9.6-2.6 2.1-3.9 3.7-9.9 10.3-11.7 12.2-.3.3-.5.5-.5.6-.4.5-.5 1.1-.4 1.7.2.7.8 1.2 1.5 1.3.6 0 1.2-.1 1.6-.6l9.1-10.3c.7-.8 1.8-.8 2.6-.2.8.7.8 1.8.2 2.6l-9.1 10.3c-1.2 1.4-3.1 2.1-4.9 1.8-2.2-.3-4-1.9-4.6-4-.5-1.8 0-3.7 1.2-5.1 0 0 .2-.2.5-.6 1.8-2 7.8-8.7 11.9-12.5 2.6-2.4 3.6-3 4.4-3.1 4.9-.7 12.7 1.1 20.3 3.3 13.9 3.9 17.4 10.6 15.9 15.7-.8 2.9-3.3 5.4-6.8 6.7-3.3 1.2-7.2 1.4-11.1.5-1.5 1.7-2.5 2.9-2.5 2.9l-1.8 2.1c-1.1 1.2-2.6 1.9-4.1 1.9Zm-9.3-29.2Zm.2-.1Z"/><path class="cls-1" d="M142.5 185.7h-.8c-2.2-.3-4-1.9-4.6-4-.5-1.8 0-3.7 1.2-5.1l8.4-9.5c.7-.8 1.8-.8 2.6-.2.8.7.8 1.8.2 2.6l-8.4 9.5c-.4.5-.6 1.1-.4 1.7.2.7.8 1.2 1.5 1.3.6 0 1.2-.1 1.6-.6l9.9-10.8c.7-.8 1.9-.8 2.6-.1.8.7.8 1.9.1 2.6l-9.9 10.8c-1.1 1.2-2.6 1.9-4.1 1.9ZM125.1 173.6l.5-1.8-.5 1.8c-.4-.1-.8-.3-1.2-.5-1.9-1.1-3.1-3.2-2.8-5.4.2-1.8 1.3-3.5 2.9-4.3l8-4.2c2.3-1.2 5.4-2.9 6.9-.9.6.8.5 2-.4 2.6-.6.4-1.3.5-1.9.2-.4.1-1.2.4-2.9 1.3h-.2c0 .1-7.8 4.2-7.8 4.2-.5.3-.9.8-1 1.4 0 .7.3 1.4.9 1.8.1 0 .2.1.4.1l-.5 1.8-.5 1.8Zm10.8-13ZM55.3 62.1c-.3 0-.6 0-.8-.2-.9-.5-1.3-1.6-.8-2.5l8-15.4c.5-.9 1.6-1.3 2.5-.8.9.5 1.3 1.6.8 2.5l-8 15.4c-.3.6-1 1-1.6 1ZM45.8 59h-.3c-1-.2-1.7-1.1-1.5-2.1l2.8-17.1c.2-1 1.1-1.7 2.1-1.5s1.7 1.1 1.5 2.1l-2.8 17.1c-.2.9-.9 1.5-1.8 1.5ZM35.8 58.9c-.9 0-1.7-.7-1.8-1.6l-2.6-17.2c-.1-1 .5-2 1.5-2.1 1-.2 2 .5 2.1 1.5l2.6 17.2c.2 1-.5 2-1.5 2.1h-.3ZM26.3 61.9c-.7 0-1.3-.4-1.6-1l-7.8-15.5c-.5-.9 0-2 .8-2.5.9-.5 2 0 2.5.8L28 59.2c.5.9 0 2-.8 2.5-.3.1-.5.2-.8.2Z"/></svg>