<?xml version="1.0" encoding="UTF-8"?>
<svg id="a" data-name="レイヤー 1" xmlns="http://www.w3.org/2000/svg" xmlns:xlink="http://www.w3.org/1999/xlink" viewBox="0 0 180.21 193.32">
  <defs>
    <style>
      .c {
        fill: #fff;
      }

      .d {
        fill: #d5eaff;
      }

      .e {
        clip-path: url(#b);
      }

      .e, .f {
        fill: none;
      }

      .g {
        fill: #74c6be;
      }

      .h {
        fill: #1e1210;
      }
    </style>
    <clipPath id="b">
      <path class="f" d="m151.04,51.16l.14.03c6.91-.17,8.62,6.35,7.48,12.22-1.51,7.76-7.3,10.58-10.62,9.5-3.05,12.27-9.41,16.6-15.58,18.91h0c.69,5.26.31,10.46,6.69,15.82,3.25,2.73,12.14,4.43,17.65,6.36,8.73,3.05,16.17,7.59,19.12,14.95,2.65,6.61,2.68,36.13,2.29,41.47-.18,2.52-1.48,4.84-3.56,6.28-11.88,8.23-44.7,10.51-56.85,10.51s-44.96-2.29-56.84-10.51c-2.08-1.44-3.37-3.76-3.56-6.28-.39-5.33-.36-34.86,2.29-41.47,2.95-7.36,10.39-11.89,19.11-14.95,5.51-1.93,14.41-3.63,17.65-6.36,6.37-5.36,5.99-10.56,6.68-15.82-6.18-2.31-12.42-6.64-15.57-18.91h-.01c-3.32,1.09-9.11-1.73-10.62-9.5-1.14-5.87.57-12.39,7.48-12.22l.14-.03C72.74.33,117.78,6.38,117.78,6.38c0,0,45.05-6.05,33.26,44.78Z"/>
    </clipPath>
  </defs>
  <g>
    <g>
      <g>
        <path class="d" d="m117.79,96.91s-32.58.2-43.58-10.71l3.74-28.13C62.85-1.08,117.79,1.87,117.79,1.87c0,0,54.94-2.95,39.84,56.2l3.74,28.13c-11,10.91-43.58,10.71-43.58,10.71Z"/>
        <path class="h" d="m118.01,98.75c-.1,0-.17,0-.22,0-1.52,0-33.49.04-44.88-11.24-.41-.41-.61-.98-.53-1.55l3.7-27.78c-4.77-18.94-2.97-33.69,5.36-43.83,5.26-6.4,13.24-10.91,23.08-13.03C111.44-.18,116.96-.01,117.79.02c.83-.04,6.35-.2,13.28,1.29,9.84,2.12,17.82,6.63,23.08,13.03,8.33,10.14,10.13,24.89,5.36,43.83l3.7,27.78c.08.57-.12,1.15-.53,1.55-11.04,10.95-41.46,11.25-44.66,11.25Zm-.22-3.69s0,0,.09,0c.86,0,8.57-.04,17.37-1.25,11.44-1.58,19.76-4.45,24.17-8.31l-3.62-27.19c-.03-.23-.02-.47.04-.7,4.57-17.9,3.04-31.66-4.53-40.91-5.94-7.25-14.65-10.4-20.91-11.76-6.9-1.5-12.45-1.24-12.51-1.23-.06,0-.13,0-.2,0-.05,0-5.6-.27-12.51,1.23-6.26,1.36-14.97,4.51-20.91,11.76-7.58,9.25-9.1,23.01-4.53,40.91.06.23.07.47.04.7l-3.62,27.19c4.41,3.86,12.73,6.73,24.17,8.31,9.28,1.28,17.37,1.25,17.45,1.25h.01Z"/>
      </g>
      <g class="e">
        <path class="c" d="m151.04,51.16l.14.03c6.91-.17,8.62,6.35,7.48,12.22-1.51,7.76-7.3,10.58-10.62,9.5-3.05,12.27-9.41,16.6-15.58,18.91h0c.69,5.26.31,10.46,6.69,15.82,3.25,2.73,12.14,4.43,17.65,6.36,8.73,3.05,16.17,7.59,19.12,14.95,2.65,6.61,2.68,36.13,2.29,41.47-.18,2.52-1.48,4.84-3.56,6.28-11.88,8.23-44.7,10.51-56.85,10.51s-44.96-2.29-56.84-10.51c-2.08-1.44-3.37-3.76-3.56-6.28-.39-5.33-.36-34.86,2.29-41.47,2.95-7.36,10.39-11.89,19.11-14.95,5.51-1.93,14.41-3.63,17.65-6.36,6.37-5.36,5.99-10.56,6.68-15.82-6.18-2.31-12.42-6.64-15.57-18.91h-.01c-3.32,1.09-9.11-1.73-10.62-9.5-1.14-5.87.57-12.39,7.48-12.22l.14-.03C75.53.64,117.78,1.87,117.78,1.87c0,0,41.96-1.77,33.26,49.29Z"/>
      </g>
      <path class="g" d="m97.08,25.49l-3.35-2.16c1.09.76,2.21,1.48,3.35,2.16Z"/>
      <path class="d" d="m117.79,5.22S70.5.25,85.5,55l3.61-16.03s1.86-4,8.73-12.99l-.76-.49c-1.14-.69-2.25-1.41-3.35-2.16l3.35,2.16c21.3,12.86,49.39,13.48,49.39,13.48l3.61,16.03C165.08.25,117.79,5.22,117.79,5.22Z"/>
      <path class="h" d="m103.13,93.66c-.21,0-.43-.04-.64-.12-4.01-1.5-7.07-3.46-9.62-6.18-3.22-3.43-5.53-7.97-7.06-13.88-.01-.04-.03-.08-.04-.13-.15-.6-.27-1.09-.37-1.56-.22-.99.41-1.98,1.4-2.2.99-.22,1.98.41,2.2,1.4.09.4.19.83.32,1.34.01.04.02.07.03.11,3.07,11.94,9.02,15.62,14.43,17.64.95.36,1.44,1.42,1.08,2.37-.28.74-.98,1.2-1.73,1.2Z"/>
      <path class="h" d="m86.06,74.98c-1.49,0-3.07-.45-4.56-1.33-1.88-1.1-5.21-3.86-6.38-9.89-.9-4.62-.13-8.78,2.1-11.42,1.71-2.03,4.21-3.06,7.24-2.99,1.02.02,1.82.87,1.8,1.89-.02,1.02-.88,1.82-1.89,1.8-1.92-.04-3.33.5-4.33,1.68-1.46,1.73-1.96,4.93-1.3,8.34.39,1.98,1.5,5.57,4.63,7.41,1.26.74,2.64,1,3.61.69.97-.32,2.01.21,2.33,1.18.32.97-.21,2.01-1.18,2.33-.65.21-1.34.32-2.06.32Z"/>
      <path class="h" d="m132.45,93.66c-.75,0-1.45-.46-1.73-1.2-.36-.95.13-2.02,1.08-2.37,3.49-1.3,6.11-2.97,8.27-5.26,2.83-2.99,4.85-7.04,6.17-12.37.13-.52.24-.99.34-1.45.21-1,1.19-1.63,2.19-1.42,1,.21,1.63,1.19,1.42,2.19-.11.5-.23,1.02-.37,1.57-1.48,5.96-3.79,10.54-7.07,14.01-2.56,2.71-5.63,4.67-9.66,6.18-.21.08-.43.12-.64.12Z"/>
      <path class="h" d="m149.51,74.98c-.69,0-1.37-.1-2-.3-.77-.22-1.33-.93-1.33-1.77,0-1.02.82-1.84,1.84-1.84h0c.19,0,.39.03.57.09.97.32,2.36.05,3.62-.69,1.34-.79,3.73-2.8,4.63-7.41.66-3.41.17-6.61-1.3-8.34-1-1.18-2.41-1.73-4.33-1.68-1.02.02-1.86-.78-1.89-1.8-.02-1.02.78-1.86,1.8-1.89,3.02-.07,5.52.96,7.24,2.99,2.23,2.64,3,6.81,2.1,11.42-1.17,6.03-4.5,8.78-6.38,9.88-1.49.88-3.08,1.33-4.57,1.33Z"/>
      <path class="h" d="m85.5,56.84c-.81,0-1.55-.54-1.78-1.36-.37-1.36-.71-2.68-.99-3.92-.23-.99.4-1.98,1.39-2.21.99-.23,1.98.4,2.21,1.39.27,1.19.59,2.45.95,3.75.27.98-.31,2-1.29,2.27-.16.05-.33.07-.49.07Z"/>
      <path class="h" d="m150.07,56.84c-.16,0-.33-.02-.49-.07-.98-.27-1.56-1.28-1.29-2.27.36-1.3.68-2.57.95-3.75.23-.99,1.21-1.62,2.21-1.39.99.23,1.62,1.21,1.39,2.21-.28,1.24-.61,2.56-.99,3.92-.23.82-.97,1.36-1.78,1.36Z"/>
      <path class="h" d="m117.79,189.05c-6.2,0-17.46-.57-28.78-2.19-13.89-1.98-23.68-4.89-29.11-8.65-2.53-1.75-4.12-4.55-4.35-7.66-.34-4.63-.52-34.97,2.41-42.29,2.8-6.99,9.41-12.22,20.22-16,1.77-.62,3.8-1.2,5.96-1.81,4.3-1.22,9.18-2.6,11.11-4.22,4.94-4.15,5.33-8,5.79-12.45.07-.72.15-1.46.25-2.2.13-1.01,1.06-1.72,2.07-1.59,1.01.13,1.72,1.06,1.59,2.07-.09.69-.16,1.41-.24,2.1-.47,4.59-1.01,9.79-7.09,14.9-2.54,2.13-7.59,3.57-12.48,4.95-2.1.59-4.09,1.16-5.75,1.74-9.74,3.41-15.63,7.95-18.01,13.89-2.4,5.99-2.59,34.81-2.16,40.65.15,2,1.15,3.78,2.77,4.9,4.88,3.38,14.4,6.16,27.53,8.03,11.13,1.59,22.18,2.15,28.26,2.15,13.41,0,44.68-2.49,55.8-10.19,1.61-1.12,2.62-2.9,2.77-4.9.43-5.84.23-34.68-2.16-40.65-2.38-5.94-8.27-10.48-18.01-13.89-1.66-.58-3.64-1.14-5.74-1.74-4.89-1.38-9.95-2.82-12.49-4.96-6.08-5.11-6.62-10.31-7.09-14.9-.07-.69-.15-1.4-.24-2.09-.13-1.01.58-1.94,1.59-2.07,1.01-.13,1.94.58,2.07,1.59.1.74.17,1.48.25,2.19.46,4.46.86,8.31,5.8,12.45,1.94,1.63,6.82,3.01,11.12,4.23,2.15.61,4.19,1.19,5.95,1.8,10.81,3.78,17.42,9.01,20.22,16,2.92,7.29,2.76,37.65,2.42,42.29-.23,3.12-1.81,5.91-4.35,7.66-5.43,3.76-15.22,6.67-29.11,8.65-11.32,1.62-22.58,2.19-28.78,2.19Z"/>
      <path class="h" d="m117.79,67.92c-.45,0-.82-.37-.82-.82v-1.04c0-.45.37-.82.82-.82s.82.37.82.82v1.04c0,.45-.37.82-.82.82Z"/>
      <path class="h" d="m117.79,120.73c-17.07,0-20.14-2.7-21.15-3.59l-.04-.03c-.77-.66-.87-1.82-.21-2.6.66-.77,1.82-.87,2.6-.21l.08.07c2.82,2.48,15.04,2.67,18.72,2.67s15.9-.19,18.72-2.67l.08-.07c.77-.66,1.94-.57,2.6.21.66.77.57,1.94-.21,2.6l-.04.03c-.73.64-1.94,1.47-4.85,2.19-3.73.93-9.22,1.4-16.3,1.4Z"/>
      <path class="h" d="m100.96,47.86c-.38,0-.76-.15-1.04-.45-.54-.58-.52-1.48.06-2.03,2.13-2.01,5.91-2.58,9.01-1.35.74.29,1.1,1.13.8,1.86-.29.74-1.13,1.1-1.86.8-2.28-.9-4.83-.32-5.98.77-.28.26-.63.39-.99.39Z"/>
      <path class="h" d="m103.13,93.66c-.21,0-.43-.04-.65-.12-4.19-1.57-7.36-3.65-9.97-6.57-3.33-3.71-5.66-8.68-7.12-15.18-.22-.99.4-1.98,1.4-2.2.99-.22,1.98.4,2.2,1.4,2.93,13.05,9.12,16.98,14.78,19.1.95.36,1.44,1.42,1.08,2.37-.28.74-.98,1.2-1.73,1.2Z"/>
      <path class="h" d="m132.45,93.66c-.75,0-1.45-.46-1.73-1.2-.36-.95.13-2.02,1.08-2.37,10.23-3.83,13.21-11.79,14.78-19.08.21-1,1.19-1.63,2.19-1.42,1,.21,1.63,1.19,1.42,2.19-1.4,6.5-3.71,11.47-7.08,15.2-2.62,2.9-5.8,4.99-10.02,6.56-.21.08-.43.12-.65.12Z"/>
      <path class="d" d="m117.79,187.2c-13.62,0-52.06-2.87-59-13.77-.56-7.12-2.23-36.71.89-44.49,2.95-7.36,10.39-11.89,19.11-14.95,5.51-1.93,14.41-3.63,17.65-6.36l21.35,37.61,21.34-37.62c3.25,2.73,12.14,4.43,17.65,6.36,8.73,3.05,16.17,7.59,19.12,14.95,3.11,7.78,1.45,37.37.89,44.49-6.95,10.9-45.38,13.77-59,13.77Z"/>
      <path class="h" d="m117.79,147.1c-.66,0-1.28-.36-1.6-.93l-21.35-37.61c-.5-.89-.19-2.01.69-2.51.89-.5,2.01-.19,2.51.69l19.74,34.79,19.74-34.79c.5-.89,1.63-1.2,2.51-.69.89.5,1.2,1.63.69,2.51l-21.34,37.62c-.33.58-.94.93-1.6.93Z"/>
      <path class="h" d="m109.75,153.1c-.32,0-.64-.11-.91-.33l-23.24-19.07c-.33-.27-.53-.68-.52-1.11,0-.43.2-.84.53-1.11l5.45-4.4-5.14-4.73c-.31-.28-.47-.68-.46-1.1.01-.42.2-.81.53-1.07l6.87-5.6c.61-.5,1.52-.41,2.02.2.5.61.41,1.52-.2,2.02l-5.59,4.56,5.14,4.74c.31.28.48.68.46,1.1-.01.42-.21.81-.53,1.07l-5.37,4.34,21.88,17.95c.61.5.7,1.41.2,2.02-.28.35-.69.52-1.11.52Z"/>
      <path class="h" d="m125.83,153.1c-.41,0-.83-.18-1.11-.52-.5-.61-.41-1.52.2-2.02l21.88-17.95-5.37-4.34c-.32-.26-.52-.65-.53-1.07-.01-.42.16-.82.46-1.1l5.14-4.74-5.59-4.56c-.61-.5-.71-1.4-.2-2.02.5-.61,1.4-.71,2.02-.2l6.87,5.6c.32.26.51.65.53,1.07.01.42-.16.82-.46,1.1l-5.14,4.73,5.45,4.4c.34.27.53.68.53,1.11,0,.43-.19.84-.52,1.11l-23.24,19.07c-.27.22-.59.33-.91.33Z"/>
      <path class="h" d="m150.08,56.84s-.03,0-.04,0c-.85-.02-1.57-.61-1.76-1.44l-3.3-14.65c-2.75-.15-9.14-.63-17.15-2.19-9.74-1.9-23.75-5.82-35.16-13.73-.84-.58-1.04-1.73-.46-2.57.58-.84,1.73-1.04,2.57-.46,20.87,14.47,51.42,15.31,51.73,15.32.85.02,1.57.61,1.76,1.44l2.06,9.14c.42-.34.98-.5,1.54-.38,1,.21,1.64,1.18,1.43,2.18-.4,1.93-.89,3.94-1.45,5.98-.22.8-.95,1.36-1.78,1.36Z"/>
      <path class="h" d="m85.5,56.84c-.83,0-1.56-.55-1.78-1.36-.51-1.86-.96-3.71-1.34-5.49-.21-1,.42-1.98,1.42-2.19.49-.11.98,0,1.38.25l2.14-9.49c.03-.13.07-.25.13-.37.08-.17,2.03-4.28,8.93-13.33.62-.81,1.77-.96,2.58-.35.81.62.96,1.77.35,2.58-5.86,7.68-8.02,11.67-8.44,12.49l-3.56,15.81c-.19.83-.91,1.42-1.76,1.44-.01,0-.03,0-.04,0Z"/>
      <path class="h" d="m145.08,32.51c-.31,0-.62-.12-.86-.35-8.05-7.87-22.85-16.01-34.43-18.93-.66-.17-1.06-.83-.89-1.49.17-.66.83-1.06,1.49-.89,11.95,3.01,27.23,11.42,35.55,19.55.49.47.49,1.25.02,1.74-.24.25-.56.37-.88.37Z"/>
      <path class="h" d="m117.79,189.05c-6.2,0-17.46-.57-28.78-2.19-13.89-1.98-23.68-4.89-29.11-8.65-2.53-1.75-4.12-4.55-4.35-7.66-.34-4.63-.52-34.97,2.41-42.29,2.8-6.99,9.41-12.22,20.22-16,1.77-.62,3.8-1.2,5.96-1.81,4.3-1.22,9.18-2.6,11.11-4.22,4.94-4.15,5.33-8,5.79-12.45.07-.72.15-1.46.25-2.2.13-1.01,1.06-1.72,2.07-1.59,1.01.13,1.72,1.06,1.59,2.07-.09.69-.16,1.41-.24,2.1-.47,4.59-1.01,9.79-7.09,14.9-2.54,2.13-7.59,3.57-12.48,4.95-2.1.59-4.09,1.16-5.75,1.74-9.74,3.41-15.63,7.95-18.01,13.89-2.4,5.99-2.59,34.81-2.16,40.65.15,2,1.15,3.78,2.77,4.9,4.88,3.38,14.4,6.16,27.53,8.03,11.13,1.59,22.18,2.15,28.26,2.15,13.41,0,44.68-2.49,55.8-10.19,1.61-1.12,2.62-2.9,2.77-4.9.43-5.84.23-34.68-2.16-40.65-2.38-5.94-8.27-10.48-18.01-13.89-1.66-.58-3.64-1.14-5.74-1.74-4.89-1.38-9.95-2.82-12.49-4.96-6.08-5.11-6.62-10.31-7.09-14.9-.07-.69-.15-1.4-.24-2.09-.13-1.01.58-1.94,1.59-2.07,1.01-.13,1.94.58,2.07,1.59.1.74.17,1.48.25,2.19.46,4.46.86,8.31,5.8,12.45,1.94,1.63,6.82,3.01,11.12,4.23,2.15.61,4.19,1.19,5.95,1.8,10.81,3.78,17.42,9.01,20.22,16,2.92,7.29,2.76,37.65,2.42,42.29-.23,3.12-1.81,5.91-4.35,7.66-5.43,3.76-15.22,6.67-29.11,8.65-11.32,1.62-22.58,2.19-28.78,2.19Z"/>
      <path class="h" d="m134.61,47.86c-.35,0-.71-.13-.99-.39-1.15-1.09-3.7-1.67-5.98-.77-.74.29-1.57-.07-1.86-.8-.29-.74.07-1.57.8-1.86,3.1-1.23,6.88-.66,9.01,1.35.58.54.6,1.45.06,2.03-.28.3-.66.45-1.04.45Z"/>
      <path class="h" d="m117.79,82.49c-7.5,0-10.57-7.21-10.69-7.51-.18-.44-.13-.95.13-1.34.27-.4.71-.64,1.19-.64h18.73c.48,0,.93.24,1.19.64.27.4.32.9.13,1.34-.13.31-3.19,7.51-10.69,7.51Zm-6.87-6.63c1.22,1.66,3.44,3.76,6.87,3.76s5.65-2.1,6.87-3.76h-13.75Z"/>
      <path class="h" d="m134.55,57.87c-.44,0-.88-.2-1.16-.59-.85-1.16-2.13-1.38-2.81-1.41-1.12-.05-2.23.35-2.76.97-.52.6-1.42.67-2.02.16-.6-.52-.67-1.42-.16-2.02,1.11-1.29,3.05-2.05,5.05-1.97,2.05.08,3.88,1.02,5.02,2.58.47.64.33,1.54-.31,2-.26.19-.55.28-.84.28Z"/>
      <path class="h" d="m101.03,57.87c-.29,0-.59-.09-.84-.28-.64-.47-.78-1.36-.31-2,1.14-1.56,2.97-2.5,5.02-2.58,2.01-.08,3.94.68,5.05,1.97.52.6.45,1.51-.16,2.02-.6.52-1.51.45-2.02-.16-.53-.62-1.65-1.01-2.76-.97-.69.03-1.97.24-2.81,1.41-.28.38-.72.59-1.16.59Z"/>
    </g>
    <g>
      <path class="c" d="m33.96,109.53l-10.81-13.22c-.82-.92-2.04-1.37-3.25-1.19-1.45.21-2.64,1.26-3.02,2.68-.32,1.19-.02,2.45.8,3.37,0,0,6.03,8.42,8.89,11.34,2.68,3.09,5.46,24.88,20.94,20.96,9.07-2.3,11.43-8.66,13.26-9.56,3.29-1.62,6.68-1.83,8.34-4.33,1.93-2.91,3.39-10.86,3.39-10.86.4-1.16.19-2.45-.56-3.42-.89-1.16-2.4-1.68-3.82-1.31-1.19.31-2.14,1.19-2.54,2.35l-2.07,6.02s-3.06,1.4-4.55.23-3.04-10.71-3.04-10.71l4.94-2.51,7.01,3.02c1.15.44,2.44.27,3.44-.44,1.19-.85,1.76-2.34,1.44-3.77-.27-1.2-1.12-2.18-2.26-2.62,0,0-7.17-3.62-8.97-4.44-1.6-.73-13.48,4.38-13.22,6.64.44,3.9.8,6.55.8,6.55l-7.46-23.23c-.35-1.18-1.26-2.11-2.43-2.47-1.4-.43-2.93.01-3.87,1.13-.79.94-1.06,2.21-.72,3.39l6.6,22.63-10.63-19.77c-.54-1.1-1.61-1.85-2.82-2.01-1.46-.18-2.88.52-3.62,1.79-.62,1.06-.66,2.36-.12,3.46l9.95,20.29Z"/>
      <path class="h" d="m43.92,135.78c-4.17,0-7.77-1.83-10.76-5.48-3.11-3.8-4.94-8.84-6.28-12.53-.6-1.65-1.28-3.52-1.68-4.03-2.83-2.92-8.34-10.56-8.97-11.44-1.18-1.38-1.6-3.23-1.13-4.99.57-2.14,2.35-3.72,4.54-4.03,1.83-.26,3.66.41,4.89,1.79.02.02.03.04.05.06l.7.85-2.91-5.94c-.82-1.65-.75-3.6.18-5.2,1.11-1.91,3.25-2.97,5.44-2.69,1.83.23,3.41,1.35,4.23,2.99l2.31,4.3-1.69-5.81c-.52-1.78-.12-3.68,1.08-5.1,1.43-1.69,3.71-2.36,5.83-1.71,1.76.54,3.12,1.92,3.65,3.69l4.62,14.37c.29-.26.59-.49.87-.69,1.65-1.19,4.25-2.54,6.96-3.61,4.82-1.91,5.96-1.39,6.45-1.16,1.73.8,8.15,4.02,8.96,4.43,1.68.68,2.91,2.13,3.31,3.91.46,2.08-.31,4.22-1.98,5.53.3.25.58.54.83.87,1.1,1.43,1.42,3.29.89,5-.24,1.29-1.64,8.41-3.64,11.42-1.45,2.19-3.77,2.99-6.02,3.77-1,.35-2.03.71-3.02,1.19-.23.15-.77.82-1.2,1.36-1.99,2.45-5.32,6.55-12.43,8.35-1.4.35-2.75.53-4.04.53Zm-23.51-38.86c-.09,0-.17,0-.26.02-.72.1-1.31.62-1.5,1.33-.16.59,0,1.22.4,1.67.04.05.08.1.12.15.06.08,5.98,8.34,8.71,11.13.03.03.05.05.08.08.85.98,1.49,2.76,2.39,5.22,1.25,3.43,2.95,8.14,5.67,11.45,3.01,3.68,6.52,4.85,11.04,3.71,5.93-1.5,8.67-4.87,10.48-7.1.86-1.06,1.54-1.9,2.42-2.33,1.2-.59,2.4-1.01,3.46-1.37,1.89-.66,3.39-1.18,4.15-2.32,1.41-2.13,2.73-8.06,3.11-10.17.02-.09.04-.18.07-.27.2-.58.1-1.21-.28-1.7-.44-.58-1.19-.83-1.89-.65-.59.15-1.06.59-1.26,1.17l-2.07,6.02c-.16.48-.52.87-.97,1.08-.68.31-4.2,1.78-6.46,0-.75-.59-1.6-1.83-2.73-6.84-.58-2.56-.97-4.93-.98-5.03-.13-.79.27-1.58.98-1.94l4.94-2.51c.49-.25,1.06-.27,1.57-.05l6.97,3.01c.56.2,1.19.12,1.68-.23.59-.42.87-1.16.72-1.87-.13-.6-.55-1.08-1.12-1.3-.06-.02-.11-.05-.17-.08-.07-.03-6.65-3.35-8.7-4.31-.67.05-2.8.63-5.73,1.98-2.96,1.36-4.58,2.52-5.06,3.06.41,3.62.74,6.1.75,6.13.13.95-.49,1.83-1.42,2.05-.93.21-1.87-.32-2.16-1.23l-7.46-23.23s0-.03-.01-.05c-.17-.59-.62-1.04-1.21-1.22-.7-.22-1.45,0-1.92.56-.39.47-.53,1.1-.36,1.68l6.6,22.63c.26.91-.2,1.86-1.07,2.22-.87.36-1.88,0-2.32-.83l-10.63-19.77s-.02-.04-.03-.06c-.27-.55-.79-.92-1.4-1-.72-.09-1.43.26-1.79.89-.31.53-.33,1.17-.06,1.72l9.95,20.3c.41.84.13,1.86-.66,2.36-.79.51-1.83.34-2.42-.38l-10.79-13.19c-.35-.38-.83-.59-1.34-.59Zm39.79,14.31h0Zm-.05-.07c.29.11,1.08.03,1.89-.23l1.79-5.2c.32-.94.89-1.76,1.62-2.39l-4.52-1.95-2.96,1.5c.65,3.56,1.58,7.36,2.19,8.26Z"/>
    </g>
    <g>
      <g>
        <path class="c" d="m36.93,184.51l-1.36-5.34h96.76l-1.36,5.34c-.69,4.03-4.19,6.97-8.27,6.97H45.21c-4.09,0-7.58-2.94-8.27-6.97Z"/>
        <path class="h" d="m122.7,193.32H45.21c-4.97,0-9.2-3.54-10.08-8.43l-1.34-5.27c-.14-.55-.02-1.14.33-1.59.35-.45.89-.71,1.46-.71h96.76c.57,0,1.11.26,1.46.71s.47,1.03.33,1.59l-1.34,5.27c-.88,4.89-5.1,8.43-10.08,8.43Zm-84.76-12.31l.77,3.04s.02.09.03.14c.54,3.15,3.26,5.44,6.46,5.44h77.5c3.2,0,5.91-2.29,6.46-5.44,0-.05.02-.09.03-.14l.77-3.04H37.95Z"/>
      </g>
      <g>
        <path class="c" d="m12.06,183.08L1.84,131.46c0-4.64,3.76-8.39,8.39-8.39h79.97c4.64,0,8.39,3.76,8.39,8.39l10.22,51.63c0,4.64-3.76,8.39-8.39,8.39H20.46c-4.64,0-8.39-3.76-8.39-8.39Z"/>
        <path class="h" d="m100.43,193.32H20.46c-5.58,0-10.13-4.49-10.24-10.05L.04,131.82c-.02-.12-.04-.24-.04-.36,0-5.64,4.59-10.24,10.24-10.24h79.97c5.58,0,10.13,4.49,10.24,10.05l10.19,51.46c.02.12.04.24.04.36,0,5.64-4.59,10.24-10.24,10.24ZM3.69,131.29l10.18,51.44c.02.12.04.24.04.36,0,3.61,2.94,6.55,6.55,6.55h79.97c3.55,0,6.46-2.85,6.55-6.38l-10.18-51.44c-.02-.12-.04-.24-.04-.36,0-3.61-2.94-6.55-6.55-6.55H10.24c-3.56,0-6.46,2.85-6.55,6.38Z"/>
      </g>
      <circle class="d" cx="55.33" cy="157.27" r="5.96"/>
    </g>
    <g>
      <path class="c" d="m160.29,160.09c-7.16-1.99-14.89-3.88-19.54-3.22-.55.08-1.83,1.11-3.43,2.61-.6-.79-3.74.96-4.74,1.49l-7.76,4.09c-1.09.57-1.81,1.65-1.93,2.88-.14,1.46.6,2.87,1.88,3.57.25.14.52.25.79.32-.32.37-.51.57-.51.57-.81.92-1.11,2.19-.79,3.37.38,1.42,1.57,2.47,3.03,2.67,1.22.17,2.44-.28,3.25-1.2l2-2.26c-.75.91-1.02,2.13-.71,3.28.39,1.42,1.57,2.46,3.03,2.67,1.22.17,2.44-.28,3.25-1.2l1.52-1.73s.01,0,.02,0c-.69.9-.93,2.07-.63,3.17.38,1.42,1.57,2.47,3.03,2.67,1.22.17,2.44-.28,3.25-1.2l1.94-2.12c-.53.85-.7,1.9-.43,2.89.39,1.42,1.58,2.47,3.03,2.67,1.22.17,2.43-.28,3.25-1.2l1.81-2.05s1.4-1.59,3.27-3.71c16.51,4.58,27.22-12.06,2.14-19.02Z"/>
      <g>
        <path class="h" d="m135.37,182.79c-.26,0-.52-.02-.77-.05-2.18-.31-3.97-1.88-4.55-4.01-.46-1.73-.06-3.57,1.07-4.94l.07-.09s.03-.03.04-.05l8.15-9.25c.67-.76,1.84-.84,2.6-.17s.84,1.84.17,2.6l-1.15,1.31-7.04,7.98c-.38.45-.51,1.06-.36,1.63.19.7.78,1.22,1.5,1.32.61.08,1.21-.14,1.61-.6l10.1-11.46c.67-.76,1.84-.84,2.6-.16.76.67.84,1.84.16,2.6l-10.1,11.46c-1.05,1.2-2.55,1.86-4.12,1.86Z"/>
        <path class="h" d="m150.34,187.95c-.26,0-.51-.02-.77-.05-2.19-.31-3.97-1.88-4.55-4.01-.4-1.47-.16-3.05.64-4.34.15-.25.33-.5.55-.74,0,0,.02-.02.02-.03l7.6-8.23c.69-.75,1.86-.79,2.61-.1.75.69.79,1.86.1,2.61l-7.58,8.22c-.06.07-.11.14-.15.2,0,0-.01.02-.02.03-.27.43-.35.95-.21,1.43.19.7.78,1.22,1.51,1.32.6.09,1.2-.14,1.61-.6l1.81-2.05h0s1.4-1.59,3.27-3.71c.47-.53,1.19-.74,1.87-.56,7.41,2.05,13.5-.59,14.54-4.34.88-3.17-2.1-7.99-13.39-11.12-6.81-1.89-14.32-3.74-18.63-3.19-.21.12-.9.57-2.59,2.15-3.94,3.69-9.92,10.29-11.65,12.23-.28.32-.46.52-.5.56-.4.46-.54,1.08-.39,1.67.19.71.78,1.23,1.5,1.33.6.08,1.21-.14,1.61-.6l9.07-10.29c.67-.76,1.84-.84,2.6-.16.76.67.84,1.84.16,2.6l-9.08,10.29c-1.23,1.39-3.05,2.06-4.88,1.81-2.19-.31-3.98-1.88-4.55-4.02-.48-1.78-.04-3.68,1.18-5.07,0,0,0-.01.01-.02,0,0,.18-.2.49-.55,1.77-1.97,7.84-8.67,11.89-12.47,2.58-2.41,3.61-2.97,4.43-3.09,4.93-.71,12.67,1.15,20.29,3.27,13.9,3.85,17.35,10.62,15.95,15.66-.81,2.93-3.3,5.37-6.82,6.69-3.26,1.22-7.17,1.39-11.12.5-1.49,1.69-2.53,2.87-2.53,2.87l-1.81,2.05c-1.05,1.19-2.55,1.86-4.11,1.86Zm-9.32-29.25s0,0,0,0c0,0,0,0,0,0Zm.22-.06h0,0Z"/>
        <path class="h" d="m142.54,185.71c-.25,0-.5-.02-.76-.05-2.19-.31-3.98-1.88-4.55-4.02-.48-1.79-.04-3.69,1.19-5.07l8.4-9.54c.67-.76,1.84-.84,2.6-.17.76.67.84,1.84.17,2.6l-8.4,9.54c-.41.46-.55,1.09-.39,1.68.19.7.78,1.22,1.5,1.32.6.08,1.21-.14,1.61-.6,0,0,.01-.02.02-.02l9.9-10.84c.69-.75,1.85-.8,2.6-.12.75.69.8,1.85.12,2.6l-9.89,10.83c-1.05,1.19-2.55,1.85-4.11,1.85Z"/>
        <path class="h" d="m125.09,173.6l.48-1.78-.48,1.78c-.42-.11-.82-.27-1.21-.48-1.94-1.06-3.05-3.17-2.83-5.37.18-1.84,1.27-3.46,2.91-4.33l7.96-4.19c2.26-1.21,5.36-2.86,6.87-.87.62.81.46,1.97-.35,2.58-.56.43-1.28.48-1.88.22-.39.1-1.2.41-2.92,1.32l-.21.11-7.77,4.09c-.54.28-.9.82-.96,1.43-.07.72.29,1.42.93,1.77.12.07.25.12.37.15l-.46,1.79-.48,1.78Zm10.77-13s0,0,0,0c0,0,0,0,0,0Z"/>
      </g>
    </g>
  </g>
  <g>
    <path class="h" d="m55.3,62.13c-.29,0-.58-.07-.85-.21-.9-.47-1.26-1.58-.79-2.49l8-15.41c.47-.9,1.58-1.26,2.49-.79.9.47,1.26,1.58.79,2.49l-8,15.41c-.33.63-.97.99-1.64.99Z"/>
    <path class="h" d="m45.84,58.98c-.1,0-.2,0-.3-.03-1-.17-1.68-1.12-1.52-2.12l2.84-17.13c.17-1,1.12-1.69,2.12-1.52,1,.17,1.68,1.12,1.52,2.12l-2.84,17.13c-.15.9-.93,1.54-1.82,1.54Z"/>
    <path class="h" d="m35.85,58.9c-.9,0-1.68-.66-1.82-1.57l-2.59-17.17c-.15-1.01.54-1.95,1.55-2.1,1.01-.15,1.95.54,2.1,1.55l2.59,17.17c.15,1.01-.54,1.95-1.55,2.1-.09.01-.19.02-.28.02Z"/>
    <path class="h" d="m26.34,61.92c-.68,0-1.33-.37-1.65-1.02l-7.77-15.53c-.46-.91-.09-2.02.82-2.47.91-.46,2.02-.09,2.47.82l7.77,15.53c.46.91.09,2.02-.82,2.47-.26.13-.55.2-.82.2Z"/>
  </g>
</svg>