<?xml version="1.0" encoding="UTF-8"?>
<svg id="a" data-name="レイヤー 1" xmlns="http://www.w3.org/2000/svg" viewBox="0 0 263.87 211.37">
  <defs>
    <style>
      .b {
        fill: #fff;
      }

      .c {
        fill: #d5eaff;
      }
    </style>
  </defs>
  <g>
    <g>
      <g>
        <path class="b" d="m106.49,106.92s13.02-1.93,22.34-1.93,22.34,1.93,22.34,1.93v35.15h-44.68v-35.15Z"/>
        <path d="m151.18,143.82h-44.68c-.96,0-1.75-.78-1.75-1.75v-35.15c0-.87.63-1.6,1.49-1.73.54-.08,13.25-1.95,22.6-1.95s22.06,1.87,22.6,1.95c.86.13,1.49.86,1.49,1.73v35.15c0,.96-.78,1.75-1.75,1.75Zm-42.94-3.49h41.19v-31.89c-3.66-.5-13.34-1.71-20.59-1.71s-16.93,1.21-20.59,1.71v31.89Z"/>
      </g>
      <path class="b" d="m160.06,63.89l.13.03c6.55-.16,8.17,6.01,7.09,11.58-1.43,7.35-6.92,10.03-10.07,9-2.89,11.63-8.91,15.73-14.77,17.92h0c.65,4.99.3,9.92,6.34,14.99,3.08,2.59,11.5,4.2,16.73,6.03,8.27,2.89,15.32,7.19,18.12,14.16,2.51,6.26,2.54,34.03,2.17,39.09-.17,2.39-1.4,4.59-3.37,5.95-11.26,7.8-42.36,9.96-53.87,9.96s-42.61-2.17-53.87-9.96c-1.97-1.36-3.2-3.56-3.37-5.95-.37-5.06-.34-32.83,2.17-39.09,2.79-6.97,9.84-11.27,18.11-14.16,5.23-1.83,13.65-3.44,16.73-6.03,6.04-5.08,5.68-10.01,6.33-14.99-5.85-2.19-11.77-6.29-14.76-17.92h-.01c-3.14,1.03-8.63-1.64-10.07-9-1.08-5.56.54-11.74,7.09-11.58l.13-.03c-11.18-48.17,31.51-46.71,31.51-46.71,0,0,42.69-1.46,31.51,46.71Z"/>
      <path d="m114.94,103.96c-.2,0-.41-.04-.61-.11-3.8-1.42-6.7-3.28-9.12-5.86-3.05-3.25-5.24-7.55-6.69-13.15-.01-.04-.02-.08-.03-.12-.14-.56-.25-1.03-.35-1.48-.21-.94.38-1.88,1.33-2.08.94-.21,1.88.38,2.08,1.33.09.38.18.79.3,1.27.01.03.02.07.03.1,2.91,11.32,8.54,14.8,13.68,16.72.9.34,1.36,1.34,1.03,2.25-.26.7-.93,1.14-1.64,1.14Z"/>
      <path d="m98.76,86.26c-1.41,0-2.91-.43-4.33-1.26-1.78-1.05-4.94-3.66-6.05-9.37-.85-4.37-.13-8.32,1.99-10.83,1.62-1.92,3.99-2.9,6.86-2.83.96.02,1.73.82,1.7,1.79-.02.96-.82,1.73-1.79,1.7-1.82-.05-3.16.48-4.1,1.59-1.39,1.64-1.86,4.67-1.23,7.9.37,1.88,1.42,5.28,4.39,7.03,1.19.7,2.5.95,3.42.65.92-.3,1.9.2,2.2,1.12.3.92-.2,1.9-1.12,2.2-.62.2-1.27.3-1.95.3Z"/>
      <path d="m142.73,103.96c-.71,0-1.37-.43-1.64-1.14-.34-.9.12-1.91,1.03-2.25,3.3-1.23,5.79-2.82,7.84-4.98,2.68-2.84,4.59-6.67,5.85-11.72.12-.49.23-.94.32-1.38.2-.94,1.13-1.54,2.07-1.34.94.2,1.54,1.13,1.34,2.07-.1.48-.22.96-.35,1.49-1.4,5.65-3.59,9.99-6.7,13.28-2.42,2.57-5.33,4.43-9.16,5.86-.2.08-.41.11-.61.11Z"/>
      <path d="m158.9,86.25c-.66,0-1.3-.09-1.9-.28-.73-.21-1.26-.88-1.26-1.68,0-.96.78-1.75,1.75-1.75h0c.18,0,.37.03.54.09.92.3,2.23.05,3.43-.65,1.27-.75,3.54-2.66,4.39-7.02.63-3.23.16-6.26-1.23-7.9-.94-1.12-2.29-1.64-4.1-1.59-.01,0-.03,0-.04,0-.95,0-1.72-.75-1.75-1.7-.02-.96.74-1.77,1.7-1.79,2.87-.07,5.23.91,6.86,2.83,2.12,2.51,2.84,6.45,1.99,10.83-1.11,5.71-4.26,8.32-6.04,9.37-1.42.83-2.92,1.26-4.33,1.26Z"/>
      <path d="m128.84,194.15c-5.88,0-16.55-.54-27.28-2.08-13.16-1.88-22.44-4.64-27.59-8.2-2.4-1.66-3.9-4.31-4.12-7.26-.32-4.36-.48-32.96,2.29-39.87,2.65-6.62,8.92-11.58,19.16-15.16,1.68-.59,3.61-1.13,5.65-1.71,4.08-1.15,8.7-2.46,10.53-4,4.68-3.93,5.05-7.58,5.49-11.8.07-.68.14-1.38.23-2.08.13-.96,1-1.63,1.96-1.51.96.13,1.63,1,1.51,1.96-.09.66-.16,1.33-.22,1.99-.45,4.35-.96,9.28-6.72,14.12-2.41,2.02-7.2,3.38-11.83,4.69-1.99.56-3.87,1.1-5.45,1.65-9.23,3.23-14.81,7.53-17.07,13.16-2.27,5.66-2.45,32.82-2.05,38.31.14,1.89,1.09,3.59,2.62,4.64,4.62,3.2,13.65,5.84,26.09,7.61,10.55,1.51,21.02,2.04,26.78,2.04,12.7,0,42.34-2.36,52.88-9.65,1.53-1.06,2.48-2.75,2.62-4.64.41-5.68.26-32.56-2.05-38.31-2.25-5.63-7.84-9.94-17.07-13.16-1.57-.55-3.45-1.08-5.44-1.65-4.64-1.31-9.43-2.67-11.84-4.7-5.76-4.84-6.27-9.77-6.72-14.12-.07-.65-.14-1.33-.22-1.98-.13-.96.55-1.83,1.51-1.96.96-.13,1.83.55,1.96,1.51.09.7.16,1.4.23,2.08.44,4.22.81,7.87,5.49,11.8,1.84,1.54,6.46,2.85,10.54,4.01,2.04.58,3.97,1.12,5.64,1.71,10.24,3.58,16.51,8.54,19.16,15.16,2.76,6.89,2.61,35.5,2.29,39.87-.22,2.95-1.72,5.6-4.12,7.26-5.14,3.56-14.42,6.32-27.59,8.2-10.73,1.53-21.4,2.08-27.28,2.08Z"/>
      <path d="m128.84,79.56c-.43,0-.78-.35-.78-.78v-.98c0-.43.35-.78.78-.78s.78.35.78.78v.98c0,.43-.35.78-.78.78Z"/>
      <ellipse cx="116.71" cy="66.99" rx="2.8" ry="3.13"/>
      <ellipse cx="140.96" cy="66.99" rx="2.8" ry="3.13"/>
      <path d="m119.99,60.43c-.33,0-.65-.12-.91-.35-1.08-.98-4.67-1.46-6.3-.85-.7.26-1.49-.09-1.75-.8-.26-.7.09-1.49.8-1.75,2.36-.88,7.11-.41,9.08,1.38.56.5.6,1.36.09,1.92-.27.3-.64.45-1.01.45Z"/>
      <path d="m114.94,103.96c-.2,0-.41-.04-.61-.11-3.97-1.48-6.97-3.46-9.45-6.22-3.16-3.52-5.36-8.22-6.74-14.38-.21-.94.38-1.88,1.32-2.09.94-.21,1.88.38,2.09,1.32,2.78,12.37,8.64,16.09,14.01,18.1.9.34,1.36,1.34,1.02,2.25-.26.7-.93,1.14-1.64,1.14Z"/>
      <path d="m142.73,103.96c-.71,0-1.37-.43-1.64-1.14-.34-.9.12-1.91,1.02-2.25,9.7-3.63,12.52-11.17,14.01-18.08.2-.94,1.13-1.54,2.08-1.34.94.2,1.54,1.13,1.34,2.08-1.32,6.16-3.52,10.87-6.71,14.4-2.48,2.75-5.5,4.73-9.49,6.22-.2.08-.41.11-.61.11Z"/>
      <path class="c" d="m156.02,52.13l3.42,15.19h0c.34-1.24.65-2.46.92-3.64l4.11-14.82,1.58-.63c-.42-8.79-4.08-14.09-4.08-14.09l2.64-1.1c-1.91-5.39-11.02-10.84-11.02-10.84l1.08-3.38s-8.37-5.46-16.5-1.86c0,0-2.21-3.31-7.14-4.43-9.88-2.26-17.11,2.75-17.11,2.75l1.74,1.69s-5.24-.49-13.99,6.73c-8.16,6.74-10.41,15.31-10.41,15.31l3.73.31s-3.37,5.53-3.73,11.77l1.34,1.05,4.74,11.55c.27,1.18.57,2.39.92,3.63h0s3.42-15.19,3.42-15.19c0,0,10.57-8.95,13.22-13.38-.27,5.91,2.14,8.17,2.14,8.17,0,0,3.58-4.42,6.24-7.3.84,5.03,1.52,6.77,1.52,6.77,0,0,10.03-3.52,18.29-7.94,3.56,9.85,12.96,13.67,12.96,13.67Z"/>
      <path d="m159.43,69.06c-.26,0-.51-.06-.75-.17-.53-.25-.88-.74-.97-1.29l-3.4-15.09c-.21-.94.38-1.88,1.32-2.09.94-.21,1.88.38,2.09,1.32l1.85,8.21,3.2-11.56c.15-.53.53-.95,1.04-1.16l.4-.16c-.52-5.89-2.6-10.34-3.69-11.94-.3-.43-.38-.98-.23-1.48.15-.5.52-.92,1-1.12l.94-.39c-2.21-3.54-7.45-7.2-9.54-8.45-.7-.42-1.01-1.26-.77-2.03l.65-2.02c-2.4-1.21-8.19-3.53-13.69-1.09-.78.34-1.69.08-2.16-.62-.07-.1-1.95-2.76-6.08-3.7-6.11-1.4-11.17.24-13.79,1.45l.03.03c.54.52.72,1.34.39,2.02-.32.67-1.01,1.07-1.75.98-.29,0-5.01-.04-12.73,6.33-5.29,4.37-7.97,9.61-9.12,12.41l1.48.12c.6.05,1.14.41,1.41.95.27.54.25,1.18-.07,1.7-.03.05-2.83,4.72-3.41,10.06l.59.47c.24.19.42.43.54.71l3.75,9.16,2-8.88c.21-.94,1.15-1.53,2.09-1.32.94.21,1.53,1.15,1.32,2.09l-3.42,15.19c-.13.58-.54,1.05-1.1,1.26-.56.2-1.18.11-1.65-.24-.31-.23-.54-.56-.64-.94-.34-1.24-.64-2.44-.9-3.57l-4.51-10.99-.97-.76c-.45-.35-.7-.91-.67-1.48.24-4.07,1.65-7.81,2.72-10.14l-1.12-.09c-.51-.04-.98-.31-1.28-.73s-.39-.95-.26-1.45c.1-.37,2.49-9.2,10.99-16.22,5.05-4.17,9.03-5.92,11.67-6.64-.05-.18-.06-.37-.05-.56.04-.52.32-1,.75-1.29.32-.22,7.99-5.42,18.49-3.02,3.71.85,6.08,2.81,7.28,4.05,8.47-2.95,16.57,2.24,16.93,2.48.66.43.95,1.25.71,2l-.67,2.1c2.65,1.75,8.91,6.28,10.59,11.01.31.87-.12,1.84-.97,2.2l-.82.34c1.2,2.37,3.03,6.94,3.33,13.15.04.75-.41,1.43-1.1,1.71l-.78.31-3.86,13.94c-.26,1.13-.56,2.32-.89,3.56-.08.39-.3.76-.62,1.02-.32.25-.7.38-1.09.38Z"/>
      <path d="m128.84,194.15c-5.88,0-16.55-.54-27.28-2.08-13.16-1.88-22.44-4.64-27.59-8.2-2.4-1.66-3.9-4.31-4.12-7.26-.32-4.36-.48-32.96,2.29-39.87,2.65-6.62,8.92-11.58,19.16-15.16,1.68-.59,3.61-1.13,5.65-1.71,4.08-1.15,8.7-2.46,10.53-4,4.68-3.93,5.05-7.58,5.49-11.8.07-.68.14-1.38.23-2.08.13-.96,1-1.63,1.96-1.51.96.13,1.63,1,1.51,1.96-.09.66-.16,1.33-.22,1.99-.45,4.35-.96,9.28-6.72,14.12-2.41,2.02-7.2,3.38-11.83,4.69-1.99.56-3.87,1.1-5.45,1.65-9.23,3.23-14.81,7.53-17.07,13.16-2.27,5.66-2.45,32.82-2.05,38.31.14,1.89,1.09,3.59,2.62,4.64,4.62,3.2,13.65,5.84,26.09,7.61,10.55,1.51,21.02,2.04,26.78,2.04,12.7,0,42.34-2.36,52.88-9.65,1.53-1.06,2.48-2.75,2.62-4.64.41-5.68.26-32.56-2.05-38.31-2.25-5.63-7.84-9.94-17.07-13.16-1.57-.55-3.45-1.08-5.44-1.65-4.64-1.31-9.43-2.67-11.84-4.7-5.76-4.84-6.27-9.77-6.72-14.12-.07-.65-.14-1.33-.22-1.98-.13-.96.55-1.83,1.51-1.96.96-.13,1.83.55,1.96,1.51.09.7.16,1.4.23,2.08.44,4.22.81,7.87,5.49,11.8,1.84,1.54,6.46,2.85,10.54,4.01,2.04.58,3.97,1.12,5.64,1.71,10.24,3.58,16.51,8.54,19.16,15.16,2.76,6.89,2.61,35.5,2.29,39.87-.22,2.95-1.72,5.6-4.12,7.26-5.14,3.56-14.42,6.32-27.59,8.2-10.73,1.53-21.4,2.08-27.28,2.08Z"/>
      <g>
        <path class="b" d="m128.84,130.41c-13.89-7.98-22.34-23.49-22.34-23.49,0,0-4.01-.65-8.24,5.97-3.99.5-8.78,2.18-11.44,6.11-2.66,3.93-2.22,7.75-2.22,7.75,0,0,15.25,7.79,44.24,3.66Z"/>
        <path d="m112.38,133.36c-5.37,0-11.13-.41-16.88-1.51-7.59-1.46-11.55-3.45-11.71-3.54-.52-.27-.87-.78-.94-1.36-.02-.18-.48-4.51,2.51-8.92,1.4-2.08,4.79-5.64,11.86-6.75,4.57-6.66,9.04-6.16,9.55-6.08.53.09,1,.41,1.26.89.08.15,8.4,15.18,21.68,22.81.65.37.99,1.11.85,1.84-.14.73-.73,1.29-1.47,1.4-4.55.65-10.35,1.22-16.7,1.22Zm-26.06-7.74c1.53.63,4.91,1.87,10.03,2.84,5.89,1.12,15.21,2.08,27.5.81-9.95-7.18-16.43-17.32-18.33-20.52-1.12.26-3.36,1.28-5.8,5.09-.28.44-.74.73-1.25.79-2.69.34-7.59,1.48-10.21,5.36-1.5,2.22-1.86,4.42-1.93,5.63Z"/>
      </g>
      <g>
        <path class="b" d="m128.84,130.41c13.89-7.98,22.34-23.49,22.34-23.49,0,0,4.01-.65,8.24,5.97,3.99.5,8.78,2.18,11.44,6.11,2.66,3.93,2.22,7.75,2.22,7.75,0,0-15.25,7.79-44.24,3.66Z"/>
        <path d="m145.2,133.36c-4.88,0-10.44-.34-16.61-1.22-.74-.11-1.33-.67-1.47-1.4-.14-.73.2-1.47.85-1.84,13.28-7.63,21.6-22.66,21.68-22.81.26-.47.72-.8,1.26-.89.51-.08,4.98-.58,9.55,6.08,7.08,1.11,10.46,4.68,11.86,6.75,2.99,4.41,2.53,8.74,2.51,8.92-.07.58-.42,1.09-.94,1.36-.16.08-4.12,2.08-11.71,3.54-4.11.79-9.81,1.51-16.96,1.51Zm-11.38-4.09c12.29,1.27,21.61.3,27.5-.81,5.11-.97,8.49-2.2,10.03-2.84-.07-1.2-.42-3.4-1.93-5.63-2.62-3.87-7.52-5.02-10.21-5.36-.51-.06-.97-.35-1.25-.79-1.84-2.88-3.56-4.14-4.67-4.68-.45-.22-.83-.34-1.13-.41-1.89,3.19-8.37,13.34-18.33,20.53Z"/>
      </g>
      <g>
        <path d="m142.4,155.1c-.96,0-1.75-.78-1.75-1.75v-21.74c0-.96.78-1.75,1.75-1.75s1.75.78,1.75,1.75v21.74c0,.96-.78,1.75-1.75,1.75Z"/>
        <path d="m115.27,155.1c-.96,0-1.75-.78-1.75-1.75v-21.74c0-.96.78-1.75,1.75-1.75s1.75.78,1.75,1.75v21.74c0,.96-.78,1.75-1.75,1.75Z"/>
      </g>
      <path d="m152.03,51.59c-.33,0-.67-.1-.97-.29-2.37-1.58-5.52-5-6.88-7.47-.47-.85-.16-1.91.69-2.37.85-.47,1.91-.16,2.37.69.99,1.79,3.66,4.85,5.76,6.25.8.54,1.02,1.62.48,2.42-.34.5-.89.78-1.45.78Z"/>
      <path d="m105.13,49.96c-.56,0-1.11-.27-1.45-.77-.54-.8-.33-1.89.47-2.43,4.7-3.19,7.33-5.58,9.05-8.27.42-.65,1.22-.95,1.96-.73.74.22,1.25.9,1.25,1.68,0,1.49.13,3.23.36,4.6.5-.54,1.02-1.14,1.53-1.72,1.23-1.41,2.51-2.87,3.8-4.01.45-.4,1.08-.53,1.66-.36.58.17,1.02.63,1.18,1.21.01.04.89,3.26,1.78,5.66,4.35-1.71,11.81-5.49,15.37-7.84.81-.53,1.89-.31,2.42.5.53.81.31,1.89-.5,2.42-4.3,2.83-13.58,7.44-17.73,8.8-.84.28-1.75-.12-2.13-.92-.6-1.28-1.25-3.22-1.75-4.84-.49.54-.98,1.11-1.47,1.66-1.38,1.58-2.68,3.07-3.9,3.98-.38.28-.85.4-1.31.32-.46-.07-.88-.33-1.15-.71-.71-.99-1.11-2.62-1.35-4.23-1.76,1.78-4.04,3.58-7.12,5.67-.3.2-.64.3-.98.3Z"/>
      <path d="m133.45,91.91c-.46,0-.9-.23-1.15-.64-.1-.1-.86-.78-3.46-.78s-3.36.68-3.46.78c-.37.59-1.13.81-1.76.49-.67-.34-.94-1.15-.6-1.83.26-.51,1.43-2.16,5.82-2.16s5.57,1.66,5.82,2.16c.34.67.07,1.49-.6,1.83-.2.1-.4.15-.61.15Zm-1.21-.75s0,0,0,0c0,0,0,0,0,0Zm-6.79,0s0,0,0,0c0,0,0,0,0,0Zm6.79,0s0,0,0,0c0,0,0,0,0,0Zm-6.79,0s0,0,0,0c0,0,0,0,0,0Z"/>
      <path d="m139.86,60.57c-1,0-1.99-.12-2.87-.41-.71-.23-1.11-1-.88-1.71.23-.71,1-1.11,1.71-.88,1.83.59,4.71.14,6.33-.61.68-.32,1.49-.02,1.81.66.32.68.02,1.49-.66,1.81-1.43.67-3.47,1.14-5.45,1.14Z"/>
    </g>
    <path d="m262.13,205.57H1.75c-.96,0-1.75-.78-1.75-1.75s.78-1.75,1.75-1.75h260.38c.96,0,1.75.78,1.75,1.75s-.78,1.75-1.75,1.75Z"/>
    <g>
      <path class="b" d="m132,116.23c-.52-.78-1.32-1.31-2.23-1.49,1.22-.66,1.92-1.98,1.8-3.35-.11-1.16-.34-1.68-1.81-2.74l-7.83-4.95s-12.29,6.05-13.24,7.38c-2.5,3.53-4.53,7.59-7.44,14-9.88,21.81,11.33,22.55,14.85,10.4h7.28c1.16,0,2.25-.59,2.89-1.56.76-1.16.76-2.66,0-3.82-.64-.97-1.73-1.55-2.89-1.55h3.3c1.16,0,2.25-.59,2.89-1.56.77-1.16.77-2.66,0-3.82-.64-.97-1.73-1.55-2.89-1.55h2.43c1.16,0,2.25-.59,2.89-1.56.77-1.16.77-2.66,0-3.82Z"/>
      <g>
        <path d="m129.11,123.36h-13c-.96,0-1.75-.78-1.75-1.75s.78-1.75,1.75-1.75h13c.58,0,1.12-.29,1.43-.77.38-.58.38-1.32,0-1.9-.26-.39-.65-.65-1.1-.74-.12-.02-.23-.03-.33-.03h-13c-.83,0-1.54-.58-1.71-1.39s.26-1.63,1.02-1.96l7.36-3.19c.89-.38,1.91.02,2.3.91.34.78.06,1.67-.61,2.14h4.66c.33,0,.67.03,1,.1,1.36.26,2.59,1.08,3.35,2.24,1.16,1.75,1.16,4.01,0,5.75-.97,1.46-2.59,2.34-4.35,2.34Z"/>
        <path d="m126.68,130.29h-10.58c-.96,0-1.75-.78-1.75-1.75s.78-1.75,1.75-1.75h10.58c.58,0,1.11-.29,1.43-.77.38-.58.38-1.32,0-1.9-.32-.48-.85-.77-1.43-.77-.96,0-1.75-.78-1.75-1.75s.78-1.75,1.75-1.75c1.76,0,3.38.87,4.35,2.34,1.16,1.75,1.16,4.01,0,5.75-.96,1.46-2.59,2.34-4.34,2.34Z"/>
        <path d="m106.02,145.11c-2.83,0-5.37-1.14-7.02-3.24-1.44-1.83-2.15-4.21-2.08-7.09.06-3.03.99-6.54,2.75-10.43,2.91-6.41,4.98-10.59,7.61-14.29.33-.47.83-1.17,7.59-4.73,3.18-1.67,6.28-3.2,6.31-3.21.54-.27,1.19-.23,1.71.09l7.84,4.95s.06.04.09.06c1.77,1.28,2.36,2.21,2.52,4,.19,2.06-.86,4.02-2.66,5.02-.04.02-.07.04-.11.06-.86.43-1.91.08-2.34-.78-.41-.83-.11-1.83.68-2.29.02-.01.05-.03.07-.04h0c.6-.33.95-.98.89-1.66-.06-.64-.07-.74-1.04-1.45l-6.96-4.4c-5.17,2.57-10.86,5.63-11.76,6.46-2.44,3.45-4.42,7.47-7.23,13.64-2.8,6.19-3.21,11.25-1.11,13.9,1.24,1.57,3.39,2.23,5.76,1.77,3.26-.64,5.98-3.18,6.94-6.48.22-.75.9-1.26,1.68-1.26h7.28c.58,0,1.12-.29,1.43-.77.38-.58.38-1.32,0-1.9-.32-.48-.85-.77-1.43-.77-.96,0-1.75-.78-1.75-1.75s.78-1.75,1.75-1.75c1.76,0,3.38.87,4.35,2.34,1.15,1.75,1.15,4.01,0,5.75-.97,1.47-2.59,2.34-4.35,2.34h-6.04c-1.6,3.97-5.02,6.86-9.19,7.67-.73.14-1.45.21-2.15.21Zm4.03-32.93s0,0,0,0t0,0Z"/>
      </g>
    </g>
    <g>
      <g>
        <path class="c" d="m75.72,202.32l-1.54-5.59h109.6l-1.54,5.59c-.78,4.22-4.74,7.3-9.37,7.3h-87.78c-4.63,0-8.59-3.08-9.37-7.3Z"/>
        <path d="m172.87,211.32h-87.78c-5.43,0-10.06-3.62-11.03-8.61l-1.52-5.52c-.14-.51-.03-1.06.29-1.48.32-.42.82-.67,1.35-.67h109.6c.53,0,1.03.25,1.35.67.32.42.43.97.29,1.48l-1.52,5.52c-.97,4.99-5.59,8.61-11.03,8.61Zm-96.46-12.88l.95,3.44s.02.09.03.14c.64,3.42,3.88,5.91,7.7,5.91h87.78c3.82,0,7.06-2.48,7.7-5.91,0-.05.02-.09.03-.14l.95-3.44h-105.14Z"/>
      </g>
      <g>
        <g>
          <path class="c" d="m73.06,193.92l-4.08-48.18c0-4.33,4.4-7.83,9.82-7.83h100.36c5.42,0,9.82,3.51,9.82,7.83l-4.08,48.18c0,4.33-4.4,7.83-9.82,7.83h-92.2c-5.42,0-9.82-3.51-9.82-7.83Z"/>
          <path d="m175.08,203.46h-92.2c-6.32,0-11.47-4.24-11.52-9.46l-4.07-48.12s0-.1,0-.14c0-5.26,5.17-9.53,11.52-9.53h100.36c6.35,0,11.52,4.28,11.52,9.53,0,.05,0,.1,0,.14l-4.07,48.12c-.05,5.22-5.2,9.46-11.52,9.46Zm-104.4-57.78l4.07,48.11s0,.1,0,.14c0,3.38,3.64,6.14,8.12,6.14h92.2c4.48,0,8.12-2.75,8.12-6.14,0-.05,0-.1,0-.14l4.07-48.11c-.05-3.35-3.67-6.07-8.12-6.07h-100.36c-4.45,0-8.07,2.72-8.12,6.07Z"/>
        </g>
        <ellipse class="b" cx="128.98" cy="174.28" rx="5.78" ry="4.44"/>
      </g>
    </g>
    <g>
      <g>
        <path class="b" d="m204.57,176.28l.68,4.76c-4.22.38-7.65,2.06-9.62,4.78-2.26,3.1-2.27,7.19-.03,10.67,1.25,1.94,4.86,6.14,13.08,7.16,1.32,3.51,5.13,5.97,9.54,5.97h7.78c5,0,9.24-3.17,9.93-7.43l3.71-25.9h-35.07Zm-2.86,17.29c-1-1.56-1.06-3.31-.15-4.56.83-1.15,2.42-1.84,4.55-2l1.47,10.28c-3.65-.93-5.27-2.78-5.87-3.73Z"/>
        <path d="m226,211.37h-7.78c-4.68,0-8.86-2.42-10.74-6.13-3.44-.55-6.44-1.69-8.94-3.39-2.3-1.57-3.67-3.27-4.41-4.42-2.63-4.09-2.6-8.94.09-12.64,1.96-2.7,5.14-4.53,9.06-5.24l-.43-3.02c-.07-.5.08-1.01.41-1.39.33-.38.81-.6,1.32-.6h35.07c.51,0,.99.22,1.32.6.33.38.48.89.41,1.39l-3.71,25.9s0,.02,0,.03c-.41,2.51-1.84,4.79-4.03,6.43-2.13,1.59-4.83,2.47-7.63,2.47Zm-19.41-33.34l.4,2.77c.07.47-.06.96-.36,1.33-.3.38-.74.61-1.21.66-3.74.34-6.71,1.78-8.37,4.06-1.82,2.51-1.81,5.84.02,8.69,1.03,1.6,4.25,5.43,11.83,6.37.64.08,1.19.51,1.42,1.12,1.09,2.89,4.26,4.84,7.9,4.84h7.78c4.12,0,7.64-2.56,8.21-5.95l3.43-23.89h-31.04Zm1,21.01c-.14,0-.29-.02-.43-.05-4.2-1.07-6.13-3.26-6.91-4.47h0c-1.4-2.18-1.44-4.68-.1-6.53,1.14-1.57,3.16-2.51,5.83-2.71.92-.07,1.73.58,1.86,1.49l1.47,10.28c.08.58-.13,1.16-.56,1.55-.32.29-.74.45-1.17.45Zm-2.95-10.01c-.77.23-1.34.57-1.66,1.01-.48.65-.39,1.65.21,2.59h0c.27.42.92,1.24,2.25,1.98l-.8-5.57Z"/>
      </g>
      <g>
        <path d="m215.9,171.19c-.47,0-.92-.24-1.17-.67-.38-.65-.16-1.48.48-1.86.04-.02.08-.05.13-.08.38-.21.86-.48.86-1.63,0-.53-.67-1.26-1.31-1.96-.95-1.04-2.02-2.21-2.02-3.8,0-1.27.4-3,2.31-4.04l.03-.02c.65-.38,1.48-.16,1.86.49.38.65.16,1.48-.49,1.86-.03.02-.06.04-.11.06-.29.16-.89.48-.89,1.65,0,.53.67,1.26,1.31,1.96.95,1.04,2.02,2.21,2.02,3.8,0,2.76-1.71,3.7-2.27,4.01-.03.01-.05.03-.07.04-.22.13-.45.19-.69.19Z"/>
        <path d="m222.11,171.19c-.47,0-.92-.24-1.17-.67-.38-.65-.16-1.48.48-1.86.04-.02.08-.05.13-.08.38-.21.86-.48.86-1.63,0-.53-.67-1.26-1.31-1.96-.95-1.04-2.02-2.21-2.02-3.8,0-1.27.4-3,2.31-4.04l.03-.02c.65-.38,1.48-.16,1.86.49.38.65.16,1.48-.49,1.86-.03.02-.06.04-.11.06-.29.16-.89.48-.89,1.65,0,.53.67,1.26,1.31,1.96.95,1.04,2.02,2.21,2.02,3.8,0,2.76-1.71,3.7-2.27,4.01-.03.01-.05.03-.07.04-.22.13-.45.19-.69.19Z"/>
        <path d="m228.32,171.19c-.47,0-.92-.24-1.17-.67-.38-.65-.16-1.48.48-1.86.04-.02.08-.05.13-.08.38-.21.86-.48.86-1.63,0-.53-.67-1.26-1.31-1.96-.95-1.04-2.02-2.21-2.02-3.8,0-1.27.4-3,2.31-4.04l.03-.02c.65-.38,1.48-.16,1.86.49.38.65.16,1.48-.49,1.86-.03.02-.06.04-.11.06-.29.16-.89.48-.89,1.65,0,.53.67,1.26,1.31,1.96.95,1.04,2.02,2.21,2.02,3.8,0,2.76-1.71,3.7-2.27,4.01-.03.01-.05.03-.07.04-.22.13-.45.19-.69.19Z"/>
      </g>
    </g>
    <g>
      <g>
        <path class="c" d="m36.07,193.34s-.93-16.77-4.79-28.29c-3.85-11.52-13.09-23.04-25.57-30.1,21.62,29.2,30.36,58.4,30.36,58.4Z"/>
        <path class="c" d="m36.07,194.51c-.51,0-.97-.33-1.12-.83-.02-.07-2.23-7.38-7.04-18.15-4.43-9.93-12.05-24.9-23.14-39.89-.33-.44-.3-1.05.06-1.46.36-.41.97-.51,1.45-.24,12.22,6.91,21.97,18.41,26.1,30.75,2.02,6.04,3.23,13.5,3.89,18.69.71,5.61.95,9.87.96,9.91.03.59-.38,1.11-.96,1.21-.07.01-.14.02-.2.02Zm-25.89-55.33c9.33,13.47,15.89,26.48,19.88,35.44,1.59,3.57,2.91,6.77,3.95,9.46-.7-5.65-1.9-12.87-3.84-18.66-3.37-10.06-10.66-19.55-20-26.24Z"/>
      </g>
      <g>
        <path class="c" d="m35.91,193.23s1.06-22.83,3.47-34.73,15.93-24.93,19.49-26.95c-13.21,19.74-22.97,61.68-22.97,61.68Z"/>
        <path class="c" d="m35.91,194.4c-.05,0-.11,0-.16-.01-.6-.08-1.03-.61-1-1.21.01-.23,1.09-23.05,3.5-34.91,1.36-6.7,5.95-13.32,9.56-17.69,4.12-4.99,8.49-8.9,10.5-10.04.47-.27,1.06-.17,1.43.22.37.4.41.99.11,1.44-12.94,19.34-22.71,60.88-22.8,61.29-.12.53-.6.9-1.13.9Zm18.43-57.53c-1.48,1.46-3.12,3.22-4.75,5.19-6.23,7.55-8.37,13.23-9.07,16.67-1.23,6.08-2.11,15.13-2.68,22.44.97-3.46,2.14-7.47,3.48-11.73,4.29-13.59,8.65-24.5,13.02-32.57Z"/>
      </g>
      <g>
        <path class="c" d="m35.29,179.74s1.3-26.45-2.4-36.04c-4.25-11.03-13.53-23.59-13.53-23.59,0,0,3.84,20.19,4.96,25.66,2.65,12.96,10.97,33.97,10.97,33.97Z"/>
        <path class="c" d="m35.29,180.91c-.47,0-.9-.29-1.08-.74-.08-.21-8.39-21.26-11.03-34.17-1.11-5.42-4.93-25.47-4.96-25.68-.1-.53.18-1.07.68-1.28.5-.22,1.08-.06,1.4.37.38.52,9.43,12.82,13.68,23.87,3.74,9.71,2.53,35.43,2.47,36.52-.03.55-.43,1-.97,1.09-.06.01-.13.02-.19.02Zm-13.75-55.62c1.22,6.39,3.19,16.61,3.93,20.24,1.78,8.71,6.2,21.24,8.84,28.33.15-8.29.02-23.21-2.49-29.75-2.61-6.77-7.2-14.22-10.27-18.83Z"/>
      </g>
      <g>
        <polygon class="b" points="49.51 203.82 21.32 203.82 16.92 184.62 53.92 184.62 49.51 203.82"/>
        <path d="m49.51,205.57h-28.19c-.81,0-1.52-.56-1.7-1.36l-4.4-19.21c-.12-.52,0-1.06.34-1.48.33-.42.83-.66,1.37-.66h37c.53,0,1.03.24,1.37.66.33.42.46.96.34,1.48l-4.4,19.21c-.18.79-.89,1.36-1.7,1.36Zm-26.8-3.49h25.41l3.6-15.71H19.11l3.6,15.71Z"/>
      </g>
    </g>
  </g>
  <path d="m72.19,61.44c-.1,0-.2,0-.3-.03-.95-.17-1.59-1.07-1.42-2.02.12-.67.2-1.32.26-1.96-.3.11-.61.22-.92.32-2.42.78-5.19.85-7.59.2-1.35-.36-2.53-.94-3.5-1.71-2.24-.01-4.46-.54-6.43-1.61-5.02-2.72-7.89-8.72-6.82-14.25.26-1.34.74-2.61,1.4-3.77-.86.35-1.85-.04-2.24-.89-1.33-2.89-1.61-6.32-.79-9.64.79-3.23,2.57-6.18,4.99-8.3,4.7-4.1,11.83-5.4,18.17-3.32,3.36,1.1,6.42,3.23,8.63,5.99,2.37,2.96,3.57,6.48,3.39,9.89-.08,1.55-.47,3.05-1.1,4.45,1.33,2.33,2.27,4.88,2.7,7.51.86,5.23-1.65,10.24-6.32,13.33,0,1.67-.18,3.19-.38,4.37-.15.85-.89,1.45-1.72,1.45Zm-7.18-6.58c1.32.08,2.64-.09,3.74-.44.65-.21,1.31-.47,1.94-.78-.12-1.01-.33-1.95-.63-2.83-.61.79-1.29,1.51-2.06,2.15-.91.77-1.92,1.41-2.99,1.91Zm-5.62-7.23c-.42,1.24-.39,2.69.09,3.98.15.39.34.74.58,1.06,2.07-.24,4.1-1.04,5.69-2.38.96-.8,1.76-1.8,2.38-2.9-.01-.02-.03-.03-.04-.05-1.85,1.88-4.6,2.27-7.49.95-.42-.19-.83-.41-1.21-.65Zm-8.32-10.9c-1.08,1.23-1.86,2.71-2.17,4.32-.78,4.01,1.4,8.53,5.05,10.52.66.36,1.36.63,2.1.83-.76-2.38-.56-4.97.55-7.1-.31-.33-.59-.65-.84-.93l-.1-.12c-1.85-2.17-3.87-4.54-4.59-7.51Zm21.09,10.3c.85,1.44,1.38,2.96,1.71,4.47,2.35-2.12,3.88-5.1,3.3-8.65-.26-1.61-.75-3.18-1.43-4.68-.77.89-1.64,1.68-2.6,2.35.16,2.21-.19,4.45-.97,6.5Zm-10.42-2.07c.1.05.2.1.3.14,1.63.74,2.62.5,3.23.07-1.04-.48-1.95-.6-2.49-.51-.39.06-.73.16-1.04.3Zm-5.76-5.91c.67.96,1.48,1.91,2.33,2.92l.1.12c.15.18.3.35.45.51.39-.29.82-.54,1.26-.75-1.54-.68-2.96-1.63-4.15-2.8Zm7.41-3.6c-.46.88.12,2.34,1.18,2.94.43.24.93.4,1.48.46-.58-1.32-1.51-2.5-2.66-3.41Zm-6.97-1.85c.19.45.42.88.68,1.3.73,1.17,1.73,2.16,2.89,2.92-.4-1.33-.33-2.77.31-3.99-.9-.27-1.84-.4-2.78-.35-.37.02-.74.06-1.1.13Zm8.91-2.59c1.02,0,2.03.24,2.91.69,1.74.9,3.11,2.53,3.97,4.68.54-.54,1.02-1.14,1.44-1.79-1.62-2.21-3.7-4.09-6.07-5.41-2.64-1.47-5.58-1.92-8.06-1.22-1.36.39-2.59,1.16-3.51,2.16.44-.07.89-.12,1.35-.14,2.05-.1,4.13.37,6.02,1.33.18-.06.36-.11.55-.15.46-.1.93-.15,1.4-.15Zm-4.5-14.06c-3.61,0-7.12,1.2-9.7,3.45-3.94,3.44-5.37,9.4-3.32,13.85.11.24.16.48.16.73.87-1.11,1.92-2.08,3.09-2.87.22-.92.59-1.8,1.08-2.62.02-2.28.59-4.55,1.73-6.52,1.62-2.82,4.36-4.96,7.45-6-.16,0-.33,0-.49,0Zm1.1,7.19c2.45,0,5.01.68,7.35,1.98,2.18,1.22,4.14,2.83,5.81,4.71.17-1.01.18-2.04,0-3.04-.77-4.35-4.85-7.88-9.29-8.03-3.55-.13-7.14,1.86-8.91,4.95-.13.23-.25.46-.36.69.64-.33,1.32-.6,2.03-.8,1.08-.3,2.21-.45,3.36-.45Z"/>
  <path class="c" d="m182.19,106.18c-.99,2.25-3.6,3.27-5.86,2.27s-3.27-3.6-2.27-5.86c.99-2.25,3.6-3.27,5.86-2.27,2.25.99,3.27,3.6,2.27,5.86Zm-2.99-13.93c1.69-3.84,3.44-3.86,6.53-3.93,3.56-.07,5.02-.74,5.9-2.73,1.01-2.3.07-4.24-2.62-5.43-2.78-1.23-4.48-.97-6.63,1.04-1.63,1.55-2.36,1.76-3.9,1.08-2.43-1.07-3.41-3.03-2.52-5.07,1.36-3.09,7.45-7.22,15.98-3.46,6.76,2.98,9.42,8.69,6.81,14.61-3.04,6.89-8.75,6.8-11.41,6.74-1.1-.01-1.32.47-2.21,2.51-.78,1.77-2.44,2.19-4.65,1.22-2.25-.99-3.06-2.51-2.28-4.28l1.01-2.3Z"/>
  <path class="c" d="m174.96,26.4c-.73,1.77-2.73,2.61-4.5,1.88-1.77-.73-2.61-2.73-1.88-4.5.73-1.77,2.73-2.61,4.5-1.88,1.77.73,2.61,2.73,1.88,4.5Zm-2.6-10.75c1.24-3.02,2.6-3.07,4.99-3.18,2.77-.12,3.88-.68,4.53-2.24.74-1.8-.03-3.29-2.14-4.16-2.19-.9-3.5-.67-5.13.94-1.24,1.24-1.8,1.41-3.01.91-1.91-.78-2.71-2.29-2.05-3.88,1-2.43,5.64-5.75,12.34-3,5.31,2.18,7.48,6.56,5.57,11.21-2.22,5.41-6.66,5.45-8.73,5.46-.86.01-1.01.39-1.67,1.99-.57,1.39-1.85,1.75-3.59,1.04-1.77-.73-2.43-1.89-1.86-3.28l.74-1.8Z"/>
  <path class="c" d="m71.14,96.86c-2.13-3.62-1.12-5.05.63-7.6,2.03-2.93,2.33-4.51,1.23-6.38-1.27-2.16-3.4-2.54-5.94-1.05-2.62,1.54-3.41,3.07-3.04,5.99.3,2.23.05,2.94-1.41,3.8-2.29,1.35-4.46,1-5.58-.92-1.71-2.91-1.5-10.27,6.54-14.99,6.37-3.74,12.55-2.56,15.83,3.02,3.82,6.49.41,11.08-1.2,13.2-.65.89-.38,1.35.74,3.26.98,1.67.35,3.27-1.73,4.49-2.12,1.25-3.83,1.02-4.81-.65l-1.27-2.16Zm13.05,5.72c1.25,2.12.54,4.83-1.58,6.08-2.12,1.25-4.83.54-6.08-1.58-1.25-2.12-.54-4.83,1.58-6.08,2.12-1.25,4.83-.54,6.08,1.58Z"/>
</svg>