<?xml version="1.0" encoding="UTF-8"?>
<svg id="a" xmlns="http://www.w3.org/2000/svg" version="1.1" viewBox="0 0 272 207.4">
  <defs>
    <style>
      .cls-1 {
        fill: #000;
      }

      .cls-1, .cls-2, .cls-3, .cls-4 {
        stroke-width: 0px;
      }

      .cls-2 {
        fill: #39b2bf;
      }

      .cls-3 {
        fill: #d5eaff;
      }

      .cls-4 {
        fill: #fff;
      }
    </style>
  </defs>
  <g>
    <g>
      <g>
        <path class="cls-4" d="M47.2,80.6c0-5.5-4.1-10.6-8.5-10.6,4.4,0,8.5-5.1,8.5-10.6,0,5.5,4.1,10.6,8.5,10.6-4.4,0-8.5,5.1-8.5,10.6Z"/>
        <path class="cls-3" d="M47.2,82.4c-1,0-1.8-.8-1.8-1.8,0-4.4-3.3-8.8-6.7-8.8s-1.8-.8-1.8-1.8.8-1.8,1.8-1.8c3.4,0,6.7-4.4,6.7-8.8s.8-1.8,1.8-1.8,1.8.8,1.8,1.8c0,4.4,3.3,8.8,6.7,8.8s1.8.8,1.8,1.8-.8,1.8-1.8,1.8c-3.4,0-6.7,4.4-6.7,8.8s-.8,1.8-1.8,1.8ZM43.8,70c1.3,1,2.5,2.3,3.4,3.9.9-1.6,2-2.9,3.4-3.9-1.3-1-2.5-2.3-3.4-3.9-.9,1.6-2,2.9-3.4,3.9Z"/>
      </g>
      <g>
        <path class="cls-4" d="M65.3,104.7c0-5.5-4.1-10.6-8.5-10.6,4.4,0,8.5-5.1,8.5-10.6,0,5.5,4.1,10.6,8.5,10.6-4.4,0-8.5,5.1-8.5,10.6Z"/>
        <path class="cls-3" d="M65.3,106.5c-1,0-1.8-.8-1.8-1.8,0-4.4-3.3-8.8-6.7-8.8s-1.8-.8-1.8-1.8.8-1.8,1.8-1.8c3.4,0,6.7-4.4,6.7-8.8s.8-1.8,1.8-1.8,1.8.8,1.8,1.8c0,4.4,3.3,8.8,6.7,8.8s1.8.8,1.8,1.8-.8,1.8-1.8,1.8c-3.4,0-6.7,4.4-6.7,8.8s-.8,1.8-1.8,1.8ZM61.9,94.1c1.3,1,2.5,2.3,3.4,3.9.9-1.6,2.1-2.9,3.4-3.9-1.3-1-2.5-2.3-3.4-3.9-.9,1.6-2,2.9-3.4,3.9Z"/>
      </g>
      <g>
        <path class="cls-3" d="M43.3,109.4c0-3.5-2.6-6.8-5.5-6.8,2.8,0,5.5-3.3,5.5-6.8,0,3.5,2.6,6.8,5.5,6.8-2.8,0-5.5,3.3-5.5,6.8Z"/>
        <path class="cls-3" d="M43.3,110.5c-.6,0-1.2-.5-1.2-1.2,0-2.9-2.1-5.7-4.3-5.7s-1.2-.5-1.2-1.2.5-1.2,1.2-1.2c2.2,0,4.3-2.8,4.3-5.7s.5-1.2,1.2-1.2,1.2.5,1.2,1.2c0,2.9,2.1,5.7,4.3,5.7s1.2.5,1.2,1.2-.5,1.2-1.2,1.2c-2.2,0-4.3,2.8-4.3,5.7s-.5,1.2-1.2,1.2ZM41.1,102.5c.9.6,1.6,1.5,2.2,2.5.6-1,1.3-1.9,2.2-2.5-.9-.6-1.6-1.5-2.2-2.5-.6,1-1.3,1.9-2.2,2.5Z"/>
      </g>
    </g>
    <g>
      <g>
        <path class="cls-4" d="M235,80.6c0-5.5,4.1-10.6,8.5-10.6-4.4,0-8.5-5.1-8.5-10.6,0,5.5-4.1,10.6-8.5,10.6,4.4,0,8.5,5.1,8.5,10.6Z"/>
        <path class="cls-3" d="M235,82.4c-1,0-1.8-.8-1.8-1.8,0-4.4-3.3-8.8-6.7-8.8s-1.8-.8-1.8-1.8.8-1.8,1.8-1.8c3.4,0,6.7-4.4,6.7-8.8s.8-1.8,1.8-1.8,1.8.8,1.8,1.8c0,4.4,3.3,8.8,6.7,8.8s1.8.8,1.8,1.8-.8,1.8-1.8,1.8c-3.4,0-6.7,4.4-6.7,8.8s-.8,1.8-1.8,1.8ZM231.6,70c1.3,1,2.5,2.3,3.4,3.9.9-1.6,2.1-2.9,3.4-3.9-1.3-1-2.5-2.3-3.4-3.9-.9,1.6-2.1,2.9-3.4,3.9Z"/>
      </g>
      <g>
        <path class="cls-4" d="M216.9,104.7c0-5.5,4.1-10.6,8.5-10.6-4.4,0-8.5-5.1-8.5-10.6,0,5.5-4.1,10.6-8.5,10.6,4.4,0,8.5,5.1,8.5,10.6Z"/>
        <path class="cls-3" d="M216.9,106.5c-1,0-1.8-.8-1.8-1.8,0-4.4-3.3-8.8-6.7-8.8s-1.8-.8-1.8-1.8.8-1.8,1.8-1.8c3.4,0,6.7-4.4,6.7-8.8s.8-1.8,1.8-1.8,1.8.8,1.8,1.8c0,4.4,3.3,8.8,6.7,8.8s1.8.8,1.8,1.8-.8,1.8-1.8,1.8c-3.4,0-6.7,4.4-6.7,8.8s-.8,1.8-1.8,1.8ZM213.5,94.1c1.3,1,2.5,2.3,3.4,3.9.9-1.6,2.1-2.9,3.4-3.9-1.3-1-2.5-2.3-3.4-3.9-.9,1.6-2.1,2.9-3.4,3.9Z"/>
      </g>
      <g>
        <path class="cls-3" d="M238.9,109.4c0-3.5,2.6-6.8,5.5-6.8-2.8,0-5.5-3.3-5.5-6.8,0,3.5-2.6,6.8-5.5,6.8,2.8,0,5.5,3.3,5.5,6.8Z"/>
        <path class="cls-3" d="M238.9,110.5c-.6,0-1.2-.5-1.2-1.2,0-2.9-2.1-5.7-4.3-5.7s-1.2-.5-1.2-1.2.5-1.2,1.2-1.2c2.2,0,4.3-2.8,4.3-5.7s.5-1.2,1.2-1.2,1.2.5,1.2,1.2c0,2.9,2.1,5.7,4.3,5.7s1.2.5,1.2,1.2-.5,1.2-1.2,1.2c-2.2,0-4.3,2.8-4.3,5.7s-.5,1.2-1.2,1.2ZM236.7,102.5c.9.6,1.6,1.5,2.2,2.5.6-1,1.3-1.9,2.2-2.5-.9-.6-1.6-1.5-2.2-2.5-.6,1-1.3,1.9-2.2,2.5Z"/>
      </g>
    </g>
  </g>
  <g>
    <g>
      <g>
        <path class="cls-4" d="M109.8,99.7s13.4-2,23-2,23,2,23,2v36.2h-46.1s0-36.2,0-36.2Z"/>
        <path class="cls-1" d="M155.8,137.7h-46.1c-1,0-1.8-.8-1.8-1.8v-36.2c0-.9.7-1.7,1.5-1.8.6,0,13.7-2,23.3-2s22.7,1.9,23.3,2c.9.1,1.5.9,1.5,1.8v36.2c0,1-.8,1.8-1.8,1.8h0ZM111.6,134.1h42.5v-32.9c-3.8-.5-13.8-1.8-21.2-1.8s-17.4,1.2-21.2,1.8v32.9Z"/>
      </g>
      <path class="cls-4" d="M165,55.3h.1c6.8-.1,8.4,6.2,7.3,12-1.5,7.6-7.1,10.3-10.4,9.3-3,12-9.2,16.2-15.2,18.5h0c.7,5.1.3,10.2,6.5,15.4,3.2,2.7,11.9,4.3,17.2,6.2,8.5,3,15.8,7.4,18.7,14.6,2.6,6.5,2.6,35.1,2.2,40.3-.2,2.5-1.4,4.7-3.5,6.1-11.6,8-43.7,10.3-55.5,10.3s-43.9-2.2-55.5-10.3c-2-1.4-3.3-3.7-3.5-6.1-.4-5.2-.3-33.8,2.2-40.3,2.9-7.2,10.2-11.6,18.7-14.6,5.4-1.9,14.1-3.6,17.2-6.2,6.2-5.2,5.9-10.3,6.5-15.5-6-2.2-12.1-6.5-15.2-18.5h0c-3.2,1.1-8.9-1.7-10.4-9.3-1.1-5.7.6-12.1,7.3-11.9h.1C88.5,5.7,132.5,7.2,132.5,7.2c0,0,44-1.5,32.5,48.1Z"/>
      <path class="cls-1" d="M118.5,96.7c-.2,0-.4,0-.6-.1-3.9-1.5-6.9-3.4-9.4-6-3.2-3.3-5.4-7.8-6.9-13.6,0,0,0,0,0-.1-.2-.6-.3-1.1-.4-1.5-.2-1,.4-1.9,1.4-2.2s1.9.4,2.2,1.4c0,.4.2.8.3,1.3,0,0,0,0,0,0,3,11.7,8.8,15.3,14.1,17.2.9.3,1.4,1.4,1.1,2.3-.3.7-1,1.2-1.7,1.2Z"/>
      <path class="cls-1" d="M101.8,78.4c-1.4,0-3-.4-4.5-1.3-1.8-1.1-5.1-3.8-6.2-9.7-.9-4.5-.1-8.6,2.1-11.2,1.7-2,4.1-3,7.1-2.9,1,0,1.8.8,1.8,1.8s-.8,1.8-1.8,1.8c-1.9,0-3.3.5-4.2,1.6-1.4,1.7-1.9,4.8-1.3,8.2.4,1.9,1.5,5.4,4.5,7.2,1.2.7,2.6,1,3.5.7.9-.3,2,.2,2.3,1.2.3.9-.2,2-1.2,2.3-.6.2-1.3.3-2,.3h0Z"/>
      <path class="cls-1" d="M147.1,96.7c-.7,0-1.4-.4-1.7-1.2-.4-.9.1-2,1.1-2.3,3.4-1.3,6-2.9,8.1-5.1,2.8-2.9,4.7-6.9,6-12.1.1-.5.2-1,.3-1.4.2-1,1.2-1.6,2.1-1.4,1,.2,1.6,1.2,1.4,2.1-.1.5-.2,1-.4,1.5-1.4,5.8-3.7,10.3-6.9,13.7-2.5,2.7-5.5,4.6-9.4,6-.2,0-.4.1-.6.1h0Z"/>
      <path class="cls-1" d="M163.8,78.4c-.7,0-1.3,0-2-.3-.8-.2-1.3-.9-1.3-1.7s.8-1.8,1.8-1.8h0c.2,0,.4,0,.6,0,.9.3,2.3,0,3.5-.7,1.3-.8,3.6-2.7,4.5-7.2.6-3.3.2-6.5-1.3-8.2-1-1.2-2.4-1.7-4.2-1.6-1,0-1.8-.8-1.8-1.8,0-1,.8-1.8,1.8-1.8,2.9,0,5.4.9,7.1,2.9,2.2,2.6,2.9,6.7,2.1,11.2-1.1,5.9-4.4,8.6-6.2,9.7-1.5.9-3,1.3-4.5,1.3h0Z"/>
      <path class="cls-1" d="M132.8,189.6c-6.1,0-17.1-.6-28.1-2.1-13.6-1.9-23.1-4.8-28.4-8.4-2.5-1.7-4-4.4-4.2-7.5-.3-4.5-.5-34,2.4-41.1,2.7-6.8,9.2-11.9,19.8-15.6,1.7-.6,3.7-1.2,5.8-1.8,4.2-1.2,9-2.5,10.9-4.1,4.8-4.1,5.2-7.8,5.7-12.2,0-.7.2-1.4.2-2.2.1-1,1-1.7,2-1.6s1.7,1,1.6,2c0,.7-.2,1.4-.2,2.1-.5,4.5-1,9.6-6.9,14.6-2.5,2.1-7.4,3.5-12.2,4.8-2.1.6-4,1.1-5.6,1.7-9.5,3.3-15.3,7.8-17.6,13.6-2.3,5.8-2.5,33.8-2.1,39.5.1,1.9,1.1,3.7,2.7,4.8,4.8,3.3,14.1,6,26.9,7.9,10.9,1.6,21.7,2.1,27.6,2.1,13.1,0,43.7-2.4,54.5-9.9,1.6-1.1,2.6-2.8,2.7-4.8.4-5.9.3-33.6-2.1-39.5-2.3-5.8-8.1-10.2-17.6-13.6-1.6-.6-3.6-1.1-5.6-1.7-4.8-1.3-9.7-2.8-12.2-4.8-5.9-5-6.5-10.1-6.9-14.6,0-.7-.1-1.4-.2-2-.1-1,.6-1.9,1.6-2,1-.1,1.9.6,2,1.6,0,.7.2,1.4.2,2.1.4,4.3.8,8.1,5.7,12.2,1.9,1.6,6.7,2.9,10.9,4.1,2.1.6,4.1,1.2,5.8,1.8,10.6,3.7,17,8.8,19.8,15.6,2.8,7.1,2.7,36.6,2.4,41.1-.2,3-1.8,5.8-4.2,7.5-5.3,3.7-14.9,6.5-28.4,8.4-11.1,1.6-22.1,2.1-28.1,2.1h0Z"/>
      <path class="cls-1" d="M132.8,71.5c-.4,0-.8-.4-.8-.8v-1c0-.4.4-.8.8-.8s.8.4.8.8v1c0,.4-.4.8-.8.8Z"/>
      <path class="cls-1" d="M123.7,51.8c-.3,0-.7-.1-.9-.4-1.1-1-4.8-1.5-6.5-.9-.7.3-1.5,0-1.8-.8-.3-.7,0-1.5.8-1.8,2.4-.9,7.3-.4,9.4,1.4.6.5.6,1.4,0,2-.3.3-.7.5-1,.5h0Z"/>
      <path class="cls-1" d="M141.9,51.8c-.4,0-.8-.2-1-.5-.5-.6-.5-1.5.1-2,2-1.8,6.9-2.3,9.4-1.4.7.3,1.1,1.1.8,1.8-.3.7-1.1,1.1-1.8.8-1.7-.6-5.4-.1-6.5.9-.3.2-.6.4-.9.4h0Z"/>
      <path class="cls-1" d="M118.5,96.7c-.2,0-.4,0-.6-.1-4.1-1.5-7.2-3.6-9.7-6.4-3.2-3.6-5.5-8.5-6.9-14.8-.2-1,.4-1.9,1.4-2.2s1.9.4,2.2,1.4c2.9,12.8,8.9,16.6,14.4,18.7.9.3,1.4,1.4,1.1,2.3-.3.7-1,1.2-1.7,1.2Z"/>
      <path class="cls-1" d="M147.1,96.7c-.7,0-1.4-.4-1.7-1.2-.4-.9.1-2,1.1-2.3,10-3.7,12.9-11.5,14.4-18.6.2-1,1.2-1.6,2.1-1.4s1.6,1.2,1.4,2.1c-1.4,6.3-3.6,11.2-6.9,14.8-2.6,2.8-5.7,4.9-9.8,6.4-.2,0-.4.1-.6.1h0Z"/>
      <path class="cls-2" d="M160.8,43.2l3.5,15.6h0c.4-1.3.7-2.5.9-3.8l4.2-15.3,1.6-.7c-.4-9.1-4.2-14.5-4.2-14.5l2.7-1.1c-2-5.6-11.4-11.2-11.4-11.2l1.1-3.5s-8.6-5.6-17-1.9c0,0-2.3-3.4-7.4-4.6-10.2-2.3-17.6,2.8-17.6,2.8l1.8,1.7s-5.4-.5-14.4,6.9c-8.4,6.9-10.7,15.8-10.7,15.8l3.8.3s-3.5,5.7-3.8,12.1l1.4,1.1,4.9,11.9c.3,1.2.6,2.5.9,3.8h0l3.5-15.7s10.9-9.2,13.6-13.8c-.3,6.1,2.2,8.4,2.2,8.4,0,0,3.7-4.6,6.4-7.5.9,5.2,1.6,7,1.6,7,0,0,10.3-3.6,18.9-8.2,3.7,10.2,13.4,14.1,13.4,14.1h0Z"/>
      <path class="cls-1" d="M164.3,60.7c-.3,0-.5,0-.8-.2-.5-.3-.9-.8-1-1.3l-3.5-15.6c-.2-1,.4-1.9,1.4-2.2s1.9.4,2.1,1.4l1.9,8.5,3.3-11.9c.1-.5.6-1,1.1-1.2l.4-.2c-.5-6.1-2.7-10.7-3.8-12.3-.3-.5-.4-1-.2-1.5s.5-.9,1-1.1l1-.4c-2.3-3.6-7.7-7.4-9.8-8.7-.7-.4-1.1-1.3-.8-2.1l.7-2.1c-2.5-1.2-8.4-3.6-14.1-1.1-.8.4-1.7,0-2.2-.6,0-.1-2-2.8-6.3-3.8-6.3-1.5-11.5.2-14.2,1.5h0c.6.6.7,1.4.4,2.1-.3.7-1,1.1-1.8,1-.3,0-5.2,0-13.1,6.5-5.5,4.5-8.2,9.9-9.4,12.8h1.5c.6.2,1.2.5,1.5,1.1.3.6.3,1.2,0,1.8,0,0-2.9,4.9-3.5,10.4l.6.5c.2.2.4.5.6.7l3.9,9.4,2.1-9.1c.2-1,1.2-1.6,2.2-1.4s1.6,1.2,1.4,2.2l-3.5,15.7c-.1.6-.6,1.1-1.1,1.3s-1.2.1-1.7-.2c-.3-.2-.6-.6-.7-1-.3-1.3-.7-2.5-.9-3.7l-4.7-11.3-1-.8c-.5-.4-.7-.9-.7-1.5.2-4.2,1.7-8,2.8-10.5h-1.2c-.5-.1-1-.4-1.3-.9s-.4-1-.3-1.5c0-.4,2.6-9.5,11.3-16.7,5.2-4.3,9.3-6.1,12-6.8,0-.2,0-.4,0-.6,0-.5.3-1,.8-1.3.3-.2,8.2-5.6,19.1-3.1,3.8.9,6.3,2.9,7.5,4.2,8.7-3,17.1,2.3,17.4,2.6.7.4,1,1.3.7,2.1l-.7,2.2c2.7,1.8,9.2,6.5,10.9,11.4.3.9-.1,1.9-1,2.3l-.9.4c1.2,2.5,3.1,7.2,3.4,13.6,0,.8-.4,1.5-1.1,1.8l-.8.3-4,14.4c-.3,1.2-.6,2.4-.9,3.7,0,.4-.3.8-.6,1-.3.3-.7.4-1.1.4h0Z"/>
      <path class="cls-1" d="M132.8,189.6c-6.1,0-17.1-.6-28.1-2.1-13.6-1.9-23.1-4.8-28.4-8.4-2.5-1.7-4-4.4-4.2-7.5-.3-4.5-.5-34,2.4-41.1,2.7-6.8,9.2-11.9,19.8-15.6,1.7-.6,3.7-1.2,5.8-1.8,4.2-1.2,9-2.5,10.9-4.1,4.8-4.1,5.2-7.8,5.7-12.2,0-.7.2-1.4.2-2.2.1-1,1-1.7,2-1.6s1.7,1,1.6,2c0,.7-.2,1.4-.2,2.1-.5,4.5-1,9.6-6.9,14.6-2.5,2.1-7.4,3.5-12.2,4.8-2.1.6-4,1.1-5.6,1.7-9.5,3.3-15.3,7.8-17.6,13.6-2.3,5.8-2.5,33.8-2.1,39.5.1,1.9,1.1,3.7,2.7,4.8,4.8,3.3,14.1,6,26.9,7.9,10.9,1.6,21.7,2.1,27.6,2.1,13.1,0,43.7-2.4,54.5-9.9,1.6-1.1,2.6-2.8,2.7-4.8.4-5.9.3-33.6-2.1-39.5-2.3-5.8-8.1-10.2-17.6-13.6-1.6-.6-3.6-1.1-5.6-1.7-4.8-1.3-9.7-2.8-12.2-4.8-5.9-5-6.5-10.1-6.9-14.6,0-.7-.1-1.4-.2-2-.1-1,.6-1.9,1.6-2,1-.1,1.9.6,2,1.6,0,.7.2,1.4.2,2.1.4,4.3.8,8.1,5.7,12.2,1.9,1.6,6.7,2.9,10.9,4.1,2.1.6,4.1,1.2,5.8,1.8,10.6,3.7,17,8.8,19.8,15.6,2.8,7.1,2.7,36.6,2.4,41.1-.2,3-1.8,5.8-4.2,7.5-5.3,3.7-14.9,6.5-28.4,8.4-11.1,1.6-22.1,2.1-28.1,2.1h0Z"/>
      <g>
        <path class="cls-4" d="M132.8,123.9c-14.3-8.2-23-24.2-23-24.2,0,0-4.1-.7-8.5,6.2-4.1.5-9.1,2.2-11.8,6.3s-2.3,8-2.3,8c0,0,15.7,8,45.6,3.8Z"/>
        <path class="cls-1" d="M115.8,126.9c-5.5,0-11.5-.4-17.4-1.6-7.8-1.5-11.9-3.6-12.1-3.7-.5-.3-.9-.8-1-1.4,0-.2-.5-4.7,2.6-9.2,1.4-2.1,4.9-5.8,12.2-7,4.7-6.9,9.3-6.3,9.8-6.3.6,0,1,.4,1.3.9,0,.2,8.7,15.7,22.3,23.5.7.4,1,1.2.9,1.9-.1.8-.8,1.3-1.5,1.4-4.7.7-10.7,1.2-17.2,1.2h0ZM89,119c1.6.7,5.1,1.9,10.3,2.9,6.1,1.2,15.7,2.1,28.3.8-10.3-7.4-16.9-17.8-18.9-21.2-1.2.3-3.5,1.3-6,5.2-.3.4-.8.8-1.3.8-2.8.3-7.8,1.5-10.5,5.5-1.6,2.3-1.9,4.6-2,5.8h0Z"/>
      </g>
      <g>
        <path class="cls-4" d="M132.8,123.9c14.3-8.2,23-24.2,23-24.2,0,0,4.1-.7,8.5,6.2,4.1.5,9.1,2.2,11.8,6.3,2.7,4.1,2.3,8,2.3,8,0,0-15.7,8-45.6,3.8h0Z"/>
        <path class="cls-1" d="M149.7,126.9c-5,0-10.8-.3-17.1-1.2-.8-.1-1.4-.7-1.5-1.4-.1-.8.2-1.5.9-1.9,13.7-7.9,22.3-23.4,22.4-23.5.3-.5.7-.8,1.3-.9.5,0,5.1-.6,9.8,6.3,7.3,1.2,10.8,4.8,12.2,7,3.1,4.6,2.6,9,2.6,9.2,0,.6-.4,1.1-1,1.4-.2,0-4.2,2.1-12.1,3.7-4.2.8-10.1,1.6-17.5,1.6h0ZM137.9,122.7c12.7,1.3,22.3.3,28.4-.8,5.3-1,8.8-2.3,10.3-2.9,0-1.2-.4-3.5-2-5.8-2.7-4-7.8-5.2-10.5-5.5-.5,0-1-.4-1.3-.8-1.9-3-3.7-4.3-4.8-4.8s-.9-.4-1.2-.4c-1.9,3.3-8.6,13.8-18.9,21.2h0Z"/>
      </g>
      <g>
        <path class="cls-1" d="M146.8,149.4c-1,0-1.8-.8-1.8-1.8v-22.4c0-1,.8-1.8,1.8-1.8s1.8.8,1.8,1.8v22.4c0,1-.8,1.8-1.8,1.8Z"/>
        <path class="cls-1" d="M118.8,149.4c-1,0-1.8-.8-1.8-1.8v-22.4c0-1,.8-1.8,1.8-1.8s1.8.8,1.8,1.8v22.4c0,1-.8,1.8-1.8,1.8Z"/>
      </g>
      <path class="cls-1" d="M156.7,42.7c-.3,0-.7,0-1-.3-2.4-1.6-5.7-5.2-7.1-7.7-.5-.9-.2-2,.7-2.5.9-.5,2-.2,2.4.7,1,1.8,3.8,5,5.9,6.4.8.5,1.1,1.7.5,2.5-.4.5-.9.8-1.5.8h0Z"/>
      <path class="cls-1" d="M108.4,41c-.6,0-1.1-.3-1.5-.8-.6-.8-.3-1.9.5-2.5,4.8-3.3,7.6-5.8,9.3-8.5.4-.7,1.3-1,2-.8.8.2,1.3.9,1.3,1.7,0,1.5.1,3.3.4,4.7.5-.6,1.1-1.2,1.6-1.8,1.3-1.5,2.6-3,3.9-4.1.5-.4,1.1-.5,1.7-.4.6.2,1.1.6,1.2,1.2,0,0,.9,3.4,1.8,5.8,4.5-1.8,12.2-5.7,15.9-8.1.8-.5,1.9-.3,2.5.5.6.8.3,2-.5,2.5-4.4,2.9-14,7.7-18.3,9.1-.9.3-1.8-.1-2.2-1-.6-1.3-1.3-3.3-1.8-5-.5.6-1,1.1-1.5,1.7-1.4,1.6-2.8,3.2-4,4.1-.4.3-.9.4-1.3.3-.5,0-.9-.3-1.2-.7-.7-1-1.2-2.7-1.4-4.4-1.8,1.8-4.2,3.7-7.3,5.8-.3.2-.7.3-1,.3h0Z"/>
      <path class="cls-1" d="M132.8,85.8c-7.3,0-10.3-7-10.4-7.3-.2-.4-.1-.9.1-1.3.3-.4.7-.6,1.2-.6h18.3c.5,0,.9.2,1.2.6.3.4.3.9.1,1.3-.1.3-3.1,7.3-10.4,7.3ZM126.1,79.3c1.2,1.6,3.4,3.7,6.7,3.7s5.5-2.1,6.7-3.7h-13.4Z"/>
      <path class="cls-1" d="M149.2,61.7c-.4,0-.9-.2-1.1-.6-.8-1.1-2.1-1.3-2.8-1.4-1.1,0-2.2.3-2.7,1-.5.6-1.4.7-2,.2-.6-.5-.7-1.4-.1-2,1.1-1.3,3-2,4.9-1.9,2,0,3.8,1,4.9,2.5.5.6.3,1.5-.3,2-.2.2-.5.3-.8.3h0Z"/>
      <path class="cls-1" d="M116.4,61.7c-.3,0-.6,0-.8-.3-.6-.5-.8-1.3-.3-2,1.1-1.5,2.9-2.4,4.9-2.5,2,0,3.8.7,4.9,1.9.5.6.4,1.5-.2,2-.6.5-1.5.4-2-.2-.5-.6-1.6-1-2.7-1-.7,0-1.9.2-2.8,1.4-.3.4-.7.6-1.1.6h0Z"/>
    </g>
    <g>
      <path class="cls-4" d="M203.4,112.5c-.8-1.2-2.2-1.9-3.6-1.7-1.2.2-2.2.9-2.7,2l.7-1.4c.5-1.1.4-2.4-.2-3.4-.8-1.2-2.2-1.9-3.6-1.7-1,.2-1.9.7-2.5,1.6l7.6-17c.5-1.1.4-2.4-.2-3.4-.8-1.2-2.2-1.9-3.6-1.7-1.2.2-2.2.9-2.7,2l-11.5,25.1,6.6-24.4c.3-1.2,0-2.4-.8-3.3-.9-1.1-2.4-1.5-3.8-1-1.1.4-2,1.3-2.3,2.5l-5.8,21.2-2.8,8.6h0c-3.7,2.8-5.3,7.4-4.7,11.3.7,5.3,4.4,7.9,11.9,9.9,16.2,4.4,20.5-12,21.5-16.2l2.6-5.6c.5-1.1.4-2.4-.2-3.4h0Z"/>
      <g>
        <path class="cls-1" d="M197.2,114.6c-.2,0-.5,0-.8-.2-.9-.4-1.3-1.5-.9-2.4l.7-1.4c.2-.5.2-1.2-.1-1.7-.4-.6-1.1-.9-1.8-.8-.5,0-.9.4-1.2.8,0,0,0,.1-.1.2l-.9,2.2c-.4.9-1.4,1.3-2.4,1s-1.3-1.4-1-2.4l.9-2.2s0,0,0,0c.1-.2.2-.4.4-.6h0c.8-1.3,2.2-2.2,3.7-2.4,2.1-.3,4.2.7,5.4,2.5.9,1.5,1.1,3.4.3,5.1l-.7,1.4c-.3.7-1,1-1.6,1h0Z"/>
        <path class="cls-1" d="M194.2,120.9c-.2,0-.5,0-.8-.2-.9-.4-1.3-1.5-.9-2.4l2.9-6.3c.4-.9,1.5-1.3,2.4-.9.9.4,1.3,1.5.9,2.4l-2.9,6.3c-.3.7-1,1-1.6,1h0Z"/>
        <path class="cls-1" d="M191,123c-1.7,0-3.3-.8-4.4-2.2-.6-.8-.4-1.9.4-2.5s1.9-.4,2.5.4c.4.5,1,.8,1.7.7.6,0,1.1-.4,1.3-1,.4-.9,1.5-1.3,2.4-.8.9.4,1.3,1.5.8,2.4-.8,1.6-2.3,2.7-4,3-.3,0-.5,0-.8,0Z"/>
        <path class="cls-1" d="M196.8,127.5c-1.8,0-3.6-.9-4.6-2.6-.9-1.5-1.1-3.4-.3-5.1l.7-1.4s0,0,0,0h0s2.9-6.3,2.9-6.3c0,0,0,0,0-.2.8-1.6,2.3-2.6,4-2.9,2.1-.3,4.2.7,5.4,2.5.9,1.5,1.1,3.4.3,5.1l-3.6,7.8c-.8,1.6-2.3,2.8-4.1,3.1-.3,0-.5,0-.8,0h0ZM195.8,120l-.7,1.4c-.2.5-.2,1.2.1,1.7.4.6,1.1.9,1.8.8.6,0,1.1-.5,1.3-1l1-2.1h0l2.6-5.6c.2-.5.2-1.2-.1-1.7-.4-.6-1.1-.9-1.8-.8-.6,0-1.1.4-1.3,1,0,0,0,0,0,0l-2.9,6.2s0,0,0,0h0s0,0,0,0ZM198.7,113.8h0Z"/>
        <path class="cls-1" d="M172.3,118.2c-.2,0-.4,0-.6,0-.9-.3-1.5-1.3-1.1-2.3l2.8-8.5,5.7-21.2c.5-1.8,1.8-3.1,3.5-3.7,2-.7,4.3,0,5.7,1.6,1.2,1.3,1.6,3.2,1.1,5l-6.6,24.4c-.3,1-1.2,1.5-2.2,1.3s-1.5-1.2-1.3-2.2l6.6-24.4c.2-.6,0-1.2-.4-1.6-.5-.5-1.2-.7-1.9-.5-.6.2-1,.6-1.2,1.2l-5.8,21.2s0,0,0,0l-2.8,8.6c-.2.8-.9,1.2-1.7,1.2h0Z"/>
        <path class="cls-1" d="M181.1,114.8c-.2,0-.5,0-.8-.2-.9-.4-1.3-1.5-.9-2.4l11.5-25.1c.8-1.7,2.3-2.8,4.1-3.1,2.1-.3,4.2.6,5.4,2.5.9,1.5,1.1,3.4.3,5.1l-8.7,19.7c-.4.9-1.5,1.3-2.4.9s-1.3-1.5-.9-2.4l8.7-19.7h0c.2-.6.2-1.2-.1-1.7-.4-.6-1.1-.9-1.8-.8-.6,0-1.1.5-1.4,1l-11.5,25.1c-.3.7-1,1.1-1.6,1.1h0Z"/>
        <path class="cls-1" d="M184.7,140.2c-1.8,0-3.7-.3-5.7-.8-4.2-1.1-7.1-2.4-9.2-4.1-2.3-1.9-3.6-4.2-4.1-7.3-.7-4.8,1.4-9.9,5.4-12.9,0,0,0,0,0,0,.9-.7,1.9-1.3,2.9-1.7,1.2-.5,3.4-1.2,6.5-2.1,3.7-1,7.8-2,9.4-2.4.4,0,.6-.2.8-.2,1.7-.6,3.5-.3,4.9.7,1.7,1.3,2.6,3.4,2.1,5.6,0,.4-.2.7-.4,1.1h0c-.6,1.3-1.6,2.2-2.9,2.7l-9.7,4.4c0,.5,0,1.1-.2,1.8-.5,2.4-1.5,4.8-3.2,7.1-.6.8-1.7,1-2.5.5-.8-.6-1-1.7-.5-2.5,3-4.4,2.8-7.5,2.8-7.7-.1-.8.3-1.5,1-1.9l10.8-4.9s0,0,.1,0c.4-.2.8-.5,1-.9,0-.1.1-.2.1-.4.2-.7-.1-1.4-.7-1.8-.5-.3-1.1-.4-1.7-.2,0,0-.1,0-.2,0,0,0-.3,0-.9.2-1.6.4-5.6,1.4-9.2,2.4-3.7,1-5.4,1.6-6.1,1.9-.8.3-1.5.7-2.1,1.2,0,0,0,0,0,0-3.4,2.6-4.4,6.7-4,9.6.6,4.2,3.4,6.5,10.6,8.4,4.2,1.1,7.8.8,10.8-.9,5.8-3.4,7.9-11.3,8.5-14h0c.3-1.1,1.3-1.6,2.2-1.4s1.5,1.3,1.2,2.2h0c-.8,3-3.1,12.1-10.2,16.2-2.4,1.4-5,2-7.8,2h0Z"/>
      </g>
    </g>
    <path class="cls-1" d="M270.2,201.4H1.8c-1,0-1.8-.8-1.8-1.8s.8-1.8,1.8-1.8h268.4c1,0,1.8.8,1.8,1.8s-.8,1.8-1.8,1.8h0Z"/>
    <g>
      <g>
        <path class="cls-2" d="M78.1,198.1l-1.6-5.8h113l-1.6,5.8c-.8,4.3-4.9,7.5-9.7,7.5h-90.5c-4.8,0-8.8-3.2-9.7-7.5Z"/>
        <path class="cls-1" d="M178.2,207.3h-90.5c-5.6,0-10.4-3.7-11.4-8.9l-1.6-5.7c-.1-.5,0-1.1.3-1.5.3-.4.8-.7,1.4-.7h113c.6,0,1.1.3,1.4.7.3.4.4,1,.3,1.5l-1.6,5.7c-1,5.1-5.8,8.9-11.4,8.9h0ZM78.8,194l1,3.5s0,.1,0,.1c.7,3.5,4,6.1,7.9,6.1h90.5c3.9,0,7.3-2.6,7.9-6.1,0,0,0-.1,0-.1l1-3.5h-108.4Z"/>
      </g>
      <g>
        <g>
          <path class="cls-2" d="M75.3,189.4l-4.2-49.7c0-4.5,4.5-8.1,10.1-8.1h103.4c5.6,0,10.1,3.6,10.1,8.1l-4.2,49.7c0,4.5-4.5,8.1-10.1,8.1h-95c-5.6,0-10.1-3.6-10.1-8.1h0Z"/>
          <path class="cls-1" d="M180.5,199.2h-95c-6.5,0-11.8-4.4-11.9-9.8l-4.2-49.6h0c0-5.6,5.3-10,11.9-10h103.4c6.6,0,11.9,4.4,11.9,9.8h0c0,.1-4.2,49.8-4.2,49.8,0,5.4-5.4,9.8-11.9,9.8h0ZM72.8,139.7l4.2,49.6h0c0,3.6,3.8,6.5,8.4,6.5h95c4.6,0,8.4-2.8,8.4-6.3h0c0-.1,4.2-49.7,4.2-49.7,0-3.5-3.8-6.3-8.4-6.3h-103.4c-4.6,0-8.3,2.8-8.4,6.3h0Z"/>
        </g>
        <ellipse class="cls-4" cx="132.9" cy="169.1" rx="6" ry="4.6"/>
      </g>
    </g>
    <g>
      <g>
        <path class="cls-4" d="M210.9,171.2l.7,4.9c-4.4.4-7.9,2.1-9.9,4.9-2.3,3.2-2.3,7.4,0,11,1.3,2,5,6.3,13.5,7.4,1.4,3.6,5.3,6.2,9.8,6.2h8c5.1,0,9.5-3.3,10.2-7.7l3.8-26.7h-36.2ZM207.9,189c-1-1.6-1.1-3.4-.2-4.7.9-1.2,2.5-1.9,4.7-2.1l1.5,10.6c-3.8-1-5.4-2.9-6.1-3.8h0Z"/>
        <path class="cls-1" d="M233,207.4h-8c-4.8,0-9.1-2.5-11.1-6.3-3.5-.6-6.6-1.7-9.2-3.5-2.4-1.6-3.8-3.4-4.6-4.6-2.7-4.2-2.7-9.2,0-13,2-2.8,5.3-4.7,9.3-5.4l-.4-3.1c0-.5,0-1,.4-1.4.3-.4.8-.6,1.4-.6h36.2c.5,0,1,.2,1.4.6s.5.9.4,1.4l-3.8,26.7h0c-.4,2.6-1.9,5-4.1,6.7-2.2,1.6-5,2.5-7.9,2.5h0ZM213,173l.4,2.9c0,.5,0,1-.4,1.4-.3.4-.8.6-1.2.7-3.9.4-6.9,1.8-8.6,4.2-1.9,2.6-1.9,6,0,9,1.1,1.6,4.4,5.6,12.2,6.6.7,0,1.2.5,1.5,1.1,1.1,3,4.4,5,8.1,5h8c4.2,0,7.9-2.6,8.5-6.1l3.5-24.6h-32ZM214,194.7c-.1,0-.3,0-.4,0-4.3-1.1-6.3-3.4-7.1-4.6h0c-1.4-2.2-1.5-4.8-.1-6.7,1.2-1.6,3.3-2.6,6-2.8.9,0,1.8.6,1.9,1.5l1.5,10.6c0,.6-.1,1.2-.6,1.6-.3.3-.8.5-1.2.5h0ZM210.9,184.4c-.8.2-1.4.6-1.7,1-.5.7-.4,1.7.2,2.7h0c.3.4.9,1.3,2.3,2l-.8-5.7h0Z"/>
      </g>
      <g>
        <path class="cls-1" d="M222.6,165.9c-.5,0-.9-.2-1.2-.7-.4-.7-.2-1.5.5-1.9,0,0,0,0,.1,0,.4-.2.9-.5.9-1.7s-.7-1.3-1.4-2c-1-1.1-2.1-2.3-2.1-3.9s.4-3.1,2.4-4.2h0c.7-.4,1.5-.2,1.9.5.4.7.2,1.5-.5,1.9,0,0,0,0-.1,0-.3.2-.9.5-.9,1.7s.7,1.3,1.4,2c1,1.1,2.1,2.3,2.1,3.9,0,2.9-1.8,3.8-2.3,4.1,0,0,0,0,0,0-.2.1-.5.2-.7.2h0Z"/>
        <path class="cls-1" d="M228.9,165.9c-.5,0-.9-.2-1.2-.7-.4-.7-.2-1.5.5-1.9,0,0,0,0,.1,0,.4-.2.9-.5.9-1.7s-.7-1.3-1.4-2c-1-1.1-2.1-2.3-2.1-3.9s.4-3.1,2.4-4.2h0c.7-.4,1.5-.2,1.9.5.4.7.2,1.5-.5,1.9,0,0,0,0-.1,0-.3.2-.9.5-.9,1.7s.7,1.3,1.4,2c1,1.1,2.1,2.3,2.1,3.9,0,2.9-1.8,3.8-2.3,4.1,0,0,0,0,0,0-.2.1-.5.2-.7.2h0Z"/>
        <path class="cls-1" d="M235.4,165.9c-.5,0-.9-.2-1.2-.7-.4-.7-.2-1.5.5-1.9,0,0,0,0,.1,0,.4-.2.9-.5.9-1.7s-.7-1.3-1.4-2c-1-1.1-2.1-2.3-2.1-3.9s.4-3.1,2.4-4.2h0c.7-.4,1.5-.2,1.9.5.4.7.2,1.5-.5,1.9,0,0,0,0-.1,0-.3.2-.9.5-.9,1.7s.7,1.3,1.4,2c1,1.1,2.1,2.3,2.1,3.9,0,2.9-1.8,3.8-2.3,4.1,0,0,0,0,0,0-.2.1-.5.2-.7.2h0Z"/>
      </g>
    </g>
    <g>
      <g>
        <path class="cls-2" d="M37.2,188.8s-1-17.3-4.9-29.2c-4-11.9-13.5-23.8-26.4-31,22.3,30.1,31.3,60.2,31.3,60.2h0Z"/>
        <path class="cls-2" d="M37.2,190c-.5,0-1-.3-1.2-.9,0,0-2.3-7.6-7.3-18.7-4.6-10.2-12.4-25.7-23.9-41.1-.3-.5-.3-1.1,0-1.5.4-.4,1-.5,1.5-.2,12.6,7.1,22.6,19,26.9,31.7,2.1,6.2,3.3,13.9,4,19.3.7,5.8,1,10.2,1,10.2,0,.6-.4,1.1-1,1.2,0,0-.1,0-.2,0h0ZM10.5,133c9.6,13.9,16.4,27.3,20.5,36.5,1.6,3.7,3,7,4.1,9.8-.7-5.8-2-13.3-4-19.2-3.5-10.4-11-20.1-20.6-27.1h0Z"/>
      </g>
      <g>
        <path class="cls-2" d="M37,188.7s1.1-23.5,3.6-35.8c2.5-12.3,16.4-25.7,20.1-27.8-13.6,20.4-23.7,63.6-23.7,63.6h0Z"/>
        <path class="cls-2" d="M37,189.9s-.1,0-.2,0c-.6,0-1.1-.6-1-1.2,0-.2,1.1-23.8,3.6-36,1.4-6.9,6.1-13.7,9.9-18.2,4.2-5.1,8.8-9.2,10.8-10.3.5-.3,1.1-.2,1.5.2s.4,1,.1,1.5c-13.3,19.9-23.4,62.7-23.5,63.2-.1.6-.6.9-1.2.9h0ZM56,130.6c-1.5,1.5-3.2,3.3-4.9,5.4-6.4,7.8-8.6,13.6-9.4,17.2-1.3,6.3-2.2,15.6-2.8,23.1,1-3.6,2.2-7.7,3.6-12.1,4.4-14,8.9-25.3,13.4-33.6h0Z"/>
      </g>
      <g>
        <path class="cls-2" d="M36.4,174.8s1.3-27.3-2.5-37.2c-4.4-11.4-14-24.3-14-24.3,0,0,4,20.8,5.1,26.5,2.7,13.4,11.3,35,11.3,35h0Z"/>
        <path class="cls-2" d="M36.4,176c-.5,0-.9-.3-1.1-.8,0-.2-8.6-21.9-11.4-35.2-1.1-5.6-5.1-26.3-5.1-26.5-.1-.6.2-1.1.7-1.3s1.1,0,1.5.4c.4.5,9.7,13.2,14.1,24.6,3.8,10,2.6,36.5,2.5,37.6,0,.6-.5,1-1,1.1,0,0-.1,0-.2,0h0ZM22.2,118.6c1.3,6.6,3.3,17.1,4,20.9,1.8,9,6.4,21.9,9.1,29.2.2-8.5,0-23.9-2.6-30.7-2.7-7-7.4-14.7-10.6-19.4Z"/>
      </g>
      <g>
        <polygon class="cls-4" points="51 199.6 22 199.6 17.4 179.8 55.6 179.8 51 199.6"/>
        <path class="cls-1" d="M51,201.4h-29.1c-.8,0-1.6-.6-1.8-1.4l-4.5-19.8c-.1-.5,0-1.1.3-1.5.3-.4.9-.7,1.4-.7h38.1c.5,0,1.1.2,1.4.7s.5,1,.3,1.5l-4.5,19.8c-.2.8-.9,1.4-1.8,1.4ZM23.4,197.8h26.2l3.7-16.2H19.7s3.7,16.2,3.7,16.2Z"/>
      </g>
    </g>
  </g>
  <g>
    <path class="cls-3" d="M184,56.3c-.1,0-.3,0-.4,0-1-.2-1.6-1.2-1.3-2.2l2.9-12.2c.2-1,1.2-1.6,2.2-1.3s1.6,1.2,1.3,2.2l-2.9,12.2c-.2.8-.9,1.4-1.8,1.4Z"/>
    <path class="cls-3" d="M190.7,59c-.3,0-.6,0-.9-.3-.9-.5-1.1-1.6-.6-2.5l6.5-10.7c.5-.8,1.6-1.1,2.5-.6s1.1,1.6.6,2.5l-6.5,10.7c-.3.6-.9.9-1.5.9h0Z"/>
    <path class="cls-3" d="M196.2,63.7c-.5,0-1-.2-1.4-.6-.6-.8-.6-1.9.2-2.5l9.5-8.2c.8-.7,1.9-.6,2.5.2s.6,1.9-.2,2.5l-9.5,8.2c-.3.3-.8.4-1.2.4Z"/>
    <path class="cls-3" d="M200,69.9c-.7,0-1.4-.4-1.7-1.1-.4-.9,0-2,1-2.4l11.6-4.8c.9-.4,2,0,2.4,1,.4.9,0,2-1,2.4l-11.6,4.8c-.2,0-.5.1-.7.1h0Z"/>
  </g>
</svg>