<?xml version="1.0" encoding="UTF-8"?>
<svg id="a" xmlns="http://www.w3.org/2000/svg" version="1.1" xmlns:xlink="http://www.w3.org/1999/xlink" viewBox="0 0 186.1 190">
  <defs>
    <style>
      .cls-1 {
        fill: #1e1210;
      }

      .cls-1, .cls-2, .cls-3, .cls-4, .cls-5 {
        stroke-width: 0px;
      }

      .cls-2 {
        fill: none;
      }

      .cls-3 {
        fill: #39b2bf;
      }

      .cls-4 {
        fill: #d5eaff;
      }

      .cls-6 {
        clip-path: url(#clippath);
      }

      .cls-5 {
        fill: #fff;
      }
    </style>
    <clipPath id="clippath">
      <path class="cls-2" d="M148.4,50.3h.1c6.8-.1,8.5,6.3,7.4,12-1.5,7.6-7.2,10.4-10.4,9.3-3,12.1-9.2,16.3-15.3,18.6.7,5.2.3,10.3,6.6,15.5,3.2,2.7,11.9,4.4,17.4,6.2,8.6,3,15.9,7.5,18.8,14.7,2.6,6.5,2.6,35.5,2.2,40.8-.2,2.5-1.4,4.8-3.5,6.2-11.7,8.1-43.9,10.3-55.9,10.3s-44.2-2.2-55.9-10.3c-2-1.4-3.3-3.7-3.5-6.2-.4-5.2-.3-34.3,2.2-40.8,2.9-7.2,10.2-11.7,18.8-14.7,5.4-1.9,14.2-3.6,17.3-6.2,6.3-5.3,5.9-10.4,6.6-15.5-6.1-2.3-12.2-6.5-15.3-18.6h0c-3.3,1.1-9-1.7-10.4-9.3-1.1-5.8.6-12.2,7.4-12h.1C71.5.3,115.8,6.3,115.8,6.3c0,0,44.3-6,32.7,44h0Z"/>
    </clipPath>
  </defs>
  <g>
    <g>
      <path class="cls-3" d="M115.8,95.2s-32,.2-42.8-10.5l3.7-27.7C61.8-1.1,115.8,1.8,115.8,1.8c0,0,54-2.9,39.2,55.2l3.7,27.6c-10.8,10.7-42.8,10.5-42.8,10.5h0Z"/>
      <path class="cls-1" d="M116,97.1h-.2c-1.5,0-32.9,0-44.1-11.1-.4-.4-.6-1-.5-1.5l3.6-27.3c-4.7-18.6-2.9-33.1,5.3-43.1,5.2-6.3,13-10.7,22.7-12.8C109.5-.2,114.9,0,115.8,0c.8,0,6.2-.2,13,1.3,9.7,2.1,17.5,6.5,22.7,12.8,8.2,10,9.9,24.5,5.3,43.1l3.6,27.3c0,.6-.1,1.1-.5,1.5-10.9,10.8-40.8,11.1-43.9,11.1h0ZM74.9,84c4.3,3.8,12.5,6.6,23.8,8.2,9.1,1.3,17,1.2,17.1,1.2h0c0,0,8,0,17.1-1.2,11.2-1.6,19.4-4.4,23.8-8.2l-3.6-26.7c0-.2,0-.5,0-.7,4.5-17.6,3-31.1-4.5-40.2-11.3-13.8-32.6-12.8-32.8-12.8h-.2c0,0-5.5-.3-12.3,1.2-6.2,1.3-14.7,4.4-20.6,11.6-7.4,9.1-8.9,22.6-4.4,40.2,0,.2,0,.5,0,.7l-3.6,26.7h0,0Z"/>
    </g>
    <g class="cls-6">
      <path class="cls-5" d="M148.4,50.3h.1c6.8-.1,8.5,6.3,7.4,12-1.5,7.6-7.2,10.4-10.4,9.3-3,12.1-9.2,16.3-15.3,18.6h0c.7,5.2.3,10.3,6.6,15.5,3.2,2.7,11.9,4.4,17.4,6.2,8.6,3,15.9,7.5,18.8,14.7,2.6,6.5,2.6,35.5,2.2,40.8-.2,2.5-1.4,4.8-3.5,6.2-11.7,8.1-43.9,10.3-55.9,10.3s-44.2-2.2-55.9-10.3c-2-1.4-3.3-3.7-3.5-6.2-.4-5.2-.3-34.3,2.2-40.8,2.9-7.2,10.2-11.7,18.8-14.7,5.4-1.9,14.2-3.6,17.3-6.2,6.3-5.3,5.9-10.4,6.6-15.6-6.1-2.3-12.2-6.5-15.3-18.6h0c-3.3,1.1-9-1.7-10.4-9.3-1.1-5.8.6-12.2,7.4-12h.1C74.2.6,115.8,1.8,115.8,1.8c0,0,41.2-1.7,32.7,48.4h0Z"/>
    </g>
    <path class="cls-4" d="M95.4,25l-3.3-2.1c1.1.7,2.2,1.5,3.3,2.1Z"/>
    <path class="cls-3" d="M115.8,5.1S69.3.3,84,54l3.5-15.8s1.8-3.9,8.6-12.8l-.8-.5c-1.1-.7-2.2-1.4-3.3-2.1l3.3,2.1c20.9,12.6,48.5,13.2,48.5,13.2l3.5,15.8C162.2.3,115.8,5.1,115.8,5.1Z"/>
    <path class="cls-1" d="M101.3,92.1c-.2,0-.4,0-.6-.1-3.9-1.5-6.9-3.4-9.4-6.1-3.2-3.4-5.4-7.8-6.9-13.6,0,0,0,0,0-.1-.2-.6-.3-1.1-.4-1.5-.2-1,.4-1.9,1.4-2.2,1-.2,1.9.4,2.2,1.4,0,.4.2.8.3,1.3,0,0,0,0,0,0,3,11.7,8.9,15.3,14.2,17.3.9.3,1.4,1.4,1.1,2.3-.3.7-1,1.2-1.7,1.2h0Z"/>
    <path class="cls-1" d="M84.6,73.7c-1.5,0-3-.4-4.5-1.3-1.8-1.1-5.1-3.8-6.3-9.7-.9-4.5-.1-8.6,2.1-11.2,1.7-2,4.1-3,7.1-2.9,1,0,1.8.9,1.8,1.9,0,1-.9,1.8-1.9,1.8-1.9,0-3.3.5-4.3,1.7-1.4,1.7-1.9,4.8-1.3,8.2.4,1.9,1.5,5.5,4.6,7.3,1.2.7,2.6,1,3.6.7.9-.3,2,.2,2.3,1.2s-.2,2-1.2,2.3c-.6.2-1.3.3-2,.3h0Z"/>
    <path class="cls-1" d="M130.2,92.1c-.7,0-1.4-.4-1.7-1.2-.4-.9.1-2,1.1-2.3,3.4-1.3,6-2.9,8.1-5.2,2.8-2.9,4.8-6.9,6.1-12.2.1-.5.2-1,.3-1.4.2-1,1.2-1.6,2.1-1.4s1.6,1.2,1.4,2.2c-.1.5-.2,1-.4,1.6-1.5,5.9-3.7,10.4-6.9,13.8-2.5,2.7-5.5,4.6-9.5,6.1-.2,0-.4.1-.6.1h0Z"/>
    <path class="cls-1" d="M146.9,73.7c-.7,0-1.3,0-2-.3-.8-.2-1.3-.9-1.3-1.7s.8-1.8,1.8-1.8h0c.2,0,.4,0,.6,0,.9.3,2.3,0,3.6-.7,1.3-.8,3.7-2.8,4.6-7.3.6-3.3.2-6.5-1.3-8.2-1-1.2-2.4-1.7-4.3-1.7-1,0-1.8-.8-1.9-1.8,0-1,.8-1.8,1.8-1.9,3,0,5.4.9,7.1,2.9,2.2,2.6,2.9,6.7,2.1,11.2-1.1,5.9-4.4,8.6-6.3,9.7-1.5.9-3,1.3-4.5,1.3h0Z"/>
    <path class="cls-1" d="M84,55.9c-.8,0-1.5-.5-1.7-1.3-.4-1.3-.7-2.6-1-3.8-.2-1,.4-2,1.4-2.2s1.9.4,2.2,1.4c.3,1.2.6,2.4.9,3.7.3,1-.3,2-1.3,2.2-.2,0-.3,0-.5,0h0Z"/>
    <path class="cls-1" d="M147.5,55.9c-.2,0-.3,0-.5,0-1-.3-1.5-1.3-1.3-2.2.4-1.3.7-2.5.9-3.7.2-1,1.2-1.6,2.2-1.4s1.6,1.2,1.4,2.2c-.3,1.2-.6,2.5-1,3.8-.2.8-.9,1.3-1.7,1.3h0Z"/>
    <path class="cls-1" d="M115.8,185.8c-6.1,0-17.2-.6-28.3-2.1-13.7-1.9-23.3-4.8-28.6-8.5-2.5-1.7-4-4.5-4.3-7.5-.3-4.6-.5-34.4,2.4-41.6,2.8-6.9,9.2-12,19.9-15.7,1.7-.6,3.7-1.2,5.9-1.8,4.2-1.2,9-2.6,10.9-4.2,4.8-4.1,5.2-7.9,5.7-12.2,0-.7.2-1.4.2-2.2.1-1,1-1.7,2-1.6,1,.1,1.7,1,1.6,2,0,.7-.2,1.4-.2,2.1-.5,4.5-1,9.6-7,14.6-2.5,2.1-7.5,3.5-12.3,4.9-2.1.6-4,1.1-5.7,1.7-9.6,3.3-15.4,7.8-17.7,13.7-2.4,5.9-2.5,34.2-2.1,40,.1,2,1.1,3.7,2.7,4.8,4.8,3.3,14.2,6.1,27.1,7.9,10.9,1.6,21.8,2.1,27.8,2.1,13.2,0,43.9-2.4,54.8-10,1.6-1.1,2.6-2.9,2.7-4.8.4-5.7.2-34.1-2.1-39.9-2.3-5.8-8.1-10.3-17.7-13.7-1.6-.6-3.6-1.1-5.6-1.7-4.8-1.4-9.8-2.8-12.3-4.9-6-5-6.5-10.1-7-14.6,0-.7-.1-1.4-.2-2.1-.1-1,.6-1.9,1.6-2s1.9.6,2,1.6c.1.7.2,1.4.2,2.2.5,4.4.9,8.2,5.7,12.2,1.9,1.6,6.7,3,10.9,4.2,2.1.6,4.1,1.2,5.9,1.8,10.6,3.7,17.1,8.9,19.9,15.7,2.9,7.2,2.7,37,2.4,41.6-.2,3.1-1.8,5.8-4.3,7.5-5.3,3.7-15,6.6-28.6,8.5-11.1,1.6-22.2,2.1-28.3,2.1h0Z"/>
    <path class="cls-1" d="M115.8,118.7c-16.8,0-19.8-2.7-20.8-3.5h0c-.8-.7-.8-1.8-.2-2.6s1.8-.8,2.6-.2h0c2.8,2.5,14.8,2.7,18.4,2.7s15.6-.2,18.4-2.6h0c.8-.7,1.9-.6,2.6.1.6.8.6,1.9-.2,2.6h0c-.7.7-1.9,1.5-4.8,2.2-3.7.9-9.1,1.4-16,1.4Z"/>
    <path class="cls-1" d="M101.4,92.1c-.2,0-.4,0-.6-.1-4.1-1.5-7.2-3.6-9.8-6.5-3.3-3.6-5.6-8.5-7-14.9-.2-1,.4-1.9,1.4-2.2,1-.2,1.9.4,2.2,1.4,2.9,12.8,9,16.7,14.5,18.8.9.3,1.4,1.4,1.1,2.3-.3.7-1,1.2-1.7,1.2h0Z"/>
    <path class="cls-1" d="M130.2,92.1c-.7,0-1.4-.4-1.7-1.2-.4-.9.1-2,1.1-2.3,10.1-3.8,13-11.6,14.5-18.8.2-1,1.2-1.6,2.1-1.4s1.6,1.2,1.4,2.2c-1.4,6.4-3.6,11.3-6.9,14.9-2.6,2.8-5.7,4.9-9.9,6.4-.2,0-.4.1-.6.1h0Z"/>
    <path class="cls-3" d="M115.8,184c-13.4,0-51.2-2.8-58-13.5-.5-7-2.2-36.1.9-43.7,2.9-7.2,10.2-11.7,18.8-14.7,5.4-1.9,14.2-3.6,17.3-6.2l21,37,21-37c3.2,2.7,11.9,4.4,17.4,6.2,8.6,3,15.9,7.5,18.8,14.7,3.1,7.6,1.4,36.7.9,43.7-6.8,10.7-44.6,13.5-58,13.5h0Z"/>
    <path class="cls-1" d="M115.8,144.6c-.7,0-1.2-.4-1.6-.9l-21-37c-.5-.9-.2-2,.7-2.5.9-.5,2-.2,2.5.7l19.4,34.2,19.4-34.2c.5-.9,1.6-1.2,2.5-.7s1.2,1.6.7,2.5l-21,37c-.3.6-.9.9-1.6.9h0Z"/>
    <path class="cls-1" d="M107.9,150.5c-.3,0-.6-.1-.9-.3l-22.8-18.7c-.3-.3-.5-.7-.5-1.1s.2-.8.5-1.1l5.4-4.3-5.1-4.7c-.3-.3-.5-.7-.5-1.1s.2-.8.5-1.1l6.8-5.5c.6-.5,1.5-.4,2,.2.5.6.4,1.5-.2,2l-5.5,4.5,5.1,4.7c.3.3.5.7.5,1.1,0,.4-.2.8-.5,1.1l-5.3,4.3,21.5,17.6c.6.5.7,1.4.2,2-.3.3-.7.5-1.1.5h0Z"/>
    <path class="cls-1" d="M123.7,150.5c-.4,0-.8-.2-1.1-.5-.5-.6-.4-1.5.2-2l21.5-17.6-5.3-4.3c-.3-.3-.5-.6-.5-1.1,0-.4.1-.8.5-1.1l5.1-4.7-5.5-4.5c-.6-.5-.7-1.4-.2-2s1.4-.7,2-.2l6.8,5.5c.3.3.5.6.5,1.1s-.2.8-.5,1.1l-5.1,4.7,5.4,4.3c.3.3.5.7.5,1.1s-.2.8-.5,1.1l-22.8,18.7c-.3.2-.6.3-.9.3h0Z"/>
    <path class="cls-1" d="M147.5,55.9h0c-.8,0-1.5-.6-1.7-1.4l-3.2-14.4c-2.7-.1-9-.6-16.8-2.2-9.6-1.9-23.3-5.7-34.5-13.5-.8-.6-1-1.7-.5-2.5s1.7-1,2.5-.5c20.5,14.2,50.5,15.1,50.8,15.1.8,0,1.6.6,1.7,1.4l2,9c.4-.3,1-.5,1.5-.4,1,.2,1.6,1.2,1.4,2.1-.4,1.9-.9,3.9-1.4,5.9-.2.8-.9,1.3-1.7,1.3h0Z"/>
    <path class="cls-1" d="M84,55.9c-.8,0-1.5-.5-1.7-1.3-.5-1.8-.9-3.7-1.3-5.4-.2-1,.4-1.9,1.4-2.2.5,0,1,0,1.3.2l2.1-9.3c0-.1,0-.2.1-.4,0-.2,2-4.2,8.8-13.1.6-.8,1.7-1,2.5-.3s.9,1.7.3,2.5c-5.8,7.5-7.9,11.5-8.3,12.3l-3.5,15.5c-.2.8-.9,1.4-1.7,1.4h0,0Z"/>
    <path class="cls-1" d="M142.6,32c-.3,0-.6-.1-.9-.3-7.9-7.7-22.5-15.7-33.8-18.6-.7-.2-1-.8-.9-1.5.2-.6.8-1,1.5-.9,11.7,3,26.8,11.2,34.9,19.2.5.5.5,1.2,0,1.7-.2.2-.6.4-.9.4h0Z"/>
    <path class="cls-1" d="M115.8,185.8c-6.1,0-17.2-.6-28.3-2.1-13.7-1.9-23.3-4.8-28.6-8.5-2.5-1.7-4-4.5-4.3-7.5-.3-4.6-.5-34.4,2.4-41.6,2.8-6.9,9.2-12,19.9-15.7,1.7-.6,3.7-1.2,5.9-1.8,4.2-1.2,9-2.6,10.9-4.2,4.8-4.1,5.2-7.9,5.7-12.2,0-.7.2-1.4.2-2.2.1-1,1-1.7,2-1.6,1,.1,1.7,1,1.6,2,0,.7-.2,1.4-.2,2.1-.5,4.5-1,9.6-7,14.6-2.5,2.1-7.5,3.5-12.3,4.9-2.1.6-4,1.1-5.7,1.7-9.6,3.3-15.4,7.8-17.7,13.7-2.4,5.9-2.5,34.2-2.1,40,.1,2,1.1,3.7,2.7,4.8,4.8,3.3,14.2,6.1,27.1,7.9,10.9,1.6,21.8,2.1,27.8,2.1,13.2,0,43.9-2.4,54.8-10,1.6-1.1,2.6-2.9,2.7-4.8.4-5.7.2-34.1-2.1-39.9-2.3-5.8-8.1-10.3-17.7-13.7-1.6-.6-3.6-1.1-5.6-1.7-4.8-1.4-9.8-2.8-12.3-4.9-6-5-6.5-10.1-7-14.6,0-.7-.1-1.4-.2-2.1-.1-1,.6-1.9,1.6-2s1.9.6,2,1.6c.1.7.2,1.4.2,2.2.5,4.4.9,8.2,5.7,12.2,1.9,1.6,6.7,3,10.9,4.2,2.1.6,4.1,1.2,5.9,1.8,10.6,3.7,17.1,8.9,19.9,15.7,2.9,7.2,2.7,37,2.4,41.6-.2,3.1-1.8,5.8-4.3,7.5-5.3,3.7-15,6.6-28.6,8.5-11.1,1.6-22.2,2.1-28.3,2.1h0Z"/>
    <g>
      <path class="cls-1" d="M115.8,67c-.4,0-.8-.4-.8-.8v-1c0-.4.4-.8.8-.8s.8.4.8.8v1c0,.4-.4.8-.8.8Z"/>
      <ellipse class="cls-1" cx="103.2" cy="53.9" rx="2.9" ry="3.2"/>
      <path class="cls-2" d="M92.6,51.8l.8,7.2c.2,2.2,2,3.8,4.2,3.8h10.8c2.2,0,4-1.6,4.2-3.8l.8-7.2h5l.8,7.2c.2,2.2,2,3.8,4.2,3.8h10.8c2.2,0,4-1.6,4.2-3.8l.8-7.2"/>
      <ellipse class="cls-1" cx="128.3" cy="53.9" rx="2.9" ry="3.2"/>
      <path class="cls-1" d="M117.1,78.6h-2.7c-.8,0-1.4-.6-1.4-1.4s.6-1.4,1.4-1.4h2.7c.8,0,1.4.6,1.4,1.4s-.6,1.4-1.4,1.4Z"/>
      <path class="cls-1" d="M132.5,47.7h0c-2.3-.1-5.6-1.1-7.7-3-.6-.5-.6-1.4,0-2,.5-.6,1.4-.6,2,0,1.4,1.2,3.8,2.2,6,2.3.8,0,1.4.7,1.3,1.5,0,.8-.7,1.3-1.4,1.3h0Z"/>
      <path class="cls-1" d="M99,47.7c-.7,0-1.4-.6-1.4-1.3,0-.8.5-1.4,1.3-1.5,2.2-.1,4.7-1.1,6-2.3.6-.5,1.5-.5,2,0,.5.6.5,1.5,0,2-2.1,1.9-5.4,2.9-7.7,3h0Z"/>
    </g>
  </g>
  <path class="cls-1" d="M59.9,52.4c0,0-.2,0-.3,0-1-.2-1.7-1.1-1.5-2.1.1-.7.2-1.4.3-2-.3.1-.6.2-1,.3-2.5.8-5.4.9-7.9.2-1.4-.4-2.6-1-3.6-1.8-2.3,0-4.6-.6-6.7-1.7-5.2-2.8-8.2-9-7.1-14.8.3-1.4.8-2.7,1.5-3.9-.9.4-1.9,0-2.3-.9-1.4-3-1.7-6.6-.8-10,.8-3.4,2.7-6.4,5.2-8.6,4.9-4.2,12.3-5.6,18.8-3.5,3.5,1.1,6.7,3.3,9,6.2,2.5,3.1,3.7,6.7,3.5,10.3,0,1.6-.5,3.2-1.1,4.6,1.4,2.4,2.3,5.1,2.8,7.8.9,5.4-1.7,10.6-6.6,13.8,0,1.7-.2,3.3-.4,4.5-.2.9-.9,1.5-1.8,1.5h0s0,0,0,0ZM52.5,45.6c1.4,0,2.8,0,3.9-.5.7-.2,1.3-.5,2-.8-.1-1-.3-2-.7-2.9-.6.8-1.3,1.6-2.1,2.2-1,.8-2,1.5-3.1,2h0ZM46.6,38.1c-.4,1.3-.4,2.8,0,4.1.2.4.4.8.6,1.1,2.2-.2,4.2-1.1,5.9-2.5,1-.8,1.8-1.9,2.5-3,0,0,0,0,0,0-1.9,2-4.8,2.3-7.8,1-.4-.2-.9-.4-1.2-.7h0ZM38,26.8c-1.1,1.3-1.9,2.8-2.2,4.5-.8,4.2,1.5,8.8,5.2,10.9.7.4,1.4.7,2.2.9-.8-2.5-.6-5.2.6-7.4-.3-.3-.6-.7-.9-1h0c-1.9-2.4-4-4.8-4.8-7.9h0ZM59.9,37.5c.9,1.5,1.4,3.1,1.8,4.6,2.4-2.2,4-5.3,3.4-9-.3-1.7-.8-3.3-1.5-4.9-.8.9-1.7,1.7-2.7,2.4.2,2.3-.2,4.6-1,6.7ZM49.1,35.3c0,0,.2,0,.3.2,1.7.8,2.7.5,3.3,0-1.1-.5-2-.6-2.6-.5-.4,0-.8.2-1.1.3h0ZM43.1,29.2c.7,1,1.5,2,2.4,3h.1c.2.3.3.5.5.7.4-.3.8-.6,1.3-.8-1.6-.7-3.1-1.7-4.3-2.9h0ZM50.8,25.4c-.5.9.1,2.4,1.2,3,.4.2,1,.4,1.5.5-.6-1.4-1.6-2.6-2.8-3.5ZM43.5,23.5c.2.5.4.9.7,1.4.8,1.2,1.8,2.2,3,3-.4-1.4-.3-2.9.3-4.1-.9-.3-1.9-.4-2.9-.4-.4,0-.8,0-1.1.1h0ZM52.8,20.8c1.1,0,2.1.2,3,.7,1.8.9,3.2,2.6,4.1,4.9.6-.6,1.1-1.2,1.5-1.9-1.7-2.3-3.8-4.2-6.3-5.6-2.7-1.5-5.8-2-8.4-1.3-1.4.4-2.7,1.2-3.6,2.2.5,0,.9-.1,1.4-.1,2.2-.1,4.3.4,6.3,1.4.2,0,.4-.1.5-.1.5-.1,1-.2,1.5-.2h0ZM48.1,6.3c-3.8,0-7.4,1.2-10.1,3.6-4.1,3.6-5.6,9.8-3.5,14.4.1.2.2.5.2.8.9-1.2,2-2.2,3.2-3,.2-1,.6-1.9,1.1-2.7,0-2.4.6-4.7,1.8-6.8,1.7-2.9,4.5-5.2,7.7-6.2h-.5,0ZM49.3,13.7c2.5,0,5.2.7,7.6,2.1,2.3,1.3,4.3,2.9,6,4.9.2-1,.2-2.1,0-3.1-.8-4.5-5-8.2-9.6-8.3-3.7-.1-7.4,1.9-9.2,5.1-.1.2-.3.5-.4.7.7-.3,1.4-.6,2.1-.8,1.1-.3,2.3-.5,3.5-.5h0Z"/>
  <path class="cls-4" d="M181.3,40.2c-5,3.1-16.7,4.1-16.7,4.1,0,0,4.1-11,8.4-15,6.6-6.1,10.8-1.2,11.6-.1.8,1,4.4,6.4-3.3,11.1h0Z"/>
  <path class="cls-4" d="M177.2,60.1c-4.6-1-11.9-6.9-11.9-6.9,0,0,8.5-4.1,13.1-4,7.2.1,6.9,5.2,6.7,6.3-.1,1-.9,6.1-8,4.6h0Z"/>
  <g>
    <g>
      <path class="cls-5" d="M36.3,181.3l-1.3-5.2h95.1l-1.3,5.2c-.7,4-4.1,6.9-8.1,6.9H44.4c-4,0-7.5-2.9-8.1-6.9h0Z"/>
      <path class="cls-1" d="M120.6,190H44.4c-4.9,0-9-3.5-9.9-8.3l-1.3-5.2c-.1-.5,0-1.1.3-1.6.3-.4.9-.7,1.4-.7h95.1c.6,0,1.1.3,1.4.7s.5,1,.3,1.6l-1.3,5.2c-.9,4.8-5,8.3-9.9,8.3h0ZM37.3,177.9l.8,3s0,0,0,.1c.5,3.1,3.2,5.4,6.3,5.4h76.2c3.1,0,5.8-2.2,6.3-5.4,0,0,0-.1,0-.1l.8-3H37.3Z"/>
    </g>
    <g>
      <path class="cls-5" d="M11.9,179.9L1.8,129.2c0-4.6,3.7-8.2,8.2-8.2h78.6c4.6,0,8.2,3.7,8.2,8.2l10.1,50.7c0,4.6-3.7,8.2-8.2,8.2H20.1c-4.6,0-8.2-3.7-8.2-8.2h0Z"/>
      <path class="cls-1" d="M98.7,190H20.1c-5.5,0-10-4.4-10.1-9.9L0,129.6c0-.1,0-.2,0-.4,0-5.6,4.5-10.1,10.1-10.1h78.6c5.5,0,10,4.4,10.1,9.9l10,50.6c0,.1,0,.2,0,.4,0,5.6-4.5,10.1-10.1,10.1h0ZM3.6,129l10,50.6c0,.1,0,.2,0,.4,0,3.6,2.9,6.4,6.4,6.4h78.6c3.5,0,6.3-2.8,6.4-6.3l-10-50.6c0-.1,0-.2,0-.4,0-3.6-2.9-6.4-6.4-6.4H10.1c-3.5,0-6.3,2.8-6.4,6.3h0Z"/>
    </g>
    <circle class="cls-3" cx="54.4" cy="154.6" r="5.9"/>
  </g>
  <g>
    <path class="cls-5" d="M157.5,157.3c-7-1.9-14.6-3.8-19.2-3.2-.5,0-1.8,1.1-3.4,2.6-.6-.8-3.7.9-4.7,1.5l-7.6,4c-1.1.6-1.8,1.6-1.9,2.8-.1,1.4.6,2.8,1.8,3.5.2.1.5.2.8.3-.3.4-.5.6-.5.6-.8.9-1.1,2.1-.8,3.3.4,1.4,1.6,2.4,3,2.6,1.2.2,2.4-.3,3.2-1.2l2-2.2c-.7.9-1,2.1-.7,3.2.4,1.4,1.6,2.4,3,2.6,1.2.2,2.4-.3,3.2-1.2l1.5-1.7h0c-.7.9-.9,2-.6,3.1.4,1.4,1.6,2.4,3,2.6,1.2.2,2.4-.3,3.2-1.2l1.9-2.1c-.5.8-.7,1.9-.4,2.8.4,1.4,1.6,2.4,3,2.6,1.2.2,2.4-.3,3.2-1.2l1.8-2s1.4-1.6,3.2-3.6c16.2,4.5,26.8-11.9,2.1-18.7h0Z"/>
    <g>
      <path class="cls-1" d="M133,179.6c-.2,0-.5,0-.8,0-2.1-.3-3.9-1.9-4.5-3.9-.5-1.7,0-3.5,1.1-4.9h0c0,0,0-.1,0-.1l8-9.1c.7-.8,1.8-.8,2.6-.2.8.7.8,1.8.2,2.6l-1.1,1.3-6.9,7.9c-.4.4-.5,1-.4,1.6.2.7.8,1.2,1.5,1.3.6,0,1.2-.1,1.6-.6l9.9-11.3c.7-.8,1.8-.8,2.6-.2.8.7.8,1.8.2,2.6l-9.9,11.3c-1,1.2-2.5,1.8-4.1,1.8h0Z"/>
      <path class="cls-1" d="M147.8,184.7c-.2,0-.5,0-.8,0-2.1-.3-3.9-1.9-4.5-3.9-.4-1.4-.2-3,.6-4.3.1-.2.3-.5.5-.7,0,0,0,0,0,0l7.5-8.1c.7-.7,1.8-.8,2.6-.1.7.7.8,1.8.1,2.6l-7.4,8.1c0,0-.1.1-.1.2,0,0,0,0,0,0-.3.4-.3.9-.2,1.4.2.7.8,1.2,1.5,1.3.6,0,1.2-.1,1.6-.6l1.8-2s1.4-1.6,3.2-3.6c.5-.5,1.2-.7,1.8-.6,7.3,2,13.3-.6,14.3-4.3.9-3.1-2.1-7.9-13.2-10.9-6.7-1.9-14.1-3.7-18.3-3.1-.2.1-.9.6-2.5,2.1-3.9,3.6-9.8,10.1-11.4,12-.3.3-.4.5-.5.6-.4.4-.5,1.1-.4,1.6.2.7.8,1.2,1.5,1.3.6,0,1.2-.1,1.6-.6l8.9-10.1c.7-.8,1.8-.8,2.6-.2.8.7.8,1.8.2,2.6l-8.9,10.1c-1.2,1.4-3,2-4.8,1.8-2.2-.3-3.9-1.9-4.5-3.9-.5-1.8,0-3.6,1.2-5,0,0,0,0,0,0,0,0,.2-.2.5-.6,1.7-1.9,7.7-8.5,11.7-12.2,2.5-2.4,3.6-2.9,4.4-3,4.9-.7,12.4,1.1,19.9,3.2,13.7,3.8,17.1,10.4,15.7,15.4-.8,2.9-3.2,5.3-6.7,6.6-3.2,1.2-7.1,1.4-10.9.5-1.5,1.7-2.5,2.8-2.5,2.8l-1.8,2c-1,1.2-2.5,1.8-4.1,1.8h0s0,0,0,0ZM138.6,156h0Z"/>
      <path class="cls-1" d="M140.1,182.5c-.2,0-.5,0-.7,0-2.1-.3-3.9-1.9-4.5-3.9-.5-1.8,0-3.6,1.2-5l8.2-9.4c.7-.8,1.8-.8,2.6-.2.8.7.8,1.8.2,2.6l-8.2,9.4c-.4.4-.6,1.1-.4,1.6.2.7.8,1.2,1.5,1.3.6,0,1.2-.1,1.6-.6,0,0,0,0,0,0l9.7-10.6c.7-.7,1.8-.8,2.6-.1s.8,1.8.1,2.6l-9.7,10.6c-1,1.2-2.5,1.8-4.1,1.8h0Z"/>
      <path class="cls-1" d="M123.4,170.7c-.2,0-.3,0-.5,0h0c-.4-.1-.8-.3-1.2-.5-1.9-1-3-3.1-2.8-5.3.2-1.8,1.2-3.4,2.8-4.2l7.8-4.1c2.2-1.2,5.3-2.8,6.8-.9.6.8.5,1.9-.3,2.5-.6.4-1.3.5-1.9.2-.4.1-1.2.4-2.9,1.3h-.2c0,.1-7.6,4.1-7.6,4.1-.5.3-.9.8-.9,1.4,0,.7.3,1.4.9,1.7.1,0,.2.1.4.1h0c1,.2,1.5,1.2,1.3,2.2-.2.8-.9,1.4-1.8,1.4h0s0,0,0,0ZM133.5,157.8h0Z"/>
    </g>
  </g>
</svg>