<?xml version="1.0" encoding="UTF-8"?>
<svg id="a" data-name="レイヤー 1" xmlns="http://www.w3.org/2000/svg" viewBox="0 0 272 207.37">
  <defs>
    <style>
      .b {
        fill: #fff;
      }

      .c {
        fill: #d5eaff;
      }
    </style>
  </defs>
  <g>
    <g>
      <g>
        <path class="b" d="m47.19,80.63c0-5.5-4.08-10.6-8.48-10.6,4.4,0,8.48-5.11,8.48-10.6,0,5.5,4.08,10.6,8.48,10.6-4.4,0-8.48,5.11-8.48,10.6Z"/>
        <path class="c" d="m47.19,82.43c-.99,0-1.8-.81-1.8-1.8,0-4.44-3.31-8.8-6.68-8.8-.99,0-1.8-.81-1.8-1.8s.81-1.8,1.8-1.8c3.37,0,6.68-4.36,6.68-8.8,0-.99.81-1.8,1.8-1.8s1.8.81,1.8,1.8c0,4.44,3.31,8.8,6.68,8.8.99,0,1.8.81,1.8,1.8s-.81,1.8-1.8,1.8c-3.37,0-6.68,4.36-6.68,8.8,0,.99-.81,1.8-1.8,1.8Zm-3.39-12.4c1.33.99,2.5,2.33,3.39,3.88.89-1.56,2.05-2.9,3.39-3.88-1.33-.99-2.5-2.33-3.39-3.88-.89,1.56-2.05,2.9-3.39,3.88Z"/>
      </g>
      <g>
        <path class="b" d="m65.31,104.68c0-5.5-4.08-10.6-8.48-10.6,4.4,0,8.48-5.11,8.48-10.6,0,5.5,4.08,10.6,8.48,10.6-4.4,0-8.48,5.11-8.48,10.6Z"/>
        <path class="c" d="m65.31,106.48c-.99,0-1.8-.81-1.8-1.8,0-4.44-3.31-8.8-6.68-8.8-.99,0-1.8-.81-1.8-1.8s.81-1.8,1.8-1.8c3.37,0,6.68-4.36,6.68-8.8,0-.99.81-1.8,1.8-1.8s1.8.81,1.8,1.8c0,4.44,3.31,8.8,6.68,8.8.99,0,1.8.81,1.8,1.8s-.81,1.8-1.8,1.8c-3.37,0-6.68,4.36-6.68,8.8,0,.99-.81,1.8-1.8,1.8Zm-3.39-12.4c1.33.99,2.5,2.33,3.39,3.88.89-1.56,2.05-2.9,3.39-3.88-1.33-.99-2.5-2.33-3.39-3.88-.89,1.56-2.05,2.9-3.39,3.88Z"/>
      </g>
      <g>
        <path class="c" d="m43.31,109.36c0-3.54-2.63-6.82-5.46-6.82,2.83,0,5.46-3.28,5.46-6.82,0,3.54,2.63,6.82,5.46,6.82-2.83,0-5.46,3.28-5.46,6.82Z"/>
        <path class="c" d="m43.31,110.51c-.64,0-1.16-.52-1.16-1.16,0-2.86-2.13-5.66-4.3-5.66-.64,0-1.16-.52-1.16-1.16s.52-1.16,1.16-1.16c2.17,0,4.3-2.8,4.3-5.66,0-.64.52-1.16,1.16-1.16s1.16.52,1.16,1.16c0,2.86,2.13,5.66,4.3,5.66.64,0,1.16.52,1.16,1.16s-.52,1.16-1.16,1.16c-2.17,0-4.3,2.8-4.3,5.66,0,.64-.52,1.16-1.16,1.16Zm-2.18-7.98c.86.63,1.61,1.5,2.18,2.5.57-1,1.32-1.86,2.18-2.5-.86-.63-1.61-1.5-2.18-2.5-.57,1-1.32,1.86-2.18,2.5Z"/>
      </g>
    </g>
    <g>
      <g>
        <path class="b" d="m235,80.63c0-5.5,4.08-10.6,8.48-10.6-4.4,0-8.48-5.11-8.48-10.6,0,5.5-4.08,10.6-8.48,10.6,4.4,0,8.48,5.11,8.48,10.6Z"/>
        <path class="c" d="m235,82.43c-.99,0-1.8-.81-1.8-1.8,0-4.44-3.31-8.8-6.68-8.8-.99,0-1.8-.81-1.8-1.8s.81-1.8,1.8-1.8c3.37,0,6.68-4.36,6.68-8.8,0-.99.81-1.8,1.8-1.8s1.8.81,1.8,1.8c0,4.44,3.31,8.8,6.68,8.8.99,0,1.8.81,1.8,1.8s-.81,1.8-1.8,1.8c-3.37,0-6.68,4.36-6.68,8.8,0,.99-.81,1.8-1.8,1.8Zm-3.39-12.4c1.33.99,2.5,2.33,3.39,3.88.89-1.56,2.05-2.9,3.39-3.88-1.33-.99-2.5-2.33-3.39-3.88-.89,1.56-2.05,2.9-3.39,3.88Z"/>
      </g>
      <g>
        <path class="b" d="m216.87,104.68c0-5.5,4.08-10.6,8.48-10.6-4.4,0-8.48-5.11-8.48-10.6,0,5.5-4.08,10.6-8.48,10.6,4.4,0,8.48,5.11,8.48,10.6Z"/>
        <path class="c" d="m216.87,106.48c-.99,0-1.8-.81-1.8-1.8,0-4.44-3.31-8.8-6.68-8.8-.99,0-1.8-.81-1.8-1.8s.81-1.8,1.8-1.8c3.37,0,6.68-4.36,6.68-8.8,0-.99.81-1.8,1.8-1.8s1.8.81,1.8,1.8c0,4.44,3.31,8.8,6.68,8.8.99,0,1.8.81,1.8,1.8s-.81,1.8-1.8,1.8c-3.37,0-6.68,4.36-6.68,8.8,0,.99-.81,1.8-1.8,1.8Zm-3.39-12.4c1.33.99,2.5,2.33,3.39,3.88.89-1.56,2.05-2.9,3.39-3.88-1.33-.99-2.5-2.33-3.39-3.88-.89,1.56-2.05,2.9-3.39,3.88Z"/>
      </g>
      <g>
        <path class="c" d="m238.88,109.36c0-3.54,2.63-6.82,5.46-6.82-2.83,0-5.46-3.28-5.46-6.82,0,3.54-2.63,6.82-5.46,6.82,2.83,0,5.46,3.28,5.46,6.82Z"/>
        <path class="c" d="m238.88,110.51c-.64,0-1.16-.52-1.16-1.16,0-2.86-2.13-5.66-4.3-5.66-.64,0-1.16-.52-1.16-1.16s.52-1.16,1.16-1.16c2.17,0,4.3-2.8,4.3-5.66,0-.64.52-1.16,1.16-1.16s1.16.52,1.16,1.16c0,2.86,2.13,5.66,4.3,5.66.64,0,1.16.52,1.16,1.16s-.52,1.16-1.16,1.16c-2.17,0-4.3,2.8-4.3,5.66,0,.64-.52,1.16-1.16,1.16Zm-2.18-7.98c.86.63,1.61,1.5,2.18,2.5.57-1,1.32-1.86,2.18-2.5-.86-.63-1.61-1.5-2.18-2.5-.57,1-1.32,1.86-2.18,2.5Z"/>
      </g>
    </g>
  </g>
  <g>
    <g>
      <g>
        <path class="b" d="m109.77,99.71s13.42-1.99,23.03-1.99,23.03,1.99,23.03,1.99v36.24h-46.06v-36.24Z"/>
        <path d="m155.83,137.74h-46.06c-.99,0-1.8-.81-1.8-1.8v-36.24c0-.89.65-1.65,1.54-1.78.55-.08,13.66-2.01,23.29-2.01s22.74,1.93,23.29,2.01c.88.13,1.54.89,1.54,1.78v36.24c0,.99-.81,1.8-1.8,1.8Zm-44.26-3.6h42.46v-32.87c-3.78-.51-13.75-1.76-21.23-1.76s-17.45,1.25-21.23,1.76v32.87Z"/>
      </g>
      <path class="b" d="m164.99,55.35l.13.03c6.75-.16,8.42,6.2,7.31,11.93-1.48,7.58-7.13,10.34-10.38,9.28-2.98,11.99-9.19,16.22-15.22,18.47h0c.67,5.14.3,10.22,6.53,15.45,3.17,2.67,11.86,4.33,17.25,6.22,8.53,2.98,15.8,7.41,18.67,14.6,2.59,6.46,2.62,35.08,2.24,40.29-.18,2.47-1.44,4.73-3.47,6.14-11.61,8.04-43.66,10.27-55.53,10.27s-43.92-2.23-55.53-10.27c-2.03-1.4-3.29-3.67-3.47-6.14-.38-5.21-.35-33.84,2.23-40.29,2.88-7.19,10.15-11.62,18.67-14.6,5.39-1.89,14.08-3.55,17.25-6.21,6.23-5.23,5.86-10.31,6.53-15.46-6.04-2.25-12.13-6.48-15.21-18.47h-.01c-3.24,1.06-8.9-1.69-10.38-9.28-1.12-5.74.56-12.1,7.31-11.93l.13-.03C88.5,5.69,132.5,7.2,132.5,7.2c0,0,44.01-1.5,32.49,48.15Z"/>
      <path d="m118.48,96.65c-.21,0-.42-.04-.63-.11-3.92-1.46-6.9-3.38-9.4-6.04-3.15-3.35-5.4-7.79-6.9-13.56-.01-.04-.02-.08-.04-.12-.15-.58-.26-1.06-.36-1.52-.22-.97.4-1.93,1.37-2.15.97-.22,1.93.4,2.15,1.37.09.39.19.81.31,1.31.01.03.02.07.03.1,2.99,11.67,8.81,15.26,14.1,17.23.93.35,1.41,1.39,1.06,2.32-.27.72-.96,1.17-1.69,1.17Z"/>
      <path d="m101.81,78.4c-1.45,0-3-.44-4.46-1.3-1.84-1.08-5.09-3.77-6.24-9.66-.88-4.51-.13-8.58,2.05-11.16,1.67-1.98,4.12-2.99,7.07-2.92.99.02,1.78.85,1.76,1.84-.02.99-.85,1.78-1.84,1.76-1.87-.05-3.26.49-4.23,1.64-1.43,1.69-1.92,4.81-1.27,8.15.38,1.93,1.46,5.45,4.52,7.24,1.23.72,2.58.98,3.52.67.95-.31,1.96.21,2.27,1.15.31.95-.21,1.96-1.15,2.27-.63.21-1.31.31-2.01.31Z"/>
      <path d="m147.12,96.65c-.73,0-1.42-.45-1.69-1.17-.35-.93.13-1.97,1.06-2.32,3.4-1.27,5.97-2.9,8.08-5.13,2.76-2.93,4.73-6.88,6.03-12.08.13-.51.23-.97.33-1.42.21-.97,1.16-1.59,2.14-1.38.97.21,1.59,1.17,1.38,2.14-.11.49-.22.99-.36,1.54-1.45,5.82-3.7,10.3-6.9,13.68-2.5,2.65-5.5,4.56-9.44,6.04-.21.08-.42.11-.63.11Z"/>
      <path d="m163.8,78.4c-.68,0-1.34-.1-1.96-.29-.75-.22-1.29-.91-1.29-1.73,0-.99.8-1.8,1.8-1.8h0c.19,0,.38.03.56.09.95.31,2.3.05,3.53-.67,1.31-.77,3.64-2.74,4.52-7.24.65-3.33.16-6.45-1.27-8.15-.97-1.15-2.36-1.69-4.23-1.64-1,.03-1.82-.76-1.84-1.76-.02-.99.76-1.82,1.76-1.84,2.95-.07,5.39.94,7.07,2.92,2.18,2.58,2.93,6.65,2.05,11.16-1.15,5.89-4.39,8.58-6.23,9.65-1.46.86-3.01,1.3-4.47,1.3Z"/>
      <path d="m132.8,189.62c-6.06,0-17.06-.56-28.12-2.14-13.57-1.94-23.14-4.78-28.43-8.45-2.48-1.71-4.02-4.44-4.24-7.48-.33-4.49-.5-33.97,2.36-41.1,2.73-6.83,9.19-11.94,19.75-15.63,1.73-.6,3.72-1.17,5.82-1.76,4.2-1.19,8.97-2.54,10.86-4.13,4.82-4.05,5.21-7.81,5.66-12.17.07-.7.15-1.42.24-2.15.13-.99,1.03-1.68,2.02-1.55.99.13,1.68,1.03,1.55,2.02-.09.68-.16,1.37-.23,2.05-.46,4.48-.99,9.56-6.92,14.55-2.48,2.09-7.42,3.48-12.19,4.83-2.05.58-3.99,1.13-5.61,1.7-9.52,3.33-15.27,7.77-17.59,13.57-2.34,5.83-2.53,33.83-2.11,39.49.14,1.95,1.13,3.7,2.7,4.79,4.77,3.3,14.07,6.02,26.89,7.85,10.87,1.55,21.67,2.1,27.61,2.1,13.1,0,43.65-2.43,54.5-9.95,1.58-1.09,2.56-2.83,2.7-4.79.43-5.86.26-33.56-2.11-39.49-2.32-5.8-8.08-10.24-17.6-13.57-1.62-.57-3.56-1.12-5.61-1.7-4.78-1.35-9.72-2.75-12.2-4.84-5.94-4.99-6.46-10.07-6.93-14.55-.07-.67-.14-1.37-.23-2.04-.13-.99.57-1.89,1.55-2.02.99-.13,1.89.57,2.02,1.55.09.72.17,1.44.24,2.14.45,4.35.84,8.11,5.66,12.17,1.89,1.59,6.66,2.94,10.87,4.13,2.1.6,4.09,1.16,5.82,1.76,10.56,3.69,17.02,8.8,19.75,15.63,2.84,7.1,2.69,36.59,2.36,41.1-.22,3.04-1.77,5.77-4.24,7.48-5.3,3.67-14.87,6.51-28.44,8.45-11.06,1.58-22.06,2.14-28.12,2.14Z"/>
      <path d="m132.8,71.5c-.44,0-.8-.36-.8-.8v-1.01c0-.44.36-.8.8-.8s.8.36.8.8v1.01c0,.44-.36.8-.8.8Z"/>
      <path d="m123.69,51.78c-.34,0-.67-.12-.94-.36-1.11-1.01-4.81-1.5-6.5-.87-.72.27-1.53-.1-1.8-.82-.27-.72.1-1.53.82-1.8,2.43-.91,7.33-.42,9.36,1.42.57.52.62,1.41.1,1.98-.28.3-.66.46-1.04.46Z"/>
      <path d="m141.92,51.78c-.38,0-.76-.15-1.04-.46-.52-.57-.48-1.46.1-1.98,2.03-1.85,6.93-2.33,9.36-1.42.72.27,1.09,1.08.82,1.8-.27.72-1.08,1.09-1.8.82-1.68-.63-5.39-.13-6.5.87-.27.24-.61.36-.94.36Z"/>
      <path d="m118.48,96.65c-.21,0-.42-.04-.63-.11-4.09-1.53-7.19-3.57-9.74-6.42-3.25-3.63-5.53-8.47-6.95-14.82-.22-.97.39-1.93,1.36-2.15.97-.22,1.93.39,2.15,1.36,2.86,12.75,8.91,16.59,14.44,18.65.93.35,1.4,1.39,1.06,2.32-.27.72-.96,1.17-1.69,1.17Z"/>
      <path d="m147.13,96.65c-.73,0-1.42-.45-1.69-1.17-.35-.93.12-1.97,1.06-2.32,10-3.74,12.91-11.52,14.44-18.64.21-.97,1.17-1.59,2.14-1.38.97.21,1.59,1.17,1.38,2.14-1.36,6.35-3.62,11.2-6.91,14.84-2.56,2.84-5.67,4.87-9.79,6.41-.21.08-.42.11-.63.11Z"/>
      <path class="c" d="m160.82,43.23l3.52,15.65h0c.35-1.28.67-2.53.94-3.75l4.23-15.27,1.63-.65c-.44-9.06-4.21-14.52-4.21-14.52l2.73-1.14c-1.97-5.56-11.36-11.18-11.36-11.18l1.11-3.48s-8.63-5.63-17.01-1.91c0,0-2.28-3.41-7.36-4.57-10.18-2.33-17.64,2.83-17.64,2.83l1.8,1.74s-5.41-.51-14.42,6.94c-8.41,6.94-10.73,15.78-10.73,15.78l3.85.32s-3.47,5.7-3.85,12.13l1.38,1.08,4.88,11.91c.28,1.22.59,2.47.94,3.75h0s3.52-15.65,3.52-15.65c0,0,10.89-9.22,13.62-13.79-.28,6.09,2.21,8.43,2.21,8.43,0,0,3.69-4.56,6.43-7.52.87,5.19,1.56,6.97,1.56,6.97,0,0,10.34-3.63,18.85-8.18,3.67,10.16,13.36,14.09,13.36,14.09Z"/>
      <path d="m164.34,60.68c-.26,0-.53-.06-.78-.18-.54-.26-.91-.76-1-1.33l-3.5-15.56c-.22-.97.39-1.93,1.36-2.15.97-.22,1.93.39,2.15,1.36l1.9,8.46,3.3-11.91c.15-.54.55-.98,1.07-1.19l.41-.16c-.54-6.08-2.68-10.66-3.81-12.31-.31-.45-.39-1.01-.24-1.53.15-.52.53-.94,1.03-1.15l.96-.4c-2.27-3.64-7.68-7.42-9.83-8.71-.72-.43-1.05-1.3-.79-2.09l.67-2.08c-2.47-1.25-8.44-3.64-14.11-1.12-.8.36-1.74.08-2.23-.64-.07-.11-2.01-2.84-6.27-3.82-6.34-1.45-11.53.24-14.22,1.48l.04.04c.56.54.74,1.38.4,2.08-.33.69-1.04,1.1-1.81,1.01-.3-.01-5.17-.04-13.12,6.53-5.46,4.5-8.22,9.91-9.4,12.79l1.52.13c.62.05,1.17.42,1.46.98.28.56.26,1.22-.07,1.75-.03.05-2.92,4.87-3.51,10.37l.61.48c.25.19.44.45.56.73l3.87,9.44,2.06-9.15c.22-.97,1.18-1.58,2.15-1.36.97.22,1.58,1.18,1.36,2.15l-3.52,15.65c-.13.6-.56,1.08-1.13,1.29-.57.21-1.21.12-1.7-.25-.32-.24-.55-.58-.66-.96-.35-1.27-.66-2.51-.93-3.68l-4.65-11.33-1-.79c-.46-.36-.72-.93-.69-1.52.25-4.2,1.7-8.05,2.81-10.45l-1.16-.1c-.53-.04-1.01-.32-1.32-.75-.31-.43-.41-.98-.27-1.5.1-.38,2.57-9.49,11.33-16.72,5.2-4.3,9.31-6.1,12.02-6.85-.05-.19-.06-.38-.05-.58.04-.54.33-1.03.77-1.33.33-.23,8.23-5.59,19.06-3.11,3.83.88,6.27,2.89,7.5,4.18,8.73-3.04,17.08,2.31,17.45,2.55.68.44.98,1.28.73,2.06l-.69,2.16c2.73,1.8,9.19,6.47,10.92,11.35.32.9-.12,1.9-1,2.26l-.85.35c1.24,2.45,3.13,7.15,3.43,13.56.04.77-.42,1.48-1.13,1.76l-.8.32-3.98,14.37c-.26,1.16-.57,2.39-.92,3.67-.08.41-.31.78-.64,1.05-.33.26-.72.39-1.12.39Z"/>
      <path d="m132.8,189.62c-6.06,0-17.06-.56-28.12-2.14-13.57-1.94-23.14-4.78-28.43-8.45-2.48-1.71-4.02-4.44-4.24-7.48-.33-4.49-.5-33.97,2.36-41.1,2.73-6.83,9.19-11.94,19.75-15.63,1.73-.6,3.72-1.17,5.82-1.76,4.2-1.19,8.97-2.54,10.86-4.13,4.82-4.05,5.21-7.81,5.66-12.17.07-.7.15-1.42.24-2.15.13-.99,1.03-1.68,2.02-1.55.99.13,1.68,1.03,1.55,2.02-.09.68-.16,1.37-.23,2.05-.46,4.48-.99,9.56-6.92,14.55-2.48,2.09-7.42,3.48-12.19,4.83-2.05.58-3.99,1.13-5.61,1.7-9.52,3.33-15.27,7.77-17.59,13.57-2.34,5.83-2.53,33.83-2.11,39.49.14,1.95,1.13,3.7,2.7,4.79,4.77,3.3,14.07,6.02,26.89,7.85,10.87,1.55,21.67,2.1,27.61,2.1,13.1,0,43.65-2.43,54.5-9.95,1.58-1.09,2.56-2.83,2.7-4.79.43-5.86.26-33.56-2.11-39.49-2.32-5.8-8.08-10.24-17.6-13.57-1.62-.57-3.56-1.12-5.61-1.7-4.78-1.35-9.72-2.75-12.2-4.84-5.94-4.99-6.46-10.07-6.93-14.55-.07-.67-.14-1.37-.23-2.04-.13-.99.57-1.89,1.55-2.02.99-.13,1.89.57,2.02,1.55.09.72.17,1.44.24,2.14.45,4.35.84,8.11,5.66,12.17,1.89,1.59,6.66,2.94,10.87,4.13,2.1.6,4.09,1.16,5.82,1.76,10.56,3.69,17.02,8.8,19.75,15.63,2.84,7.1,2.69,36.59,2.36,41.1-.22,3.04-1.77,5.77-4.24,7.48-5.3,3.67-14.87,6.51-28.44,8.45-11.06,1.58-22.06,2.14-28.12,2.14Z"/>
      <g>
        <path class="b" d="m132.8,123.92c-14.32-8.23-23.03-24.21-23.03-24.21,0,0-4.13-.67-8.5,6.16-4.12.52-9.05,2.25-11.79,6.3-2.74,4.05-2.29,7.98-2.29,7.98,0,0,15.72,8.03,45.61,3.77Z"/>
        <path d="m115.85,126.95c-5.54,0-11.48-.42-17.4-1.56-7.83-1.51-11.9-3.56-12.07-3.65-.54-.27-.9-.8-.97-1.4-.02-.19-.49-4.65,2.59-9.2,1.45-2.14,4.93-5.81,12.23-6.96,4.71-6.86,9.31-6.35,9.84-6.26.55.09,1.03.43,1.29.92.08.15,8.65,15.65,22.35,23.51.67.38,1.02,1.15.87,1.9-.15.75-.75,1.33-1.51,1.44-4.69.67-10.67,1.25-17.21,1.25Zm-26.86-7.98c1.58.65,5.06,1.92,10.33,2.92,6.07,1.15,15.68,2.14,28.35.84-10.26-7.4-16.94-17.85-18.89-21.15-1.15.27-3.46,1.32-5.98,5.25-.29.45-.76.75-1.29.82-2.77.35-7.82,1.53-10.52,5.52-1.55,2.29-1.92,4.56-1.99,5.8Z"/>
      </g>
      <g>
        <path class="b" d="m132.8,123.92c14.32-8.23,23.03-24.21,23.03-24.21,0,0,4.13-.67,8.5,6.16,4.12.52,9.05,2.25,11.79,6.3,2.74,4.05,2.29,7.98,2.29,7.98,0,0-15.72,8.03-45.61,3.77Z"/>
        <path d="m149.67,126.95c-5.03,0-10.76-.35-17.12-1.25-.76-.11-1.37-.69-1.51-1.44-.15-.75.2-1.52.87-1.9,13.69-7.87,22.26-23.36,22.35-23.51.27-.49.74-.83,1.29-.92.53-.08,5.13-.6,9.84,6.26,7.3,1.15,10.78,4.82,12.23,6.96,3.08,4.55,2.61,9.01,2.59,9.2-.07.6-.43,1.12-.97,1.4-.17.09-4.25,2.14-12.07,3.65-4.23.82-10.12,1.56-17.48,1.56Zm-11.73-4.22c12.66,1.3,22.27.31,28.35-.84,5.27-1,8.75-2.27,10.33-2.92-.07-1.24-.44-3.51-1.99-5.8-2.7-3.99-7.75-5.17-10.52-5.52-.53-.07-1-.37-1.29-.82-1.9-2.97-3.67-4.26-4.81-4.83-.46-.23-.85-.36-1.16-.43-1.95,3.29-8.63,13.75-18.9,21.16Z"/>
      </g>
      <g>
        <path d="m146.78,149.37c-.99,0-1.8-.81-1.8-1.8v-22.41c0-.99.81-1.8,1.8-1.8s1.8.81,1.8,1.8v22.41c0,.99-.81,1.8-1.8,1.8Z"/>
        <path d="m118.82,149.37c-.99,0-1.8-.81-1.8-1.8v-22.41c0-.99.81-1.8,1.8-1.8s1.8.81,1.8,1.8v22.41c0,.99-.81,1.8-1.8,1.8Z"/>
      </g>
      <path d="m156.71,42.67c-.34,0-.69-.1-1-.3-2.44-1.63-5.69-5.16-7.09-7.7-.48-.87-.16-1.97.71-2.45.87-.48,1.97-.16,2.45.71,1.02,1.85,3.77,4.99,5.94,6.44.83.55,1.05,1.67.5,2.5-.35.52-.92.8-1.5.8Z"/>
      <path d="m108.37,40.99c-.58,0-1.14-.28-1.49-.79-.56-.82-.34-1.94.48-2.5,4.85-3.28,7.55-5.75,9.33-8.52.43-.67,1.26-.98,2.02-.75.77.23,1.29.93,1.29,1.73,0,1.54.13,3.33.37,4.74.51-.56,1.05-1.17,1.57-1.77,1.27-1.46,2.58-2.96,3.91-4.13.47-.41,1.11-.55,1.71-.37.59.18,1.06.65,1.22,1.25.01.04.92,3.36,1.84,5.84,4.48-1.77,12.17-5.66,15.85-8.08.83-.55,1.95-.32,2.49.51.55.83.32,1.95-.51,2.49-4.43,2.92-14,7.67-18.28,9.07-.86.28-1.81-.12-2.19-.95-.62-1.32-1.29-3.32-1.81-4.99-.51.56-1.01,1.14-1.52,1.71-1.42,1.63-2.76,3.16-4.02,4.1-.39.29-.87.41-1.35.33-.48-.07-.9-.34-1.19-.73-.73-1.02-1.15-2.7-1.39-4.36-1.82,1.84-4.17,3.7-7.34,5.85-.31.21-.66.31-1.01.31Z"/>
      <path d="m132.8,85.76c-7.33,0-10.32-7.04-10.44-7.34-.18-.43-.13-.92.13-1.31.26-.39.7-.62,1.16-.62h18.3c.47,0,.9.23,1.16.62.26.39.31.88.13,1.31-.12.3-3.11,7.34-10.44,7.34Zm-6.72-6.47c1.19,1.62,3.36,3.67,6.72,3.67s5.52-2.05,6.72-3.67h-13.43Z"/>
      <path d="m149.18,61.71c-.43,0-.86-.2-1.13-.57-.83-1.13-2.08-1.35-2.75-1.37-1.09-.04-2.18.34-2.7.95-.5.59-1.39.66-1.98.15-.59-.5-.66-1.39-.15-1.98,1.08-1.26,2.97-2,4.93-1.92,2,.08,3.79,1,4.9,2.52.46.62.32,1.5-.3,1.96-.25.18-.54.27-.83.27Z"/>
      <path d="m116.43,61.71c-.29,0-.58-.09-.83-.27-.62-.46-.76-1.33-.3-1.96,1.11-1.52,2.9-2.44,4.9-2.52,1.96-.08,3.85.66,4.93,1.92.5.59.44,1.47-.15,1.98-.59.5-1.47.44-1.98-.15-.52-.61-1.61-.99-2.7-.95-.67.03-1.92.24-2.75,1.37-.27.38-.7.57-1.13.57Z"/>
    </g>
    <g>
      <path class="b" d="m203.44,112.49c-.75-1.22-2.16-1.87-3.58-1.66-1.16.17-2.16.91-2.67,1.96l.66-1.43c.5-1.09.43-2.36-.2-3.38-.75-1.22-2.16-1.87-3.58-1.66-1.02.15-1.92.74-2.47,1.6l7.55-17.05c.5-1.09.42-2.36-.21-3.38-.76-1.22-2.16-1.87-3.58-1.65-1.18.18-2.2.94-2.7,2.04l-11.54,25.1,6.63-24.43c.31-1.16.03-2.4-.76-3.3-.95-1.08-2.45-1.49-3.8-1.03-1.14.38-2.02,1.3-2.33,2.46l-5.76,21.2-2.83,8.56h0c-3.71,2.82-5.28,7.44-4.73,11.31.74,5.27,4.39,7.86,11.95,9.92,16.25,4.41,20.46-12,21.54-16.17l2.61-5.64c.5-1.09.43-2.36-.2-3.38Z"/>
      <g>
        <path d="m197.19,114.59c-.25,0-.51-.05-.76-.17-.9-.42-1.3-1.49-.88-2.39l.66-1.43c.25-.54.21-1.17-.1-1.68-.37-.61-1.07-.93-1.78-.82-.5.08-.94.36-1.22.79-.04.07-.08.14-.11.2l-.94,2.22c-.39.92-1.44,1.35-2.36.96-.92-.39-1.34-1.44-.96-2.36l.95-2.25s.02-.04.02-.06c.1-.21.21-.42.35-.64,0,0,0-.01,0-.02.84-1.3,2.19-2.17,3.71-2.4,2.14-.32,4.25.66,5.38,2.5.95,1.54,1.06,3.44.3,5.08l-.66,1.43c-.3.66-.96,1.04-1.64,1.04Z"/>
        <path d="m194.25,120.93c-.25,0-.51-.05-.76-.17-.9-.42-1.3-1.49-.88-2.39l2.91-6.27c.42-.9,1.49-1.3,2.39-.88.9.42,1.3,1.49.88,2.39l-2.91,6.27c-.3.66-.96,1.04-1.64,1.04Z"/>
        <path d="m191,123.01c-1.72,0-3.34-.82-4.36-2.24-.58-.81-.4-1.93.41-2.51.81-.58,1.93-.4,2.51.41.39.54,1.04.82,1.71.72.58-.09,1.07-.45,1.33-.98.43-.9,1.51-1.27,2.4-.84.9.43,1.27,1.51.84,2.4-.77,1.6-2.28,2.71-4.03,2.98-.27.04-.54.06-.81.06Z"/>
        <path d="m196.79,127.51c-1.84,0-3.58-.95-4.57-2.56-.95-1.54-1.06-3.44-.3-5.08l.67-1.45s.02-.05.03-.07v-.02s2.9-6.24,2.9-6.24c.02-.04.05-.1.08-.16.78-1.55,2.27-2.63,3.99-2.89,2.14-.32,4.25.66,5.38,2.5.95,1.54,1.06,3.43.3,5.08l-3.61,7.78c-.76,1.64-2.28,2.78-4.07,3.05-.27.04-.54.06-.81.06Zm-.95-7.54l-.66,1.42c-.25.54-.21,1.17.1,1.67.37.61,1.07.93,1.77.83.59-.09,1.09-.47,1.34-1.01l.99-2.14s0,0,0,0l2.61-5.64c.25-.54.21-1.17-.1-1.67-.37-.61-1.07-.93-1.78-.82-.57.09-1.07.45-1.32.97-.01.02-.02.04-.03.07l-2.89,6.25s-.02.05-.04.07v.02Zm2.85-6.19s0,0,0,0c0,0,0,0,0,0Z"/>
        <path d="m172.27,118.24c-.19,0-.38-.03-.57-.09-.94-.31-1.46-1.33-1.14-2.28l2.82-8.52,5.74-21.16c.47-1.75,1.78-3.13,3.5-3.7,2.04-.68,4.29-.07,5.72,1.56,1.19,1.35,1.62,3.21,1.15,4.96l-6.63,24.43c-.26.96-1.25,1.53-2.21,1.27-.96-.26-1.53-1.25-1.27-2.21l6.63-24.43c.16-.58.02-1.19-.38-1.63-.47-.54-1.21-.74-1.88-.51-.57.19-1,.64-1.16,1.22l-5.76,21.2s-.02.06-.03.09l-2.83,8.56c-.25.76-.95,1.24-1.71,1.24Z"/>
        <path d="m181.12,114.78c-.25,0-.51-.05-.75-.17-.9-.42-1.3-1.48-.88-2.39l11.54-25.1c.76-1.65,2.28-2.79,4.07-3.06,2.12-.33,4.24.64,5.38,2.48.95,1.53,1.07,3.42.32,5.07l-8.73,19.72c-.4.91-1.47,1.32-2.38.92-.91-.4-1.32-1.47-.92-2.38l8.74-19.73s0-.01,0-.02c.25-.55.21-1.17-.1-1.68-.38-.61-1.07-.93-1.77-.82-.6.09-1.1.47-1.35,1.01l-11.54,25.1c-.3.66-.96,1.05-1.64,1.05Z"/>
        <path d="m184.71,140.22c-1.8,0-3.7-.27-5.69-.81-4.23-1.15-7.15-2.45-9.19-4.09-2.31-1.85-3.64-4.25-4.07-7.32-.68-4.84,1.42-9.9,5.35-12.93.03-.02.05-.04.08-.07.9-.68,1.89-1.26,2.95-1.71,1.18-.5,3.37-1.19,6.52-2.05,3.69-1.01,7.77-2.01,9.35-2.39.38-.09.65-.16.79-.19,1.67-.58,3.51-.31,4.93.73,1.74,1.26,2.56,3.44,2.08,5.55-.08.36-.21.73-.38,1.1,0,0,0,.01,0,.02-.59,1.24-1.62,2.19-2.9,2.69l-9.7,4.4c-.03.48-.09,1.07-.23,1.75-.47,2.37-1.53,4.76-3.16,7.11-.57.82-1.69,1.02-2.51.46-.82-.57-1.02-1.69-.46-2.51,3.01-4.36,2.78-7.48,2.76-7.74-.12-.8.3-1.54,1.04-1.87l10.81-4.9s.07-.03.11-.04c.44-.17.79-.48.98-.89.06-.13.1-.25.13-.36.16-.71-.11-1.43-.68-1.84-.48-.35-1.11-.44-1.67-.23-.07.02-.13.05-.2.06,0,0-.32.08-.87.21-1.57.38-5.6,1.36-9.25,2.36-3.73,1.02-5.35,1.59-6.05,1.89-.76.32-1.47.73-2.12,1.22-.02.02-.04.04-.07.05-3.37,2.56-4.45,6.67-4.04,9.62.59,4.25,3.38,6.46,10.64,8.43,4.19,1.14,7.81.84,10.78-.87,5.77-3.35,7.86-11.34,8.54-13.96l.03-.12c.27-.96,1.26-1.52,2.22-1.25.96.27,1.52,1.26,1.25,2.22l-.02.06c-.78,2.99-3.14,12.07-10.22,16.17-2.35,1.36-4.97,2.04-7.83,2.04Z"/>
      </g>
    </g>
    <path d="m270.2,201.39H1.8c-.99,0-1.8-.81-1.8-1.8s.81-1.8,1.8-1.8h268.4c.99,0,1.8.81,1.8,1.8s-.81,1.8-1.8,1.8Z"/>
    <g>
      <g>
        <path class="c" d="m78.05,198.05l-1.58-5.76h112.97l-1.58,5.76c-.81,4.34-4.89,7.52-9.66,7.52h-90.49c-4.77,0-8.85-3.18-9.66-7.52Z"/>
        <path d="m178.19,207.32h-90.49c-5.6,0-10.37-3.73-11.37-8.88l-1.57-5.69c-.14-.53-.04-1.09.3-1.53.33-.43.85-.69,1.39-.69h112.97c.55,0,1.06.26,1.39.69.33.43.44,1,.3,1.53l-1.57,5.69c-1,5.15-5.76,8.88-11.37,8.88Zm-99.43-13.28l.97,3.54s.02.1.03.14c.66,3.53,3.99,6.09,7.94,6.09h90.49c3.94,0,7.28-2.56,7.94-6.09,0-.05.02-.1.03-.14l.97-3.54h-108.37Z"/>
      </g>
      <g>
        <g>
          <path class="c" d="m75.31,189.39l-4.2-49.67c0-4.46,4.53-8.08,10.12-8.08h103.45c5.59,0,10.12,3.62,10.12,8.08l-4.2,49.67c0,4.46-4.53,8.08-10.12,8.08h-95.04c-5.59,0-10.12-3.62-10.12-8.08Z"/>
          <path d="m180.47,199.21h-95.04c-6.52,0-11.82-4.37-11.87-9.75l-4.2-49.6s0-.1,0-.15c0-5.42,5.33-9.83,11.87-9.83h103.45c6.55,0,11.87,4.41,11.87,9.83,0,.05,0,.1,0,.15l-4.2,49.6c-.05,5.38-5.36,9.75-11.87,9.75Zm-107.62-59.56l4.2,49.59s0,.1,0,.15c0,3.49,3.76,6.32,8.37,6.32h95.04c4.62,0,8.37-2.84,8.37-6.32,0-.05,0-.1,0-.15l4.2-49.59c-.05-3.46-3.79-6.26-8.37-6.26h-103.45c-4.59,0-8.32,2.8-8.37,6.26Z"/>
        </g>
        <ellipse class="b" cx="132.95" cy="169.13" rx="5.96" ry="4.58"/>
      </g>
    </g>
    <g>
      <g>
        <path class="b" d="m210.87,171.2l.7,4.91c-4.35.39-7.88,2.12-9.92,4.92-2.33,3.2-2.34,7.41-.03,10.99,1.29,2,5,6.32,13.49,7.38,1.36,3.61,5.29,6.16,9.83,6.16h8.02c5.15,0,9.52-3.27,10.24-7.66l3.83-26.7h-36.15Zm-2.95,17.82c-1.04-1.61-1.1-3.41-.16-4.7.86-1.18,2.5-1.89,4.69-2.06l1.52,10.6c-3.77-.96-5.43-2.87-6.05-3.84Z"/>
        <path d="m232.96,207.37h-8.02c-4.83,0-9.14-2.5-11.07-6.31-3.54-.57-6.64-1.74-9.21-3.49-2.37-1.61-3.78-3.37-4.55-4.56-2.72-4.22-2.68-9.21.09-13.03,2.02-2.78,5.3-4.67,9.34-5.4l-.45-3.11c-.07-.52.08-1.04.42-1.44.34-.39.84-.62,1.36-.62h36.15c.52,0,1.02.23,1.36.62.34.39.5.92.42,1.44l-3.83,26.7s0,.02,0,.03c-.42,2.59-1.9,4.94-4.15,6.63-2.19,1.64-4.98,2.54-7.86,2.54Zm-20.01-34.36l.41,2.85c.07.49-.06.99-.37,1.37-.31.39-.76.63-1.25.68-3.85.35-6.91,1.84-8.62,4.19-1.88,2.59-1.87,6.02.02,8.96,1.06,1.65,4.38,5.59,12.19,6.57.66.08,1.23.53,1.46,1.15,1.12,2.98,4.4,4.99,8.15,4.99h8.02c4.24,0,7.88-2.64,8.46-6.14l3.53-24.63h-32Zm1.03,21.66c-.15,0-.3-.02-.45-.06-4.33-1.1-6.32-3.36-7.12-4.61h0c-1.45-2.25-1.49-4.83-.1-6.73,1.18-1.62,3.26-2.59,6.01-2.8.94-.07,1.78.6,1.92,1.54l1.52,10.6c.09.6-.13,1.19-.58,1.6-.33.3-.76.46-1.2.46Zm-3.04-10.32c-.8.23-1.39.59-1.72,1.04-.49.67-.41,1.7.22,2.67h0c.28.43.95,1.28,2.32,2.04l-.82-5.74Z"/>
      </g>
      <g>
        <path d="m222.55,165.95c-.48,0-.95-.25-1.21-.69-.39-.67-.17-1.53.5-1.92.04-.02.09-.05.14-.08.4-.22.89-.49.89-1.68,0-.55-.69-1.3-1.35-2.02-.98-1.07-2.09-2.28-2.09-3.91,0-1.31.41-3.09,2.38-4.16l.04-.02c.67-.39,1.52-.16,1.91.5.39.67.16,1.53-.51,1.92-.03.02-.06.04-.11.06-.3.16-.92.5-.92,1.7,0,.55.69,1.3,1.35,2.02.98,1.07,2.09,2.28,2.09,3.91,0,2.85-1.76,3.82-2.34,4.14-.03.02-.05.03-.07.04-.22.13-.47.19-.71.19Z"/>
        <path d="m228.95,165.95c-.48,0-.95-.25-1.21-.69-.39-.67-.17-1.53.5-1.92.04-.02.09-.05.14-.08.4-.22.89-.49.89-1.68,0-.55-.69-1.3-1.35-2.02-.98-1.07-2.09-2.28-2.09-3.91,0-1.31.41-3.09,2.38-4.16l.04-.02c.67-.39,1.52-.16,1.91.5.39.67.16,1.53-.51,1.92-.03.02-.06.04-.11.06-.3.16-.92.5-.92,1.7,0,.55.69,1.3,1.35,2.02.98,1.07,2.09,2.28,2.09,3.91,0,2.85-1.76,3.82-2.34,4.14-.03.02-.05.03-.07.04-.22.13-.47.19-.71.19Z"/>
        <path d="m235.35,165.95c-.48,0-.95-.25-1.21-.69-.39-.67-.17-1.53.5-1.92.04-.02.09-.05.14-.08.4-.22.89-.49.89-1.68,0-.55-.69-1.3-1.35-2.02-.98-1.07-2.09-2.28-2.09-3.91,0-1.31.41-3.09,2.38-4.16l.04-.02c.67-.39,1.52-.16,1.91.5.39.67.16,1.53-.51,1.92-.03.02-.06.04-.11.06-.3.16-.92.5-.92,1.7,0,.55.69,1.3,1.35,2.02.98,1.07,2.09,2.28,2.09,3.91,0,2.85-1.76,3.82-2.34,4.14-.03.02-.05.03-.07.04-.22.13-.47.19-.71.19Z"/>
      </g>
    </g>
    <g>
      <g>
        <path class="c" d="m37.18,188.79s-.96-17.29-4.93-29.16c-3.97-11.87-13.49-23.75-26.36-31.03,22.28,30.1,31.29,60.2,31.29,60.2Z"/>
        <path class="c" d="m37.18,189.99c-.52,0-.99-.34-1.15-.86-.02-.07-2.3-7.61-7.26-18.71-4.57-10.23-12.42-25.67-23.85-41.12-.34-.46-.31-1.09.07-1.51.38-.42,1-.53,1.49-.25,12.59,7.13,22.65,18.98,26.91,31.7,2.08,6.23,3.33,13.91,4.01,19.26.73,5.78.98,10.17.99,10.21.03.61-.39,1.14-.99,1.25-.07.01-.14.02-.21.02Zm-26.69-57.03c9.62,13.88,16.38,27.3,20.49,36.53,1.64,3.68,3,6.98,4.07,9.75-.73-5.83-1.96-13.27-3.95-19.24-3.47-10.37-10.99-20.15-20.62-27.05Z"/>
      </g>
      <g>
        <path class="c" d="m37.02,188.67s1.1-23.53,3.58-35.8c2.49-12.27,16.42-25.7,20.09-27.78-13.62,20.35-23.68,63.58-23.68,63.58Z"/>
        <path class="c" d="m37.02,189.87c-.05,0-.11,0-.17-.01-.61-.09-1.06-.62-1.03-1.25.01-.24,1.13-23.76,3.6-35.98,1.4-6.91,6.13-13.73,9.85-18.24,4.25-5.15,8.75-9.17,10.83-10.35.48-.27,1.09-.18,1.47.23.38.41.43,1.02.12,1.48-13.34,19.93-23.4,62.75-23.5,63.18-.13.55-.62.93-1.17.93Zm19-59.3c-1.52,1.5-3.21,3.31-4.89,5.35-6.43,7.78-8.63,13.64-9.35,17.18-1.27,6.27-2.18,15.59-2.76,23.13,1-3.57,2.2-7.7,3.59-12.09,4.42-14.01,8.92-25.26,13.42-33.58Z"/>
      </g>
      <g>
        <path class="c" d="m36.38,174.77s1.34-27.26-2.47-37.15c-4.38-11.37-13.95-24.32-13.95-24.32,0,0,3.96,20.81,5.11,26.45,2.73,13.36,11.3,35.02,11.3,35.02Z"/>
        <path class="c" d="m36.38,175.97c-.49,0-.93-.3-1.12-.76-.09-.22-8.65-21.91-11.36-35.22-1.14-5.59-5.08-26.26-5.12-26.47-.1-.55.19-1.1.7-1.32.51-.22,1.11-.06,1.45.39.39.53,9.72,13.21,14.1,24.6,3.85,10.01,2.6,36.52,2.55,37.64-.03.56-.45,1.03-1,1.13-.07.01-.13.02-.2.02Zm-14.18-57.33c1.26,6.59,3.28,17.13,4.05,20.87,1.83,8.97,6.39,21.89,9.11,29.21.15-8.54.02-23.93-2.57-30.67-2.69-6.98-7.42-14.65-10.59-19.41Z"/>
      </g>
      <g>
        <polygon class="b" points="51.04 199.59 21.98 199.59 17.44 179.79 55.58 179.79 51.04 199.59"/>
        <path d="m51.04,201.39h-29.06c-.84,0-1.57-.58-1.76-1.4l-4.54-19.8c-.12-.53,0-1.1.35-1.52.34-.43.86-.68,1.41-.68h38.14c.55,0,1.07.25,1.41.68.34.43.47.99.35,1.52l-4.54,19.8c-.19.82-.92,1.4-1.76,1.4Zm-27.63-3.6h26.19l3.71-16.2H19.7l3.71,16.2Z"/>
      </g>
    </g>
  </g>
  <g>
    <path class="c" d="m184.03,56.3c-.14,0-.28-.02-.42-.05-.97-.23-1.57-1.2-1.34-2.17l2.89-12.23c.23-.97,1.2-1.57,2.17-1.34.97.23,1.57,1.2,1.34,2.17l-2.89,12.23c-.2.83-.94,1.39-1.75,1.39Z"/>
    <path class="c" d="m190.71,59.04c-.32,0-.64-.08-.93-.26-.85-.52-1.12-1.62-.6-2.47l6.53-10.74c.52-.85,1.62-1.12,2.47-.6.85.52,1.12,1.62.6,2.47l-6.53,10.74c-.34.56-.93.87-1.54.87Z"/>
    <path class="c" d="m196.22,63.71c-.51,0-1.01-.21-1.37-.63-.65-.75-.56-1.89.19-2.54l9.52-8.19c.75-.65,1.89-.56,2.54.19.65.75.56,1.89-.19,2.54l-9.52,8.19c-.34.29-.76.44-1.17.44Z"/>
    <path class="c" d="m200.02,69.86c-.7,0-1.37-.42-1.66-1.11-.38-.92.05-1.97.97-2.36l11.59-4.85c.92-.38,1.97.05,2.36.97.38.92-.05,1.97-.97,2.36l-11.59,4.85c-.23.09-.46.14-.69.14Z"/>
  </g>
</svg>