<svg id="a" xmlns="http://www.w3.org/2000/svg" version="1.1" viewBox="0 0 263.9 211.4"><defs><style>.cls-1{fill:#000}.cls-1,.cls-2,.cls-3,.cls-4{stroke-width:0}.cls-2{fill:#39b2bf}.cls-3{fill:#d5eaff}.cls-4{fill:#fff}</style></defs><path class="cls-4" d="M106.5 106.9s13-1.9 22.3-1.9 22.3 1.9 22.3 1.9v35.2h-44.7v-35.2Z"/><path class="cls-1" d="M151.2 143.8h-44.7c-1 0-1.8-.8-1.8-1.8v-35.2c0-.9.6-1.6 1.5-1.7.5 0 13.2-1.9 22.6-1.9s22.1 1.9 22.6 1.9c.9.1 1.5.9 1.5 1.7V142c0 1-.8 1.8-1.8 1.8Zm-43-3.5h41.2v-31.9c-3.7-.5-13.3-1.7-20.6-1.7s-16.9 1.2-20.6 1.7v31.9Z"/><path class="cls-4" d="M160.1 63.9h.1c6.6-.1 8.2 6 7.1 11.6-1.4 7.3-6.9 10-10.1 9-2.9 11.6-8.9 15.7-14.8 17.9.6 5 .3 9.9 6.3 15 3.1 2.6 11.5 4.2 16.7 6 8.3 2.9 15.3 7.2 18.1 14.2 2.5 6.3 2.5 34 2.2 39.1-.2 2.4-1.4 4.6-3.4 5.9-11.3 7.8-42.4 10-53.9 10s-42.6-2.2-53.9-10c-2-1.4-3.2-3.6-3.4-5.9-.4-5.1-.3-32.8 2.2-39.1 2.8-7 9.8-11.3 18.1-14.2 5.2-1.8 13.7-3.4 16.7-6 6-5.1 5.7-10 6.3-15-5.8-2.2-11.8-6.3-14.8-17.9-3.1 1-8.6-1.6-10.1-9-1.1-5.6.5-11.7 7.1-11.6h.1c-11.2-48.2 31.5-46.7 31.5-46.7s42.7-1.5 31.5 46.7Z"/><path class="cls-1" d="M114.9 104c-.2 0-.4 0-.6-.1-3.8-1.4-6.7-3.3-9.1-5.9-3.1-3.2-5.2-7.6-6.7-13.2v-.1c-.1-.6-.2-1-.3-1.5-.2-.9.4-1.9 1.3-2.1.9-.2 1.9.4 2.1 1.3 0 .4.2.8.3 1.3 2.9 11.3 8.5 14.8 13.7 16.7.9.3 1.4 1.3 1 2.2-.3.7-.9 1.1-1.6 1.1Z"/><path class="cls-1" d="M98.8 86.3c-1.4 0-2.9-.4-4.3-1.3-1.8-1.1-4.9-3.7-6.1-9.4-.8-4.4-.1-8.3 2-10.8 1.6-1.9 4-2.9 6.9-2.8 1 0 1.7.8 1.7 1.8s-.8 1.7-1.8 1.7c-1.8 0-3.2.5-4.1 1.6-1.4 1.6-1.9 4.7-1.2 7.9.4 1.9 1.4 5.3 4.4 7 1.2.7 2.5.9 3.4.7.9-.3 1.9.2 2.2 1.1.3.9-.2 1.9-1.1 2.2-.6.2-1.3.3-1.9.3ZM142.7 104c-.7 0-1.4-.4-1.6-1.1-.3-.9.1-1.9 1-2.2 3.3-1.2 5.8-2.8 7.8-5 2.7-2.8 4.6-6.7 5.9-11.7.1-.5.2-.9.3-1.4.2-.9 1.1-1.5 2.1-1.3.9.2 1.5 1.1 1.3 2.1-.1.5-.2 1-.4 1.5-1.4 5.7-3.6 10-6.7 13.3-2.4 2.6-5.3 4.4-9.2 5.9-.2 0-.4.1-.6.1Z"/><path class="cls-1" d="M158.9 86.3c-.7 0-1.3 0-1.9-.3-.7-.2-1.3-.9-1.3-1.7s.8-1.8 1.8-1.8h.5c.9.3 2.2 0 3.4-.7 1.3-.8 3.5-2.7 4.4-7 .6-3.2.2-6.3-1.2-7.9-.9-1.1-2.3-1.6-4.1-1.6-.9 0-1.7-.8-1.8-1.7 0-1 .7-1.8 1.7-1.8 2.9 0 5.2.9 6.9 2.8 2.1 2.5 2.8 6.4 2 10.8-1.1 5.7-4.3 8.3-6 9.4-1.4.8-2.9 1.3-4.3 1.3ZM128.8 194.1c-5.9 0-16.6-.5-27.3-2.1-13.2-1.9-22.4-4.6-27.6-8.2-2.4-1.7-3.9-4.3-4.1-7.3-.3-4.4-.5-33 2.3-39.9 2.7-6.6 8.9-11.6 19.2-15.2 1.7-.6 3.6-1.1 5.7-1.7 4.1-1.2 8.7-2.5 10.5-4 4.7-3.9 5.1-7.6 5.5-11.8 0-.7.1-1.4.2-2.1.1-1 1-1.6 2-1.5 1 .1 1.6 1 1.5 2 0 .7-.2 1.3-.2 2-.4 4.3-1 9.3-6.7 14.1-2.4 2-7.2 3.4-11.8 4.7-2 .6-3.9 1.1-5.4 1.7-9.2 3.2-14.8 7.5-17.1 13.2-2.3 5.7-2.4 32.8-2.1 38.3.1 1.9 1.1 3.6 2.6 4.6 4.6 3.2 13.7 5.8 26.1 7.6 10.6 1.5 21 2 26.8 2 12.7 0 42.3-2.4 52.9-9.6 1.5-1.1 2.5-2.8 2.6-4.6.4-5.7.3-32.6-2.1-38.3-2.2-5.6-7.8-9.9-17.1-13.2-1.6-.6-3.4-1.1-5.4-1.7-4.6-1.3-9.4-2.7-11.8-4.7-5.8-4.8-6.3-9.8-6.7-14.1 0-.7-.1-1.3-.2-2-.1-1 .6-1.8 1.5-2 1-.1 1.8.6 2 1.5 0 .7.2 1.4.2 2.1.4 4.2.8 7.9 5.5 11.8 1.8 1.5 6.5 2.8 10.5 4s4 1.1 5.6 1.7c10.2 3.6 16.5 8.5 19.2 15.2 2.8 6.9 2.6 35.5 2.3 39.9-.2 2.9-1.7 5.6-4.1 7.3-5.1 3.6-14.4 6.3-27.6 8.2-10.7 1.5-21.4 2.1-27.3 2.1ZM128.8 79.6c-.4 0-.8-.3-.8-.8v-1c0-.4.4-.8.8-.8s.8.3.8.8v1c0 .4-.4.8-.8.8Z"/><ellipse class="cls-1" cx="116.7" cy="67" rx="2.8" ry="3.1"/><ellipse class="cls-1" cx="141" cy="67" rx="2.8" ry="3.1"/><path class="cls-1" d="M120 60.4c-.3 0-.7-.1-.9-.3-1.1-1-4.7-1.5-6.3-.8-.7.3-1.5 0-1.8-.8-.3-.7 0-1.5.8-1.8 2.4-.9 7.1-.4 9.1 1.4.6.5.6 1.4 0 1.9-.3.3-.6.5-1 .4ZM114.9 104c-.2 0-.4 0-.6-.1-4-1.5-7-3.5-9.4-6.2-3.2-3.5-5.4-8.2-6.7-14.4-.2-.9.4-1.9 1.3-2.1s1.9.4 2.1 1.3c2.8 12.4 8.6 16.1 14 18.1.9.3 1.4 1.3 1 2.2-.3.7-.9 1.1-1.6 1.1ZM142.7 104c-.7 0-1.4-.4-1.6-1.1-.3-.9.1-1.9 1-2.2 9.7-3.6 12.5-11.2 14-18.1.2-.9 1.1-1.5 2.1-1.3.9.2 1.5 1.1 1.3 2.1-1.3 6.2-3.5 10.9-6.7 14.4-2.5 2.8-5.5 4.7-9.5 6.2-.2 0-.4.1-.6.1Z"/><path class="cls-2" d="m156 52.1 3.4 15.2c.3-1.2.6-2.5.9-3.6l4.1-14.8 1.6-.6c-.4-8.8-4.1-14.1-4.1-14.1l2.6-1.1c-1.9-5.4-11-10.8-11-10.8l1.1-3.4s-8.4-5.5-16.5-1.9c0 0-2.2-3.3-7.1-4.4-9.9-2.3-17.1 2.8-17.1 2.8l1.7 1.7s-5.2-.5-14 6.7c-8.2 6.7-10.4 15.3-10.4 15.3l3.7.3s-3.4 5.5-3.7 11.8l1.3 1 4.7 11.5.9 3.6 3.4-15.2s10.6-9 13.2-13.4c-.3 5.9 2.1 8.2 2.1 8.2s3.6-4.4 6.2-7.3c.8 5 1.5 6.8 1.5 6.8s10-3.5 18.3-7.9c3.6 9.9 13 13.7 13 13.7Z"/><path class="cls-1" d="M159.4 69.1c-.3 0-.5 0-.8-.2-.5-.2-.9-.7-1-1.3l-3.4-15.1c-.2-.9.4-1.9 1.3-2.1s1.9.4 2.1 1.3l1.9 8.2 3.2-11.6c.1-.5.5-1 1-1.2l.4-.2c-.5-5.9-2.6-10.3-3.7-11.9-.3-.4-.4-1-.2-1.5.1-.5.5-.9 1-1.1l.9-.4c-2.2-3.5-7.4-7.2-9.5-8.5-.7-.4-1-1.3-.8-2l.6-2c-2.4-1.2-8.2-3.5-13.7-1.1-.8.3-1.7 0-2.2-.6 0-.1-1.9-2.8-6.1-3.7-6.1-1.4-11.2.2-13.8 1.4.5.5.7 1.4.4 2-.3.7-1 1.1-1.8 1-.3 0-5 0-12.7 6.3-5.3 4.4-8 9.6-9.1 12.4h1.5c.6.2 1.1.5 1.4 1.1.3.5.2 1.2 0 1.7 0 0-2.8 4.7-3.4 10.1l.6.5c.2.2.4.4.5.7l3.8 9.2 2-8.9c.2-.9 1.2-1.5 2.1-1.3.9.2 1.5 1.2 1.3 2.1l-3.4 15.2c-.1.6-.5 1.1-1.1 1.3-.6.2-1.2.1-1.7-.2-.3-.2-.5-.6-.6-.9l-.9-3.6-4.5-11-1-.8c-.4-.3-.7-.9-.7-1.5.2-4.1 1.7-7.8 2.7-10.1h-1.1c-.5-.1-1-.4-1.3-.8s-.4-1-.3-1.5c0-.4 2.5-9.2 11-16.2 5.1-4.2 9-5.9 11.7-6.6v-.6c0-.5.3-1 .8-1.3.3-.2 8-5.4 18.5-3 3.7.9 6.1 2.8 7.3 4.1 8.5-2.9 16.6 2.2 16.9 2.5.7.4.9 1.2.7 2l-.7 2.1c2.6 1.8 8.9 6.3 10.6 11 .3.9-.1 1.8-1 2.2l-.8.3c1.2 2.4 3 6.9 3.3 13.2 0 .8-.4 1.4-1.1 1.7l-.8.3-3.9 13.9c-.3 1.1-.6 2.3-.9 3.6 0 .4-.3.8-.6 1-.3.2-.7.4-1.1.4ZM128.8 194.1c-5.9 0-16.6-.5-27.3-2.1-13.2-1.9-22.4-4.6-27.6-8.2-2.4-1.7-3.9-4.3-4.1-7.3-.3-4.4-.5-33 2.3-39.9 2.7-6.6 8.9-11.6 19.2-15.2 1.7-.6 3.6-1.1 5.7-1.7 4.1-1.2 8.7-2.5 10.5-4 4.7-3.9 5.1-7.6 5.5-11.8 0-.7.1-1.4.2-2.1.1-1 1-1.6 2-1.5 1 .1 1.6 1 1.5 2 0 .7-.2 1.3-.2 2-.4 4.3-1 9.3-6.7 14.1-2.4 2-7.2 3.4-11.8 4.7-2 .6-3.9 1.1-5.4 1.7-9.2 3.2-14.8 7.5-17.1 13.2-2.3 5.7-2.4 32.8-2.1 38.3.1 1.9 1.1 3.6 2.6 4.6 4.6 3.2 13.7 5.8 26.1 7.6 10.6 1.5 21 2 26.8 2 12.7 0 42.3-2.4 52.9-9.6 1.5-1.1 2.5-2.8 2.6-4.6.4-5.7.3-32.6-2.1-38.3-2.2-5.6-7.8-9.9-17.1-13.2-1.6-.6-3.4-1.1-5.4-1.7-4.6-1.3-9.4-2.7-11.8-4.7-5.8-4.8-6.3-9.8-6.7-14.1 0-.7-.1-1.3-.2-2-.1-1 .6-1.8 1.5-2 1-.1 1.8.6 2 1.5 0 .7.2 1.4.2 2.1.4 4.2.8 7.9 5.5 11.8 1.8 1.5 6.5 2.8 10.5 4s4 1.1 5.6 1.7c10.2 3.6 16.5 8.5 19.2 15.2 2.8 6.9 2.6 35.5 2.3 39.9-.2 2.9-1.7 5.6-4.1 7.3-5.1 3.6-14.4 6.3-27.6 8.2-10.7 1.5-21.4 2.1-27.3 2.1Z"/><path class="cls-4" d="M128.8 130.4c-13.9-8-22.3-23.5-22.3-23.5s-4-.7-8.2 6c-4 .5-8.8 2.2-11.4 6.1s-2.2 7.8-2.2 7.8 15.2 7.8 44.2 3.7Z"/><path class="cls-1" d="M112.4 133.4c-5.4 0-11.1-.4-16.9-1.5-7.6-1.5-11.6-3.4-11.7-3.5-.5-.3-.9-.8-.9-1.4 0-.2-.5-4.5 2.5-8.9 1.4-2.1 4.8-5.6 11.9-6.8 4.6-6.7 9-6.2 9.6-6.1.5 0 1 .4 1.3.9 0 .2 8.4 15.2 21.7 22.8.6.4 1 1.1.9 1.8s-.7 1.3-1.5 1.4c-4.6.6-10.3 1.2-16.7 1.2Zm-26.1-7.8c1.5.6 4.9 1.9 10 2.8 5.9 1.1 15.2 2.1 27.5.8-9.9-7.2-16.4-17.3-18.3-20.5-1.1.3-3.4 1.3-5.8 5.1-.3.4-.7.7-1.2.8-2.7.3-7.6 1.5-10.2 5.4-1.5 2.2-1.9 4.4-1.9 5.6Z"/><path class="cls-4" d="M128.8 130.4c13.9-8 22.3-23.5 22.3-23.5s4-.7 8.2 6c4 .5 8.8 2.2 11.4 6.1s2.2 7.8 2.2 7.8-15.2 7.8-44.2 3.7Z"/><path class="cls-1" d="M145.2 133.4c-4.9 0-10.4-.3-16.6-1.2-.7-.1-1.3-.7-1.5-1.4s.2-1.5.8-1.8c13.3-7.6 21.6-22.7 21.7-22.8.3-.5.7-.8 1.3-.9.5 0 5-.6 9.6 6.1 7.1 1.1 10.5 4.7 11.9 6.8 3 4.4 2.5 8.7 2.5 8.9 0 .6-.4 1.1-.9 1.4-.2 0-4.1 2.1-11.7 3.5-4.1.8-9.8 1.5-17 1.5Zm-11.4-4.1c12.3 1.3 21.6.3 27.5-.8 5.1-1 8.5-2.2 10-2.8 0-1.2-.4-3.4-1.9-5.6-2.6-3.9-7.5-5-10.2-5.4-.5 0-1-.3-1.2-.8-1.8-2.9-3.6-4.1-4.7-4.7-.4-.2-.8-.3-1.1-.4-1.9 3.2-8.4 13.3-18.3 20.5Z"/><path class="cls-1" d="M142.4 155.1c-1 0-1.8-.8-1.8-1.8v-21.7c0-1 .8-1.8 1.8-1.8s1.8.8 1.8 1.8v21.7c0 1-.8 1.8-1.8 1.8ZM115.3 155.1c-1 0-1.8-.8-1.8-1.8v-21.7c0-1 .8-1.8 1.8-1.8s1.8.8 1.8 1.8v21.7c0 1-.8 1.8-1.8 1.8ZM152 51.6c-.3 0-.7 0-1-.3-2.4-1.6-5.5-5-6.9-7.5-.5-.8-.2-1.9.7-2.4.9-.5 1.9-.2 2.4.7 1 1.8 3.7 4.8 5.8 6.2.8.5 1 1.6.5 2.4-.3.5-.9.8-1.4.8ZM105.1 50c-.6 0-1.1-.3-1.4-.8-.5-.8-.3-1.9.5-2.4 4.7-3.2 7.3-5.6 9.1-8.3.4-.7 1.2-1 2-.7s1.2.9 1.2 1.7c0 1.5.1 3.2.4 4.6.5-.5 1-1.1 1.5-1.7 1.2-1.4 2.5-2.9 3.8-4 .4-.4 1.1-.5 1.7-.4s1 .6 1.2 1.2c0 0 .9 3.3 1.8 5.7 4.3-1.7 11.8-5.5 15.4-7.8.8-.5 1.9-.3 2.4.5s.3 1.9-.5 2.4c-4.3 2.8-13.6 7.4-17.7 8.8-.8.3-1.8-.1-2.1-.9-.6-1.3-1.2-3.2-1.8-4.8-.5.5-1 1.1-1.5 1.7-1.4 1.6-2.7 3.1-3.9 4-.4.3-.8.4-1.3.3-.5 0-.9-.3-1.2-.7-.7-1-1.1-2.6-1.3-4.2-1.8 1.8-4 3.6-7.1 5.7-.3.2-.6.3-1 .3ZM133.4 91.9c-.5 0-.9-.2-1.1-.6-.1 0-.9-.8-3.5-.8s-3.4.7-3.5.8c-.4.6-1.1.8-1.8.5-.7-.3-.9-1.2-.6-1.8.3-.5 1.4-2.2 5.8-2.2s5.6 1.7 5.8 2.2c.3.7 0 1.5-.6 1.8-.2 0-.4.2-.6.2Zm-1.2-.7Zm-6.8 0Zm6.8 0Zm-6.8 0ZM139.9 60.6c-1 0-2-.1-2.9-.4-.7-.2-1.1-1-.9-1.7s1-1.1 1.7-.9c1.8.6 4.7.1 6.3-.6.7-.3 1.5 0 1.8.7.3.7 0 1.5-.7 1.8-1.4.7-3.5 1.1-5.4 1.1ZM262.1 205.6H1.8c-1 0-1.8-.8-1.8-1.8s.8-1.8 1.8-1.8h260.4c1 0 1.8.8 1.8 1.8s-.8 1.8-1.8 1.8Z"/><path class="cls-4" d="M132 116.2c-.5-.8-1.3-1.3-2.2-1.5 1.2-.7 1.9-2 1.8-3.3-.1-1.2-.3-1.7-1.8-2.7l-7.8-4.9s-12.3 6.1-13.2 7.4c-2.5 3.5-4.5 7.6-7.4 14-9.9 21.8 11.3 22.5 14.8 10.4h7.3c1.2 0 2.2-.6 2.9-1.6.8-1.2.8-2.7 0-3.8-.6-1-1.7-1.6-2.9-1.6h3.3c1.2 0 2.2-.6 2.9-1.6.8-1.2.8-2.7 0-3.8-.6-1-1.7-1.6-2.9-1.6h2.4c1.2 0 2.2-.6 2.9-1.6.8-1.2.8-2.7 0-3.8Z"/><path class="cls-1" d="M129.1 123.4h-13c-1 0-1.8-.8-1.8-1.8s.8-1.8 1.8-1.8h13c.6 0 1.1-.3 1.4-.8.4-.6.4-1.3 0-1.9-.3-.4-.6-.7-1.1-.7h-13.3c-.8 0-1.5-.6-1.7-1.4s.3-1.6 1-2l7.4-3.2c.9-.4 1.9 0 2.3.9.3.8 0 1.7-.6 2.1h5.7c1.4.3 2.6 1.1 3.4 2.2 1.2 1.8 1.2 4 0 5.8-1 1.5-2.6 2.3-4.4 2.3Z"/><path class="cls-1" d="M126.7 130.3h-10.6c-1 0-1.8-.8-1.8-1.8s.8-1.8 1.8-1.8h10.6c.6 0 1.1-.3 1.4-.8.4-.6.4-1.3 0-1.9-.3-.5-.8-.8-1.4-.8-1 0-1.8-.8-1.8-1.8s.8-1.8 1.8-1.8c1.8 0 3.4.9 4.3 2.3 1.2 1.8 1.2 4 0 5.8-1 1.5-2.6 2.3-4.3 2.3Z"/><path class="cls-1" d="M106 145.1c-2.8 0-5.4-1.1-7-3.2-1.4-1.8-2.2-4.2-2.1-7.1 0-3 1-6.5 2.8-10.4 2.9-6.4 5-10.6 7.6-14.3.3-.5.8-1.2 7.6-4.7 3.2-1.7 6.3-3.2 6.3-3.2.5-.3 1.2-.2 1.7 0l7.8 4.9c1.8 1.3 2.4 2.2 2.5 4 .2 2.1-.9 4-2.7 5h-.1c-.9.4-1.9 0-2.3-.8-.4-.8-.1-1.8.7-2.3.6-.3.9-1 .9-1.7 0-.6 0-.7-1-1.4l-7-4.4c-5.2 2.6-10.9 5.6-11.8 6.5-2.4 3.4-4.4 7.5-7.2 13.6-2.8 6.2-3.2 11.2-1.1 13.9 1.2 1.6 3.4 2.2 5.8 1.8 3.3-.6 6-3.2 6.9-6.5.2-.8.9-1.3 1.7-1.3h7.3c.6 0 1.1-.3 1.4-.8.4-.6.4-1.3 0-1.9-.3-.5-.8-.8-1.4-.8-1 0-1.8-.8-1.8-1.8s.8-1.8 1.8-1.8c1.8 0 3.4.9 4.3 2.3 1.1 1.8 1.1 4 0 5.8-1 1.5-2.6 2.3-4.3 2.3h-6c-1.6 4-5 6.9-9.2 7.7-.7.1-1.4.2-2.2.2Zm4-32.9Z"/><path class="cls-2" d="m75.7 202.3-1.5-5.6h109.6l-1.5 5.6c-.8 4.2-4.7 7.3-9.4 7.3H85.1c-4.6 0-8.6-3.1-9.4-7.3Z"/><path class="cls-1" d="M172.9 211.3H85.1c-5.4 0-10.1-3.6-11-8.6l-1.5-5.5c-.1-.5 0-1.1.3-1.5s.8-.7 1.3-.7h109.6c.5 0 1 .2 1.4.7s.4 1 .3 1.5l-1.5 5.5c-1 5-5.6 8.6-11 8.6Zm-96.5-12.9.9 3.4v.1c.6 3.4 3.9 5.9 7.7 5.9h87.8c3.8 0 7.1-2.5 7.7-5.9v-.1l.9-3.4H76.3Z"/><path class="cls-2" d="M73.1 193.9 69 145.7c0-4.3 4.4-7.8 9.8-7.8h100.4c5.4 0 9.8 3.5 9.8 7.8l-4.1 48.2c0 4.3-4.4 7.8-9.8 7.8H82.9c-5.4 0-9.8-3.5-9.8-7.8Z"/><path class="cls-1" d="M175.1 203.5H82.9c-6.3 0-11.5-4.2-11.5-9.5l-4.1-48.1c0-5.4 5.2-9.7 11.5-9.7h100.4c6.4 0 11.5 4.3 11.5 9.5 0 .1-4.1 48.3-4.1 48.3 0 5.2-5.2 9.5-11.5 9.5ZM70.7 145.7l4.1 48.1c0 3.5 3.6 6.3 8.1 6.3h92.2c4.5 0 8.1-2.8 8.1-6.1 0-.1 4.1-48.2 4.1-48.2 0-3.4-3.7-6.1-8.1-6.1H78.8c-4.4 0-8.1 2.7-8.1 6.1Z"/><ellipse class="cls-4" cx="129" cy="174.3" rx="5.8" ry="4.4"/><path class="cls-4" d="m204.6 176.3.7 4.8c-4.2.4-7.6 2.1-9.6 4.8-2.3 3.1-2.3 7.2 0 10.7 1.2 1.9 4.9 6.1 13.1 7.2 1.3 3.5 5.1 6 9.5 6h7.8c5 0 9.2-3.2 9.9-7.4l3.7-25.9h-35.1Zm-2.9 17.3c-1-1.6-1.1-3.3-.1-4.6.8-1.1 2.4-1.8 4.6-2l1.5 10.3c-3.6-.9-5.3-2.8-5.9-3.7Z"/><path class="cls-1" d="M226 211.4h-7.8c-4.7 0-8.9-2.4-10.7-6.1-3.4-.6-6.4-1.7-8.9-3.4-2.3-1.6-3.7-3.3-4.4-4.4-2.6-4.1-2.6-8.9 0-12.6 2-2.7 5.1-4.5 9.1-5.2l-.4-3c0-.5 0-1 .4-1.4s.8-.6 1.3-.6h35.1c.5 0 1 .2 1.3.6s.5.9.4 1.4l-3.7 25.9c-.4 2.5-1.8 4.8-4 6.5-2.1 1.6-4.8 2.5-7.6 2.5ZM206.6 178l.4 2.8c0 .5 0 1-.4 1.3-.3.4-.7.6-1.2.7-3.7.3-6.7 1.8-8.4 4.1-1.8 2.5-1.8 5.8 0 8.7 1 1.6 4.2 5.4 11.8 6.4.6 0 1.2.5 1.4 1.1 1.1 2.9 4.3 4.8 7.9 4.8h7.8c4.1 0 7.6-2.6 8.2-5.9l3.4-23.9h-31Zm1 21h-.4c-4.2-1.1-6.1-3.3-6.9-4.5-1.4-2.2-1.4-4.7-.1-6.5 1.1-1.6 3.2-2.5 5.8-2.7.9 0 1.7.6 1.9 1.5l1.5 10.3c0 .6-.1 1.2-.6 1.6-.3.3-.7.4-1.2.4Zm-3-10c-.8.2-1.3.6-1.7 1-.5.6-.4 1.6.2 2.6.3.4.9 1.2 2.2 2l-.8-5.6ZM215.9 171.2c-.5 0-.9-.2-1.2-.7-.4-.6-.2-1.5.5-1.9h.1c.4-.2.9-.5.9-1.6s-.7-1.3-1.3-2c-.9-1-2-2.2-2-3.8s.4-3 2.3-4c.6-.4 1.5-.2 1.9.5.4.6.2 1.5-.5 1.9h-.1c-.3.2-.9.5-.9 1.6s.7 1.3 1.3 2c.9 1 2 2.2 2 3.8 0 2.8-1.7 3.7-2.3 4-.2.1-.4.2-.7.2ZM222.1 171.2c-.5 0-.9-.2-1.2-.7-.4-.6-.2-1.5.5-1.9h.1c.4-.2.9-.5.9-1.6s-.7-1.3-1.3-2c-.9-1-2-2.2-2-3.8s.4-3 2.3-4c.6-.4 1.5-.2 1.9.5.4.6.2 1.5-.5 1.9h-.1c-.3.2-.9.5-.9 1.6s.7 1.3 1.3 2c.9 1 2 2.2 2 3.8 0 2.8-1.7 3.7-2.3 4-.2.1-.4.2-.7.2ZM228.3 171.2c-.5 0-.9-.2-1.2-.7-.4-.6-.2-1.5.5-1.9h.1c.4-.2.9-.5.9-1.6s-.7-1.3-1.3-2c-.9-1-2-2.2-2-3.8s.4-3 2.3-4c.6-.4 1.5-.2 1.9.5.4.6.2 1.5-.5 1.9h-.1c-.3.2-.9.5-.9 1.6s.7 1.3 1.3 2c.9 1 2 2.2 2 3.8 0 2.8-1.7 3.7-2.3 4-.2.1-.4.2-.7.2Z"/><path class="cls-2" d="M36.1 193.3s-.9-16.8-4.8-28.3-13.1-23-25.6-30.1c21.6 29.2 30.4 58.4 30.4 58.4Z"/><path class="cls-2" d="M36.1 194.5c-.5 0-1-.3-1.1-.8 0 0-2.2-7.4-7-18.1-4.4-9.9-12.1-24.9-23.1-39.9-.3-.4-.3-1.1 0-1.5s1-.5 1.5-.2c12.2 6.9 22 18.4 26.1 30.8 2 6 3.2 13.5 3.9 18.7.7 5.6 1 9.9 1 9.9 0 .6-.4 1.1-1 1.2h-.2Zm-25.9-55.3c9.3 13.5 15.9 26.5 19.9 35.4 1.6 3.6 2.9 6.8 3.9 9.5-.7-5.6-1.9-12.9-3.8-18.7-3.4-10.1-10.7-19.6-20-26.2Z"/><path class="cls-2" d="M35.9 193.2s1.1-22.8 3.5-34.7 15.9-24.9 19.5-26.9c-13.2 19.7-23 61.7-23 61.7Z"/><path class="cls-2" d="M35.9 194.4h-.2c-.6 0-1-.6-1-1.2 0-.2 1.1-23.1 3.5-34.9 1.4-6.7 6-13.3 9.6-17.7 4.1-5 8.5-8.9 10.5-10 .5-.3 1.1-.2 1.4.2.4.4.4 1 .1 1.4-12.9 19.3-22.7 60.9-22.8 61.3-.1.5-.6.9-1.1.9Zm18.4-57.5c-1.5 1.5-3.1 3.2-4.8 5.2-6.2 7.6-8.4 13.2-9.1 16.7-1.2 6.1-2.1 15.1-2.7 22.4 1-3.5 2.1-7.5 3.5-11.7 4.3-13.6 8.7-24.5 13-32.6ZM35.3 179.7s1.3-26.4-2.4-36c-4.2-11-13.5-23.6-13.5-23.6s3.8 20.2 5 25.7c2.6 13 11 34 11 34Z"/><path class="cls-2" d="M35.3 180.9c-.5 0-.9-.3-1.1-.7 0-.2-8.4-21.3-11-34.2-1.1-5.4-4.9-25.5-5-25.7-.1-.5.2-1.1.7-1.3.5-.2 1.1 0 1.4.4.4.5 9.4 12.8 13.7 23.9 3.7 9.7 2.5 35.4 2.5 36.5 0 .6-.4 1-1 1.1h-.2Zm-13.8-55.6c1.2 6.4 3.2 16.6 3.9 20.2 1.8 8.7 6.2 21.2 8.8 28.3.2-8.3 0-23.2-2.5-29.8-2.6-6.8-7.2-14.2-10.3-18.8Z"/><path class="cls-4" d="M49.5 203.8H21.3l-4.4-19.2h37l-4.4 19.2z"/><path class="cls-1" d="M49.5 205.6H21.3c-.8 0-1.5-.6-1.7-1.4L15.2 185c-.1-.5 0-1.1.3-1.5.3-.4.8-.7 1.4-.7h37c.5 0 1 .2 1.4.7.3.4.5 1 .3 1.5l-4.4 19.2c-.2.8-.9 1.4-1.7 1.4Zm-26.8-3.5h25.4l3.6-15.7H19.1l3.6 15.7ZM72.2 61.4h-.3c-.9-.2-1.6-1.1-1.4-2 .1-.7.2-1.3.3-2l-.9.3c-2.4.8-5.2.8-7.6.2-1.3-.4-2.5-.9-3.5-1.7-2.2 0-4.5-.5-6.4-1.6-5-2.7-7.9-8.7-6.8-14.2.3-1.3.7-2.6 1.4-3.8-.9.3-1.8 0-2.2-.9-1.3-2.9-1.6-6.3-.8-9.6.8-3.2 2.6-6.2 5-8.3 4.7-4.1 11.8-5.4 18.2-3.3 3.4 1.1 6.4 3.2 8.6 6 2.4 3 3.6 6.5 3.4 9.9 0 1.5-.5 3-1.1 4.5 1.3 2.3 2.3 4.9 2.7 7.5.9 5.2-1.7 10.2-6.3 13.3 0 1.7-.2 3.2-.4 4.4-.2.8-.9 1.5-1.7 1.5ZM65 54.9c1.3 0 2.6 0 3.7-.4.7-.2 1.3-.5 1.9-.8-.1-1-.3-2-.6-2.8-.6.8-1.3 1.5-2.1 2.2-.9.8-1.9 1.4-3 1.9Zm-5.6-7.3c-.4 1.2-.4 2.7 0 4 .2.4.3.7.6 1.1 2.1-.2 4.1-1 5.7-2.4 1-.8 1.8-1.8 2.4-2.9-1.8 1.9-4.6 2.3-7.5 1-.4-.2-.8-.4-1.2-.7Zm-8.3-10.9c-1.1 1.2-1.9 2.7-2.2 4.3-.8 4 1.4 8.5 5 10.5.7.4 1.4.6 2.1.8-.8-2.4-.6-5 .5-7.1-.3-.3-.6-.7-.8-.9-1.8-2.3-3.9-4.7-4.6-7.6ZM72.2 47c.8 1.4 1.4 3 1.7 4.5 2.3-2.1 3.9-5.1 3.3-8.6-.3-1.6-.8-3.2-1.4-4.7-.8.9-1.6 1.7-2.6 2.3.2 2.2-.2 4.5-1 6.5Zm-10.5-2s.2 0 .3.1c1.6.7 2.6.5 3.2 0-1-.5-2-.6-2.5-.5-.4 0-.7.2-1 .3ZM56 39.1c.7 1 1.5 1.9 2.3 2.9.2.3.3.5.5.6.4-.3.8-.5 1.3-.8-1.5-.7-3-1.6-4.2-2.8Zm7.4-3.6c-.5.9.1 2.3 1.2 2.9.4.2.9.4 1.5.5-.6-1.3-1.5-2.5-2.7-3.4Zm-7-1.9c.2.5.4.9.7 1.3.7 1.2 1.7 2.2 2.9 2.9-.4-1.3-.3-2.8.3-4-.9-.3-1.8-.4-2.8-.3-.4 0-.7 0-1.1.1Zm8.9-2.6c1 0 2 .2 2.9.7 1.7.9 3.1 2.5 4 4.7.5-.5 1-1.1 1.4-1.8-1.6-2.2-3.7-4.1-6.1-5.4-2.6-1.5-5.6-1.9-8.1-1.2-1.4.4-2.6 1.2-3.5 2.2.4 0 .9-.1 1.3-.1 2-.1 4.1.4 6 1.3.2 0 .4-.1.5-.1.5-.1.9-.1 1.4-.1Zm-4.5-14c-3.6 0-7.1 1.2-9.7 3.5-3.9 3.4-5.4 9.4-3.3 13.9.1.2.2.5.2.7.9-1.1 1.9-2.1 3.1-2.9.2-.9.6-1.8 1.1-2.6 0-2.3.6-4.5 1.7-6.5 1.6-2.8 4.4-5 7.5-6h-.5Zm1.1 7.1c2.4 0 5 .7 7.3 2 2.2 1.2 4.1 2.8 5.8 4.7.2-1 .2-2 0-3-.8-4.4-4.8-7.9-9.3-8-3.5-.1-7.1 1.9-8.9 5-.1.2-.2.5-.4.7.6-.3 1.3-.6 2-.8 1.1-.3 2.2-.5 3.4-.5Z"/><path class="cls-3" d="M182.2 106.2c-1 2.2-3.6 3.3-5.9 2.3s-3.3-3.6-2.3-5.9c1-2.2 3.6-3.3 5.9-2.3 2.2 1 3.3 3.6 2.3 5.9Zm-3-13.9c1.7-3.8 3.4-3.9 6.5-3.9 3.6 0 5-.7 5.9-2.7 1-2.3 0-4.2-2.6-5.4-2.8-1.2-4.5-1-6.6 1-1.6 1.6-2.4 1.8-3.9 1.1-2.4-1.1-3.4-3-2.5-5.1 1.4-3.1 7.4-7.2 16-3.5 6.8 3 9.4 8.7 6.8 14.6-3 6.9-8.8 6.8-11.4 6.7-1.1 0-1.3.5-2.2 2.5-.8 1.8-2.4 2.2-4.6 1.2-2.2-1-3.1-2.5-2.3-4.3l1-2.3ZM175 26.4c-.7 1.8-2.7 2.6-4.5 1.9-1.8-.7-2.6-2.7-1.9-4.5s2.7-2.6 4.5-1.9c1.8.7 2.6 2.7 1.9 4.5Zm-2.6-10.8c1.2-3 2.6-3.1 5-3.2 2.8-.1 3.9-.7 4.5-2.2.7-1.8 0-3.3-2.1-4.2-2.2-.9-3.5-.7-5.1.9-1.2 1.2-1.8 1.4-3 .9-1.9-.8-2.7-2.3-2.1-3.9 1-2.4 5.6-5.8 12.3-3 5.3 2.2 7.5 6.6 5.6 11.2-2.2 5.4-6.7 5.5-8.7 5.5-.9 0-1 .4-1.7 2-.6 1.4-1.9 1.8-3.6 1-1.8-.7-2.4-1.9-1.9-3.3l.7-1.8ZM71.1 96.9c-2.1-3.6-1.1-5.1.6-7.6 2-2.9 2.3-4.5 1.2-6.4-1.3-2.2-3.4-2.5-5.9-1.1-2.6 1.5-3.4 3.1-3 6 .3 2.2 0 2.9-1.4 3.8-2.3 1.3-4.5 1-5.6-.9-1.7-2.9-1.5-10.3 6.5-15 6.4-3.7 12.6-2.6 15.8 3 3.8 6.5.4 11.1-1.2 13.2-.7.9-.4 1.3.7 3.3 1 1.7.3 3.3-1.7 4.5-2.1 1.2-3.8 1-4.8-.7L71 96.8Zm13.1 5.7c1.2 2.1.5 4.8-1.6 6.1s-4.8.5-6.1-1.6-.5-4.8 1.6-6.1 4.8-.5 6.1 1.6Z"/></svg>