<svg id="a" xmlns="http://www.w3.org/2000/svg" version="1.1" viewBox="0 0 964.2 317"><defs><clipPath id="clippath"><path class="cls-1" d="M247.6 83.9h.2c11.3-.2 14.1 10.5 12.3 20.1-2.5 12.7-12 17.3-17.4 15.6-5 20.1-15.4 27.2-25.6 31 1.1 8.6.5 17.2 11 25.9 5.3 4.5 19.9 7.3 28.9 10.4 14.3 5 26.5 12.4 31.3 24.5 4.3 10.8 4.4 59.2 3.8 68-.3 4.1-2.4 7.9-5.8 10.3-19.5 13.5-73.3 17.2-93.2 17.2s-73.7-3.8-93.2-17.2c-3.4-2.4-5.5-6.2-5.8-10.3-.6-8.8-.6-57.1 3.8-68 4.8-12.1 17-19.5 31.3-24.5 9-3.2 23.6-5.9 28.9-10.4 10.4-8.8 9.8-17.3 11-25.9-10.1-3.8-20.4-10.9-25.5-31-5.4 1.8-14.9-2.8-17.4-15.6-1.9-9.6.9-20.3 12.3-20h.2C119.2.5 193.1 10.5 193.1 10.5S267 .6 247.6 83.9Z"/></clipPath><clipPath id="clippath-1"><path class="cls-1" d="M916.4 83.9h.2c11.3-.2 14.1 10.5 12.3 20.1-2.5 12.7-12 17.3-17.4 15.6-5 20.1-15.4 27.2-25.5 31 1.1 8.6.5 17.2 11 25.9 5.3 4.5 19.9 7.3 28.9 10.4 14.3 5 26.5 12.4 31.3 24.5 4.3 10.8 4.4 59.2 3.8 68-.3 4.1-2.4 7.9-5.8 10.3-19.5 13.5-73.3 17.2-93.2 17.2s-73.7-3.8-93.2-17.2c-3.4-2.4-5.5-6.2-5.8-10.3-.6-8.8-.6-57.1 3.8-68 4.8-12.1 17-19.5 31.3-24.5 9-3.2 23.6-5.9 28.9-10.4 10.5-8.8 9.8-17.3 11-25.9-10.1-3.8-20.4-10.9-25.5-31-5.4 1.8-14.9-2.8-17.4-15.6-1.9-9.6.9-20.3 12.3-20h.2C788.3.6 862.1 10.5 862.1 10.5S936 .6 916.6 83.9Z"/></clipPath><style>.cls-1{fill:none}.cls-1,.cls-2,.cls-3,.cls-4,.cls-5{stroke-width:0}.cls-2{fill:#39b2bf}.cls-3{fill:#3f3f3f}.cls-4{fill:#d5eaff}.cls-5{fill:#fff}</style></defs><path class="cls-2" d="M193.1 158.9s-53.4.3-71.4-17.6l6.1-46.1C103-1.8 193.1 3.1 193.1 3.1s90.1-4.8 65.3 92.1l6.1 46.1c-18 17.9-71.4 17.6-71.4 17.6Z"/><path class="cls-3" d="M193.5 161.9h-.4c-2.5 0-54.9 0-73.6-18.4-.7-.7-1-1.6-.9-2.6l6.1-45.5c-7.8-31-4.9-55.2 8.8-71.9 8.6-10.5 21.7-17.9 37.8-21.4C182.7-.3 191.8 0 193.1 0c1.4 0 10.4-.3 21.8 2.1C231 5.6 244.1 13 252.7 23.5c13.6 16.6 16.6 40.8 8.8 71.9l6.1 45.5c.1.9-.2 1.9-.9 2.6-18.1 17.9-68 18.4-73.2 18.4Zm-68.6-21.7c7.2 6.3 20.9 11.1 39.7 13.6 15.2 2.1 28.4 2 28.5 2 .1 0 13.4 0 28.6-2.1 18.8-2.6 32.4-7.3 39.6-13.6l-5.9-44.6v-1.2c7.5-29.4 5-51.9-7.4-67.1-18.8-22.9-54.4-21.3-54.8-21.3h-.3s-9.2-.4-20.5 2c-10.3 2.2-24.5 7.4-34.3 19.3-12.4 15.2-14.9 37.7-7.4 67.1.1.4.1.8 0 1.2l-5.9 44.6Z"/><path class="cls-5" d="M247.6 83.9h.2c11.3-.2 14.1 10.5 12.3 20.1-2.5 12.7-12 17.3-17.4 15.6-5 20.1-15.4 27.2-25.6 31 1.1 8.6.5 17.2 11 25.9 5.3 4.5 19.9 7.3 28.9 10.4 14.3 5 26.5 12.4 31.3 24.5 4.3 10.8 4.4 59.2 3.8 68-.3 4.1-2.4 7.9-5.8 10.3-19.5 13.5-73.3 17.2-93.2 17.2s-73.7-3.8-93.2-17.2c-3.4-2.4-5.5-6.2-5.8-10.3-.6-8.8-.6-57.1 3.8-68 4.8-12.1 17-19.5 31.3-24.5 9-3.2 23.6-5.9 28.9-10.4 10.4-8.8 9.8-17.3 11-25.9-10.1-3.8-20.4-10.9-25.5-31-5.4 1.8-14.9-2.8-17.4-15.6-1.9-9.6.9-20.3 12.3-20h.2C123.8 1 193.1 3.1 193.1 3.1s68.8-2.9 54.5 80.8Z" style="clip-path:url(#clippath)"/><path class="cls-4" d="m159.2 41.8-5.5-3.5c1.8 1.2 3.6 2.4 5.5 3.5Z"/><path class="cls-2" d="M193.1 8.6S115.6.4 140.2 90.2l5.9-26.3s3.1-6.6 14.3-21.3l-1.2-.8c-1.9-1.1-3.7-2.3-5.5-3.5l5.5 3.5c34.9 21.1 81 22.1 81 22.1l5.9 26.3c24.5-89.8-53-81.6-53-81.6Z"/><path class="cls-3" d="M169.1 153.6c-.4 0-.7 0-1.1-.2-6.6-2.4-11.6-5.7-15.8-10.1-5.3-5.6-9.1-13.1-11.6-22.8v-.2c-.2-1-.4-1.8-.6-2.6-.4-1.6.7-3.2 2.3-3.6 1.6-.4 3.2.7 3.6 2.3.1.7.3 1.4.5 2.2v.2c5 19.6 14.8 25.6 23.7 28.9 1.6.6 2.4 2.3 1.8 3.9-.4 1.2-1.6 2-2.8 2Z"/><path class="cls-3" d="M141.1 122.9c-2.4 0-5-.7-7.5-2.2-3.1-1.8-8.5-6.3-10.5-16.2-1.5-7.6-.2-14.4 3.4-18.7 2.8-3.3 6.9-5 11.9-4.9 1.7 0 3 1.4 2.9 3.1 0 1.7-1.4 3-3.1 2.9-3.1 0-5.5.8-7.1 2.8-2.4 2.8-3.2 8.1-2.1 13.7.6 3.2 2.5 9.1 7.6 12.2 2.1 1.2 4.3 1.6 5.9 1.1 1.6-.5 3.3.3 3.8 1.9s-.4 3.3-1.9 3.8c-1.1.3-2.2.5-3.4.5ZM217.1 153.6c-1.2 0-2.4-.8-2.8-2-.6-1.6.2-3.3 1.8-3.9 5.7-2.1 10-4.9 13.6-8.6 4.6-4.9 7.9-11.5 10.1-20.3l.6-2.4c.4-1.6 1.9-2.7 3.6-2.3 1.6.3 2.7 2 2.3 3.6-.2.8-.4 1.7-.6 2.6-2.4 9.8-6.2 17.3-11.6 23-4.2 4.4-9.2 7.7-15.8 10.1-.4.1-.7.2-1.1.2Z"/><path class="cls-3" d="M245.1 122.9c-1.1 0-2.2-.2-3.3-.5-1.3-.4-2.2-1.5-2.2-2.9s1.4-3 3-3c.3 0 .6 0 .9.2 1.6.5 3.9 0 5.9-1.1 2.2-1.3 6.1-4.6 7.6-12.2 1.1-5.6.3-10.8-2.1-13.7-1.6-1.9-4-2.8-7.1-2.8-1.7 0-3.1-1.3-3.1-2.9 0-1.7 1.3-3.1 2.9-3.1 4.9-.1 9.1 1.6 11.9 4.9 3.7 4.3 4.9 11.2 3.4 18.7-1.9 9.9-7.4 14.4-10.5 16.2-2.4 1.4-5.1 2.2-7.5 2.2ZM140.2 93.2c-1.3 0-2.5-.9-2.9-2.2-.6-2.2-1.2-4.4-1.6-6.4-.4-1.6.6-3.2 2.3-3.6s3.2.7 3.6 2.3c.4 1.9 1 4 1.6 6.2.4 1.6-.5 3.3-2.1 3.7-.3 0-.5.1-.8.1Z"/><path class="cls-3" d="M246.1 93.2c-.3 0-.5 0-.8-.1-1.6-.4-2.6-2.1-2.1-3.7.6-2.1 1.1-4.2 1.6-6.2.4-1.6 2-2.7 3.6-2.3 1.6.4 2.6 2 2.3 3.6-.5 2-1 4.2-1.6 6.4-.4 1.3-1.6 2.2-2.9 2.2ZM193.1 310c-10.2 0-28.6-.9-47.2-3.6-22.8-3.2-38.8-8-47.7-14.2-4.2-2.9-6.8-7.5-7.1-12.6-.6-7.6-.8-57.3 4-69.3 4.6-11.5 15.4-20 33.1-26.2 2.9-1 6.2-2 9.8-3 7.1-2 15.1-4.3 18.2-6.9 8.1-6.8 8.7-13.1 9.5-20.4.1-1.2.2-2.4.4-3.6.2-1.7 1.7-2.8 3.4-2.6 1.7.2 2.8 1.7 2.6 3.4-.1 1.1-.3 2.3-.4 3.4-.8 7.5-1.7 16.1-11.6 24.4-4.2 3.5-12.4 5.9-20.5 8.1-3.4 1-6.7 1.9-9.4 2.9-16 5.6-25.6 13-29.5 22.8-3.9 9.8-4.2 57.1-3.5 66.6.2 3.3 1.9 6.2 4.5 8 8 5.5 23.6 10.1 45.1 13.2 18.2 2.6 36.4 3.5 46.3 3.5 22 0 73.3-4.1 91.5-16.7 2.6-1.8 4.3-4.8 4.5-8 .7-9.6.4-56.9-3.5-66.6-3.9-9.7-13.6-17.2-29.5-22.8-2.7-.9-6-1.9-9.4-2.9-8-2.3-16.3-4.6-20.5-8.1-10-8.4-10.9-16.9-11.6-24.4-.1-1.1-.2-2.3-.4-3.4-.2-1.7.9-3.2 2.6-3.4s3.2.9 3.4 2.6c.2 1.2.3 2.4.4 3.6.8 7.3 1.4 13.6 9.5 20.4 3.2 2.7 11.2 4.9 18.2 6.9 3.5 1 6.9 1.9 9.8 3 17.7 6.2 28.6 14.8 33.1 26.2 4.8 11.9 4.5 61.7 4 69.3-.4 5.1-3 9.7-7.1 12.6-8.9 6.2-25 10.9-47.7 14.2-18.6 2.6-37 3.6-47.2 3.6Z"/><path class="cls-3" d="M193.1 197.9c-28 0-33-4.4-34.7-5.9-1.3-1.1-1.4-3-.3-4.3 1.1-1.3 3-1.4 4.3-.3h.1c4.6 4.2 24.7 4.5 30.7 4.5s26.1-.3 30.7-4.4h.1c1.3-1.2 3.2-1 4.3.2 1.1 1.3.9 3.2-.3 4.3-1.2 1.1-3.2 2.5-8 3.7-6.1 1.5-15.1 2.3-26.7 2.3ZM169.1 153.6c-.4 0-.7 0-1.1-.2-6.9-2.6-12.1-6-16.4-10.8-5.5-6.1-9.3-14.2-11.7-24.9-.4-1.6.7-3.2 2.3-3.6 1.6-.4 3.2.7 3.6 2.3 4.8 21.4 14.9 27.8 24.2 31.3 1.6.6 2.4 2.3 1.8 3.9-.4 1.2-1.6 2-2.8 2ZM217.1 153.6c-1.2 0-2.4-.8-2.8-2-.6-1.6.2-3.3 1.8-3.9 16.8-6.3 21.7-19.3 24.2-31.3.4-1.6 2-2.7 3.6-2.3 1.6.3 2.7 2 2.3 3.6-2.3 10.7-6.1 18.8-11.6 24.9-4.3 4.8-9.5 8.2-16.4 10.8-.4.1-.7.2-1.1.2Z"/><path class="cls-2" d="M193.1 306.9c-22.3 0-85.3-4.7-96.7-22.6-.9-11.7-3.7-60.2 1.5-72.9 4.8-12.1 17-19.5 31.3-24.5 9-3.2 23.6-5.9 28.9-10.4l35 61.7 35-61.7c5.3 4.5 19.9 7.3 28.9 10.4 14.3 5 26.5 12.4 31.3 24.5 5.1 12.8 2.4 61.3 1.5 72.9-11.4 17.9-74.4 22.6-96.7 22.6Z"/><path class="cls-3" d="M193.1 241.2c-1.1 0-2.1-.6-2.6-1.5l-35-61.7c-.8-1.4-.3-3.3 1.1-4.1 1.4-.8 3.3-.3 4.1 1.1l32.4 57 32.4-57c.8-1.4 2.7-2 4.1-1.1s2 2.7 1.1 4.1l-35 61.7c-.5.9-1.5 1.5-2.6 1.5ZM179.9 251c-.5 0-1.1-.2-1.5-.5l-38.1-31.3c-.6-.4-.9-1.1-.9-1.8s.3-1.4.9-1.8l8.9-7.2-8.4-7.8c-.5-.5-.8-1.1-.8-1.8s.3-1.3.9-1.8l11.3-9.2c1-.8 2.5-.7 3.3.3.8 1 .7 2.5-.3 3.3l-9.2 7.5 8.4 7.8c.5.5.8 1.1.8 1.8s-.3 1.3-.9 1.8l-8.8 7.1 35.9 29.4c1 .8 1.1 2.3.3 3.3-.5.6-1.1.9-1.8.9ZM206.3 251c-.7 0-1.4-.3-1.8-.9-.8-1-.7-2.5.3-3.3l35.9-29.4-8.8-7.1c-.5-.4-.9-1.1-.9-1.8s.2-1.3.8-1.8l8.4-7.8-9.2-7.5c-1-.8-1.2-2.3-.3-3.3s2.3-1.2 3.3-.3l11.3 9.2c.5.4.8 1.1.9 1.8s-.3 1.3-.8 1.8l-8.4 7.8 8.9 7.2c.6.4.9 1.1.9 1.8s-.3 1.4-.9 1.8l-38.1 31.3c-.4.4-1 .5-1.5.5ZM246.1 93.2c-1.4 0-2.6-1-2.9-2.4l-5.4-24c-4.5-.2-15-1-28.1-3.6-16-3.1-38.9-9.5-57.6-22.5-1.4-1-1.7-2.8-.8-4.2.9-1.4 2.8-1.7 4.2-.8 34.2 23.7 84.3 25.1 84.8 25.1 1.4 0 2.6 1 2.9 2.4l3.4 15c.7-.6 1.6-.8 2.5-.6 1.6.3 2.7 1.9 2.3 3.6-.7 3.2-1.5 6.5-2.4 9.8-.4 1.3-1.6 2.2-2.9 2.2Z"/><path class="cls-3" d="M140.2 93.2c-1.4 0-2.6-.9-2.9-2.2-.8-3.1-1.6-6.1-2.2-9-.4-1.6.7-3.2 2.3-3.6.8-.2 1.6 0 2.3.4l3.5-15.5c0-.2.1-.4.2-.6.1-.3 3.3-7 14.6-21.9 1-1.3 2.9-1.6 4.2-.6 1.3 1 1.6 2.9.6 4.2-9.6 12.6-13.1 19.1-13.8 20.5l-5.8 25.9c-.3 1.3-1.5 2.3-2.9 2.4ZM237.9 53.3c-.5 0-1-.2-1.4-.6-13.2-12.9-37.5-26.2-56.4-31-1.1-.3-1.7-1.4-1.5-2.5.3-1.1 1.4-1.7 2.4-1.5 19.6 4.9 44.6 18.7 58.3 32.1.8.8.8 2 0 2.8-.4.4-.9.6-1.4.6ZM193.1 310c-10.2 0-28.6-.9-47.2-3.6-22.8-3.2-38.8-8-47.7-14.2-4.2-2.9-6.8-7.5-7.1-12.6-.6-7.6-.8-57.3 4-69.3 4.6-11.5 15.4-20 33.1-26.2 2.9-1 6.2-2 9.8-3 7.1-2 15.1-4.3 18.2-6.9 8.1-6.8 8.7-13.1 9.5-20.4.1-1.2.2-2.4.4-3.6.2-1.7 1.7-2.8 3.4-2.6 1.7.2 2.8 1.7 2.6 3.4-.1 1.1-.3 2.3-.4 3.4-.8 7.5-1.7 16.1-11.6 24.4-4.2 3.5-12.4 5.9-20.5 8.1-3.4 1-6.7 1.9-9.4 2.9-16 5.6-25.6 13-29.5 22.8-3.9 9.8-4.2 57.1-3.5 66.6.2 3.3 1.9 6.2 4.5 8 8 5.5 23.6 10.1 45.1 13.2 18.2 2.6 36.4 3.5 46.3 3.5 22 0 73.3-4.1 91.5-16.7 2.6-1.8 4.3-4.8 4.5-8 .7-9.6.4-56.9-3.5-66.6-3.9-9.7-13.6-17.2-29.5-22.8-2.7-.9-6-1.9-9.4-2.9-8-2.3-16.3-4.6-20.5-8.1-10-8.4-10.9-16.9-11.6-24.4-.1-1.1-.2-2.3-.4-3.4-.2-1.7.9-3.2 2.6-3.4s3.2.9 3.4 2.6c.2 1.2.3 2.4.4 3.6.8 7.3 1.4 13.6 9.5 20.4 3.2 2.7 11.2 4.9 18.2 6.9 3.5 1 6.9 1.9 9.8 3 17.7 6.2 28.6 14.8 33.1 26.2 4.8 11.9 4.5 61.7 4 69.3-.4 5.1-3 9.7-7.1 12.6-8.9 6.2-25 10.9-47.7 14.2-18.6 2.6-37 3.6-47.2 3.6ZM193.1 111.7c-.7 0-1.3-.6-1.3-1.3v-1.7c0-.7.6-1.3 1.3-1.3s1.3.6 1.3 1.3v1.7c0 .7-.6 1.3-1.3 1.3Z"/><ellipse class="cls-3" cx="172.1" cy="90" rx="4.9" ry="5.4"/><path class="cls-1" d="m154.5 86.4 1.2 12c.4 3.6 3.4 6.3 7 6.3h18c3.6 0 6.6-2.7 7-6.3l1.2-12h8.3l1.2 12c.4 3.6 3.4 6.3 7 6.3h18c3.6 0 6.6-2.7 7-6.3l1.2-12"/><ellipse class="cls-3" cx="214.1" cy="90" rx="4.9" ry="5.4"/><path class="cls-3" d="M195.4 131.1h-4.5c-1.3 0-2.4-1.1-2.4-2.4s1.1-2.3 2.4-2.3h4.5c1.3 0 2.4 1.1 2.4 2.3s-1.1 2.4-2.4 2.4ZM221 79.5h-.1c-3.9-.2-9.4-1.9-12.9-5.1-1-.9-1-2.4-.2-3.3.9-1 2.4-1 3.3-.2 2.3 2.1 6.4 3.7 10 3.9 1.3 0 2.3 1.2 2.2 2.5 0 1.2-1.1 2.2-2.3 2.2ZM165.2 79.5c-1.2 0-2.3-1-2.3-2.2 0-1.3.9-2.4 2.2-2.5 3.6-.2 7.8-1.8 10-3.9 1-.9 2.4-.8 3.3.2.9 1 .8 2.4-.2 3.3-3.5 3.2-9 4.8-12.9 5.1h-.2ZM99.9 87.4h-.5c-1.6-.3-2.8-1.8-2.5-3.5.2-1.2.3-2.3.4-3.4-.5.2-1.1.4-1.6.6-4.2 1.3-9 1.5-13.1.3-2.3-.6-4.4-1.6-6.1-2.9-3.9 0-7.7-.9-11.1-2.8C56.7 71 51.7 60.6 53.6 51c.5-2.3 1.3-4.5 2.4-6.5-1.5.6-3.2 0-3.9-1.5-2.3-5-2.8-10.9-1.4-16.7 1.4-5.6 4.4-10.7 8.6-14.4 8.1-7.1 20.5-9.4 31.4-5.8 5.8 1.9 11.1 5.6 14.9 10.4 4.1 5.1 6.2 11.2 5.9 17.1-.2 2.7-.8 5.3-1.9 7.7 2.3 4 3.9 8.4 4.7 13 1.5 9-2.8 17.7-10.9 23.1 0 2.9-.3 5.5-.7 7.6-.3 1.5-1.5 2.5-3 2.5ZM87.5 76.1c2.3.1 4.6-.2 6.5-.8 1.1-.4 2.3-.8 3.4-1.4-.2-1.7-.6-3.4-1.1-4.9-1.1 1.4-2.2 2.6-3.6 3.7-1.6 1.3-3.3 2.4-5.2 3.3Zm-9.7-12.6c-.7 2.1-.7 4.7.2 6.9.3.7.6 1.3 1 1.8 3.6-.4 7.1-1.8 9.8-4.1 1.7-1.4 3-3.1 4.1-5-3.2 3.3-8 3.9-13 1.6-.7-.3-1.4-.7-2.1-1.1ZM63.4 44.7c-1.9 2.1-3.2 4.7-3.8 7.5-1.3 6.9 2.4 14.8 8.8 18.2 1.1.6 2.4 1.1 3.6 1.4-1.3-4.1-1-8.6.9-12.3-.5-.6-1-1.1-1.4-1.6l-.2-.2c-3.2-3.8-6.7-7.8-7.9-13Zm36.5 17.8c1.5 2.5 2.4 5.1 3 7.7 4.1-3.7 6.7-8.8 5.7-15-.5-2.8-1.3-5.5-2.5-8.1-1.3 1.5-2.8 2.9-4.5 4.1.3 3.8-.3 7.7-1.7 11.2Zm-18-3.6c.2 0 .3.2.5.2 2.8 1.3 4.5.9 5.6.1-1.8-.8-3.4-1-4.3-.9-.7.1-1.3.3-1.8.5Zm-10-10.2c1.2 1.7 2.6 3.3 4 5l.2.2c.3.3.5.6.8.9.7-.5 1.4-.9 2.2-1.3-2.7-1.2-5.1-2.8-7.2-4.8Zm12.8-6.2c-.8 1.5.2 4 2.1 5.1.7.4 1.6.7 2.6.8-1-2.3-2.6-4.3-4.6-5.9Zm-12.1-3.2c.3.8.7 1.5 1.2 2.2 1.3 2 3 3.7 5 5-.7-2.3-.6-4.8.5-6.9-1.6-.5-3.2-.7-4.8-.6-.6 0-1.3.1-1.9.2Zm15.5-4.5c1.8 0 3.5.4 5 1.2 3 1.5 5.4 4.4 6.9 8.1.9-.9 1.8-2 2.5-3.1-2.8-3.8-6.4-7.1-10.5-9.4-4.6-2.5-9.7-3.3-13.9-2.1-2.4.7-4.5 2-6.1 3.7.8-.1 1.6-.2 2.3-.2 3.7-.2 7.2.7 10.4 2.3.3 0 .6-.2.9-.2.8-.2 1.6-.3 2.4-.3Zm-7.8-24.3c-6.2 0-12.3 2.1-16.8 6-6.8 6-9.3 16.3-5.8 24 .2.4.3.8.3 1.2 1.5-1.9 3.3-3.6 5.3-5 .4-1.6 1-3.1 1.9-4.5 0-3.9 1-7.9 3-11.3 2.8-4.9 7.5-8.6 12.9-10.4h-.8Zm1.9 12.4c4.2 0 8.7 1.2 12.7 3.4 3.8 2.1 7.2 4.9 10.1 8.2.3-1.7.3-3.5 0-5.3-1.3-7.5-8.4-13.6-16.1-13.9-6.2-.2-12.3 3.2-15.4 8.6l-.6 1.2c1.1-.6 2.3-1 3.5-1.4 1.9-.5 3.8-.8 5.8-.8Z"/><path class="cls-4" d="M302.4 67.1c-8.3 5.1-27.9 6.8-27.9 6.8s6.9-18.4 14.1-25.1c11.1-10.2 18-2 19.3-.2 1.3 1.7 7.4 10.6-5.4 18.5ZM295.7 100.3c-7.6-1.6-19.8-11.4-19.8-11.4s14.1-6.8 21.9-6.7c12 .2 11.4 8.8 11.2 10.5-.2 1.7-1.6 10.2-13.3 7.7Z"/><path class="cls-5" d="m60.5 302.5-2.2-8.8h158.6l-2.2 8.8c-1.1 6.6-6.9 11.4-13.6 11.4H74c-6.7 0-12.4-4.8-13.6-11.4Z"/><path class="cls-3" d="M201.2 317H74.1c-8.2 0-15.1-5.8-16.5-13.8l-2.2-8.6c-.2-.9 0-1.9.5-2.6.6-.7 1.5-1.2 2.4-1.2h158.6c.9 0 1.8.4 2.4 1.2.6.7.8 1.7.5 2.6l-2.2 8.6c-1.4 8-8.4 13.8-16.5 13.8Zm-139-20.2 1.3 5v.2c.9 5.2 5.3 8.9 10.6 8.9h127.1c5.2 0 9.7-3.8 10.6-8.9v-.2l1.3-5H62.2Z"/><path class="cls-5" d="M19.8 300.2 3 215.5c0-7.6 6.2-13.8 13.8-13.8h131.1c7.6 0 13.8 6.2 13.8 13.8l16.8 84.6c0 7.6-6.2 13.8-13.8 13.8H33.5c-7.6 0-13.8-6.2-13.8-13.8Z"/><path class="cls-3" d="M164.6 317H33.5c-9.1 0-16.6-7.4-16.8-16.5L0 216.1v-.6c0-9.2 7.5-16.8 16.8-16.8h131.1c9.1 0 16.6 7.4 16.8 16.5l16.7 84.4v.6c0 9.2-7.5 16.8-16.8 16.8ZM6.1 215.3l16.7 84.3v.6c0 5.9 4.8 10.7 10.7 10.7h131.1c5.8 0 10.6-4.7 10.7-10.5l-16.7-84.3v-.6c0-5.9-4.8-10.7-10.7-10.7H16.8c-5.8 0-10.6 4.7-10.7 10.5Z"/><circle class="cls-2" cx="90.7" cy="257.9" r="9.8"/><path class="cls-5" d="M262.8 262.5c-11.7-3.2-24.4-6.4-32-5.3-.9.1-3 1.8-5.6 4.3-1-1.3-6.1 1.6-7.8 2.4l-12.7 6.7c-1.8.9-3 2.7-3.2 4.7-.2 2.4 1 4.7 3.1 5.9.4.2.9.4 1.3.5-.5.6-.8.9-.8.9-1.3 1.5-1.8 3.6-1.3 5.5.6 2.3 2.6 4 5 4.4 2 .3 4-.5 5.3-2l3.3-3.7c-1.2 1.5-1.7 3.5-1.2 5.4.6 2.3 2.6 4 5 4.4 2 .3 4-.5 5.3-2l2.5-2.8c-1.1 1.5-1.5 3.4-1 5.2.6 2.3 2.6 4 5 4.4 2 .3 4-.5 5.3-2l3.2-3.5c-.9 1.4-1.1 3.1-.7 4.7.6 2.3 2.6 4 5 4.4 2 .3 4-.5 5.3-2l3-3.4s2.3-2.6 5.4-6.1c27.1 7.5 44.6-19.8 3.5-31.2Z"/><path class="cls-3" d="M221.9 299.7h-1.3c-3.6-.5-6.5-3.1-7.5-6.6-.8-2.8-.1-5.9 1.8-8.1h.1v-.2l13.4-15.2c1.1-1.2 3-1.4 4.3-.3 1.2 1.1 1.4 3 .3 4.3l-1.9 2.1-11.5 13.1c-.6.7-.8 1.7-.6 2.7.3 1.1 1.3 2 2.5 2.2 1 .1 2-.2 2.6-1l16.6-18.8c1.1-1.2 3-1.4 4.3-.3 1.2 1.1 1.4 3 .3 4.3l-16.6 18.8c-1.7 2-4.2 3.1-6.8 3.1Z"/><path class="cls-3" d="M246.5 308.1h-1.3c-3.6-.5-6.5-3.1-7.5-6.6-.6-2.4-.3-5 1.1-7.1.2-.4.6-.8.9-1.2l12.5-13.5c1.1-1.2 3-1.3 4.3-.2 1.2 1.1 1.3 3 .2 4.3l-12.4 13.5c-.1.1-.2.2-.2.3-.4.7-.6 1.6-.4 2.4.3 1.1 1.3 2 2.5 2.2 1 .1 2-.2 2.6-1l3-3.4s2.3-2.6 5.4-6.1c.8-.9 2-1.2 3.1-.9 12.1 3.4 22.1-1 23.8-7.1 1.4-5.2-3.4-13.1-22-18.2-11.2-3.1-23.5-6.1-30.5-5.2-.3.2-1.5.9-4.2 3.5-6.5 6-16.3 16.9-19.1 20-.5.5-.8.9-.8.9-.7.8-.9 1.8-.6 2.7.3 1.2 1.3 2 2.5 2.2 1 .1 2-.2 2.6-1l14.9-16.9c1.1-1.2 3-1.4 4.3-.3 1.2 1.1 1.4 3 .3 4.3l-14.9 16.9c-2 2.3-5 3.4-8 3-3.6-.5-6.5-3.1-7.5-6.6-.8-2.9 0-6 1.9-8.3 0 0 .3-.3.8-.9 2.9-3.2 12.8-14.2 19.5-20.4 4.2-4 5.9-4.9 7.3-5.1 8.1-1.2 20.8 1.9 33.3 5.4 22.8 6.3 28.5 17.4 26.1 25.7-1.3 4.8-5.4 8.8-11.2 11-5.3 2-11.8 2.3-18.2.8-2.4 2.8-4.1 4.7-4.1 4.7l-3 3.4c-1.7 2-4.2 3-6.8 3Zm-15.3-47.9Z"/><path class="cls-3" d="M233.7 304.5h-1.2c-3.6-.5-6.5-3.1-7.5-6.6-.8-2.9 0-6 1.9-8.3l13.8-15.6c1.1-1.2 3-1.4 4.3-.3 1.2 1.1 1.4 3 .3 4.3l-13.8 15.6c-.7.8-.9 1.8-.6 2.8.3 1.1 1.3 2 2.5 2.2 1 .1 2-.2 2.6-1l16.2-17.8c1.1-1.2 3-1.3 4.3-.2s1.3 3 .2 4.3l-16.2 17.8c-1.7 1.9-4.2 3-6.8 3ZM205.9 284.7c-.2 0-.5 0-.8-.1-.7-.2-1.4-.5-2-.8-3.2-1.7-5-5.2-4.6-8.8.3-3 2.1-5.7 4.8-7.1l13.1-6.9c3.7-2 8.8-4.7 11.3-1.4 1 1.3.8 3.2-.6 4.2-.9.7-2.1.8-3.1.4-.6.2-2 .7-4.8 2.2l-.3.2-12.7 6.7c-.9.5-1.5 1.3-1.6 2.4-.1 1.2.5 2.3 1.5 2.9.2.1.4.2.6.2 1.6.4 2.6 2.1 2.1 3.7-.4 1.4-1.6 2.3-2.9 2.3Zm16.8-21.4Z"/><path class="cls-2" d="M861.9 158.9s-53.4.3-71.5-17.6l6.1-46.1c-24.7-97 65.4-92.1 65.4-92.1s90.1-4.8 65.3 92.1l6.1 46.1c-18 17.9-71.5 17.6-71.5 17.6Z"/><path class="cls-3" d="M862.3 161.9h-.4c-2.5 0-54.9 0-73.6-18.4-.7-.7-1-1.6-.9-2.6l6.1-45.5c-7.8-31-4.9-55.2 8.8-71.9C810.9 13 824 5.6 840.1 2.1 851.5-.3 860.5 0 861.9 0c1.3 0 10.4-.3 21.8 2.1 16.1 3.5 29.2 10.9 37.8 21.4 13.7 16.6 16.6 40.8 8.8 71.9l6.1 45.5c.1.9-.2 1.9-.9 2.6-18.1 17.9-68 18.4-73.2 18.4Zm-.4-6.1h.2c1.4 0 14.1 0 28.5-2.1 18.8-2.6 32.4-7.3 39.6-13.6l-5.9-44.6v-1.2c7.5-29.3 5-51.9-7.4-67.1-9.7-11.9-24-17-34.3-19.3-11.3-2.5-20.4-2-20.5-2h-.3s-9.2-.4-20.5 2c-10.3 2.2-24.5 7.4-34.3 19.3-12.4 15.2-14.9 37.7-7.4 67.1 0 .4.1.8 0 1.2l-5.9 44.6c7.2 6.3 20.9 11 39.6 13.6 15.2 2.1 28.5 2.1 28.6 2.1Z"/><path class="cls-5" d="M916.4 83.9h.2c11.3-.2 14.1 10.5 12.3 20.1-2.5 12.7-12 17.3-17.4 15.6-5 20.1-15.4 27.2-25.5 31 1.1 8.6.5 17.2 11 25.9 5.3 4.5 19.9 7.3 28.9 10.4 14.3 5 26.5 12.4 31.3 24.5 4.3 10.8 4.4 59.2 3.8 68-.3 4.1-2.4 7.9-5.8 10.3-19.5 13.5-73.3 17.2-93.2 17.2s-73.7-3.8-93.2-17.2c-3.4-2.4-5.5-6.2-5.8-10.3-.6-8.8-.6-57.1 3.8-68 4.8-12.1 17-19.5 31.3-24.5 9-3.2 23.6-5.9 28.9-10.4 10.5-8.8 9.8-17.3 11-25.9-10.1-3.8-20.4-10.9-25.5-31-5.4 1.8-14.9-2.8-17.4-15.6-1.9-9.6.9-20.3 12.3-20h.2c-15-83 54.3-80.9 54.3-80.9s68.8-2.9 54.5 80.8Z" style="clip-path:url(#clippath-1)"/><path class="cls-4" d="m828 41.8-5.5-3.5c1.8 1.2 3.6 2.4 5.5 3.5Z"/><path class="cls-2" d="M861.9 8.6S784.4.5 809 90.2l5.9-26.3s3.1-6.6 14.3-21.3l-1.2-.8c-1.9-1.1-3.7-2.3-5.5-3.5l5.5 3.5c34.9 21.1 81 22.1 81 22.1l5.9 26.3c24.5-89.8-53-81.6-53-81.6Z"/><path class="cls-3" d="M837.9 153.6c-.3 0-.7 0-1.1-.2-6.6-2.4-11.6-5.7-15.8-10.1-5.3-5.6-9.1-13.1-11.6-22.8v-.2c-.2-1-.4-1.8-.6-2.6-.4-1.6.7-3.2 2.3-3.6 1.6-.4 3.2.7 3.6 2.3.2.7.3 1.4.5 2.2v.2c5 19.6 14.8 25.6 23.7 28.9 1.6.6 2.4 2.3 1.8 3.9-.5 1.2-1.6 2-2.8 2Z"/><path class="cls-3" d="M809.9 122.9c-2.4 0-5-.7-7.5-2.2-3.1-1.8-8.5-6.3-10.5-16.2-1.5-7.6-.2-14.4 3.4-18.7 2.8-3.3 6.9-5 11.9-4.9 1.7 0 3 1.4 3 3.1s-1.4 3-3.1 2.9c-3.2 0-5.5.8-7.1 2.8-2.4 2.8-3.2 8.1-2.1 13.7.6 3.2 2.5 9.1 7.6 12.2 2.1 1.2 4.3 1.6 5.9 1.1 1.6-.5 3.3.3 3.8 1.9.5 1.6-.3 3.3-1.9 3.8-1.1.3-2.2.5-3.4.5ZM886 153.6c-1.2 0-2.4-.8-2.8-2-.6-1.6.2-3.3 1.8-3.9 5.7-2.1 10-4.9 13.6-8.6 4.6-4.9 8-11.5 10.1-20.3l.6-2.4c.3-1.6 2-2.7 3.6-2.3s2.7 2 2.3 3.6c-.2.8-.4 1.7-.6 2.6-2.4 9.8-6.2 17.3-11.6 23-4.2 4.4-9.2 7.7-15.8 10.1-.3.1-.7.2-1.1.2Z"/><path class="cls-3" d="M913.9 122.9c-1.1 0-2.2-.2-3.3-.5-1.3-.4-2.2-1.5-2.2-2.9s1.3-3 3-3c.3 0 .6 0 .9.2 1.6.5 3.9 0 5.9-1.1 2.2-1.3 6.1-4.6 7.6-12.2 1.1-5.6.3-10.8-2.1-13.7-1.6-1.9-4-2.8-7.1-2.8-1.7 0-3-1.3-3.1-2.9 0-1.7 1.3-3.1 3-3.1 5-.1 9 1.6 11.9 4.9 3.7 4.3 4.9 11.2 3.4 18.7-1.9 9.9-7.4 14.4-10.5 16.2-2.5 1.4-5 2.2-7.5 2.2ZM809 93.2c-1.3 0-2.5-.9-2.9-2.2-.6-2.2-1.2-4.4-1.6-6.4-.4-1.6.7-3.2 2.3-3.6s3.2.7 3.6 2.3c.4 1.9 1 4 1.5 6.2.4 1.6-.5 3.3-2.1 3.7-.3 0-.5.1-.8.1Z"/><path class="cls-3" d="M914.8 93.2c-.3 0-.5 0-.8-.1-1.6-.4-2.6-2.1-2.1-3.7.6-2.1 1.1-4.2 1.5-6.2.4-1.6 2-2.7 3.6-2.3s2.7 2 2.3 3.6c-.5 2-1 4.2-1.6 6.4-.4 1.3-1.6 2.2-2.9 2.2ZM861.9 310c-10.2 0-28.6-.9-47.2-3.6-22.8-3.2-38.8-8-47.7-14.2-4.2-2.9-6.8-7.5-7.1-12.6-.6-7.6-.8-57.3 4-69.3 4.6-11.5 15.4-20 33.1-26.2 2.9-1 6.2-2 9.8-3 7.1-2 15-4.3 18.2-6.9 8.1-6.8 8.7-13.1 9.5-20.4.1-1.2.2-2.4.4-3.6.2-1.7 1.7-2.8 3.4-2.6 1.7.2 2.8 1.7 2.6 3.4-.2 1.1-.3 2.3-.4 3.4-.8 7.5-1.7 16.1-11.6 24.4-4.2 3.5-12.5 5.9-20.5 8.1-3.4 1-6.7 1.9-9.4 2.9-16 5.6-25.6 13-29.5 22.8-3.9 9.8-4.2 57.1-3.5 66.6.2 3.3 1.9 6.2 4.5 8 8 5.5 23.6 10.1 45.1 13.2 18.2 2.6 36.4 3.5 46.3 3.5 22 0 73.3-4.1 91.5-16.7 2.6-1.8 4.3-4.8 4.5-8 .7-9.6.4-56.9-3.5-66.6-3.9-9.7-13.6-17.2-29.5-22.8-2.7-.9-6-1.9-9.4-2.9-8-2.3-16.3-4.6-20.5-8.1-10-8.4-10.8-16.9-11.6-24.4-.1-1.1-.2-2.3-.4-3.4-.2-1.7 1-3.2 2.6-3.4s3.2.9 3.4 2.6c.2 1.2.3 2.4.4 3.6.8 7.3 1.4 13.6 9.5 20.4 3.2 2.7 11.2 4.9 18.2 6.9 3.5 1 6.9 1.9 9.8 3 17.7 6.2 28.6 14.8 33.2 26.2 4.8 11.9 4.5 61.7 4 69.3-.4 5.1-3 9.7-7.1 12.6-8.9 6.2-25 10.9-47.7 14.2-18.6 2.6-37 3.6-47.2 3.6ZM861.9 111.3c-.7 0-1.3-.6-1.3-1.3v-1.7c0-.7.6-1.3 1.3-1.3s1.3.6 1.3 1.3v1.7c0 .7-.6 1.3-1.3 1.3Z"/><path class="cls-3" d="M861.9 197.9c-28 0-33-4.4-34.7-5.9-1.3-1.1-1.4-3-.3-4.3 1.1-1.3 3-1.4 4.3-.3h.1c4.6 4.2 24.7 4.5 30.7 4.5s26.1-.3 30.7-4.4h.1c1.3-1.2 3.2-1 4.3.2 1.1 1.3.9 3.2-.3 4.3-1.2 1.1-3.2 2.5-8 3.7-6.1 1.5-15.1 2.3-26.7 2.3ZM834.3 78.5c-.6 0-1.2-.2-1.7-.7-.9-.9-.8-2.4 0-3.3 3.5-3.3 9.7-4.2 14.8-2.2 1.2.5 1.8 1.8 1.3 3.1-.5 1.2-1.8 1.8-3 1.3-3.7-1.5-7.9-.5-9.8 1.3-.5.4-1 .6-1.6.6ZM837.9 153.6c-.3 0-.7 0-1.1-.2-6.9-2.6-12.1-6-16.3-10.8-5.5-6.1-9.3-14.2-11.7-24.9-.4-1.6.7-3.2 2.3-3.6 1.6-.4 3.2.7 3.6 2.3 4.8 21.4 15 27.8 24.2 31.3 1.6.6 2.4 2.3 1.8 3.9-.5 1.2-1.6 2-2.8 2ZM886 153.6c-1.2 0-2.4-.8-2.8-2-.6-1.6.2-3.3 1.8-3.9 16.8-6.3 21.7-19.3 24.2-31.3.3-1.6 2-2.7 3.6-2.3s2.7 2 2.3 3.6c-2.3 10.7-6.1 18.8-11.6 24.9-4.3 4.8-9.5 8.2-16.4 10.8-.3.1-.7.2-1.1.2Z"/><path class="cls-2" d="M861.9 306.9c-22.3 0-85.3-4.7-96.7-22.6-.9-11.7-3.7-60.2 1.5-72.9 4.8-12.1 17-19.5 31.3-24.5 9-3.2 23.6-5.9 28.9-10.4l35 61.7 35-61.7c5.3 4.5 19.9 7.3 28.9 10.4 14.3 5 26.5 12.4 31.3 24.5 5.1 12.8 2.4 61.3 1.5 72.9-11.4 17.9-74.4 22.6-96.7 22.6Z"/><path class="cls-3" d="M861.9 241.2c-1.1 0-2.1-.6-2.6-1.5l-35-61.7c-.8-1.4-.3-3.3 1.1-4.1 1.5-.8 3.3-.3 4.1 1.1l32.4 57 32.4-57c.8-1.4 2.7-2 4.1-1.1s2 2.7 1.1 4.1l-35 61.7c-.5.9-1.5 1.5-2.6 1.5ZM848.7 251c-.5 0-1-.2-1.5-.5l-38.1-31.3c-.5-.4-.9-1.1-.9-1.8s.3-1.4.9-1.8l8.9-7.2-8.4-7.8c-.5-.5-.8-1.1-.8-1.8s.3-1.3.9-1.8l11.3-9.2c1-.8 2.5-.7 3.3.3s.7 2.5-.3 3.3l-9.2 7.5 8.4 7.8c.5.5.8 1.1.8 1.8s-.3 1.3-.9 1.8l-8.8 7.1 35.9 29.4c1 .8 1.2 2.3.3 3.3-.5.6-1.1.9-1.8.9ZM875.1 251c-.7 0-1.3-.3-1.8-.9-.8-1-.7-2.5.3-3.3l35.9-29.4-8.8-7.1c-.5-.4-.8-1.1-.9-1.8s.2-1.3.8-1.8l8.4-7.8-9.2-7.5c-1-.8-1.2-2.3-.3-3.3.8-1 2.3-1.2 3.3-.3l11.3 9.2c.5.4.8 1.1.9 1.8 0 .7-.3 1.3-.8 1.8l-8.4 7.8 8.9 7.2c.5.4.9 1.1.9 1.8s-.3 1.4-.9 1.8l-38.1 31.3c-.4.4-1 .5-1.5.5ZM914.8 93.2c-1.4 0-2.6-1-2.9-2.4l-5.4-24c-4.5-.2-15-1-28.1-3.6-16-3.1-38.9-9.5-57.6-22.5-1.4-1-1.7-2.8-.8-4.2 1-1.4 2.8-1.7 4.2-.8 34.2 23.7 84.3 25.1 84.8 25.1 1.4 0 2.6 1 2.9 2.4l3.4 15c.7-.6 1.6-.8 2.5-.6 1.6.3 2.7 1.9 2.3 3.6-.7 3.2-1.5 6.5-2.4 9.8-.4 1.3-1.6 2.2-2.9 2.2Z"/><path class="cls-3" d="M809 93.2c-1.4 0-2.5-.9-2.9-2.2-.8-3.1-1.6-6.1-2.2-9-.3-1.6.7-3.2 2.3-3.6.8-.2 1.6 0 2.3.4l3.5-15.5c0-.2.1-.4.2-.6.1-.3 3.3-7 14.6-21.9 1-1.3 2.9-1.6 4.2-.6 1.3 1 1.6 2.9.6 4.2-9.6 12.6-13.2 19.1-13.8 20.5L812 90.8c-.3 1.3-1.5 2.3-2.9 2.4ZM906.7 53.3c-.5 0-1-.2-1.4-.6-13.2-12.9-37.5-26.2-56.5-31-1.1-.3-1.7-1.4-1.5-2.5.3-1.1 1.4-1.7 2.5-1.5 19.6 4.9 44.6 18.7 58.3 32.1.8.8.8 2 0 2.8-.4.4-.9.6-1.4.6ZM861.9 310c-10.2 0-28.6-.9-47.2-3.6-22.8-3.2-38.8-8-47.7-14.2-4.2-2.9-6.8-7.5-7.1-12.6-.6-7.6-.8-57.3 4-69.3 4.6-11.5 15.4-20 33.1-26.2 2.9-1 6.2-2 9.8-3 7.1-2 15-4.3 18.2-6.9 8.1-6.8 8.7-13.1 9.5-20.4.1-1.2.2-2.4.4-3.6.2-1.7 1.7-2.8 3.4-2.6 1.7.2 2.8 1.7 2.6 3.4-.2 1.1-.3 2.3-.4 3.4-.8 7.5-1.7 16.1-11.6 24.4-4.2 3.5-12.5 5.9-20.5 8.1-3.4 1-6.7 1.9-9.4 2.9-16 5.6-25.6 13-29.5 22.8-3.9 9.8-4.2 57.1-3.5 66.6.2 3.3 1.9 6.2 4.5 8 8 5.5 23.6 10.1 45.1 13.2 18.2 2.6 36.4 3.5 46.3 3.5 22 0 73.3-4.1 91.5-16.7 2.6-1.8 4.3-4.8 4.5-8 .7-9.6.4-56.9-3.5-66.6-3.9-9.7-13.6-17.2-29.5-22.8-2.7-.9-6-1.9-9.4-2.9-8-2.3-16.3-4.6-20.5-8.1-10-8.4-10.8-16.9-11.6-24.4-.1-1.1-.2-2.3-.4-3.4-.2-1.7 1-3.2 2.6-3.4s3.2.9 3.4 2.6c.2 1.2.3 2.4.4 3.6.8 7.3 1.4 13.6 9.5 20.4 3.2 2.7 11.2 4.9 18.2 6.9 3.5 1 6.9 1.9 9.8 3 17.7 6.2 28.6 14.8 33.2 26.2 4.8 11.9 4.5 61.7 4 69.3-.4 5.1-3 9.7-7.1 12.6-8.9 6.2-25 10.9-47.7 14.2-18.6 2.6-37 3.6-47.2 3.6ZM889.5 78.5c-.6 0-1.2-.2-1.6-.6-1.9-1.8-6.1-2.7-9.8-1.3-1.2.5-2.6-.1-3-1.3s.1-2.6 1.3-3.1c5.1-2 11.3-1.1 14.8 2.2.9.9 1 2.4 0 3.3-.5.5-1.1.7-1.7.7ZM861.9 135.3c-12.3 0-17.3-11.8-17.5-12.3-.3-.7-.2-1.6.2-2.2.4-.7 1.2-1 2-1h30.7c.8 0 1.5.4 2 1 .4.7.5 1.5.2 2.2-.2.5-5.2 12.3-17.5 12.3Zm-11.3-10.9c2 2.7 5.6 6.2 11.3 6.2s9.3-3.4 11.3-6.2h-22.5ZM889.4 94.9c-.7 0-1.4-.3-1.9-1-1.4-1.9-3.5-2.3-4.6-2.3-1.8 0-3.7.6-4.5 1.6-.8 1-2.3 1.1-3.3.2-1-.8-1.1-2.3-.2-3.3 1.8-2.1 5-3.3 8.3-3.2 3.4.1 6.4 1.7 8.2 4.2.8 1.1.5 2.5-.5 3.3-.4.3-.9.4-1.4.4ZM834.4 94.9c-.5 0-1-.2-1.4-.4-1-.8-1.3-2.2-.5-3.3 1.9-2.6 4.9-4.1 8.2-4.2 3.3-.1 6.5 1.1 8.3 3.2.8 1 .7 2.5-.2 3.3-1 .8-2.5.7-3.3-.2-.9-1-2.7-1.7-4.5-1.6-1.1 0-3.2.4-4.6 2.3-.5.6-1.2 1-1.9 1Z"/><path class="cls-5" d="m724.5 179.6-17.7-21.7c-1.3-1.5-3.3-2.2-5.3-2-2.4.3-4.3 2.1-5 4.4-.5 1.9 0 4 1.3 5.5 0 0 9.9 13.8 14.6 18.6 4.4 5.1 9 40.8 34.3 34.4 14.9-3.8 18.7-14.2 21.7-15.7 5.4-2.7 11-3 13.7-7.1 3.2-4.8 5.6-17.8 5.6-17.8.7-1.9.3-4-.9-5.6-1.5-1.9-3.9-2.8-6.3-2.1-2 .5-3.5 1.9-4.2 3.9l-3.4 9.9s-5 2.3-7.5.4-5-17.6-5-17.6l8.1-4.1 11.5 5c1.9.7 4 .4 5.6-.7 2-1.4 2.9-3.8 2.4-6.2-.4-2-1.8-3.6-3.7-4.3 0 0-11.8-5.9-14.7-7.3-2.6-1.2-22.1 7.2-21.7 10.9.7 6.4 1.3 10.7 1.3 10.7L737 133c-.6-1.9-2.1-3.4-4-4.1-2.3-.7-4.8 0-6.3 1.9-1.3 1.5-1.7 3.6-1.2 5.6l10.8 37.1-17.4-32.4c-.9-1.8-2.6-3-4.6-3.3-2.4-.3-4.7.9-5.9 2.9-1 1.7-1.1 3.9-.2 5.7l16.3 33.3Z"/><path class="cls-3" d="M740.8 222.6c-6.8 0-12.7-3-17.6-9-5.1-6.2-8.1-14.5-10.3-20.5-1-2.7-2.1-5.8-2.8-6.6-4.7-4.8-13.7-17.3-14.7-18.8-1.9-2.3-2.6-5.3-1.9-8.2.9-3.5 3.9-6.1 7.4-6.6 3-.4 6 .7 8 2.9l1.1 1.4-4.8-9.7c-1.3-2.7-1.2-5.9.3-8.5 1.8-3.1 5.3-4.9 8.9-4.4 3 .4 5.6 2.2 6.9 4.9l3.8 7.1-2.8-9.5c-.8-2.9-.2-6 1.8-8.4 2.3-2.8 6.1-3.9 9.5-2.8 2.9.9 5.1 3.1 6 6l7.6 23.6c.5-.4 1-.8 1.4-1.1 2.7-1.9 7-4.2 11.4-5.9 7.9-3.1 9.8-2.3 10.6-1.9 2.8 1.3 13.4 6.6 14.7 7.3 2.8 1.1 4.8 3.5 5.4 6.4.8 3.4-.5 6.9-3.2 9.1.5.4 1 .9 1.4 1.4 1.8 2.3 2.3 5.4 1.5 8.2-.4 2.1-2.7 13.8-6 18.7-2.4 3.6-6.2 4.9-9.9 6.2-1.6.6-3.3 1.2-5 1.9-.4.2-1.3 1.3-2 2.2-3.3 4-8.7 10.7-20.4 13.7-2.3.6-4.5.9-6.6.9Zm-38.5-63.7h-.4c-1.2.2-2.2 1-2.5 2.2-.3 1 0 2 .7 2.7 0 0 .1.2.2.2 0 .1 9.8 13.7 14.3 18.2l.1.1c1.4 1.6 2.5 4.5 3.9 8.6 2 5.6 4.8 13.3 9.3 18.8 4.9 6 10.7 8 18.1 6.1 9.7-2.5 14.2-8 17.2-11.6 1.4-1.7 2.5-3.1 4-3.8 2-1 3.9-1.6 5.7-2.2 3.1-1.1 5.6-1.9 6.8-3.8 2.3-3.5 4.5-13.2 5.1-16.7 0-.1 0-.3.1-.4.3-.9.2-2-.5-2.8-.7-.9-2-1.4-3.1-1.1-1 .2-1.7 1-2.1 1.9l-3.4 9.9c-.3.8-.8 1.4-1.6 1.8-1.1.5-6.9 2.9-10.6 0-1.2-1-2.6-3-4.5-11.2-1-4.2-1.6-8.1-1.6-8.2-.2-1.3.4-2.6 1.6-3.2l8.1-4.1c.8-.4 1.7-.4 2.6 0l11.4 4.9c.9.3 2 .2 2.8-.4 1-.7 1.4-1.9 1.2-3.1-.2-1-.9-1.8-1.8-2.1 0 0-.2 0-.3-.1-.1 0-10.9-5.5-14.3-7.1-1.1 0-4.6 1-9.4 3.2-4.8 2.2-7.5 4.1-8.3 5 .7 5.9 1.2 10 1.2 10.1.2 1.6-.8 3-2.3 3.4-1.5.4-3.1-.5-3.5-2L734.3 134c-.3-1-1-1.7-2-2-1.1-.4-2.4 0-3.2.9-.7.8-.9 1.8-.6 2.8l10.8 37.1c.4 1.5-.3 3.1-1.8 3.6-1.4.6-3.1 0-3.8-1.4l-17.4-32.4c-.4-.9-1.3-1.5-2.3-1.6-1.2-.1-2.3.4-2.9 1.5-.5.9-.5 1.9 0 2.8l16.3 33.3c.7 1.4.2 3.1-1.1 3.9-1.3.8-3 .6-4-.6l-17.7-21.6c-.6-.6-1.4-1-2.2-1Zm65.2 23.5Zm-.1-.2c.5.2 1.8 0 3.1-.4l2.9-8.5c.5-1.5 1.5-2.9 2.7-3.9l-7.4-3.2-4.8 2.5c1.1 5.8 2.6 12.1 3.6 13.6Z"/><path class="cls-5" d="m729.3 302.5-2.2-8.8h158.6l-2.2 8.8c-1.1 6.6-6.9 11.4-13.6 11.4H742.8c-6.7 0-12.4-4.8-13.6-11.4Z"/><path class="cls-3" d="M870 317H742.9c-8.2 0-15.1-5.8-16.5-13.8l-2.2-8.6c-.2-.9 0-1.9.5-2.6.6-.7 1.5-1.2 2.4-1.2h158.6c.9 0 1.8.4 2.4 1.2s.8 1.7.5 2.6l-2.2 8.6c-1.4 8-8.4 13.8-16.5 13.8Zm-139-20.2 1.3 5v.2c.9 5.2 5.3 8.9 10.6 8.9H870c5.2 0 9.7-3.8 10.6-8.9v-.2l1.3-5H731Z"/><path class="cls-5" d="m688.6 300.2-16.8-84.6c0-7.6 6.2-13.8 13.8-13.8h131.1c7.6 0 13.8 6.2 13.8 13.8l16.8 84.6c0 7.6-6.2 13.8-13.8 13.8H702.4c-7.6 0-13.8-6.2-13.8-13.8Z"/><path class="cls-3" d="M833.4 317H702.3c-9.2 0-16.6-7.4-16.8-16.5l-16.7-84.4v-.6c0-9.2 7.5-16.8 16.8-16.8h131.1c9.2 0 16.6 7.4 16.8 16.5l16.7 84.4v.6c0 9.2-7.5 16.8-16.8 16.8ZM674.8 215.3l16.7 84.3v.6c0 5.9 4.8 10.7 10.7 10.7h131.1c5.8 0 10.6-4.7 10.7-10.5l-16.7-84.3v-.6c0-5.9-4.8-10.7-10.7-10.7H685.5c-5.8 0-10.6 4.7-10.7 10.5Z"/><circle class="cls-2" cx="759.5" cy="257.8" r="9.8"/><path class="cls-5" d="M931.6 262.5c-11.7-3.2-24.4-6.4-32-5.3-.9.1-3 1.8-5.6 4.3-1-1.3-6.1 1.6-7.8 2.4l-12.7 6.7c-1.8.9-3 2.7-3.2 4.7-.2 2.4 1 4.7 3.1 5.9.4.2.8.4 1.3.5-.5.6-.8.9-.8.9-1.3 1.5-1.8 3.6-1.3 5.5.6 2.3 2.6 4 5 4.4 2 .3 4-.5 5.3-2l3.3-3.7c-1.2 1.5-1.7 3.5-1.2 5.4.6 2.3 2.6 4 5 4.4 2 .3 4-.5 5.3-2l2.5-2.8c-1.1 1.5-1.5 3.4-1 5.2.6 2.3 2.6 4 5 4.4 2 .3 4-.5 5.3-2l3.2-3.5c-.9 1.4-1.1 3.1-.7 4.7.6 2.3 2.6 4 5 4.4 2 .3 4-.5 5.3-2l3-3.4s2.3-2.6 5.4-6.1c27.1 7.5 44.6-19.8 3.5-31.2Z"/><path class="cls-3" d="M890.7 299.7h-1.3c-3.6-.5-6.5-3.1-7.5-6.6-.8-2.8 0-5.9 1.8-8.1h.1v-.2l13.4-15.2c1.1-1.2 3-1.4 4.3-.3s1.4 3 .3 4.3l-1.9 2.1-11.5 13.1c-.6.7-.8 1.7-.6 2.7.3 1.1 1.3 2 2.5 2.2 1 .1 2-.2 2.6-1l16.5-18.8c1.1-1.2 3-1.4 4.3-.3 1.2 1.1 1.4 3 .3 4.3l-16.5 18.8c-1.7 2-4.2 3.1-6.8 3.1Z"/><path class="cls-3" d="M915.3 308.1H914c-3.6-.5-6.5-3.1-7.5-6.6-.7-2.4-.3-5 1-7.1.2-.4.5-.8.9-1.2l12.5-13.5c1.1-1.2 3-1.3 4.3-.2 1.2 1.1 1.3 3 .2 4.3L913 297.3c0 .1-.2.2-.2.3-.4.7-.6 1.6-.3 2.4.3 1.1 1.3 2 2.5 2.2 1 .1 2-.2 2.6-1l3-3.4s2.3-2.6 5.4-6.1c.8-.9 2-1.2 3.1-.9 12.1 3.4 22.1-1 23.8-7.1 1.4-5.2-3.4-13.1-22-18.2-11.2-3.1-23.5-6.1-30.5-5.2-.3.2-1.5.9-4.2 3.5-6.5 6-16.3 16.9-19.1 20-.5.5-.8.9-.8.9-.7.8-.9 1.8-.6 2.7.3 1.2 1.3 2 2.5 2.2 1 .1 2-.2 2.7-1l14.9-16.9c1.1-1.2 3-1.4 4.3-.3 1.2 1.1 1.4 3 .3 4.3l-14.9 16.9c-2 2.3-5 3.4-8 3-3.6-.5-6.5-3.1-7.5-6.6-.8-2.9 0-6 1.9-8.3 0 0 .3-.3.8-.9 2.9-3.2 12.8-14.2 19.5-20.4 4.2-4 5.9-4.9 7.3-5.1 8.1-1.2 20.8 1.9 33.3 5.4 22.8 6.3 28.5 17.4 26.2 25.7-1.3 4.8-5.4 8.8-11.2 11-5.3 2-11.8 2.3-18.2.8-2.4 2.8-4.2 4.7-4.2 4.7l-3 3.4c-1.7 2-4.2 3-6.7 3ZM900 260.2Zm.3-.1Z"/><path class="cls-3" d="M902.5 304.5h-1.2c-3.6-.5-6.5-3.1-7.5-6.6-.8-2.9 0-6 2-8.3l13.8-15.6c1.1-1.2 3-1.4 4.3-.3 1.2 1.1 1.4 3 .3 4.3l-13.8 15.6c-.7.8-.9 1.8-.7 2.8.3 1.1 1.3 2 2.5 2.2 1 .1 2-.2 2.7-1l16.2-17.8c1.1-1.2 3-1.3 4.3-.2 1.2 1.1 1.3 3 .2 4.3l-16.2 17.8c-1.7 1.9-4.2 3-6.8 3ZM873.9 284.6l.8-2.9-.8 2.9c-.7-.2-1.3-.5-2-.8-3.2-1.7-5-5.2-4.6-8.8.3-3 2.1-5.7 4.8-7.1l13-6.9c3.7-2 8.8-4.7 11.3-1.4 1 1.3.8 3.2-.6 4.2-.9.7-2.1.8-3.1.4-.6.2-2 .7-4.8 2.2l-.3.2-12.7 6.7c-.9.5-1.5 1.3-1.6 2.4-.1 1.2.5 2.3 1.5 2.9.2.1.4.2.6.2l-.8 2.9-.8 2.9Zm17.6-21.3ZM759.5 101.9c-.5 0-.9-.1-1.4-.3-1.5-.8-2.1-2.6-1.3-4.1l13.1-25.3c.8-1.5 2.6-2.1 4.1-1.3 1.5.8 2.1 2.6 1.3 4.1l-13.1 25.3c-.5 1-1.6 1.6-2.7 1.6ZM743.9 96.7h-.5c-1.7-.3-2.8-1.8-2.5-3.5l4.7-28.1c.3-1.7 1.8-2.8 3.5-2.5 1.7.3 2.8 1.8 2.5 3.5l-4.7 28.1c-.2 1.5-1.5 2.5-3 2.5ZM727.6 96.6c-1.5 0-2.8-1.1-3-2.6l-4.2-28.1c-.2-1.7.9-3.2 2.5-3.4 1.7-.2 3.2.9 3.4 2.5l4.2 28.1c.2 1.7-.9 3.2-2.5 3.4h-.5ZM712 101.5c-1.1 0-2.2-.6-2.7-1.7l-12.7-25.5c-.8-1.5-.1-3.3 1.3-4.1s3.3-.1 4.1 1.3L714.7 97c.8 1.5.1 3.3-1.3 4.1-.4.2-.9.3-1.3.3ZM487.4 111.2c-3.7.1-6.7 2.6-7.8 5.6s-.5 6.8 2.2 9.3l30.4 28.6H444c-4.8 0-8.8 3.8-8.8 8.6s4 8.7 8.8 8.6h68.4l-30.6 28.6c-3.5 3.2-3.7 8.8-.5 12.2s8.8 3.6 12.2.4l46.4-43.4c3.6-3.4 3.6-9.2 0-12.6l-46.3-43.6c-1.7-1.6-3.9-2.5-6.2-2.4Zm.2 5.8c.8 0 1.5.3 2.1.8l46.3 43.7c1.2 1.2 1.2 3 0 4.2l-46.5 43.4c-1.2 1.1-3 1.1-4.1-.1-1.1-1.2-1-3 .2-4.1l41.3-38.6h-83c-1.6 0-2.9-1.2-2.9-2.9s1.3-2.9 2.9-2.9h82.7l-40.9-38.6c-1-1-1.1-2.1-.8-3.1.4-1.1 1.2-1.8 2.6-1.9Z"/></svg>