<?xml version="1.0" encoding="UTF-8"?>
<svg id="a" xmlns="http://www.w3.org/2000/svg" version="1.1" xmlns:xlink="http://www.w3.org/1999/xlink" viewBox="0 0 964.2 317">
  <defs>
    <style>
      .cls-1 {
        fill: none;
      }

      .cls-1, .cls-2, .cls-3, .cls-4, .cls-5 {
        stroke-width: 0px;
      }

      .cls-2 {
        fill: #39b2bf;
      }

      .cls-6 {
        clip-path: url(#clippath-1);
      }

      .cls-3 {
        fill: #3f3f3f;
      }

      .cls-4 {
        fill: #d5eaff;
      }

      .cls-7 {
        clip-path: url(#clippath);
      }

      .cls-5 {
        fill: #fff;
      }
    </style>
    <clipPath id="clippath">
      <path class="cls-1" d="M247.6,83.9h.2c11.3-.2,14.1,10.5,12.3,20.1-2.5,12.7-12,17.3-17.4,15.6-5,20.1-15.4,27.2-25.6,31,1.1,8.6.5,17.2,11,25.9,5.3,4.5,19.9,7.3,28.9,10.4,14.3,5,26.5,12.4,31.3,24.5,4.3,10.8,4.4,59.2,3.8,68-.3,4.1-2.4,7.9-5.8,10.3-19.5,13.5-73.3,17.2-93.2,17.2s-73.7-3.8-93.2-17.2c-3.4-2.4-5.5-6.2-5.8-10.3-.6-8.8-.6-57.1,3.8-68,4.8-12.1,17-19.5,31.3-24.5,9-3.2,23.6-5.9,28.9-10.4,10.4-8.8,9.8-17.3,11-25.9-10.1-3.8-20.4-10.9-25.5-31h0c-5.4,1.8-14.9-2.8-17.4-15.6-1.9-9.6.9-20.3,12.3-20h.2C119.2.5,193.1,10.5,193.1,10.5c0,0,73.9-9.9,54.5,73.4Z"/>
    </clipPath>
    <clipPath id="clippath-1">
      <path class="cls-1" d="M916.4,83.9h.2c11.3-.2,14.1,10.5,12.3,20.1-2.5,12.7-12,17.3-17.4,15.6-5,20.1-15.4,27.2-25.5,31,1.1,8.6.5,17.2,11,25.9,5.3,4.5,19.9,7.3,28.9,10.4,14.3,5,26.5,12.4,31.3,24.5,4.3,10.8,4.4,59.2,3.8,68-.3,4.1-2.4,7.9-5.8,10.3-19.5,13.5-73.3,17.2-93.2,17.2s-73.7-3.8-93.2-17.2c-3.4-2.4-5.5-6.2-5.8-10.3-.6-8.8-.6-57.1,3.8-68,4.8-12.1,17-19.5,31.3-24.5,9-3.2,23.6-5.9,28.9-10.4,10.5-8.8,9.8-17.3,11-25.9-10.1-3.8-20.4-10.9-25.5-31h0c-5.4,1.8-14.9-2.8-17.4-15.6-1.9-9.6.9-20.3,12.3-20h.2c-19.3-83.4,54.5-73.5,54.5-73.5,0,0,73.9-9.9,54.5,73.4h0Z"/>
    </clipPath>
  </defs>
  <g>
    <g>
      <g>
        <path class="cls-2" d="M193.1,158.9s-53.4.3-71.4-17.6l6.1-46.1C103-1.8,193.1,3.1,193.1,3.1c0,0,90.1-4.8,65.3,92.1l6.1,46.1c-18,17.9-71.4,17.6-71.4,17.6h0Z"/>
        <path class="cls-3" d="M193.5,161.9h-.4c-2.5,0-54.9,0-73.6-18.4-.7-.7-1-1.6-.9-2.6l6.1-45.5c-7.8-31-4.9-55.2,8.8-71.9,8.6-10.5,21.7-17.9,37.8-21.4C182.7-.3,191.8,0,193.1,0c1.4,0,10.4-.3,21.8,2.1,16.1,3.5,29.2,10.9,37.8,21.4,13.6,16.6,16.6,40.8,8.8,71.9l6.1,45.5c.1.9-.2,1.9-.9,2.6-18.1,17.9-68,18.4-73.2,18.4h0ZM124.9,140.2c7.2,6.3,20.9,11.1,39.7,13.6,15.2,2.1,28.4,2,28.5,2h0c.1,0,13.4,0,28.6-2.1,18.8-2.6,32.4-7.3,39.6-13.6l-5.9-44.6c0-.4,0-.8,0-1.2,7.5-29.4,5-51.9-7.4-67.1-18.8-22.9-54.4-21.3-54.8-21.3h-.3c0,0-9.2-.4-20.5,2-10.3,2.2-24.5,7.4-34.3,19.3-12.4,15.2-14.9,37.7-7.4,67.1.1.4.1.8,0,1.2l-5.9,44.6h0Z"/>
      </g>
      <g class="cls-7">
        <path class="cls-5" d="M247.6,83.9h.2c11.3-.2,14.1,10.5,12.3,20.1-2.5,12.7-12,17.3-17.4,15.6-5,20.1-15.4,27.2-25.6,31h0c1.1,8.6.5,17.2,11,25.9,5.3,4.5,19.9,7.3,28.9,10.4,14.3,5,26.5,12.4,31.3,24.5,4.3,10.8,4.4,59.2,3.8,68-.3,4.1-2.4,7.9-5.8,10.3-19.5,13.5-73.3,17.2-93.2,17.2s-73.7-3.8-93.2-17.2c-3.4-2.4-5.5-6.2-5.8-10.3-.6-8.8-.6-57.1,3.8-68,4.8-12.1,17-19.5,31.3-24.5,9-3.2,23.6-5.9,28.9-10.4,10.4-8.8,9.8-17.3,11-25.9-10.1-3.8-20.4-10.9-25.5-31h0c-5.4,1.8-14.9-2.8-17.4-15.6-1.9-9.6.9-20.3,12.3-20h.2C123.8,1,193.1,3.1,193.1,3.1c0,0,68.8-2.9,54.5,80.8h0Z"/>
      </g>
      <path class="cls-4" d="M159.2,41.8l-5.5-3.5c1.8,1.2,3.6,2.4,5.5,3.5Z"/>
      <path class="cls-2" d="M193.1,8.6S115.6.4,140.2,90.2l5.9-26.3s3.1-6.6,14.3-21.3l-1.2-.8c-1.9-1.1-3.7-2.3-5.5-3.5l5.5,3.5c34.9,21.1,81,22.1,81,22.1l5.9,26.3C270.6.4,193.1,8.6,193.1,8.6Z"/>
      <path class="cls-3" d="M169.1,153.6c-.4,0-.7,0-1.1-.2-6.6-2.4-11.6-5.7-15.8-10.1-5.3-5.6-9.1-13.1-11.6-22.8,0,0,0-.1,0-.2-.2-1-.4-1.8-.6-2.6-.4-1.6.7-3.2,2.3-3.6,1.6-.4,3.2.7,3.6,2.3.1.7.3,1.4.5,2.2,0,0,0,.1,0,.2,5,19.6,14.8,25.6,23.7,28.9,1.6.6,2.4,2.3,1.8,3.9-.4,1.2-1.6,2-2.8,2h0Z"/>
      <path class="cls-3" d="M141.1,122.9c-2.4,0-5-.7-7.5-2.2-3.1-1.8-8.5-6.3-10.5-16.2-1.5-7.6-.2-14.4,3.4-18.7,2.8-3.3,6.9-5,11.9-4.9,1.7,0,3,1.4,2.9,3.1,0,1.7-1.4,3-3.1,2.9-3.1,0-5.5.8-7.1,2.8-2.4,2.8-3.2,8.1-2.1,13.7.6,3.2,2.5,9.1,7.6,12.2,2.1,1.2,4.3,1.6,5.9,1.1,1.6-.5,3.3.3,3.8,1.9s-.4,3.3-1.9,3.8c-1.1.3-2.2.5-3.4.5h0Z"/>
      <path class="cls-3" d="M217.1,153.6c-1.2,0-2.4-.8-2.8-2-.6-1.6.2-3.3,1.8-3.9,5.7-2.1,10-4.9,13.6-8.6,4.6-4.9,7.9-11.5,10.1-20.3.2-.8.4-1.6.6-2.4.4-1.6,1.9-2.7,3.6-2.3,1.6.3,2.7,2,2.3,3.6-.2.8-.4,1.7-.6,2.6-2.4,9.8-6.2,17.3-11.6,23-4.2,4.4-9.2,7.7-15.8,10.1-.4.1-.7.2-1.1.2h0Z"/>
      <path class="cls-3" d="M245.1,122.9c-1.1,0-2.2-.2-3.3-.5-1.3-.4-2.2-1.5-2.2-2.9s1.4-3,3-3h0c.3,0,.6,0,.9.2,1.6.5,3.9,0,5.9-1.1,2.2-1.3,6.1-4.6,7.6-12.2,1.1-5.6.3-10.8-2.1-13.7-1.6-1.9-4-2.8-7.1-2.8-1.7,0-3.1-1.3-3.1-2.9,0-1.7,1.3-3.1,2.9-3.1,4.9-.1,9.1,1.6,11.9,4.9,3.7,4.3,4.9,11.2,3.4,18.7-1.9,9.9-7.4,14.4-10.5,16.2-2.4,1.4-5.1,2.2-7.5,2.2h0Z"/>
      <path class="cls-3" d="M140.2,93.2c-1.3,0-2.5-.9-2.9-2.2-.6-2.2-1.2-4.4-1.6-6.4-.4-1.6.6-3.2,2.3-3.6s3.2.7,3.6,2.3c.4,1.9,1,4,1.6,6.2.4,1.6-.5,3.3-2.1,3.7-.3,0-.5.1-.8.1h0Z"/>
      <path class="cls-3" d="M246.1,93.2c-.3,0-.5,0-.8-.1-1.6-.4-2.6-2.1-2.1-3.7.6-2.1,1.1-4.2,1.6-6.2.4-1.6,2-2.7,3.6-2.3,1.6.4,2.6,2,2.3,3.6-.5,2-1,4.2-1.6,6.4-.4,1.3-1.6,2.2-2.9,2.2h0Z"/>
      <path class="cls-3" d="M193.1,310c-10.2,0-28.6-.9-47.2-3.6-22.8-3.2-38.8-8-47.7-14.2-4.2-2.9-6.8-7.5-7.1-12.6-.6-7.6-.8-57.3,4-69.3,4.6-11.5,15.4-20,33.1-26.2,2.9-1,6.2-2,9.8-3,7.1-2,15.1-4.3,18.2-6.9,8.1-6.8,8.7-13.1,9.5-20.4.1-1.2.2-2.4.4-3.6.2-1.7,1.7-2.8,3.4-2.6,1.7.2,2.8,1.7,2.6,3.4-.1,1.1-.3,2.3-.4,3.4-.8,7.5-1.7,16.1-11.6,24.4-4.2,3.5-12.4,5.9-20.5,8.1-3.4,1-6.7,1.9-9.4,2.9-16,5.6-25.6,13-29.5,22.8-3.9,9.8-4.2,57.1-3.5,66.6.2,3.3,1.9,6.2,4.5,8,8,5.5,23.6,10.1,45.1,13.2,18.2,2.6,36.4,3.5,46.3,3.5,22,0,73.3-4.1,91.5-16.7,2.6-1.8,4.3-4.8,4.5-8,.7-9.6.4-56.9-3.5-66.6-3.9-9.7-13.6-17.2-29.5-22.8-2.7-.9-6-1.9-9.4-2.9-8-2.3-16.3-4.6-20.5-8.1-10-8.4-10.9-16.9-11.6-24.4-.1-1.1-.2-2.3-.4-3.4-.2-1.7.9-3.2,2.6-3.4s3.2.9,3.4,2.6c.2,1.2.3,2.4.4,3.6.8,7.3,1.4,13.6,9.5,20.4,3.2,2.7,11.2,4.9,18.2,6.9,3.5,1,6.9,1.9,9.8,3,17.7,6.2,28.6,14.8,33.1,26.2,4.8,11.9,4.5,61.7,4,69.3-.4,5.1-3,9.7-7.1,12.6-8.9,6.2-25,10.9-47.7,14.2-18.6,2.6-37,3.6-47.2,3.6h0Z"/>
      <path class="cls-3" d="M193.1,197.9c-28,0-33-4.4-34.7-5.9h0c-1.3-1.1-1.4-3-.3-4.3,1.1-1.3,3-1.4,4.3-.3h.1c4.6,4.2,24.7,4.5,30.7,4.5s26.1-.3,30.7-4.4h.1c1.3-1.2,3.2-1,4.3.2,1.1,1.3.9,3.2-.3,4.3h0c-1.2,1.1-3.2,2.5-8,3.7-6.1,1.5-15.1,2.3-26.7,2.3Z"/>
      <path class="cls-3" d="M169.1,153.6c-.4,0-.7,0-1.1-.2-6.9-2.6-12.1-6-16.4-10.8-5.5-6.1-9.3-14.2-11.7-24.9-.4-1.6.7-3.2,2.3-3.6,1.6-.4,3.2.7,3.6,2.3,4.8,21.4,14.9,27.8,24.2,31.3,1.6.6,2.4,2.3,1.8,3.9-.4,1.2-1.6,2-2.8,2h0Z"/>
      <path class="cls-3" d="M217.1,153.6c-1.2,0-2.4-.8-2.8-2-.6-1.6.2-3.3,1.8-3.9,16.8-6.3,21.7-19.3,24.2-31.3.4-1.6,2-2.7,3.6-2.3,1.6.3,2.7,2,2.3,3.6-2.3,10.7-6.1,18.8-11.6,24.9-4.3,4.8-9.5,8.2-16.4,10.8-.4.1-.7.2-1.1.2h0Z"/>
      <path class="cls-2" d="M193.1,306.9c-22.3,0-85.3-4.7-96.7-22.6-.9-11.7-3.7-60.2,1.5-72.9,4.8-12.1,17-19.5,31.3-24.5,9-3.2,23.6-5.9,28.9-10.4l35,61.7,35-61.7c5.3,4.5,19.9,7.3,28.9,10.4,14.3,5,26.5,12.4,31.3,24.5,5.1,12.8,2.4,61.3,1.5,72.9-11.4,17.9-74.4,22.6-96.7,22.6h0Z"/>
      <path class="cls-3" d="M193.1,241.2c-1.1,0-2.1-.6-2.6-1.5l-35-61.7c-.8-1.4-.3-3.3,1.1-4.1,1.4-.8,3.3-.3,4.1,1.1l32.4,57,32.4-57c.8-1.4,2.7-2,4.1-1.1s2,2.7,1.1,4.1l-35,61.7c-.5.9-1.5,1.5-2.6,1.5h0Z"/>
      <path class="cls-3" d="M179.9,251c-.5,0-1.1-.2-1.5-.5l-38.1-31.3c-.6-.4-.9-1.1-.9-1.8s.3-1.4.9-1.8l8.9-7.2-8.4-7.8c-.5-.5-.8-1.1-.8-1.8,0-.7.3-1.3.9-1.8l11.3-9.2c1-.8,2.5-.7,3.3.3.8,1,.7,2.5-.3,3.3l-9.2,7.5,8.4,7.8c.5.5.8,1.1.8,1.8,0,.7-.3,1.3-.9,1.8l-8.8,7.1,35.9,29.4c1,.8,1.1,2.3.3,3.3-.5.6-1.1.9-1.8.9h0Z"/>
      <path class="cls-3" d="M206.3,251c-.7,0-1.4-.3-1.8-.9-.8-1-.7-2.5.3-3.3l35.9-29.4-8.8-7.1c-.5-.4-.9-1.1-.9-1.8,0-.7.2-1.3.8-1.8l8.4-7.8-9.2-7.5c-1-.8-1.2-2.3-.3-3.3s2.3-1.2,3.3-.3l11.3,9.2c.5.4.8,1.1.9,1.8s-.3,1.3-.8,1.8l-8.4,7.8,8.9,7.2c.6.4.9,1.1.9,1.8s-.3,1.4-.9,1.8l-38.1,31.3c-.4.4-1,.5-1.5.5h0Z"/>
      <path class="cls-3" d="M246.1,93.2h0c-1.4,0-2.6-1-2.9-2.4l-5.4-24c-4.5-.2-15-1-28.1-3.6-16-3.1-38.9-9.5-57.6-22.5-1.4-1-1.7-2.8-.8-4.2.9-1.4,2.8-1.7,4.2-.8,34.2,23.7,84.3,25.1,84.8,25.1,1.4,0,2.6,1,2.9,2.4l3.4,15c.7-.6,1.6-.8,2.5-.6,1.6.3,2.7,1.9,2.3,3.6-.7,3.2-1.5,6.5-2.4,9.8-.4,1.3-1.6,2.2-2.9,2.2Z"/>
      <path class="cls-3" d="M140.2,93.2c-1.4,0-2.6-.9-2.9-2.2-.8-3.1-1.6-6.1-2.2-9-.4-1.6.7-3.2,2.3-3.6.8-.2,1.6,0,2.3.4l3.5-15.5c0-.2.1-.4.2-.6.1-.3,3.3-7,14.6-21.9,1-1.3,2.9-1.6,4.2-.6,1.3,1,1.6,2.9.6,4.2-9.6,12.6-13.1,19.1-13.8,20.5l-5.8,25.9c-.3,1.3-1.5,2.3-2.9,2.4h0Z"/>
      <path class="cls-3" d="M237.9,53.3c-.5,0-1-.2-1.4-.6-13.2-12.9-37.5-26.2-56.4-31-1.1-.3-1.7-1.4-1.5-2.5.3-1.1,1.4-1.7,2.4-1.5,19.6,4.9,44.6,18.7,58.3,32.1.8.8.8,2,0,2.8-.4.4-.9.6-1.4.6h0Z"/>
      <path class="cls-3" d="M193.1,310c-10.2,0-28.6-.9-47.2-3.6-22.8-3.2-38.8-8-47.7-14.2-4.2-2.9-6.8-7.5-7.1-12.6-.6-7.6-.8-57.3,4-69.3,4.6-11.5,15.4-20,33.1-26.2,2.9-1,6.2-2,9.8-3,7.1-2,15.1-4.3,18.2-6.9,8.1-6.8,8.7-13.1,9.5-20.4.1-1.2.2-2.4.4-3.6.2-1.7,1.7-2.8,3.4-2.6,1.7.2,2.8,1.7,2.6,3.4-.1,1.1-.3,2.3-.4,3.4-.8,7.5-1.7,16.1-11.6,24.4-4.2,3.5-12.4,5.9-20.5,8.1-3.4,1-6.7,1.9-9.4,2.9-16,5.6-25.6,13-29.5,22.8-3.9,9.8-4.2,57.1-3.5,66.6.2,3.3,1.9,6.2,4.5,8,8,5.5,23.6,10.1,45.1,13.2,18.2,2.6,36.4,3.5,46.3,3.5,22,0,73.3-4.1,91.5-16.7,2.6-1.8,4.3-4.8,4.5-8,.7-9.6.4-56.9-3.5-66.6-3.9-9.7-13.6-17.2-29.5-22.8-2.7-.9-6-1.9-9.4-2.9-8-2.3-16.3-4.6-20.5-8.1-10-8.4-10.9-16.9-11.6-24.4-.1-1.1-.2-2.3-.4-3.4-.2-1.7.9-3.2,2.6-3.4s3.2.9,3.4,2.6c.2,1.2.3,2.4.4,3.6.8,7.3,1.4,13.6,9.5,20.4,3.2,2.7,11.2,4.9,18.2,6.9,3.5,1,6.9,1.9,9.8,3,17.7,6.2,28.6,14.8,33.1,26.2,4.8,11.9,4.5,61.7,4,69.3-.4,5.1-3,9.7-7.1,12.6-8.9,6.2-25,10.9-47.7,14.2-18.6,2.6-37,3.6-47.2,3.6h0Z"/>
      <g>
        <path class="cls-3" d="M193.1,111.7c-.7,0-1.3-.6-1.3-1.3v-1.7c0-.7.6-1.3,1.3-1.3s1.3.6,1.3,1.3v1.7c0,.7-.6,1.3-1.3,1.3Z"/>
        <ellipse class="cls-3" cx="172.1" cy="90" rx="4.9" ry="5.4"/>
        <path class="cls-1" d="M154.5,86.4l1.2,12c.4,3.6,3.4,6.3,7,6.3h18c3.6,0,6.6-2.7,7-6.3l1.2-12h8.3l1.2,12c.4,3.6,3.4,6.3,7,6.3h18c3.6,0,6.6-2.7,7-6.3l1.2-12"/>
        <ellipse class="cls-3" cx="214.1" cy="90" rx="4.9" ry="5.4"/>
        <path class="cls-3" d="M195.4,131.1h-4.5c-1.3,0-2.4-1.1-2.4-2.4s1.1-2.3,2.4-2.3h4.5c1.3,0,2.4,1.1,2.4,2.3s-1.1,2.4-2.4,2.4Z"/>
        <path class="cls-3" d="M221,79.5h-.1c-3.9-.2-9.4-1.9-12.9-5.1-1-.9-1-2.4-.2-3.3.9-1,2.4-1,3.3-.2,2.3,2.1,6.4,3.7,10,3.9,1.3,0,2.3,1.2,2.2,2.5,0,1.2-1.1,2.2-2.3,2.2h0Z"/>
        <path class="cls-3" d="M165.2,79.5c-1.2,0-2.3-1-2.3-2.2,0-1.3.9-2.4,2.2-2.5,3.6-.2,7.8-1.8,10-3.9,1-.9,2.4-.8,3.3.2.9,1,.8,2.4-.2,3.3-3.5,3.2-9,4.8-12.9,5.1h-.2Z"/>
      </g>
    </g>
    <path class="cls-3" d="M99.9,87.4c-.2,0-.3,0-.5,0-1.6-.3-2.8-1.8-2.5-3.5.2-1.2.3-2.3.4-3.4-.5.2-1.1.4-1.6.6-4.2,1.3-9,1.5-13.1.3-2.3-.6-4.4-1.6-6.1-2.9-3.9,0-7.7-.9-11.1-2.8-8.7-4.7-13.7-15.1-11.8-24.7.5-2.3,1.3-4.5,2.4-6.5-1.5.6-3.2,0-3.9-1.5-2.3-5-2.8-10.9-1.4-16.7,1.4-5.6,4.4-10.7,8.6-14.4,8.1-7.1,20.5-9.4,31.4-5.8,5.8,1.9,11.1,5.6,14.9,10.4,4.1,5.1,6.2,11.2,5.9,17.1-.2,2.7-.8,5.3-1.9,7.7,2.3,4,3.9,8.4,4.7,13,1.5,9-2.8,17.7-10.9,23.1,0,2.9-.3,5.5-.7,7.6-.3,1.5-1.5,2.5-3,2.5h0ZM87.5,76.1c2.3.1,4.6-.2,6.5-.8,1.1-.4,2.3-.8,3.4-1.4-.2-1.7-.6-3.4-1.1-4.9-1.1,1.4-2.2,2.6-3.6,3.7-1.6,1.3-3.3,2.4-5.2,3.3h0ZM77.8,63.5c-.7,2.1-.7,4.7.2,6.9.3.7.6,1.3,1,1.8,3.6-.4,7.1-1.8,9.8-4.1,1.7-1.4,3-3.1,4.1-5,0,0,0,0,0,0-3.2,3.3-8,3.9-13,1.6-.7-.3-1.4-.7-2.1-1.1h0ZM63.4,44.7c-1.9,2.1-3.2,4.7-3.8,7.5-1.3,6.9,2.4,14.8,8.8,18.2,1.1.6,2.4,1.1,3.6,1.4-1.3-4.1-1-8.6.9-12.3-.5-.6-1-1.1-1.4-1.6l-.2-.2c-3.2-3.8-6.7-7.8-7.9-13h0ZM99.9,62.5c1.5,2.5,2.4,5.1,3,7.7,4.1-3.7,6.7-8.8,5.7-15-.5-2.8-1.3-5.5-2.5-8.1-1.3,1.5-2.8,2.9-4.5,4.1.3,3.8-.3,7.7-1.7,11.2ZM81.9,58.9c.2,0,.3.2.5.2,2.8,1.3,4.5.9,5.6.1-1.8-.8-3.4-1-4.3-.9-.7.1-1.3.3-1.8.5ZM71.9,48.7c1.2,1.7,2.6,3.3,4,5l.2.2c.3.3.5.6.8.9.7-.5,1.4-.9,2.2-1.3-2.7-1.2-5.1-2.8-7.2-4.8h0ZM84.7,42.5c-.8,1.5.2,4,2.1,5.1.7.4,1.6.7,2.6.8-1-2.3-2.6-4.3-4.6-5.9ZM72.6,39.3c.3.8.7,1.5,1.2,2.2,1.3,2,3,3.7,5,5-.7-2.3-.6-4.8.5-6.9-1.6-.5-3.2-.7-4.8-.6-.6,0-1.3.1-1.9.2h0ZM88.1,34.8c1.8,0,3.5.4,5,1.2,3,1.5,5.4,4.4,6.9,8.1.9-.9,1.8-2,2.5-3.1-2.8-3.8-6.4-7.1-10.5-9.4-4.6-2.5-9.7-3.3-13.9-2.1-2.4.7-4.5,2-6.1,3.7.8-.1,1.6-.2,2.3-.2,3.7-.2,7.2.7,10.4,2.3.3,0,.6-.2.9-.2.8-.2,1.6-.3,2.4-.3h0ZM80.3,10.5c-6.2,0-12.3,2.1-16.8,6-6.8,6-9.3,16.3-5.8,24,.2.4.3.8.3,1.2,1.5-1.9,3.3-3.6,5.3-5,.4-1.6,1-3.1,1.9-4.5,0-3.9,1-7.9,3-11.3,2.8-4.9,7.5-8.6,12.9-10.4-.3,0-.6,0-.8,0h0ZM82.2,22.9c4.2,0,8.7,1.2,12.7,3.4,3.8,2.1,7.2,4.9,10.1,8.2.3-1.7.3-3.5,0-5.3-1.3-7.5-8.4-13.6-16.1-13.9-6.2-.2-12.3,3.2-15.4,8.6-.2.4-.4.8-.6,1.2,1.1-.6,2.3-1,3.5-1.4,1.9-.5,3.8-.8,5.8-.8Z"/>
    <path class="cls-4" d="M302.4,67.1c-8.3,5.1-27.9,6.8-27.9,6.8,0,0,6.9-18.4,14.1-25.1,11.1-10.2,18-2,19.3-.2,1.3,1.7,7.4,10.6-5.4,18.5h0Z"/>
    <path class="cls-4" d="M295.7,100.3c-7.6-1.6-19.8-11.4-19.8-11.4,0,0,14.1-6.8,21.9-6.7,12,.2,11.4,8.8,11.2,10.5-.2,1.7-1.6,10.2-13.3,7.7Z"/>
    <g>
      <g>
        <path class="cls-5" d="M60.5,302.5l-2.2-8.8h158.6l-2.2,8.8c-1.1,6.6-6.9,11.4-13.6,11.4h-127.1c-6.7,0-12.4-4.8-13.6-11.4h0Z"/>
        <path class="cls-3" d="M201.2,317h-127.1c-8.2,0-15.1-5.8-16.5-13.8l-2.2-8.6c-.2-.9,0-1.9.5-2.6.6-.7,1.5-1.2,2.4-1.2h158.6c.9,0,1.8.4,2.4,1.2.6.7.8,1.7.5,2.6l-2.2,8.6c-1.4,8-8.4,13.8-16.5,13.8h0ZM62.2,296.8l1.3,5c0,0,0,.1,0,.2.9,5.2,5.3,8.9,10.6,8.9h127.1c5.2,0,9.7-3.8,10.6-8.9,0,0,0-.2,0-.2l1.3-5H62.2Z"/>
      </g>
      <g>
        <path class="cls-5" d="M19.8,300.2L3,215.5c0-7.6,6.2-13.8,13.8-13.8h131.1c7.6,0,13.8,6.2,13.8,13.8l16.8,84.6c0,7.6-6.2,13.8-13.8,13.8H33.5c-7.6,0-13.8-6.2-13.8-13.8h0Z"/>
        <path class="cls-3" d="M164.6,317H33.5c-9.1,0-16.6-7.4-16.8-16.5L0,216.1c0-.2,0-.4,0-.6,0-9.2,7.5-16.8,16.8-16.8h131.1c9.1,0,16.6,7.4,16.8,16.5l16.7,84.4c0,.2,0,.4,0,.6,0,9.2-7.5,16.8-16.8,16.8h0ZM6.1,215.3l16.7,84.3c0,.2,0,.4,0,.6,0,5.9,4.8,10.7,10.7,10.7h131.1c5.8,0,10.6-4.7,10.7-10.5l-16.7-84.3c0-.2,0-.4,0-.6,0-5.9-4.8-10.7-10.7-10.7H16.8c-5.8,0-10.6,4.7-10.7,10.5h0Z"/>
      </g>
      <circle class="cls-2" cx="90.7" cy="257.9" r="9.8"/>
    </g>
    <g>
      <path class="cls-5" d="M262.8,262.5c-11.7-3.2-24.4-6.4-32-5.3-.9.1-3,1.8-5.6,4.3-1-1.3-6.1,1.6-7.8,2.4l-12.7,6.7c-1.8.9-3,2.7-3.2,4.7-.2,2.4,1,4.7,3.1,5.9.4.2.9.4,1.3.5-.5.6-.8.9-.8.9-1.3,1.5-1.8,3.6-1.3,5.5.6,2.3,2.6,4,5,4.4,2,.3,4-.5,5.3-2l3.3-3.7c-1.2,1.5-1.7,3.5-1.2,5.4.6,2.3,2.6,4,5,4.4,2,.3,4-.5,5.3-2l2.5-2.8s0,0,0,0c-1.1,1.5-1.5,3.4-1,5.2.6,2.3,2.6,4,5,4.4,2,.3,4-.5,5.3-2l3.2-3.5c-.9,1.4-1.1,3.1-.7,4.7.6,2.3,2.6,4,5,4.4,2,.3,4-.5,5.3-2l3-3.4s2.3-2.6,5.4-6.1c27.1,7.5,44.6-19.8,3.5-31.2h0Z"/>
      <g>
        <path class="cls-3" d="M221.9,299.7c-.4,0-.9,0-1.3,0-3.6-.5-6.5-3.1-7.5-6.6-.8-2.8-.1-5.9,1.8-8.1h.1c0-.1,0-.2,0-.2l13.4-15.2c1.1-1.2,3-1.4,4.3-.3,1.2,1.1,1.4,3,.3,4.3l-1.9,2.1-11.5,13.1c-.6.7-.8,1.7-.6,2.7.3,1.1,1.3,2,2.5,2.2,1,.1,2-.2,2.6-1l16.6-18.8c1.1-1.2,3-1.4,4.3-.3,1.2,1.1,1.4,3,.3,4.3l-16.6,18.8c-1.7,2-4.2,3.1-6.8,3.1h0Z"/>
        <path class="cls-3" d="M246.5,308.1c-.4,0-.8,0-1.3,0-3.6-.5-6.5-3.1-7.5-6.6-.6-2.4-.3-5,1.1-7.1.2-.4.6-.8.9-1.2,0,0,0,0,0,0l12.5-13.5c1.1-1.2,3-1.3,4.3-.2,1.2,1.1,1.3,3,.2,4.3l-12.4,13.5c-.1.1-.2.2-.2.3,0,0,0,0,0,0-.4.7-.6,1.6-.4,2.4.3,1.1,1.3,2,2.5,2.2,1,.1,2-.2,2.6-1l3-3.4s2.3-2.6,5.4-6.1c.8-.9,2-1.2,3.1-.9,12.1,3.4,22.1-1,23.8-7.1,1.4-5.2-3.4-13.1-22-18.2-11.2-3.1-23.5-6.1-30.5-5.2-.3.2-1.5.9-4.2,3.5-6.5,6-16.3,16.9-19.1,20-.5.5-.8.9-.8.9-.7.8-.9,1.8-.6,2.7.3,1.2,1.3,2,2.5,2.2,1,.1,2-.2,2.6-1l14.9-16.9c1.1-1.2,3-1.4,4.3-.3,1.2,1.1,1.4,3,.3,4.3l-14.9,16.9c-2,2.3-5,3.4-8,3-3.6-.5-6.5-3.1-7.5-6.6-.8-2.9,0-6,1.9-8.3,0,0,0,0,0,0,0,0,.3-.3.8-.9,2.9-3.2,12.8-14.2,19.5-20.4,4.2-4,5.9-4.9,7.3-5.1,8.1-1.2,20.8,1.9,33.3,5.4,22.8,6.3,28.5,17.4,26.1,25.7-1.3,4.8-5.4,8.8-11.2,11-5.3,2-11.8,2.3-18.2.8-2.4,2.8-4.1,4.7-4.1,4.7l-3,3.4c-1.7,2-4.2,3-6.8,3h0ZM231.2,260.2h0Z"/>
        <path class="cls-3" d="M233.7,304.5c-.4,0-.8,0-1.2,0-3.6-.5-6.5-3.1-7.5-6.6-.8-2.9,0-6,1.9-8.3l13.8-15.6c1.1-1.2,3-1.4,4.3-.3,1.2,1.1,1.4,3,.3,4.3l-13.8,15.6c-.7.8-.9,1.8-.6,2.8.3,1.1,1.3,2,2.5,2.2,1,.1,2-.2,2.6-1,0,0,0,0,0,0l16.2-17.8c1.1-1.2,3-1.3,4.3-.2s1.3,3,.2,4.3l-16.2,17.8c-1.7,1.9-4.2,3-6.8,3h0Z"/>
        <path class="cls-3" d="M205.9,284.7c-.2,0-.5,0-.8-.1h0c-.7-.2-1.4-.5-2-.8-3.2-1.7-5-5.2-4.6-8.8.3-3,2.1-5.7,4.8-7.1l13.1-6.9c3.7-2,8.8-4.7,11.3-1.4,1,1.3.8,3.2-.6,4.2-.9.7-2.1.8-3.1.4-.6.2-2,.7-4.8,2.2l-.3.2-12.7,6.7c-.9.5-1.5,1.3-1.6,2.4-.1,1.2.5,2.3,1.5,2.9.2.1.4.2.6.2h0c1.6.4,2.6,2.1,2.1,3.7-.4,1.4-1.6,2.3-2.9,2.3h0ZM222.7,263.3h0Z"/>
      </g>
    </g>
  </g>
  <g>
    <g>
      <g>
        <g>
          <path class="cls-2" d="M861.9,158.9s-53.4.3-71.5-17.6l6.1-46.1C771.8-1.8,861.9,3.1,861.9,3.1c0,0,90.1-4.8,65.3,92.1l6.1,46.1c-18,17.9-71.5,17.6-71.5,17.6h0Z"/>
          <path class="cls-3" d="M862.3,161.9h-.4c-2.5,0-54.9,0-73.6-18.4-.7-.7-1-1.6-.9-2.6l6.1-45.5c-7.8-31-4.9-55.2,8.8-71.9,8.6-10.5,21.7-17.9,37.8-21.4C851.5-.3,860.5,0,861.9,0c1.3,0,10.4-.3,21.8,2.1,16.1,3.5,29.2,10.9,37.8,21.4,13.7,16.6,16.6,40.8,8.8,71.9l6.1,45.5c.1.9-.2,1.9-.9,2.6-18.1,17.9-68,18.4-73.2,18.4h0ZM861.9,155.8h.2c1.4,0,14.1,0,28.5-2.1,18.8-2.6,32.4-7.3,39.6-13.6l-5.9-44.6c0-.4,0-.8,0-1.2,7.5-29.3,5-51.9-7.4-67.1-9.7-11.9-24-17-34.3-19.3-11.3-2.5-20.4-2-20.5-2h-.3c0,0-9.2-.4-20.5,2-10.3,2.2-24.5,7.4-34.3,19.3-12.4,15.2-14.9,37.7-7.4,67.1,0,.4.1.8,0,1.2l-5.9,44.6c7.2,6.3,20.9,11,39.6,13.6,15.2,2.1,28.5,2.1,28.6,2.1h0,0Z"/>
        </g>
        <g class="cls-6">
          <path class="cls-5" d="M916.4,83.9h.2c11.3-.2,14.1,10.5,12.3,20.1-2.5,12.7-12,17.3-17.4,15.6-5,20.1-15.4,27.2-25.5,31h0c1.1,8.6.5,17.2,11,25.9,5.3,4.5,19.9,7.3,28.9,10.4,14.3,5,26.5,12.4,31.3,24.5,4.3,10.8,4.4,59.2,3.8,68-.3,4.1-2.4,7.9-5.8,10.3-19.5,13.5-73.3,17.2-93.2,17.2s-73.7-3.8-93.2-17.2c-3.4-2.4-5.5-6.2-5.8-10.3-.6-8.8-.6-57.1,3.8-68,4.8-12.1,17-19.5,31.3-24.5,9-3.2,23.6-5.9,28.9-10.4,10.5-8.8,9.8-17.3,11-25.9-10.1-3.8-20.4-10.9-25.5-31h0c-5.4,1.8-14.9-2.8-17.4-15.6-1.9-9.6.9-20.3,12.3-20h.2C792.6,1,861.9,3.1,861.9,3.1c0,0,68.8-2.9,54.5,80.8h0Z"/>
        </g>
        <path class="cls-4" d="M828,41.8l-5.5-3.5c1.8,1.2,3.6,2.4,5.5,3.5Z"/>
        <path class="cls-2" d="M861.9,8.6s-77.5-8.1-52.9,81.6l5.9-26.3s3.1-6.6,14.3-21.3l-1.2-.8c-1.9-1.1-3.7-2.3-5.5-3.5l5.5,3.5c34.9,21.1,81,22.1,81,22.1l5.9,26.3C939.4.4,861.9,8.6,861.9,8.6Z"/>
        <path class="cls-3" d="M837.9,153.6c-.3,0-.7,0-1.1-.2-6.6-2.4-11.6-5.7-15.8-10.1-5.3-5.6-9.1-13.1-11.6-22.8,0,0,0-.1,0-.2-.2-1-.4-1.8-.6-2.6-.4-1.6.7-3.2,2.3-3.6,1.6-.4,3.2.7,3.6,2.3.2.7.3,1.4.5,2.2,0,0,0,.1,0,.2,5,19.6,14.8,25.6,23.7,28.9,1.6.6,2.4,2.3,1.8,3.9-.5,1.2-1.6,2-2.8,2h0Z"/>
        <path class="cls-3" d="M809.9,122.9c-2.4,0-5-.7-7.5-2.2-3.1-1.8-8.5-6.3-10.5-16.2-1.5-7.6-.2-14.4,3.4-18.7,2.8-3.3,6.9-5,11.9-4.9,1.7,0,3,1.4,3,3.1s-1.4,3-3.1,2.9c-3.2,0-5.5.8-7.1,2.8-2.4,2.8-3.2,8.1-2.1,13.7.6,3.2,2.5,9.1,7.6,12.2,2.1,1.2,4.3,1.6,5.9,1.1,1.6-.5,3.3.3,3.8,1.9.5,1.6-.3,3.3-1.9,3.8-1.1.3-2.2.5-3.4.5h0Z"/>
        <path class="cls-3" d="M886,153.6c-1.2,0-2.4-.8-2.8-2-.6-1.6.2-3.3,1.8-3.9,5.7-2.1,10-4.9,13.6-8.6,4.6-4.9,8-11.5,10.1-20.3.2-.8.4-1.6.6-2.4.3-1.6,2-2.7,3.6-2.3s2.7,2,2.3,3.6c-.2.8-.4,1.7-.6,2.6-2.4,9.8-6.2,17.3-11.6,23-4.2,4.4-9.2,7.7-15.8,10.1-.3.1-.7.2-1.1.2h0Z"/>
        <path class="cls-3" d="M913.9,122.9c-1.1,0-2.2-.2-3.3-.5-1.3-.4-2.2-1.5-2.2-2.9s1.3-3,3-3h0c.3,0,.6,0,.9.2,1.6.5,3.9,0,5.9-1.1,2.2-1.3,6.1-4.6,7.6-12.2,1.1-5.6.3-10.8-2.1-13.7-1.6-1.9-4-2.8-7.1-2.8-1.7,0-3-1.3-3.1-2.9,0-1.7,1.3-3.1,3-3.1,5-.1,9,1.6,11.9,4.9,3.7,4.3,4.9,11.2,3.4,18.7-1.9,9.9-7.4,14.4-10.5,16.2-2.5,1.4-5,2.2-7.5,2.2h0Z"/>
        <path class="cls-3" d="M809,93.2c-1.3,0-2.5-.9-2.9-2.2-.6-2.2-1.2-4.4-1.6-6.4-.4-1.6.7-3.2,2.3-3.6s3.2.7,3.6,2.3c.4,1.9,1,4,1.5,6.2.4,1.6-.5,3.3-2.1,3.7-.3,0-.5.1-.8.1h0Z"/>
        <path class="cls-3" d="M914.8,93.2c-.3,0-.5,0-.8-.1-1.6-.4-2.6-2.1-2.1-3.7.6-2.1,1.1-4.2,1.5-6.2.4-1.6,2-2.7,3.6-2.3s2.7,2,2.3,3.6c-.5,2-1,4.2-1.6,6.4-.4,1.3-1.6,2.2-2.9,2.2h0Z"/>
        <path class="cls-3" d="M861.9,310c-10.2,0-28.6-.9-47.2-3.6-22.8-3.2-38.8-8-47.7-14.2-4.2-2.9-6.8-7.5-7.1-12.6-.6-7.6-.8-57.3,4-69.3,4.6-11.5,15.4-20,33.1-26.2,2.9-1,6.2-2,9.8-3,7.1-2,15-4.3,18.2-6.9,8.1-6.8,8.7-13.1,9.5-20.4.1-1.2.2-2.4.4-3.6.2-1.7,1.7-2.8,3.4-2.6,1.7.2,2.8,1.7,2.6,3.4-.2,1.1-.3,2.3-.4,3.4-.8,7.5-1.7,16.1-11.6,24.4-4.2,3.5-12.5,5.9-20.5,8.1-3.4,1-6.7,1.9-9.4,2.9-16,5.6-25.6,13-29.5,22.8-3.9,9.8-4.2,57.1-3.5,66.6.2,3.3,1.9,6.2,4.5,8,8,5.5,23.6,10.1,45.1,13.2,18.2,2.6,36.4,3.5,46.3,3.5,22,0,73.3-4.1,91.5-16.7,2.6-1.8,4.3-4.8,4.5-8,.7-9.6.4-56.9-3.5-66.6-3.9-9.7-13.6-17.2-29.5-22.8-2.7-.9-6-1.9-9.4-2.9-8-2.3-16.3-4.6-20.5-8.1-10-8.4-10.8-16.9-11.6-24.4-.1-1.1-.2-2.3-.4-3.4-.2-1.7,1-3.2,2.6-3.4s3.2.9,3.4,2.6c.2,1.2.3,2.4.4,3.6.8,7.3,1.4,13.6,9.5,20.4,3.2,2.7,11.2,4.9,18.2,6.9,3.5,1,6.9,1.9,9.8,3,17.7,6.2,28.6,14.8,33.2,26.2,4.8,11.9,4.5,61.7,4,69.3-.4,5.1-3,9.7-7.1,12.6-8.9,6.2-25,10.9-47.7,14.2-18.6,2.6-37,3.6-47.2,3.6h0Z"/>
        <path class="cls-3" d="M861.9,111.3c-.7,0-1.3-.6-1.3-1.3v-1.7c0-.7.6-1.3,1.3-1.3s1.3.6,1.3,1.3v1.7c0,.7-.6,1.3-1.3,1.3Z"/>
        <path class="cls-3" d="M861.9,197.9c-28,0-33-4.4-34.7-5.9h0c-1.3-1.1-1.4-3-.3-4.3,1.1-1.3,3-1.4,4.3-.3h.1c4.6,4.2,24.7,4.5,30.7,4.5s26.1-.3,30.7-4.4h.1c1.3-1.2,3.2-1,4.3.2,1.1,1.3.9,3.2-.3,4.3h0c-1.2,1.1-3.2,2.5-8,3.7-6.1,1.5-15.1,2.3-26.7,2.3Z"/>
        <path class="cls-3" d="M834.3,78.5c-.6,0-1.2-.2-1.7-.7-.9-.9-.8-2.4,0-3.3,3.5-3.3,9.7-4.2,14.8-2.2,1.2.5,1.8,1.8,1.3,3.1-.5,1.2-1.8,1.8-3,1.3-3.7-1.5-7.9-.5-9.8,1.3-.5.4-1,.6-1.6.6h0Z"/>
        <path class="cls-3" d="M837.9,153.6c-.3,0-.7,0-1.1-.2-6.9-2.6-12.1-6-16.3-10.8-5.5-6.1-9.3-14.2-11.7-24.9-.4-1.6.7-3.2,2.3-3.6,1.6-.4,3.2.7,3.6,2.3,4.8,21.4,15,27.8,24.2,31.3,1.6.6,2.4,2.3,1.8,3.9-.5,1.2-1.6,2-2.8,2h0Z"/>
        <path class="cls-3" d="M886,153.6c-1.2,0-2.4-.8-2.8-2-.6-1.6.2-3.3,1.8-3.9,16.8-6.3,21.7-19.3,24.2-31.3.3-1.6,2-2.7,3.6-2.3s2.7,2,2.3,3.6c-2.3,10.7-6.1,18.8-11.6,24.9-4.3,4.8-9.5,8.2-16.4,10.8-.3.1-.7.2-1.1.2h0Z"/>
        <path class="cls-2" d="M861.9,306.9c-22.3,0-85.3-4.7-96.7-22.6-.9-11.7-3.7-60.2,1.5-72.9,4.8-12.1,17-19.5,31.3-24.5,9-3.2,23.6-5.9,28.9-10.4l35,61.7,35-61.7c5.3,4.5,19.9,7.3,28.9,10.4,14.3,5,26.5,12.4,31.3,24.5,5.1,12.8,2.4,61.3,1.5,72.9-11.4,17.9-74.4,22.6-96.7,22.6h0Z"/>
        <path class="cls-3" d="M861.9,241.2c-1.1,0-2.1-.6-2.6-1.5l-35-61.7c-.8-1.4-.3-3.3,1.1-4.1,1.5-.8,3.3-.3,4.1,1.1l32.4,57,32.4-57c.8-1.4,2.7-2,4.1-1.1s2,2.7,1.1,4.1l-35,61.7c-.5.9-1.5,1.5-2.6,1.5h0Z"/>
        <path class="cls-3" d="M848.7,251c-.5,0-1-.2-1.5-.5l-38.1-31.3c-.5-.4-.9-1.1-.9-1.8s.3-1.4.9-1.8l8.9-7.2-8.4-7.8c-.5-.5-.8-1.1-.8-1.8,0-.7.3-1.3.9-1.8l11.3-9.2c1-.8,2.5-.7,3.3.3s.7,2.5-.3,3.3l-9.2,7.5,8.4,7.8c.5.5.8,1.1.8,1.8,0,.7-.3,1.3-.9,1.8l-8.8,7.1,35.9,29.4c1,.8,1.2,2.3.3,3.3-.5.6-1.1.9-1.8.9h0Z"/>
        <path class="cls-3" d="M875.1,251c-.7,0-1.3-.3-1.8-.9-.8-1-.7-2.5.3-3.3l35.9-29.4-8.8-7.1c-.5-.4-.8-1.1-.9-1.8s.2-1.3.8-1.8l8.4-7.8-9.2-7.5c-1-.8-1.2-2.3-.3-3.3.8-1,2.3-1.2,3.3-.3l11.3,9.2c.5.4.8,1.1.9,1.8,0,.7-.3,1.3-.8,1.8l-8.4,7.8,8.9,7.2c.5.4.9,1.1.9,1.8s-.3,1.4-.9,1.8l-38.1,31.3c-.4.4-1,.5-1.5.5h0Z"/>
        <path class="cls-3" d="M914.8,93.2h0c-1.4,0-2.6-1-2.9-2.4l-5.4-24c-4.5-.2-15-1-28.1-3.6-16-3.1-38.9-9.5-57.6-22.5-1.4-1-1.7-2.8-.8-4.2,1-1.4,2.8-1.7,4.2-.8,34.2,23.7,84.3,25.1,84.8,25.1,1.4,0,2.6,1,2.9,2.4l3.4,15c.7-.6,1.6-.8,2.5-.6,1.6.3,2.7,1.9,2.3,3.6-.7,3.2-1.5,6.5-2.4,9.8-.4,1.3-1.6,2.2-2.9,2.2h0Z"/>
        <path class="cls-3" d="M809,93.2c-1.4,0-2.5-.9-2.9-2.2-.8-3.1-1.6-6.1-2.2-9-.3-1.6.7-3.2,2.3-3.6.8-.2,1.6,0,2.3.4l3.5-15.5c0-.2.1-.4.2-.6.1-.3,3.3-7,14.6-21.9,1-1.3,2.9-1.6,4.2-.6,1.3,1,1.6,2.9.6,4.2-9.6,12.6-13.2,19.1-13.8,20.5l-5.8,25.9c-.3,1.3-1.5,2.3-2.9,2.4h0Z"/>
        <path class="cls-3" d="M906.7,53.3c-.5,0-1-.2-1.4-.6-13.2-12.9-37.5-26.2-56.5-31-1.1-.3-1.7-1.4-1.5-2.5.3-1.1,1.4-1.7,2.5-1.5,19.6,4.9,44.6,18.7,58.3,32.1.8.8.8,2,0,2.8-.4.4-.9.6-1.4.6h0Z"/>
        <path class="cls-3" d="M861.9,310c-10.2,0-28.6-.9-47.2-3.6-22.8-3.2-38.8-8-47.7-14.2-4.2-2.9-6.8-7.5-7.1-12.6-.6-7.6-.8-57.3,4-69.3,4.6-11.5,15.4-20,33.1-26.2,2.9-1,6.2-2,9.8-3,7.1-2,15-4.3,18.2-6.9,8.1-6.8,8.7-13.1,9.5-20.4.1-1.2.2-2.4.4-3.6.2-1.7,1.7-2.8,3.4-2.6,1.7.2,2.8,1.7,2.6,3.4-.2,1.1-.3,2.3-.4,3.4-.8,7.5-1.7,16.1-11.6,24.4-4.2,3.5-12.5,5.9-20.5,8.1-3.4,1-6.7,1.9-9.4,2.9-16,5.6-25.6,13-29.5,22.8-3.9,9.8-4.2,57.1-3.5,66.6.2,3.3,1.9,6.2,4.5,8,8,5.5,23.6,10.1,45.1,13.2,18.2,2.6,36.4,3.5,46.3,3.5,22,0,73.3-4.1,91.5-16.7,2.6-1.8,4.3-4.8,4.5-8,.7-9.6.4-56.9-3.5-66.6-3.9-9.7-13.6-17.2-29.5-22.8-2.7-.9-6-1.9-9.4-2.9-8-2.3-16.3-4.6-20.5-8.1-10-8.4-10.8-16.9-11.6-24.4-.1-1.1-.2-2.3-.4-3.4-.2-1.7,1-3.2,2.6-3.4s3.2.9,3.4,2.6c.2,1.2.3,2.4.4,3.6.8,7.3,1.4,13.6,9.5,20.4,3.2,2.7,11.2,4.9,18.2,6.9,3.5,1,6.9,1.9,9.8,3,17.7,6.2,28.6,14.8,33.2,26.2,4.8,11.9,4.5,61.7,4,69.3-.4,5.1-3,9.7-7.1,12.6-8.9,6.2-25,10.9-47.7,14.2-18.6,2.6-37,3.6-47.2,3.6h0Z"/>
        <path class="cls-3" d="M889.5,78.5c-.6,0-1.2-.2-1.6-.6-1.9-1.8-6.1-2.7-9.8-1.3-1.2.5-2.6-.1-3-1.3s.1-2.6,1.3-3.1c5.1-2,11.3-1.1,14.8,2.2.9.9,1,2.4,0,3.3-.5.5-1.1.7-1.7.7h0Z"/>
        <path class="cls-3" d="M861.9,135.3c-12.3,0-17.3-11.8-17.5-12.3-.3-.7-.2-1.6.2-2.2.4-.7,1.2-1,2-1h30.7c.8,0,1.5.4,2,1,.4.7.5,1.5.2,2.2-.2.5-5.2,12.3-17.5,12.3h0ZM850.6,124.4c2,2.7,5.6,6.2,11.3,6.2s9.3-3.4,11.3-6.2h-22.5Z"/>
        <path class="cls-3" d="M889.4,94.9c-.7,0-1.4-.3-1.9-1-1.4-1.9-3.5-2.3-4.6-2.3-1.8,0-3.7.6-4.5,1.6-.8,1-2.3,1.1-3.3.2-1-.8-1.1-2.3-.2-3.3,1.8-2.1,5-3.3,8.3-3.2,3.4.1,6.4,1.7,8.2,4.2.8,1.1.5,2.5-.5,3.3-.4.3-.9.4-1.4.4h0Z"/>
        <path class="cls-3" d="M834.4,94.9c-.5,0-1-.2-1.4-.4-1-.8-1.3-2.2-.5-3.3,1.9-2.6,4.9-4.1,8.2-4.2,3.3-.1,6.5,1.1,8.3,3.2.8,1,.7,2.5-.2,3.3-1,.8-2.5.7-3.3-.2-.9-1-2.7-1.7-4.5-1.6-1.1,0-3.2.4-4.6,2.3-.5.6-1.2,1-1.9,1h0Z"/>
      </g>
      <g>
        <path class="cls-5" d="M724.5,179.6l-17.7-21.7c-1.3-1.5-3.3-2.2-5.3-2-2.4.3-4.3,2.1-5,4.4-.5,1.9,0,4,1.3,5.5,0,0,9.9,13.8,14.6,18.6,4.4,5.1,9,40.8,34.3,34.4,14.9-3.8,18.7-14.2,21.7-15.7,5.4-2.7,11-3,13.7-7.1,3.2-4.8,5.6-17.8,5.6-17.8.7-1.9.3-4-.9-5.6-1.5-1.9-3.9-2.8-6.3-2.1-2,.5-3.5,1.9-4.2,3.9l-3.4,9.9s-5,2.3-7.5.4-5-17.6-5-17.6l8.1-4.1,11.5,5c1.9.7,4,.4,5.6-.7,2-1.4,2.9-3.8,2.4-6.2-.4-2-1.8-3.6-3.7-4.3,0,0-11.8-5.9-14.7-7.3-2.6-1.2-22.1,7.2-21.7,10.9.7,6.4,1.3,10.7,1.3,10.7l-12.2-38.1c-.6-1.9-2.1-3.4-4-4.1-2.3-.7-4.8,0-6.3,1.9-1.3,1.5-1.7,3.6-1.2,5.6l10.8,37.1-17.4-32.4c-.9-1.8-2.6-3-4.6-3.3-2.4-.3-4.7.9-5.9,2.9-1,1.7-1.1,3.9-.2,5.7l16.3,33.3h0Z"/>
        <path class="cls-3" d="M740.8,222.6c-6.8,0-12.7-3-17.6-9-5.1-6.2-8.1-14.5-10.3-20.5-1-2.7-2.1-5.8-2.8-6.6-4.7-4.8-13.7-17.3-14.7-18.8-1.9-2.3-2.6-5.3-1.9-8.2.9-3.5,3.9-6.1,7.4-6.6,3-.4,6,.7,8,2.9,0,0,0,0,0,0l1.1,1.4-4.8-9.7c-1.3-2.7-1.2-5.9.3-8.5,1.8-3.1,5.3-4.9,8.9-4.4,3,.4,5.6,2.2,6.9,4.9l3.8,7.1-2.8-9.5c-.8-2.9-.2-6,1.8-8.4,2.3-2.8,6.1-3.9,9.5-2.8,2.9.9,5.1,3.1,6,6l7.6,23.6c.5-.4,1-.8,1.4-1.1,2.7-1.9,7-4.2,11.4-5.9,7.9-3.1,9.8-2.3,10.6-1.9,2.8,1.3,13.4,6.6,14.7,7.3,2.8,1.1,4.8,3.5,5.4,6.4.8,3.4-.5,6.9-3.2,9.1.5.4,1,.9,1.4,1.4,1.8,2.3,2.3,5.4,1.5,8.2-.4,2.1-2.7,13.8-6,18.7-2.4,3.6-6.2,4.9-9.9,6.2-1.6.6-3.3,1.2-5,1.9-.4.2-1.3,1.3-2,2.2-3.3,4-8.7,10.7-20.4,13.7-2.3.6-4.5.9-6.6.9h0ZM702.3,158.9c-.1,0-.3,0-.4,0-1.2.2-2.2,1-2.5,2.2-.3,1,0,2,.7,2.7,0,0,.1.2.2.2,0,.1,9.8,13.7,14.3,18.2,0,0,0,0,.1.1,1.4,1.6,2.5,4.5,3.9,8.6,2,5.6,4.8,13.3,9.3,18.8,4.9,6,10.7,8,18.1,6.1,9.7-2.5,14.2-8,17.2-11.6,1.4-1.7,2.5-3.1,4-3.8,2-1,3.9-1.6,5.7-2.2,3.1-1.1,5.6-1.9,6.8-3.8,2.3-3.5,4.5-13.2,5.1-16.7,0-.1,0-.3.1-.4.3-.9.2-2-.5-2.8-.7-.9-2-1.4-3.1-1.1-1,.2-1.7,1-2.1,1.9l-3.4,9.9c-.3.8-.8,1.4-1.6,1.8-1.1.5-6.9,2.9-10.6,0-1.2-1-2.6-3-4.5-11.2-1-4.2-1.6-8.1-1.6-8.2-.2-1.3.4-2.6,1.6-3.2l8.1-4.1c.8-.4,1.7-.4,2.6,0l11.4,4.9c.9.3,2,.2,2.8-.4,1-.7,1.4-1.9,1.2-3.1-.2-1-.9-1.8-1.8-2.1,0,0-.2,0-.3-.1-.1,0-10.9-5.5-14.3-7.1-1.1,0-4.6,1-9.4,3.2-4.8,2.2-7.5,4.1-8.3,5,.7,5.9,1.2,10,1.2,10.1.2,1.6-.8,3-2.3,3.4-1.5.4-3.1-.5-3.5-2l-12.2-38.1s0,0,0,0c-.3-1-1-1.7-2-2-1.1-.4-2.4,0-3.2.9-.7.8-.9,1.8-.6,2.8l10.8,37.1c.4,1.5-.3,3.1-1.8,3.6-1.4.6-3.1,0-3.8-1.4l-17.4-32.4s0,0,0,0c-.4-.9-1.3-1.5-2.3-1.6-1.2-.1-2.3.4-2.9,1.5-.5.9-.5,1.9,0,2.8l16.3,33.3c.7,1.4.2,3.1-1.1,3.9-1.3.8-3,.6-4-.6l-17.7-21.6c-.6-.6-1.4-1-2.2-1h0ZM767.5,182.4h0ZM767.4,182.2c.5.2,1.8,0,3.1-.4l2.9-8.5c.5-1.5,1.5-2.9,2.7-3.9l-7.4-3.2-4.8,2.5c1.1,5.8,2.6,12.1,3.6,13.6h0Z"/>
      </g>
      <g>
        <g>
          <path class="cls-5" d="M729.3,302.5l-2.2-8.8h158.6l-2.2,8.8c-1.1,6.6-6.9,11.4-13.6,11.4h-127.1c-6.7,0-12.4-4.8-13.6-11.4h0Z"/>
          <path class="cls-3" d="M870,317h-127.1c-8.2,0-15.1-5.8-16.5-13.8l-2.2-8.6c-.2-.9,0-1.9.5-2.6.6-.7,1.5-1.2,2.4-1.2h158.6c.9,0,1.8.4,2.4,1.2s.8,1.7.5,2.6l-2.2,8.6c-1.4,8-8.4,13.8-16.5,13.8h0ZM731,296.8l1.3,5c0,0,0,.1,0,.2.9,5.2,5.3,8.9,10.6,8.9h127.1c5.2,0,9.7-3.8,10.6-8.9,0,0,0-.2,0-.2l1.3-5h-150.9Z"/>
        </g>
        <g>
          <path class="cls-5" d="M688.6,300.2l-16.8-84.6c0-7.6,6.2-13.8,13.8-13.8h131.1c7.6,0,13.8,6.2,13.8,13.8l16.8,84.6c0,7.6-6.2,13.8-13.8,13.8h-131.1c-7.6,0-13.8-6.2-13.8-13.8Z"/>
          <path class="cls-3" d="M833.4,317h-131.1c-9.2,0-16.6-7.4-16.8-16.5l-16.7-84.4c0-.2,0-.4,0-.6,0-9.2,7.5-16.8,16.8-16.8h131.1c9.2,0,16.6,7.4,16.8,16.5l16.7,84.4c0,.2,0,.4,0,.6,0,9.2-7.5,16.8-16.8,16.8ZM674.8,215.3l16.7,84.3c0,.2,0,.4,0,.6,0,5.9,4.8,10.7,10.7,10.7h131.1c5.8,0,10.6-4.7,10.7-10.5l-16.7-84.3c0-.2,0-.4,0-.6,0-5.9-4.8-10.7-10.7-10.7h-131.1c-5.8,0-10.6,4.7-10.7,10.5Z"/>
        </g>
        <circle class="cls-2" cx="759.5" cy="257.8" r="9.8"/>
      </g>
      <g>
        <path class="cls-5" d="M931.6,262.5c-11.7-3.2-24.4-6.4-32-5.3-.9.1-3,1.8-5.6,4.3-1-1.3-6.1,1.6-7.8,2.4l-12.7,6.7c-1.8.9-3,2.7-3.2,4.7-.2,2.4,1,4.7,3.1,5.9.4.2.8.4,1.3.5-.5.6-.8.9-.8.9-1.3,1.5-1.8,3.6-1.3,5.5.6,2.3,2.6,4,5,4.4,2,.3,4-.5,5.3-2l3.3-3.7c-1.2,1.5-1.7,3.5-1.2,5.4.6,2.3,2.6,4,5,4.4,2,.3,4-.5,5.3-2l2.5-2.8s0,0,0,0c-1.1,1.5-1.5,3.4-1,5.2.6,2.3,2.6,4,5,4.4,2,.3,4-.5,5.3-2l3.2-3.5c-.9,1.4-1.1,3.1-.7,4.7.6,2.3,2.6,4,5,4.4,2,.3,4-.5,5.3-2l3-3.4s2.3-2.6,5.4-6.1c27.1,7.5,44.6-19.8,3.5-31.2h0Z"/>
        <g>
          <path class="cls-3" d="M890.7,299.7c-.4,0-.8,0-1.3,0-3.6-.5-6.5-3.1-7.5-6.6-.8-2.8,0-5.9,1.8-8.1h.1c0-.1,0-.2,0-.2l13.4-15.2c1.1-1.2,3-1.4,4.3-.3s1.4,3,.3,4.3l-1.9,2.1-11.5,13.1c-.6.7-.8,1.7-.6,2.7.3,1.1,1.3,2,2.5,2.2,1,.1,2-.2,2.6-1l16.5-18.8c1.1-1.2,3-1.4,4.3-.3,1.2,1.1,1.4,3,.3,4.3l-16.5,18.8c-1.7,2-4.2,3.1-6.8,3.1h0Z"/>
          <path class="cls-3" d="M915.3,308.1c-.4,0-.8,0-1.3,0-3.6-.5-6.5-3.1-7.5-6.6-.7-2.4-.3-5,1-7.1.2-.4.5-.8.9-1.2,0,0,0,0,0,0l12.5-13.5c1.1-1.2,3-1.3,4.3-.2,1.2,1.1,1.3,3,.2,4.3l-12.4,13.5c0,.1-.2.2-.2.3,0,0,0,0,0,0-.4.7-.6,1.6-.3,2.4.3,1.1,1.3,2,2.5,2.2,1,.1,2-.2,2.6-1l3-3.4h0s2.3-2.6,5.4-6.1c.8-.9,2-1.2,3.1-.9,12.1,3.4,22.1-1,23.8-7.1,1.4-5.2-3.4-13.1-22-18.2-11.2-3.1-23.5-6.1-30.5-5.2-.3.2-1.5.9-4.2,3.5-6.5,6-16.3,16.9-19.1,20-.5.5-.8.9-.8.9-.7.8-.9,1.8-.6,2.7.3,1.2,1.3,2,2.5,2.2,1,.1,2-.2,2.7-1l14.9-16.9c1.1-1.2,3-1.4,4.3-.3,1.2,1.1,1.4,3,.3,4.3l-14.9,16.9c-2,2.3-5,3.4-8,3-3.6-.5-6.5-3.1-7.5-6.6-.8-2.9,0-6,1.9-8.3,0,0,0,0,0,0,0,0,.3-.3.8-.9,2.9-3.2,12.8-14.2,19.5-20.4,4.2-4,5.9-4.9,7.3-5.1,8.1-1.2,20.8,1.9,33.3,5.4,22.8,6.3,28.5,17.4,26.2,25.7-1.3,4.8-5.4,8.8-11.2,11-5.3,2-11.8,2.3-18.2.8-2.4,2.8-4.2,4.7-4.2,4.7l-3,3.4c-1.7,2-4.2,3-6.7,3h0ZM900,260.2h0ZM900.3,260.1h0Z"/>
          <path class="cls-3" d="M902.5,304.5c-.4,0-.8,0-1.2,0-3.6-.5-6.5-3.1-7.5-6.6-.8-2.9,0-6,2-8.3l13.8-15.6c1.1-1.2,3-1.4,4.3-.3,1.2,1.1,1.4,3,.3,4.3l-13.8,15.6c-.7.8-.9,1.8-.7,2.8.3,1.1,1.3,2,2.5,2.2,1,.1,2-.2,2.7-1,0,0,0,0,0,0l16.2-17.8c1.1-1.2,3-1.3,4.3-.2,1.2,1.1,1.3,3,.2,4.3l-16.2,17.8c-1.7,1.9-4.2,3-6.8,3h0Z"/>
          <path class="cls-3" d="M873.9,284.6l.8-2.9-.8,2.9c-.7-.2-1.3-.5-2-.8-3.2-1.7-5-5.2-4.6-8.8.3-3,2.1-5.7,4.8-7.1l13-6.9c3.7-2,8.8-4.7,11.3-1.4,1,1.3.8,3.2-.6,4.2-.9.7-2.1.8-3.1.4-.6.2-2,.7-4.8,2.2l-.3.2-12.7,6.7c-.9.5-1.5,1.3-1.6,2.4-.1,1.2.5,2.3,1.5,2.9.2.1.4.2.6.2l-.8,2.9-.8,2.9h0ZM891.5,263.3h0Z"/>
        </g>
      </g>
    </g>
    <g>
      <path class="cls-3" d="M759.5,101.9c-.5,0-.9-.1-1.4-.3-1.5-.8-2.1-2.6-1.3-4.1l13.1-25.3c.8-1.5,2.6-2.1,4.1-1.3,1.5.8,2.1,2.6,1.3,4.1l-13.1,25.3c-.5,1-1.6,1.6-2.7,1.6Z"/>
      <path class="cls-3" d="M743.9,96.7c-.2,0-.3,0-.5,0-1.7-.3-2.8-1.8-2.5-3.5l4.7-28.1c.3-1.7,1.8-2.8,3.5-2.5,1.7.3,2.8,1.8,2.5,3.5l-4.7,28.1c-.2,1.5-1.5,2.5-3,2.5Z"/>
      <path class="cls-3" d="M727.6,96.6c-1.5,0-2.8-1.1-3-2.6l-4.2-28.1c-.2-1.7.9-3.2,2.5-3.4,1.7-.2,3.2.9,3.4,2.5l4.2,28.1c.2,1.7-.9,3.2-2.5,3.4-.2,0-.3,0-.5,0Z"/>
      <path class="cls-3" d="M712,101.5c-1.1,0-2.2-.6-2.7-1.7l-12.7-25.5c-.8-1.5-.1-3.3,1.3-4.1s3.3-.1,4.1,1.3l12.7,25.5c.8,1.5.1,3.3-1.3,4.1-.4.2-.9.3-1.3.3Z"/>
    </g>
  </g>
  <path class="cls-3" d="M487.4,111.2c-3.7.1-6.7,2.6-7.8,5.6s-.5,6.8,2.2,9.3l30.4,28.6h-68.2,0c-4.8,0-8.8,3.8-8.8,8.6s4,8.7,8.8,8.6h0,68.4l-30.6,28.6c-3.5,3.2-3.7,8.8-.5,12.2s8.8,3.6,12.2.4l46.4-43.4c3.6-3.4,3.6-9.2,0-12.6l-46.3-43.6c-1.7-1.6-3.9-2.5-6.2-2.4h0ZM487.6,117c.8,0,1.5.3,2.1.8h0l46.3,43.7c1.2,1.2,1.2,3,0,4.2l-46.5,43.4h0c-1.2,1.1-3,1.1-4.1-.1-1.1-1.2-1-3,.2-4.1h0l41.3-38.6h-83c-1.6,0-2.9-1.2-2.9-2.9s1.3-2.9,2.9-2.9h82.7l-40.9-38.6h0c-1-1-1.1-2.1-.8-3.1.4-1.1,1.2-1.8,2.6-1.9h0Z"/>
</svg>