<?xml version="1.0" encoding="utf-8"?>
<!-- Generator: Adobe Illustrator 16.0.3, SVG Export Plug-In . SVG Version: 6.00 Build 0)  -->
<!DOCTYPE svg PUBLIC "-//W3C//DTD SVG 1.1//EN" "http://www.w3.org/Graphics/SVG/1.1/DTD/svg11.dtd">
<svg version="1.1" id="Layer_1" xmlns="http://www.w3.org/2000/svg" xmlns:xlink="http://www.w3.org/1999/xlink" x="0px" y="0px"
	 width="380px" height="65px" viewBox="0 0 380 65" enable-background="new 0 0 380 65" xml:space="preserve">
<path fill="#FFFFFF" d="M22.707,57.054c4.901,2.632,11.342,3.433,19.901,3.433h28.896c-0.661,0.878-1.323,2.438-1.541,3.464H42.679
	c-16.82,0-25.823-2.726-31.02-14.503c-0.87,5.78-2.489,11.334-5.337,16.103c-0.583-0.652-1.756-1.6-2.489-1.895
	c3.509-5.947,4.98-13.547,5.485-20.871v-0.068h0.078c0.219-3.735,0.289-7.322,0.219-10.613l3.073,0.149c0,3.143,0,6.51-0.218,10.02
	c1.533,5.71,3.804,9.734,6.947,12.512V25.669H5.738v-3.29h12.877V12.28H7.567V8.988h11.047v-9.437h3.36v9.437h9.508v3.292h-9.508
	v10.099H33.17v3.29H22.707v10.752h9.952v3.292h-9.952V57.054z M70.844,14.691c-1.168,12.293-3.439,22.096-6.8,29.705
	c2.342,4.537,5.188,8.193,8.627,10.604c-0.73,0.663-1.75,1.759-2.263,2.637c-3.151-2.488-5.78-5.857-8.054-9.871
	c-1.967,3.726-4.309,6.799-6.877,9.209c-0.505-0.801-1.603-2.045-2.335-2.488c2.85-2.553,5.416-5.998,7.463-10.238
	c-3.074-6.878-5.198-15.142-6.591-24.064l2.707-0.515c1.176,7.532,3.005,14.775,5.564,20.851c2.411-6.224,4.169-13.981,5.119-23.193
	H51.237v41.26h-3.143V47.034c-6.73,1.681-13.458,3.361-18.805,4.605l-0.801-3.149c1.829-0.368,3.953-0.801,6.287-1.316V5.986h-4.607
	V2.772h34.606v3.213H51.237v8.193h17.047l0.583-0.141L70.844,14.691z M37.855,5.986v10.098h10.238V5.986H37.855z M37.855,29.84
	h10.238V19.158H37.855V29.84z M37.855,46.442c3.212-0.731,6.729-1.532,10.238-2.411V32.982H37.855V46.442z"/>
<path fill="#FFFFFF" d="M83.322,48.278v5.555h-3.29V6.5h17.481v41.779H83.322z M83.322,9.938v34.894h10.902V9.938H83.322z
	 M125.242,33.418c4.17,10.177,11.483,20.269,18.579,25.238c-0.88,0.661-1.975,1.985-2.629,2.856
	c-6.808-5.407-13.755-15.358-18.144-25.527v30.01h-3.518V36.056c-4.892,10.681-12.798,20.554-20.702,25.674
	c-0.583-0.872-1.603-1.968-2.481-2.629c8.261-4.903,16.532-15.071,21.138-25.684h-16.898v-3.36h18.943V15.719h-15.801v-3.37h15.801
	V-0.083h3.518V12.35h16.464v3.37h-16.464v14.338h19.893v3.36H125.242z"/>
<path fill="#FFFFFF" d="M197.615,60.128c-4.043-3.804-9.635-7.904-16.146-10.466c0,1.394,0.078,2.71,0.078,3.657
	c0,5.486-3.954,10.484-13.392,10.484c-10.899,0-16.75-4.041-16.75-11.285c0-6.877,6.443-11.63,17.194-11.63
	c1.829,0,3.578,0.147,5.337,0.288c-0.069-2.482-0.218-5.051-0.294-7.461h-3.946c-4.612,0-12.727-0.367-17.777-0.95l0.071-6.877
	c4.535,0.81,13.389,1.315,17.778,1.315h3.735V26.54v-8.628c-1.175,0-2.345,0-3.589,0c-4.83,0-12.144-0.512-16.314-1.095
	l-0.079-6.662c4.467,0.81,11.709,1.394,16.324,1.394h3.727V7.229c0-1.166-0.148-3.359-0.297-4.536h7.757
	c-0.147,1.316-0.364,2.934-0.437,4.902c-0.076,0.879-0.076,2.201-0.076,3.734c5.999-0.296,11.562-0.879,17.975-1.827l0.15,6.659
	c-5.302,0.505-11.318,1.166-18.195,1.462v8.916v0.444c7.096-0.287,13.502-0.949,19.726-1.828l0.078,6.8
	c-6.681,0.808-12.708,1.323-19.657,1.609c0.149,3.004,0.289,6.148,0.515,9.073c9.291,2.637,16.505,7.687,20.604,11.048
	L197.615,60.128z M174.154,47.47c-2.116-0.366-4.24-0.583-6.51-0.583c-6.069,0-9.291,2.264-9.291,5.188
	c0,3.151,2.639,5.196,8.783,5.196c4.021,0,7.097-1.166,7.097-5.779C174.233,50.465,174.233,49.079,174.154,47.47z"/>
<path fill="#FFFFFF" d="M250.787,10.668c-1.462,0.958-3.072,2.046-4.464,3.003c-3.657,2.63-11.633,9.726-16.604,13.973
	c2.927-0.948,5.337-1.314,8.114-1.314c12.146,0,21.069,7.166,21.069,17.482c0,11.7-10.091,19.913-26.7,19.913
	c-9.587,0-15.36-4.624-15.36-10.989c0-5.338,4.825-10.316,11.998-10.316c8.775,0,13.895,5.633,14.991,12.292
	c4.903-2.272,7.688-6.076,7.688-11.048c0-6.729-6.513-11.265-15.289-11.265c-11.047,0-18.587,5.852-26.778,14.774l-5.337-5.267
	c5.483-4.675,14.261-12.285,18.5-15.872c3.953-3.438,11.639-10.098,15.218-13.321c-3.726,0.148-14.843,0.739-18.578,0.958
	c-1.828,0.07-3.726,0.218-5.338,0.437l-0.218-7.532c1.83,0.218,4.022,0.367,5.773,0.367c3.734,0,18.874-0.444,22.757-0.81
	c2.56-0.288,3.797-0.436,4.677-0.731L250.787,10.668z M237.25,56.61c-0.654-5.118-3.725-8.557-8.41-8.557
	c-3.072,0-5.197,1.827-5.197,4.022c0,3.151,3.144,4.9,7.905,4.9C233.592,56.976,235.492,56.829,237.25,56.61z"/>
<path fill="#FFFFFF" d="M299.024,19.009c-4.537,1.029-9.585,1.83-14.488,2.413c-0.651,3.073-1.462,6.372-2.192,9.366
	c-2.63,10.17-7.462,24.944-11.336,33.085l-8.052-2.726c4.316-7.314,9.514-22.089,12.22-32.187c0.584-2.195,1.171-4.536,1.682-6.877
	c-1.976,0.078-3.95,0.146-5.702,0.146c-3.291,0-5.999-0.068-8.489-0.294l-0.218-7.166c3.51,0.435,6.069,0.583,8.848,0.583
	c2.193,0,4.614-0.069,7.024-0.294c0.367-2.117,0.732-3.945,0.879-5.337c0.366-2.265,0.436-4.903,0.289-6.512l8.783,0.73
	c-0.443,1.759-1.026,4.685-1.395,6.147l-0.879,4.169c4.396-0.583,8.786-1.392,13.026-2.41V19.009z M296.759,43.448
	c-0.585,2.193-0.95,4.534-0.95,6.286c0,3.221,1.681,6.076,10.753,6.076c4.676,0,9.724-0.514,14.409-1.393l-0.296,7.313
	c-3.875,0.514-8.775,1.038-14.191,1.038c-11.7,0-17.777-3.815-17.777-10.989c0-2.994,0.591-6.068,1.175-8.917L296.759,43.448z
	 M293.904,25.739c3.805-0.365,8.777-0.731,13.46-0.731c4.021,0,8.489,0.218,12.439,0.661l-0.146,6.949
	c-3.587-0.436-7.976-0.879-12.223-0.879c-4.754,0-9.073,0.295-13.531,0.808V25.739z M313.508,17.99
	c-1.461-3.003-3.873-7.39-5.849-10.177l4.755-1.967c1.826,2.629,4.464,7.165,5.928,10.02L313.508,17.99z M320.675,2.772
	c1.977,2.7,4.755,7.313,6.078,9.942l-4.755,2.125c-1.541-3.145-3.954-7.313-6-10.091L320.675,2.772z"/>
<path fill="#FFFFFF" d="M340.16,4.305c-0.434,2.639-0.66,5.703-0.802,8.27c-0.293,7.968-0.878,23.629-0.878,33.651
	c0,7.607,4.825,10.167,10.971,10.167c12.658,0,20.197-7.164,25.388-14.852l5.119,6.365c-4.755,6.878-14.479,16.185-30.646,16.185
	c-10.978,0-18.37-4.773-18.37-16.692c0-10.245,0.731-27.807,0.731-34.824c0-3.003-0.218-5.928-0.731-8.34L340.16,4.305z"/>
</svg>
