<svg xmlns="http://www.w3.org/2000/svg" viewBox="0 0 656.73 150.89">
    <defs>
        <style>.cls-1{fill:#117dbf;}</style>
    </defs>
    <g id="レイヤー_2" data-name="レイヤー 2">
        <g id="レイヤー_1のコピー" data-name="レイヤー 1のコピー">
            <path class="cls-1"
                  d="M83.89,58.16C86.83,62.85,89,69.28,89,78.53c0,23.18-19.43,43-42.08,43-11.52,0-20.23-5.76-22.51-14.61-5.36,7.64-12.2,14.61-20,14.61L0,108.54c2.81-.4,10.45-1.07,13.4-4.82,4.42-5.63,8.44-13.13,10.45-16.89,3.89-7.1,7.37-13.53,10.32-19.56.67-1.21,1.34-2.55,2-3.89,9.38-18.89,13.94-32.16,13.94-40.2,0-6-2.41-7.5-5.77-7.5-12.19,0-24,16.61-24,31.62a6.48,6.48,0,0,0,3.48,5.5L12.73,59.36A23.37,23.37,0,0,1,9.65,47.3c0-17.69,15.68-41,35.37-41C57.09,6.3,60.84,15,60.84,23.58v2c9.51-11,20.1-19.29,30.68-19.29,10.32,0,17.69,8.31,17.69,20C109.21,38.32,101.31,52.93,83.89,58.16Zm14.6-31.9c0-6-3.21-10.58-7.5-10.58-13.8,0-32.56,28.81-40.07,41.94-2.28,4.69-4.82,10.05-7.77,15.81l-.4.81c-2.55,5-5.36,10.32-8.58,16.08-.67,1.2-1.61,3.08-2.81,5.22l6.43-.93c-3.35,9.11-1.74,17.55,9.25,17.55,15.41,0,31.22-14.47,31.22-33.63,0-4.56-.4-11.93-5.9-18.5a21.75,21.75,0,0,1-3.08.14c-4.29,0-8.44-1.75-10.32-4.69l5.5-5.1L69.28,46a88.08,88.08,0,0,1,7.64,4.69C90.59,48.11,98.49,35.51,98.49,26.26Z"/>
            <path class="cls-1"
                  d="M99.83,94.74c0-12.46,8.71-28.68,21.84-50.92L132,50.12a52.5,52.5,0,0,0-7.64,10.32c-6,10.45-13.8,25.72-13.8,34.3,0,3.35,1.07,7.91,5.09,7.91,9.11,0,21.31-23.45,26.4-32.57l9.38,5.23C143.51,89.51,131.05,112,115,112,105.32,112,99.83,104.25,99.83,94.74ZM127.3,31.36l8.58-16.62,9.64,4.82L137,36.18Z"/>
            <path class="cls-1"
                  d="M219,75.31c-6.7,12.19-17.69,25.46-31.63,25.46a23.83,23.83,0,0,1-7.64-1.21c-6.16,7.37-13.93,12.47-22.64,12.47-11,0-19.43-7.11-19.43-21.71,0-20,16.34-49,36.58-49,11.39,0,19.43,7.64,19.43,21.85,0,8.17-2.68,18.09-7.51,26.8.41,0,.81.13,1.21.13,9.25,0,17.82-11.93,22.25-20ZM170.31,95a14.62,14.62,0,0,1-1.47-1.21l6.56-9.91L176.88,85c3.75-7.24,6-15.55,6-21.84,0-8.72-3.62-12.47-8.71-12.47-12.87,0-25.86,24.53-25.86,39.67,0,8.44,3.35,12.33,8.71,12.33C161.74,102.65,166.43,99.56,170.31,95Z"/>
            <path class="cls-1"
                  d="M289.57,75.31C281.8,89.65,268.4,100.9,255.4,100.9a24.19,24.19,0,0,1-6.83-1.07c-14.34,30.69-26.27,51.06-44.62,51.06-11.26,0-18.36-8.71-20.24-13.94l10.85-6.43c.81,4.69,3.49,11,9.65,11,10.59,0,20-14.88,30.29-36.45-4.69,4.15-9.92,7-15.55,7-10.18,0-14.87-9.25-14.87-19.17,0-20,17.29-51.59,38.32-51.59,8.18,0,13.54,5.23,16.62,10.19,1.21-2.42,2.28-4.83,3.48-7.24l12.33,3.22c-6.3,8.84-14.6,27.07-19.83,38.46-.67,1.34-1.21,2.68-1.88,4a17.09,17.09,0,0,0,2.55.26c8.71,0,18.49-9.11,24.52-20.1Zm-39.66-4.15c1.34-2.82,2.54-5.63,3.88-8.45l-1.47.54c-1.07-7.24-4-12.6-11.12-12.6-12.06,0-26.27,26.54-26.27,42.48,0,6.57,2.28,9.52,5.1,9.52C226.06,102.65,238.92,89.25,249.91,71.16Z"/>
            <path class="cls-1"
                  d="M354.29,75.31c-7.9,14.2-20.5,36.72-36.85,36.72-8.44,0-15-6.17-15-15.68,0-10.86,7.37-30,15.81-42.75a54.19,54.19,0,0,1-16.35-3.75c-3.22,8.71-9.92,21-12.33,25.46l-9.38-5.23c7.5-14.07,11.12-22.37,12.2-25.59-.94-.67-1.75-1.48-2.69-2.28l8.18-8c.8,2.14,4.42,5.49,8,6.83,5.09,1.88,13.94,5,21.71,2l7.23,10.32c-2.14.67-5.62,3.22-8.17,7.11-7.24,11-13.53,26.93-13.53,35.64,0,3.35,1.2,6.57,4.82,6.57,9.65,0,21.84-23.32,26.93-32.57Z"/>
            <path class="cls-1"
                  d="M430.14,75.31C422.36,89.51,409.77,112,393.55,112c-9.11,0-14.74-7.24-15-16.49-6.44,8.58-14.74,16.49-24.26,16.49-10.18,0-14.87-9.25-14.87-19.17,0-20,17.28-51.59,38.32-51.59,9,0,14.34,6.17,17.42,11.53,1.61-2.95,3.35-5.9,5.23-9l11.12,6.83A48.38,48.38,0,0,0,401.59,63c-5.76,10.32-12.32,23.85-12.32,31.89,0,3.35,1.07,7.78,5.09,7.78,9.11,0,21.44-23.59,26.4-32.57ZM385.38,71l4.42-8.57-2.14.8c-1.07-7.24-4-12.6-11.13-12.6-12,0-26.26,26.54-26.26,42.48,0,6.57,2.28,9.52,5.09,9.52C361.39,102.65,374.26,89.25,385.38,71Z"/>
            <path class="cls-1"
                  d="M493.79,75.31C486,89.38,474.35,100.9,462,100.9a20,20,0,0,1-5.5-.8C450,107.2,442.06,112,434,112a15.73,15.73,0,0,1-14.47-8.31c-5.63,14.47-10.05,25.06-14.74,32.56-6.57,10.18-13.67,14.61-25.06,14.61L376.67,140a19.19,19.19,0,0,0,18.89-9.24c5.63-8.71,11.66-25.06,22.78-54.41L419.55,73l1.61-4.15c2.94-6.7,3.88-17.56,2.27-22.25l11.93-1.87a22.43,22.43,0,0,1,1.07,9.51c5.09-7.24,11.13-13,19.84-13,9.24,0,16.48,6.44,16.48,20.1,0,9.25-3.35,19.57-8.58,28.41,7.77-1.47,15.28-10.72,20.24-19.7ZM462,61.37c0-5.09-1.08-10.72-5.76-10.72-7.24,0-20.11,11.66-26.81,26.67-3.48,8.17-4.55,25.33,4.56,25.33C445.14,102.65,462,80.67,462,61.37Z"/>
            <path class="cls-1"
                  d="M562.53,75.31c-8,14.47-20.37,36.72-36.85,36.72-9,0-15-6.44-15-16.08,0-14.74,14.87-28.68,14.87-37.66,0-4-2.95-7.64-6-7.64-8.44,0-26.13,25.87-31.76,38.86-2.54,6-5,12.47-7.23,18.9L467.65,104c3.89-4.43,7.51-12.2,10.05-18.36,0-.14.14-.27.14-.4l.4-.94c10.72-25.87,22.65-48.51,32-67.14,3.08-5.49,7.9-14.74,9.11-17.15l11.79,5.36A47.31,47.31,0,0,0,522.33,17c-4.29,8.71-9.39,18.49-14.74,29.08,4.28-3,8.57-4.83,12.72-4.83,8.72,0,16,7.64,16,16.75,0,13.4-14.87,26.8-14.87,38.19,0,3.89,1.74,6.44,4.82,6.44,9.65,0,21.58-23.05,26.94-32.57Z"/>
            <path class="cls-1"
                  d="M545.77,94.74c0-12.46,8.71-28.68,21.84-50.92l10.32,6.3a52.7,52.7,0,0,0-7.63,10.32c-6,10.45-13.81,25.72-13.81,34.3,0,3.35,1.07,7.91,5.1,7.91,9.11,0,21.3-23.45,26.39-32.57l9.38,5.23C589.46,89.51,577,112,560.91,112,551.27,112,545.77,104.25,545.77,94.74Zm27.47-63.38,8.58-16.62,9.65,4.82-8.58,16.62Z"/>
            <path class="cls-1"
                  d="M656.73,75.31C646.14,94.61,630.06,112,608.35,112c-14.47,0-25.73-7.78-25.73-22.38,0-19,20.5-48.38,40.6-48.38,24.53,0,15.82,42.08-10.58,42.08a31.73,31.73,0,0,1-16.89-5.23,33.49,33.49,0,0,0-2.41,11.13c0,8.84,6.57,13.4,15,13.4,17.42,0,30.55-17.42,39-32.57Zm-56.15-6.57C603.12,71.16,609,74,613,74c11.79,0,19.16-23.32,8.58-23.32C615.32,50.65,606.61,59,600.58,68.74Z"/>
        </g>
    </g>
</svg>