<svg id="a" data-name="レイヤー 1" xmlns="http://www.w3.org/2000/svg" viewBox="0 0 579.6 381.84"><defs><style>.d{fill:#117dbf}</style></defs><g id="b" data-name="レイヤー 2"><g id="c" data-name="レイヤー 1のコピー"><path class="d" d="M74.9 287.22c4.89 2.59 9.99 7.08 14.61 15.09 11.59 20.07 4.67 46.95-14.94 58.28-9.98 5.76-20.4 5.13-26.8-1.4-.82 9.3-3.26 18.75-10.02 22.65l-10.31-9.04c2.23-1.75 8.51-6.15 9.19-10.87 1.01-7.09.74-15.59.6-19.85-.18-8.09-.38-15.4-.84-22.1-.02-1.38-.11-2.88-.21-4.37-1.32-21.05-4.01-34.82-8.03-41.78-3-5.2-5.84-5.29-8.75-3.61-10.56 6.09-12.48 26.38-4.97 39.38a6.477 6.477 0 0 0 5.76 3.02l-6.32 11.23c-3.65-2.13-6.66-5.2-8.7-8.9-8.85-15.32-6.92-43.35 10.13-53.19 10.45-6.04 18.05-.38 22.34 7.05l1 1.73c2.74-14.28 7.76-26.76 16.92-32.05 8.94-5.16 19.47-1.65 25.32 8.48 6.01 10.42 6.48 27.02-5.99 40.26Zm-3.31-34.93c-3-5.2-8.07-7.56-11.79-5.41-11.95 6.9-13.79 41.23-13.73 56.36.37 5.2.85 11.11 1.18 17.58l.06.9c.29 5.61.52 11.62.61 18.22.02 1.37.15 3.47.18 5.93l5.1-4.02c1.65 9.56 7.27 16.07 16.79 10.57 13.35-7.7 19.8-28.14 10.22-44.73-2.28-3.95-6.31-10.13-14.36-13.07-.83.61-1.69 1.17-2.6 1.66-3.72 2.15-8.18 2.7-11.28 1.1l2.21-7.17 1.98-6.2c2.99-.07 5.98 0 8.96.24 10.55-9.07 11.09-23.93 6.47-31.94ZM107 310.93c-6.23-10.79-6.8-29.19-6.55-55.02l12.1.29a52.716 52.716 0 0 0-1.46 12.76c.03 12.05.91 29.17 5.2 36.6 1.67 2.9 4.88 6.32 8.36 4.31 7.89-4.56 6.73-30.96 6.58-41.41l10.74-.16c.24 16.26.7 41.96-13.2 49.99-8.38 4.84-17.01.87-21.77-7.36Zm-7.9-68.62-.88-18.68 10.76-.65.93 18.65-10.81.68Z"/><path class="d" d="M200.49 234.52c.29 13.91-2.59 30.89-14.66 37.86a23.748 23.748 0 0 1-7.22 2.77c-1.65 9.46-5.83 17.76-13.37 22.12-9.53 5.5-20.38 3.56-27.68-9.09-10-17.32-10.35-50.61 7.18-60.73 9.86-5.69 20.65-3.1 27.75 9.21 4.08 7.08 6.72 17.01 6.9 26.96.36-.21.77-.29 1.11-.49 8.01-4.62 9.47-19.24 9.27-28.45l10.73-.18Zm-32.32 41.4c-.63-.06-1.26-.17-1.88-.31l.73-11.86 1.84.23c-.37-8.15-2.58-16.47-5.72-21.91-4.36-7.55-9.37-8.99-13.78-6.44-11.15 6.43-10.13 34.17-2.56 47.29 4.22 7.31 9.07 9 13.71 6.32 4.07-2.39 6.58-7.42 7.66-13.3Z"/><path class="d" d="M261.6 199.23c.44 16.3-5.54 32.75-16.8 39.25a24.431 24.431 0 0 1-6.45 2.49c2.93 33.75 2.78 57.35-13.11 66.53-9.75 5.63-20.26 1.64-24.5-1.95l6.18-10.99c3.05 3.66 8.52 7.78 13.86 4.7 9.17-5.29 9.88-22.89 8.01-46.71-1.99 5.94-5.09 11.02-9.97 13.84-8.82 5.09-17.5-.58-22.46-9.17-10-17.32-10.82-53.32 7.39-63.84 7.08-4.09 14.34-2.24 19.49.51-.16-2.7-.44-5.32-.61-8.01l12.29-3.38c-1.04 10.81.89 30.74 2.06 43.22.09 1.5.29 2.93.37 4.4.8-.29 1.59-.64 2.34-1.05 7.54-4.35 11.46-17.13 11.18-29.67l10.73-.18Zm-36.42 16.24c-.25-3.11-.62-6.15-.86-9.26l-1 1.2c-4.55-5.74-9.76-8.91-15.93-5.35-10.44 6.03-9.48 36.12-1.51 49.92 3.28 5.69 6.73 7.1 9.18 5.69 5.22-3.01 9.66-21.05 10.13-42.21Z"/><path class="d" d="M317.65 166.87c.26 16.25.61 42.05-13.55 50.23-7.31 4.22-16.08 2.16-20.83-6.08-5.43-9.41-8.62-29.67-7.68-44.93a54.405 54.405 0 0 1-16.03 4.93c1.57 9.15 1.91 23.15 2.05 28.21l-10.74.16c-.54-15.93-1.55-24.93-2.23-28.26-1.15-.11-2.26-.41-3.47-.63l3.08-11.02c1.76 1.45 6.57 2.54 10.34 1.91 5.35-.92 14.57-2.64 19.8-9.12l11.42 5.32c-1.52 1.65-3.26 5.6-3.52 10.24-.77 13.15 1.75 30.09 6.1 37.63 1.67 2.9 4.32 5.09 7.46 3.28 8.36-4.82 7.25-31.12 7.04-41.67l10.76-.21Z"/><path class="d" d="M383.34 128.95c.36 16.19.7 41.96-13.34 50.07-7.89 4.55-16.39 1.1-21.24-6.78-1.29 10.65-4.52 21.65-12.76 26.41-8.82 5.09-17.5-.58-22.46-9.17-10-17.32-10.83-53.32 7.39-63.84 7.79-4.5 15.5-1.83 20.85 1.28-.08-3.36-.05-6.78.03-10.41l13.05.35a48.382 48.382 0 0 0-2.39 15.7c.17 11.82 1.26 26.81 5.28 33.78 1.67 2.9 4.82 6.2 8.3 4.19 7.89-4.55 6.77-31.15 6.58-41.41l10.73-.18Zm-40.92 18.65-.46-9.63-1.45 1.76c-4.55-5.74-9.76-8.91-15.94-5.35-10.39 6-9.47 36.11-1.5 49.92 3.28 5.69 6.73 7.1 9.17 5.7 5.23-3 9.68-21.04 10.18-42.4Z"/><path class="d" d="M438.46 97.12c.29 16.08-4.04 31.88-14.74 38.06a20.03 20.03 0 0 1-5.16 2.06c-2.08 9.4-6.56 17.53-13.54 21.56a15.75 15.75 0 0 1-16.69.04c2.36 15.35 3.83 26.73 3.51 35.57-.6 12.1-4.53 19.49-14.4 25.18l-8.08-7.88a19.2 19.2 0 0 0 11.74-17.45c.52-10.36-2.43-27.53-7.48-58.51l-.63-3.51-.68-4.4c-.8-7.27-5.42-17.15-9.16-20.4l9.4-7.58c2.43 2.13 4.36 4.76 5.68 7.7.79-8.82 3.14-16.82 10.68-21.18 8-4.62 17.49-2.66 24.32 9.17 4.62 8.01 6.88 18.62 6.77 28.89 5.99-5.16 7.87-16.92 7.68-27.18l10.75-.13Zm-34.5 3.82c-2.55-4.41-6.3-8.74-10.35-6.4-6.27 3.62-11.59 20.15-9.88 36.5 1.07 8.82 8.72 24.21 16.61 19.66 9.66-5.58 13.27-33.04 3.62-49.75Z"/><path class="d" d="M497.99 62.75c.31 16.53.72 41.99-13.55 50.23-7.79 4.5-16.21 1.92-21.03-6.43-7.37-12.77-1.46-32.27-5.95-40.05-2-3.46-6.37-5.14-9.02-3.62-7.31 4.22-9.69 35.47-8.07 49.53.8 6.47 1.9 13.3 3.19 19.98l-13.39 2.64c1.15-5.78.4-14.32-.48-20.93-.07-.12-.01-.3-.08-.42l-.12-1.01c-3.65-27.76-4.64-53.34-5.86-74.14-.08-6.29-.53-16.72-.69-19.41l12.89-1.25a47.23 47.23 0 0 0-1.81 14.48c.64 9.69 1.11 20.71 1.77 32.55 2.21-4.74 5.01-8.47 8.6-10.54 7.55-4.36 17.68-1.38 22.23 6.51 6.7 11.6.52 30.64 6.22 40.51 1.94 3.37 4.73 4.71 7.39 3.17 8.36-4.83 7.16-30.75 7.05-41.68l10.71-.12Z"/><path class="d" d="M493.19 87.96c-6.23-10.79-6.8-29.19-6.55-55.02l12.09.3c-1 4.18-1.49 8.46-1.45 12.75.03 12.05.9 29.18 5.19 36.61 1.67 2.9 4.88 6.32 8.37 4.3 7.89-4.55 6.72-30.96 6.57-41.4l10.74-.16c.26 16.25.71 41.95-13.22 50-8.35 4.82-16.99.86-21.74-7.38Zm-7.9-68.62L484.41.66l10.77-.65.88 18.68-10.77.65Z"/><path class="d" d="M579.57 15.65c.48 22.01-4.75 45.11-23.55 55.96-12.53 7.23-26.17 6.13-33.47-6.52-9.5-16.45-6.44-52.15 10.97-62.2 21.24-12.27 34.74 28.53 11.88 41.73a31.795 31.795 0 0 1-17.24 3.92c.53 3.79 1.71 7.45 3.48 10.84 4.42 7.66 12.39 8.32 19.69 4.1 15.09-8.71 17.75-30.36 17.49-47.71l10.76-.14Zm-51.91 22.39c3.41.83 9.92.35 13.39-1.65 10.21-5.89 4.93-29.78-4.23-24.49-5.44 3.1-8.8 14.69-9.16 26.14Z"/></g></g></svg>