<svg id="a" data-name="レイヤー 1" xmlns="http://www.w3.org/2000/svg" viewBox="0 0 478.92 445.14"><defs><style>.h{fill:#85d3f2}</style></defs><g id="b" data-name="レイヤー 2"><g id="c" data-name="レイヤー 1のコピー"><path class="h" d="M3.59 299.86c-6.39-11.07-4.32-35.02 6.75-41.41 5.77-3.33 11.28-1.89 13.87 2.6 1.9 3.23 2.25 7.15.96 10.67l-7.4-.82c1.02-1.84 1.28-4.27.42-5.75-1-1.73-3.04-2.2-5.06-1.03-6.26 3.61-8.17 23.53-3.22 31.74 2.68 5 7.77 5.9 12.76 3.02 9.28-5.36 10.66-19.87 10.42-31.27l7.26-.09c.44 18.76-4.77 31.23-15.13 37.21-7.64 4.41-16.81 3.47-21.62-4.87Z"/><path class="h" d="M74.85 247.6c.34 14.81-3.18 30.31-15.81 37.6-8.42 4.86-17.57 4.12-22.46-4.35-6.39-11.07-4.32-35.02 7.37-41.77 14.26-8.24 23.33 19.16 7.97 28.03a21.257 21.257 0 0 1-11.58 2.63 22.41 22.41 0 0 0 2.3 7.22c2.97 5.14 8.32 5.59 13.23 2.75 10.13-5.85 11.92-20.39 11.75-32.03l7.23-.08Zm-34.86 15.04c3.05.56 6.19.16 9-1.15 6.86-3.96 3.32-20-2.84-16.44-3.69 2.13-5.94 9.87-6.16 17.59ZM124.94 238.42c13.26 9.28 15.73 30.31 5.99 35.93-5.53 3.19-11.59.45-14.69-4.92-2-3.46-3.26-9.97-3.95-18.19-1.22 2.68-3.2 4.95-5.7 6.51-5.92 3.42-11.77-.38-15.1-6.15-6.7-11.61-7.27-35.81 4.97-42.88 5.2-3 10.41-1.23 14 .85-.06-2.27-.06-4.43-.2-6.64l8.7-.24c-1.25 4.67-1.2 9.93-1.08 14.13.18 7.69.32 13.53.51 17.27.95-.22 1.87-.58 2.72-1.05 5.53-3.19 7.02-11.95 6.8-20.09l7.21-.11c.19 10.23-3.38 20.61-10.18 25.57Zm-14.07-13.39c-.1-2.33-.2-4.67-.22-7.04.02-.34 0-.67-.06-1l-.98 1.19c-3.05-3.85-6.57-5.98-10.7-3.59-7.01 4.05-6.37 24.25-1.01 33.53 2.2 3.82 4.52 4.77 6.16 3.82 3.33-1.97 6.23-13.26 6.81-26.9Zm7.89 17.99c.33 6.57 1.49 18.77 4.46 23.93 1.22 2.1 2.7 3.06 4.6 1.96 4.47-2.63 2.38-20.12-9.06-25.89Z"/><path class="h" d="M178.12 187.97c.25 10.87.48 28.2-8.95 33.64-4.83 2.79-9.98 1.08-13.25-3.16-1.68 7.1-4.67 13.51-9.35 16.21-4.99 2.88-11.09 1.31-14.6-4.77-4.91-8.5-4.87-27.33-4.49-37.11l8.69.29a35.3 35.3 0 0 0-1.54 11.91c.23 7.95 1.06 16.95 3.58 21.32 1.03 1.79 3.19 4.08 5.68 2.64 5.46-3.15 7.07-21.23 6.66-29.51-.48-6.58-.58-13.19-.3-19.78l8.22.24c-.73 2.9-1.1 5.87-1.12 8.86 0 3.23.09 6.81.41 10.26v.52c.46 5.5 1.48 10.69 3.19 13.64 1.08 1.87 3.19 4.08 5.45 2.78 5.38-3.11 4.63-20.96 4.5-27.85l7.23-.12Z"/><path class="h" d="M212.68 168.02c.34 14.81-3.18 30.31-15.81 37.6-8.42 4.86-17.57 4.12-22.46-4.35-6.39-11.07-4.32-35.02 7.37-41.77 14.26-8.24 23.33 19.16 7.97 28.03a21.252 21.252 0 0 1-11.63 2.63 22.48 22.48 0 0 0 2.32 7.24c2.97 5.14 8.32 5.59 13.23 2.75 10.13-5.85 11.92-20.39 11.75-32.03l7.27-.1Zm-34.86 15.04c3.05.56 6.19.16 9-1.15 6.86-3.96 3.32-20-2.84-16.44-3.7 2.14-5.97 9.89-6.2 17.61l.03-.02ZM267.75 136.23c.3 10.94-4.4 22.39-11.97 26.76-1.33.75-2.76 1.3-4.26 1.63 1.94 23.51 1.63 38.65-8.73 44.64-5.85 3.37-10.93 1.95-16.53-1.27l2.69-7.58c2.44 2.23 7.18 5.42 10.69 3.39 8.18-4.73 6.11-25.77 3.53-48.6-.81-7.53-1.76-15.3-2.29-22.68-3.08 2.37-6.48 4.3-10.1 5.73.34 3.65 1.27 10.49 1.36 18.55l-7.21.11c-.12-6.69-.4-11.32-.75-15.16-.17-2.29-.32-3.97-1.68-5.79 8.8-1.86 16.93-8.84 21.04-11.42l4.63 2.94c.06 2.27.29 4.51.51 6.46.57 6.74 1.19 13.03 1.78 18.92l.39 4.45c.49-.16.96-.37 1.42-.61 5.14-2.97 8.48-11.96 8.29-20.38l7.19-.1Zm-20.86-18.3-7.22.43-.56-12.56 7.22-.43.56 12.56Z"/><path class="h" d="M302.27 116.29c.34 14.81-3.18 30.31-15.81 37.6-8.41 4.85-17.57 4.11-22.46-4.36-6.39-11.07-4.32-35.02 7.36-41.77 14.26-8.24 23.33 19.16 7.97 28.03a21.346 21.346 0 0 1-11.58 2.63 22.54 22.54 0 0 0 2.31 7.21c2.97 5.14 8.31 5.59 13.22 2.76 10.13-5.85 11.92-20.39 11.75-32.03l7.23-.08Zm-34.85 15.03c3.04.56 6.19.16 8.99-1.14 6.86-3.96 3.32-20-2.84-16.44-3.66 2.11-5.94 9.87-6.15 17.58ZM358.78 83.67c.2 10.79-2.71 21.41-9.88 25.55-1.09.62-2.25 1.08-3.47 1.38-1.43 6.34-4.42 11.79-9.09 14.49a10.59 10.59 0 0 1-11.21.03c1.59 10.31 2.57 17.95 2.37 23.88-.4 8.13-3.05 13.09-9.67 16.91l-5.44-5.28a12.87 12.87 0 0 0 7.88-11.72c.34-6.95-1.64-18.49-5.03-39.29l-.42-2.35-.46-2.96c-.52-4.9-3.63-11.52-6.14-13.7l6.3-5.09c1.63 1.43 2.93 3.19 3.82 5.17.53-5.92 2.1-11.3 7.17-14.22 5.38-3.1 11.75-1.79 16.34 6.16 3.11 5.38 4.62 12.5 4.55 19.4 4.02-3.48 5.29-11.37 5.15-18.25l7.22-.11Zm-23.15 2.56c-1.71-2.96-4.22-5.88-6.95-4.3-4.21 2.43-7.78 13.53-6.63 24.51.72 5.92 5.85 16.25 11.15 13.19 6.43-3.75 8.91-22.18 2.43-33.4Z"/><path class="h" d="M393.31 63.73c.34 14.81-3.18 30.31-15.81 37.6-8.42 4.86-17.57 4.12-22.46-4.35-6.39-11.07-4.32-35.02 7.37-41.77 14.26-8.24 23.33 19.16 7.97 28.03a21.257 21.257 0 0 1-11.58 2.63 22.41 22.41 0 0 0 2.3 7.22c2.97 5.14 8.32 5.59 13.23 2.75 10.13-5.85 11.92-20.39 11.75-32.03l7.23-.08Zm-34.86 15.04c3.05.56 6.19.16 9-1.15 6.86-3.96 3.32-20-2.84-16.44-3.66 2.12-5.94 9.87-6.16 17.59Z"/><path class="h" d="M436.34 38.89c.25 10.87.48 28.2-8.95 33.64-4.83 2.79-9.98 1.08-13.25-3.16-1.68 7.1-4.67 13.51-9.35 16.21-4.99 2.88-11.09 1.31-14.6-4.77-4.91-8.5-4.87-27.33-4.49-37.11l8.69.29a35.3 35.3 0 0 0-1.54 11.91c.23 7.95 1.06 16.95 3.58 21.32 1.03 1.79 3.19 4.08 5.68 2.64 5.46-3.15 7.07-21.23 6.66-29.51-.48-6.58-.58-13.19-.3-19.78l8.22.24c-.73 2.9-1.1 5.87-1.12 8.86 0 3.23.09 6.81.41 10.26v.52c.46 5.5 1.48 10.69 3.19 13.64 1.08 1.87 3.19 4.08 5.45 2.78 5.38-3.1 4.63-20.96 4.5-27.85l7.23-.12Z"/><path class="h" d="M478.89 14.32c.36 18.81-3.18 30.31-10.35 34.45-6.24 3.6-11.34-.38-15.67-6.44-2.05 8.46-5.31 16.37-11.73 22.16l-5.6-4.85c2.21-.92 4.09-2.48 5.42-4.48 3.73-5.79 5.53-13.28 6.96-21.06-1.72-3.16-3.24-6.34-4.65-8.95-2.31-4.18-4.21-6.92-5.78-6.01-2.18 1.26-1.51 8.36-1.15 19.79l-7.16.06c-.55-15.17-.95-21.8 4.67-25.04 8.03-4.64 9.52-1.34 15.13 6.95.36.48.69.99.98 1.51 1.67-8.45 3.77-16.52 8.57-22.41l5.97 4.35c-2.03 1.17-3.66 3.67-4.78 6.3-2.29 5.94-3.28 13.22-4.64 20.76 3.99 7.36 7.42 13.55 11.16 11.39 5.53-3.2 5.56-20.98 5.43-28.39l7.23-.08Z"/></g></g><g id="d" data-name="レイヤー 2"><g id="e" data-name="レイヤー 1のコピー"><path class="h" d="M162.98 307.8c.31 13.85-2.34 24.21-10.52 28.94a23.454 23.454 0 0 1-11.89 2.81c-.46 2.45-.14.29-1.27 10.4 0 0-14.38 8.93-21-2.53-4.95-8.57-4.37-25.75-4.62-35.37l8.31-.18c-.81 2.02-1.09 5.31-1.03 9.01.23 7.95.79 17.94 3.36 22.38a6.694 6.694 0 0 0 8.53 3.08c.86-7.87 5.05-26.71 4.51-38.98-.07-2.49-.69-4.94-1.82-7.16l7.57-2.19c3.02 8.65.73 23.27-1.16 34.34 2.85 0 5.66-.67 8.2-1.96 5.61-3.24 5.81-10.63 5.63-22.47l7.21-.12Z"/><path class="h" d="M202.26 285.12c.18 9.31-1.7 20.78-9.82 25.47-1.5.88-3.14 1.51-4.85 1.86-1.09 6.4-3.92 11.93-8.99 14.85-6.39 3.69-13.69 2.39-18.59-6.1-6.73-11.66-6.98-34.05 4.79-40.85 6.63-3.83 13.82-2.06 18.59 6.2 3 5.56 4.6 11.77 4.67 18.09.23-.13.51-.19.75-.33 5.38-3.1 6.39-12.93 6.23-19.08l7.21-.12Zm-21.68 27.79c-.43-.04-.85-.11-1.27-.2l.49-7.97 1.23.12c-.25-5.47-1.71-11.07-3.83-14.73-2.93-5.07-6.29-6.03-9.25-4.32-7.48 4.32-6.81 22.95-1.72 31.76 2.84 4.91 6.09 6.05 9.21 4.25 2.73-1.58 4.42-4.94 5.15-8.9Z"/><path class="h" d="M245.28 260.28c.25 10.87.48 28.2-8.95 33.64-4.83 2.79-9.98 1.08-13.25-3.16-1.68 7.1-4.67 13.51-9.35 16.21-4.99 2.88-11.09 1.31-14.6-4.77-4.91-8.5-4.87-27.33-4.49-37.11l8.69.29a35.3 35.3 0 0 0-1.54 11.91c.23 7.95 1.06 16.95 3.58 21.32 1.03 1.79 3.19 4.08 5.68 2.64 5.46-3.15 7.07-21.23 6.66-29.51-.48-6.58-.58-13.19-.3-19.78l8.22.24c-.73 2.9-1.1 5.87-1.12 8.86 0 3.23.09 6.81.41 10.26v.52c.46 5.5 1.53 10.66 3.23 13.61 1.08 1.87 3.19 4.08 5.45 2.78 5.38-3.11 4.63-20.96 4.5-27.85l7.18-.1Z"/><path class="h" d="M253.55 249.58c4.06 2.54 9.55 3.22 13.55 10.15 4.27 7.4.53 16.22-6.64 20.36-7.17 4.14-16.53 2.69-20.86-4.81-3.28-5.69-2.39-12.13-1.54-14.91l7.21-.11c-1.64 6.87.02 10.48.56 11.42 2.39 4.13 7.88 5.01 11.54 2.9s6.51-7.81 4.26-11.7c-3.06-5.3-9.4-5.48-14.23-10.07-2.34.66-4.78.94-7.21.84l-.06-6.1c1.24.15 2.48.21 3.73.16-3.08-6.95.08-14.08 6.47-17.77 3.2-1.85 7.21-2.09 10.02 1.7 4 5.37.22 12.85-6.82 17.95Zm2.3-13.48c-.72-1.25-1.63-1.56-2.95-.79-3.04 1.75-5.03 6.95-2.87 10.7 3.74-2.16 7.26-7.41 5.82-9.91ZM336.4 207.67c.18 9.31-1.71 20.79-9.82 25.47-1.5.88-3.14 1.51-4.85 1.86-1.09 6.4-3.92 11.93-8.99 14.85-6.39 3.69-13.64 2.37-18.55-6.13-6.7-11.61-6.94-34.03 4.81-40.81 6.63-3.82 13.87-2.08 18.64 6.18 3 5.56 4.6 11.77 4.67 18.09.23-.14.51-.19.75-.33 5.38-3.11 6.39-12.93 6.23-19.08l7.11-.11Zm-21.68 27.79c-.43-.04-.85-.11-1.27-.2l.49-7.97 1.23.12c-.25-5.47-1.76-11.04-3.87-14.7-2.93-5.07-6.29-6.03-9.25-4.32-7.48 4.32-6.81 22.95-1.72 31.76 2.84 4.91 6.09 6.05 9.21 4.25 2.77-1.6 4.46-4.97 5.19-8.92Z"/><path class="h" d="M368.19 177.26c-1.26 5.92 1.69 11.91 5.92 10.61-.31 2.15-.19 1.27-1.12 6.05-5.42 1.57-10.51-5.26-9.65-13.86-1.91.97-3.88 1.83-5.89 2.57.3 5.75.83 11.89 1.22 18.11.72 12.05 1.24 22.67.88 29.42-.4 8.13-3.05 13.09-9.67 16.91l-6.04-5.97c4.29-1.75 8.19-5.25 8.49-11.03.3-5.48.04-15.28-.77-28.67-.32-5.95-.73-11.53-1-16.67-5.27 1.49-10.56 2.77-15.26 4.34.2 7.37 1.05 15.81 1.54 24.26.72 12.05 1.24 22.67.84 29.45-.4 8.13-3.05 13.09-9.67 16.91l-6.04-5.97c4.29-1.75 8.19-5.25 8.49-11.03.3-5.48.01-15.28-.83-28.62-.48-8.04-.93-15.47-1.19-21.86-3.73 2.36-3.9 7.24-3.18 8.49l-7.18-2.71c.4-2.73 1.02-6.51 5.46-9.08 1.53-.89 3.11-1.7 4.73-2.42-.21-4.32-.07-8.65.42-12.95.71-4.77 1.54-8.68 3.72-11.92l6.18 6.93c-1.33 1.29-2.25 3.48-2.73 6.25-.5 3.01-.72 6.06-.66 9.11 4.75-1.49 9.6-2.63 15.12-4.78-.35-7.8-.32-14.05.28-18.24.71-4.77 1.54-8.68 3.71-11.91l6.18 6.93c-1.33 1.29-2.24 3.48-2.72 6.25a72.14 72.14 0 0 0-.62 14.09c1.53-.78 3.13-1.6 4.77-2.54 3.03-1.75 6.21-5.25 6.38-6.39l5.6 3.21c-.43 2.14-2.18 4.3-5.68 6.73ZM420.96 158.85c.17 10.92.4 28.24-9.1 33.73-4.91 2.84-10.81 1.46-14-4.07-3.65-6.31-5.75-19.96-5.15-30.18-3.4 1.66-7.04 2.78-10.79 3.32 1.05 6.15 1.3 15.57 1.38 18.95l-7.21.11c-.39-10.68-1.03-16.73-1.51-18.98-.76-.08-1.5-.29-2.32-.43l2.05-7.42c1.19.98 4.44 1.7 6.96 1.28 3.59-.62 9.77-1.8 13.3-6.12l7.67 3.57a12.08 12.08 0 0 0-2.37 6.88c-.49 8.81 1.22 20.24 4.12 25.26 1.12 1.95 2.9 3.42 5 2.2 5.61-3.24 4.87-20.9 4.73-27.98l7.21-.11Z"/><path class="h" d="M417.75 175.78c-4.18-7.25-4.57-19.6-4.4-36.95l8.12.2c-.67 2.81-1 5.68-.98 8.57 0 8.09.61 19.6 3.47 24.55 1.12 1.95 3.28 4.24 5.62 2.89 5.3-3.06 4.52-20.79 4.42-27.8l7.21-.11c.17 10.92.48 28.2-8.87 33.6-5.59 3.27-11.39.59-14.58-4.94Zm-5.32-46.09-.59-12.54 7.23-.43.59 12.54-7.23.43Z"/><path class="h" d="M478.87 125.42c.17 10.92.4 28.24-9.1 33.73-4.91 2.84-10.8 1.45-13.99-4.08-3.65-6.31-5.79-19.93-5.16-30.17-3.4 1.66-7.04 2.78-10.79 3.32 1.05 6.15 1.3 15.57 1.38 18.95l-7.21.11c-.39-10.68-1.03-16.73-1.5-18.98-.77-.07-1.51-.28-2.32-.43l2.05-7.42c1.19.98 4.44 1.7 6.97 1.28 3.59-.62 9.77-1.8 13.3-6.12l7.67 3.57a12.08 12.08 0 0 0-2.37 6.88c-.52 8.82 1.17 20.21 4.1 25.28 1.12 1.95 2.91 3.41 5.01 2.2 5.61-3.24 4.87-20.9 4.73-27.98l7.23-.12Z"/></g></g><g id="f" data-name="レイヤー 2"><g id="g" data-name="レイヤー 1のコピー"><path class="h" d="M162.58 365.2c3.5 6.06 1.78 13.52.79 16.48l-8.11-2.7c.99-1.56 1.73-3.26 2.19-5.05.11-1.78-.27-3.56-1.1-5.14-2.03-3.51-6.29-4.06-10.26-1.77-6.63 3.83-11.39 14.66-6.79 22.62a10.86 10.86 0 0 0 6.77 5.24c2.78-1.2 5.72-1.99 8.73-2.34l.18 8.79c-2.88-.31-6.33-.96-9.17.68-9.77 5.58-14.28 19-8.66 28.74 3.55 6.16 10.51 10.1 17.21 6.23 6.7-3.87 9.22-9.59 9.85-16.6.36-4.05-1.74-9.49-3.13-11.91l8.57-1.72c.84 3.98 1.94 8.75 1.59 13.01-.75 9.31-5.52 17.99-13.69 22.71-10.05 5.8-20.95 1.71-26.62-8.11-6.75-11.69-2.67-26.62 7.77-35.14-2.34-1.5-4.28-3.56-5.64-5.98-6.71-11.62-.03-25.97 10.34-31.96 8.03-4.64 15.62-2.26 19.2 3.93Z"/><path class="h" d="M179.29 363.71c.65 14.63 2.13 35.56 6 42.26 1.08 1.87 3.19 4.08 5.45 2.78 3.59-2.07 4.88-11.55 4.51-28.01l7.21-.11c.22 10.83.47 28.35-8.96 33.8-5.46 3.15-11.29.6-14.53-5.01-4.55-7.87-6.09-28.18-6.76-44.11-1.39.4-2.72.99-3.94 1.76-3.28 2.31-3.94 7.58-3.9 7.65l-6.94-2.02c1.48-4.21 4.41-7.74 8.27-9.97 2.02-1.1 4.16-1.99 6.37-2.64l-.28-8.77 7.11-.15.22 7.04c4.73-1.17 9.41-2.42 12.45-4.17 1.57-.77 2.8-2.07 3.49-3.68l6 1.94a12.607 12.607 0 0 1-6.08 7.05c-4.23 2.44-10.21 3.44-15.69 4.38ZM218.3 382.68c-6.39-11.07-4.32-35.02 6.75-41.41 5.77-3.33 11.28-1.89 13.87 2.6 1.9 3.23 2.25 7.15.96 10.67l-7.4-.82c1.02-1.84 1.28-4.27.42-5.75-1-1.73-3.04-2.2-5.06-1.03-6.24 3.6-8.14 23.51-3.17 31.76 2.68 5 7.77 5.9 12.76 3.02 9.28-5.35 10.66-19.87 10.42-31.27l7.21-.11c.4 18.76-4.78 31.2-15.15 37.19-7.63 4.4-16.8 3.48-21.61-4.85Z"/><path class="h" d="M289.55 330.4c.32 14.78-3.19 30.3-15.81 37.59-8.42 4.86-17.57 4.12-22.46-4.35-6.39-11.07-4.32-35.02 7.37-41.77 14.26-8.24 23.33 19.16 7.97 28.03a21.257 21.257 0 0 1-11.58 2.63c.35 2.54 1.14 5 2.33 7.28 2.97 5.14 8.32 5.59 13.23 2.75 10.13-5.85 11.92-20.39 11.75-32.03l7.2-.13Zm-34.86 15.04c3.04.56 6.18.16 8.99-1.14 6.86-3.96 3.32-20-2.84-16.44-3.65 2.1-5.92 9.86-6.14 17.58Z"/><path class="h" d="M297.82 319.7c4.06 2.54 9.55 3.22 13.55 10.15 4.28 7.4.53 16.22-6.64 20.36-7.17 4.14-16.53 2.69-20.85-4.8-3.28-5.69-2.34-12.16-1.54-14.91l7.21-.11c-1.64 6.87.02 10.48.56 11.42 2.39 4.13 7.88 5.01 11.54 2.9s6.51-7.81 4.26-11.7c-3.06-5.3-9.4-5.48-14.23-10.07-2.34.66-4.78.94-7.21.84l-.06-6.1c1.24.15 2.48.21 3.73.16-3.08-6.95.08-14.08 6.47-17.77 3.2-1.85 7.21-2.09 10.02 1.7 3.99 5.35.21 12.84-6.83 17.94Zm2.3-13.48c-.72-1.25-1.63-1.56-2.95-.79-3.04 1.75-5.03 6.95-2.87 10.7 3.74-2.16 7.26-7.41 5.82-9.91ZM378.44 279.08c.2 10.79-2.66 21.39-9.88 25.55-1.09.62-2.25 1.08-3.47 1.38-1.43 6.34-4.42 11.79-9.09 14.49a10.59 10.59 0 0 1-11.21.03c1.59 10.31 2.57 17.95 2.36 23.89-.4 8.13-3.05 13.09-9.67 16.91l-5.44-5.28c4.71-1.99 7.8-6.58 7.86-11.7.35-6.96-1.63-18.49-5.02-39.29l-.42-2.35-.48-2.98c-.52-4.9-3.63-11.52-6.14-13.7l6.3-5.09c1.63 1.43 2.93 3.19 3.82 5.17.53-5.92 2.1-11.3 7.17-14.22 5.38-3.1 11.75-1.79 16.34 6.16 3.1 5.38 4.62 12.5 4.55 19.4 4.02-3.48 5.29-11.37 5.15-18.25l7.27-.11Zm-23.18 2.59c-1.71-2.96-4.22-5.88-6.95-4.3-4.21 2.43-7.78 13.53-6.63 24.51.72 5.92 5.85 16.25 11.15 13.19 6.47-3.74 8.93-22.14 2.43-33.4Z"/><path class="h" d="M416.04 257.37c.17 10.92.41 28.23-9.1 33.72-4.92 2.84-10.79 1.46-13.99-4.07-3.65-6.31-5.79-19.93-5.16-30.17-3.4 1.66-7.04 2.78-10.79 3.32 1.05 6.15 1.3 15.57 1.38 18.95l-7.21.11c-.39-10.68-1.03-16.73-1.5-18.98-.77-.07-1.51-.28-2.32-.43l2.05-7.42c1.19.98 4.44 1.7 6.97 1.28 3.59-.62 9.76-1.79 13.3-6.12l7.67 3.57c-1.48 1.99-2.31 4.4-2.38 6.88-.52 8.82 1.2 20.2 4.12 25.26 1.12 1.95 2.91 3.41 5.01 2.2 5.61-3.24 4.87-20.9 4.72-27.98l7.21-.11Z"/><path class="h" d="M412.83 274.29c-4.18-7.25-4.56-19.6-4.4-36.95l8.12.2c-.67 2.81-1 5.68-.98 8.57 0 8.09.62 19.59 3.48 24.55 1.12 1.95 3.27 4.24 5.61 2.89 5.31-3.07 4.52-20.79 4.42-27.8l7.21-.11c.19 10.95.5 28.22-8.86 33.62-5.6 3.24-11.4.57-14.6-4.97Zm-5.32-46.09-.59-12.54 7.23-.43.59 12.54-7.23.43Z"/><path class="h" d="M478.9 221.08c.33 18.83-3.22 30.32-10.39 34.46-6.24 3.6-11.34-.38-15.67-6.44-2.05 8.46-5.31 16.37-11.73 22.16l-5.6-4.85c2.21-.92 4.09-2.48 5.42-4.48 3.72-5.8 5.53-13.28 6.97-21.05-1.72-3.16-3.24-6.34-4.65-8.95-2.31-4.18-4.21-6.92-5.78-6.01-2.18 1.26-1.51 8.36-1.15 19.79l-7.21.11c-.55-15.17-.95-21.8 4.67-25.04 8.03-4.63 9.52-1.34 15.13 6.95.36.48.69.99.98 1.51 1.67-8.45 3.77-16.52 8.57-22.41l5.97 4.35c-2.03 1.17-3.66 3.67-4.78 6.3-2.29 5.94-3.28 13.22-4.64 20.76 4.03 7.34 7.51 13.54 11.25 11.38 5.53-3.2 5.56-20.98 5.43-28.39l7.22-.15Z"/></g></g></svg>