<svg xmlns="http://www.w3.org/2000/svg" viewBox="0 0 554.39 91.89">
    <defs>
        <style>.cls-1{fill:#85d3f2;}</style>
    </defs>
    <g id="レイヤー_2" data-name="レイヤー 2">
        <g id="レイヤー_1のコピー" data-name="レイヤー 1のコピー">
            <path class="cls-1"
                  d="M0,50.31C0,37.53,13.77,17.82,26.55,17.82c6.66,0,10.71,4,10.71,9.18a12.54,12.54,0,0,1-4.5,9.72l-6-4.41c1.8-1.08,3.24-3.06,3.24-4.77,0-2-1.53-3.42-3.87-3.42C18.9,24.12,7.29,40.41,7.47,50c-.18,5.67,3.78,9,9.54,9,10.71,0,19.17-11.88,24.66-21.87L48,40.68C39,57.15,28.26,65.34,16.29,65.34,7.47,65.34,0,59.94,0,50.31Z"/>
            <path class="cls-1"
                  d="M87.84,40.68c-7.11,13-17.91,24.66-32.49,24.66-9.72,0-17.28-5.22-17.28-15,0-12.78,13.77-32.49,27.27-32.49,16.47,0,10.62,28.26-7.11,28.26a21.3,21.3,0,0,1-11.34-3.51A22.4,22.4,0,0,0,45.27,50c0,5.94,4.41,9,10.08,9,11.7,0,20.52-11.7,26.19-21.87ZM50.13,36.27a15,15,0,0,0,8.37,3.51c7.92,0,12.87-15.66,5.76-15.66C60,24.12,54.18,29.7,50.13,36.27Z"/>
            <path class="cls-1"
                  d="M135.81,57.78c6.84,14.67-1.53,34.11-12.78,34.11-6.39,0-10.26-5.4-10.26-11.61,0-4,2.16-10.26,5.67-17.73a14.94,14.94,0,0,1-8.19,2.79c-6.84,0-10-6.21-10-12.87,0-13.41,11.61-34.65,25.74-34.65,6,0,9.63,4.14,11.7,7.74,1.08-2,2.16-3.87,3.15-5.85l7.65,4.14c-3.42,3.42-6,8-8,11.7C136.8,42.3,134,47.43,132.3,50.76a10.67,10.67,0,0,0,2.88.45c6.39,0,12.06-6.84,15.93-14l6.3,3.51C152.46,49.68,144.18,56.88,135.81,57.78Zm-5.49-18.63c1.08-2.07,2.16-4.14,3.33-6.21a4.2,4.2,0,0,0,.45-.9l-1.44.54c-.72-4.86-2.7-8.46-7.47-8.46-8.1,0-17.64,17.82-17.64,28.53,0,4.41,1.53,6.39,3.42,6.39C114.84,59,123,50.67,130.32,39.15Zm-2.16,19.53c-3,5.85-8.1,17-8.1,22.95,0,2.43.81,4,3,4C128.25,85.59,135.18,69.39,128.16,58.68Z"/>
            <path class="cls-1"
                  d="M207.09,40.68c-5.22,9.54-13.68,24.66-24.57,24.66-5.58,0-9.18-4.05-9.9-9.36-5,5.31-10.8,9.36-16.2,9.36-5.76,0-10.26-4.41-10.26-11.43,0-9.81,9.45-26.1,14.67-34.38l7.38,4.59a35.36,35.36,0,0,0-7.29,9.54c-3.78,7-7.56,15.21-7.56,20.25,0,2.07.72,5.13,3.6,5.13,6.3,0,16.74-14.85,20.52-22.23a173.71,173.71,0,0,1,9.63-17.28l7,4.32a37.45,37.45,0,0,0-5.4,7.11c-1.62,2.79-3.33,5.94-4.77,9.09l-.27.45c-2.34,5-4.05,10-4.05,13.41,0,2.16.72,5.13,3.33,5.13,6.21,0,14.49-15.84,17.82-21.87Z"/>
            <path class="cls-1"
                  d="M247,40.68c-7.11,13-17.91,24.66-32.49,24.66-9.72,0-17.28-5.22-17.28-15,0-12.78,13.77-32.49,27.27-32.49,16.47,0,10.62,28.26-7.11,28.26A21.3,21.3,0,0,1,206,42.57,22.4,22.4,0,0,0,204.39,50c0,5.94,4.41,9,10.08,9,11.7,0,20.52-11.7,26.19-21.87Zm-37.71-4.41a15,15,0,0,0,8.37,3.51c7.92,0,12.87-15.66,5.76-15.66C219.15,24.12,213.3,29.7,209.25,36.27Z"/>
            <path class="cls-1"
                  d="M310.58,40.68c-5.21,9.63-15,17.19-23.75,17.19a15.18,15.18,0,0,1-4.5-.72c-10.08,21.33-17.91,34.29-29.88,34.29-6.75,0-10.44-3.78-13.68-9.36l6.12-5.22c1,3.15,3.51,8.28,7.56,8.28,9.45,0,18.18-19.26,27.36-40.32,3.06-6.93,6.12-14.13,9.36-20.79a41.89,41.89,0,0,1-11.61-.09c-1.53,3.33-4.14,9.72-8.1,16.74l-6.3-3.51c3.24-5.85,5.31-10,6.93-13.5,1-2.07,1.71-3.6,1.44-5.85,8.55,2.79,19.08.81,23.93.63L298,23.31c-1.08,2-2,4.05-2.79,5.85-2.88,6.12-5.49,11.88-7.92,17.28l-1.89,4.05a8.87,8.87,0,0,0,1.53.18c5.94,0,13.32-6.12,17.37-13.5ZM301.67,14.4l-6.47-3.24L301,0l6.47,3.24Z"/>
            <path class="cls-1"
                  d="M350.45,40.68c-7.11,13-17.91,24.66-32.49,24.66-9.71,0-17.27-5.22-17.27-15,0-12.78,13.77-32.49,27.26-32.49,16.47,0,10.62,28.26-7.11,28.26a21.33,21.33,0,0,1-11.34-3.51A22.62,22.62,0,0,0,307.89,50c0,5.94,4.4,9,10.07,9,11.7,0,20.52-11.7,26.19-21.87Zm-37.7-4.41a15,15,0,0,0,8.36,3.51c7.92,0,12.87-15.66,5.76-15.66C322.64,24.12,316.79,29.7,312.75,36.27Z"/>
            <path class="cls-1"
                  d="M415.7,40.68c-5.22,9.45-13.05,17.19-21.33,17.19a13.56,13.56,0,0,1-3.69-.54c-4.41,4.77-9.72,8-15.12,8a10.57,10.57,0,0,1-9.72-5.58c-3.78,9.72-6.75,16.83-9.89,21.87-4.41,6.84-9.18,9.81-16.83,9.81l-2.07-7.29a12.89,12.89,0,0,0,12.69-6.21c3.77-5.85,7.82-16.83,15.29-36.54l.81-2.25,1.08-2.79c2-4.5,2.61-11.79,1.53-14.94l8-1.26a15.08,15.08,0,0,1,.72,6.39c3.42-4.86,7.47-8.73,13.32-8.73,6.21,0,11.07,4.32,11.07,13.5,0,6.21-2.25,13.14-5.76,19.08,5.22-1,10.26-7.2,13.59-13.23Zm-21.33-9.36c0-3.42-.72-7.2-3.87-7.2-4.86,0-13.5,7.83-18,17.91-2.34,5.49-3.06,17,3.06,17C383,59,394.37,44.28,394.37,31.32Z"/>
            <path class="cls-1"
                  d="M455.57,40.68c-7.11,13-17.91,24.66-32.49,24.66-9.72,0-17.28-5.22-17.28-15,0-12.78,13.77-32.49,27.27-32.49,16.47,0,10.62,28.26-7.11,28.26a21.3,21.3,0,0,1-11.34-3.51A22.4,22.4,0,0,0,413,50c0,5.94,4.41,9,10.08,9,11.7,0,20.52-11.7,26.19-21.87Zm-37.71-4.41a15,15,0,0,0,8.37,3.51c7.92,0,12.87-15.66,5.76-15.66C427.76,24.12,421.91,29.7,417.86,36.27Z"/>
            <path class="cls-1"
                  d="M505.25,40.68c-5.22,9.54-13.68,24.66-24.57,24.66-5.58,0-9.18-4.05-9.9-9.36-5,5.31-10.8,9.36-16.2,9.36-5.76,0-10.26-4.41-10.26-11.43,0-9.81,9.45-26.1,14.67-34.38l7.38,4.59a35.36,35.36,0,0,0-7.29,9.54c-3.78,7-7.56,15.21-7.56,20.25,0,2.07.72,5.13,3.6,5.13,6.3,0,16.74-14.85,20.52-22.23a173.71,173.71,0,0,1,9.63-17.28l7,4.32a37.45,37.45,0,0,0-5.4,7.11c-1.62,2.79-3.33,5.94-4.77,9.09l-.27.45c-2.34,5-4.05,10-4.05,13.41,0,2.16.72,5.13,3.33,5.13,6.21,0,14.49-15.84,17.82-21.87Z"/>
            <path class="cls-1"
                  d="M554.39,40.68c-9.09,16.47-17.91,24.66-26.19,24.66-7.2,0-9.63-6-10.35-13.41-6,6.3-12.78,11.52-21.24,13.32l-2.43-7a12.09,12.09,0,0,0,6.93-1.17c6.12-3.15,11.43-8.73,16.56-14.76.09-3.6.36-7.11.45-10.08.09-4.77-.18-8.1-2-8.1-2.52,0-5.49,6.48-10.89,16.56L499,37.17c7.11-13.41,10.08-19.35,16.56-19.35,9.27,0,8.91,3.6,9.63,13.59a12.68,12.68,0,0,1,.09,1.8c5.67-6.48,11.52-12.42,18.63-15.12l3,6.75c-2.34,0-5,1.35-7.29,3.06-4.95,4-9.45,9.81-14.4,15.66C525,51.93,524.87,59,529.19,59c6.39,0,15.3-15.39,18.9-21.87Z"/>
        </g>
    </g>
</svg>