<svg xmlns="http://www.w3.org/2000/svg" viewBox="0 0 246.96 74.07">
    <defs>
        <style>.cls-1{fill:#85d3f2;}</style>
    </defs>
    <g id="レイヤー_2" data-name="レイヤー 2">
        <g id="レイヤー_1のコピー" data-name="レイヤー 1のコピー">
            <path class="cls-1"
                  d="M0,32.49C0,19.71,13.77,0,26.55,0c6.66,0,10.71,4,10.71,9.18a12.54,12.54,0,0,1-4.5,9.72l-6-4.41C28.53,13.41,30,11.43,30,9.72c0-2-1.53-3.42-3.87-3.42C18.9,6.3,7.29,22.59,7.47,32.22c-.18,5.67,3.78,9,9.54,9,10.71,0,19.17-11.88,24.66-21.87L48,22.86C39,39.33,28.26,47.52,16.29,47.52,7.47,47.52,0,42.12,0,32.49Z"/>
            <path class="cls-1"
                  d="M87.84,22.86c-7.11,13-17.91,24.66-32.49,24.66-9.72,0-17.28-5.22-17.28-15C38.07,19.71,51.84,0,65.34,0,81.81,0,76,28.26,58.23,28.26a21.3,21.3,0,0,1-11.34-3.51,22.4,22.4,0,0,0-1.62,7.47c0,5.94,4.41,9,10.08,9,11.7,0,20.52-11.7,26.19-21.87ZM50.13,18.45A15,15,0,0,0,58.5,22C66.42,22,71.37,6.3,64.26,6.3,60,6.3,54.18,11.88,50.13,18.45Z"/>
            <path class="cls-1"
                  d="M135.81,40c6.84,14.67-1.53,34.11-12.78,34.11-6.39,0-10.26-5.4-10.26-11.61,0-4,2.16-10.26,5.67-17.73a14.94,14.94,0,0,1-8.19,2.79c-6.84,0-10-6.21-10-12.87C100.26,21.24,111.87,0,126,0c6,0,9.63,4.14,11.7,7.74,1.08-2,2.16-3.87,3.15-5.85L148.5,6c-3.42,3.42-6,8-8,11.7-3.69,6.75-6.48,11.88-8.19,15.21a10.67,10.67,0,0,0,2.88.45c6.39,0,12.06-6.84,15.93-14l6.3,3.51C152.46,31.86,144.18,39.06,135.81,40Zm-5.49-18.63c1.08-2.07,2.16-4.14,3.33-6.21a4.2,4.2,0,0,0,.45-.9l-1.44.54c-.72-4.86-2.7-8.46-7.47-8.46-8.1,0-17.64,17.82-17.64,28.53,0,4.41,1.53,6.39,3.42,6.39C114.84,41.22,123,32.85,130.32,21.33Zm-2.16,19.53c-3,5.85-8.1,17-8.1,23,0,2.43.81,4,3,4C128.25,67.77,135.18,51.57,128.16,40.86Z"/>
            <path class="cls-1"
                  d="M207.09,22.86c-5.22,9.54-13.68,24.66-24.57,24.66-5.58,0-9.18-4.05-9.9-9.36-5,5.31-10.8,9.36-16.2,9.36-5.76,0-10.26-4.41-10.26-11.43,0-9.81,9.45-26.1,14.67-34.38l7.38,4.59a35.36,35.36,0,0,0-7.29,9.54c-3.78,7-7.56,15.21-7.56,20.25,0,2.07.72,5.13,3.6,5.13,6.3,0,16.74-14.85,20.52-22.23a173.71,173.71,0,0,1,9.63-17.28l7,4.32a37.45,37.45,0,0,0-5.4,7.11c-1.62,2.79-3.33,5.94-4.77,9.09l-.27.45c-2.34,5-4.05,10-4.05,13.41,0,2.16.72,5.13,3.33,5.13,6.21,0,14.49-15.84,17.82-21.87Z"/>
            <path class="cls-1"
                  d="M247,22.86c-7.11,13-17.91,24.66-32.49,24.66-9.72,0-17.28-5.22-17.28-15C197.19,19.71,211,0,224.46,0c16.47,0,10.62,28.26-7.11,28.26A21.3,21.3,0,0,1,206,24.75a22.4,22.4,0,0,0-1.62,7.47c0,5.94,4.41,9,10.08,9,11.7,0,20.52-11.7,26.19-21.87Zm-37.71-4.41A15,15,0,0,0,217.62,22c7.92,0,12.87-15.66,5.76-15.66C219.15,6.3,213.3,11.88,209.25,18.45Z"/>
        </g>
    </g>
</svg>