<svg id="a" data-name="レイヤー 1" xmlns="http://www.w3.org/2000/svg" viewBox="0 0 608.81 403.87"><defs><style>.d{fill:#117dbf}</style></defs><g id="b" data-name="レイヤー 2"><g id="c" data-name="レイヤー 1のコピー"><path class="d" d="M9.69 383.54c-16.61-28.78-11.81-83.7 14.07-98.64 10.9-6.3 20.81-1.96 26.1 7.21 7.77 13.46 6.44 37.44-9.35 47.33l-7.35-11.38c2.63-1.06 7.04-3.6 8.98-7.49 2.33-4.81 3.26-14.73-1.56-23.08-3.35-5.8-7.98-6.85-13.08-3.9-18.46 10.66-22.89 59.79-8.56 84.62 6.56 11.37 18.49 21.04 32.79 12.79 20.65-11.93 17.38-46.54 17.3-58.73l10.81-.06c-.06 18.91 1.53 52.5-23.42 66.9-18.22 10.53-36.08 2.9-46.74-15.55Z"/><path class="d" d="M138.36 298.41c.3 13.92-2.59 30.89-14.66 37.86a24.032 24.032 0 0 1-7.22 2.78c-1.65 9.46-5.83 17.76-13.38 22.11-9.53 5.5-20.38 3.57-27.68-9.09-10-17.32-10.34-50.61 7.18-60.73 9.86-5.69 20.65-3.1 27.75 9.21 4.08 7.08 6.72 17.01 6.9 26.96.35-.2.76-.29 1.1-.49 8.01-4.62 9.48-19.24 9.27-28.45l10.73-.18Zm-32.28 41.39a13.4 13.4 0 0 1-1.88-.31l.73-11.87 1.81.19c-.37-8.15-2.57-16.46-5.72-21.91-4.35-7.54-9.37-8.99-13.78-6.44-11.13 6.44-10.13 34.18-2.57 47.28 4.22 7.31 9.07 9 13.71 6.32 4.07-2.33 6.59-7.34 7.67-13.23l.02-.02Z"/><path class="d" d="M224.55 248.64c.31 16.53.72 41.99-13.55 50.23-7.79 4.5-16.21 1.93-21.03-6.43-7.71-13.35-1.06-31.57-5.95-40.05-1.6-2.78-5.21-5.82-7.99-4.21-7.2 4.15-7.11 37.53-6.87 47.6.23 5.68.81 11.35 1.71 16.97l-10.46 1.71c-.93-5.7-1.55-11.44-1.85-17.2l-.03-2.45c-.57-11.44-.45-20.63-3.27-25.5-1.74-3.01-5.35-6.05-8.02-4.51-6.15 3.55-8.76 33.07-7.28 47.69a184.3 184.3 0 0 0 3.55 20.86l-10.32 2.5c-1.57-6.84-2.8-13.76-3.66-20.72l-.24-2.02c-1.36-10.67-2.25-20.52-4.16-27.31-.88-2.89-2.89-5.3-5.56-6.7l7.89-9.66c1.97 1.63 3.59 3.64 4.79 5.9 2.13-8.65 5.65-15.96 11.1-19.11s12.71-1.56 17.66 3.27c2.11-8.95 5.55-16.67 11.23-19.95 7.2-4.15 16.5-.39 21.19 7.73 6.9 11.95-.02 29.72 5.81 39.82 2.08 3.59 4.86 4.93 7.68 3.3 8.24-4.75 7.07-30.64 6.93-41.6l10.72-.16Z"/><path class="d" d="M279.68 216.82c.31 16.07-4.03 31.89-14.7 38.05-1.62.92-3.35 1.61-5.16 2.04-2.14 9.43-6.58 17.57-13.54 21.59a15.75 15.75 0 0 1-16.69.04c2.36 15.35 3.83 26.73 3.51 35.57-.59 12.11-4.53 19.49-14.4 25.18l-8.1-7.87a19.192 19.192 0 0 0 11.79-17.46c.52-10.36-2.43-27.53-7.47-58.52l-.64-3.5-.68-4.4c-.8-7.28-5.41-17.15-9.15-20.41l9.39-7.58c2.42 2.14 4.36 4.79 5.66 7.75.79-8.81 3.13-16.82 10.67-21.17 8-4.62 17.49-2.66 24.33 9.18 4.62 8 6.88 18.61 6.77 28.89 6-5.16 7.87-16.92 7.68-27.17l10.71-.2Zm-34.46 3.82c-2.55-4.42-6.29-8.76-10.35-6.41-6.27 3.62-11.58 20.15-9.87 36.5 1.07 8.83 8.72 24.22 16.61 19.66 9.64-5.57 13.27-33.04 3.62-49.75Z"/><path class="d" d="M331.08 187.14c.48 22.01-4.74 45.14-23.54 55.99-12.53 7.24-26.16 6.13-33.46-6.52-9.5-16.45-6.44-52.15 10.97-62.2 21.23-12.26 34.73 28.54 11.87 41.74a31.761 31.761 0 0 1-17.23 3.92c.53 3.8 1.71 7.49 3.5 10.89 4.42 7.66 12.38 8.32 19.69 4.1 15.09-8.71 17.76-30.37 17.49-47.7l10.7-.22Zm-51.91 22.39c3.41.81 9.92.3 13.4-1.71 10.22-5.9 4.94-29.78-4.23-24.49-5.45 3.16-8.84 14.71-9.17 26.2Zm.35-47.09-6.6-3.93c2.69-4.18 3.39-12.63 1.78-15.42l9.55-4.89c3.14 6.24 1.69 14.19-4.73 24.24Z"/><path class="d" d="M327.51 144.03c1.05 21.83 3.18 52.94 8.96 62.96 1.61 2.79 4.75 6.08 8.15 4.12 5.33-3.08 7.25-17.18 6.75-41.65l10.7-.21c.3 16.07.66 42.17-13.38 50.27-8.12 4.69-16.81.88-21.63-7.46-6.77-11.73-9.06-41.96-10.07-65.68-2.08.59-4.07 1.48-5.9 2.63-4.93 3.46-5.87 11.27-5.78 11.42l-10.38-2.98c1.3-4.45 5.58-10.96 12.32-14.85 3.01-1.64 6.19-2.96 9.49-3.93l-.43-13.06 10.67-.28.34 10.49c7.06-1.77 14-3.6 18.53-6.22 2.78-1.6 4.59-3.57 5.19-5.47l8.96 2.91c-1.47 4.41-4.34 7.76-9.1 10.51-6.31 3.57-15.22 5.01-23.39 6.47Z"/><path class="d" d="M413.48 139.57c.48 22.01-4.74 45.14-23.54 55.99-12.53 7.24-26.17 6.14-33.47-6.52-9.5-16.45-6.43-52.15 10.98-62.2 21.25-12.23 34.75 28.54 11.87 41.75a31.761 31.761 0 0 1-17.23 3.92c.53 3.8 1.71 7.48 3.49 10.88 4.42 7.66 12.39 8.32 19.69 4.1 15.09-8.71 17.76-30.37 17.49-47.7l10.71-.23Zm-51.91 22.39c3.41.81 9.92.3 13.4-1.71 10.22-5.9 4.94-29.78-4.23-24.49-5.45 3.16-8.84 14.71-9.17 26.2Z"/><path class="d" d="M473.01 105.2c.31 16.53.72 41.99-13.55 50.23-7.79 4.5-16.21 1.93-21.03-6.43-7.37-12.77-1.45-32.28-6.01-40.17-1.94-3.37-6.31-5.03-8.95-3.5-7.31 4.22-9.69 35.47-8.06 49.54.67 6.6 1.76 13.16 3.25 19.63l-10.32 2.5c-1.56-6.94-2.77-13.95-3.62-21.01l-.11.07-.29-2.93c-1.3-10.24-2.12-19.67-4.05-26.29-.88-2.89-2.89-5.3-5.56-6.7l7.89-9.66c2.04 1.76 3.73 3.88 4.99 6.25 2.44-8.88 6.19-16.59 11.99-19.94 6.93-4 17.25-1.75 22.14 6.72 6.63 11.48.46 30.53 6.15 40.4 1.94 3.36 4.72 4.7 7.55 3.07 8.24-4.76 7.07-30.64 6.93-41.6l10.68-.18Z"/><path class="d" d="M467.53 124.93c-9.5-16.45-6.44-52.15 10.04-61.66 8.59-4.96 16.76-2.87 20.65 3.86a18.686 18.686 0 0 1 1.44 15.89l-11.08-1.19c1.52-2.73 1.89-6.36.62-8.56-1.5-2.6-4.52-3.28-7.54-1.54-9.28 5.36-12.12 35.01-4.72 47.3 3.99 7.44 11.58 8.79 19.01 4.5 13.8-7.97 15.87-29.59 15.51-46.55l10.75-.19c.66 27.93-7.05 46.47-22.49 55.39-11.37 6.57-25.02 5.17-32.19-7.25Z"/><path class="d" d="M573.62 47.11c.48 22.01-4.74 45.14-23.54 55.99-12.53 7.23-26.17 6.14-33.47-6.52-9.5-16.45-6.44-52.15 10.97-62.2 21.24-12.27 34.74 28.53 11.88 41.73a31.795 31.795 0 0 1-17.24 3.92c.53 3.8 1.72 7.49 3.5 10.89 4.42 7.66 12.39 8.32 19.69 4.1 15.09-8.71 17.75-30.36 17.49-47.7l10.71-.23ZM521.71 69.5c3.4.82 9.92.3 13.4-1.71 10.21-5.89 4.93-29.78-4.23-24.49-5.45 3.16-8.84 14.71-9.17 26.2Z"/><path class="d" d="M585.93 31.19c6.05 3.78 14.22 4.79 20.19 15.12 6.36 11.02.78 24.15-9.89 30.31s-24.63 3.99-31.05-7.14c-4.89-8.47-3.51-18.09-2.29-22.19l10.73-.18c-2.44 10.23.04 15.61.84 17 3.56 6.16 11.73 7.46 17.19 4.31s9.69-11.62 6.34-17.42c-4.56-7.9-13.96-8.18-21.19-15-3.48.98-7.1 1.4-10.71 1.24l-.11-9.06c1.84.22 3.69.29 5.53.2-4.59-10.34.12-20.96 9.64-26.45 4.76-2.75 10.74-3.1 14.92 2.53 5.99 8 .33 19.11-10.12 26.73Zm3.42-20.08c-1.07-1.85-2.42-2.31-4.39-1.17-4.53 2.61-7.48 10.36-4.27 15.93 5.57-3.21 10.82-11.03 8.66-14.76Z"/></g></g></svg>