<svg xmlns="http://www.w3.org/2000/svg" viewBox="0 0 330.02 91.44">
    <defs>
        <style>.cls-1{fill:#85d3f2;}</style>
    </defs>
    <g id="レイヤー_2" data-name="レイヤー 2">
        <g id="レイヤー_1のコピー" data-name="レイヤー 1のコピー">
            <path class="cls-1"
                  d="M49.77,40.68c-7.11,13-17.91,24.66-32.49,24.66C7.56,65.34,0,60.12,0,50.31,0,37.53,13.77,17.82,27.27,17.82c16.47,0,10.62,28.26-7.11,28.26A21.3,21.3,0,0,1,8.82,42.57,22.4,22.4,0,0,0,7.2,50c0,5.94,4.41,9,10.08,9C29,59,37.8,47.34,43.47,37.17ZM12.06,36.27a15,15,0,0,0,8.37,3.51c7.92,0,12.87-15.66,5.76-15.66C22,24.12,16.11,29.7,12.06,36.27Z"/>
            <path class="cls-1"
                  d="M95.94,40.68c-5.4,9.72-13.68,24.66-24.75,24.66-6,0-10.08-4.32-10.08-10.8,0-9.9,10-19.26,10-25.38,0-2.61-2-5-4-5-5.67,0-17.55,17.37-21.33,26.1A108.69,108.69,0,0,0,41,62.73l-6.84-2a140.67,140.67,0,0,1,4.95-13.41h-.09l.81-1.8c2.7-6.39,5.4-12.15,6.48-16.65a7.55,7.55,0,0,0-1-5.76l7.83-3A14.61,14.61,0,0,1,54,25.47c4.41-4.41,9.18-7.65,13.68-7.65,5.4,0,10.62,4.77,10.62,11.34,0,8.91-10,17.91-10,25.56,0,2.61,1.17,4.32,3.33,4.32C78,59,86,43.56,89.64,37.17Z"/>
            <path class="cls-1"
                  d="M108.45,35.55c2.25,4.23,6.66,7.56,6.66,15.57,0,8.55-7.65,14.31-15.93,14.31S83.52,59.49,83.52,50.85c0-6.57,4-11.7,6.12-13.68l6.3,3.51c-4.86,5.13-5.22,9.09-5.22,10.17,0,4.77,4.32,8.28,8.55,8.28s9.54-3.51,9.54-8c0-6.12-5.4-9.45-7.29-15.84a23.09,23.09,0,0,1-6.66-2.88l3-5.31a23.08,23.08,0,0,0,3.15,2c.81-7.56,7.11-12.15,14.49-12.15,3.69,0,7.29,1.8,7.83,6.48C124.11,30.06,117.09,34.65,108.45,35.55ZM117.18,25c0-1.44-.63-2.16-2.16-2.16-3.51,0-7.83,3.51-7.83,7.83C111.51,30.69,117.18,27.9,117.18,25Z"/>
            <path class="cls-1"
                  d="M173.16,40.68c-7.11,13-17.91,24.66-32.49,24.66-9.72,0-17.28-5.22-17.28-15,0-12.78,13.77-32.49,27.27-32.49,16.47,0,10.62,28.26-7.11,28.26a21.3,21.3,0,0,1-11.34-3.51A22.4,22.4,0,0,0,130.59,50c0,5.94,4.41,9,10.08,9,11.7,0,20.52-11.7,26.19-21.87Zm-37.71-4.41a15,15,0,0,0,8.37,3.51c7.92,0,12.87-15.66,5.76-15.66C145.35,24.12,139.5,29.7,135.45,36.27Z"/>
            <path class="cls-1"
                  d="M161.91,53.73c0-8.37,5.85-19.26,14.67-34.2l6.93,4.23a35.53,35.53,0,0,0-5.13,6.93c-4,7-9.27,17.28-9.27,23,0,2.25.72,5.31,3.42,5.31,6.12,0,14.31-15.75,17.73-21.87l6.3,3.51c-5.31,9.54-13.68,24.66-24.48,24.66C165.6,65.34,161.91,60.12,161.91,53.73Zm18.45-42.57L186.12,0l6.48,3.24L186.84,14.4Z"/>
            <path class="cls-1"
                  d="M244,40.68c-5.22,9.63-14.22,17.19-22.95,17.19a16.32,16.32,0,0,1-4.59-.72c-9.62,20.61-17.63,34.29-30,34.29-7.56,0-12.33-5.85-13.59-9.36l7.29-4.32c.54,3.15,2.34,7.38,6.48,7.38,7.11,0,13.41-10,20.34-24.48-3.15,2.79-6.66,4.68-10.44,4.68-6.84,0-10-6.21-10-12.87,0-13.41,11.61-34.65,25.74-34.65,5.48,0,9.09,3.51,11.15,6.84.81-1.62,1.53-3.24,2.34-4.86L234.08,22c-4.23,5.94-9.81,18.18-13.32,25.83-.45.9-.8,1.8-1.26,2.7a11,11,0,0,0,1.71.18c5.85,0,12.42-6.12,16.47-13.5Zm-26.63-2.79c.9-1.89,1.7-3.78,2.61-5.67l-1,.36c-.71-4.86-2.69-8.46-7.46-8.46-8.1,0-17.64,17.82-17.64,28.53,0,4.41,1.53,6.39,3.42,6.39C201.33,59,210,50,217.35,37.89Z"/>
            <path class="cls-1"
                  d="M290.15,40.68c-5.4,9.72-13.68,24.66-24.75,24.66-6,0-10.07-4.32-10.07-10.8,0-9.9,10-19.26,10-25.38,0-2.61-2-5-4.05-5-5.66,0-17.54,17.37-21.32,26.1a108.69,108.69,0,0,0-4.68,12.51l-6.84-2a140.67,140.67,0,0,1,5-13.41h-.09l.81-1.8c2.7-6.39,5.4-12.15,6.48-16.65a7.55,7.55,0,0,0-1-5.76l7.83-3a14.61,14.61,0,0,1,.81,5.31c4.4-4.41,9.18-7.65,13.67-7.65,5.4,0,10.62,4.77,10.62,11.34,0,8.91-10,17.91-10,25.56,0,2.61,1.17,4.32,3.33,4.32,6.39,0,14.4-15.48,18-21.87Z"/>
            <path class="cls-1"
                  d="M330,40.68c-7.11,13-17.91,24.66-32.49,24.66-9.72,0-17.28-5.22-17.28-15,0-12.78,13.77-32.49,27.27-32.49,16.47,0,10.62,28.26-7.11,28.26a21.3,21.3,0,0,1-11.34-3.51A22.4,22.4,0,0,0,287.45,50c0,5.94,4.41,9,10.08,9,11.7,0,20.52-11.7,26.19-21.87Zm-37.71-4.41a15,15,0,0,0,8.37,3.51c7.92,0,12.87-15.66,5.76-15.66C302.21,24.12,296.36,29.7,292.31,36.27Z"/>
        </g>
    </g>
</svg>