<svg xmlns="http://www.w3.org/2000/svg" viewBox="0 0 407.96 97.11">
    <defs>
        <style>.cls-1{fill:#85d3f2;}</style>
    </defs>
    <g id="レイヤー_2" data-name="レイヤー 2">
        <g id="レイヤー_1のコピー" data-name="レイヤー 1のコピー">
            <path class="cls-1"
                  d="M62,13c0,7-5.22,12.6-7.56,14.67l-5.67-6.39A17.44,17.44,0,0,0,53.19,18a9.84,9.84,0,0,0,1.62-5c0-4.05-3.42-6.66-8-6.66-7.65,0-17.19,7-17.19,16.2a10.87,10.87,0,0,0,3.24,7.92,31.26,31.26,0,0,1,8.73,2.34L37.35,40.5c-2.34-1.71-5-4-8.28-4C17.82,36.45,7.2,45.81,7.2,57.06c0,7.11,4.05,14,11.79,14s12.78-3.69,16.83-9.45c2.34-3.33,3.24-9.09,3.24-11.88l8.28,2.79c-1.26,3.87-2.7,8.55-5.13,12.06C36.9,72.27,28.44,77.4,19,77.4c-11.61,0-19-9-19-20.34,0-13.5,11-24.39,24.3-26.55a17,17,0,0,1-1.89-8C22.41,9.09,35.37,0,47.34,0,56.61,0,62,5.85,62,13Z"/>
            <path class="cls-1"
                  d="M77.22,20.07c-6.75,13-15.93,31.86-15.93,39.6,0,2.16.72,5.13,3.33,5.13,4.14,0,10-7.56,17.91-22l6.3,3.51C83.61,55.8,75.06,71.1,64.17,71.1c-6.3,0-10.08-5.13-10.08-11.61,0-9.09,8.82-27.45,16.2-41.58A15.33,15.33,0,0,0,66,17.46c-4,.36-7.2,4.59-7.2,4.68l-5-5.22a18.64,18.64,0,0,1,12.15-4.5,32.5,32.5,0,0,1,6.84.9l4.14-7.74L83.16,9l-3.33,6.21c4.68,1.35,9.36,2.61,12.87,2.61a7.28,7.28,0,0,0,4.86-1.44l4.23,4.68A12.54,12.54,0,0,1,93,24.12C88.11,24.12,82.44,22,77.22,20.07Z"/>
            <path class="cls-1"
                  d="M101.52,56c0-12.78,13.77-32.49,26.55-32.49,6.66,0,10.71,4,10.71,9.18a12.54,12.54,0,0,1-4.5,9.72l-6-4.41c1.8-1.08,3.24-3.06,3.24-4.77,0-2-1.53-3.42-3.87-3.42-7.2,0-18.81,16.29-18.63,25.92-.18,5.67,3.78,9,9.54,9,10.71,0,19.17-11.88,24.66-21.87l6.3,3.51C140.49,62.82,129.78,71,117.81,71,109,71,101.52,65.61,101.52,56Z"/>
            <path class="cls-1"
                  d="M189.36,46.35C182.25,59.31,171.45,71,156.87,71c-9.72,0-17.28-5.22-17.28-15,0-12.78,13.77-32.49,27.27-32.49,16.47,0,10.62,28.26-7.11,28.26a21.3,21.3,0,0,1-11.34-3.51,22.4,22.4,0,0,0-1.62,7.47c0,5.94,4.41,9,10.08,9,11.7,0,20.52-11.7,26.19-21.87Zm-37.71-4.41A15,15,0,0,0,160,45.45c7.92,0,12.87-15.66,5.76-15.66C161.55,29.79,155.7,35.37,151.65,41.94Z"/>
            <path class="cls-1"
                  d="M201.87,41.22c2.25,4.23,6.66,7.56,6.66,15.57,0,8.55-7.65,14.31-15.93,14.31s-15.66-5.94-15.66-14.58c0-6.57,4.05-11.7,6.12-13.68l6.3,3.51c-4.86,5.13-5.22,9.09-5.22,10.17,0,4.77,4.32,8.28,8.55,8.28s9.54-3.51,9.54-8c0-6.12-5.4-9.45-7.29-15.84a23.09,23.09,0,0,1-6.66-2.88l3-5.31a23.08,23.08,0,0,0,3.15,2c.81-7.56,7.11-12.15,14.49-12.15,3.69,0,7.29,1.8,7.83,6.48C217.53,35.73,210.51,40.32,201.87,41.22Zm8.73-10.53c0-1.44-.63-2.16-2.16-2.16-3.51,0-7.83,3.51-7.83,7.83C204.93,36.36,210.6,33.57,210.6,30.69Z"/>
            <path class="cls-1"
                  d="M292,46.35c-5.22,9.45-13,17.19-21.33,17.19a13.56,13.56,0,0,1-3.69-.54c-4.41,4.77-9.72,8-15.12,8a10.57,10.57,0,0,1-9.72-5.58c-3.78,9.72-6.75,16.83-9.9,21.87-4.41,6.84-9.18,9.81-16.83,9.81l-2.07-7.29A12.89,12.89,0,0,0,226,83.61c3.78-5.85,7.83-16.83,15.3-36.54l.81-2.25L243.18,42c2-4.5,2.61-11.79,1.53-14.94l8-1.26a15.08,15.08,0,0,1,.72,6.39c3.42-4.86,7.47-8.73,13.32-8.73,6.21,0,11.07,4.32,11.07,13.5,0,6.21-2.25,13.14-5.76,19.08,5.22-1,10.26-7.2,13.59-13.23ZM270.63,37c0-3.42-.72-7.2-3.87-7.2-4.86,0-13.5,7.83-18,17.91-2.34,5.49-3.06,17,3.06,17C259.29,64.71,270.63,50,270.63,37Z"/>
            <path class="cls-1"
                  d="M335.42,46.35C330.11,55.89,321.66,71,310.68,71,305,71,300.6,66.87,300.6,60.48c0-7.29,4.95-20.16,10.62-28.71a36.26,36.26,0,0,1-11-2.52c-2.16,5.85-6.66,14.13-8.28,17.1l-6.3-3.51c5-9.45,7.47-15,8.19-17.19-.63-.45-1.17-1-1.8-1.53l5.49-5.4c.54,1.44,3,3.69,5.4,4.59,3.42,1.26,9.35,3.33,14.58,1.35l4.86,6.93a12.09,12.09,0,0,0-5.5,4.77C312,43.74,307.8,54.45,307.8,60.3c0,2.25.81,4.41,3.24,4.41,6.48,0,14.67-15.66,18.08-21.87Z"/>
            <path class="cls-1"
                  d="M324.18,59.4c0-8.37,5.85-19.26,14.66-34.2l6.93,4.23a35.53,35.53,0,0,0-5.13,6.93c-4.05,7-9.26,17.28-9.26,23,0,2.25.71,5.31,3.41,5.31,6.13,0,14.31-15.75,17.73-21.87l6.3,3.51C353.51,55.89,345.14,71,334.34,71,327.87,71,324.18,65.79,324.18,59.4Zm18.44-42.57,5.76-11.16,6.48,3.24L349.1,20.07Z"/>
            <path class="cls-1"
                  d="M408,46.35C398.87,62.82,390.05,71,381.77,71c-7.2,0-9.63-6-10.35-13.41-6,6.3-12.78,11.52-21.24,13.32l-2.43-7a12.09,12.09,0,0,0,6.93-1.17C360.8,59.58,366.11,54,371.24,48c.09-3.6.36-7.11.45-10.08.09-4.77-.18-8.1-2-8.1-2.52,0-5.49,6.48-10.89,16.56l-6.3-3.51c7.11-13.41,10.08-19.35,16.56-19.35,9.27,0,8.91,3.6,9.63,13.59a12.68,12.68,0,0,1,.09,1.8c5.67-6.48,11.52-12.42,18.63-15.12l3,6.75c-2.34,0-5,1.35-7.29,3.06-4.95,4-9.45,9.81-14.4,15.66-.18,8.37-.27,15.48,4.05,15.48,6.39,0,15.3-15.39,18.9-21.87Z"/>
        </g>
    </g>
</svg>