<svg id="a" data-name="レイヤー 1" xmlns="http://www.w3.org/2000/svg" viewBox="0 0 300 300"><defs><style>.c{fill:#a9bf04}.d{fill:#1e1210}</style></defs><path d="m203.18 110.28.22.05c11.05-.27 13.79 10.15 11.97 19.54-2.42 12.41-11.68 16.93-16.99 15.2-4.88 19.63-15.05 26.55-24.93 30.24 1.1 8.42.5 16.74 10.69 25.3 5.2 4.37 19.42 7.09 28.24 10.18 13.96 4.88 25.86 12.14 30.58 23.91 4.23 10.57 4.29 16.55 3.66 25.08-.29 4.04-2.37 7.75-5.69 10.05-19 13.16-71.49 16.81-90.92 16.81s-71.92-3.66-90.92-16.81c-3.32-2.3-5.39-6.01-5.69-10.05-.63-8.53-.58-14.51 3.66-25.08 4.71-11.77 16.61-19.02 30.57-23.91 8.82-3.09 23.05-5.81 28.24-10.17 10.2-8.57 9.59-16.89 10.69-25.31-9.88-3.69-19.87-10.62-24.91-30.25h-.02c-5.31 1.74-14.57-2.77-16.99-15.19-1.83-9.39.92-19.81 11.97-19.54l.22-.05c-18.87-81.3 53.18-78.84 53.18-78.84s72.06-2.46 53.19 78.84Z" style="fill:#fff"/><path class="c" d="M115.57 284.57c-25.52-2.76-54.6-8.67-61.79-19.95-.89-11.39-1.7-17.47 3.28-29.92 4.71-11.77 16.61-19.02 30.57-23.91 8.82-3.09 23.05-5.81 28.24-10.17l-.3 83.95ZM184.44 284.57c25.52-2.76 54.6-8.67 61.79-19.95.89-11.39 1.7-17.47-3.28-29.92-4.71-11.77-16.61-19.02-30.57-23.91-8.82-3.09-23.05-5.81-28.24-10.17l.3 83.95Z"/><path class="d" d="M126.55 178.26c-.34 0-.69-.06-1.03-.19-6.41-2.39-11.3-5.54-15.39-9.89-5.15-5.49-8.85-12.75-11.3-22.2l-.06-.2c-.24-.96-.43-1.75-.6-2.49-.35-1.59.65-3.17 2.24-3.52 1.59-.35 3.17.65 3.52 2.24.14.64.31 1.33.51 2.15.02.06.03.11.05.17 4.9 19.1 14.42 24.98 23.08 28.22 1.53.57 2.3 2.27 1.73 3.79a2.945 2.945 0 0 1-2.76 1.92Z"/><path class="d" d="M99.24 148.38c-2.38 0-4.92-.72-7.3-2.13-3.01-1.77-8.33-6.17-10.21-15.82-1.44-7.38-.21-14.04 3.36-18.27 2.74-3.24 6.75-4.9 11.57-4.78a2.95 2.95 0 0 1 2.88 3.02 2.963 2.963 0 0 1-3.02 2.88c-3.07-.07-5.33.81-6.93 2.69-2.34 2.77-3.14 7.88-2.07 13.34.62 3.17 2.4 8.92 7.41 11.86 2.01 1.18 4.22 1.6 5.77 1.1 1.55-.51 3.21.34 3.72 1.89.51 1.55-.34 3.21-1.89 3.72-1.04.34-2.15.51-3.29.51ZM173.45 178.26c-1.2 0-2.32-.73-2.76-1.92-.57-1.53.21-3.22 1.73-3.79 5.57-2.08 9.78-4.75 13.23-8.41 4.52-4.79 7.75-11.26 9.87-19.78.21-.83.38-1.59.54-2.33a2.954 2.954 0 0 1 3.5-2.27c1.59.34 2.61 1.91 2.27 3.5-.17.8-.36 1.63-.59 2.52-2.37 9.53-6.06 16.86-11.3 22.41-4.09 4.33-9 7.47-15.45 9.88-.34.13-.69.19-1.03.19Z"/><path class="d" d="M200.74 148.38c-1.11 0-2.19-.16-3.2-.48a2.949 2.949 0 0 1 .83-5.78c.31 0 .62.05.91.14 1.55.51 3.77.08 5.78-1.1 2.15-1.26 5.97-4.48 7.4-11.85 1.06-5.46.27-10.57-2.07-13.34-1.59-1.88-3.86-2.76-6.93-2.69a2.95 2.95 0 1 1-.14-5.9c4.83-.12 8.83 1.54 11.57 4.78 3.57 4.23 4.8 10.89 3.36 18.27-1.88 9.64-7.2 14.04-10.2 15.81-2.39 1.41-4.93 2.13-7.32 2.13Z"/><path class="d" d="M98.35 119.36c-1.29 0-2.48-.86-2.84-2.17-.6-2.18-1.13-4.28-1.58-6.26-6.26-26.97-3.41-47.98 8.48-62.42 7.12-8.65 17.62-14.85 30.39-17.94 9.08-2.2 16.23-2.1 17.2-2.08.97-.02 8.12-.11 17.2 2.08 12.76 3.09 23.27 9.29 30.39 17.94 11.89 14.45 14.74 35.45 8.48 62.43-.45 1.97-.98 4.07-1.58 6.25a2.954 2.954 0 0 1-3.63 2.06 2.954 2.954 0 0 1-2.06-3.63c.57-2.09 1.08-4.11 1.51-6 5.82-25.09 3.38-44.38-7.25-57.33-7.91-9.64-19.09-13.99-27.07-15.95-8.82-2.16-15.82-1.96-15.89-1.96h-.2c-.07 0-7.07-.2-15.89 1.96-7.98 1.95-19.15 6.31-27.07 15.94-10.64 12.95-13.08 32.24-7.26 57.32.43 1.91.94 3.93 1.52 6.02a2.959 2.959 0 0 1-2.84 3.74ZM150 289.59c-9.92 0-27.93-.92-46.04-3.5-22.22-3.17-37.88-7.83-46.56-13.84-4.05-2.81-6.59-7.27-6.95-12.25-.63-8.55-.7-15 3.86-26.4 4.47-11.18 15.05-19.55 32.33-25.59 2.83-.99 6.09-1.91 9.53-2.89 6.88-1.95 14.69-4.16 17.78-6.76 7.89-6.64 8.53-12.79 9.27-19.92.12-1.14.24-2.33.4-3.52a2.945 2.945 0 0 1 3.31-2.54c1.61.21 2.75 1.69 2.54 3.31-.14 1.11-.26 2.25-.38 3.36-.76 7.34-1.62 15.65-11.34 23.83-4.06 3.41-12.15 5.7-19.97 7.92-3.36.95-6.53 1.85-9.19 2.78-15.58 5.45-25 12.72-28.81 22.22-4.1 10.24-4.04 15.81-3.45 23.77.23 3.2 1.85 6.05 4.43 7.84 7.81 5.41 23.03 9.85 44.03 12.85 17.8 2.54 35.48 3.44 45.2 3.44 21.44 0 71.47-3.98 89.24-16.29 2.58-1.79 4.19-4.64 4.43-7.84.58-7.97.64-13.54-3.46-23.77-3.8-9.5-13.23-16.77-28.81-22.22-2.66-.93-5.83-1.83-9.18-2.78-7.82-2.22-15.91-4.51-19.98-7.93-9.72-8.17-10.58-16.49-11.34-23.83-.11-1.1-.23-2.24-.38-3.35-.21-1.61.93-3.1 2.54-3.31 1.61-.21 3.1.93 3.31 2.54.15 1.18.28 2.36.39 3.5.74 7.13 1.37 13.29 9.27 19.92 3.1 2.61 10.9 4.82 17.79 6.77 3.44.98 6.7 1.9 9.52 2.89 17.29 6.04 27.86 14.41 32.34 25.59 4.56 11.38 4.49 17.84 3.87 26.4-.36 4.98-2.9 9.45-6.95 12.26-8.68 6.01-24.35 10.67-46.56 13.84-18.11 2.59-36.12 3.5-46.04 3.5ZM150 137.09c-.72 0-1.31-.59-1.31-1.31v-1.66c0-.72.59-1.31 1.31-1.31s1.31.59 1.31 1.31v1.66c0 .72-.59 1.31-1.31 1.31Z"/><path class="d" d="M123.09 104.99c-.61 0-1.22-.24-1.67-.72-.87-.92-.83-2.37.09-3.24 3.4-3.22 9.46-4.13 14.41-2.16 1.18.47 1.75 1.8 1.29 2.98a2.302 2.302 0 0 1-2.98 1.29c-3.65-1.45-7.73-.51-9.57 1.23-.44.42-1.01.63-1.58.63ZM126.55 178.26c-.34 0-.69-.06-1.03-.19-6.7-2.5-11.77-5.84-15.95-10.51-5.33-5.94-9.05-13.88-11.38-24.27-.36-1.59.64-3.17 2.23-3.52 1.59-.36 3.17.64 3.52 2.23 4.68 20.88 14.58 27.16 23.65 30.54 1.53.57 2.3 2.27 1.73 3.79a2.945 2.945 0 0 1-2.76 1.92ZM173.45 178.26c-1.2 0-2.32-.73-2.76-1.92-.57-1.53.2-3.22 1.73-3.79 16.37-6.12 21.14-18.86 23.64-30.52a2.94 2.94 0 0 1 3.5-2.26 2.94 2.94 0 0 1 2.26 3.5c-2.23 10.39-5.93 18.34-11.32 24.3-4.19 4.64-9.28 7.98-16.03 10.5-.34.13-.69.19-1.03.19Z"/><path class="c" d="m196.73 103.84 4.91 12.57c14.24-16.28 19.51-31.92 6.68-47 5.11-11.61-3.47-29.58-20.25-28.09-2.98-10.96-14.18-16.85-24.22-18.34-12.14-1.8-25.21.61-34.83 11.69-17.74-7.41-49.29 5.81-40.71 41.39-10.8 19.6-1.13 31.89 10.05 40.34l3.66-16.28s17.89-11.13 23.51-24.46c6.67 7.89 16.16 15.27 26.98 16.42s26.44-.59 26.44-.59 5.96 13.48 17.78 12.34Z"/><path class="d" d="M201.64 119.37a2.934 2.934 0 0 1-2.88-2.3l-5.77-25.63c-.36-1.59.64-3.17 2.23-3.52 1.59-.36 3.17.64 3.52 2.23l4.45 19.75c5.01-6.52 7.99-12.44 9.04-17.98 1.4-7.33-.62-14.07-6.16-20.58-.73-.86-.91-2.06-.45-3.1 2.26-5.14 1.31-12.04-2.37-17.17-2.04-2.85-6.7-7.52-14.93-6.8a2.96 2.96 0 0 1-3.11-2.16c-2.71-9.97-13.44-14.96-21.8-16.19-9.25-1.37-22.34-.62-32.17 10.71-.83.96-2.19 1.28-3.36.79-8.73-3.65-20.74-1.46-28.56 5.21-8.58 7.31-11.47 18.95-8.14 32.77.17.72.07 1.47-.28 2.11-7.24 13.14-5.53 23.66 5.64 33.62l4.72-20.98a2.948 2.948 0 0 1 5.75 1.29l-5.77 25.63c-.22.98-.92 1.78-1.86 2.12-.94.35-1.99.19-2.79-.42-7.29-5.51-11.95-11.18-14.25-17.31-2.95-7.87-1.99-16.55 2.86-25.8-4.66-21 4.41-32.51 10.31-37.53 9-7.67 22.14-10.37 32.69-6.9 4.62-4.81 10.15-8.19 16.48-10.05 6.01-1.77 12.62-2.14 19.62-1.1 5.82.86 11.5 3.03 15.99 6.1 4.68 3.21 8.07 7.36 9.9 12.12 7.19.06 13.61 3.39 17.88 9.33 4.53 6.32 5.88 14.47 3.64 21.25 5.84 7.48 7.98 15.59 6.35 24.14-1.5 7.86-6.13 16.15-14.17 25.34a2.95 2.95 0 0 1-2.22 1.01ZM150 289.59c-9.92 0-27.93-.92-46.04-3.5-22.22-3.17-37.88-7.83-46.56-13.84-4.05-2.81-6.59-7.27-6.95-12.25-.63-8.55-.7-15 3.86-26.4 4.47-11.18 15.05-19.55 32.33-25.59 2.83-.99 6.09-1.91 9.53-2.89 6.88-1.95 14.69-4.16 17.78-6.76 7.89-6.64 8.53-12.79 9.27-19.92.12-1.14.24-2.33.4-3.52a2.945 2.945 0 0 1 3.31-2.54c1.61.21 2.75 1.69 2.54 3.31-.14 1.11-.26 2.25-.38 3.36-.76 7.34-1.62 15.65-11.34 23.83-4.06 3.41-12.15 5.7-19.97 7.92-3.36.95-6.53 1.85-9.19 2.78-15.58 5.45-25 12.72-28.81 22.22-4.1 10.24-4.04 15.81-3.45 23.77.23 3.2 1.85 6.05 4.43 7.84 7.81 5.41 23.03 9.85 44.03 12.85 17.8 2.54 35.48 3.44 45.2 3.44 21.44 0 71.47-3.98 89.24-16.29 2.58-1.79 4.19-4.64 4.43-7.84.58-7.97.64-13.54-3.46-23.77-3.8-9.5-13.23-16.77-28.81-22.22-2.66-.93-5.83-1.83-9.18-2.78-7.82-2.22-15.91-4.51-19.98-7.93-9.72-8.17-10.58-16.49-11.34-23.83-.11-1.1-.23-2.24-.38-3.35-.21-1.61.93-3.1 2.54-3.31 1.61-.21 3.1.93 3.31 2.54.15 1.18.28 2.36.39 3.5.74 7.13 1.37 13.29 9.27 19.92 3.1 2.61 10.9 4.82 17.79 6.77 3.44.98 6.7 1.9 9.52 2.89 17.29 6.04 27.86 14.41 32.34 25.59 4.56 11.38 4.49 17.84 3.87 26.4-.36 4.98-2.9 9.45-6.95 12.26-8.68 6.01-24.35 10.67-46.56 13.84-18.11 2.59-36.12 3.5-46.04 3.5Z"/><path class="d" d="M176.91 104.99a2.3 2.3 0 0 1-1.58-.63c-1.84-1.74-5.92-2.68-9.57-1.23-1.18.47-2.51-.11-2.98-1.29-.47-1.18.11-2.51 1.29-2.98 4.95-1.96 11.01-1.06 14.41 2.16.92.87.96 2.32.09 3.24-.45.48-1.06.72-1.67.72ZM155.98 95c-9.11 0-20.38-4.87-26.32-11.98a2.947 2.947 0 0 1 .37-4.15 2.947 2.947 0 0 1 4.15.37c5.76 6.89 18.56 11.52 25.84 9.34 1.56-.47 3.2.42 3.67 1.98.47 1.56-.42 3.2-1.98 3.67-1.74.52-3.68.77-5.73.77Z"/><path class="d" d="M169.66 96.21c-1.22 0-2.45-.17-3.69-.52-8.15-2.29-14.21-11.63-17.1-16.99a2.941 2.941 0 0 1 1.2-3.99c1.43-.77 3.22-.24 3.99 1.2 1.54 2.85 7.05 12.3 13.5 14.11 2.09.59 4.1.3 6.14-.89 1.41-.82 3.21-.35 4.03 1.06.82 1.41.35 3.21-1.06 4.03-2.28 1.33-4.63 2-7.02 2Z"/><path class="d" d="M196.73 106.79c-15.92 0-22.42-17.23-25.19-24.59-.32-.85-.6-1.58-.81-2.08-.64-1.5.05-3.23 1.55-3.87 1.5-.64 3.23.05 3.87 1.55.27.62.56 1.41.91 2.32 2.54 6.74 7.83 20.77 19.67 20.77a2.949 2.949 0 1 1 0 5.9ZM101.74 104.37c-1.09 0-2.13-.6-2.65-1.65a2.95 2.95 0 0 1 1.34-3.95c12.68-6.24 16.7-13.85 19.64-19.41.7-1.32 1.35-2.56 2.06-3.66.88-1.37 2.7-1.77 4.07-.89s1.77 2.7.89 4.07c-.57.89-1.14 1.98-1.81 3.23-3.13 5.92-7.85 14.85-22.25 21.94-.42.21-.86.3-1.3.3ZM179.61 132.24h-17.53c-4.54 0-8.31-3.4-8.78-7.92l-1.04-9.97h-4.55l-1.04 9.97a8.81 8.81 0 0 1-8.78 7.92h-17.53c-4.54 0-8.31-3.4-8.78-7.92l-1.22-11.73a1.966 1.966 0 0 1 3.91-.41l1.22 11.73c.26 2.5 2.35 4.39 4.87 4.39h17.53c2.52 0 4.61-1.89 4.87-4.39l1.22-11.73c.1-1 .95-1.76 1.96-1.76h8.09c1.01 0 1.85.76 1.96 1.76l1.22 11.73c.26 2.5 2.35 4.39 4.87 4.39h17.53c2.52 0 4.61-1.89 4.87-4.39l1.22-11.73a1.966 1.966 0 0 1 3.91.41l-1.22 11.73a8.81 8.81 0 0 1-8.78 7.92ZM150 160.23c-8.91 0-14.91-11.35-15.16-11.84-.37-.71-.34-1.56.07-2.25.42-.68 1.16-1.1 1.96-1.1h26.25c.8 0 1.54.42 1.96 1.1s.44 1.54.07 2.25c-.25.48-6.25 11.84-15.16 11.84Zm-8.92-10.6c2.16 2.84 5.44 6.01 8.92 6.01s6.76-3.18 8.92-6.01h-17.83Z"/><path class="d" d="M176.81 120.84c-.71 0-1.4-.33-1.85-.94-1.36-1.86-3.4-2.21-4.5-2.25-1.79-.07-3.56.55-4.42 1.55-.82.96-2.27 1.07-3.23.25a2.294 2.294 0 0 1-.25-3.23c1.77-2.07 4.87-3.28 8.08-3.15 3.28.13 6.21 1.63 8.03 4.13a2.3 2.3 0 0 1-.5 3.21c-.41.3-.88.44-1.35.44ZM123.2 120.84c-.47 0-.94-.14-1.35-.44a2.3 2.3 0 0 1-.5-3.21c1.82-2.49 4.75-4 8.03-4.13 3.21-.13 6.31 1.08 8.08 3.15.82.96.71 2.41-.25 3.23-.96.82-2.41.71-3.23-.25-.86-1-2.63-1.62-4.42-1.55-1.1.04-3.15.39-4.5 2.25-.45.61-1.15.94-1.85.94ZM150.68 221.56c-26.13 0-33.7-4.05-35.75-5.79a2.949 2.949 0 0 1-.33-4.16 2.949 2.949 0 0 1 4.16-.33c.21.18 5.45 4.38 31.92 4.38 11.16 0 19.82-.73 25.74-2.17 3.83-.93 5.21-1.86 5.63-2.21 1.24-1.06 3.1-.91 4.16.33s.91 3.1-.33 4.16c-4.45 3.79-16.62 5.79-35.19 5.79Z"/><path class="d" d="M115.87 287.51c-1.63 0-2.95-1.32-2.95-2.95v-83.95a2.949 2.949 0 1 1 5.9 0v83.95c0 1.63-1.32 2.95-2.95 2.95ZM184.14 287.51c-1.63 0-2.95-1.32-2.95-2.95v-83.95a2.949 2.949 0 1 1 5.9 0v83.95c0 1.63-1.32 2.95-2.95 2.95Z"/></svg>