<svg id="a" data-name="レイヤー 1" xmlns="http://www.w3.org/2000/svg" viewBox="0 0 300 300"><defs><style>.b{fill:#fff}.c{fill:#d5eaff}.e{fill:#1e1210}</style></defs><path class="c" d="M83.71 165.35c-6.45 17.82-3.34 32.91 2.47 40.75 34.6-26.53 36.01-55.6 32.01-68.74-10.9 2.29-26.69 6.51-34.47 27.99Z"/><path class="e" d="M86.17 209.23a3.13 3.13 0 0 1-2.52-1.27c-3.44-4.64-5.72-11.1-6.43-18.19-.81-8.07.42-16.88 3.54-25.49 3.65-10.07 9.48-17.73 17.32-22.75 6.4-4.1 13.13-5.9 19.45-7.23 1.59-.33 3.16.6 3.64 2.15 1.29 4.24 3.73 15.79-1.56 31.27-5.12 15-15.74 28.74-31.54 40.86-.55.42-1.22.65-1.9.65Zm29.71-68.15c-11.11 2.65-22.85 7.7-29.24 25.33-5.52 15.25-3.54 27.78.32 35.08 13.32-10.81 22.3-22.84 26.73-35.79 3.8-11.11 3.17-19.77 2.19-24.62ZM83.7 165.35Z"/><path class="b" d="m206.41 101.25.23.06c11.72-.28 14.63 10.77 12.69 20.73-2.56 13.16-12.39 17.95-18.02 16.12-5.17 20.82-15.96 28.16-26.44 32.07 1.17 8.93.53 17.75 11.34 26.83 5.51 4.64 20.59 7.52 29.95 10.79 14.81 5.18 27.43 12.87 32.43 25.35 4.49 11.21 4.55 17.55 3.89 26.61-.31 4.28-2.51 8.22-6.03 10.65-20.16 13.96-75.83 17.83-96.43 17.83s-76.28-3.88-96.43-17.83c-3.52-2.44-5.72-6.37-6.03-10.65-.67-9.05-.61-15.39 3.88-26.61 5-12.48 17.62-20.18 32.42-25.35 9.35-3.27 24.44-6.16 29.95-10.79 10.81-9.09 10.17-17.91 11.34-26.84-10.48-3.91-21.07-11.26-26.42-32.08h-.02c-5.63 1.85-15.46-2.94-18.02-16.11-1.94-9.96.97-21.01 12.69-20.73l.23-.06c-20.03-86.22 56.38-83.6 56.38-83.6s76.42-2.61 56.41 83.62Z"/><path class="e" d="M125.12 173.36c-.36 0-.73-.06-1.09-.2-6.8-2.54-11.99-5.87-16.32-10.49-5.46-5.82-9.38-13.52-11.98-23.54l-.06-.21c-.26-1.02-.46-1.86-.63-2.64-.37-1.69.69-3.36 2.37-3.73 1.69-.37 3.36.69 3.73 2.37.15.68.32 1.41.54 2.28.02.06.04.12.05.18 5.2 20.26 15.29 26.5 24.48 29.93 1.62.6 2.44 2.41 1.84 4.02a3.12 3.12 0 0 1-2.93 2.03Z"/><path class="e" d="M96.17 141.66c-2.52 0-5.21-.77-7.74-2.25-3.19-1.87-8.84-6.54-10.83-16.78-1.52-7.83-.23-14.89 3.56-19.38 2.91-3.44 7.15-5.2 12.28-5.07 1.73.04 3.09 1.48 3.05 3.2s-1.48 3.09-3.2 3.05c-3.26-.08-5.66.85-7.34 2.85-2.48 2.94-3.33 8.36-2.2 14.15.65 3.36 2.54 9.46 7.86 12.58 2.14 1.25 4.48 1.7 6.12 1.16 1.64-.54 3.41.36 3.94 2 .54 1.64-.36 3.41-2 3.95-1.1.36-2.28.54-3.49.54ZM174.87 173.36c-1.27 0-2.46-.78-2.93-2.03-.6-1.62.22-3.42 1.84-4.02 5.91-2.21 10.37-5.04 14.03-8.92 4.8-5.08 8.22-11.94 10.47-20.98.22-.88.41-1.68.57-2.47a3.121 3.121 0 0 1 3.71-2.4c1.69.36 2.76 2.02 2.4 3.71-.18.85-.39 1.73-.62 2.67-2.51 10.11-6.43 17.88-11.99 23.76-4.34 4.6-9.55 7.93-16.39 10.48-.36.13-.73.2-1.09.2Z"/><path class="e" d="M203.82 141.66c-1.18 0-2.32-.17-3.4-.51a3.129 3.129 0 0 1 .87-6.13c.33 0 .66.05.97.15 1.65.54 4 .09 6.13-1.17 2.28-1.34 6.33-4.76 7.85-12.57 1.13-5.79.28-11.21-2.2-14.15-1.69-2-4.09-2.93-7.34-2.85a3.127 3.127 0 0 1-.15-6.25c5.12-.12 9.37 1.63 12.28 5.07 3.79 4.48 5.09 11.55 3.56 19.38-1.99 10.22-7.63 14.89-10.82 16.77-2.53 1.49-5.23 2.26-7.76 2.26Z"/><path class="e" d="M204.77 110.89c-.27 0-.55-.04-.83-.11a3.13 3.13 0 0 1-2.19-3.84c.61-2.22 1.15-4.36 1.61-6.37 6.18-26.61 3.59-47.07-7.69-60.81-8.39-10.22-20.25-14.84-28.71-16.91-9.35-2.29-16.78-2.08-16.86-2.08h-.21c-.07 0-7.5-.21-16.85 2.08-8.46 2.07-20.32 6.69-28.71 16.91-11.28 13.74-13.87 34.19-7.7 60.79.46 2.02 1 4.17 1.61 6.38.46 1.67-.52 3.39-2.19 3.84-1.67.46-3.39-.52-3.84-2.19-.63-2.31-1.2-4.54-1.67-6.64-6.64-28.6-3.61-50.88 8.99-66.2 7.55-9.17 18.69-15.75 32.23-19.03 9.63-2.33 17.21-2.23 18.24-2.21 1.02-.03 8.61-.12 18.24 2.21 13.54 3.28 24.68 9.86 32.23 19.03 12.61 15.32 15.63 37.6 8.99 66.22-.47 2.09-1.04 4.32-1.67 6.63a3.124 3.124 0 0 1-3.01 2.3ZM150 291.43c-10.52 0-29.62-.97-48.83-3.71-23.56-3.36-40.18-8.3-49.38-14.68-4.3-2.98-6.99-7.71-7.37-13-.67-9.07-.74-15.91 4.09-28 4.75-11.85 15.96-20.73 34.29-27.14 3-1.05 6.45-2.03 10.11-3.06 7.3-2.07 15.58-4.41 18.85-7.17 8.37-7.04 9.05-13.57 9.83-21.13.13-1.21.25-2.47.42-3.73a3.133 3.133 0 0 1 6.21.81c-.15 1.17-.28 2.39-.4 3.56-.8 7.78-1.71 16.6-12.02 25.27-4.31 3.62-12.88 6.05-21.18 8.4-3.56 1.01-6.93 1.96-9.75 2.95-16.52 5.78-26.52 13.49-30.55 23.56-4.35 10.86-4.29 16.77-3.66 25.21.25 3.39 1.96 6.42 4.69 8.31 8.28 5.73 24.43 10.45 46.7 13.63 18.88 2.7 37.63 3.65 47.94 3.65 22.74 0 75.8-4.22 94.65-17.28 2.74-1.89 4.45-4.92 4.69-8.31.62-8.45.68-14.36-3.67-25.21-4.03-10.08-14.03-17.79-30.56-23.56-2.82-.99-6.18-1.94-9.74-2.95-8.3-2.35-16.88-4.78-21.19-8.41-10.31-8.66-11.23-17.49-12.03-25.27-.12-1.17-.25-2.38-.4-3.55-.22-1.71.98-3.28 2.7-3.51 1.71-.22 3.28.98 3.51 2.7.16 1.25.29 2.51.42 3.72.78 7.56 1.46 14.09 9.83 21.13 3.29 2.76 11.57 5.11 18.87 7.18 3.65 1.03 7.1 2.01 10.1 3.06 18.33 6.41 29.55 15.29 34.3 27.14 4.83 12.07 4.76 18.92 4.1 27.99-.39 5.28-3.07 10.02-7.37 13-9.21 6.37-25.82 11.31-49.39 14.68-19.21 2.74-38.31 3.71-48.83 3.71ZM150 129.68c-.77 0-1.39-.62-1.39-1.39v-1.76c0-.77.62-1.39 1.39-1.39s1.39.62 1.39 1.39v1.76c0 .77-.62 1.39-1.39 1.39ZM150 149.32c-9.51 0-13.01-3.72-14.27-6.83l-.03-.06a2.43 2.43 0 0 1 1.31-3.18 2.43 2.43 0 0 1 3.18 1.31l.05.11c1.33 3.3 6.69 3.79 9.76 3.79s8.43-.49 9.76-3.79l.05-.11a2.43 2.43 0 0 1 3.18-1.31 2.43 2.43 0 0 1 1.31 3.18l-.03.06c-1.26 3.12-4.76 6.83-14.27 6.83Z"/><ellipse class="e" cx="128.29" cy="107.17" rx="5.02" ry="5.61"/><path class="e" d="M121.46 95.65c-.65 0-1.29-.26-1.77-.76-.92-.98-.88-2.52.1-3.44 3.61-3.41 10.03-4.38 15.28-2.29 1.25.5 1.86 1.91 1.36 3.16a2.429 2.429 0 0 1-3.16 1.36c-3.87-1.53-8.2-.54-10.15 1.3-.47.44-1.07.67-1.67.67ZM125.13 173.35c-.36 0-.73-.06-1.09-.2-7.11-2.66-12.48-6.2-16.92-11.14-5.65-6.3-9.6-14.72-12.07-25.74a3.132 3.132 0 0 1 6.11-1.37c4.97 22.14 15.47 28.8 25.08 32.4 1.62.6 2.44 2.41 1.83 4.02a3.12 3.12 0 0 1-2.93 2.03ZM174.87 173.35c-1.27 0-2.46-.78-2.93-2.03-.6-1.62.22-3.42 1.83-4.02 17.36-6.49 22.42-20 25.07-32.37a3.126 3.126 0 0 1 3.71-2.4c1.69.36 2.76 2.03 2.4 3.71-2.37 11.02-6.29 19.45-12 25.78-4.44 4.92-9.84 8.46-17 11.14-.36.13-.73.2-1.09.2Z"/><path class="b" d="M150 288.3c-23.11 0-90.28-4.87-102.06-23.36-.95-12.08-1.81-18.53 3.48-31.73 5-12.48 17.62-20.18 32.42-25.35 9.35-3.27 24.44-6.16 29.95-10.79L150 251.98l36.2-54.91c5.51 4.64 20.59 7.52 29.95 10.79 14.81 5.18 27.43 12.87 32.43 25.35 5.28 13.21 4.43 19.65 3.48 31.73C240.27 283.43 173.1 288.3 150 288.3Z"/><path d="m114.86 57.71-5.68-3.67c1.85 1.29 3.75 2.51 5.68 3.67Z" style="fill:#74c6be"/><path class="c" d="M204.77 107.76C230.21 14.89 150 17.63 150 17.63s-80.22-2.75-54.77 90.13l6.12-27.19s3.16-6.78 14.8-22.03l-1.29-.83c-1.93-1.16-3.82-2.39-5.68-3.67l5.68 3.67c36.14 21.82 83.79 22.87 83.79 22.87l6.12 27.19Z"/><path class="e" d="M204.77 110.89h-.07a3.126 3.126 0 0 1-2.98-2.44l-5.59-24.85c-4.66-.25-15.51-1.07-29.09-3.71-13.87-2.7-32.84-7.82-50.02-17.32-8.74 11.64-12.04 17.74-12.71 19.06l-6.04 26.82a3.126 3.126 0 0 1-2.98 2.44c-1.43.04-2.71-.92-3.09-2.3-8.59-31.34-6.33-55.6 6.71-72.09 7.5-9.49 18.74-16.31 32.5-19.7 9.79-2.41 17.54-2.32 18.58-2.29 1.04-.03 8.79-.12 18.58 2.29 13.76 3.39 25 10.21 32.5 19.7 13.04 16.5 15.29 40.75 6.71 72.09a3.127 3.127 0 0 1-3.02 2.3Zm-95.59-59.98c.61 0 1.24.18 1.78.56 10.17 7.05 28.34 16.64 57.15 22.26 17.35 3.39 30.48 3.72 30.61 3.72 1.44.03 2.67 1.04 2.98 2.44l3.1 13.77c4.15-22.85 1.27-40.72-8.6-53.24-8.34-10.57-20.33-15.35-28.93-17.5-9.5-2.37-17.09-2.16-17.17-2.16h-.21c-.07 0-7.67-.22-17.16 2.16-8.6 2.15-20.59 6.92-28.93 17.5-9.87 12.52-12.75 30.39-8.6 53.24l3.1-13.77c.05-.22.12-.43.22-.63.13-.27 3.05-6.44 13.09-19.88-1.42-.89-2.82-1.81-4.2-2.77a3.128 3.128 0 0 1 1.78-5.7Z"/><path class="e" d="M196.3 69.61c-.53 0-1.05-.2-1.46-.59-13.66-13.35-38.77-27.16-58.41-32.11a2.078 2.078 0 0 1-1.51-2.53 2.083 2.083 0 0 1 2.53-1.51c20.27 5.11 46.19 19.37 60.31 33.17.82.81.84 2.13.03 2.95-.41.42-.95.63-1.49.63Z"/><path class="c" d="M116.8 210.75c.96.82 5.25 5.4 33.92 5.4s32.96-4.58 33.92-5.4v71.66h-67.83v-71.66Z"/><path class="e" d="M184.63 285.54H116.8c-1.73 0-3.13-1.4-3.13-3.13v-71.66c0-1.22.71-2.33 1.82-2.84 1.11-.51 2.41-.33 3.34.46l.13.12c4.78 4.21 25.51 4.53 31.75 4.53s26.97-.33 31.75-4.53l.14-.12c.93-.79 2.23-.97 3.34-.46 1.11.51 1.82 1.62 1.82 2.84v71.66c0 1.73-1.4 3.13-3.13 3.13Zm-64.7-6.26h61.58v-63.32c-6.21 2.23-16.38 3.31-30.79 3.31s-24.58-1.09-30.79-3.31v63.32Z"/><path class="b" d="M150 288.3c-23.11 0-90.28-4.87-102.06-23.36-.95-12.08-1.81-18.53 3.48-31.73 5-12.48 17.62-20.18 32.42-25.35 9.35-3.27 24.44-6.16 29.95-10.79L150 260.88l36.2-63.81c5.51 4.64 20.59 7.52 29.95 10.79 14.81 5.18 27.43 12.87 32.43 25.35 5.28 13.21 4.43 19.65 3.48 31.73C240.27 283.43 173.1 288.3 150 288.3Z"/><path class="e" d="M150 291.43c-10.52 0-29.62-.97-48.83-3.71-23.56-3.36-40.18-8.3-49.38-14.68-4.3-2.98-6.99-7.71-7.37-13-.67-9.07-.74-15.91 4.09-28 4.75-11.85 15.96-20.73 34.29-27.14 3-1.05 6.45-2.03 10.11-3.06 7.3-2.07 15.58-4.41 18.85-7.17 8.37-7.04 9.05-13.57 9.83-21.13.13-1.21.25-2.47.42-3.73a3.133 3.133 0 0 1 6.21.81c-.15 1.17-.28 2.39-.4 3.56-.8 7.78-1.71 16.6-12.02 25.27-4.31 3.62-12.88 6.05-21.18 8.4-3.56 1.01-6.93 1.96-9.75 2.95-16.52 5.78-26.52 13.49-30.55 23.56-4.35 10.86-4.29 16.77-3.66 25.21.25 3.39 1.96 6.42 4.69 8.31 8.28 5.73 24.43 10.45 46.7 13.63 18.88 2.7 37.63 3.65 47.94 3.65 22.74 0 75.8-4.22 94.65-17.28 2.74-1.89 4.45-4.92 4.69-8.31.62-8.45.68-14.36-3.67-25.21-4.03-10.08-14.03-17.79-30.56-23.56-2.82-.99-6.18-1.94-9.74-2.95-8.3-2.35-16.88-4.78-21.19-8.41-10.31-8.66-11.23-17.49-12.03-25.27-.12-1.17-.25-2.38-.4-3.55-.22-1.71.98-3.28 2.7-3.51 1.71-.22 3.28.98 3.51 2.7.16 1.25.29 2.51.42 3.72.78 7.56 1.46 14.09 9.83 21.13 3.29 2.76 11.57 5.11 18.87 7.18 3.65 1.03 7.1 2.01 10.1 3.06 18.33 6.41 29.55 15.29 34.3 27.14 4.83 12.07 4.76 18.92 4.1 27.99-.39 5.28-3.07 10.02-7.37 13-9.21 6.37-25.82 11.31-49.39 14.68-19.21 2.74-38.31 3.71-48.83 3.71ZM172.12 124.54a19.63 19.63 0 0 1-19.57-17.64l-.14-1.33h-4.82l-.14 1.33c-1.04 10.06-9.46 17.64-19.57 17.64s-18.52-7.58-19.57-17.64l-.33-3.2a2.08 2.08 0 0 1 1.86-2.29 2.08 2.08 0 0 1 2.29 1.86l.33 3.2c.82 7.93 7.45 13.9 15.42 13.9s14.6-5.98 15.42-13.9l.33-3.2a2.09 2.09 0 0 1 2.07-1.87h8.58c1.07 0 1.96.81 2.07 1.87l.33 3.2c.82 7.93 7.45 13.9 15.42 13.9s14.6-5.98 15.42-13.9l.33-3.2a2.08 2.08 0 0 1 2.29-1.86 2.08 2.08 0 0 1 1.86 2.29l-.33 3.2a19.622 19.622 0 0 1-19.57 17.64Z"/><ellipse class="e" cx="171.71" cy="107.17" rx="5.02" ry="5.61"/><path class="e" d="M178.54 95.65c-.6 0-1.2-.22-1.67-.67-1.95-1.85-6.28-2.84-10.15-1.3-1.25.5-2.66-.12-3.16-1.36-.5-1.25.12-2.66 1.36-3.16 5.25-2.08 11.68-1.12 15.28 2.29.98.92 1.02 2.46.1 3.44-.48.51-1.12.76-1.77.76ZM150 264c-1.13 0-2.16-.6-2.72-1.58l-36.21-63.81a3.12 3.12 0 0 1 1.18-4.26 3.12 3.12 0 0 1 4.26 1.18L150 254.54l33.48-59.02c.85-1.5 2.76-2.03 4.26-1.18 1.5.85 2.03 2.76 1.18 4.26l-36.2 63.81c-.56.98-1.59 1.58-2.72 1.58Z"/></svg>