<svg id="a" data-name="レイヤー 1" xmlns="http://www.w3.org/2000/svg" viewBox="0 0 300 300"><defs><style>.c{fill:#a9bf04}.d{fill:#1e1210}</style></defs><path class="c" d="M89.67 239.95h119.61l-2.02-137.98H91.69l-2.02 137.98z"/><path class="d" d="M209.28 243.17H89.66a3.224 3.224 0 0 1-3.22-3.27l2.03-137.98a3.22 3.22 0 0 1 3.22-3.17h115.56a3.22 3.22 0 0 1 3.22 3.17l2.03 137.98a3.224 3.224 0 0 1-3.22 3.27Zm-116.35-6.44h113.09l-1.93-131.54H94.87l-1.93 131.54Z"/><path d="m91.84 97.24-.24.06c-12.06-.29-15.06 11.08-13.06 21.33 2.64 13.55 12.75 18.48 18.55 16.59 5.32 21.42 16.42 28.98 27.21 33.01-1.2 9.19-.54 18.27-11.67 27.62-5.67 4.77-21.19 7.74-30.82 11.11-15.24 5.33-28.23 13.25-33.37 26.09-4.62 11.54-4.68 18.06-4 27.38.32 4.41 2.58 8.45 6.21 10.97 20.74 14.36 78.04 18.35 99.24 18.35s78.5-3.99 99.24-18.35c3.63-2.51 5.89-6.56 6.21-10.97.69-9.31.63-15.84-3.99-27.38-5.14-12.85-18.13-20.76-33.37-26.09-9.63-3.37-25.16-6.34-30.82-11.1-11.13-9.36-10.46-18.43-11.67-27.62 10.79-4.03 21.69-11.59 27.19-33.02h.02c5.79 1.9 15.91-3.03 18.55-16.58 2-10.25-1-21.62-13.06-21.33l-.24-.06c20.6-88.75-58.05-86.06-58.05-86.06S71.25 8.5 91.84 97.24Z" style="fill:#fff"/><path class="c" d="M149.15 291.57c23.78 0 92.91-5.01 105.04-24.04.97-12.43 1.86-19.07-3.58-32.66-5.14-12.85-18.13-20.76-33.37-26.09-9.63-3.37-25.16-6.34-30.82-11.1l-8.11 23.37h-58.3l-8.11-23.37c-5.67 4.77-21.19 7.74-30.82 11.11-15.24 5.33-28.23 13.25-33.37 26.09-5.44 13.59-4.56 20.23-3.58 32.66 12.13 19.03 81.26 24.04 105.04 24.04Z"/><path class="d" d="M175.5 173.28c-1.3 0-2.53-.8-3.02-2.09-.62-1.67.22-3.52 1.89-4.14 9.46-3.53 19.84-9.95 25.2-30.8.02-.06.03-.13.05-.19.22-.9.4-1.64.56-2.34.39-1.74 2.1-2.83 3.84-2.44 1.74.39 2.83 2.11 2.44 3.84-.18.81-.39 1.67-.65 2.72l-.06.22c-6.14 23.69-18.79 31.17-29.13 35.02-.37.14-.75.2-1.13.2Z"/><path class="d" d="M205.3 140.66c-1.25 0-2.46-.18-3.59-.55a3.22 3.22 0 0 1 2-6.12c1.69.55 4.1.09 6.3-1.2 2.35-1.38 6.52-4.89 8.09-12.94 1.16-5.95.29-11.53-2.26-14.56-1.74-2.06-4.21-3.02-7.56-2.94a3.225 3.225 0 0 1-3.3-3.14 3.225 3.225 0 0 1 3.14-3.3c5.27-.13 9.64 1.68 12.63 5.22 3.9 4.62 5.23 11.88 3.67 19.94-2.05 10.53-7.86 15.34-11.14 17.26-2.6 1.53-5.37 2.32-7.97 2.32ZM124.3 173.28c-.37 0-.75-.07-1.13-.2-7.04-2.63-12.4-6.06-16.87-10.79-5.72-6.06-9.75-14.06-12.34-24.46-.24-.96-.45-1.86-.64-2.74-.37-1.74.73-3.45 2.47-3.82 1.74-.37 3.45.73 3.82 2.47.17.81.37 1.64.59 2.53 2.31 9.31 5.84 16.37 10.77 21.6 3.77 3.99 8.35 6.9 14.44 9.18a3.217 3.217 0 0 1-1.13 6.23Z"/><path class="d" d="M94.51 140.66c-2.6 0-5.38-.79-7.99-2.33-3.28-1.93-9.08-6.74-11.13-17.25-1.57-8.06-.23-15.33 3.67-19.94 2.99-3.54 7.36-5.34 12.63-5.22 1.78.04 3.18 1.52 3.14 3.3-.04 1.78-1.52 3.17-3.3 3.14-3.35-.08-5.82.88-7.56 2.94-2.56 3.03-3.42 8.61-2.26 14.56.67 3.45 2.62 9.72 8.08 12.94 2.2 1.29 4.62 1.76 6.31 1.21a3.218 3.218 0 0 1 4.22 3.06c0 1.49-1.01 2.74-2.37 3.11-1.09.34-2.24.5-3.44.5Z"/><path class="d" d="M206.27 108.99c-.28 0-.57-.04-.86-.12a3.223 3.223 0 0 1-2.25-3.96c.63-2.28 1.18-4.49 1.65-6.55 6.36-27.39 3.69-48.44-7.92-62.58-8.64-10.52-20.83-15.27-29.54-17.4-9.62-2.36-17.27-2.14-17.34-2.14h-.22c-.07 0-7.72-.22-17.34 2.14-8.71 2.13-20.91 6.88-29.55 17.41-11.61 14.14-14.27 35.19-7.92 62.56.47 2.08 1.03 4.29 1.66 6.57.47 1.71-.54 3.49-2.25 3.96s-3.49-.54-3.96-2.25c-.65-2.37-1.23-4.67-1.72-6.84-6.83-29.44-3.72-52.36 9.26-68.13 7.77-9.44 19.24-16.21 33.17-19.58 9.91-2.4 17.72-2.3 18.77-2.27 1.05-.03 8.86-.13 18.77 2.27 13.93 3.37 25.4 10.14 33.17 19.58 12.97 15.77 16.09 38.7 9.25 68.15-.49 2.14-1.07 4.44-1.72 6.82a3.22 3.22 0 0 1-3.1 2.37ZM149.9 294.79c-10.83 0-30.48-1-50.25-3.82-24.25-3.46-41.35-8.54-50.82-15.1-4.42-3.06-7.19-7.94-7.59-13.38-.68-9.34-.75-16.39 4.22-28.81 4.88-12.2 16.43-21.34 35.3-27.93 3.08-1.08 6.63-2.08 10.39-3.15 7.52-2.13 16.04-4.54 19.42-7.38 8.62-7.24 9.32-13.96 10.12-21.75.13-1.25.26-2.53.43-3.83.23-1.76 1.85-3 3.61-2.77 1.76.23 3 1.85 2.77 3.61-.16 1.21-.29 2.45-.41 3.65-.83 8.01-1.77 17.09-12.38 26.01-4.44 3.73-13.27 6.23-21.81 8.65-3.66 1.04-7.12 2.02-10.02 3.03-17.01 5.95-27.3 13.88-31.45 24.25-4.47 11.17-4.41 17.25-3.78 25.95.25 3.49 2.02 6.6 4.83 8.55 8.52 5.9 25.15 10.75 48.07 14.02 19.43 2.77 38.73 3.76 49.34 3.76 23.4 0 78.01-4.35 97.4-17.78 2.82-1.95 4.58-5.07 4.83-8.55.64-8.69.71-14.77-3.77-25.95-4.15-10.37-14.44-18.3-31.44-24.25-2.9-1.02-6.37-2-10.04-3.03-8.54-2.42-17.36-4.91-21.79-8.64-10.61-8.92-11.55-18-12.37-26.01-.12-1.21-.25-2.45-.41-3.66a3.22 3.22 0 0 1 2.77-3.61 3.22 3.22 0 0 1 3.61 2.77c.17 1.29.3 2.59.43 3.84.8 7.78 1.5 14.5 10.11 21.74 3.37 2.84 11.89 5.25 19.4 7.37 3.77 1.07 7.32 2.07 10.41 3.15 18.86 6.6 30.41 15.74 35.29 27.93 4.98 12.43 4.9 19.48 4.21 28.81-.4 5.44-3.16 10.31-7.59 13.37-9.47 6.56-26.57 11.64-50.82 15.1-19.77 2.82-39.42 3.82-50.25 3.82ZM149.9 128.33c-.79 0-1.43-.64-1.43-1.43v-1.81a1.43 1.43 0 1 1 2.86 0v1.81c0 .79-.64 1.43-1.43 1.43Z"/><path class="d" d="M175.49 171.5c-1.3 0-2.53-.77-3.02-2-.62-1.59.22-3.37 1.89-3.97 17.63-6.31 22.94-19.68 25.81-31.93.39-1.66 2.11-2.71 3.85-2.33 1.73.37 2.83 2.02 2.44 3.68-5.82 24.84-19 32.48-29.84 36.36-.37.13-.75.2-1.13.2ZM124.3 173.28c-.37 0-.76-.07-1.13-.2-7.36-2.75-12.92-6.39-17.49-11.46-5.88-6.51-9.92-15.19-12.35-26.53-.37-1.74.73-3.45 2.47-3.82 1.74-.37 3.45.73 3.82 2.47 4.87 22.67 15.78 29.56 25.81 33.31a3.217 3.217 0 0 1-1.13 6.23Z"/><path class="c" d="M124.3 50.43c-1.91 32.23-30.77 55.34-30.77 55.34-26.19-95.58 56.36-92.75 56.36-92.75s82.55-2.83 56.37 92.75l-2.95-10.45-54.49-14.48s-12.68-13.26-24.52-30.41Z"/><path class="d" d="M93.53 108.99h-.13c-1.4-.06-2.6-1.01-2.97-2.37-8.84-32.25-6.51-57.22 6.9-74.19 7.72-9.77 19.29-16.78 33.45-20.27 10.07-2.48 18.05-2.38 19.12-2.36 1.07-.03 9.05-.13 19.12 2.36 14.16 3.49 25.73 10.5 33.45 20.27 13.42 16.98 15.74 41.94 6.9 74.19a3.231 3.231 0 0 1-3.09 2.37h-.01c-1.44 0-2.71-.96-3.1-2.34l-2.95-10.45a3.217 3.217 0 0 1 5.67-2.8c4.85-24.57 2.01-43.7-8.48-56.97-16.59-20.99-47.1-20.2-47.41-20.19h-.22c-.07 0-7.89-.22-17.67 2.22-8.85 2.21-21.19 7.12-29.77 18-10.65 13.5-13.39 33.05-8.19 58.21a3.213 3.213 0 0 1 4.05-1.72c1.67.61 2.53 2.46 1.92 4.13l-3.58 9.8a3.227 3.227 0 0 1-3.02 2.12ZM149.9 294.79c-10.83 0-30.48-1-50.25-3.82-24.25-3.46-41.35-8.54-50.82-15.1-4.42-3.06-7.19-7.94-7.59-13.38-.68-9.34-.75-16.39 4.22-28.81 4.88-12.2 16.43-21.34 35.3-27.93 3.08-1.08 6.63-2.08 10.39-3.15 7.52-2.13 16.04-4.54 19.42-7.38 8.62-7.24 9.32-13.96 10.12-21.75.13-1.25.26-2.53.43-3.83.23-1.76 1.85-3 3.61-2.77 1.76.23 3 1.85 2.77 3.61-.16 1.21-.29 2.45-.41 3.65-.83 8.01-1.77 17.09-12.38 26.01-4.44 3.73-13.27 6.23-21.81 8.65-3.66 1.04-7.12 2.02-10.02 3.03-17.01 5.95-27.3 13.88-31.45 24.25-4.47 11.17-4.41 17.25-3.78 25.95.25 3.49 2.02 6.6 4.83 8.55 8.52 5.9 25.15 10.75 48.07 14.02 19.43 2.77 38.73 3.76 49.34 3.76 23.4 0 78.01-4.35 97.4-17.78 2.82-1.95 4.58-5.07 4.83-8.55.64-8.69.71-14.77-3.77-25.95-4.15-10.37-14.44-18.3-31.44-24.25-2.9-1.02-6.37-2-10.04-3.03-8.54-2.42-17.36-4.91-21.79-8.64-10.61-8.92-11.55-18-12.37-26.01-.12-1.21-.25-2.45-.41-3.66a3.22 3.22 0 0 1 2.77-3.61 3.22 3.22 0 0 1 3.61 2.77c.17 1.29.3 2.59.43 3.84.8 7.78 1.5 14.5 10.11 21.74 3.37 2.84 11.89 5.25 19.4 7.37 3.77 1.07 7.32 2.07 10.41 3.15 18.86 6.6 30.41 15.74 35.29 27.93 4.98 12.43 4.9 19.48 4.21 28.81-.4 5.44-3.16 10.31-7.59 13.37-9.47 6.56-26.57 11.64-50.82 15.1-19.77 2.82-39.42 3.82-50.25 3.82Z"/><path class="d" d="M179.27 93.31c-.62 0-1.24-.23-1.72-.69-2.01-1.9-6.46-2.92-10.44-1.34-1.28.51-2.74-.12-3.25-1.4-.51-1.29.12-2.74 1.4-3.25 5.4-2.14 12.02-1.15 15.73 2.36 1 .95 1.05 2.53.1 3.54-.49.52-1.15.78-1.82.78ZM120.52 93.31a2.5 2.5 0 0 1-1.72-4.32c3.71-3.51 10.33-4.5 15.73-2.36a2.5 2.5 0 0 1 1.4 3.25 2.5 2.5 0 0 1-3.25 1.4c-3.98-1.58-8.43-.56-10.44 1.34-.48.46-1.1.69-1.72.69ZM105.73 94.59a3.222 3.222 0 0 1-2.36-5.41c4.36-4.69 13.96-20.41 15.82-39.06a3.212 3.212 0 0 1 3.52-2.88c1.77.18 3.06 1.75 2.88 3.52-1.95 19.56-11.77 36.63-17.51 42.81-.63.68-1.5 1.03-2.36 1.03Z"/><path class="d" d="M148.82 84.06c-.73 0-1.47-.25-2.08-.76-7.65-6.47-23.83-27.08-29.02-36.16a3.214 3.214 0 0 1 1.2-4.39c1.54-.88 3.51-.35 4.39 1.2 4.85 8.49 20.49 28.44 27.58 34.44a3.22 3.22 0 0 1-2.08 5.68ZM187.15 92.62a3.23 3.23 0 0 1-3.2-2.87c-2.04-18.62-10.14-42.05-23.62-52.41a3.216 3.216 0 0 1 3.92-5.1c10.01 7.69 22.85 27.18 26.1 56.81a3.216 3.216 0 0 1-2.85 3.55c-.12.01-.24.02-.35.02ZM149.9 153.81c-13.1 0-18.45-12.58-18.67-13.12a2.52 2.52 0 0 1 .23-2.35 2.5 2.5 0 0 1 2.08-1.11h32.7a2.5 2.5 0 0 1 2.31 3.46c-.22.54-5.57 13.12-18.67 13.12Zm-12-11.57c2.13 2.9 6.01 6.56 12 6.56s9.84-3.67 11.98-6.56H137.9ZM179.16 110.82c-.77 0-1.53-.36-2.02-1.03-1.48-2.03-3.71-2.41-4.91-2.45-1.95-.07-3.89.6-4.82 1.69a2.503 2.503 0 1 1-3.8-3.26c1.94-2.26 5.31-3.57 8.82-3.44 3.58.14 6.77 1.78 8.76 4.5.82 1.12.57 2.68-.54 3.5-.45.33-.96.48-1.47.48ZM120.64 110.82a2.498 2.498 0 0 1-2.01-3.98c1.99-2.72 5.18-4.36 8.76-4.5 3.5-.13 6.88 1.18 8.82 3.44a2.503 2.503 0 1 1-3.8 3.26c-.93-1.09-2.87-1.77-4.82-1.69-1.2.05-3.43.43-4.91 2.45-.49.67-1.25 1.03-2.02 1.03ZM178.31 224.26h-58.3a3.24 3.24 0 0 1-3.03-2.12l-8.11-22.36c-.61-1.67.26-3.52 1.93-4.12 1.67-.61 3.52.26 4.12 1.93l7.34 20.24h53.76l7.36-21.2a3.226 3.226 0 0 1 4.1-1.99c1.68.58 2.57 2.42 1.99 4.1l-8.11 23.37a3.21 3.21 0 0 1-3.04 2.16ZM105.29 253.34c-.25 0-.51-.04-.76-.14a2.138 2.138 0 0 1-1.25-2.76l7-18.6a2.138 2.138 0 0 1 2.76-1.25c1.11.42 1.67 1.65 1.25 2.76l-7 18.6c-.32.86-1.14 1.39-2.01 1.39ZM193.05 249.7c-.83 0-1.62-.48-1.97-1.29l-7.3-16.74c-.47-1.09.02-2.35 1.11-2.82 1.09-.47 2.35.02 2.82 1.11l7.3 16.74c.47 1.09-.02 2.35-1.11 2.82-.28.12-.57.18-.86.18ZM171.11 249.7c-1.01 0-1.91-.72-2.11-1.75l-2.24-11.82a2.147 2.147 0 1 1 4.22-.8l2.24 11.82c.22 1.16-.54 2.29-1.71 2.51-.14.03-.27.04-.4.04ZM132.64 249.7c-.13 0-.27-.01-.4-.04a2.15 2.15 0 0 1-1.71-2.51l2.24-11.82a2.15 2.15 0 0 1 2.51-1.71 2.15 2.15 0 0 1 1.71 2.51l-2.24 11.82c-.2 1.03-1.1 1.75-2.11 1.75Z"/></svg>