<svg id="a" data-name="レイヤー 1" xmlns="http://www.w3.org/2000/svg" viewBox="0 0 300 300"><defs><clipPath id="b"><path d="m93.37 102.63-.23.06c-11.76-.29-14.69 10.81-12.74 20.81 2.57 13.21 12.43 18.02 18.09 16.18 5.19 20.9 16.02 28.27 26.54 32.2-1.17 8.97-.53 17.82-11.39 26.94-5.53 4.65-20.67 7.55-30.06 10.84-14.87 5.2-27.54 12.92-32.56 25.45-4.51 11.25-4.56 17.62-3.9 26.71.31 4.3 2.52 8.25 6.06 10.7 20.23 14.01 76.12 17.9 96.81 17.9s76.57-3.89 96.8-17.9c3.54-2.45 5.74-6.4 6.06-10.7.67-9.08.61-15.45-3.89-26.71-5.02-12.53-17.69-20.25-32.55-25.45-9.39-3.29-24.54-6.18-30.06-10.83-10.86-9.13-10.21-17.98-11.38-26.95 10.52-3.93 21.15-11.3 26.52-32.21h.02c5.65 1.86 15.52-2.95 18.09-16.17 1.95-10-.98-21.09-12.74-20.81l-.23-.06C226.72 16.06 150 26.37 150 26.37s-76.72-10.3-56.63 76.26Z" style="fill:none"/></clipPath><style>.g{fill:#a9bf04}.h{fill:#1e1210}</style></defs><path class="g" d="M150 180.53s55.48.34 74.22-18.24l-6.37-47.91C243.56 13.66 150 18.68 150 18.68s-93.56-5.02-67.84 95.71l-6.37 47.91c18.74 18.58 74.22 18.24 74.22 18.24Z"/><path class="h" d="M150.37 183.68H150c-2.58.01-57.04.07-76.43-19.15-.7-.69-1.03-1.67-.9-2.64l6.29-47.31c-8.12-32.26-5.05-57.37 9.12-74.64 8.95-10.91 22.54-18.58 39.3-22.19 11.8-2.54 21.21-2.26 22.61-2.2 1.41-.06 10.81-.34 22.61 2.2 16.76 3.61 30.35 11.29 39.3 22.19 14.18 17.28 17.25 42.39 9.12 74.64l6.29 47.31c.13.97-.2 1.95-.9 2.64-18.81 18.65-70.61 19.15-76.06 19.15Zm-.37-6.28h.15c1.47 0 14.6-.06 29.57-2.13 19.48-2.7 33.65-7.58 41.16-14.16l-6.16-46.3c-.05-.4-.03-.8.07-1.19 7.78-30.48 5.19-53.92-7.72-69.67-10.12-12.35-24.95-17.71-35.61-20.03-11.76-2.56-21.21-2.1-21.3-2.1h-.33c-.09 0-9.54-.46-21.3 2.1-10.66 2.32-25.49 7.68-35.61 20.03-12.9 15.75-15.5 39.19-7.72 69.67.1.39.12.79.07 1.19l-6.16 46.3c7.51 6.58 21.68 11.46 41.16 14.16 15.81 2.19 29.57 2.14 29.71 2.13h.02Z"/><g style="fill:none;clip-path:url(#b)"><path d="m93.37 102.63-.23.06c-11.76-.29-14.69 10.81-12.74 20.81 2.57 13.21 12.43 18.02 18.09 16.18 5.19 20.9 16.02 28.27 26.54 32.2-1.17 8.97-.53 17.82-11.39 26.94-5.53 4.65-20.67 7.55-30.06 10.84-14.87 5.2-27.54 12.92-32.56 25.45-4.51 11.25-4.56 17.62-3.9 26.71.31 4.3 2.52 8.25 6.06 10.7 20.23 14.01 76.12 17.9 96.81 17.9s76.57-3.89 96.8-17.9c3.54-2.45 5.74-6.4 6.06-10.7.67-9.08.61-15.45-3.89-26.71-5.02-12.53-17.69-20.25-32.55-25.45-9.39-3.29-24.54-6.18-30.06-10.83-10.86-9.13-10.21-17.98-11.38-26.95 10.52-3.93 21.15-11.3 26.52-32.21h.02c5.65 1.86 15.52-2.95 18.09-16.17 1.95-10-.98-21.09-12.74-20.81l-.23-.06C221.96 16.59 150 18.69 150 18.69s-71.47-3.01-56.63 83.94Z" style="fill:#fff"/></g><path d="M185.27 58.91a106.6 106.6 0 0 0 5.7-3.69l-5.7 3.69Z" style="fill:#74c6be"/><path class="g" d="m198.4 81.87 6.12 27.29c25.44-93.24-54.76-84.78-54.76-84.78S69.56 15.92 95 109.16l6.12-27.29s47.65-1.05 83.77-22.96l5.68-3.69c-1.85 1.29-3.75 2.52-5.68 3.69l-1.29.84c11.64 15.31 14.8 22.12 14.8 22.12Z"/><path class="h" d="M174.97 175.01c-1.27 0-2.47-.78-2.94-2.04-.61-1.62.22-3.43 1.84-4.04 9.22-3.44 19.36-9.71 24.58-30.05.02-.06.03-.12.05-.18.22-.88.39-1.61.54-2.28a3.139 3.139 0 0 1 3.75-2.38c1.69.38 2.76 2.05 2.38 3.75-.17.79-.38 1.63-.63 2.65-.02.07-.04.14-.06.22-5.99 23.11-18.33 30.4-28.41 34.17-.36.14-.73.2-1.1.2Z"/><path class="h" d="M204.04 143.19c-1.22 0-2.4-.18-3.5-.54a3.138 3.138 0 0 1-2.01-3.96 3.138 3.138 0 0 1 3.96-2.01c1.65.54 4 .09 6.15-1.17 2.29-1.35 6.36-4.77 7.89-12.63 1.13-5.81.28-11.25-2.21-14.2-1.7-2.01-4.11-2.94-7.37-2.86a3.147 3.147 0 0 1-3.22-3.06 3.153 3.153 0 0 1 3.06-3.22c5.14-.13 9.4 1.63 12.32 5.09 3.8 4.5 5.11 11.59 3.58 19.45-2 10.27-7.67 14.96-10.87 16.84-2.54 1.49-5.24 2.26-7.77 2.26ZM125.04 175.01c-.36 0-.74-.06-1.1-.2-6.87-2.56-12.1-5.91-16.45-10.52-5.58-5.91-9.51-13.71-12.04-23.86-.24-.94-.44-1.82-.62-2.67-.36-1.7.72-3.36 2.41-3.73 1.69-.36 3.36.72 3.73 2.41.17.79.36 1.6.58 2.47 2.26 9.08 5.69 15.97 10.51 21.07 3.67 3.89 8.15 6.73 14.08 8.95a3.139 3.139 0 0 1-1.1 6.08Z"/><path class="h" d="M95.97 143.19c-2.54 0-5.25-.77-7.79-2.27-3.2-1.88-8.86-6.57-10.86-16.83-1.53-7.86-.23-14.95 3.58-19.46 2.92-3.45 7.18-5.21 12.32-5.09a3.14 3.14 0 0 1 3.06 3.22c-.04 1.73-1.49 3.09-3.22 3.06-3.26-.08-5.68.86-7.37 2.86-2.49 2.95-3.34 8.39-2.21 14.2.66 3.37 2.55 9.48 7.88 12.62 2.15 1.26 4.51 1.71 6.16 1.18a3.145 3.145 0 0 1 4.11 2.99c0 1.45-.98 2.67-2.32 3.03-1.06.33-2.19.49-3.35.49ZM204.99 112.3c-.28 0-.56-.04-.83-.11a3.14 3.14 0 0 1-2.19-3.86c.61-2.23 1.15-4.38 1.61-6.39a3.147 3.147 0 0 1 3.76-2.37c1.69.38 2.75 2.07 2.37 3.76-.48 2.11-1.04 4.35-1.68 6.67a3.148 3.148 0 0 1-3.03 2.31Z"/><path class="h" d="M95.02 112.3c-1.38 0-2.64-.91-3.03-2.31-.64-2.32-1.2-4.56-1.68-6.67-.38-1.69.68-3.37 2.37-3.76 1.69-.38 3.37.68 3.76 2.37.46 2.02 1 4.17 1.61 6.39a3.14 3.14 0 0 1-2.19 3.86c-.28.08-.56.11-.83.11ZM150 293.54c-10.56 0-29.73-.98-49.02-3.73-23.66-3.38-40.34-8.33-49.58-14.73-4.32-2.99-7.01-7.74-7.4-13.05-.66-9.11-.74-15.99 4.12-28.1 4.76-11.9 16.03-20.81 34.43-27.25 3.01-1.05 6.47-2.03 10.14-3.07 7.33-2.08 15.64-4.43 18.94-7.2 8.41-7.06 9.09-13.62 9.87-21.21.13-1.22.26-2.47.42-3.73a3.142 3.142 0 0 1 6.23.81c-.15 1.18-.28 2.39-.4 3.56-.81 7.82-1.72 16.67-12.08 25.37-4.33 3.64-12.94 6.08-21.27 8.44-3.57 1.01-6.95 1.97-9.78 2.96-16.59 5.8-26.63 13.54-30.68 23.66-4.36 10.89-4.3 16.83-3.68 25.31.25 3.4 1.97 6.44 4.71 8.34 8.31 5.76 24.53 10.49 46.89 13.68 18.96 2.71 37.78 3.67 48.13 3.67 22.83 0 76.09-4.24 95.01-17.34 2.75-1.9 4.46-4.94 4.71-8.34.63-8.48.69-14.41-3.68-25.31-4.05-10.12-14.08-17.85-30.67-23.66-2.83-.99-6.21-1.95-9.79-2.96-8.33-2.36-16.94-4.79-21.26-8.43-10.35-8.7-11.26-17.56-12.07-25.37-.12-1.18-.25-2.39-.4-3.57a3.142 3.142 0 0 1 6.23-.81c.17 1.26.3 2.52.42 3.74.78 7.59 1.46 14.14 9.87 21.21 3.29 2.77 11.6 5.12 18.93 7.19 3.67 1.04 7.14 2.02 10.15 3.07 18.4 6.44 29.66 15.35 34.43 27.25 4.86 12.13 4.78 19 4.11 28.11-.39 5.3-3.08 10.06-7.4 13.05-9.24 6.4-25.92 11.36-49.57 14.73-19.28 2.75-38.46 3.73-49.02 3.73ZM150 131.17c-.77 0-1.4-.62-1.4-1.4v-1.76c0-.77.62-1.4 1.4-1.4s1.4.62 1.4 1.4v1.76c0 .77-.62 1.4-1.4 1.4ZM178.66 97c-.6 0-1.21-.22-1.68-.67-1.96-1.85-6.3-2.85-10.19-1.31-1.25.5-2.67-.12-3.17-1.37s.12-2.67 1.37-3.17c5.27-2.09 11.72-1.12 15.34 2.3.98.93 1.02 2.47.1 3.45-.48.51-1.13.76-1.77.76Z"/><path class="h" d="M174.96 175.01c-1.27 0-2.47-.78-2.94-2.04-.61-1.62.22-3.43 1.84-4.04 17.2-6.43 22.38-20.05 25.18-32.52a3.144 3.144 0 0 1 3.75-2.38c1.69.38 2.76 2.06 2.38 3.75-5.68 25.3-18.54 33.08-29.11 37.03-.36.14-.73.2-1.1.2ZM125.03 175.01c-.37 0-.74-.06-1.1-.2-7.18-2.68-12.6-6.24-17.06-11.18-5.73-6.35-9.67-14.82-12.05-25.88a3.14 3.14 0 0 1 2.41-3.73c1.69-.36 3.36.71 3.73 2.41 4.75 22.12 15.39 28.84 25.17 32.49 1.62.61 2.45 2.42 1.84 4.04a3.141 3.141 0 0 1-2.94 2.04ZM95.01 112.3c-1.41 0-2.65-.94-3.03-2.31-.95-3.47-1.78-6.89-2.46-10.18-.35-1.7.74-3.36 2.44-3.71.97-.2 1.92.07 2.63.65l3.5-15.56a3.136 3.136 0 0 1 2.99-2.45c.13 0 13.31-.33 30.72-3.73 15.97-3.12 38.88-9.52 57.37-22.35 1.42-.99 3.38-.63 4.37.79.99 1.42.63 3.38-.79 4.37-19.42 13.47-43.28 20.15-59.87 23.38-13.63 2.65-24.52 3.48-29.2 3.72l-5.61 24.94a3.136 3.136 0 0 1-2.99 2.45h-.07Z"/><path class="h" d="M204.98 112.3h-.07a3.136 3.136 0 0 1-2.99-2.45l-6.06-26.92c-.71-1.39-4.38-8.18-14.38-21.27a3.139 3.139 0 1 1 4.99-3.81c11.76 15.4 15.08 22.41 15.21 22.7.09.2.17.42.22.64l3.64 16.16c.67-.43 1.5-.6 2.34-.42 1.7.36 2.78 2.03 2.41 3.73-.65 3.03-1.42 6.18-2.29 9.35a3.136 3.136 0 0 1-3.03 2.31ZM103.52 70.86a2.097 2.097 0 0 1-1.47-3.59c14.17-13.85 40.2-28.17 60.54-33.3 1.12-.28 2.26.4 2.54 1.52.28 1.12-.4 2.26-1.52 2.54-19.72 4.97-44.93 18.83-58.64 32.23-.41.4-.94.6-1.46.6ZM150 293.54c-10.56 0-29.73-.98-49.02-3.73-23.66-3.38-40.34-8.33-49.58-14.73-4.32-2.99-7.01-7.74-7.4-13.05-.66-9.11-.74-15.99 4.12-28.1 4.76-11.9 16.03-20.81 34.43-27.25 3.01-1.05 6.47-2.03 10.14-3.07 7.33-2.08 15.64-4.43 18.94-7.2 8.41-7.06 9.09-13.62 9.87-21.21.13-1.22.26-2.47.42-3.73a3.142 3.142 0 0 1 6.23.81c-.15 1.18-.28 2.39-.4 3.56-.81 7.82-1.72 16.67-12.08 25.37-4.33 3.64-12.94 6.08-21.27 8.44-3.57 1.01-6.95 1.97-9.78 2.96-16.59 5.8-26.63 13.54-30.68 23.66-4.36 10.89-4.3 16.83-3.68 25.31.25 3.4 1.97 6.44 4.71 8.34 8.31 5.76 24.53 10.49 46.89 13.68 18.96 2.71 37.78 3.67 48.13 3.67 22.83 0 76.09-4.24 95.01-17.34 2.75-1.9 4.46-4.94 4.71-8.34.63-8.48.69-14.41-3.68-25.31-4.05-10.12-14.08-17.85-30.67-23.66-2.83-.99-6.21-1.95-9.79-2.96-8.33-2.36-16.94-4.79-21.26-8.43-10.35-8.7-11.26-17.56-12.07-25.37-.12-1.18-.25-2.39-.4-3.57a3.142 3.142 0 0 1 6.23-.81c.17 1.26.3 2.52.42 3.74.78 7.59 1.46 14.14 9.87 21.21 3.29 2.77 11.6 5.12 18.93 7.19 3.67 1.04 7.14 2.02 10.15 3.07 18.4 6.44 29.66 15.35 34.43 27.25 4.86 12.13 4.78 19 4.11 28.11-.39 5.3-3.08 10.06-7.4 13.05-9.24 6.4-25.92 11.36-49.57 14.73-19.28 2.75-38.46 3.73-49.02 3.73ZM121.35 97a2.436 2.436 0 0 1-1.67-4.21c3.62-3.42 10.07-4.39 15.34-2.3 1.25.5 1.87 1.92 1.37 3.17a2.445 2.445 0 0 1-3.17 1.37c-3.88-1.54-8.23-.54-10.19 1.31-.47.45-1.08.67-1.68.67ZM150 156.54c-12.78 0-17.99-12.27-18.21-12.8-.31-.75-.23-1.61.23-2.29.45-.68 1.21-1.08 2.03-1.08h31.9c.82 0 1.58.41 2.03 1.08.45.68.54 1.54.23 2.29-.22.52-5.43 12.8-18.21 12.8Zm-11.71-11.29c2.08 2.83 5.86 6.4 11.71 6.4s9.6-3.58 11.69-6.4h-23.4ZM178.55 114.6c-.75 0-1.5-.35-1.97-1-1.44-1.98-3.62-2.35-4.79-2.39-1.9-.08-3.79.59-4.7 1.65a2.44 2.44 0 0 1-3.7-3.18c1.89-2.2 5.18-3.49 8.6-3.35 3.49.14 6.61 1.74 8.55 4.39.8 1.09.56 2.62-.53 3.41-.43.32-.94.47-1.44.47ZM121.46 114.6c-.5 0-1-.15-1.44-.47a2.435 2.435 0 0 1-.53-3.41c1.94-2.66 5.06-4.26 8.55-4.39 3.42-.13 6.71 1.15 8.6 3.35a2.43 2.43 0 0 1-.27 3.44c-1.02.88-2.57.76-3.44-.26-.91-1.06-2.8-1.73-4.7-1.65-1.17.05-3.35.42-4.79 2.39-.48.65-1.22 1-1.97 1Z"/><path class="h" d="M150 208.88c-29.07 0-34.3-4.6-36.02-6.11l-.06-.06a3.139 3.139 0 0 1-.35-4.43 3.139 3.139 0 0 1 4.43-.35l.14.12c4.8 4.22 25.61 4.55 31.87 4.55s27.07-.33 31.87-4.55l.14-.12a3.14 3.14 0 0 1 4.43.35c1.12 1.32.97 3.3-.35 4.43l-.06.06c-1.24 1.09-3.3 2.5-8.27 3.74-6.36 1.58-15.69 2.38-27.76 2.38ZM150 194.12c-13.7 0-23.44-2.13-28.16-6.16a3.15 3.15 0 0 1-.36-4.43 3.137 3.137 0 0 1 4.42-.36l.01.01c5.07 4.32 19.72 4.66 24.09 4.66s19.02-.34 24.09-4.66l2.05 2.38 2.04 2.39c-4.74 4.04-14.47 6.17-28.17 6.17Z"/></svg>