<svg id="a" data-name="レイヤー 1" xmlns="http://www.w3.org/2000/svg" viewBox="0 0 300 300"><defs><style>.c{fill:#d5eaff}.d{fill:#1e1210}</style></defs><path class="c" d="M141.36 148.94c0-12.27-30.6-22.21-42.87-22.21s-22.21 9.94-22.21 22.21c0 3.22.69 6.28 1.92 9.04-10.88 4.61-18.51 15.38-18.51 27.93 0 16.74 13.57 30.32 30.32 30.32s50.98-13.57 50.98-30.32c0-7.66.37-30.16.37-36.97Z"/><path class="d" d="M90.01 219.38c-18.45 0-33.46-15.01-33.46-33.46 0-12.46 6.86-23.74 17.7-29.52-.74-2.4-1.12-4.9-1.12-7.45 0-13.98 11.37-25.35 25.35-25.35 6.96 0 18.19 2.78 27.29 6.77 8.54 3.74 18.72 9.99 18.72 18.58 0 3.33-.09 10.24-.18 17.56-.09 7.62-.19 15.49-.19 19.42 0 8.68-7.43 17.28-20.91 24.23-10.72 5.52-24.06 9.23-33.2 9.23Zm8.48-89.5c-10.52 0-19.07 8.56-19.07 19.07 0 2.7.56 5.31 1.65 7.76.34.77.36 1.65.05 2.43-.31.78-.92 1.41-1.7 1.74a27.148 27.148 0 0 0-16.59 25.04c0 14.99 12.19 27.18 27.18 27.18 8.23 0 20.42-3.43 30.33-8.53 11.13-5.73 17.51-12.53 17.51-18.65 0-3.96.1-11.86.19-19.5.09-7.3.18-14.19.18-17.48 0-3.94-5.59-8.73-14.95-12.83s-19.55-6.24-24.78-6.24Z"/><path class="c" d="M158.64 148.94c0-12.27 30.6-22.21 42.87-22.21s22.21 9.94 22.21 22.21c0 3.22-.69 6.28-1.92 9.04 10.88 4.61 18.51 15.38 18.51 27.93 0 16.74-13.57 30.32-30.32 30.32s-50.98-13.57-50.98-30.32c0-7.66-.37-30.16-.37-36.97Z"/><path class="d" d="M209.98 219.38c-9.15 0-22.49-3.71-33.2-9.23-13.48-6.95-20.91-15.55-20.91-24.23 0-3.92-.1-11.8-.19-19.42-.09-7.32-.18-14.23-.18-17.56 0-8.59 10.18-14.85 18.72-18.58 9.11-3.99 20.33-6.77 27.29-6.77 13.98 0 25.35 11.37 25.35 25.35 0 2.55-.37 5.05-1.12 7.45a33.415 33.415 0 0 1 17.7 29.52c0 18.45-15.01 33.46-33.46 33.46Zm-8.48-89.5c-5.22 0-15.41 2.14-24.78 6.24-9.36 4.1-14.95 8.89-14.95 12.83 0 3.29.09 10.18.18 17.48.09 7.64.19 15.53.19 19.5 0 6.12 6.38 12.92 17.51 18.65 9.91 5.1 22.09 8.53 30.33 8.53 14.99 0 27.18-12.19 27.18-27.18 0-10.94-6.51-20.77-16.59-25.04-.78-.33-1.39-.96-1.7-1.74-.31-.78-.29-1.66.05-2.43a18.88 18.88 0 0 0 1.65-7.76c0-10.52-8.56-19.07-19.07-19.07Z"/><path d="m206.62 95.8.23.06c11.76-.29 14.69 10.81 12.74 20.81-2.57 13.21-12.43 18.02-18.09 16.18-5.19 20.9-16.02 28.27-26.54 32.2 1.17 8.97.53 17.82 11.39 26.94 5.53 4.65 20.67 7.55 30.06 10.84 14.87 5.2 27.54 12.92 32.55 25.45 4.51 11.25 4.56 17.62 3.9 26.71-.31 4.3-2.52 8.25-6.06 10.7-20.23 14.01-76.12 17.9-96.81 17.9s-76.57-3.89-96.8-17.9c-3.54-2.45-5.74-6.4-6.06-10.7-.67-9.08-.61-15.45 3.89-26.71 5.02-12.53 17.69-20.25 32.55-25.45 9.39-3.29 24.54-6.18 30.06-10.83 10.86-9.13 10.21-17.98 11.38-26.95-10.52-3.93-21.15-11.3-26.52-32.21h-.02c-5.65 1.86-15.52-2.95-18.09-16.17-1.95-10 .98-21.09 12.74-20.81l.23-.06c-20.07-86.56 56.64-83.94 56.64-83.94s76.72-2.62 56.63 83.94Z" style="fill:#fff"/><path class="c" d="M150 285.36c-23.2 0-90.63-4.89-102.46-23.45-.95-12.13-1.81-18.6 3.5-31.86 5.02-12.53 17.69-20.25 32.55-25.45 9.39-3.29 24.54-6.18 30.06-10.83L150 239.56l36.34-45.8c5.53 4.65 20.67 7.55 30.06 10.84 14.87 5.2 27.54 12.92 32.55 25.45 5.3 13.26 4.44 19.73 3.5 31.86-11.83 18.56-79.27 23.45-102.46 23.45Z"/><path class="d" d="M125.03 169.97c-.36 0-.74-.06-1.1-.2-6.83-2.55-12.03-5.89-16.38-10.53-5.48-5.84-9.42-13.57-12.03-23.63-.02-.07-.04-.14-.06-.22a71.65 71.65 0 0 1-.63-2.65c-.38-1.69.69-3.37 2.38-3.75 1.69-.38 3.37.69 3.75 2.38.15.68.32 1.41.54 2.28.02.06.04.12.05.18 5.22 20.34 15.35 26.6 24.58 30.04a3.139 3.139 0 0 1-1.1 6.08Z"/><path class="d" d="M95.96 138.15c-2.53 0-5.23-.77-7.77-2.26-3.2-1.88-8.87-6.57-10.87-16.84-1.53-7.86-.23-14.95 3.58-19.45 2.92-3.45 7.18-5.21 12.32-5.09a3.14 3.14 0 1 1-.16 6.28c-3.26-.08-5.68.86-7.37 2.86-2.49 2.95-3.34 8.39-2.21 14.2.66 3.37 2.55 9.49 7.89 12.63 2.14 1.26 4.5 1.71 6.14 1.17 1.65-.54 3.42.36 3.96 2.01s-.36 3.42-2.01 3.96c-1.11.36-2.29.54-3.5.54ZM174.96 169.97c-1.27 0-2.47-.78-2.94-2.04-.61-1.62.22-3.43 1.84-4.04 5.94-2.22 10.41-5.06 14.08-8.95 4.82-5.1 8.25-11.99 10.51-21.06.22-.88.41-1.69.58-2.48.36-1.7 2.03-2.78 3.73-2.41 1.7.36 2.78 2.03 2.41 3.73-.18.86-.39 1.73-.62 2.68-2.52 10.14-6.46 17.95-12.03 23.86-4.36 4.61-9.59 7.96-16.45 10.52-.36.14-.73.2-1.1.2Z"/><path class="d" d="M204.03 138.15c-1.18 0-2.33-.17-3.41-.51a3.15 3.15 0 0 1-2.26-3.01c0-1.73 1.4-3.14 3.14-3.14.33 0 .66.05.97.15 1.65.54 4.01.09 6.16-1.18 2.29-1.35 6.35-4.77 7.88-12.62 1.13-5.81.28-11.25-2.21-14.2-1.7-2.01-4.11-2.94-7.37-2.86a3.147 3.147 0 0 1-3.22-3.06 3.138 3.138 0 0 1 3.06-3.21c5.14-.12 9.4 1.63 12.32 5.09 3.8 4.5 5.11 11.59 3.58 19.45-2 10.26-7.66 14.95-10.86 16.83-2.54 1.5-5.25 2.27-7.79 2.27Z"/><path class="d" d="M204.98 107.26c-.28 0-.56-.04-.83-.11a3.14 3.14 0 0 1-2.19-3.86c.61-2.22 1.15-4.38 1.61-6.39 6.2-26.74 3.6-47.29-7.75-61.08-16.29-19.8-45.42-19.04-45.71-19.03h-.21c-.07 0-7.53-.21-16.91 2.09-8.5 2.08-20.39 6.71-28.82 16.98-11.32 13.79-13.92 34.33-7.73 61.03.46 2.03 1 4.18 1.62 6.41a3.14 3.14 0 0 1-6.05 1.67c-.64-2.32-1.2-4.56-1.68-6.67-6.66-28.71-3.63-51.08 9.03-66.46 7.58-9.21 18.76-15.81 32.35-19.1 9.66-2.34 17.28-2.24 18.31-2.22 1.03-.03 8.65-.12 18.31 2.22 13.59 3.29 24.78 9.89 32.36 19.1 12.65 15.38 15.69 37.74 9.02 66.47-.48 2.09-1.04 4.34-1.68 6.65a3.148 3.148 0 0 1-3.03 2.31ZM150 288.5c-10.56 0-29.73-.98-49.02-3.73-23.65-3.38-40.33-8.33-49.57-14.73-4.31-2.99-7.01-7.74-7.4-13.05-.67-9.1-.75-15.97 4.11-28.1 4.76-11.9 16.02-20.81 34.43-27.25 3.01-1.05 6.48-2.04 10.15-3.07 7.33-2.07 15.64-4.43 18.93-7.19 8.41-7.07 9.08-13.62 9.87-21.21.13-1.22.26-2.48.42-3.74a3.142 3.142 0 0 1 6.23.81c-.15 1.18-.28 2.4-.4 3.57-.81 7.81-1.72 16.67-12.07 25.37-4.32 3.64-12.93 6.07-21.26 8.43-3.58 1.01-6.96 1.97-9.79 2.96-16.59 5.8-26.62 13.54-30.67 23.66-4.37 10.9-4.3 16.83-3.68 25.31.25 3.4 1.97 6.44 4.71 8.35 8.31 5.76 24.52 10.49 46.88 13.68 18.96 2.71 37.77 3.67 48.13 3.67 22.83 0 76.09-4.24 95.02-17.34 2.75-1.9 4.46-4.94 4.71-8.34.62-8.48.68-14.42-3.68-25.31-4.05-10.12-14.08-17.86-30.68-23.66-2.83-.99-6.2-1.95-9.78-2.96-8.33-2.36-16.94-4.8-21.27-8.44-10.35-8.7-11.27-17.55-12.08-25.37-.12-1.17-.25-2.39-.4-3.56-.22-1.72.99-3.3 2.71-3.52 1.72-.23 3.3.99 3.52 2.71.16 1.26.29 2.52.42 3.73.79 7.59 1.46 14.15 9.87 21.21 3.3 2.78 11.61 5.13 18.94 7.2 3.67 1.04 7.13 2.02 10.14 3.07 18.4 6.43 29.67 15.35 34.43 27.25 4.85 12.12 4.78 18.99 4.12 28.1-.39 5.31-3.08 10.06-7.4 13.05-9.24 6.4-25.92 11.36-49.58 14.73-19.28 2.75-38.46 3.73-49.02 3.73ZM150 126.13c-.77 0-1.4-.62-1.4-1.4v-1.76c0-.77.62-1.4 1.4-1.4s1.4.62 1.4 1.4v1.76c0 .77-.62 1.4-1.4 1.4ZM150 145.84c-9.55 0-13.06-3.73-14.32-6.86l-.03-.06a2.438 2.438 0 1 1 4.5-1.88l.05.11c1.34 3.31 6.71 3.8 9.8 3.8s8.46-.49 9.8-3.8l.05-.11a2.441 2.441 0 0 1 3.19-1.31c1.24.52 1.83 1.95 1.31 3.19l-.03.06c-1.26 3.13-4.78 6.86-14.32 6.86Z"/><ellipse class="d" cx="128.21" cy="103.53" rx="5.04" ry="5.63"/><path class="d" d="M125.04 169.97c-.37 0-.74-.06-1.1-.2-7.13-2.67-12.53-6.22-16.99-11.18-5.67-6.32-9.64-14.77-12.12-25.84-.38-1.69.68-3.37 2.38-3.75 1.69-.38 3.37.68 3.75 2.38 4.99 22.23 15.53 28.91 25.18 32.52 1.62.61 2.45 2.42 1.84 4.04a3.141 3.141 0 0 1-2.94 2.04ZM174.97 169.97c-1.27 0-2.47-.78-2.94-2.04-.61-1.62.22-3.43 1.84-4.04 17.43-6.51 22.5-20.08 25.17-32.49.36-1.7 2.03-2.77 3.73-2.41 1.7.36 2.77 2.03 2.41 3.73-2.38 11.06-6.32 19.53-12.05 25.88-4.46 4.94-9.88 8.49-17.06 11.18-.36.14-.73.2-1.1.2Z"/><path class="c" d="m199 80.99 5.98 23.13C230.53 10.89 150 13.65 150 13.65s-80.53-2.76-54.98 90.47l4.65-20.65 7.93-.34 49.18-1.77s12.42-16.74 13.08-28.44C181.38 69.97 199 81 199 81Z"/><path class="d" d="M204.98 107.26h-.07a3.136 3.136 0 0 1-2.99-2.45l-4.93-21.91a3.137 3.137 0 0 1 6.12-1.38l1.9 8.44c4.17-22.96 1.27-40.92-8.66-53.49-16.18-20.48-45.95-19.7-46.24-19.69h-.22c-.07 0-7.7-.22-17.23 2.16-8.63 2.15-20.67 6.95-29.04 17.56-9.91 12.57-12.8 30.51-8.63 53.45l3.11-13.82a3.137 3.137 0 0 1 6.12 1.38l-6.14 27.29a3.136 3.136 0 0 1-2.99 2.45c-1.44.04-2.72-.92-3.1-2.31-8.62-31.46-6.35-55.81 6.73-72.37 7.53-9.53 18.81-16.37 32.63-19.78 9.82-2.42 17.61-2.32 18.65-2.3 1.04-.03 8.83-.13 18.65 2.3 13.81 3.41 25.09 10.25 32.63 19.78 13.09 16.56 15.35 40.91 6.73 72.37a3.136 3.136 0 0 1-3.03 2.31ZM150 288.5c-10.56 0-29.73-.98-49.02-3.73-23.65-3.38-40.33-8.33-49.57-14.73-4.31-2.99-7.01-7.74-7.4-13.05-.67-9.1-.75-15.97 4.11-28.1 4.76-11.9 16.02-20.81 34.43-27.25 3.01-1.05 6.48-2.04 10.15-3.07 7.33-2.07 15.64-4.43 18.93-7.19 8.41-7.07 9.08-13.62 9.87-21.21.13-1.22.26-2.48.42-3.74a3.142 3.142 0 0 1 6.23.81c-.15 1.18-.28 2.4-.4 3.57-.81 7.81-1.72 16.67-12.07 25.37-4.32 3.64-12.93 6.07-21.26 8.43-3.58 1.01-6.96 1.97-9.79 2.96-16.59 5.8-26.62 13.54-30.67 23.66-4.37 10.9-4.3 16.83-3.68 25.31.25 3.4 1.97 6.44 4.71 8.35 8.31 5.76 24.52 10.49 46.88 13.68 18.96 2.71 37.77 3.67 48.13 3.67 22.83 0 76.09-4.24 95.02-17.34 2.75-1.9 4.46-4.94 4.71-8.34.62-8.48.68-14.42-3.68-25.31-4.05-10.12-14.08-17.86-30.68-23.66-2.83-.99-6.2-1.95-9.78-2.96-8.33-2.36-16.94-4.8-21.27-8.44-10.35-8.7-11.27-17.55-12.08-25.37-.12-1.17-.25-2.39-.4-3.56-.22-1.72.99-3.3 2.71-3.52 1.72-.23 3.3.99 3.52 2.71.16 1.26.29 2.52.42 3.73.79 7.59 1.46 14.15 9.87 21.21 3.3 2.78 11.61 5.13 18.94 7.2 3.67 1.04 7.13 2.02 10.14 3.07 18.4 6.43 29.67 15.35 34.43 27.25 4.85 12.12 4.78 18.99 4.12 28.1-.39 5.31-3.08 10.06-7.4 13.05-9.24 6.4-25.92 11.36-49.58 14.73-19.28 2.75-38.46 3.73-49.02 3.73Z"/><ellipse class="d" cx="171.79" cy="103.53" rx="5.04" ry="5.63"/><path class="d" d="M134.11 90.16c-.4 0-.81-.1-1.19-.31-2.52-1.41-7.63-2.5-10.64-.85-1.18.65-2.67.21-3.31-.97-.65-1.18-.21-2.67.97-3.31 4.54-2.48 11.31-1.4 15.37.88 1.18.66 1.6 2.15.94 3.32-.45.8-1.28 1.25-2.13 1.25ZM165.89 90.16c-.85 0-1.68-.45-2.13-1.25-.66-1.18-.24-2.66.94-3.32 4.06-2.28 10.83-3.36 15.37-.88a2.439 2.439 0 1 1-2.34 4.28c-3.02-1.65-8.12-.56-10.64.85-.38.21-.79.31-1.19.31ZM150 242.7c-.96 0-1.86-.44-2.46-1.19l-36.35-45.79a3.135 3.135 0 0 1 .51-4.41 3.135 3.135 0 0 1 4.41.51L150 234.51l33.88-42.7a3.135 3.135 0 0 1 4.41-.51 3.135 3.135 0 0 1 .51 4.41l-36.34 45.8c-.6.75-1.5 1.19-2.46 1.19ZM156.78 84.49c-1.02 0-2.02-.49-2.62-1.41-.96-1.45-.56-3.39.89-4.35 5.78-3.82 9.94-14.35 11.7-29.64.2-1.72 1.76-2.96 3.48-2.76 1.72.2 2.96 1.76 2.76 3.48-2.03 17.66-6.9 29.15-14.47 34.16-.53.35-1.13.52-1.73.52Z"/><path class="d" d="M130.09 84.13c-1 0-1.98-.48-2.59-1.36-.98-1.43-.62-3.38.81-4.37 7.25-4.97 11.43-15.04 14-33.64a3.136 3.136 0 0 1 3.54-2.68c1.72.24 2.92 1.82 2.68 3.54-2.83 20.53-7.82 31.89-16.67 37.96-.54.37-1.16.55-1.77.55ZM108.57 85.35c-.91 0-1.82-.4-2.44-1.16a3.153 3.153 0 0 1 .46-4.42c4.84-3.92 8.64-18.84 9.89-31.56a3.14 3.14 0 0 1 6.25.61c-.46 4.71-3.24 28.57-12.19 35.82-.58.47-1.28.7-1.97.7ZM199.78 84.13c-.25 0-.5-.03-.76-.09-2.72-.67-7.17-3.75-13.22-9.14-4.86-4.34-9.49-9.08-11.5-11.8a3.142 3.142 0 0 1 .65-4.39 3.142 3.142 0 0 1 4.39.65c3.96 5.34 17.71 17.72 21.18 18.58 1.68.42 2.71 2.12 2.29 3.8a3.146 3.146 0 0 1-3.05 2.39Z"/></svg>