<svg id="a" data-name="レイヤー 1" xmlns="http://www.w3.org/2000/svg" viewBox="0 0 300 300"><defs><style>.b{fill:#fff}.c{fill:#d5eaff}.d{fill:#1e1210}</style></defs><path class="c" d="M89.72 236.64h119.72l-2.03-138.1H91.75l-2.03 138.1z"/><path class="d" d="M209.44 239.86H89.72a3.224 3.224 0 0 1-3.22-3.27l2.03-138.1a3.22 3.22 0 0 1 3.22-3.17h115.66c1.76 0 3.2 1.41 3.22 3.17l2.03 138.1c.01.86-.32 1.69-.93 2.31-.61.61-1.43.96-2.29.96Zm-116.45-6.44h113.18l-1.93-131.66H94.93L93 233.42Z"/><path class="b" d="m91.9 93.82-.24.06c-12.07-.29-15.07 11.09-13.07 21.35 2.64 13.56 12.76 18.49 18.56 16.6 5.33 21.44 16.44 29.01 27.23 33.04-1.2 9.2-.54 18.28-11.68 27.64-5.68 4.77-21.21 7.75-30.85 11.12-15.26 5.33-28.26 13.26-33.4 26.11-4.62 11.55-4.68 18.08-4 27.4.32 4.41 2.58 8.46 6.21 10.97 20.76 14.37 78.1 18.37 99.33 18.37s78.57-3.99 99.32-18.37c3.63-2.51 5.89-6.56 6.21-10.97.69-9.32.63-15.86-3.99-27.4-5.15-12.86-18.15-20.78-33.4-26.11-9.64-3.37-25.18-6.34-30.85-11.11-11.14-9.36-10.47-18.45-11.68-27.65 10.8-4.03 21.71-11.6 27.21-33.04h.02c5.8 1.9 15.92-3.03 18.56-16.59 2-10.26-1-21.64-13.07-21.35l-.24-.06C228.72 5 150.01 7.69 150.01 7.69S71.29 5 91.9 93.82Z"/><path class="d" d="M175.62 169.92c-1.31 0-2.53-.8-3.02-2.1-.62-1.67.22-3.52 1.89-4.14 9.46-3.53 19.86-9.96 25.22-30.83.02-.06.03-.13.05-.19.22-.9.4-1.65.56-2.34a3.228 3.228 0 0 1 3.84-2.45c1.74.39 2.83 2.11 2.45 3.84-.18.81-.39 1.68-.65 2.72l-.06.22c-6.15 23.71-18.8 31.19-29.15 35.05-.37.14-.75.2-1.13.2Z"/><path class="d" d="M205.45 137.27c-1.25 0-2.46-.18-3.6-.55a3.22 3.22 0 0 1 2-6.12c1.69.55 4.11.09 6.31-1.2 2.35-1.38 6.52-4.9 8.09-12.96 1.16-5.96.29-11.54-2.27-14.57-1.74-2.06-4.21-3.02-7.57-2.94a3.213 3.213 0 0 1-3.3-3.14 3.219 3.219 0 0 1 3.14-3.3c5.28-.13 9.65 1.68 12.64 5.22 3.9 4.62 5.24 11.89 3.67 19.96-2.05 10.54-7.87 15.35-11.15 17.28-2.61 1.53-5.38 2.32-7.98 2.32ZM124.39 169.92c-.37 0-.76-.07-1.13-.2-7.05-2.63-12.41-6.06-16.88-10.8-5.72-6.06-9.76-14.07-12.35-24.48-.24-.97-.45-1.86-.64-2.74-.37-1.74.74-3.45 2.47-3.82 1.74-.37 3.45.74 3.82 2.47.17.81.37 1.64.59 2.54 2.31 9.31 5.84 16.38 10.78 21.62 3.77 3.99 8.36 6.91 14.45 9.18 1.67.62 2.51 2.48 1.89 4.14-.48 1.3-1.71 2.1-3.02 2.1Z"/><path class="d" d="M94.57 137.27c-2.61 0-5.38-.79-7.99-2.33-3.28-1.93-9.09-6.74-11.14-17.27-1.57-8.07-.23-15.34 3.67-19.96 2.99-3.54 7.37-5.35 12.64-5.22 1.78.04 3.19 1.52 3.14 3.3a3.219 3.219 0 0 1-3.3 3.14c-3.35-.08-5.83.88-7.57 2.94-2.56 3.03-3.43 8.61-2.27 14.57.67 3.45 2.62 9.73 8.09 12.95 2.2 1.3 4.62 1.76 6.32 1.21a3.218 3.218 0 0 1 4.22 3.06c0 1.49-1.01 2.74-2.38 3.11-1.09.34-2.25.5-3.44.5Z"/><path class="d" d="M206.42 105.57c-.28 0-.57-.04-.86-.12a3.215 3.215 0 0 1-2.25-3.96c.63-2.28 1.18-4.49 1.65-6.56 6.36-27.41 3.69-48.48-7.92-62.63-8.64-10.53-20.85-15.28-29.57-17.42-9.63-2.36-17.28-2.14-17.36-2.14h-.22c-.07 0-7.73-.22-17.36 2.14-8.72 2.14-20.93 6.89-29.57 17.42-11.62 14.15-14.29 35.22-7.93 62.62.47 2.09 1.03 4.29 1.66 6.57.47 1.72-.54 3.49-2.25 3.96-1.72.47-3.49-.54-3.96-2.25-.65-2.37-1.23-4.68-1.72-6.84-6.84-29.46-3.72-52.41 9.26-68.19 7.77-9.45 19.25-16.23 33.2-19.6 9.92-2.4 17.73-2.3 18.79-2.27 1.05-.03 8.87-.13 18.78 2.27 13.94 3.37 25.42 10.15 33.19 19.6 12.98 15.78 16.1 38.73 9.26 68.21-.49 2.15-1.07 4.45-1.72 6.83a3.22 3.22 0 0 1-3.1 2.37ZM150 291.53c-10.83 0-30.51-1-50.29-3.83-24.27-3.46-41.39-8.55-50.87-15.12-4.43-3.07-7.2-7.95-7.59-13.39-.68-9.35-.76-16.4 4.22-28.84 4.89-12.21 16.44-21.36 35.33-27.96 3.08-1.08 6.64-2.09 10.4-3.15 7.52-2.13 16.05-4.54 19.43-7.39 8.63-7.25 9.33-13.97 10.13-21.76.13-1.25.26-2.54.43-3.83a3.228 3.228 0 0 1 3.61-2.78c1.76.23 3.01 1.85 2.78 3.61-.16 1.21-.29 2.45-.41 3.66-.83 8.02-1.77 17.11-12.39 26.03-4.44 3.74-13.28 6.24-21.82 8.66-3.67 1.04-7.13 2.02-10.03 3.03-17.02 5.95-27.32 13.89-31.48 24.27-4.48 11.18-4.41 17.27-3.78 25.97.25 3.49 2.02 6.61 4.83 8.56 8.53 5.91 25.17 10.76 48.11 14.03 19.45 2.78 38.76 3.76 49.38 3.76 23.42 0 78.07-4.35 97.49-17.8 2.82-1.95 4.58-5.07 4.84-8.56.64-8.7.71-14.79-3.77-25.97-4.16-10.38-14.45-18.32-31.47-24.27-2.91-1.02-6.37-2-10.04-3.04-8.54-2.42-17.38-4.92-21.81-8.65-10.62-8.93-11.56-18.01-12.39-26.03-.12-1.21-.25-2.46-.41-3.67a3.22 3.22 0 0 1 2.78-3.61 3.22 3.22 0 0 1 3.61 2.78c.17 1.3.3 2.59.43 3.84.8 7.79 1.5 14.51 10.12 21.76 3.38 2.84 11.9 5.25 19.42 7.38 3.77 1.07 7.33 2.07 10.42 3.16 18.88 6.6 30.43 15.75 35.32 27.96 4.98 12.44 4.91 19.5 4.22 28.84-.4 5.44-3.16 10.32-7.59 13.39-9.48 6.57-26.59 11.65-50.86 15.12-19.78 2.82-39.46 3.83-50.29 3.83ZM150 124.93c-.79 0-1.43-.64-1.43-1.43v-1.81a1.43 1.43 0 1 1 2.86 0v1.81c0 .79-.64 1.43-1.43 1.43ZM150 145.16c-9.8 0-13.4-3.83-14.7-7.04l-.03-.06c-.53-1.28.07-2.74 1.35-3.28 1.28-.53 2.74.07 3.28 1.35l.05.11c1.37 3.4 6.89 3.9 10.05 3.9s8.68-.51 10.05-3.9l.05-.11a2.508 2.508 0 1 1 4.63 1.93l-.03.06c-1.3 3.21-4.9 7.04-14.7 7.04Z"/><ellipse class="d" cx="172.36" cy="101.74" rx="5.17" ry="5.78"/><path class="d" d="M175.61 169.92c-1.31 0-2.53-.8-3.02-2.09-.62-1.67.22-3.52 1.89-4.15 17.65-6.6 22.96-20.57 25.83-33.37a3.22 3.22 0 0 1 3.85-2.44 3.22 3.22 0 0 1 2.44 3.85c-5.82 25.96-19.02 33.94-29.86 37.99-.37.14-.75.2-1.13.2ZM124.38 169.92c-.37 0-.76-.07-1.13-.2-7.37-2.75-12.93-6.4-17.51-11.47-5.88-6.52-9.92-15.2-12.36-26.55-.37-1.74.73-3.45 2.47-3.83 1.74-.37 3.45.73 3.83 2.47 4.88 22.69 15.79 29.59 25.83 33.34 1.67.62 2.51 2.48 1.89 4.15a3.22 3.22 0 0 1-3.02 2.09Z"/><path class="b" d="M150 288.31c23.8 0 92.99-5.02 105.13-24.06.97-12.44 1.86-19.09-3.59-32.69-5.15-12.86-18.15-20.78-33.4-26.11-9.64-3.37-25.18-6.34-30.85-11.11l-37.3 56.55-37.29-56.56c-5.68 4.77-21.21 7.75-30.85 11.12-15.26 5.33-28.26 13.26-33.4 26.11-5.44 13.6-4.56 20.24-3.59 32.69 12.14 19.04 81.33 24.06 105.13 24.06Z"/><path class="c" d="M124.38 46.97c-1.91 32.25-30.8 55.39-30.8 55.39C67.38 6.69 150 9.52 150 9.52s82.62-2.83 56.42 92.83l-2.95-10.46-54.54-14.49s-12.69-13.27-24.54-30.44Z"/><path class="d" d="M93.58 105.58h-.13c-1.4-.06-2.6-1.02-2.97-2.37-8.84-32.28-6.52-57.26 6.91-74.25 7.73-9.78 19.3-16.8 33.48-20.29 10.08-2.49 18.07-2.39 19.14-2.36 1.07-.03 9.06-.13 19.14 2.36 14.17 3.5 25.75 10.51 33.48 20.29 13.43 16.99 15.75 41.97 6.91 74.25a3.22 3.22 0 0 1-3.09 2.37h-.01c-1.44 0-2.71-.96-3.1-2.35l-2.95-10.46a3.23 3.23 0 0 1 2.23-3.98c1.32-.37 2.68.13 3.45 1.17 4.85-24.56 2.02-43.7-8.45-56.98-8.59-10.89-20.94-15.81-29.8-18.02-9.78-2.44-17.61-2.22-17.68-2.22h-.22c-.07 0-7.9-.22-17.68 2.22-8.85 2.21-21.21 7.13-29.8 18.02-10.66 13.51-13.4 33.08-8.19 58.26a3.217 3.217 0 0 1 4.05-1.72c1.67.61 2.53 2.46 1.92 4.13l-3.58 9.81a3.24 3.24 0 0 1-3.03 2.12Z"/><path class="c" d="M149.26 288.31c23.8 0 92.99-5.02 105.13-24.06.97-12.44 1.86-19.09-3.59-32.69-5.15-12.86-18.15-20.78-33.4-26.11-9.64-3.37-25.18-6.34-30.85-11.11l-8.12 23.39h-58.35l-8.12-23.39c-5.68 4.77-21.21 7.75-30.85 11.12-15.26 5.33-28.26 13.26-33.4 26.11-5.44 13.6-4.56 20.24-3.59 32.69 12.14 19.04 81.33 24.06 105.13 24.06Z"/><path class="d" d="M150 291.53c-10.83 0-30.51-1-50.29-3.83-24.27-3.46-41.39-8.55-50.87-15.12-4.43-3.07-7.2-7.95-7.59-13.39-.68-9.35-.76-16.4 4.22-28.84 4.89-12.21 16.44-21.36 35.33-27.96 3.08-1.08 6.64-2.09 10.4-3.15 7.52-2.13 16.05-4.54 19.43-7.39 8.63-7.25 9.33-13.97 10.13-21.76.13-1.25.26-2.54.43-3.83a3.228 3.228 0 0 1 3.61-2.78c1.76.23 3.01 1.85 2.78 3.61-.16 1.21-.29 2.45-.41 3.66-.83 8.02-1.77 17.11-12.39 26.03-4.44 3.74-13.28 6.24-21.82 8.66-3.67 1.04-7.13 2.02-10.03 3.03-17.02 5.95-27.32 13.89-31.48 24.27-4.48 11.18-4.41 17.27-3.78 25.97.25 3.49 2.02 6.61 4.83 8.56 8.53 5.91 25.17 10.76 48.11 14.03 19.45 2.78 38.76 3.76 49.38 3.76 23.42 0 78.07-4.35 97.49-17.8 2.82-1.95 4.58-5.07 4.84-8.56.64-8.7.71-14.79-3.77-25.97-4.16-10.38-14.45-18.32-31.47-24.27-2.91-1.02-6.37-2-10.04-3.04-8.54-2.42-17.38-4.92-21.81-8.65-10.62-8.93-11.56-18.01-12.39-26.03-.12-1.21-.25-2.46-.41-3.67a3.22 3.22 0 0 1 2.78-3.61 3.22 3.22 0 0 1 3.61 2.78c.17 1.3.3 2.59.43 3.84.8 7.79 1.5 14.51 10.12 21.76 3.38 2.84 11.9 5.25 19.42 7.38 3.77 1.07 7.33 2.07 10.42 3.16 18.88 6.6 30.43 15.75 35.32 27.96 4.98 12.44 4.91 19.5 4.22 28.84-.4 5.44-3.16 10.32-7.59 13.39-9.48 6.57-26.59 11.65-50.86 15.12-19.78 2.82-39.46 3.83-50.29 3.83Z"/><ellipse class="d" cx="127.64" cy="101.74" rx="5.17" ry="5.78"/><path class="d" d="M179.4 89.88c-.62 0-1.24-.23-1.72-.69-2.01-1.9-6.47-2.92-10.45-1.34-1.29.51-2.74-.12-3.25-1.4-.51-1.29.12-2.74 1.4-3.25 5.41-2.15 12.03-1.15 15.74 2.36a2.5 2.5 0 0 1-1.72 4.32ZM120.6 89.88a2.5 2.5 0 0 1-1.72-4.32c3.71-3.51 10.33-4.51 15.74-2.36a2.49 2.49 0 0 1 1.4 3.25 2.49 2.49 0 0 1-3.25 1.4c-3.98-1.58-8.44-.56-10.45 1.34-.48.46-1.1.69-1.72.69ZM105.8 91.16c-.78 0-1.57-.29-2.19-.86a3.222 3.222 0 0 1-.17-4.55c4.36-4.69 13.97-20.43 15.83-39.1a3.23 3.23 0 0 1 3.53-2.89 3.23 3.23 0 0 1 2.89 3.53c-1.95 19.57-11.78 36.67-17.52 42.84-.63.68-1.5 1.03-2.36 1.03Z"/><path class="d" d="M148.92 80.63c-.73 0-1.47-.25-2.08-.76-7.66-6.48-23.85-27.1-29.04-36.19a3.228 3.228 0 0 1 1.2-4.4c1.54-.88 3.51-.35 4.39 1.2 4.85 8.49 20.5 28.46 27.61 34.47a3.22 3.22 0 0 1-2.08 5.68ZM187.29 89.19c-1.62 0-3.02-1.22-3.2-2.87-2.04-18.64-10.14-42.08-23.64-52.45a3.22 3.22 0 0 1-.59-4.52 3.22 3.22 0 0 1 4.52-.59c10.02 7.7 22.87 27.21 26.12 56.86a3.216 3.216 0 0 1-2.85 3.55c-.12.01-.24.02-.35.02ZM178.44 220.95h-58.35a3.22 3.22 0 0 1-3.03-2.12l-8.12-22.38c-.61-1.67.26-3.52 1.93-4.13 1.67-.61 3.52.26 4.13 1.93l7.35 20.26h53.8l7.37-21.22a3.226 3.226 0 0 1 4.1-1.99c1.68.58 2.57 2.42 1.99 4.1l-8.12 23.39a3.218 3.218 0 0 1-3.04 2.17ZM105.36 250.05a2.149 2.149 0 0 1-2.01-2.91l7-18.62a2.149 2.149 0 1 1 4.02 1.52l-7 18.62c-.32.86-1.14 1.39-2.01 1.39ZM193.19 246.41c-.83 0-1.62-.48-1.97-1.29l-7.3-16.76c-.47-1.09.02-2.35 1.11-2.83 1.09-.47 2.35.02 2.83 1.11l7.3 16.76a2.153 2.153 0 0 1-1.97 3.01ZM171.24 246.41c-1.01 0-1.91-.72-2.11-1.75l-2.24-11.83c-.22-1.17.54-2.29 1.71-2.51 1.17-.22 2.29.54 2.51 1.71l2.24 11.83c.22 1.17-.54 2.29-1.71 2.51-.14.03-.27.04-.4.04ZM132.73 246.41c-.13 0-.27-.01-.4-.04a2.142 2.142 0 0 1-1.71-2.51l2.24-11.83a2.147 2.147 0 0 1 2.51-1.71c1.17.22 1.93 1.34 1.71 2.51l-2.24 11.83c-.2 1.03-1.1 1.75-2.11 1.75Z"/></svg>