<svg xmlns="http://www.w3.org/2000/svg" viewBox="0 0 524.69 92.61">
    <defs>
        <style>.cls-1{fill:#85d3f2;}</style>
    </defs>
    <g id="レイヤー_2" data-name="レイヤー 2">
        <g id="レイヤー_1のコピー" data-name="レイヤー 1のコピー">
            <path class="cls-1"
                  d="M71.82,41.85C66.6,51.48,56.79,59,48.06,59a15.18,15.18,0,0,1-4.5-.72C33.48,79.65,25.65,92.61,13.68,92.61,6.93,92.61,3.24,88.83,0,83.25L6.12,78c1,3.15,3.51,8.28,7.56,8.28C23.13,86.31,31.86,67.05,41,46c3.06-6.93,6.12-14.13,9.36-20.79a41.89,41.89,0,0,1-11.61-.09c-1.53,3.33-4.14,9.72-8.1,16.74l-6.3-3.51c3.24-5.85,5.31-10,6.93-13.5,1-2.07,1.71-3.6,1.44-5.85,8.55,2.79,19.08.81,23.94.63l2.52,4.86c-1.08,2-2,4.05-2.79,5.85-2.88,6.12-5.49,11.88-7.92,17.28l-1.89,4a8.87,8.87,0,0,0,1.53.18c5.94,0,13.32-6.12,17.37-13.5ZM62.91,15.57l-6.48-3.24L62.19,1.17l6.48,3.24Z"/>
            <path class="cls-1"
                  d="M111.69,41.85c-7.11,13-17.91,24.66-32.49,24.66-9.72,0-17.28-5.22-17.28-15C61.92,38.7,75.69,19,89.19,19c16.47,0,10.62,28.26-7.11,28.26a21.3,21.3,0,0,1-11.34-3.51,22.4,22.4,0,0,0-1.62,7.47c0,5.94,4.41,9,10.08,9,11.7,0,20.52-11.7,26.19-21.87ZM74,37.44A15,15,0,0,0,82.35,41c7.92,0,12.87-15.66,5.76-15.66C83.88,25.29,78,30.87,74,37.44Z"/>
            <path class="cls-1"
                  d="M176.94,41.85C171.72,51.3,163.89,59,155.61,59a13.56,13.56,0,0,1-3.69-.54c-4.41,4.77-9.72,8-15.12,8a10.57,10.57,0,0,1-9.72-5.58c-3.78,9.72-6.75,16.83-9.9,21.87-4.41,6.84-9.18,9.81-16.83,9.81l-2.07-7.29A12.89,12.89,0,0,0,111,79.11c3.78-5.85,7.83-16.83,15.3-36.54l.81-2.25,1.08-2.79c2-4.5,2.61-11.79,1.53-14.94l8-1.26a15.08,15.08,0,0,1,.72,6.39c3.42-4.86,7.47-8.73,13.32-8.73,6.21,0,11.07,4.32,11.07,13.5,0,6.21-2.25,13.14-5.76,19.08,5.22-1,10.26-7.2,13.59-13.23Zm-21.33-9.36c0-3.42-.72-7.2-3.87-7.2-4.86,0-13.5,7.83-18,17.91-2.34,5.49-3.06,17,3.06,17C144.27,60.21,155.61,45.45,155.61,32.49Z"/>
            <path class="cls-1"
                  d="M216.8,41.85c-7.11,13-17.9,24.66-32.48,24.66-9.72,0-17.28-5.22-17.28-15C167,38.7,180.81,19,194.31,19c16.46,0,10.61,28.26-7.11,28.26a21.3,21.3,0,0,1-11.34-3.51,22.4,22.4,0,0,0-1.62,7.47c0,5.94,4.41,9,10.08,9,11.7,0,20.51-11.7,26.18-21.87Zm-37.7-4.41A15,15,0,0,0,187.47,41c7.91,0,12.86-15.66,5.76-15.66C189,25.29,183.15,30.87,179.1,37.44Z"/>
            <path class="cls-1"
                  d="M266.48,41.85c-5.22,9.54-13.68,24.66-24.57,24.66-5.58,0-9.18-4.05-9.9-9.36-5,5.31-10.79,9.36-16.19,9.36-5.76,0-10.26-4.41-10.26-11.43,0-9.81,9.45-26.1,14.67-34.38l7.37,4.59a35.16,35.16,0,0,0-7.28,9.54c-3.78,7-7.56,15.21-7.56,20.25,0,2.07.72,5.13,3.6,5.13,6.3,0,16.73-14.85,20.51-22.23A173.71,173.71,0,0,1,246.5,20.7l7,4.32a37.45,37.45,0,0,0-5.4,7.11c-1.62,2.79-3.33,5.94-4.77,9.09l-.27.45c-2.34,5-4.05,10-4.05,13.41,0,2.16.72,5.13,3.33,5.13,6.21,0,14.49-15.84,17.82-21.87Z"/>
            <path class="cls-1"
                  d="M315.62,41.85c-9.09,16.47-17.91,24.66-26.19,24.66-7.2,0-9.63-6-10.35-13.41-6,6.3-12.78,11.52-21.24,13.32l-2.43-7a12.09,12.09,0,0,0,6.93-1.17c6.12-3.15,11.43-8.73,16.56-14.76.09-3.6.36-7.11.45-10.08.09-4.77-.18-8.1-2-8.1-2.52,0-5.49,6.48-10.89,16.56l-6.3-3.51C267.29,24.93,270.26,19,276.74,19c9.27,0,8.91,3.6,9.63,13.59a12.68,12.68,0,0,1,.09,1.8C292.13,27.9,298,22,305.09,19.26l3,6.75c-2.34,0-5,1.35-7.29,3.06-4.95,4-9.45,9.81-14.4,15.66-.18,8.37-.27,15.48,4.05,15.48,6.39,0,15.3-15.39,18.9-21.87Z"/>
            <path class="cls-1"
                  d="M363.86,28.44a8.41,8.41,0,0,1-6.75,3.06,8.23,8.23,0,0,1-1.53-.09c-4.05,4.5-4.5,11.16-.18,12.15-1.35,1.71-.81,1-4,4.68-5.76-1.35-6.57-10.8-.45-18-2-.72-4.05-1.53-5.94-2.43C342,33.75,338.93,40.41,335.6,47c-5.4,10.8-10.26,20.25-14,25.92-4.41,6.84-9.18,9.81-16.83,9.81l-2.25-8.19c4.59.63,9.72-.45,12.87-5.31,3-4.59,7.65-13.23,13.59-25.2,3.42-6.84,6.57-13.14,9.36-18.54a8,8,0,0,0-2-.27c-3.15,0-4.5,3.6-4.5,5l-4.86-5.94a12.58,12.58,0,0,1,9.27-4.5,15.51,15.51,0,0,1,4.68.81,80.36,80.36,0,0,1,7.47-12.15c3-3.78,5.67-6.75,9.18-8.46l1.89,9.09c-1.8.45-3.69,1.89-5.49,4.05a58.65,58.65,0,0,0-6.39,9.72c3.42,1.17,6.75,2.34,9.27,2.34h.45a27,27,0,0,1,3.24-1.44Z"/>
            <path class="cls-1"
                  d="M418,41.85c-5.22,9.54-13.68,24.66-24.57,24.66-6.12,0-9.9-4.86-10.08-11.07C379,61.2,373.4,66.51,367,66.51c-6.84,0-10-6.21-10-12.87C357,40.23,368.63,19,382.76,19c6,0,9.63,4.14,11.7,7.74,1.08-2,2.25-4,3.51-6l7.47,4.59a32.34,32.34,0,0,0-6.66,8.28c-3.87,6.93-8.28,16-8.28,21.42,0,2.25.72,5.22,3.42,5.22,6.12,0,14.4-15.84,17.73-21.87ZM387.89,39l3-5.76-1.44.54c-.72-4.86-2.7-8.46-7.47-8.46-8.1,0-17.64,17.82-17.64,28.53,0,4.41,1.53,6.39,3.42,6.39C371.78,60.21,380.42,51.21,387.89,39Z"/>
            <path class="cls-1"
                  d="M406.7,54.9c0-8.37,5.85-19.26,14.67-34.2l6.93,4.23a35.53,35.53,0,0,0-5.13,6.93c-4.05,7-9.27,17.28-9.27,23,0,2.25.72,5.31,3.42,5.31,6.12,0,14.31-15.75,17.73-21.87l6.3,3.51c-5.31,9.54-13.68,24.66-24.48,24.66C410.39,66.51,406.7,61.29,406.7,54.9Zm18.45-42.57,5.76-11.16,6.48,3.24-5.76,11.16Z"/>
            <path class="cls-1"
                  d="M484.82,41.85c-5.31,9.54-13.77,24.66-24.75,24.66C454.4,66.51,450,62.37,450,56c0-7.29,4.95-20.16,10.62-28.71a36.26,36.26,0,0,1-11-2.52c-2.16,5.85-6.66,14.13-8.28,17.1l-6.3-3.51c5-9.45,7.47-15,8.19-17.19-.63-.45-1.17-1-1.8-1.53l5.49-5.4c.54,1.44,3,3.69,5.4,4.59,3.42,1.26,9.36,3.33,14.58,1.35l4.86,6.93a12.08,12.08,0,0,0-5.49,4.77c-4.86,7.38-9.09,18.09-9.09,23.94,0,2.25.81,4.41,3.24,4.41,6.48,0,14.67-15.66,18.09-21.87Z"/>
            <path class="cls-1"
                  d="M524.69,41.85c-7.11,13-17.91,24.66-32.49,24.66-9.72,0-17.28-5.22-17.28-15C474.92,38.7,488.69,19,502.19,19c16.47,0,10.62,28.26-7.11,28.26a21.3,21.3,0,0,1-11.34-3.51,22.4,22.4,0,0,0-1.62,7.47c0,5.94,4.41,9,10.08,9,11.7,0,20.52-11.7,26.19-21.87ZM487,37.44A15,15,0,0,0,495.35,41c7.92,0,12.87-15.66,5.76-15.66C496.88,25.29,491,30.87,487,37.44Z"/>
        </g>
    </g>
</svg>