<?xml version="1.0" encoding="UTF-8"?>
<svg id="a" data-name="レイヤー 1" xmlns="http://www.w3.org/2000/svg" xmlns:xlink="http://www.w3.org/1999/xlink" viewBox="0 0 198.8 219.64">
  <defs>
    <style>
      .c {
        fill: #fff;
      }

      .d {
        clip-path: url(#b);
      }

      .d, .e {
        fill: none;
      }

      .f {
        fill: #b6d9ff;
      }

      .g {
        fill: #1e1210;
      }

      .h {
        fill: #d3e9ff;
      }
    </style>
    <clipPath id="b">
      <path class="e" d="m151.88,76.69l.14.03c6.95-.17,8.67,6.38,7.52,12.29-1.52,7.8-7.34,10.64-10.68,9.55-3.07,12.34-9.46,16.69-15.67,19.01h0c.69,5.29.31,10.52,6.72,15.91,3.27,2.75,12.21,4.46,17.75,6.4,8.78,3.07,16.26,7.63,19.22,15.03,2.66,6.65,2.69,36.33,2.3,41.7-.19,2.54-1.49,4.87-3.58,6.32-11.95,8.27-44.95,10.57-57.16,10.57s-45.22-2.3-57.16-10.57c-2.09-1.45-3.39-3.78-3.58-6.32-.4-5.36-.36-35.05,2.3-41.7,2.96-7.4,10.44-11.96,19.22-15.03,5.55-1.94,14.49-3.65,17.75-6.39,6.41-5.39,6.03-10.62,6.72-15.91-6.21-2.32-12.49-6.67-15.66-19.02h-.01c-3.34,1.1-9.16-1.74-10.68-9.55-1.15-5.9.58-12.45,7.52-12.29l.14-.03c-11.86-51.12,33.44-45.03,33.44-45.03,0,0,45.3-6.08,33.44,45.03Z"/>
    </clipPath>
  </defs>
  <g>
    <g>
      <path class="h" d="m118.45,122.69s-32.76.2-43.82-10.77l3.76-28.29c-15.19-59.48,40.06-56.51,40.06-56.51,0,0,55.25-2.97,40.06,56.51l3.76,28.29c-11.06,10.97-43.82,10.77-43.82,10.77Z"/>
      <path class="g" d="m118.67,124.54c-.1,0-.17,0-.22,0-1.53,0-33.68.04-45.13-11.31-.41-.41-.61-.99-.53-1.56l3.72-27.93c-4.8-19.05-2.98-33.87,5.39-44.08,5.28-6.44,13.31-10.97,23.21-13.1,6.97-1.5,12.52-1.33,13.35-1.3.83-.04,6.38-.2,13.35,1.3,9.9,2.13,17.92,6.66,23.21,13.1,8.37,10.2,10.18,25.03,5.39,44.08l3.72,27.93c.08.57-.12,1.15-.53,1.56-11.11,11.01-41.7,11.31-44.91,11.31Zm-.22-3.71s0,0,.09,0c.87,0,8.62-.04,17.46-1.26,11.5-1.59,19.87-4.47,24.3-8.36l-3.64-27.34c-.03-.23-.02-.47.04-.7,4.6-18,3.06-31.84-4.56-41.14-5.97-7.29-14.73-10.46-21.03-11.83-6.94-1.51-12.52-1.24-12.58-1.24-.07,0-.13,0-.2,0-.05,0-5.63-.27-12.58,1.24-6.3,1.37-15.05,4.53-21.03,11.83-7.62,9.3-9.15,23.14-4.56,41.14.06.23.07.47.04.7l-3.64,27.34c4.43,3.88,12.8,6.77,24.3,8.36,9.34,1.29,17.46,1.26,17.54,1.26h.01Z"/>
    </g>
    <g class="d">
      <path class="c" d="m151.88,76.69l.14.03c6.95-.17,8.67,6.38,7.52,12.29-1.52,7.8-7.34,10.64-10.68,9.55-3.07,12.34-9.46,16.69-15.67,19.01h0c.69,5.29.31,10.52,6.72,15.91,3.27,2.75,12.21,4.46,17.75,6.4,8.78,3.07,16.26,7.63,19.22,15.03,2.66,6.65,2.69,36.33,2.3,41.7-.19,2.54-1.49,4.87-3.58,6.32-11.95,8.27-44.95,10.57-57.16,10.57s-45.22-2.3-57.16-10.57c-2.09-1.45-3.39-3.78-3.58-6.32-.4-5.36-.36-35.05,2.3-41.7,2.96-7.4,10.44-11.96,19.22-15.03,5.55-1.94,14.49-3.65,17.75-6.39,6.41-5.39,6.03-10.62,6.72-15.91-6.21-2.32-12.49-6.67-15.66-19.02h-.01c-3.34,1.1-9.16-1.74-10.68-9.55-1.15-5.9.58-12.45,7.52-12.29l.14-.03c-9.05-50.81,33.44-49.57,33.44-49.57,0,0,42.2-1.78,33.44,49.57Z"/>
    </g>
    <path class="h" d="m97.62,50.87l-3.37-2.18c1.1.76,2.22,1.49,3.37,2.18Z"/>
    <path class="h" d="m118.45,30.49s-47.55-4.99-32.47,50.06l3.63-16.12s1.87-4.02,8.78-13.06l-.76-.49c-1.14-.69-2.27-1.41-3.37-2.18l3.37,2.18c21.42,12.93,49.67,13.55,49.67,13.55l3.63,16.12c15.08-55.05-32.47-50.06-32.47-50.06Z"/>
    <path class="g" d="m103.7,119.43c-.22,0-.43-.04-.65-.12-4.03-1.51-7.11-3.48-9.67-6.22-3.24-3.45-5.56-8.02-7.1-13.96-.01-.04-.03-.08-.04-.13-.15-.6-.27-1.1-.37-1.57-.22-1,.41-1.99,1.41-2.21,1-.22,1.99.41,2.21,1.41.09.4.19.83.32,1.35.01.04.02.07.03.11,3.08,12.01,9.07,15.71,14.51,17.74.96.36,1.45,1.43,1.09,2.39-.28.75-.99,1.21-1.74,1.21Z"/>
    <path class="g" d="m86.54,100.64c-1.5,0-3.09-.46-4.59-1.34-1.89-1.11-5.24-3.88-6.42-9.94-.9-4.64-.13-8.83,2.11-11.49,1.72-2.04,4.24-3.08,7.28-3.01,1.02.02,1.83.87,1.81,1.9-.02,1.02-.88,1.83-1.9,1.81-1.93-.04-3.35.51-4.35,1.69-1.47,1.74-1.97,4.96-1.3,8.39.39,1.99,1.51,5.61,4.66,7.46,1.27.74,2.66,1.01,3.63.69.97-.32,2.02.21,2.34,1.19.32.97-.21,2.02-1.19,2.34-.65.21-1.35.32-2.07.32Z"/>
    <path class="g" d="m133.19,119.43c-.75,0-1.46-.46-1.74-1.21-.36-.96.13-2.03,1.09-2.39,3.5-1.31,6.15-2.99,8.32-5.29,2.84-3.01,4.87-7.08,6.2-12.44.13-.52.24-1,.34-1.46.21-1,1.2-1.64,2.2-1.42,1,.21,1.64,1.2,1.42,2.2-.11.51-.23,1.02-.37,1.58-1.49,5.99-3.81,10.6-7.11,14.09-2.57,2.73-5.66,4.7-9.72,6.21-.21.08-.43.12-.65.12Z"/>
    <path class="g" d="m150.35,100.64c-.7,0-1.38-.1-2.01-.3-.77-.23-1.33-.94-1.33-1.78,0-1.02.83-1.85,1.85-1.85h0c.19,0,.39.03.57.09.97.32,2.37.05,3.64-.69,1.35-.79,3.75-2.82,4.65-7.45.67-3.43.17-6.64-1.3-8.39-1-1.19-2.43-1.74-4.35-1.69-.02,0-.03,0-.05,0-1,0-1.83-.8-1.85-1.81-.03-1.02.78-1.87,1.81-1.9,3.04-.07,5.55.97,7.28,3.01,2.25,2.66,3.02,6.85,2.11,11.49-1.18,6.06-4.52,8.83-6.41,9.94-1.5.88-3.1,1.34-4.6,1.34Z"/>
    <path class="g" d="m85.98,82.4c-.81,0-1.56-.54-1.79-1.36-.38-1.37-.71-2.69-.99-3.94-.23-1,.4-1.99,1.4-2.22,1-.23,1.99.4,2.22,1.4.27,1.19.59,2.46.95,3.77.27.99-.31,2.01-1.3,2.28-.16.05-.33.07-.49.07Z"/>
    <path class="g" d="m150.91,82.4c-.16,0-.33-.02-.49-.07-.99-.27-1.57-1.29-1.3-2.28.36-1.31.68-2.58.95-3.77.23-1,1.22-1.63,2.22-1.4,1,.23,1.62,1.22,1.4,2.22-.28,1.25-.62,2.57-.99,3.94-.23.82-.97,1.36-1.79,1.36Z"/>
    <path class="g" d="m118.45,215.35c-6.24,0-17.56-.58-28.94-2.2-13.97-1.99-23.82-4.92-29.27-8.7-2.55-1.76-4.14-4.57-4.37-7.7-.34-4.65-.52-35.17,2.43-42.52,2.81-7.03,9.46-12.29,20.33-16.09,1.78-.62,3.83-1.2,5.99-1.82,4.33-1.23,9.23-2.61,11.18-4.25,4.96-4.17,5.36-8.04,5.83-12.52.07-.72.15-1.46.25-2.21.13-1.02,1.06-1.73,2.08-1.6,1.02.13,1.73,1.06,1.6,2.08-.09.7-.17,1.41-.24,2.11-.48,4.61-1.02,9.84-7.13,14.98-2.55,2.15-7.64,3.59-12.55,4.98-2.11.6-4.11,1.16-5.78,1.75-9.8,3.43-15.72,8-18.11,13.97-2.41,6.02-2.6,35.01-2.17,40.87.15,2.01,1.16,3.81,2.78,4.93,4.91,3.4,14.48,6.19,27.68,8.08,11.19,1.6,22.31,2.17,28.42,2.17,13.48,0,44.93-2.5,56.11-10.24,1.62-1.12,2.64-2.92,2.78-4.93.43-5.88.23-34.88-2.18-40.87-2.39-5.97-8.32-10.54-18.11-13.97-1.67-.58-3.66-1.15-5.77-1.75-4.92-1.39-10-2.83-12.56-4.98-6.11-5.14-6.65-10.37-7.13-14.98-.07-.69-.15-1.41-.24-2.1-.13-1.02.58-1.95,1.6-2.08,1.02-.13,1.95.58,2.08,1.6.1.74.17,1.49.25,2.2.46,4.48.86,8.35,5.83,12.52,1.95,1.64,6.86,3.03,11.19,4.25,2.17.61,4.21,1.19,5.99,1.81,10.87,3.8,17.52,9.06,20.33,16.09,2.93,7.33,2.77,37.86,2.43,42.52-.23,3.13-1.82,5.94-4.37,7.71-5.46,3.78-15.31,6.71-29.27,8.7-11.39,1.63-22.71,2.2-28.94,2.2Z"/>
    <path class="g" d="m118.45,93.54c-.45,0-.82-.37-.82-.82v-1.04c0-.45.37-.82.82-.82s.82.37.82.82v1.04c0,.45-.37.82-.82.82Z"/>
    <path class="g" d="m118.45,105.18c-5.64,0-7.71-2.2-8.46-4.05v-.04c-.32-.74.03-1.58.76-1.89.74-.31,1.58.04,1.89.78l.03.07c.79,1.95,3.96,2.25,5.78,2.25s4.99-.29,5.78-2.25l.03-.07c.31-.74,1.15-1.08,1.89-.78.74.31,1.08,1.15.78,1.89v.04c-.76,1.85-2.83,4.05-8.47,4.05Z"/>
    <path class="g" d="m118.45,146.65c-17.16,0-20.25-2.72-21.27-3.61l-.04-.03c-.78-.66-.87-1.83-.21-2.61.66-.78,1.83-.87,2.61-.21l.08.07c2.84,2.49,15.12,2.69,18.82,2.69s15.99-.19,18.82-2.69l.08-.07c.78-.66,1.95-.57,2.61.21.66.78.57,1.95-.21,2.61l-.04.03c-.73.64-1.95,1.48-4.88,2.21-3.75.93-9.27,1.4-16.39,1.4Z"/>
    <ellipse class="g" cx="105.58" cy="80.19" rx="2.97" ry="3.32"/>
    <path class="g" d="m103.71,119.43c-.22,0-.43-.04-.65-.12-4.21-1.57-7.4-3.67-10.03-6.6-3.35-3.73-5.69-8.72-7.16-15.26-.22-1,.4-1.99,1.4-2.21,1-.23,1.99.4,2.21,1.4,2.94,13.13,9.17,17.07,14.87,19.2.96.36,1.45,1.43,1.09,2.39-.28.75-.99,1.21-1.74,1.21Z"/>
    <path class="g" d="m133.19,119.43c-.75,0-1.46-.46-1.74-1.21-.36-.96.13-2.03,1.09-2.39,10.29-3.85,13.29-11.86,14.86-19.19.22-1,1.2-1.64,2.2-1.42,1,.22,1.64,1.2,1.42,2.2-1.4,6.53-3.73,11.53-7.12,15.28-2.63,2.92-5.84,5.02-10.08,6.6-.21.08-.43.12-.65.12Z"/>
    <path class="h" d="m118.45,213.49c-13.7,0-52.35-2.89-59.33-13.85-.56-7.16-2.24-36.91.9-44.74,2.96-7.4,10.44-11.96,19.22-15.03,5.55-1.94,14.49-3.65,17.75-6.39l21.46,37.82,21.46-37.83c3.27,2.75,12.21,4.46,17.75,6.4,8.78,3.07,16.26,7.63,19.22,15.03,3.13,7.83,1.46,37.58.9,44.74-6.99,10.96-45.64,13.85-59.33,13.85Z"/>
    <path class="g" d="m118.45,173.16c-.67,0-1.28-.36-1.61-.94l-21.46-37.82c-.51-.89-.19-2.02.7-2.53.89-.51,2.02-.19,2.53.7l19.85,34.98,19.85-34.99c.51-.89,1.64-1.2,2.53-.7.89.51,1.2,1.64.7,2.53l-21.46,37.83c-.33.58-.95.94-1.61.94Z"/>
    <path class="g" d="m110.36,179.2c-.32,0-.65-.11-.91-.33l-23.37-19.17c-.34-.27-.53-.69-.53-1.12,0-.43.2-.84.54-1.12l5.48-4.43-5.17-4.76c-.31-.28-.48-.69-.46-1.1.01-.42.21-.81.53-1.07l6.91-5.63c.62-.5,1.53-.41,2.03.21.5.62.41,1.53-.21,2.03l-5.62,4.58,5.17,4.76c.31.28.48.69.46,1.11-.01.42-.21.81-.54,1.08l-5.4,4.36,22,18.05c.62.51.71,1.41.2,2.03-.28.35-.7.53-1.12.53Z"/>
    <path class="g" d="m126.53,179.2c-.42,0-.83-.18-1.12-.53-.51-.62-.42-1.52.2-2.03l22-18.05-5.4-4.36c-.33-.26-.52-.66-.54-1.08-.01-.42.16-.82.46-1.11l5.17-4.76-5.62-4.58c-.62-.5-.71-1.41-.21-2.03.5-.62,1.41-.71,2.03-.21l6.91,5.63c.32.26.52.66.53,1.07.01.42-.16.82-.46,1.1l-5.17,4.76,5.48,4.43c.34.27.53.68.54,1.12,0,.43-.19.85-.53,1.12l-23.37,19.17c-.27.22-.59.33-.91.33Z"/>
    <path class="g" d="m150.92,82.4s-.03,0-.04,0c-.85-.02-1.58-.62-1.77-1.45l-3.31-14.73c-2.76-.15-9.2-.63-17.24-2.2-9.8-1.91-23.88-5.85-35.35-13.8-.84-.58-1.05-1.74-.47-2.58.58-.84,1.74-1.05,2.58-.47,20.99,14.56,51.71,15.39,52.02,15.4.85.02,1.58.62,1.77,1.45l2.07,9.19c.42-.34.98-.5,1.55-.38,1,.21,1.65,1.19,1.44,2.19-.4,1.94-.89,3.96-1.45,6.01-.22.81-.95,1.36-1.79,1.36Z"/>
    <path class="g" d="m85.98,82.4c-.83,0-1.57-.56-1.79-1.36-.51-1.87-.97-3.73-1.35-5.52-.21-1,.42-1.99,1.43-2.2.5-.11.99,0,1.38.25l2.15-9.54c.03-.13.07-.26.13-.38.08-.17,2.04-4.31,8.98-13.4.62-.81,1.78-.97,2.6-.35.81.62.97,1.78.35,2.6-5.9,7.72-8.07,11.73-8.49,12.56l-3.58,15.9c-.19.83-.92,1.43-1.77,1.45-.01,0-.03,0-.04,0Z"/>
    <path class="g" d="m145.9,57.93c-.31,0-.62-.12-.86-.35-8.1-7.91-22.98-16.1-34.63-19.03-.66-.17-1.06-.84-.9-1.5.17-.66.84-1.06,1.5-.9,12.01,3.03,27.38,11.48,35.75,19.66.49.48.5,1.26.02,1.75-.24.25-.56.37-.88.37Z"/>
    <path class="g" d="m118.45,215.35c-6.24,0-17.56-.58-28.94-2.2-13.97-1.99-23.82-4.92-29.27-8.7-2.55-1.76-4.14-4.57-4.37-7.7-.34-4.65-.52-35.17,2.43-42.52,2.81-7.03,9.46-12.29,20.33-16.09,1.78-.62,3.83-1.2,5.99-1.82,4.33-1.23,9.23-2.61,11.18-4.25,4.96-4.17,5.36-8.04,5.83-12.52.07-.72.15-1.46.25-2.21.13-1.02,1.06-1.73,2.08-1.6,1.02.13,1.73,1.06,1.6,2.08-.09.7-.17,1.41-.24,2.11-.48,4.61-1.02,9.84-7.13,14.98-2.55,2.15-7.64,3.59-12.55,4.98-2.11.6-4.11,1.16-5.78,1.75-9.8,3.43-15.72,8-18.11,13.97-2.41,6.02-2.6,35.01-2.17,40.87.15,2.01,1.16,3.81,2.78,4.93,4.91,3.4,14.48,6.19,27.68,8.08,11.19,1.6,22.31,2.17,28.42,2.17,13.48,0,44.93-2.5,56.11-10.24,1.62-1.12,2.64-2.92,2.78-4.93.43-5.88.23-34.88-2.18-40.87-2.39-5.97-8.32-10.54-18.11-13.97-1.67-.58-3.66-1.15-5.77-1.75-4.92-1.39-10-2.83-12.56-4.98-6.11-5.14-6.65-10.37-7.13-14.98-.07-.69-.15-1.41-.24-2.1-.13-1.02.58-1.95,1.6-2.08,1.02-.13,1.95.58,2.08,1.6.1.74.17,1.49.25,2.2.46,4.48.86,8.35,5.83,12.52,1.95,1.64,6.86,3.03,11.19,4.25,2.17.61,4.21,1.19,5.99,1.81,10.87,3.8,17.52,9.06,20.33,16.09,2.93,7.33,2.77,37.86,2.43,42.52-.23,3.13-1.82,5.94-4.37,7.71-5.46,3.78-15.31,6.71-29.27,8.7-11.39,1.63-22.71,2.2-28.94,2.2Z"/>
    <ellipse class="g" cx="131.31" cy="80.19" rx="2.97" ry="3.32"/>
    <path class="g" d="m128.1,74.38c-.47,0-.94-.23-1.22-.66-.43-.67-.23-1.56.44-1.99.9-.58,4.11-2.46,7.62-2.46.8,0,1.44.65,1.44,1.44s-.65,1.44-1.44,1.44c-2.17,0-4.55,1.04-6.07,2-.24.15-.51.23-.78.23Z"/>
    <path class="g" d="m108.79,74.38c-.27,0-.54-.07-.78-.23-1.51-.97-3.9-2-6.06-2-.8,0-1.44-.65-1.44-1.44s.65-1.44,1.44-1.44c3.51,0,6.72,1.88,7.62,2.46.67.43.87,1.32.44,1.99-.28.43-.74.66-1.22.66Z"/>
  </g>
  <g>
    <path class="c" d="m29.55,139.63l-1.78-8.64c-.25-1.21.13-2.47,1-3.34,1.04-1.04,2.61-1.36,3.98-.82,1.15.46,1.98,1.46,2.23,2.67l-.34-1.67c-.25-1.21.13-2.46,1-3.34,1.04-1.04,2.61-1.36,3.97-.82,1.15.46,1.98,1.46,2.23,2.67l-.26-1.29c-.25-1.21.13-2.46,1-3.34,1.04-1.04,2.6-1.36,3.97-.82,1.15.46,1.98,1.47,2.23,2.67l-3.47-16.86c-.25-1.21.13-2.46,1-3.34,1.04-1.04,2.61-1.36,3.98-.82,1.15.46,1.98,1.46,2.23,2.67l5.74,27.91.36.05,1.52-10.67c.17-1.23.95-2.28,2.07-2.8,1.33-.64,2.91-.41,4.02.57.92.82,1.38,2.05,1.2,3.27,0,0-1.88,14.17-2.56,17.99-2.65,14.88-7.41,14.68-15.73,16.39-8.86,1.82-15.7.68-17.91-10.09-.61-2.97-1.21-5.93-1.68-8.22Z"/>
    <g>
      <path class="g" d="m58.26,135c-.86,0-1.63-.6-1.81-1.48l-5.74-27.91c-.12-.6-.54-1.1-1.11-1.33-.68-.27-1.45-.11-1.97.41-.43.44-.62,1.06-.5,1.66l3.47,16.86c.21,1-.44,1.98-1.44,2.19-1,.21-1.98-.44-2.19-1.44l-3.47-16.86c-.37-1.82.19-3.7,1.5-5.02,1.57-1.57,3.91-2.06,5.98-1.23,1.73.7,2.99,2.2,3.36,4.02l5.74,27.91c.21,1-.44,1.98-1.44,2.19-.13.03-.25.04-.38.04Z"/>
      <path class="g" d="m46.96,138.5c-.7,0-1.4-.13-2.07-.4-1.73-.69-2.98-2.19-3.36-4.02-.21-1,.44-1.98,1.44-2.19,1-.2,1.98.44,2.19,1.44.12.6.54,1.1,1.11,1.33.68.28,1.45.12,1.97-.4.43-.43.62-1.05.49-1.66l-1.78-8.64c-.12-.6-.54-1.1-1.11-1.33-.68-.27-1.45-.11-1.97.41-.43.44-.62,1.06-.5,1.66l.26,1.29c.21,1-.44,1.98-1.44,2.19-1,.21-1.98-.44-2.19-1.44l-.26-1.29c-.37-1.82.19-3.7,1.5-5.02,1.57-1.57,3.91-2.06,5.98-1.23,1.73.7,2.99,2.2,3.36,4.02l1.78,8.64c.38,1.83-.19,3.7-1.5,5.02-1.06,1.06-2.47,1.63-3.91,1.63Z"/>
      <path class="g" d="m40.02,141.27c-.7,0-1.4-.13-2.07-.4-1.73-.69-2.98-2.19-3.36-4.02-.21-1,.44-1.98,1.44-2.19,1-.21,1.98.44,2.19,1.44.12.6.54,1.1,1.11,1.33.68.28,1.45.12,1.97-.4.43-.43.62-1.05.49-1.66l-1.78-8.64c-.12-.6-.54-1.1-1.11-1.33-.68-.27-1.45-.11-1.97.41-.43.44-.62,1.06-.5,1.66l.34,1.67c.21,1-.44,1.98-1.44,2.19-1,.21-1.98-.44-2.19-1.44l-.34-1.67c-.37-1.82.19-3.7,1.5-5.02,1.57-1.57,3.91-2.06,5.98-1.23,1.73.7,2.99,2.2,3.36,4.02l1.78,8.64c.38,1.83-.19,3.7-1.5,5.02-1.06,1.06-2.47,1.63-3.91,1.63Z"/>
      <path class="g" d="m33.15,144.42c-.69,0-1.39-.13-2.06-.4-1.73-.7-2.99-2.2-3.36-4.02-.02-.08-.03-.15-.03-.22-.02-.07-.04-.14-.06-.22l-1.68-8.2c-.38-1.83.19-3.7,1.5-5.02,1.57-1.57,3.91-2.05,5.97-1.23,1.73.69,2.99,2.2,3.36,4.02l1.78,8.64c.37,1.82-.19,3.7-1.5,5.02-1.06,1.06-2.48,1.63-3.92,1.63Zm-1.85-5.39c.02.07.04.14.06.22.12.6.54,1.1,1.11,1.33.68.27,1.45.11,1.97-.41.43-.43.61-1.05.49-1.65l-1.78-8.64c-.12-.6-.54-1.1-1.1-1.33-.68-.27-1.46-.11-1.97.4-.44.44-.62,1.05-.5,1.66l1.68,8.2c.02.08.03.15.03.22Z"/>
      <path class="g" d="m43.09,160.5c-2.39,0-4.41-.4-6.17-1.19-3.88-1.76-6.34-5.39-7.51-11.09-.46-2.23-.91-4.45-1.3-6.39l-.46-2.28c-.48-2.36-.79-3.92-.79-3.92-.2-1,.45-1.98,1.45-2.18,1-.2,1.98.45,2.18,1.45,0,0,.31,1.56.79,3.91l.46,2.28c.39,1.93.84,4.15,1.3,6.38,1.36,6.62,4.41,8,5.41,8.46,2.39,1.09,5.67,1.15,10.31.2.61-.13,1.2-.24,1.78-.35,3.47-.68,5.98-1.17,7.88-2.92,2.09-1.93,3.56-5.62,4.62-11.63.66-3.73,2.53-17.76,2.55-17.9,0,0,0-.02,0-.02.09-.6-.13-1.21-.6-1.62-.55-.48-1.33-.6-1.99-.28-.56.26-.94.78-1.03,1.39l-1.59,11.17c-.1.68-.57,1.25-1.22,1.48-.41.15-10.12,3.73-8.35,13.45.18,1.01-.48,1.97-1.49,2.16-1.01.19-1.97-.48-2.16-1.49-.97-5.34.6-10.1,4.56-13.76,1.91-1.76,3.93-2.86,5.14-3.41l1.44-10.12c.26-1.84,1.42-3.42,3.11-4.22,2-.95,4.38-.62,6.04.86,1.39,1.24,2.07,3.08,1.8,4.91-.09.7-1.9,14.26-2.57,18.06-1.23,6.93-3.01,11.16-5.76,13.7-2.67,2.47-5.92,3.1-9.68,3.83-.56.11-1.14.22-1.74.35-2.4.49-4.53.74-6.42.74Z"/>
    </g>
  </g>
  <g>
    <g>
      <path class="c" d="m37.14,210.78l-1.36-5.37h97.3l-1.36,5.37c-.7,4.05-4.21,7.01-8.32,7.01H45.46c-4.11,0-7.62-2.96-8.32-7.01Z"/>
      <path class="g" d="m123.39,219.64H45.46c-5,0-9.25-3.56-10.13-8.48l-1.35-5.3c-.14-.55-.02-1.14.33-1.59s.89-.72,1.46-.72h97.3c.57,0,1.11.26,1.46.72.35.45.47,1.04.33,1.59l-1.35,5.3c-.88,4.92-5.13,8.48-10.13,8.48Zm-85.23-12.38l.78,3.06s.02.09.03.14c.54,3.17,3.28,5.47,6.49,5.47h77.93c3.22,0,5.95-2.3,6.49-5.47,0-.05.02-.1.03-.14l.78-3.06H38.16Z"/>
    </g>
    <g>
      <path class="c" d="m12.13,209.35L1.85,157.43c0-4.66,3.78-8.44,8.44-8.44h80.42c4.66,0,8.44,3.78,8.44,8.44l10.28,51.91c0,4.66-3.78,8.44-8.44,8.44H20.57c-4.66,0-8.44-3.78-8.44-8.44Z"/>
      <path class="g" d="m100.99,219.64H20.57c-5.61,0-10.19-4.52-10.29-10.1L.04,157.79c-.02-.12-.04-.24-.04-.36,0-5.68,4.62-10.29,10.29-10.29h80.42c5.61,0,10.19,4.52,10.29,10.1l10.24,51.74c.02.12.04.24.04.36,0,5.68-4.62,10.29-10.29,10.29ZM3.71,157.26l10.24,51.73c.02.12.04.24.04.36,0,3.63,2.95,6.59,6.59,6.59h80.42c3.57,0,6.49-2.86,6.58-6.42l-10.24-51.73c-.02-.12-.04-.24-.04-.36,0-3.63-2.95-6.59-6.59-6.59H10.29c-3.57,0-6.49,2.86-6.58,6.42Z"/>
    </g>
    <circle class="h" cx="55.64" cy="183.39" r="5.99"/>
  </g>
  <g>
    <path class="c" d="m161.19,186.22c-7.2-2-14.97-3.9-19.65-3.23-.55.08-1.84,1.11-3.45,2.62-.61-.79-3.76.96-4.77,1.5l-7.81,4.11c-1.09.58-1.82,1.66-1.94,2.89-.15,1.46.6,2.88,1.89,3.59.25.14.52.25.8.32-.32.37-.51.57-.51.57-.82.93-1.11,2.2-.79,3.39.38,1.42,1.58,2.48,3.04,2.69,1.22.17,2.45-.29,3.27-1.21l2.01-2.28c-.76.91-1.03,2.14-.72,3.3.39,1.42,1.58,2.48,3.04,2.68,1.23.17,2.45-.28,3.27-1.21l1.53-1.74s.01,0,.02,0c-.69.91-.93,2.08-.63,3.19.39,1.43,1.58,2.48,3.04,2.69,1.22.17,2.45-.29,3.27-1.21l1.95-2.14c-.54.86-.7,1.91-.43,2.91.39,1.42,1.59,2.48,3.05,2.68,1.22.17,2.45-.28,3.26-1.21l1.82-2.06s1.41-1.6,3.29-3.73c16.6,4.61,27.37-12.13,2.15-19.12Z"/>
    <g>
      <path class="g" d="m136.12,209.06c-.26,0-.52-.02-.78-.05-2.19-.31-3.99-1.89-4.57-4.03-.46-1.74-.06-3.59,1.08-4.97l.07-.09s.03-.03.04-.05l8.2-9.3c.68-.77,1.85-.84,2.62-.17.77.68.84,1.85.17,2.62l-1.16,1.32-7.08,8.02c-.38.46-.51,1.07-.36,1.64.19.7.78,1.22,1.51,1.33.61.09,1.21-.14,1.62-.6l10.15-11.53c.68-.77,1.85-.84,2.62-.17.77.68.84,1.85.17,2.62l-10.15,11.53c-1.06,1.2-2.57,1.87-4.14,1.87Z"/>
      <path class="g" d="m151.18,214.24c-.26,0-.52-.02-.78-.05-2.2-.31-4-1.89-4.58-4.03-.4-1.48-.16-3.06.64-4.36.16-.26.34-.5.55-.75,0,0,.02-.02.02-.03l7.64-8.28c.69-.75,1.87-.8,2.62-.1.75.69.8,1.87.1,2.62l-7.63,8.26c-.06.07-.11.14-.15.2,0,0-.01.02-.02.03-.27.43-.35.95-.22,1.44.19.7.79,1.23,1.51,1.33.61.08,1.21-.14,1.62-.6l1.82-2.06s1.41-1.6,3.29-3.73c.47-.53,1.2-.75,1.88-.56,7.45,2.07,13.57-.59,14.62-4.36.89-3.19-2.11-8.04-13.46-11.18-6.84-1.9-14.41-3.76-18.73-3.21-.21.12-.9.57-2.6,2.16-3.97,3.71-9.97,10.35-11.72,12.29-.28.32-.46.52-.5.57-.4.46-.55,1.09-.39,1.68.19.71.78,1.23,1.51,1.34.61.08,1.22-.14,1.62-.6l9.12-10.35c.68-.77,1.85-.84,2.62-.16.77.68.84,1.85.16,2.62l-9.13,10.35c-1.23,1.39-3.07,2.07-4.91,1.82-2.21-.31-4-1.89-4.58-4.04-.49-1.79-.04-3.7,1.19-5.1,0,0,0-.01.01-.02,0,0,.18-.2.5-.56,1.78-1.98,7.88-8.72,11.95-12.54,2.59-2.43,3.63-2.99,4.46-3.1,4.96-.71,12.74,1.16,20.4,3.28,13.97,3.88,17.45,10.68,16.04,15.75-.82,2.95-3.32,5.4-6.86,6.73-3.28,1.23-7.21,1.4-11.18.5-1.5,1.7-2.54,2.88-2.54,2.89l-1.82,2.06c-1.06,1.2-2.56,1.87-4.14,1.87Zm-9.37-29.41s0,0,0,0h0Z"/>
      <path class="g" d="m143.34,211.99c-.25,0-.51-.02-.76-.05-2.2-.31-4-1.89-4.58-4.04-.48-1.8-.04-3.71,1.19-5.1l8.45-9.59c.68-.77,1.85-.84,2.62-.17.77.68.84,1.85.17,2.62l-8.45,9.59c-.41.46-.56,1.09-.4,1.69.19.7.78,1.23,1.51,1.33.61.08,1.22-.14,1.62-.6,0,0,.01-.02.02-.02l9.95-10.9c.69-.76,1.86-.81,2.62-.12.76.69.81,1.86.12,2.62l-9.95,10.89c-1.06,1.19-2.57,1.86-4.14,1.86Z"/>
      <path class="g" d="m126.27,199.88c-.15,0-.31-.02-.47-.06h0c-.42-.11-.83-.28-1.22-.49-1.95-1.07-3.06-3.19-2.84-5.4.19-1.85,1.28-3.48,2.92-4.35l8-4.22c2.27-1.21,5.38-2.87,6.91-.88.62.81.47,1.98-.35,2.6-.56.43-1.29.49-1.89.22-.39.1-1.21.41-2.93,1.33l-.21.11-7.81,4.11c-.54.29-.9.82-.96,1.44-.07.73.3,1.43.94,1.78.12.07.25.12.37.15.99.26,1.59,1.27,1.33,2.26-.22.83-.97,1.39-1.79,1.39Zm10.35-13.14s0,0,0,0c0,0,0,0,0,0Z"/>
    </g>
  </g>
  <g>
    <path class="c" d="m176.4,122.63c0-5.66-4.2-10.92-8.73-10.92,4.53,0,8.73-5.26,8.73-10.92,0,5.66,4.2,10.92,8.73,10.92-4.53,0-8.73,5.26-8.73,10.92Z"/>
    <path class="g" d="m176.4,124.48c-1.02,0-1.85-.83-1.85-1.85,0-4.57-3.41-9.06-6.88-9.06-1.02,0-1.85-.83-1.85-1.85s.83-1.85,1.85-1.85c3.47,0,6.88-4.49,6.88-9.06,0-1.02.83-1.85,1.85-1.85s1.85.83,1.85,1.85c0,4.57,3.41,9.06,6.88,9.06,1.02,0,1.85.83,1.85,1.85s-.83,1.85-1.85,1.85c-3.47,0-6.88,4.49-6.88,9.06,0,1.02-.83,1.85-1.85,1.85Zm-3.49-12.77c1.37,1.02,2.57,2.39,3.49,4,.91-1.6,2.11-2.98,3.49-4-1.37-1.02-2.57-2.39-3.49-4-.91,1.6-2.11,2.98-3.49,4Z"/>
  </g>
  <g>
    <path class="c" d="m188.22,102.57c0-5.66-4.2-10.92-8.73-10.92,4.53,0,8.73-5.26,8.73-10.92,0,5.66,4.2,10.92,8.73,10.92-4.53,0-8.73,5.26-8.73,10.92Z"/>
    <path class="g" d="m188.22,104.42c-1.02,0-1.85-.83-1.85-1.85,0-4.57-3.41-9.06-6.88-9.06-1.02,0-1.85-.83-1.85-1.85s.83-1.85,1.85-1.85c3.47,0,6.88-4.49,6.88-9.06,0-1.02.83-1.85,1.85-1.85s1.85.83,1.85,1.85c0,4.57,3.41,9.06,6.88,9.06,1.02,0,1.85.83,1.85,1.85s-.83,1.85-1.85,1.85c-3.47,0-6.88,4.49-6.88,9.06,0,1.02-.83,1.85-1.85,1.85Zm-3.49-12.77c1.37,1.02,2.57,2.39,3.49,4,.91-1.6,2.11-2.98,3.49-4-1.37-1.02-2.57-2.39-3.49-4-.91,1.6-2.11,2.98-3.49,4Z"/>
  </g>
  <g>
    <g>
      <path class="g" d="m44.58,21.16c-1.02,0-1.85-.83-1.85-1.85V1.85c0-1.02.83-1.85,1.85-1.85s1.85.83,1.85,1.85v17.46c0,1.02-.83,1.85-1.85,1.85Z"/>
      <path class="g" d="m34.66,22.74c-.78,0-1.51-.5-1.76-1.28l-5.39-16.6c-.32-.97.22-2.02,1.19-2.34.97-.32,2.02.22,2.34,1.19l5.39,16.6c.32.97-.22,2.02-1.19,2.34-.19.06-.38.09-.57.09Z"/>
      <path class="g" d="m25.72,27.29c-.57,0-1.14-.27-1.5-.76l-10.26-14.12c-.6-.83-.42-1.99.41-2.59.83-.6,1.99-.42,2.59.41l10.26,14.12c.6.83.42,1.99-.41,2.59-.33.24-.71.35-1.09.35Z"/>
      <path class="g" d="m18.62,34.39c-.38,0-.76-.12-1.09-.35L3.41,23.78c-.83-.6-1.01-1.76-.41-2.59.6-.83,1.76-1.01,2.59-.41l14.12,10.26c.83.6,1.01,1.76.41,2.59-.36.5-.93.76-1.5.76Z"/>
    </g>
    <g>
      <g>
        <path class="c" d="m41.51,67.34c0-1.23.52-2.38,1.37-3.06,1.03-.81,2.36-.81,3.38,0,.86.68,1.37,1.83,1.37,3.06v13.32c0,1.23-.52,2.38-1.37,3.06-1.03.81-2.36.81-3.38,0-.86-.68-1.37-1.83-1.37-3.06v-13.32Z"/>
        <path class="g" d="m44.58,86.18c-1,0-1.99-.34-2.84-1.01-1.3-1.03-2.08-2.71-2.08-4.51v-13.32c0-1.8.78-3.48,2.08-4.51,1.7-1.34,3.98-1.34,5.68,0,1.3,1.03,2.08,2.71,2.08,4.51v13.32c0,1.8-.78,3.48-2.08,4.51-.85.67-1.85,1.01-2.84,1.01Zm0-20.65c-.18,0-.37.07-.54.21-.41.33-.67.94-.67,1.6v13.32c0,.66.26,1.27.67,1.6.35.28.73.28,1.08,0,.41-.33.67-.94.67-1.6v-13.32c0-.66-.26-1.27-.67-1.6-.17-.14-.36-.21-.54-.21Z"/>
      </g>
      <g>
        <circle class="c" cx="44.58" cy="50.38" r="20.04"/>
        <path class="g" d="m44.58,72.27c-12.07,0-21.89-9.82-21.89-21.89s9.82-21.89,21.89-21.89,21.89,9.82,21.89,21.89-9.82,21.89-21.89,21.89Zm0-40.08c-10.03,0-18.18,8.16-18.18,18.18s8.16,18.18,18.18,18.18,18.18-8.16,18.18-18.18-8.16-18.18-18.18-18.18Z"/>
      </g>
      <circle class="f" cx="43.85" cy="52.61" r="13.68"/>
      <g>
        <g>
          <path class="c" d="m37.92,77.07c-1.23,0-2.38-.52-3.06-1.37-.81-1.03-.81-2.36,0-3.38.68-.86,1.83-1.37,3.06-1.37h13.32c1.23,0,2.38.52,3.06,1.37.81,1.03.81,2.36,0,3.38-.68.86-1.83,1.37-3.06,1.37h-13.32Z"/>
          <path class="g" d="m51.24,78.92h-13.32c-1.8,0-3.48-.78-4.51-2.08-1.34-1.7-1.34-3.98,0-5.68,1.03-1.3,2.71-2.08,4.51-2.08h13.32c1.8,0,3.48.78,4.51,2.08,1.34,1.7,1.34,3.98,0,5.68-1.03,1.3-2.71,2.08-4.51,2.08Zm-13.32-6.13c-.66,0-1.27.26-1.6.67-.28.35-.28.73,0,1.08.33.41.94.67,1.6.67h13.32c.66,0,1.27-.26,1.6-.67.28-.35.28-.73,0-1.08-.33-.41-.94-.67-1.6-.67h-13.32Z"/>
        </g>
        <g>
          <path class="c" d="m35.05,70.93c-1.23,0-2.38-.52-3.06-1.37-.81-1.03-.81-2.36,0-3.38.68-.86,1.83-1.37,3.06-1.37h19.05c1.23,0,2.38.52,3.06,1.37.81,1.03.81,2.36,0,3.38-.68.86-1.83,1.37-3.06,1.37h-19.05Z"/>
          <path class="g" d="m54.11,72.79h-19.05c-1.8,0-3.48-.78-4.51-2.08-1.34-1.7-1.34-3.98,0-5.68,1.03-1.3,2.71-2.08,4.51-2.08h19.05c1.8,0,3.48.78,4.51,2.08,1.34,1.7,1.34,3.98,0,5.68-1.03,1.3-2.71,2.08-4.51,2.08Zm-19.05-6.13c-.66,0-1.27.26-1.6.67-.28.35-.28.73,0,1.08.33.41.94.67,1.6.67h19.05c.66,0,1.27-.26,1.6-.67.28-.35.28-.73,0-1.08-.33-.41-.94-.67-1.6-.67h-19.05Z"/>
        </g>
      </g>
      <path class="g" d="m51.71,65.99l-3.03-2.13c.08-.11,7.82-11.31,1.87-15.82-1.02-.77-2.01-1.04-3-.81.47.64.87,1.34,1.2,2.08.83,1.9,1.03,3.78.55,5.29-.64,2.02-2.36,3.17-4.71,3.17s-4.07-1.16-4.71-3.17c-.48-1.51-.29-3.39.55-5.29.33-.74.73-1.44,1.2-2.08-1-.23-1.99.04-3,.81-5.95,4.5,1.79,15.7,1.87,15.82l-3.03,2.13c-.1-.14-2.41-3.45-3.78-7.54-2.5-7.46.09-11.39,2.71-13.37,2.59-1.96,5.55-2.17,8.21-.6,2.66-1.57,5.61-1.37,8.21.6,2.61,1.98,5.2,5.9,2.71,13.37-1.37,4.09-3.68,7.4-3.78,7.54Zm-7.13-16.52c-.99,1.4-1.47,3.07-1.17,4.02.07.22.19.59,1.17.59s1.1-.37,1.17-.59c.3-.94-.18-2.62-1.17-4.02Z"/>
    </g>
  </g>
</svg>