<svg xmlns="http://www.w3.org/2000/svg" viewBox="0 0 521.63 102.15">
    <defs>
        <style>.cls-1{fill:#85d3f2;}</style>
    </defs>
    <g id="レイヤー_2" data-name="レイヤー 2">
        <g id="レイヤー_1のコピー" data-name="レイヤー 1のコピー">
            <path class="cls-1"
                  d="M0,64.44c0-11,12.6-34.29,21.78-51.93A43.7,43.7,0,0,0,26.19,0l7.47,3.33c0,1.89-2.07,5.76-3.69,9C21.15,29.61,7.2,55,7.2,64.53c0,2.25.72,5.22,3.33,5.22,6.21,0,14.49-15.84,17.82-21.87l6.3,3.51C29.43,60.93,21,76.05,10.26,76.05,3.78,76.05,0,70.92,0,64.44Z"/>
            <path class="cls-1"
                  d="M74.52,51.39C67.41,64.35,56.61,76.05,42,76.05c-9.72,0-17.28-5.22-17.28-15,0-12.78,13.77-32.49,27.27-32.49,16.47,0,10.62,28.26-7.11,28.26a21.3,21.3,0,0,1-11.34-3.51A22.4,22.4,0,0,0,32,60.75c0,5.94,4.41,9,10.08,9,11.7,0,20.52-11.7,26.19-21.87ZM36.81,47a15,15,0,0,0,8.37,3.51c7.92,0,12.87-15.66,5.76-15.66C46.71,34.83,40.86,40.41,36.81,47Z"/>
            <path class="cls-1"
                  d="M162.81,51.39c-6.66,12.15-14.13,19.8-23.58,19.8a23.31,23.31,0,0,1-11.52-3.42c-2.34,3-4.59,5.76-6.48,8.28-.27-.09-12.42,1.53-13-10.8-2,2.88-4.59,6.39-7.74,10.8-.45-.18-14.22,1.71-14.22-11.79,0-11,9.54-26.19,13.68-33.84l7.47,4c-1.71,1.17-3.69,3.87-5.4,6.93C98,48.6,93.42,58,93.42,64.26c0,3.06,1.08,4.95,3.24,5.31,4.59-6.57,14-18.09,15.75-21.15,3.06-7,7.11-13.68,9.45-18l7.47,4a24.61,24.61,0,0,0-5.49,7.11c-3.87,7.11-8.46,16.47-8.46,22.77,0,1.8.36,4.59,2.16,5.13,4.59-6.12,16.92-19.71,22.86-30.42A15.83,15.83,0,0,0,142,31.14l8.46,1.8c-1.62,8.37-10,19.26-18.09,29.16a17.48,17.48,0,0,0,8,2.43c6.48,0,10.35-6.3,16.11-16.65Z"/>
            <path class="cls-1"
                  d="M202.68,51.39c-7.11,13-17.91,24.66-32.49,24.66-9.72,0-17.28-5.22-17.28-15,0-12.78,13.77-32.49,27.27-32.49,16.47,0,10.62,28.26-7.11,28.26a21.3,21.3,0,0,1-11.34-3.51,22.4,22.4,0,0,0-1.62,7.47c0,5.94,4.41,9,10.08,9,11.7,0,20.52-11.7,26.19-21.87ZM165,47a15,15,0,0,0,8.37,3.51c7.92,0,12.87-15.66,5.76-15.66C174.87,34.83,169,40.41,165,47Z"/>
            <path class="cls-1"
                  d="M248.12,51.39c-4.49,8.19-12,17.1-21.32,17.1a14.92,14.92,0,0,1-5.22-1c-4.5,5.13-10.08,8.55-15.66,8.55a10.66,10.66,0,0,1-10.44-7.11c-.63,1.53-1.17,3.15-1.71,4.68l-8.64-3c2.61-3,5-8.19,6.75-12.33,7.29-17.73,15.48-33.3,21.87-46,2.07-3.69,5.31-9.9,6.12-11.52l7.92,3.6a32,32,0,0,0-5.94,7.83L212,31.77a14.87,14.87,0,0,1,9-3.24c6.21,0,11.07,4.32,11.07,13.5,0,6.3-2.25,13.23-5.85,19.26h.63c6.21,0,12.06-8,15-13.41ZM224.82,42c0-3.42-.72-7.2-4.14-7.2-4.32,0-12.51,5.94-17.28,14.94l-1.62,3.6c-2.07,5.67-1.71,16.38,4.5,16.38C213.48,69.75,224.82,55,224.82,42Z"/>
            <path class="cls-1"
                  d="M315.26,47.88l6.3,3.51c-5.22,9.54-13.68,24.66-24.57,24.66-6.3,0-10.08-5.13-10.08-10.71V65c-4.31,5.76-9.89,11.07-16.28,11.07-6.84,0-10-6.21-10-12.87,0-13.41,11.61-34.65,25.74-34.65,5.48,0,8.9,3.42,11.06,6.66C304.19,21.33,312.38,7,316.07.36L323.9,4.5a47.11,47.11,0,0,0-7.2,9.63c-8.64,15.75-22.59,42.39-22.59,50.94,0,2.7,1.35,4.68,3.51,4.68C303.65,69.75,311.93,53.91,315.26,47.88Zm-23.76.72c.73-1.8,1.44-3.69,2.34-5.58l-.81.27c-.72-4.86-2.7-8.46-7.47-8.46-8.09,0-17.63,17.82-17.63,28.53,0,4.41,1.53,6.39,3.42,6.39C275.4,69.75,284,60.75,291.5,48.6Z"/>
            <path class="cls-1"
                  d="M361.43,51.39c-7.11,13-17.91,24.66-32.48,24.66-9.72,0-17.28-5.22-17.28-15,0-12.78,13.77-32.49,27.27-32.49,16.46,0,10.62,28.26-7.11,28.26a21.3,21.3,0,0,1-11.34-3.51,22.4,22.4,0,0,0-1.62,7.47c0,5.94,4.41,9,10.08,9,11.7,0,20.52-11.7,26.18-21.87ZM323.73,47a15,15,0,0,0,8.37,3.51c7.92,0,12.87-15.66,5.75-15.66C333.63,34.83,327.78,40.41,323.73,47Z"/>
            <path class="cls-1"
                  d="M373.94,46.26c2.25,4.23,6.66,7.56,6.66,15.57,0,8.55-7.65,14.31-15.92,14.31S349,70.2,349,61.56c0-6.57,4.05-11.7,6.12-13.68l6.3,3.51c-4.86,5.13-5.22,9.09-5.22,10.17,0,4.77,4.32,8.28,8.55,8.28s9.54-3.51,9.54-8c0-6.12-5.41-9.45-7.29-15.84a23.16,23.16,0,0,1-6.67-2.88l3-5.31a23.18,23.18,0,0,0,3.16,2c.8-7.56,7.1-12.15,14.48-12.15,3.69,0,7.29,1.8,7.83,6.48C389.6,40.77,382.58,45.36,373.94,46.26Zm8.73-10.53c0-1.44-.63-2.16-2.16-2.16-3.51,0-7.82,3.51-7.82,7.83C377,41.4,382.67,38.61,382.67,35.73Z"/>
            <path class="cls-1"
                  d="M387.54,64.44c0-8.37,5.85-19.26,14.66-34.2l6.93,4.23A35.53,35.53,0,0,0,404,41.4c-4.05,7-9.27,17.28-9.27,23,0,2.25.72,5.31,3.42,5.31,6.12,0,14.31-15.75,17.73-21.87l6.3,3.51c-5.31,9.54-13.68,24.66-24.48,24.66C391.23,76.05,387.54,70.83,387.54,64.44ZM406,21.87l5.76-11.16L418.22,14l-5.76,11.16Z"/>
            <path class="cls-1"
                  d="M469.61,51.39c-5.22,9.63-14.22,17.19-22.95,17.19a16.27,16.27,0,0,1-4.59-.72c-9.63,20.61-17.64,34.29-30,34.29-7.55,0-12.33-5.85-13.58-9.36l7.29-4.32c.54,3.15,2.34,7.38,6.47,7.38,7.11,0,13.41-10,20.34-24.48-3.15,2.79-6.66,4.68-10.44,4.68-6.84,0-10-6.21-10-12.87,0-13.41,11.61-34.65,25.74-34.65,5.49,0,9.09,3.51,11.16,6.84.81-1.62,1.53-3.24,2.34-4.86l8.28,2.16c-4.23,5.94-9.81,18.18-13.32,25.83-.45.9-.81,1.8-1.26,2.7a11,11,0,0,0,1.71.18c5.85,0,12.42-6.12,16.47-13.5ZM443,48.6c.9-1.89,1.71-3.78,2.61-5.67l-1,.36c-.72-4.86-2.7-8.46-7.47-8.46-8.1,0-17.64,17.82-17.64,28.53,0,4.41,1.53,6.39,3.42,6.39C427,69.75,435.59,60.75,443,48.6Z"/>
            <path class="cls-1"
                  d="M515.78,51.39c-5.4,9.72-13.68,24.66-24.75,24.66-6,0-10.08-4.32-10.08-10.8,0-9.9,10-19.26,10-25.38,0-2.61-2-5-4.05-5-5.67,0-17.55,17.37-21.33,26.1a108.69,108.69,0,0,0-4.68,12.51l-6.84-2A140.67,140.67,0,0,1,459,58.05h-.09l.81-1.8c2.7-6.39,5.4-12.15,6.48-16.65a7.55,7.55,0,0,0-1-5.76l7.83-3a14.61,14.61,0,0,1,.81,5.31c4.41-4.41,9.18-7.65,13.68-7.65,5.4,0,10.62,4.77,10.62,11.34,0,8.91-10,17.91-10,25.56,0,2.61,1.17,4.32,3.33,4.32,6.39,0,14.4-15.48,18-21.87Z"/>
            <path class="cls-1"
                  d="M509.75,70.74a6.83,6.83,0,0,1,6.75-6.66,5.09,5.09,0,0,1,5.13,5.4A6.75,6.75,0,0,1,515,76.05,5,5,0,0,1,509.75,70.74Z"/>
        </g>
    </g>
</svg>