<?xml version="1.0" encoding="utf-8"?>
<!-- Generator: Adobe Illustrator 25.2.3, SVG Export Plug-In . SVG Version: 6.00 Build 0)  -->
<svg version="1.1" id="レイヤー_1" xmlns="http://www.w3.org/2000/svg" xmlns:xlink="http://www.w3.org/1999/xlink" x="0px"
	 y="0px" viewBox="0 0 1000 1000" style="enable-background:new 0 0 1000 1000;" xml:space="preserve">
<style type="text/css">
	.st0{fill:#00B900;}
	.st1{fill:#FFFFFF;}
</style>
<g>
	<circle class="st0" cx="500.2" cy="499.8" r="500.2"/>
	<g id="TYPE_A_19_">
		<g>
			<path class="st1" d="M832.8,469.8c0-148.9-149.2-270-332.7-270c-183.4,0-332.7,121.1-332.7,270c0,133.5,118.4,245.2,278.2,266.4
				c10.8,2.3,25.6,7.1,29.3,16.4c3.4,8.4,2.2,21.6,1.1,30.1c0,0-3.9,23.5-4.7,28.5c-1.4,8.4-6.7,32.9,28.8,17.9
				c35.5-15,191.6-112.8,261.4-193.2h0C809.7,583,832.8,529.4,832.8,469.8"/>
			<g>
				<path class="st0" d="M432.6,397.9h-23.3c-3.6,0-6.5,2.9-6.5,6.5v145c0,3.6,2.9,6.5,6.5,6.5h23.3c3.6,0,6.5-2.9,6.5-6.5v-145
					C439,400.8,436.1,397.9,432.6,397.9"/>
				<path class="st0" d="M593.2,397.9h-23.3c-3.6,0-6.5,2.9-6.5,6.5v86.1l-66.4-89.7c-0.2-0.2-0.3-0.4-0.5-0.7c0,0,0,0,0,0
					c-0.1-0.1-0.3-0.3-0.4-0.4c0,0-0.1-0.1-0.1-0.1c-0.1-0.1-0.2-0.2-0.3-0.3c-0.1,0-0.1-0.1-0.2-0.1c-0.1-0.1-0.2-0.2-0.3-0.2
					c-0.1,0-0.1-0.1-0.2-0.1c-0.1-0.1-0.2-0.1-0.3-0.2c-0.1,0-0.1-0.1-0.2-0.1c-0.1-0.1-0.2-0.1-0.4-0.2c-0.1,0-0.1-0.1-0.2-0.1
					c-0.1,0-0.3-0.1-0.4-0.1c-0.1,0-0.1,0-0.2-0.1c-0.1,0-0.2-0.1-0.4-0.1c-0.1,0-0.2,0-0.3,0c-0.1,0-0.2,0-0.3,0
					c-0.1,0-0.2,0-0.3,0c-0.1,0-0.1,0-0.2,0h-23.3c-3.6,0-6.5,2.9-6.5,6.5v145c0,3.6,2.9,6.5,6.5,6.5h23.3c3.6,0,6.5-2.9,6.5-6.5
					v-86.1l66.5,89.8c0.5,0.6,1,1.2,1.6,1.6c0,0,0,0,0.1,0.1c0.1,0.1,0.3,0.2,0.4,0.2c0.1,0,0.1,0.1,0.2,0.1
					c0.1,0.1,0.2,0.1,0.3,0.2c0.1,0,0.2,0.1,0.3,0.1c0.1,0,0.1,0.1,0.2,0.1c0.2,0.1,0.3,0.1,0.4,0.1c0,0,0.1,0,0.1,0
					c0.5,0.1,1.1,0.2,1.7,0.2h23.3c3.6,0,6.5-2.9,6.5-6.5v-145C599.7,400.8,596.8,397.9,593.2,397.9"/>
				<path class="st0" d="M376.3,519.5h-63.4V404.4c0-3.6-2.9-6.5-6.5-6.5h-23.3c-3.6,0-6.5,2.9-6.5,6.5v144.9v0
					c0,1.7,0.7,3.3,1.8,4.5c0,0,0.1,0.1,0.1,0.1c0,0,0.1,0.1,0.1,0.1c1.2,1.1,2.7,1.8,4.5,1.8h0h93.2c3.6,0,6.5-2.9,6.5-6.5V526
					C382.8,522.4,379.9,519.5,376.3,519.5"/>
				<path class="st0" d="M722,434.2c3.6,0,6.5-2.9,6.5-6.5v-23.3c0-3.6-2.9-6.5-6.5-6.5h-93.2h0c-1.7,0-3.3,0.7-4.5,1.8
					c0,0-0.1,0-0.1,0.1c0,0-0.1,0.1-0.1,0.1c-1.1,1.2-1.8,2.7-1.8,4.5v0v144.9v0c0,1.7,0.7,3.3,1.8,4.5c0,0,0.1,0.1,0.1,0.1
					c0,0,0.1,0.1,0.1,0.1c1.2,1.1,2.7,1.8,4.5,1.8h0H722c3.6,0,6.5-2.9,6.5-6.5V526c0-3.6-2.9-6.5-6.5-6.5h-63.4V495H722
					c3.6,0,6.5-2.9,6.5-6.5v-23.3c0-3.6-2.9-6.5-6.5-6.5h-63.4v-24.5H722z"/>
			</g>
		</g>
	</g>
</g>
</svg>
