<?xml version="1.0" encoding="UTF-8"?>
<svg id="a" data-name="レイヤー 1" xmlns="http://www.w3.org/2000/svg" xmlns:xlink="http://www.w3.org/1999/xlink" viewBox="0 0 186.07 190">
  <defs>
    <style>
      .c {
        fill: #fff;
      }

      .d {
        fill: #d5eaff;
      }

      .e {
        clip-path: url(#b);
      }

      .e, .f {
        fill: none;
      }

      .g {
        fill: #1e1210;
      }
    </style>
    <clipPath id="b">
      <path class="f" d="m148.45,50.28l.13.03c6.79-.17,8.48,6.23,7.36,12.01-1.49,7.63-7.18,10.4-10.44,9.34-3,12.06-9.24,16.32-15.32,18.58h0c.68,5.17.31,10.29,6.57,15.54,3.2,2.69,11.93,4.36,17.35,6.25,8.58,3,15.89,7.46,18.79,14.69,2.6,6.49,2.63,35.51,2.25,40.76-.18,2.48-1.45,4.76-3.49,6.17-11.68,8.09-43.93,10.33-55.87,10.33s-44.19-2.25-55.86-10.33c-2.04-1.41-3.32-3.69-3.49-6.17-.38-5.25-.35-34.26,2.25-40.76,2.9-7.23,10.21-11.69,18.78-14.69,5.42-1.89,14.16-3.57,17.35-6.25,6.26-5.27,5.89-10.38,6.57-15.55-6.07-2.27-12.21-6.52-15.3-18.59h-.01c-3.26,1.07-8.96-1.7-10.44-9.33-1.12-5.77.56-12.18,7.36-12.01l.13-.03C71.49.32,115.76,6.27,115.76,6.27c0,0,44.28-5.95,32.68,44.01Z"/>
    </clipPath>
  </defs>
  <g>
    <g>
      <path class="d" d="m115.77,95.24s-32.02.2-42.83-10.53l3.68-27.65C61.77-1.06,115.77,1.83,115.77,1.83c0,0,53.99-2.9,39.15,55.23l3.68,27.65c-10.81,10.72-42.83,10.53-42.83,10.53h0Z"/>
      <path class="g" d="m115.98,97.05h-.22c-1.49,0-32.92.04-44.11-11.05-.4-.4-.59-.97-.52-1.53l3.63-27.3c-4.69-18.61-2.92-33.11,5.26-43.08,5.17-6.29,13.01-10.72,22.68-12.8C109.53-.17,114.95-.01,115.77.02c.81-.04,6.23-.2,13.05,1.27,9.67,2.09,17.52,6.51,22.68,12.8,8.18,9.97,9.95,24.46,5.26,43.08l3.63,27.3c.07.56-.12,1.13-.52,1.53-10.86,10.76-40.75,11.05-43.89,11.05h0Zm-41.12-13.03c4.34,3.8,12.53,6.62,23.8,8.18,9.12,1.26,17.02,1.22,17.1,1.22h.02c.08,0,8.02.03,17.14-1.23,11.24-1.56,19.42-4.38,23.76-8.17l-3.55-26.72c-.03-.23-.02-.46.04-.69,4.5-17.6,2.99-31.14-4.47-40.22-11.28-13.75-32.62-12.76-32.83-12.75h-.19c-.05,0-5.51-.26-12.3,1.21-6.15,1.34-14.71,4.43-20.55,11.56-7.45,9.09-8.94,22.62-4.45,40.21.06.22.07.46.04.69l-3.55,26.72h-.01Z"/>
    </g>
    <g class="e">
      <path class="c" d="m148.45,50.28l.13.03c6.79-.17,8.48,6.23,7.36,12.01-1.49,7.63-7.18,10.4-10.44,9.34-3,12.06-9.24,16.32-15.32,18.58h0c.68,5.17.31,10.29,6.57,15.54,3.2,2.69,11.93,4.36,17.35,6.25,8.58,3,15.89,7.46,18.79,14.69,2.6,6.49,2.63,35.51,2.25,40.76-.18,2.48-1.45,4.76-3.49,6.17-11.68,8.09-43.93,10.33-55.87,10.33s-44.19-2.25-55.86-10.33c-2.04-1.41-3.32-3.69-3.49-6.17-.38-5.25-.35-34.26,2.25-40.76,2.9-7.23,10.21-11.69,18.78-14.69,5.42-1.89,14.16-3.57,17.35-6.25,6.26-5.27,5.89-10.38,6.57-15.55-6.07-2.27-12.21-6.52-15.3-18.59h-.01c-3.26,1.07-8.96-1.7-10.44-9.33-1.12-5.77.56-12.18,7.36-12.01l.13-.03C74.24.62,115.76,1.83,115.76,1.83c0,0,41.24-1.74,32.68,48.44h0Z"/>
    </g>
    <path class="d" d="m95.41,25.05l-3.29-2.13c1.07.74,2.17,1.45,3.29,2.13Z"/>
    <path class="d" d="m115.77,5.12S69.29.25,84.03,54.05l3.54-15.75s1.83-3.93,8.58-12.76l-.75-.49c-1.12-.68-2.22-1.38-3.29-2.13l3.29,2.13c20.93,12.64,48.54,13.25,48.54,13.25l3.54,15.75C162.24.25,115.77,5.12,115.77,5.12Z"/>
    <path class="g" d="m101.35,92.05c-.21,0-.43-.04-.64-.11-3.94-1.47-6.95-3.4-9.45-6.08-3.17-3.37-5.44-7.84-6.94-13.64-.01-.04-.02-.08-.04-.12-.15-.59-.26-1.07-.37-1.53-.22-.98.4-1.94,1.37-2.16.98-.22,1.94.4,2.16,1.37.09.4.19.82.31,1.32.01.04.02.07.03.1,3.02,11.74,8.86,15.35,14.18,17.34.94.35,1.41,1.39,1.06,2.33-.27.73-.97,1.18-1.7,1.18h0Z"/>
    <path class="g" d="m84.58,73.69c-1.46,0-3.02-.44-4.48-1.31-1.85-1.09-5.12-3.79-6.28-9.72-.88-4.54-.13-8.63,2.06-11.23,1.68-2,4.14-3.01,7.11-2.94,1,.02,1.79.86,1.77,1.86-.02,1-.86,1.78-1.86,1.77-1.89-.04-3.28.5-4.26,1.65-1.44,1.7-1.93,4.84-1.28,8.19.38,1.94,1.47,5.48,4.55,7.29,1.23.73,2.6.98,3.55.68.95-.31,1.97.21,2.28,1.16s-.21,1.97-1.16,2.28c-.64.21-1.32.31-2.02.31h0Z"/>
    <path class="g" d="m130.17,92.05c-.74,0-1.43-.45-1.7-1.18-.35-.94.13-1.98,1.06-2.33,3.42-1.28,6.01-2.92,8.13-5.17,2.78-2.94,4.77-6.92,6.07-12.16.13-.51.23-.98.34-1.43.21-.98,1.17-1.6,2.15-1.39.98.21,1.6,1.17,1.39,2.15-.11.49-.22,1-.36,1.55-1.46,5.86-3.73,10.36-6.95,13.77-2.51,2.66-5.53,4.59-9.5,6.07-.21.08-.43.11-.64.11h0Z"/>
    <path class="g" d="m146.95,73.69c-.68,0-1.34-.1-1.97-.29-.76-.22-1.3-.92-1.3-1.74,0-1,.81-1.81,1.81-1.81h0c.19,0,.38.03.56.09.95.31,2.31.05,3.55-.68,1.32-.78,3.67-2.76,4.55-7.28.65-3.35.16-6.49-1.28-8.19-.98-1.16-2.37-1.7-4.26-1.65-1.01.02-1.83-.77-1.86-1.77-.02-1,.77-1.83,1.77-1.86,2.97-.07,5.43.94,7.11,2.94,2.19,2.6,2.95,6.69,2.06,11.23-1.15,5.92-4.42,8.63-6.27,9.71-1.47.86-3.03,1.31-4.5,1.31h0Z"/>
    <path class="g" d="m84.03,55.86c-.8,0-1.52-.53-1.74-1.33-.37-1.34-.7-2.63-.97-3.85-.22-.98.39-1.95,1.37-2.17s1.95.39,2.17,1.37c.26,1.16.58,2.4.93,3.69.26.97-.3,1.96-1.26,2.23-.16.04-.32.07-.48.07h0Z"/>
    <path class="g" d="m147.5,55.86c-.16,0-.32-.02-.48-.07-.97-.26-1.53-1.26-1.26-2.23.35-1.28.67-2.52.93-3.69.22-.98,1.19-1.59,2.17-1.37.98.22,1.59,1.19,1.37,2.17-.28,1.22-.6,2.51-.97,3.85-.22.8-.95,1.33-1.74,1.33h0Z"/>
    <path class="g" d="m115.76,185.8c-6.1,0-17.16-.56-28.29-2.15-13.65-1.95-23.28-4.81-28.61-8.5-2.49-1.73-4.05-4.47-4.27-7.53-.34-4.55-.51-34.37,2.37-41.56,2.75-6.87,9.25-12.01,19.87-15.72,1.74-.61,3.74-1.17,5.86-1.77,4.23-1.2,9.02-2.55,10.92-4.15,4.85-4.08,5.24-7.86,5.69-12.24.07-.7.15-1.43.25-2.16.13-1,1.04-1.69,2.03-1.56,1,.13,1.69,1.04,1.56,2.03-.09.68-.16,1.38-.23,2.06-.47,4.51-1,9.62-6.97,14.64-2.49,2.1-7.46,3.51-12.27,4.86-2.06.58-4.02,1.14-5.65,1.71-9.57,3.35-15.36,7.81-17.7,13.65-2.36,5.89-2.55,34.21-2.12,39.95.14,1.97,1.13,3.72,2.72,4.81,4.8,3.32,14.15,6.05,27.06,7.89,10.94,1.56,21.8,2.12,27.77,2.12,13.18,0,43.92-2.45,54.84-10.01,1.58-1.1,2.58-2.85,2.72-4.81.42-5.74.22-34.09-2.13-39.95-2.34-5.84-8.13-10.3-17.7-13.65-1.63-.57-3.58-1.12-5.64-1.71-4.81-1.36-9.78-2.77-12.28-4.87-5.98-5.02-6.5-10.13-6.97-14.64-.07-.68-.14-1.38-.23-2.06-.13-1,.57-1.9,1.56-2.03s1.9.57,2.03,1.56c.1.73.17,1.45.24,2.15.46,4.38.85,8.16,5.69,12.24,1.91,1.6,6.7,2.96,10.93,4.16,2.12.6,4.12,1.16,5.85,1.77,10.62,3.71,17.12,8.86,19.87,15.72,2.87,7.16,2.71,37,2.37,41.56-.22,3.06-1.78,5.81-4.27,7.53-5.34,3.69-14.96,6.55-28.61,8.5-11.13,1.59-22.19,2.15-28.29,2.15h0Z"/>
    <path class="g" d="m115.76,118.66c-16.77,0-19.79-2.66-20.79-3.53l-.04-.03c-.76-.65-.85-1.79-.2-2.55.65-.76,1.79-.85,2.55-.2l.08.07c2.77,2.43,14.78,2.63,18.4,2.63s15.62-.19,18.4-2.63l.08-.07c.76-.65,1.91-.56,2.55.2.65.76.56,1.91-.2,2.55l-.04.03c-.71.63-1.91,1.44-4.77,2.16-3.67.91-9.06,1.37-16.02,1.37Z"/>
    <path class="g" d="m101.36,92.05c-.21,0-.43-.04-.64-.11-4.12-1.54-7.24-3.59-9.8-6.46-3.27-3.64-5.56-8.52-7-14.91-.22-.98.4-1.95,1.37-2.16.98-.22,1.95.4,2.16,1.37,2.88,12.83,8.96,16.69,14.53,18.77.94.35,1.41,1.4,1.06,2.33-.27.73-.97,1.18-1.7,1.18h0Z"/>
    <path class="g" d="m130.17,92.05c-.74,0-1.43-.45-1.7-1.18-.35-.94.13-1.98,1.06-2.33,10.06-3.76,12.99-11.59,14.53-18.75.21-.98,1.17-1.6,2.15-1.39.98.21,1.6,1.17,1.39,2.15-1.37,6.38-3.64,11.27-6.95,14.93-2.57,2.85-5.7,4.9-9.85,6.45-.21.08-.43.11-.64.11h0Z"/>
    <path class="d" d="m115.77,183.99c-13.39,0-51.16-2.82-57.99-13.54-.55-7-2.19-36.08.88-43.72,2.9-7.23,10.21-11.69,18.78-14.69,5.42-1.89,14.16-3.57,17.35-6.25l20.98,36.97,20.98-36.97c3.2,2.69,11.93,4.36,17.35,6.25,8.58,3,15.89,7.46,18.79,14.69,3.06,7.65,1.42,36.73.88,43.72-6.83,10.71-44.61,13.54-57.99,13.54h0Z"/>
    <path class="g" d="m115.77,144.57c-.65,0-1.25-.35-1.58-.92l-20.98-36.97c-.49-.87-.19-1.98.68-2.47.87-.5,1.98-.19,2.47.68l19.4,34.19,19.4-34.19c.49-.87,1.6-1.17,2.47-.68s1.17,1.6.68,2.47l-20.98,36.97c-.32.57-.92.92-1.58.92h0Z"/>
    <path class="g" d="m107.86,150.47c-.31,0-.63-.1-.89-.32l-22.85-18.74c-.33-.27-.52-.67-.52-1.1s.19-.83.52-1.09l5.36-4.33-5.05-4.65c-.3-.28-.47-.67-.46-1.08.01-.41.2-.79.52-1.05l6.75-5.51c.61-.49,1.49-.4,1.98.2.49.61.4,1.49-.2,1.98l-5.49,4.48,5.05,4.66c.3.28.47.67.46,1.09-.01.41-.2.79-.52,1.05l-5.28,4.27,21.51,17.64c.6.49.69,1.38.2,1.98-.28.34-.68.52-1.09.52h0Z"/>
    <path class="g" d="m123.66,150.47c-.41,0-.81-.17-1.09-.52-.49-.6-.41-1.49.2-1.98l21.51-17.64-5.28-4.27c-.32-.26-.51-.64-.52-1.05-.01-.41.15-.8.46-1.09l5.05-4.66-5.49-4.48c-.61-.49-.7-1.38-.2-1.98s1.38-.7,1.98-.2l6.75,5.51c.32.26.5.64.52,1.05s-.16.8-.46,1.08l-5.05,4.65,5.36,4.33c.33.26.52.67.52,1.09s-.19.83-.52,1.1l-22.85,18.74c-.26.22-.58.32-.89.32h0Z"/>
    <path class="g" d="m147.5,55.86h-.04c-.83-.02-1.54-.6-1.73-1.41l-3.24-14.39c-2.7-.14-8.99-.62-16.85-2.15-9.57-1.86-23.34-5.72-34.55-13.49-.82-.57-1.03-1.7-.46-2.52.57-.82,1.7-1.03,2.52-.46,20.51,14.23,50.54,15.05,50.84,15.05.83.02,1.55.6,1.73,1.41l2.02,8.98c.41-.34.96-.49,1.52-.37.98.2,1.61,1.16,1.4,2.14-.4,1.9-.88,3.88-1.42,5.87-.22.79-.94,1.33-1.74,1.33Z"/>
    <path class="g" d="m84.03,55.86c-.82,0-1.53-.55-1.74-1.33-.5-1.83-.95-3.65-1.32-5.4-.21-.98.41-1.94,1.39-2.15.49-.1.97,0,1.35.25l2.1-9.32c.03-.13.07-.25.13-.37.08-.17,1.99-4.21,8.78-13.1.61-.8,1.74-.95,2.54-.34.8.61.95,1.74.34,2.54-5.76,7.55-7.88,11.47-8.3,12.28l-3.49,15.54c-.18.81-.89,1.4-1.73,1.41h-.05Z"/>
    <path class="g" d="m142.59,31.95c-.31,0-.61-.11-.85-.34-7.91-7.73-22.46-15.73-33.84-18.6-.65-.16-1.04-.82-.88-1.47.16-.65.82-1.04,1.47-.88,11.74,2.96,26.76,11.22,34.94,19.22.48.47.49,1.23.02,1.71-.23.24-.55.37-.86.37h0Z"/>
    <path class="g" d="m115.76,185.8c-6.1,0-17.16-.56-28.29-2.15-13.65-1.95-23.28-4.81-28.61-8.5-2.49-1.73-4.05-4.47-4.27-7.53-.34-4.55-.51-34.37,2.37-41.56,2.75-6.87,9.25-12.01,19.87-15.72,1.74-.61,3.74-1.17,5.86-1.77,4.23-1.2,9.02-2.55,10.92-4.15,4.85-4.08,5.24-7.86,5.69-12.24.07-.7.15-1.43.25-2.16.13-1,1.04-1.69,2.03-1.56,1,.13,1.69,1.04,1.56,2.03-.09.68-.16,1.38-.23,2.06-.47,4.51-1,9.62-6.97,14.64-2.49,2.1-7.46,3.51-12.27,4.86-2.06.58-4.02,1.14-5.65,1.71-9.57,3.35-15.36,7.81-17.7,13.65-2.36,5.89-2.55,34.21-2.12,39.95.14,1.97,1.13,3.72,2.72,4.81,4.8,3.32,14.15,6.05,27.06,7.89,10.94,1.56,21.8,2.12,27.77,2.12,13.18,0,43.92-2.45,54.84-10.01,1.58-1.1,2.58-2.85,2.72-4.81.42-5.74.22-34.09-2.13-39.95-2.34-5.84-8.13-10.3-17.7-13.65-1.63-.57-3.58-1.12-5.64-1.71-4.81-1.36-9.78-2.77-12.28-4.87-5.98-5.02-6.5-10.13-6.97-14.64-.07-.68-.14-1.38-.23-2.06-.13-1,.57-1.9,1.56-2.03s1.9.57,2.03,1.56c.1.73.17,1.45.24,2.15.46,4.38.85,8.16,5.69,12.24,1.91,1.6,6.7,2.96,10.93,4.16,2.12.6,4.12,1.16,5.85,1.77,10.62,3.71,17.12,8.86,19.87,15.72,2.87,7.16,2.71,37,2.37,41.56-.22,3.06-1.78,5.81-4.27,7.53-5.34,3.69-14.96,6.55-28.61,8.5-11.13,1.59-22.19,2.15-28.29,2.15h0Z"/>
    <g>
      <path class="g" d="m115.76,66.98c-.44,0-.8-.36-.8-.8v-1.02c0-.44.36-.8.8-.8s.8.36.8.8v1.02c0,.44-.36.8-.8.8Z"/>
      <ellipse class="g" cx="103.19" cy="53.94" rx="2.91" ry="3.25"/>
      <path class="f" d="m92.62,51.81l.75,7.21c.22,2.15,2.03,3.78,4.2,3.78h10.77c2.16,0,3.97-1.63,4.2-3.78l.75-7.21h4.98l.75,7.21c.22,2.15,2.03,3.78,4.2,3.78h10.77c2.16,0,3.97-1.63,4.2-3.78l.75-7.21"/>
      <ellipse class="g" cx="128.34" cy="53.94" rx="2.91" ry="3.25"/>
      <path class="g" d="m117.12,78.58h-2.71c-.78,0-1.41-.63-1.41-1.41s.63-1.41,1.41-1.41h2.71c.78,0,1.41.63,1.41,1.41s-.63,1.41-1.41,1.41Z"/>
      <path class="g" d="m132.49,47.68h-.09c-2.33-.14-5.62-1.14-7.72-3.05-.58-.52-.62-1.41-.1-1.99.52-.58,1.41-.62,1.99-.1,1.37,1.23,3.84,2.19,6.01,2.33.78.05,1.37.72,1.32,1.49-.05.75-.67,1.32-1.4,1.32h0Z"/>
      <path class="g" d="m99.04,47.68c-.74,0-1.36-.58-1.4-1.32-.05-.78.54-1.44,1.32-1.49,2.18-.14,4.65-1.09,6.01-2.33.58-.52,1.47-.47,1.99.1.52.58.47,1.47-.1,1.99-2.11,1.9-5.4,2.9-7.72,3.05h-.1Z"/>
    </g>
  </g>
  <path class="g" d="m59.91,52.41c-.1,0-.21,0-.31-.03-.98-.17-1.65-1.11-1.47-2.1.12-.7.21-1.37.27-2.04-.31.12-.63.23-.95.33-2.51.8-5.38.88-7.87.21-1.4-.38-2.62-.98-3.63-1.77-2.32-.01-4.63-.56-6.67-1.67-5.21-2.82-8.18-9.04-7.07-14.78.27-1.38.77-2.7,1.46-3.91-.89.36-1.92-.04-2.33-.92-1.38-3-1.67-6.55-.82-10.01.82-3.36,2.66-6.41,5.18-8.61,4.87-4.25,12.27-5.6,18.85-3.45,3.48,1.14,6.66,3.35,8.95,6.21,2.46,3.07,3.7,6.71,3.51,10.26-.09,1.61-.49,3.17-1.14,4.61,1.38,2.42,2.35,5.06,2.8,7.78.89,5.43-1.71,10.62-6.56,13.83,0,1.73-.18,3.3-.4,4.54-.16.88-.92,1.5-1.78,1.5v.02Zm-7.45-6.82c1.37.08,2.75-.1,3.88-.46.68-.22,1.35-.49,2.01-.82-.13-1.04-.34-2.03-.66-2.94-.63.82-1.34,1.56-2.13,2.23-.95.8-2,1.46-3.11,1.98h0Zm-5.83-7.51c-.43,1.29-.41,2.79.1,4.12.16.41.36.77.61,1.1,2.15-.25,4.25-1.08,5.9-2.47,1-.83,1.82-1.86,2.47-3.01-.01-.02-.03-.03-.04-.05-1.92,1.95-4.77,2.35-7.78.99-.44-.2-.86-.43-1.25-.68h0Zm-8.63-11.31c-1.12,1.27-1.93,2.82-2.25,4.48-.8,4.16,1.45,8.85,5.25,10.9.68.37,1.41.66,2.17.86-.79-2.46-.58-5.16.57-7.36-.32-.34-.61-.67-.87-.97l-.1-.13c-1.91-2.25-4.01-4.71-4.76-7.78h0Zm21.87,10.68c.88,1.49,1.44,3.07,1.77,4.64,2.44-2.2,4.02-5.29,3.42-8.97-.28-1.67-.78-3.3-1.48-4.85-.8.92-1.7,1.74-2.7,2.44.16,2.3-.19,4.61-1.01,6.74Zm-10.8-2.15c.1.05.2.1.31.15,1.68.77,2.72.52,3.35.08-1.07-.5-2.02-.62-2.58-.53-.4.07-.76.17-1.08.31Zm-5.97-6.13c.7,1,1.53,1.98,2.42,3.02l.11.13c.16.19.32.37.47.53.41-.3.85-.56,1.31-.78-1.59-.7-3.06-1.68-4.3-2.9h0Zm7.68-3.73c-.48.91.13,2.42,1.23,3.05.44.25.97.41,1.53.48-.6-1.37-1.57-2.59-2.76-3.53Zm-7.24-1.91c.2.47.43.92.71,1.35.76,1.21,1.8,2.24,3,3.03-.41-1.38-.34-2.87.32-4.14-.93-.28-1.91-.41-2.88-.37-.38.02-.77.07-1.14.13h0Zm9.24-2.69c1.06,0,2.1.25,3.02.71,1.8.93,3.23,2.63,4.12,4.85.56-.56,1.06-1.18,1.49-1.86-1.68-2.29-3.84-4.24-6.29-5.61-2.74-1.53-5.78-1.99-8.36-1.26-1.41.4-2.69,1.2-3.64,2.24.46-.08.93-.13,1.4-.15,2.19-.1,4.35.41,6.26,1.38.18-.05.37-.11.55-.15.47-.11.96-.16,1.45-.16h0Zm-4.66-14.58c-3.75,0-7.39,1.24-10.06,3.57-4.09,3.57-5.58,9.75-3.45,14.36.11.25.17.5.17.75.91-1.16,2-2.16,3.21-2.97.23-.95.61-1.86,1.12-2.72.02-2.36.62-4.72,1.79-6.76,1.68-2.93,4.52-5.15,7.73-6.23-.17,0-.34,0-.51,0h0Zm1.14,7.46c2.54,0,5.19.7,7.62,2.06,2.26,1.26,4.3,2.93,6.03,4.89.18-1.04.19-2.11,0-3.15-.8-4.51-5.03-8.17-9.63-8.33-3.69-.13-7.4,1.93-9.24,5.13-.13.23-.26.47-.37.72.67-.34,1.37-.62,2.11-.83,1.12-.32,2.29-.47,3.49-.47Z"/>
  <path class="d" d="m181.27,40.22c-4.99,3.07-16.74,4.08-16.74,4.08,0,0,4.14-11.05,8.45-15.02,6.64-6.13,10.78-1.17,11.55-.15.77,1.03,4.44,6.35-3.26,11.08h0Z"/>
  <path class="d" d="m177.24,60.13c-4.56-.98-11.88-6.86-11.88-6.86,0,0,8.46-4.08,13.12-4,7.19.12,6.85,5.25,6.73,6.27-.11,1.01-.94,6.09-7.97,4.59Z"/>
  <g>
    <g>
      <path class="c" d="m36.3,181.34l-1.33-5.25h95.09l-1.33,5.25c-.68,3.96-4.11,6.85-8.13,6.85H44.43c-4.02,0-7.45-2.9-8.13-6.85h0Z"/>
      <path class="g" d="m120.59,190H44.43c-4.89,0-9.04-3.48-9.9-8.28l-1.32-5.18c-.14-.54-.02-1.11.32-1.56.34-.44.87-.7,1.43-.7h95.09c.56,0,1.09.26,1.43.7.34.44.46,1.02.32,1.56l-1.32,5.18c-.86,4.8-5.02,8.28-9.9,8.28h0Zm-83.3-12.1l.76,2.99s.02.09.03.14c.53,3.1,3.2,5.35,6.34,5.35h76.17c3.14,0,5.81-2.25,6.34-5.35,0-.05.02-.1.03-.14l.76-2.99H37.29Z"/>
    </g>
    <g>
      <path class="c" d="m11.86,179.94L1.81,129.2c0-4.56,3.69-8.25,8.25-8.25h78.6c4.56,0,8.25,3.69,8.25,8.25l10.05,50.74c0,4.56-3.69,8.25-8.25,8.25H20.11c-4.56,0-8.25-3.69-8.25-8.25h0Z"/>
      <path class="g" d="m98.7,190H20.11c-5.49,0-9.96-4.41-10.06-9.87L.04,129.55c-.02-.11-.04-.23-.04-.35,0-5.55,4.51-10.06,10.06-10.06h78.6c5.49,0,9.96,4.41,10.06,9.87l10.01,50.57c.02.11.04.23.04.35,0,5.55-4.51,10.06-10.06,10.06h0ZM3.63,129.03l10.01,50.55c.02.11.04.23.04.35,0,3.55,2.89,6.44,6.44,6.44h78.6c3.49,0,6.35-2.8,6.44-6.27l-10.01-50.55c-.02-.11-.04-.23-.04-.35,0-3.55-2.89-6.44-6.44-6.44H10.06c-3.49,0-6.35,2.8-6.44,6.27h0Z"/>
    </g>
    <circle class="d" cx="54.38" cy="154.57" r="5.86"/>
  </g>
  <g>
    <path class="c" d="m157.53,157.34c-7.03-1.95-14.63-3.82-19.2-3.16-.54.08-1.8,1.09-3.37,2.56-.59-.77-3.67.94-4.66,1.46l-7.63,4.02c-1.07.56-1.78,1.62-1.9,2.83-.14,1.43.59,2.82,1.85,3.51.25.14.51.24.78.31-.32.36-.5.56-.5.56-.8.91-1.09,2.15-.77,3.32.38,1.39,1.55,2.43,2.97,2.63,1.19.16,2.4-.28,3.2-1.18l1.96-2.22c-.74.89-1,2.1-.7,3.23.38,1.39,1.55,2.42,2.97,2.62,1.2.17,2.4-.28,3.2-1.18l1.49-1.7s.01,0,.02,0c-.67.89-.91,2.03-.62,3.11.38,1.4,1.55,2.43,2.97,2.63,1.19.16,2.4-.28,3.2-1.18l1.91-2.09c-.53.84-.68,1.87-.43,2.84.38,1.39,1.55,2.42,2.98,2.63,1.19.17,2.39-.28,3.19-1.18l1.78-2.01s1.37-1.56,3.22-3.65c16.23,4.5,26.75-11.85,2.1-18.69h0Z"/>
    <g>
      <path class="g" d="m133.04,179.65c-.25,0-.51-.02-.76-.05-2.15-.3-3.9-1.85-4.47-3.94-.46-1.7-.06-3.51,1.06-4.86l.07-.09s.02-.03.04-.04l8.01-9.09c.66-.75,1.8-.83,2.56-.16.75.66.82,1.8.16,2.56l-1.13,1.29-6.92,7.85c-.37.44-.5,1.04-.35,1.6.19.68.77,1.19,1.47,1.29.59.08,1.19-.13,1.58-.59l9.92-11.26c.66-.75,1.8-.82,2.56-.16.75.66.82,1.8.16,2.56l-9.92,11.26c-1.04,1.17-2.51,1.83-4.05,1.83h0Z"/>
      <path class="g" d="m147.76,184.72c-.25,0-.5-.02-.76-.05-2.15-.3-3.9-1.85-4.47-3.94-.39-1.44-.16-3,.63-4.26.15-.25.33-.49.54-.73,0-.01.02-.02.02-.03l7.47-8.09c.68-.74,1.82-.78,2.56-.1.74.68.78,1.82.1,2.56l-7.45,8.07c-.06.07-.11.14-.14.19,0,.01-.01.02-.02.03-.26.42-.34.94-.21,1.41.19.69.77,1.2,1.48,1.3.59.08,1.18-.14,1.58-.59l1.78-2.01s1.37-1.56,3.22-3.65c.46-.52,1.17-.73,1.84-.55,7.28,2.02,13.27-.58,14.29-4.27.86-3.12-2.06-7.85-13.16-10.93-6.69-1.86-14.08-3.67-18.31-3.14-.2.11-.88.56-2.54,2.11-3.88,3.63-9.75,10.11-11.45,12.01-.28.31-.45.51-.49.55-.4.45-.53,1.06-.38,1.64.19.7.77,1.2,1.47,1.31.59.08,1.19-.14,1.59-.59l8.92-10.11c.66-.75,1.8-.82,2.56-.16.75.66.82,1.8.16,2.56l-8.92,10.12c-1.2,1.36-3,2.03-4.8,1.78-2.16-.3-3.91-1.85-4.48-3.95-.47-1.76-.04-3.62,1.16-4.99,0,0,.01-.01.01-.02,0,0,.18-.2.49-.55,1.74-1.94,7.7-8.52,11.68-12.25,2.54-2.37,3.55-2.92,4.36-3.03,4.85-.7,12.45,1.13,19.94,3.21,13.66,3.79,17.05,10.44,15.68,15.39-.8,2.88-3.24,5.28-6.71,6.58-3.2,1.2-7.05,1.37-10.93.49-1.46,1.66-2.49,2.82-2.49,2.82l-1.78,2.01c-1.04,1.17-2.51,1.83-4.05,1.83v.03Zm-9.16-28.75h0Z"/>
      <path class="g" d="m140.09,182.52c-.25,0-.5-.02-.74-.05-2.15-.3-3.91-1.85-4.48-3.95-.47-1.76-.04-3.62,1.17-4.99l8.25-9.38c.66-.75,1.8-.82,2.56-.16.75.66.82,1.8.16,2.56l-8.25,9.38c-.4.45-.55,1.07-.39,1.65.19.69.77,1.2,1.47,1.3.59.08,1.19-.14,1.58-.59,0,0,.01-.02.02-.02l9.73-10.65c.68-.74,1.82-.79,2.56-.11s.79,1.82.11,2.56l-9.72,10.64c-1.04,1.16-2.51,1.82-4.05,1.82h0Z"/>
      <path class="g" d="m123.41,170.68c-.15,0-.31-.02-.46-.06h-.01c-.41-.11-.81-.27-1.19-.47-1.91-1.04-2.99-3.12-2.78-5.28.18-1.81,1.25-3.4,2.85-4.25l7.82-4.12c2.22-1.19,5.26-2.81,6.76-.86.61.8.46,1.93-.34,2.54-.55.42-1.26.48-1.85.22-.38.1-1.18.4-2.87,1.3l-.2.11-7.63,4.02c-.53.28-.88.8-.94,1.41-.07.71.29,1.4.92,1.74.12.07.25.11.37.15h.02c.97.25,1.54,1.24,1.29,2.21-.21.82-.95,1.35-1.76,1.35v-.02Zm10.11-12.84h0Z"/>
    </g>
  </g>
</svg>