<svg xmlns="http://www.w3.org/2000/svg" viewBox="0 0 266.94 65.34">
    <defs>
        <style>.cls-1{fill:#85d3f2;}</style>
    </defs>
    <g id="レイヤー_2" data-name="レイヤー 2">
        <g id="レイヤー_1のコピー" data-name="レイヤー 1のコピー">
            <path class="cls-1"
                  d="M82.44,40.68C77,50.4,68.76,65.34,57.69,65.34c-6,0-10.08-4.32-10.08-10.8,0-10.35,10-18.72,10-25.29,0-2.16-1.08-5.13-3.24-5.13-5.58,0-16.74,19.44-20,25.38A95.05,95.05,0,0,0,29.7,59.94L23,57.42A107.17,107.17,0,0,1,27.72,46.8l.81-1.44c3.51-6.84,6.66-12.15,6.66-15.93,0-2.34-1.08-5.31-3.15-5.31-4.77,0-16.2,16.29-20.25,25.29A123.09,123.09,0,0,0,6.84,62.73L0,60.75A138.42,138.42,0,0,1,4.86,47.43l.54-1.26C8.19,39.51,11,33.48,12.15,28.89a7.55,7.55,0,0,0-1-5.76l7.83-3a13.18,13.18,0,0,1,.81,5c4.14-4.32,8.64-7.38,12.87-7.38,4.41,0,7.92,3.33,9.18,7.83,4.23-4.5,8.82-7.83,13.23-7.83,5.58,0,9.72,5.31,9.72,11.61,0,9.27-10,17.28-10,25.11,0,2.79,1.17,4.5,3.33,4.5,6.39,0,14.4-15.48,18-21.87Z"/>
            <path class="cls-1"
                  d="M133.38,40.68c-5.22,9.54-13.68,24.66-24.57,24.66-6.12,0-9.9-4.86-10.08-11.07C94.41,60,88.83,65.34,82.44,65.34c-6.84,0-10-6.21-10-12.87,0-13.41,11.61-34.65,25.74-34.65,6,0,9.63,4.14,11.7,7.74,1.08-2,2.25-4,3.51-6l7.47,4.59a32.34,32.34,0,0,0-6.66,8.28c-3.87,6.93-8.28,16-8.28,21.42,0,2.25.72,5.22,3.42,5.22,6.12,0,14.4-15.84,17.73-21.87ZM103.32,37.8l3-5.76-1.44.54c-.72-4.86-2.7-8.46-7.47-8.46-8.1,0-17.64,17.82-17.64,28.53,0,4.41,1.53,6.39,3.42,6.39C87.21,59,95.85,50,103.32,37.8Z"/>
            <path class="cls-1"
                  d="M203.67,40.68c-6.66,12.15-14.13,19.8-23.58,19.8A23.43,23.43,0,0,1,168.39,57c-1.62,1.89-.27.18-6.3,8.37,0,0-16.92.54-16.92-12.69,0-9.9,9.09-24.48,13.68-32.94l7.29,4c-1.71,1.35-3.6,4-5.4,7.29C157,38,152.46,46.89,152.46,52A6.68,6.68,0,0,0,158.31,59c4.68-6.39,17.73-20.61,23.4-31.5a16.72,16.72,0,0,0,2-7.11l7.65,1.89c-1.71,9-11,20.52-18.18,29.16a18.11,18.11,0,0,0,8.1,2.43c6.48,0,10.35-6.3,16.11-16.65Z"/>
            <path class="cls-1"
                  d="M192.42,53.73c0-8.37,5.85-19.26,14.67-34.2L214,23.76a35.53,35.53,0,0,0-5.13,6.93c-4,7-9.27,17.28-9.27,23,0,2.25.72,5.31,3.42,5.31,6.12,0,14.31-15.75,17.73-21.87l6.3,3.51c-5.31,9.54-13.68,24.66-24.48,24.66C196.11,65.34,192.42,60.12,192.42,53.73Zm18.45-42.57L216.63,0l6.48,3.24L217.35,14.4Z"/>
            <path class="cls-1"
                  d="M266.94,40.68c-7.11,13-17.91,24.66-32.49,24.66-9.72,0-17.28-5.22-17.28-15,0-12.78,13.77-32.49,27.27-32.49,16.47,0,10.62,28.26-7.11,28.26A21.3,21.3,0,0,1,226,42.57,22.4,22.4,0,0,0,224.37,50c0,5.94,4.41,9,10.08,9,11.7,0,20.52-11.7,26.19-21.87Zm-37.71-4.41a15,15,0,0,0,8.37,3.51c7.92,0,12.87-15.66,5.76-15.66C239.13,24.12,233.28,29.7,229.23,36.27Z"/>
        </g>
    </g>
</svg>