<svg id="a" data-name="レイヤー 1" xmlns="http://www.w3.org/2000/svg" viewBox="0 0 501.61 451.46"><defs><style>.f{fill:#85d3f2}</style></defs><g id="b" data-name="レイヤー 2"><g id="c" data-name="レイヤー 1のコピー"><path class="f" d="M341.8 102.76c.15 11.14.48 28.2-9.1 33.73-5.2 3-10.89 1.3-14.13-4.31-5.18-8.96-.7-21.21-3.98-26.9-1.08-1.87-3.5-3.9-5.37-2.82-4.83 2.79-4.78 25.21-4.63 31.98.16 3.81.56 7.61 1.18 11.38l-7.06 1.17c-.62-3.83-1.02-7.69-1.22-11.56l-.02-1.65c-.38-7.68-.31-13.85-2.2-17.13-1.17-2.03-3.59-4.06-5.38-3.02-4.13 2.39-5.88 22.21-4.89 32.03.52 4.71 1.31 9.39 2.37 14.01l-6.91 1.71c-1.06-4.61-1.87-9.27-2.45-13.97l-.16-1.36c-.91-7.16-1.5-13.79-2.79-18.34a7.567 7.567 0 0 0-3.75-4.49l5.28-6.51c1.31 1.09 2.4 2.42 3.2 3.93 1.43-5.81 3.79-10.71 7.46-12.83s8.52-1.08 11.87 2.19c1.41-6.01 3.72-11.19 7.54-13.4 4.83-2.79 11.07-.26 14.22 5.19 4.64 8.03-.02 19.96 3.89 26.75 1.4 2.42 3.26 3.31 5.13 2.23 5.53-3.19 4.73-20.61 4.65-27.94l7.26-.06Z"/><path class="f" d="M385.92 77.29c.25 10.87.48 28.2-8.95 33.64-5.3 3.06-11 .74-14.26-4.55-.88 7.12-3.04 14.54-8.57 17.73-5.92 3.42-11.77-.38-15.1-6.15-6.7-11.61-7.27-35.81 4.97-42.88 5.2-3 10.41-1.23 14 .85-.06-2.27-.05-4.59.04-6.95l8.76.24a32.28 32.28 0 0 0-1.63 10.5c.11 7.94.83 18 3.54 22.69 1.12 1.95 3.23 4.16 5.57 2.81 5.3-3.06 4.55-20.92 4.42-27.8l7.2-.14Zm-27.47 12.54-.28-6.49-.98 1.19c-3.05-3.85-6.57-5.98-10.7-3.59-7.01 4.05-6.37 24.25-1.01 33.53 2.2 3.82 4.52 4.77 6.16 3.82 3.46-2.04 6.44-14.16 6.81-28.46ZM446.79 42.14c.31 13.85-2.34 24.21-10.52 28.94a23.407 23.407 0 0 1-11.87 2.84c-.46 2.45-.14.29-1.27 10.4 0 0-14.38 8.93-21-2.53-4.95-8.57-4.37-25.75-4.62-35.37l8.31-.18c-.81 2.02-1.12 5.26-1.03 9.01.25 7.91.76 17.88 3.31 22.3 1.59 3.14 5.33 4.51 8.57 3.14.86-7.87 5.05-26.71 4.51-38.98-.07-2.49-.69-4.94-1.82-7.16l7.57-2.19c3.02 8.65.73 23.27-1.16 34.34 2.86.01 5.68-.66 8.23-1.95 5.61-3.24 5.81-10.63 5.63-22.47l7.17-.14Z"/><path class="f" d="M443.57 59.07c-4.18-7.25-4.56-19.6-4.4-36.95l8.1.21c-.67 2.81-1 5.68-.98 8.57.04 8.06.61 19.6 3.47 24.55 1.12 1.95 3.28 4.24 5.62 2.89 5.3-3.06 4.52-20.79 4.42-27.8l7.21-.11c.17 10.92.48 28.2-8.87 33.6-5.57 3.26-11.38.59-14.58-4.94Zm-5.31-46.09L437.67.44l7.23-.43.59 12.54-7.23.43Z"/><path class="f" d="M501.58 10.51c.34 14.81-3.18 30.31-15.81 37.6-8.42 4.86-17.57 4.12-22.46-4.35-6.39-11.07-4.32-35.02 7.37-41.77 14.26-8.24 23.33 19.16 7.97 28.03a21.254 21.254 0 0 1-11.58 2.6c.35 2.53 1.13 4.98 2.3 7.25 2.97 5.14 8.32 5.59 13.23 2.75 10.13-5.85 11.92-20.39 11.75-32.03l7.23-.08Zm-34.86 15.04c3.05.56 6.19.16 9-1.15 6.86-3.96 3.32-20-2.84-16.44-3.66 2.11-5.94 9.87-6.16 17.59Z"/></g></g><g id="d" data-name="レイヤー 2"><g id="e" data-name="レイヤー 1のコピー"><path class="f" d="M50.54 369.2c.2 10.79-2.66 21.39-9.88 25.55-1.09.61-2.27 1.06-3.49 1.34-1.43 6.34-4.42 11.79-9.09 14.49a10.59 10.59 0 0 1-11.21.03c1.59 10.36 2.59 17.99 2.39 23.93-.4 8.13-3.05 13.09-9.67 16.91l-5.44-5.28a12.87 12.87 0 0 0 7.88-11.72c.35-6.96-1.63-18.49-5.01-39.3l-.42-2.35-.46-2.96c-.52-4.9-3.63-11.52-6.14-13.7l6.3-5.09c1.63 1.43 2.93 3.19 3.82 5.17.53-5.92 2.1-11.3 7.17-14.22 5.38-3.1 11.75-1.79 16.34 6.16 3.1 5.38 4.62 12.5 4.55 19.4 4.02-3.48 5.29-11.37 5.15-18.25l7.21-.11Zm-23.17 2.53c-1.71-2.96-4.22-5.88-6.95-4.3-4.21 2.43-7.78 13.53-6.63 24.51.72 5.92 5.85 16.25 11.15 13.19 6.5-3.71 8.93-22.14 2.43-33.4Z"/><path class="f" d="M88.19 347.47c.17 10.92.4 28.24-9.1 33.73-4.91 2.83-10.8 1.45-13.99-4.08-3.65-6.31-5.75-19.96-5.16-30.17-3.4 1.66-7.04 2.78-10.79 3.32 1.05 6.15 1.3 15.57 1.38 18.95l-7.21.11c-.39-10.68-1.03-16.73-1.5-18.98-.77-.07-1.51-.28-2.32-.43l2.05-7.42c1.19.98 4.44 1.7 6.97 1.28 3.59-.62 9.77-1.8 13.3-6.12l7.67 3.57a12.08 12.08 0 0 0-2.37 6.88c-.52 8.82 1.17 20.21 4.1 25.28 1.12 1.95 2.91 3.41 5.01 2.2 5.61-3.24 4.87-20.9 4.73-27.98l7.23-.12Z"/><path class="f" d="M127.46 324.79c.2 9.34-1.74 20.75-9.84 25.42-1.5.88-3.14 1.51-4.85 1.86-1.11 6.36-3.92 11.93-8.99 14.85-6.39 3.69-13.64 2.37-18.55-6.13-6.7-11.61-6.94-34.03 4.81-40.81 6.63-3.82 13.82-2.06 18.59 6.2 3 5.56 4.6 11.77 4.67 18.09.23-.14.51-.19.75-.33 5.38-3.11 6.39-12.93 6.22-19.08l7.18-.09Zm-21.67 27.79c-.43-.04-.85-.11-1.27-.2l.49-7.97 1.23.12c-.25-5.47-1.71-11.07-3.83-14.73-2.92-5.07-6.29-6.03-9.25-4.32-7.48 4.32-6.81 22.95-1.72 31.76 2.84 4.91 6.09 6.05 9.21 4.25 2.73-1.58 4.42-4.94 5.15-8.9Z"/><path class="f" d="M143.07 300.32a8.39 8.39 0 0 1-4.35 5.97c-.4.28-.83.53-1.28.74-1.21 5.9 1.68 11.91 5.92 10.61-.31 2.16-.2 1.27-1.12 6.05-5.66 1.71-11.09-6.07-9.39-15.36-2.09.38-4.27.7-6.36.87.29 6.64.99 13.98 1.39 21.27.72 12.05 1.24 22.67.88 29.42-.4 8.13-3.05 13.09-9.67 16.91l-6.04-5.97c4.29-1.75 8.19-5.25 8.49-11.03.3-5.48.01-15.28-.83-28.62-.46-7.63-.88-14.66-1.16-20.74-.65.18-1.28.43-1.87.77-2.73 1.57-2.1 5.37-1.4 6.58l-7.18-2.71c.62-3.54 2.72-6.64 5.78-8.53 1.39-.77 2.9-1.32 4.46-1.64-.29-4.74-.15-9.5.41-14.22.71-4.77 1.54-8.68 3.72-11.92l6.18 6.93c-1.33 1.29-2.25 3.48-2.73 6.25-.62 3.84-.85 7.74-.7 11.63 3.55-.7 7.02-1.35 9.2-2.61l.39-.22c.64-1.01 1.35-1.97 2.12-2.89l5.15 2.46ZM187.01 290.41c.34 14.81-3.17 30.31-15.8 37.6-8.42 4.86-17.57 4.12-22.46-4.35-6.39-11.07-4.32-35.02 7.37-41.77 14.25-8.23 23.33 19.16 7.97 28.03a21.257 21.257 0 0 1-11.58 2.63c.35 2.54 1.14 5 2.33 7.28 2.97 5.14 8.32 5.59 13.23 2.75 10.13-5.85 11.91-20.39 11.74-32.03l7.2-.14Zm-34.84 15.05c3.05.56 6.19.16 9-1.15 6.86-3.96 3.32-20-2.84-16.44-3.67 2.1-5.95 9.86-6.16 17.59Z"/><path class="f" d="M195.28 279.72c4.06 2.54 9.55 3.22 13.55 10.15 4.27 7.4.53 16.22-6.63 20.35-7.16 4.14-16.53 2.69-20.85-4.8-3.28-5.69-2.39-12.13-1.54-14.91l7.21-.11c-1.64 6.87.02 10.48.56 11.42 2.38 4.13 7.88 5.01 11.54 2.9s6.5-7.8 4.25-11.69c-3.06-5.3-9.4-5.48-14.22-10.08-2.34.66-4.78.94-7.21.84l-.06-6.1c1.24.16 2.48.21 3.73.16-3.08-6.95.08-14.08 6.47-17.76 3.2-1.85 7.21-2.09 10.02 1.7 3.99 5.35.21 12.84-6.83 17.94Zm2.3-13.48c-.72-1.25-1.63-1.56-2.95-.79-3.04 1.75-5.03 6.95-2.87 10.7 3.74-2.16 7.26-7.41 5.82-9.91ZM227.62 261.04c4.06 2.54 9.55 3.22 13.55 10.15 4.27 7.4.53 16.22-6.64 20.36-7.17 4.14-16.52 2.68-20.84-4.8-3.28-5.69-2.34-12.16-1.55-14.9l7.21-.11c-1.64 6.87.03 10.48.57 11.41 2.38 4.13 7.87 5.02 11.54 2.9s6.51-7.81 4.26-11.7c-3.06-5.3-9.4-5.48-14.23-10.07-2.34.66-4.77.94-7.2.83l-.06-6.1c1.24.15 2.48.21 3.73.16-3.08-6.95.08-14.08 6.47-17.77 3.2-1.85 7.21-2.09 10.02 1.7 3.98 5.36.2 12.84-6.84 17.94Zm2.3-13.48c-.72-1.25-1.63-1.56-2.95-.79-3.04 1.76-5.03 6.95-2.87 10.7 3.74-2.16 7.26-7.41 5.82-9.91ZM248.49 269.98c-4.18-7.25-4.57-19.6-4.4-36.95l8.12.2c-.67 2.81-1 5.68-.98 8.57 0 8.09.61 19.6 3.47 24.55 1.12 1.95 3.28 4.24 5.62 2.89 5.3-3.06 4.52-20.79 4.42-27.8l7.21-.11c.17 10.92.48 28.2-8.87 33.6-5.59 3.27-11.39.59-14.58-4.94Zm-5.32-46.09-.59-12.54 7.26-.39.59 12.54-7.26.39Z"/><path class="f" d="M311.25 218.68c.2 9.34-1.74 20.75-9.84 25.43-1.5.88-3.14 1.51-4.85 1.86-1.11 6.36-3.92 11.93-8.99 14.85-6.39 3.69-13.69 2.39-18.59-6.1-6.7-11.61-6.94-34.03 4.81-40.81 6.63-3.82 13.87-2.08 18.64 6.18 3 5.56 4.6 11.77 4.67 18.09.23-.13.51-.19.75-.33 5.38-3.1 6.39-12.93 6.23-19.08l7.18-.09Zm-21.7 27.81c-.43-.04-.85-.11-1.27-.2l.49-7.97 1.23.12c-.19-5.51-1.69-11.08-3.8-14.74-2.92-5.07-6.29-6.03-9.25-4.32-7.48 4.32-6.81 22.95-1.72 31.76 2.83 4.91 6.09 6.05 9.21 4.25 2.73-1.57 4.42-4.94 5.13-8.88Z"/><path class="f" d="M351.23 195.6c.18 11.12.48 28.2-9.1 33.73-5.2 3-10.89 1.3-14.13-4.31-4.95-8.57-.97-21.68-4.03-26.98-1.31-2.26-4.23-3.33-5.96-2.33-4.91 2.84-6.51 23.82-5.42 33.27.45 4.42 1.17 8.82 2.16 13.15l-6.92 1.69c-1.04-4.65-1.85-9.35-2.42-14.09l-.1.06-.2-1.96c-.86-6.88-1.4-13.22-2.71-17.66a7.567 7.567 0 0 0-3.75-4.49l5.28-6.51c1.37 1.18 2.51 2.6 3.36 4.19 1.61-6.02 4.13-11.22 8.02-13.47 4.68-2.7 11.58-1.18 14.87 4.51 4.45 7.72.29 20.51 4.12 27.14 1.31 2.26 3.17 3.16 5.04 2.08 5.53-3.2 4.73-20.61 4.65-27.94l7.24-.07Z"/><path class="f" d="M391.18 172.53c.18 11.12.48 28.2-9.1 33.73-5.2 3-10.89 1.3-14.13-4.31-4.95-8.57-.97-21.68-4.03-26.98-1.31-2.26-4.23-3.33-6.01-2.31-4.91 2.84-6.51 23.82-5.42 33.27.46 4.43 1.2 8.83 2.2 13.17l-6.92 1.69c-1.04-4.65-1.85-9.35-2.42-14.09l-.08.04-.2-1.96c-.86-6.88-1.4-13.22-2.71-17.66a7.567 7.567 0 0 0-3.75-4.49l5.28-6.51c1.37 1.18 2.51 2.6 3.36 4.19 1.61-6.02 4.13-11.22 8.02-13.47 4.68-2.7 11.58-1.18 14.87 4.51 4.45 7.72.29 20.51 4.12 27.14 1.31 2.26 3.17 3.16 5.04 2.08 5.53-3.2 4.73-20.61 4.65-27.94l7.22-.11Z"/><path class="f" d="M425.75 152.58c.34 14.81-3.18 30.31-15.81 37.6-8.42 4.86-17.57 4.12-22.46-4.35-6.39-11.07-4.32-35.02 7.37-41.77 14.26-8.24 23.33 19.16 7.97 28.03a21.259 21.259 0 0 1-11.56 2.58c.35 2.54 1.14 5 2.33 7.28 2.97 5.14 8.32 5.59 13.23 2.75 10.13-5.85 11.92-20.39 11.75-32.03l7.18-.09Zm-34.85 15.05c3.05.56 6.19.16 9-1.15 6.86-3.96 3.32-20-2.84-16.44-3.67 2.1-5.95 9.86-6.16 17.59Z"/><path class="f" d="M422.92 169.28c-5.5-9.53-6.23-36-7.1-55.86-.14-4.44-.97-8.84-2.44-13.04l8.13-.85c.94 1.64 1.09 6.02 1.3 9.64 1 19.37 1.61 48.33 6.38 56.59 1.12 1.95 3.23 4.16 5.49 2.86 5.38-3.11 4.63-20.96 4.5-27.85l7.21-.11c.25 10.87.48 28.2-8.79 33.55-5.61 3.24-11.45.69-14.69-4.92Z"/><path class="f" d="M443.61 157.33c-5.5-9.53-6.23-36-7.1-55.86-.16-4.44-.99-8.83-2.47-13.02l8.13-.85c.94 1.64 1.09 6.02 1.3 9.64 1 19.37 1.61 48.33 6.38 56.59 1.12 1.95 3.23 4.16 5.49 2.86 5.38-3.11 4.63-20.96 4.5-27.85l7.21-.11c.25 10.87.48 28.2-8.79 33.55-5.61 3.24-11.42.67-14.66-4.94Z"/><path class="f" d="M501.58 108.79c.34 14.81-3.18 30.31-15.81 37.6-8.42 4.86-17.57 4.12-22.46-4.35-6.39-11.07-4.32-35.02 7.37-41.77 14.26-8.23 23.33 19.16 7.97 28.03a21.257 21.257 0 0 1-11.58 2.63c.35 2.54 1.14 5 2.33 7.28 2.97 5.14 8.32 5.59 13.23 2.75 10.13-5.85 11.92-20.39 11.75-32.03l7.2-.14Zm-34.85 15.05c3.05.56 6.19.16 9-1.15 6.86-3.96 3.32-20-2.84-16.44-3.67 2.1-5.95 9.86-6.16 17.59Z"/></g></g></svg>