<svg id="a" xmlns="http://www.w3.org/2000/svg" viewBox="0 0 687.86 223.45"><path class="b" d="m578.21 59.78.15.04c7.47-.18 9.32 6.86 8.09 13.21-1.63 8.39-7.89 11.44-11.48 10.27-3.3 13.26-10.17 17.95-16.85 20.44.74 5.69.34 11.31 7.23 17.1 3.51 2.95 13.12 4.79 19.08 6.88 9.44 3.3 17.48 8.2 20.66 16.16 2.86 7.14 2.9 40.46 2.48 46.23-.2 2.73-1.6 5.23-3.84 6.79-12.84 8.89-48.32 11.36-61.45 11.36s-48.61-2.47-61.45-11.36c-2.25-1.55-3.64-4.06-3.84-6.79-.43-5.77-.39-39.09 2.47-46.23 3.18-7.95 11.23-12.86 20.66-16.16 5.96-2.09 15.58-3.92 19.08-6.87 6.89-5.79 6.48-11.41 7.22-17.1-6.68-2.49-13.43-7.17-16.83-20.44h-.01c-3.59 1.18-9.85-1.87-11.48-10.27-1.24-6.35.62-13.39 8.09-13.21l.15-.04C493.59 4.84 542.28 6.51 542.28 6.51s48.7-1.67 35.95 53.28Z"/><path class="c" d="M519 206.87c-17.25-1.87-36.9-5.88-41.76-13.5-.6-7.7-1.15-41.08 2.22-49.5 3.18-7.95 11.23-12.86 20.66-16.16 5.96-2.09 15.58-3.92 19.08-6.87l-.2 86.03ZM565.54 206.87c17.25-1.87 36.9-5.88 41.76-13.5.6-7.7 1.15-41.08-2.22-49.5-3.18-7.95-11.23-12.86-20.66-16.16-5.96-2.09-15.58-3.92-19.08-6.87l.2 86.03Z"/><path d="M526.42 105.72c-.23 0-.47-.04-.7-.13-4.33-1.62-7.64-3.74-10.4-6.68-3.48-3.71-5.98-8.62-7.63-15-.01-.05-.03-.09-.04-.14-.16-.65-.29-1.19-.4-1.68-.24-1.07.44-2.14 1.51-2.38 1.08-.24 2.14.44 2.38 1.51.1.43.2.88.35 1.45l.03.12c3.31 12.91 9.75 16.89 15.6 19.07 1.03.39 1.55 1.53 1.17 2.56-.3.8-1.06 1.3-1.87 1.3Z"/><path d="M507.97 85.53c-1.61 0-3.32-.49-4.93-1.44-2.03-1.19-5.63-4.17-6.9-10.69-.97-4.99-.14-9.49 2.27-12.35 1.85-2.19 4.55-3.31 7.82-3.23a1.99 1.99 0 0 1-.05 3.98h-.05c-2.07-.05-3.6.54-4.68 1.82-1.58 1.87-2.12 5.33-1.4 9.02.42 2.14 1.62 6.03 5.01 8.02 1.36.8 2.86 1.08 3.9.74a1.99 1.99 0 0 1 2.51 1.27 1.99 1.99 0 0 1-1.27 2.51c-.7.23-1.45.34-2.22.34ZM558.12 105.72a1.992 1.992 0 0 1-.7-3.86c3.77-1.41 6.61-3.21 8.94-5.68 3.06-3.24 5.24-7.61 6.67-13.37.14-.56.26-1.07.37-1.57a1.991 1.991 0 0 1 2.37-1.53c1.08.23 1.76 1.29 1.53 2.37-.12.54-.25 1.1-.4 1.7-1.6 6.44-4.1 11.39-7.64 15.14-2.77 2.93-6.08 5.05-10.44 6.68-.23.09-.47.13-.7.13Z"/><path d="M576.56 85.53c-.75 0-1.48-.11-2.16-.32a1.989 1.989 0 0 1-1.43-1.91c0-1.1.89-1.99 1.99-1.99.21 0 .42.03.62.1 1.05.34 2.55.06 3.91-.75 1.45-.85 4.03-3.03 5-8.01.72-3.69.18-7.14-1.4-9.01-1.08-1.27-2.61-1.87-4.68-1.82a1.99 1.99 0 0 1-2.04-1.94 1.99 1.99 0 0 1 1.94-2.04c3.26-.08 5.97 1.04 7.82 3.23 2.41 2.86 3.24 7.36 2.27 12.35-1.27 6.51-4.86 9.49-6.89 10.68-1.62.95-3.33 1.44-4.95 1.44ZM542.27 210.24c-6.7 0-18.87-.62-31.11-2.37-15.02-2.14-25.6-5.29-31.47-9.35-2.74-1.9-4.45-4.92-4.7-8.28-.34-4.6-.58-39.15 2.61-47.12 3.02-7.55 10.17-13.21 21.85-17.3 1.91-.67 4.11-1.29 6.44-1.95 4.65-1.32 9.93-2.81 12.02-4.57 5.34-4.49 5.77-8.64 6.26-13.46.08-.77.16-1.57.27-2.38a1.992 1.992 0 0 1 3.95.51c-.1.75-.18 1.52-.25 2.27-.51 4.96-1.09 10.58-7.66 16.1-2.74 2.31-8.21 3.85-13.49 5.35-2.27.64-4.42 1.25-6.21 1.88-10.53 3.68-16.9 8.59-19.47 15.02-2.58 6.45-2.8 39.01-2.33 45.34.16 2.16 1.25 4.09 2.99 5.3 5.28 3.65 15.57 6.66 29.76 8.68 12.03 1.72 23.98 2.33 30.55 2.33 14.49 0 48.3-2.69 60.32-11.01 1.74-1.21 2.83-3.14 2.99-5.3.46-6.35.23-38.92-2.34-45.34-2.57-6.42-8.94-11.33-19.47-15.02-1.8-.63-3.94-1.23-6.21-1.88-5.29-1.5-10.75-3.05-13.5-5.36-6.57-5.52-7.15-11.14-7.67-16.1-.08-.75-.16-1.52-.25-2.26a1.992 1.992 0 0 1 3.95-.51c.1.8.19 1.6.27 2.37.5 4.82.93 8.98 6.27 13.46 2.09 1.76 7.37 3.26 12.02 4.57 2.33.66 4.53 1.28 6.44 1.95 11.68 4.08 18.83 9.74 21.86 17.3 3.18 7.94 2.95 42.51 2.61 47.12-.25 3.37-1.96 6.39-4.7 8.28-5.87 4.06-16.45 7.21-31.47 9.35-12.24 1.75-24.41 2.37-31.11 2.37ZM542.27 77.89c-.49 0-.89-.4-.89-.89v-1.12c0-.49.4-.89.89-.89s.89.4.89.89V77c0 .49-.4.89-.89.89Z"/><ellipse cx="528.44" cy="63.55" rx="3.2" ry="3.57"/><path d="M524.08 56.08c-.63 0-1.22-.38-1.45-1.01-.3-.8.11-1.69.91-2 2.56-.96 6.23-.97 9.12-.04.81.26 1.26 1.14 1 1.95s-1.14 1.26-1.95 1c-2.21-.71-5.19-.72-7.08 0-.18.07-.36.1-.54.1Z"/><ellipse cx="556.1" cy="63.55" rx="3.2" ry="3.57"/><path d="M560.46 56.08c-.18 0-.36-.03-.54-.1-1.89-.71-4.87-.71-7.08 0-.81.26-1.69-.18-1.95-1-.26-.81.18-1.69 1-1.95 2.9-.93 6.56-.92 9.12.04a1.555 1.555 0 0 1-.54 3.01Z"/><path class="c" d="m571.94 40.75 5.23 23.17c5.9-9.4 7.44-19.54 7.44-29.07 0-19.57-15.45-36.82-50.55-32.07-7.16-.85-14.39-1.35-19.74 8.9-3.35-.06-7.91 2.22-10.04 6.83-4.69 10.14-6.55 30.21 3.09 45.41l5.79-23.17 15.28-8.56s6.32 2.14 20.56 6.68c11.46 3.66 22.95 1.87 22.95 1.87Z"/><path d="M526.42 105.72c-.23 0-.47-.04-.7-.13-4.53-1.69-7.96-3.95-10.78-7.1-3.6-4.01-6.12-9.38-7.69-16.4a1.99 1.99 0 0 1 1.51-2.38 1.99 1.99 0 0 1 2.38 1.51c3.17 14.11 9.86 18.35 15.98 20.64 1.03.39 1.55 1.53 1.17 2.56-.3.8-1.06 1.3-1.87 1.3ZM558.12 105.72c-.81 0-1.57-.49-1.87-1.3-.39-1.03.14-2.18 1.17-2.56 11.06-4.13 14.29-12.75 15.98-20.63a1.991 1.991 0 0 1 2.37-1.53c1.08.23 1.76 1.29 1.53 2.37-1.51 7.02-4.01 12.39-7.65 16.43-2.83 3.14-6.27 5.39-10.83 7.1-.23.09-.47.13-.7.13ZM542.27 131.74c-15.06 0-24.12-9.13-24.5-9.52-.77-.79-.75-2.05.04-2.82a2 2 0 0 1 2.82.03c.11.11 8.35 8.32 21.65 8.32s21.56-8.24 21.64-8.32a2 2 0 0 1 2.82-.03c.79.77.8 2.03.04 2.81-.38.39-9.44 9.53-24.5 9.53ZM571.72 171.26a1.545 1.545 0 0 1-1.31-2.36l12.07-19.49-6.42-4.9c-.61-.46-.79-1.3-.42-1.98l3.72-6.8-7.56-3.89a1.556 1.556 0 0 1-.67-2.09c.39-.76 1.33-1.06 2.09-.67l8.97 4.62c.37.19.65.52.77.92s.08.83-.12 1.2l-3.85 7.03 6.48 4.95c.63.48.8 1.37.38 2.05l-12.81 20.69c-.29.47-.8.73-1.32.73Z"/><path d="M542.27 210.24c-6.7 0-18.87-.62-31.11-2.37-15.02-2.14-25.6-5.29-31.47-9.35-2.74-1.9-4.45-4.92-4.7-8.28-.34-4.6-.58-39.15 2.61-47.12 3.02-7.55 10.17-13.21 21.85-17.3 1.91-.67 4.11-1.29 6.44-1.95 4.65-1.32 9.93-2.81 12.02-4.57 5.34-4.49 5.77-8.64 6.26-13.46.08-.77.16-1.57.27-2.38a1.992 1.992 0 0 1 3.95.51c-.1.75-.18 1.52-.25 2.27-.51 4.96-1.09 10.58-7.66 16.1-2.74 2.31-8.21 3.85-13.49 5.35-2.27.64-4.42 1.25-6.21 1.88-10.53 3.68-16.9 8.59-19.47 15.02-2.58 6.45-2.8 39.01-2.33 45.34.16 2.16 1.25 4.09 2.99 5.3 5.28 3.65 15.57 6.66 29.76 8.68 12.03 1.72 23.98 2.33 30.55 2.33 14.49 0 48.3-2.69 60.32-11.01 1.74-1.21 2.83-3.14 2.99-5.3.46-6.35.23-38.92-2.34-45.34-2.57-6.42-8.94-11.33-19.47-15.02-1.8-.63-3.94-1.23-6.21-1.88-5.29-1.5-10.75-3.05-13.5-5.36-6.57-5.52-7.15-11.14-7.67-16.1-.08-.75-.16-1.52-.25-2.26a1.992 1.992 0 0 1 3.95-.51c.1.8.19 1.6.27 2.37.5 4.82.93 8.98 6.27 13.46 2.09 1.76 7.37 3.26 12.02 4.57 2.33.66 4.53 1.28 6.44 1.95 11.68 4.08 18.83 9.74 21.86 17.3 3.18 7.94 2.95 42.51 2.61 47.12-.25 3.37-1.96 6.39-4.7 8.28-5.87 4.06-16.45 7.21-31.47 9.35-12.24 1.75-24.41 2.37-31.11 2.37ZM577.17 65.92c-.11 0-.22 0-.34-.03-.8-.14-1.43-.74-1.61-1.53l-3.9-17.32a1.99 1.99 0 0 1 1.51-2.38 1.99 1.99 0 0 1 2.38 1.51l2.74 12.19c3.17-6.68 4.66-14.28 4.66-23.5s-3.41-16.77-9.6-22.17c-8.53-7.45-21.91-10.19-38.69-7.92-.17.02-.34.02-.5 0-3.58-.43-6.78-.71-9.72.21-3.29 1.02-5.84 3.45-8.02 7.63a2 2 0 0 1-1.8 1.07h-.12c-3.54 0-6.8 2.91-8.08 5.68-2.42 5.23-3.78 12.68-3.64 19.93.09 5.07.95 12.1 4.14 19.04l2.74-12.16a1.998 1.998 0 0 1 2.38-1.51c1.07.24 1.75 1.31 1.51 2.38l-3.9 17.32a2 2 0 0 1-1.6 1.53c-.79.14-1.59-.22-2.02-.9-5.74-9.06-7.1-18.94-7.22-25.64-.15-7.94 1.31-15.85 4.01-21.68 2.32-5.01 6.89-7.52 10.63-7.93C519.18-.86 527.7.01 534.05.77c17.84-2.37 32.22.71 41.6 8.9 7.07 6.18 10.96 15.12 10.96 25.18 0 12.14-2.46 21.72-7.75 30.13-.37.59-1.01.93-1.69.93Z"/><path d="M546.42 40.87c-.07 0-.14 0-.21-.01-5.54-.59-15.57-8.05-17.6-13.08a1.99 1.99 0 1 1 3.69-1.49c1.47 3.64 10.3 10.18 14.32 10.61 1.09.12 1.89 1.1 1.77 2.19a1.992 1.992 0 0 1-1.98 1.78ZM572.18 43.77c-.08 0-.15 0-.23-.01-9.73-1.13-22.76-10.57-27.11-16.32a1.992 1.992 0 0 1 3.18-2.4c3.89 5.15 16.12 13.81 24.39 14.77 1.09.13 1.88 1.12 1.75 2.21a1.99 1.99 0 0 1-1.98 1.76ZM510.81 42.74c-1.01 0-1.88-.77-1.98-1.8a1.99 1.99 0 0 1 1.79-2.18c4.89-.49 6.56-2.42 7.9-3.97.37-.43.72-.83 1.11-1.2 1.28-1.19 2.47-1.94 3.73-2.36 1.8-.6 3.67-.45 5.14.43.94.56 1.25 1.79.69 2.73s-1.79 1.25-2.73.69c-.45-.27-1.15-.3-1.83-.07-.71.24-1.43.71-2.28 1.51-.23.22-.5.52-.81.88-1.61 1.87-4.04 4.69-10.52 5.34h-.2ZM519.2 208.86c-1.1 0-1.99-.89-1.99-1.99v-86.03c0-1.1.89-1.99 1.99-1.99s1.99.89 1.99 1.99v86.03c0 1.1-.89 1.99-1.99 1.99ZM565.34 208.86c-1.1 0-1.99-.89-1.99-1.99v-86.03c0-1.1.89-1.99 1.99-1.99s1.99.89 1.99 1.99v86.03c0 1.1-.89 1.99-1.99 1.99ZM512.81 171.26c-.52 0-1.03-.26-1.32-.73l-12.81-20.69c-.42-.68-.26-1.56.38-2.05l6.48-4.95-3.85-7.03c-.2-.37-.24-.8-.12-1.2.12-.4.4-.73.77-.92l8.97-4.62c.76-.39 1.7-.09 2.09.67.39.76.09 1.7-.67 2.09l-7.56 3.89 3.72 6.8c.37.67.19 1.51-.42 1.98l-6.42 4.9 12.07 19.49a1.543 1.543 0 0 1-1.31 2.36ZM542.27 93.67c-8.11 0-11.42-7.79-11.56-8.12-.2-.48-.14-1.02.14-1.45.29-.43.77-.69 1.29-.69h20.25c.52 0 1 .26 1.29.69.29.43.34.98.14 1.45-.14.33-3.45 8.12-11.56 8.12Zm-7.43-7.16c1.32 1.8 3.72 4.06 7.43 4.06s6.09-2.27 7.42-4.06h-14.85Z"/><path class="c" d="M104.54 147h74.06l-1.25-85.43h-71.56L104.54 147z"/><path d="M178.6 149h-74.07c-.53 0-1.04-.21-1.42-.59-.37-.38-.58-.89-.57-1.43l1.26-85.44c.02-1.09.9-1.96 1.99-1.96h71.55c1.09 0 1.98.87 1.99 1.96l1.26 85.44c0 .53-.2 1.05-.57 1.43s-.89.59-1.42.59Zm-72.04-3.99h70.02l-1.2-81.45h-67.63l-1.2 81.45Z"/><path class="b" d="m105.89 59.78-.15.04c-7.47-.18-9.32 6.86-8.09 13.21 1.63 8.39 7.89 11.44 11.48 10.27 3.3 13.26 10.17 17.95 16.85 20.44-.74 5.69-.34 11.31-7.23 17.1-3.51 2.95-13.12 4.79-19.08 6.88-9.44 3.3-17.48 8.2-20.66 16.16-2.86 7.14-2.9 40.46-2.48 46.23.2 2.73 1.6 5.23 3.84 6.79 12.84 8.89 48.32 11.36 61.45 11.36s48.61-2.47 61.45-11.36c2.25-1.55 3.64-4.06 3.84-6.79.43-5.77.39-39.09-2.47-46.23-3.18-7.95-11.23-12.86-20.66-16.16-5.96-2.09-15.58-3.92-19.08-6.87-6.89-5.79-6.48-11.41-7.22-17.1 6.68-2.49 13.43-7.17 16.83-20.44h.01c3.59 1.18 9.85-1.87 11.48-10.27 1.24-6.35-.62-13.39-8.09-13.21l-.15-.04c12.77-54.96-35.93-53.3-35.93-53.3s-48.7-1.67-35.95 53.28Z"/><path class="c" d="M141.83 208.25c14.73 0 57.53-3.1 65.04-14.89.6-7.7 1.15-41.09-2.22-49.5-3.18-7.95-11.23-12.86-20.66-16.16-5.96-2.09-15.58-3.92-19.08-6.87l-5.02 14.47h-36.1l-5.02-14.47c-3.51 2.95-13.12 4.79-19.08 6.88-9.44 3.3-17.48 8.2-20.66 16.16-3.37 8.41-2.82 41.8-2.22 49.5 7.51 11.78 50.32 14.89 65.04 14.89Z"/><path d="M157.68 105.72a1.992 1.992 0 0 1-.7-3.86c5.85-2.19 12.29-6.16 15.6-19.07l.03-.12c.14-.55.25-1.02.35-1.45a1.994 1.994 0 0 1 3.89.87c-.11.5-.24 1.04-.4 1.68-.01.05-.02.09-.04.14-3.8 14.67-11.63 19.3-18.03 21.69-.23.09-.47.13-.7.13Z"/><path d="M176.13 85.53c-.77 0-1.52-.11-2.22-.34a1.979 1.979 0 0 1-1.27-2.51 1.979 1.979 0 0 1 2.51-1.27c1.05.34 2.54.06 3.9-.74 1.45-.85 4.04-3.03 5.01-8.02.72-3.69.18-7.14-1.4-9.02-1.08-1.27-2.61-1.87-4.68-1.82a1.99 1.99 0 1 1-.1-3.98c3.27-.08 5.97 1.04 7.82 3.23 2.41 2.86 3.24 7.36 2.27 12.35-1.27 6.52-4.87 9.5-6.9 10.69-1.61.95-3.33 1.44-4.93 1.44ZM125.98 105.72c-.23 0-.47-.04-.7-.13-4.36-1.63-7.68-3.75-10.44-6.68-3.54-3.75-6.04-8.7-7.64-15.15-.15-.6-.28-1.15-.4-1.7-.23-1.08.45-2.14 1.53-2.37 1.08-.23 2.14.45 2.37 1.53.11.5.23 1.01.37 1.57 1.43 5.76 3.61 10.14 6.67 13.37 2.33 2.47 5.17 4.27 8.94 5.68 1.03.38 1.56 1.53 1.17 2.56-.3.8-1.06 1.3-1.87 1.3Z"/><path d="M107.53 85.52c-1.61 0-3.33-.49-4.94-1.44-2.03-1.19-5.62-4.17-6.89-10.68-.97-4.99-.14-9.49 2.27-12.35 1.85-2.19 4.56-3.31 7.82-3.23 1.1.03 1.97.94 1.94 2.04-.03 1.1-.95 1.97-2.04 1.94-2.07-.05-3.6.54-4.68 1.82-1.58 1.87-2.12 5.33-1.4 9.02.42 2.14 1.62 6.02 5 8.01 1.36.8 2.86 1.09 3.91.75.2-.06.41-.1.62-.1 1.1 0 2 .89 2 1.99 0 .92-.62 1.7-1.47 1.92-.67.21-1.39.31-2.13.31Z"/><path d="M106.93 65.92c-.87 0-1.68-.58-1.92-1.47-.4-1.47-.76-2.89-1.07-4.23-4.23-18.23-2.3-32.42 5.73-42.19 4.81-5.85 11.91-10.04 20.54-12.13 6.13-1.48 10.97-1.42 11.62-1.41.65-.02 5.49-.08 11.62 1.41 8.63 2.09 15.73 6.28 20.54 12.12 8.03 9.76 9.96 23.96 5.73 42.2-.3 1.33-.66 2.75-1.06 4.22a1.993 1.993 0 0 1-2.45 1.39 1.993 1.993 0 0 1-1.39-2.45c.39-1.41.73-2.78 1.02-4.06 3.94-16.96 2.29-29.99-4.9-38.75-5.35-6.51-12.9-9.46-18.29-10.78-5.96-1.46-10.69-1.33-10.74-1.32h-.13c-.05 0-4.78-.13-10.74 1.32-5.39 1.32-12.95 4.26-18.3 10.78-7.19 8.76-8.84 21.79-4.91 38.74.29 1.29.64 2.65 1.03 4.07a1.993 1.993 0 0 1-1.92 2.52ZM141.83 210.24c-6.7 0-18.87-.62-31.11-2.37-15.02-2.14-25.6-5.29-31.47-9.35-2.74-1.9-4.45-4.92-4.7-8.28-.34-4.61-.57-39.18 2.61-47.12 3.02-7.55 10.17-13.21 21.86-17.3 1.91-.67 4.11-1.29 6.44-1.95 4.65-1.32 9.93-2.81 12.02-4.57 5.34-4.48 5.77-8.65 6.27-13.46.08-.77.16-1.57.27-2.37a1.992 1.992 0 0 1 3.95.51c-.1.75-.18 1.52-.25 2.26-.51 4.96-1.09 10.58-7.67 16.11-2.75 2.31-8.21 3.86-13.5 5.36-2.27.64-4.41 1.25-6.21 1.88-10.53 3.68-16.9 8.59-19.47 15.02-2.57 6.42-2.8 39-2.34 45.35.16 2.16 1.25 4.09 2.99 5.3 5.28 3.65 15.57 6.66 29.76 8.68 12.03 1.72 23.98 2.33 30.55 2.33 14.49 0 48.3-2.69 60.31-11.01 1.74-1.21 2.83-3.14 2.99-5.3.47-6.34.25-38.9-2.33-45.35-2.57-6.42-8.94-11.33-19.47-15.02-1.8-.63-3.94-1.24-6.21-1.88-5.29-1.5-10.75-3.04-13.49-5.35-6.57-5.52-7.15-11.14-7.66-16.1-.08-.75-.16-1.52-.25-2.27a1.992 1.992 0 0 1 3.95-.51c.1.8.19 1.6.27 2.38.5 4.82.93 8.98 6.26 13.46 2.09 1.76 7.36 3.25 12.02 4.57 2.33.66 4.53 1.28 6.44 1.95 11.68 4.09 18.83 9.74 21.85 17.3 3.19 7.97 2.95 42.52 2.61 47.12-.25 3.37-1.96 6.39-4.7 8.28-5.86 4.06-16.45 7.21-31.47 9.35-12.24 1.75-24.41 2.37-31.11 2.37ZM141.83 77.89c-.49 0-.89-.4-.89-.89v-1.12c0-.49.4-.89.89-.89s.89.4.89.89V77c0 .49-.4.89-.89.89Z"/><path d="M157.68 105.72c-.81 0-1.57-.49-1.87-1.3-.39-1.03.14-2.18 1.17-2.56 10.92-4.08 14.21-12.73 15.98-20.64a1.998 1.998 0 0 1 2.38-1.51c1.07.24 1.75 1.31 1.51 2.38-3.6 16.06-11.77 21-18.48 23.5-.23.09-.47.13-.7.13ZM125.98 105.72c-.23 0-.47-.04-.7-.13-4.56-1.7-8-3.96-10.83-7.1-3.64-4.03-6.14-9.4-7.65-16.43-.23-1.08.45-2.14 1.53-2.37 1.08-.23 2.14.45 2.37 1.53 3.02 14.04 9.77 18.31 15.98 20.63 1.03.39 1.55 1.53 1.17 2.56-.3.8-1.06 1.3-1.87 1.3Z"/><path class="c" d="M125.98 29.66c-1.18 19.95-19.06 34.27-19.06 34.27C90.71 4.74 141.83 6.49 141.83 6.49s51.12-1.75 34.9 57.43l-1.83-6.47-33.74-8.96s-7.85-8.21-15.18-18.83Z"/><path d="M106.93 65.92h-.08a2 2 0 0 1-1.84-1.46c-5.47-19.97-4.03-35.43 4.27-45.94 4.78-6.05 11.94-10.39 20.71-12.55 6.24-1.54 11.18-1.48 11.84-1.46.66-.02 5.6-.08 11.84 1.46 8.77 2.16 15.93 6.5 20.71 12.55 8.31 10.51 9.75 25.97 4.27 45.94a2.01 2.01 0 0 1-1.91 1.47c-.89 0-1.68-.59-1.92-1.45l-1.83-6.47c-.3-1.06.32-2.16 1.38-2.46.82-.23 1.66.08 2.14.72 3-15.21 1.25-27.06-5.25-35.27-10.27-13-29.17-12.51-29.35-12.5h-.14c-.05 0-4.89-.14-10.94 1.37-5.48 1.37-13.12 4.41-18.43 11.15-6.59 8.36-8.29 20.47-5.07 36.04a2 2 0 0 1 2.51-1.07c1.03.38 1.57 1.52 1.19 2.56l-2.21 6.07c-.29.79-1.04 1.31-1.87 1.31ZM141.83 210.24c-6.7 0-18.87-.62-31.11-2.37-15.02-2.14-25.6-5.29-31.47-9.35-2.74-1.9-4.45-4.92-4.7-8.28-.34-4.61-.57-39.18 2.61-47.12 3.02-7.55 10.17-13.21 21.86-17.3 1.91-.67 4.11-1.29 6.44-1.95 4.65-1.32 9.93-2.81 12.02-4.57 5.34-4.48 5.77-8.65 6.27-13.46.08-.77.16-1.57.27-2.37a1.992 1.992 0 0 1 3.95.51c-.1.75-.18 1.52-.25 2.26-.51 4.96-1.09 10.58-7.67 16.11-2.75 2.31-8.21 3.86-13.5 5.36-2.27.64-4.41 1.25-6.21 1.88-10.53 3.68-16.9 8.59-19.47 15.02-2.57 6.42-2.8 39-2.34 45.35.16 2.16 1.25 4.09 2.99 5.3 5.28 3.65 15.57 6.66 29.76 8.68 12.03 1.72 23.98 2.33 30.55 2.33 14.49 0 48.3-2.69 60.31-11.01 1.74-1.21 2.83-3.14 2.99-5.3.47-6.34.25-38.9-2.33-45.35-2.57-6.42-8.94-11.33-19.47-15.02-1.8-.63-3.94-1.24-6.21-1.88-5.29-1.5-10.75-3.04-13.49-5.35-6.57-5.52-7.15-11.14-7.66-16.1-.08-.75-.16-1.52-.25-2.27a1.992 1.992 0 0 1 3.95-.51c.1.8.19 1.6.27 2.38.5 4.82.93 8.98 6.26 13.46 2.09 1.76 7.36 3.25 12.02 4.57 2.33.66 4.53 1.28 6.44 1.95 11.68 4.09 18.83 9.74 21.85 17.3 3.19 7.97 2.95 42.52 2.61 47.12-.25 3.37-1.96 6.39-4.7 8.28-5.86 4.06-16.45 7.21-31.47 9.35-12.24 1.75-24.41 2.37-31.11 2.37ZM141.83 77.89c-.49 0-.89-.4-.89-.89v-1.12c0-.49.4-.89.89-.89s.89.4.89.89V77c0 .49-.4.89-.89.89Z"/><path d="M160.02 56.2c-.38 0-.77-.14-1.07-.42-1.24-1.18-4-1.81-6.47-.83-.8.32-1.7-.07-2.01-.87-.32-.8.07-1.7.87-2.01 3.35-1.33 7.44-.71 9.74 1.46.62.59.65 1.57.06 2.19-.3.32-.72.48-1.13.48ZM123.64 56.2c-.41 0-.82-.16-1.13-.48-.59-.62-.56-1.6.06-2.19 2.3-2.17 6.39-2.79 9.74-1.46.8.32 1.18 1.22.87 2.01-.32.8-1.22 1.19-2.01.87-2.46-.98-5.22-.35-6.47.83-.3.28-.68.42-1.07.42ZM114.48 57c-.49 0-.97-.18-1.36-.53-.81-.75-.85-2.01-.1-2.82 2.7-2.9 8.64-12.64 9.79-24.19.11-1.1 1.09-1.89 2.18-1.79 1.1.11 1.89 1.09 1.79 2.18-1.21 12.11-7.29 22.68-10.84 26.5-.39.42-.93.64-1.46.64Z"/><path d="M141.16 50.48c-.45 0-.91-.15-1.29-.47-4.74-4.01-14.75-16.77-17.97-22.39-.55-.96-.21-2.17.74-2.72.96-.55 2.17-.21 2.72.74 3 5.26 12.69 17.61 17.08 21.32a1.996 1.996 0 0 1-1.28 3.52ZM164.9 55.78a2 2 0 0 1-1.98-1.78c-1.26-11.53-6.28-26.04-14.63-32.45a1.991 1.991 0 0 1-.37-2.79c.67-.87 1.92-1.04 2.79-.37 6.2 4.76 14.15 16.83 16.16 35.18.12 1.09-.67 2.08-1.76 2.2-.07 0-.15.01-.22.01ZM141.83 93.67c-8.11 0-11.42-7.79-11.56-8.12-.2-.48-.14-1.02.14-1.45.29-.43.77-.69 1.29-.69h20.25c.52 0 1 .26 1.29.69.29.43.34.98.14 1.45-.14.33-3.45 8.12-11.56 8.12Zm-7.43-7.16c1.32 1.8 3.72 4.06 7.43 4.06s6.11-2.27 7.43-4.06H134.4ZM159.95 67.05c-.48 0-.95-.22-1.25-.64-.92-1.25-2.3-1.49-3.04-1.52-1.21-.04-2.41.37-2.99 1.05a1.553 1.553 0 1 1-2.36-2.02c1.2-1.4 3.29-2.21 5.46-2.13 2.22.09 4.19 1.1 5.43 2.79.5.69.35 1.66-.34 2.17-.28.2-.6.3-.91.3ZM123.72 67.05c-.32 0-.64-.1-.91-.3-.69-.5-.84-1.47-.34-2.17 1.23-1.69 3.21-2.7 5.43-2.79 2.17-.08 4.26.73 5.46 2.13a1.553 1.553 0 1 1-2.36 2.02c-.58-.67-1.78-1.1-2.99-1.05-.74.03-2.13.26-3.04 1.52-.3.42-.78.64-1.25.64ZM159.42 137.29h-36.1c-.84 0-1.59-.53-1.87-1.31l-5.02-13.84c-.38-1.03.16-2.18 1.19-2.55 1.03-.38 2.18.16 2.55 1.19l4.55 12.53h33.29l4.56-13.13c.36-1.04 1.5-1.59 2.54-1.23 1.04.36 1.59 1.5 1.23 2.54l-5.02 14.47c-.28.8-1.03 1.34-1.88 1.34ZM114.21 155.3c-.16 0-.31-.03-.47-.09a1.333 1.333 0 0 1-.78-1.71l4.33-11.52c.26-.69 1.03-1.03 1.71-.78.69.26 1.03 1.02.78 1.71l-4.33 11.52c-.2.53-.71.86-1.24.86ZM168.55 153.04c-.51 0-1-.3-1.22-.8l-4.52-10.37c-.29-.67.01-1.46.69-1.75.67-.29 1.46.01 1.75.69l4.52 10.37c.29.67-.01 1.46-.69 1.75-.17.08-.35.11-.53.11ZM154.97 153.04c-.63 0-1.18-.44-1.3-1.08l-1.39-7.32c-.14-.72.34-1.42 1.06-1.55.72-.14 1.42.34 1.55 1.06l1.39 7.32c.14.72-.34 1.42-1.06 1.55-.08.02-.17.02-.25.02ZM131.15 153.04c-.08 0-.17 0-.25-.02-.72-.14-1.19-.83-1.06-1.55l1.39-7.32c.14-.72.83-1.19 1.55-1.06.72.14 1.19.83 1.06 1.55l-1.39 7.32c-.12.64-.68 1.08-1.3 1.08Z"/><path class="b" d="M234.72 108.95a3.944 3.944 0 0 0-4.3-.73c-1.2.53-2.05 1.61-2.29 2.9l.3-1.75c.22-1.31-.23-2.64-1.2-3.55a3.944 3.944 0 0 0-4.3-.73 3.94 3.94 0 0 0-2.29 2.91l.23-1.36a3.965 3.965 0 0 0-5.5-4.29 3.971 3.971 0 0 0-2.3 2.95l-.85 4.98-.55 5.22.15.25c-.44.26-.88.51-1.32.77l-.02-.03V87.57c0-1.33-.67-2.56-1.78-3.3a3.968 3.968 0 0 0-4.36 0 3.954 3.954 0 0 0-1.77 3.3v24.31l-.93 11.75c-2.46 3.92-2.62 8.76-1.05 12.41 2.32 5.42 6.97 7.13 15.64 7.13 17.48 0 18.33-16.5 18.33-22.48h-.04l1.4-8.21c.22-1.31-.23-2.64-1.2-3.55Z"/><path d="M222.93 124c-1.28 0-2.54-.41-3.59-1.21a1.993 1.993 0 0 1-.38-2.79c.67-.88 1.92-1.04 2.79-.38.56.43 1.32.52 1.97.23.61-.27 1.04-.81 1.15-1.46a1.981 1.981 0 0 1 2.3-1.63c1.09.18 1.82 1.21 1.63 2.3a5.915 5.915 0 0 1-3.47 4.45c-.77.34-1.59.51-2.4.51ZM228.13 113.11c-.11 0-.22 0-.34-.03a1.981 1.981 0 0 1-1.63-2.3l.3-1.75a1.96 1.96 0 0 0-.59-1.76c-.58-.54-1.41-.68-2.13-.36-.6.26-1.02.81-1.14 1.45a1.99 1.99 0 0 1-2.32 1.6 1.99 1.99 0 0 1-1.6-2.32 5.941 5.941 0 0 1 3.45-4.38c2.19-.97 4.73-.54 6.47 1.1a5.943 5.943 0 0 1 1.8 5.34l-.3 1.75c-.16.97-1.01 1.66-1.96 1.66Z"/><path d="M230.42 127.13c-1.48 0-2.94-.55-4.06-1.61a5.928 5.928 0 0 1-1.79-5.34l1.59-9.34.03-.13a5.908 5.908 0 0 1 3.44-4.31c2.19-.97 4.73-.53 6.47 1.1a5.943 5.943 0 0 1 1.8 5.34l-1.59 9.35a5.909 5.909 0 0 1-3.46 4.44c-.77.34-1.59.51-2.4.51Zm-.35-15.57-1.58 9.29c-.11.66.11 1.31.59 1.77.57.54 1.41.68 2.13.36.61-.27 1.04-.81 1.15-1.46l.2-1.15 1.4-8.2a1.96 1.96 0 0 0-.59-1.76c-.58-.54-1.41-.68-2.13-.36-.59.26-1.02.8-1.14 1.44 0 .03-.01.06-.02.08ZM211.67 117.51c-.07 0-.14 0-.21-.01a1.995 1.995 0 0 1-1.77-2.19l.55-5.22s.01-.08.02-.12l.85-4.98a5.935 5.935 0 0 1 3.46-4.44c2.19-.96 4.73-.53 6.47 1.11a5.942 5.942 0 0 1 1.8 5.33l-.23 1.36s-.01.06-.02.09l-.46 2.68a1.981 1.981 0 0 1-2.3 1.63 1.981 1.981 0 0 1-1.63-2.3l.47-2.73s.01-.06.02-.09l.22-1.31a1.96 1.96 0 0 0-.59-1.76c-.58-.54-1.41-.68-2.14-.37-.6.26-1.03.81-1.14 1.47l-.83 4.91-.54 5.15a1.992 1.992 0 0 1-1.98 1.78Z"/><path d="M201.64 125.65h-.16a1.992 1.992 0 0 1-1.83-2.14l.93-11.67V87.6c0-2 1-3.85 2.66-4.96 2-1.32 4.57-1.32 6.56 0a5.957 5.957 0 0 1 2.67 4.96v28.92c0 1.1-.89 1.99-1.99 1.99s-1.99-.89-1.99-1.99V87.6a1.97 1.97 0 0 0-3.05-1.64c-.55.36-.87.98-.87 1.64v24.47l-.93 11.75a2 2 0 0 1-1.98 1.84Z"/><path d="M216.23 145.18c-4.85 0-8.34-.54-11-1.7-3.01-1.31-5.12-3.48-6.47-6.64-1.94-4.53-1.48-9.99 1.2-14.25.92-1.48 2.09-2.78 3.48-3.88 1.07-.85 3.04-2.12 6.05-3.9.44-.26.88-.52 1.33-.78 2.38-1.39 5.23-2.99 8.45-4.77.3-.16.51-.27.62-.34a5.938 5.938 0 0 1 5.48-.65c2.23.84 3.73 2.94 3.83 5.33.02.41 0 .84-.08 1.28v.02a5.923 5.923 0 0 1-2.32 3.72l-9.08 7.51c.11.52.21 1.17.26 1.93.19 2.67-.26 5.53-1.31 8.51a2 2 0 0 1-2.54 1.22 2 2 0 0 1-1.22-2.54c1.95-5.53.8-8.8.7-9.06-.36-.82-.12-1.73.57-2.3l10.12-8.37s.07-.05.1-.08c.42-.3.7-.74.79-1.24.03-.15.04-.29.03-.42-.03-.8-.53-1.49-1.26-1.77-.62-.24-1.31-.15-1.84.24-.06.05-.13.09-.2.12 0 0-.26.15-.73.39a353.448 353.448 0 0 0-9.65 5.48c-3.49 2.07-4.97 3.09-5.6 3.59-1.03.82-1.9 1.78-2.58 2.87-1.96 3.13-2.32 7.28-.91 10.57 1.87 4.37 5.48 5.92 13.81 5.92 6.77 0 11.32-2.58 13.93-7.88 1.62-3.29 2.4-7.41 2.4-12.6 0-1.1.89-1.99 1.99-1.99s1.99.89 1.99 1.99c0 5.81-.91 10.51-2.81 14.36-3.25 6.62-9.31 10.11-17.51 10.11Z"/><path class="b" transform="rotate(180 343.935 208.295)" d="M1.99 193.14h683.88v30.32H1.99z"/><path d="M685.87 195.13H1.99c-1.1 0-1.99-.89-1.99-1.99s.89-1.99 1.99-1.99h683.88c1.1 0 1.99.89 1.99 1.99s-.89 1.99-1.99 1.99Z"/><path class="b" d="m228.31 198.81 1.47-5.77H125.19l1.47 5.77a9.078 9.078 0 0 0 8.94 7.54h83.77c4.42 0 8.19-3.18 8.94-7.54Z"/><path d="M219.36 208.34h-83.77c-5.38 0-9.94-3.83-10.89-9.11l-1.45-5.7c-.15-.6-.02-1.23.36-1.71.38-.49.96-.77 1.57-.77h104.59c.62 0 1.2.28 1.57.77.38.49.51 1.12.36 1.71l-1.45 5.7a11.05 11.05 0 0 1-10.89 9.11Zm-91.62-13.31.84 3.29.03.15a7.065 7.065 0 0 0 6.98 5.88h83.77c3.46 0 6.39-2.47 6.98-5.88 0-.05.02-.1.03-.15l.84-3.29h-99.47Z"/><path class="b" d="m255.19 197.28 11.05-55.81c0-5.01-4.06-9.07-9.07-9.07h-86.45c-5.01 0-9.07 4.06-9.07 9.07l-11.05 55.81c0 5.01 4.06 9.07 9.07 9.07h86.45c5.01 0 9.07-4.06 9.07-9.07Z"/><path d="M246.12 208.34h-86.45c-6.1 0-11.07-4.96-11.07-11.07 0-.13.01-.26.04-.39l11.01-55.62c.11-6.01 5.03-10.86 11.06-10.86h86.45c6.1 0 11.07 4.96 11.07 11.07 0 .13-.01.26-.04.39l-11.01 55.62c-.11 6.01-5.03 10.86-11.06 10.86Zm-93.52-10.88c.1 3.82 3.24 6.9 7.08 6.9h86.45c3.9 0 7.08-3.18 7.08-7.08 0-.13.01-.26.04-.39l11.01-55.6c-.1-3.82-3.24-6.9-7.08-6.9h-86.45c-3.9 0-7.08 3.18-7.08 7.08 0 .13-.01.26-.04.39l-11.01 55.6Z"/><circle class="c" cx="208.42" cy="169.37" r="6.44"/><path class="b" d="M96.12 174.82c7.74-2.15 16.09-4.2 21.12-3.48.59.08 1.98 1.2 3.71 2.82.65-.85 4.04 1.03 5.12 1.61l8.39 4.42c1.17.62 1.96 1.79 2.09 3.11.16 1.57-.64 3.1-2.03 3.86-.27.15-.56.27-.86.34.35.4.55.62.55.62.88 1 1.2 2.37.85 3.65a3.956 3.956 0 0 1-3.27 2.89 3.96 3.96 0 0 1-3.51-1.3l-2.16-2.45c.81.98 1.1 2.3.77 3.55a3.958 3.958 0 0 1-3.27 2.88c-1.32.19-2.63-.3-3.51-1.3l-1.64-1.87h-.02a3.947 3.947 0 0 1-2.59 6.31 3.96 3.96 0 0 1-3.51-1.3l-2.1-2.3c.58.92.75 2.06.47 3.12a3.981 3.981 0 0 1-3.28 2.89c-1.31.19-2.63-.3-3.51-1.3l-1.96-2.21s-1.51-1.72-3.54-4.01c-17.85 4.95-29.42-13.04-2.31-20.56Z"/><path d="M123.06 199.37c-1.69 0-3.31-.72-4.45-2.02l-10.92-12.39c-.73-.83-.65-2.09.18-2.81.83-.73 2.09-.65 2.81.18l10.92 12.39c.44.5 1.09.74 1.74.64.78-.11 1.42-.67 1.63-1.43.16-.61.02-1.26-.38-1.75l-.07-.08-8.8-9.97c-.73-.83-.65-2.09.18-2.81.83-.73 2.09-.65 2.81.18l1.25 1.42 7.57 8.58s.03.03.04.05l.08.1a5.954 5.954 0 0 1 1.16 5.33 5.95 5.95 0 0 1-4.92 4.34c-.28.04-.56.06-.84.06Z"/><path d="M106.88 204.94c-1.69 0-3.31-.72-4.45-2.02l-1.95-2.21s-1.13-1.28-2.74-3.11c-4.27.97-8.5.78-12.02-.54-3.81-1.43-6.5-4.07-7.38-7.24-1.51-5.45 2.22-12.76 17.24-16.93 8.24-2.29 16.6-4.29 21.93-3.53.89.13 2 .73 4.79 3.34 4.38 4.1 10.93 11.34 12.84 13.46.35.39.54.61.54.61l.02.02a5.954 5.954 0 0 1-3.64 9.83 5.96 5.96 0 0 1-5.28-1.95l-9.81-11.13c-.73-.83-.65-2.09.18-2.81.83-.73 2.08-.65 2.81.18l9.81 11.13c.44.49 1.09.73 1.75.64.78-.11 1.41-.67 1.62-1.43.17-.64.02-1.31-.42-1.8-.04-.05-.24-.27-.55-.62-1.87-2.08-8.32-9.21-12.59-13.2-1.82-1.71-2.57-2.2-2.8-2.32-4.66-.59-12.78 1.41-20.14 3.45-12.2 3.38-15.42 8.59-14.47 12.02 1.13 4.06 7.71 6.91 15.71 4.69.73-.2 1.52.03 2.03.6 2.03 2.3 3.54 4.02 3.54 4.02l1.95 2.21c.44.5 1.09.74 1.74.65.78-.11 1.42-.67 1.63-1.43.14-.52.06-1.08-.23-1.54 0-.01-.01-.02-.02-.03-.04-.06-.09-.13-.16-.21l-8.2-8.88c-.75-.81-.7-2.07.11-2.82.81-.75 2.07-.7 2.82.11l8.21 8.9.03.03a5.924 5.924 0 0 1 1.29 5.48 5.95 5.95 0 0 1-4.92 4.34c-.28.04-.56.06-.83.06Zm10.08-31.62Zm-.24-.06Z"/><path d="M115.31 202.52c-1.69 0-3.31-.72-4.45-2l-10.69-11.71c-.74-.81-.68-2.07.13-2.82.81-.74 2.07-.68 2.82.13l10.7 11.72s.02.02.02.03c.44.49 1.09.74 1.75.65.78-.11 1.41-.67 1.62-1.43.17-.63.01-1.31-.43-1.81l-9.08-10.31c-.73-.83-.65-2.09.18-2.81.83-.73 2.09-.65 2.81.18l9.08 10.31a5.94 5.94 0 0 1 1.28 5.48 5.96 5.96 0 0 1-5.74 4.41ZM133.66 189.5c-.87 0-1.67-.57-1.92-1.45-.3-1.06.32-2.16 1.38-2.46 0 0 .03 0 .04-.01.14-.04.28-.09.41-.17.69-.38 1.09-1.13 1.01-1.91a1.97 1.97 0 0 0-1.04-1.55l-8.62-4.54c-1.85-.99-2.73-1.33-3.15-1.43-.65.29-1.43.23-2.03-.23a1.991 1.991 0 0 1-.37-2.79c1.64-2.15 4.99-.36 7.43.94l.21.11 8.39 4.42c1.77.94 2.94 2.68 3.14 4.68a5.91 5.91 0 0 1-3.06 5.8c-.42.23-.85.4-1.3.52-.17.05-.35.07-.52.07Zm-11.13-14.13Z"/><path class="b" d="M436.44 103.5a4.27 4.27 0 0 1 5.21-5.43l9.88 2.74 14.43 2.35.26.06 3.03-12.95a4.251 4.251 0 0 1 3.08-2.63c1.68-.36 3.4.3 4.4 1.7.83 1.18.64 2.37.5 4.02-.14 1.64-1.4 8.37-1.41 14.15 0 3.21 2.53 8.76.02 17.79-3.43 12.36-10.77 14.76-20.51 12.05-2.54-.71-5.39-1.5-8.02-2.24l-.26-.06-9.88-2.74a4.272 4.272 0 0 1-1.66-7.34 4.29 4.29 0 0 1 3.95-.89l-1.91-.53a4.272 4.272 0 0 1-1.66-7.34 4.29 4.29 0 0 1 3.95-.89l-1.47-.41a4.272 4.272 0 0 1-1.66-7.34 4.29 4.29 0 0 1 3.95-.89l-1.28-.36a4.272 4.272 0 0 1-2.92-2.8Z"/><path d="M439.83 117.3c-.18 0-.36-.02-.53-.07l-1.47-.41a6.273 6.273 0 0 1-4.29-4.11 6.25 6.25 0 0 1 1.85-6.66 6.272 6.272 0 0 1 5.79-1.31c1.06.29 1.68 1.39 1.39 2.45a1.993 1.993 0 0 1-2.45 1.39c-.74-.21-1.53-.03-2.11.47-.7.6-.96 1.55-.68 2.42.24.74.82 1.3 1.56 1.5l1.47.41c1.06.29 1.68 1.39 1.39 2.45-.25.88-1.05 1.46-1.92 1.46ZM449.38 119.79c-.56 0-1.12-.08-1.68-.23a1.993 1.993 0 0 1-1.39-2.45 1.993 1.993 0 0 1 2.45-1.39c.74.2 1.53.02 2.11-.48.69-.6.95-1.55.67-2.43-.24-.73-.82-1.29-1.56-1.49l-1.28-.36a1.993 1.993 0 0 1-1.39-2.45 1.993 1.993 0 0 1 2.45-1.39l1.28.36c2.03.56 3.63 2.1 4.29 4.1.77 2.4.05 5.02-1.85 6.67a6.247 6.247 0 0 1-4.11 1.54Z"/><path d="M450.38 111.2c-.56 0-1.12-.08-1.68-.23l-9.88-2.74a6.273 6.273 0 0 1-4.29-4.11c-.77-2.39-.05-5 1.85-6.66a6.251 6.251 0 0 1 5.79-1.31l9.88 2.74c2.03.56 3.63 2.1 4.29 4.1.77 2.4.05 5.02-1.85 6.67a6.247 6.247 0 0 1-4.11 1.54Zm-9.88-11.3c-.54 0-1.07.19-1.49.56-.69.6-.96 1.56-.68 2.43a2.3 2.3 0 0 0 1.56 1.5l9.88 2.74c.74.21 1.53.03 2.11-.48.69-.6.95-1.55.67-2.43-.24-.73-.82-1.29-1.56-1.49l-9.88-2.74c-.2-.06-.41-.08-.62-.08ZM448.56 128.44c-.56 0-1.12-.08-1.68-.23a1.993 1.993 0 0 1-1.39-2.45 1.993 1.993 0 0 1 2.45-1.39c.74.21 1.53.03 2.11-.48.69-.6.95-1.55.67-2.43-.24-.73-.82-1.29-1.56-1.49l-9.88-2.74c-.74-.21-1.53-.03-2.11.47-.7.6-.96 1.55-.68 2.42.24.74.82 1.3 1.56 1.5l1.91.53c1.06.29 1.68 1.39 1.39 2.45a1.993 1.993 0 0 1-2.45 1.39l-1.91-.53a6.273 6.273 0 0 1-4.29-4.11 6.25 6.25 0 0 1 1.85-6.66 6.272 6.272 0 0 1 5.79-1.31l9.88 2.74c2.03.56 3.63 2.1 4.29 4.1.77 2.4.05 5.02-1.85 6.67a6.247 6.247 0 0 1-4.11 1.54Z"/><path d="M448.17 137.21c-.43 0-.85-.04-1.28-.13-.02 0-.04 0-.06-.01-.12-.03-.22-.05-.33-.08l-9.88-2.74a6.239 6.239 0 0 1-4.28-4.11 6.25 6.25 0 0 1 1.85-6.66 6.259 6.259 0 0 1 5.78-1.31l9.88 2.74c2.04.57 3.64 2.1 4.29 4.11.78 2.4.05 5.01-1.85 6.66a6.31 6.31 0 0 1-4.12 1.53Zm-.46-4.03c.7.15 1.43-.05 1.96-.51.7-.6.96-1.55.68-2.43a2.3 2.3 0 0 0-1.56-1.5l-9.88-2.74c-.74-.21-1.53-.03-2.1.47-.7.6-.96 1.55-.68 2.42.24.74.82 1.3 1.56 1.5l9.88 2.74s.1.02.14.03Z"/><path d="M461.86 140.36c-2.15 0-4.5-.36-7.08-1.07-2.54-.71-5.39-1.5-8.02-2.24h-.02c-4.84-1.36-8.94-2.51-8.94-2.51a1.994 1.994 0 1 1 1.08-3.84s4.1 1.15 8.95 2.52h.02c2.61.73 5.46 1.53 8 2.23 4.71 1.31 8.36 1.23 11.17-.22 3.13-1.63 5.39-5.04 6.89-10.44 1.71-6.14.92-10.54.35-13.75-.24-1.32-.44-2.46-.44-3.51 0-4.46.72-9.38 1.14-12.32.13-.88.24-1.65.27-2.01.01-.14.02-.28.04-.41.12-1.36.14-1.84-.18-2.28-.53-.74-1.45-1.1-2.35-.91-.71.15-1.3.63-1.59 1.29l-3.57 15.24c-.11.46-.37.87-.75 1.15-.02.02-2.82 2.13-4.79 5.37-2.45 4.04-2.52 7.97-.22 11.69.58.94.29 2.16-.65 2.74-.94.58-2.16.29-2.74-.65-3.14-5.07-3.04-10.59.27-15.97 1.8-2.93 4.09-5.02 5.16-5.92l.41-1.77 3.03-12.95c.02-.09.05-.18.08-.26a6.245 6.245 0 0 1 4.52-3.86c2.46-.53 4.99.45 6.44 2.5 1.19 1.68 1.04 3.34.89 4.94l-.03.4c-.04.48-.15 1.22-.3 2.24-.41 2.83-1.1 7.57-1.1 11.75 0 .7.17 1.67.38 2.81.6 3.39 1.52 8.5-.43 15.52-1.81 6.52-4.72 10.75-8.89 12.91-2.06 1.07-4.38 1.6-7 1.6Z"/><path d="M465.96 105.16c-.11 0-.21 0-.32-.03l-14.43-2.35a2 2 0 0 1-1.65-2.29 2 2 0 0 1 2.29-1.65l14.43 2.35a2 2 0 0 1 1.65 2.29c-.16.98-1.01 1.67-1.96 1.67Z"/><path class="b" d="m458.22 198.81-1.47-5.77h104.59l-1.47 5.77a9.078 9.078 0 0 1-8.94 7.54h-83.77c-4.42 0-8.19-3.18-8.94-7.54Z"/><path d="M550.94 208.34h-83.77c-5.38 0-9.94-3.83-10.89-9.11l-1.45-5.7c-.15-.6-.02-1.23.36-1.71.38-.49.96-.77 1.57-.77h104.59c.62 0 1.2.28 1.57.77.38.49.51 1.12.36 1.71l-1.45 5.7a11.05 11.05 0 0 1-10.89 9.11Zm-91.62-13.31.84 3.29.03.15a7.065 7.065 0 0 0 6.98 5.88h83.77c3.46 0 6.39-2.47 6.98-5.88 0-.05.02-.1.03-.15l.84-3.29h-99.47Z"/><path class="b" d="m431.34 197.28-11.05-55.81c0-5.01 4.06-9.07 9.07-9.07h86.45c5.01 0 9.07 4.06 9.07 9.07l11.05 55.81c0 5.01-4.06 9.07-9.07 9.07h-86.45c-5.01 0-9.07-4.06-9.07-9.07Z"/><path d="M526.86 208.34h-86.45c-6.03 0-10.96-4.85-11.06-10.86l-11.01-55.62c-.03-.13-.04-.26-.04-.39 0-6.1 4.96-11.07 11.07-11.07h86.45c6.03 0 10.96 4.85 11.06 10.86l11.01 55.62c.03.13.04.26.04.39 0 6.1-4.96 11.07-11.07 11.07Zm-104.57-67.06 11.01 55.6c.03.13.04.26.04.39 0 3.9 3.18 7.08 7.08 7.08h86.45c3.84 0 6.98-3.08 7.08-6.9l-11.01-55.6c-.03-.13-.04-.26-.04-.39 0-3.9-3.18-7.08-7.08-7.08h-86.45c-3.84 0-6.98 3.08-7.08 6.9Z"/><circle class="c" cx="478.11" cy="169.37" r="6.44"/><path class="b" d="M590.91 175.99c-7.74-2.15-16.09-4.2-21.12-3.48-.59.08-1.98 1.2-3.71 2.82-.65-.85-4.04 1.03-5.12 1.61l-8.39 4.42a3.968 3.968 0 0 0-2.09 3.11c-.16 1.57.64 3.1 2.03 3.86.27.15.56.27.86.34-.35.4-.55.62-.55.62-.88 1-1.2 2.37-.85 3.65.41 1.53 1.7 2.67 3.27 2.89a3.96 3.96 0 0 0 3.51-1.3l2.16-2.45c-.81.98-1.1 2.3-.77 3.55.42 1.53 1.7 2.66 3.27 2.88 1.32.19 2.63-.3 3.51-1.3l1.64-1.87h.02a3.947 3.947 0 0 0 2.59 6.31 3.96 3.96 0 0 0 3.51-1.3l2.1-2.3c-.58.92-.75 2.06-.47 3.12a3.981 3.981 0 0 0 3.28 2.89c1.31.19 2.63-.3 3.51-1.3l1.96-2.21s1.51-1.72 3.54-4.01c17.85 4.95 29.42-13.04 2.31-20.56Z"/><path d="M563.96 200.54c-.28 0-.56-.02-.84-.06a5.953 5.953 0 0 1-4.92-4.33c-.5-1.87-.06-3.86 1.16-5.34l.08-.1s.03-.03.04-.05l8.81-9.99c.73-.83 1.99-.91 2.81-.18.83.73.91 1.99.18 2.81l-1.25 1.42-7.61 8.63c-.41.49-.55 1.15-.39 1.77.2.75.84 1.32 1.62 1.42.65.09 1.31-.15 1.74-.64l10.91-12.39c.73-.83 1.99-.91 2.81-.18.83.73.91 1.99.18 2.81l-10.92 12.39a5.941 5.941 0 0 1-4.45 2.02Z"/><path d="M580.15 206.11c-.28 0-.55-.02-.83-.06a5.95 5.95 0 0 1-4.23-9.03c.17-.28.36-.54.6-.8l.03-.03 8.21-8.9c.75-.81 2.01-.86 2.82-.11s.86 2.01.11 2.82l-8.2 8.88c-.07.08-.12.15-.16.21 0 .01-.01.02-.02.03-.29.46-.37 1.03-.23 1.55.21.76.85 1.32 1.63 1.43.65.09 1.3-.15 1.74-.65l1.96-2.21s1.51-1.72 3.54-4.01c.5-.57 1.29-.8 2.03-.6 8.01 2.22 14.59-.63 15.71-4.69.95-3.43-2.27-8.64-14.47-12.02-7.36-2.04-15.49-4.04-20.14-3.45-.22.13-.97.62-2.8 2.32-4.26 3.99-10.72 11.12-12.6 13.22-.3.34-.5.56-.54.61-.43.5-.59 1.17-.42 1.8.21.76.84 1.33 1.62 1.44.65.09 1.31-.15 1.74-.65l9.81-11.13c.73-.83 1.99-.91 2.81-.18.83.73.9 1.99.18 2.81l-9.81 11.13a5.951 5.951 0 0 1-5.28 1.96 5.939 5.939 0 0 1-4.92-4.34 5.94 5.94 0 0 1 1.28-5.48l.02-.02s.2-.22.53-.6c1.92-2.13 8.47-9.38 12.85-13.48 2.79-2.61 3.9-3.21 4.79-3.34 5.33-.76 13.69 1.25 21.93 3.53 15.02 4.17 18.76 11.48 17.24 16.93-.88 3.17-3.57 5.81-7.38 7.24-3.52 1.32-7.75 1.51-12.02.54-1.61 1.82-2.73 3.1-2.73 3.1l-1.96 2.22a5.931 5.931 0 0 1-4.45 2.01Zm-10.07-31.62Zm.23-.06Z"/><path d="M571.72 203.69c-.27 0-.55-.02-.82-.06a5.939 5.939 0 0 1-4.92-4.34 5.935 5.935 0 0 1 1.28-5.48l9.08-10.31c.73-.83 1.99-.91 2.81-.18.83.73.91 1.99.18 2.81l-9.08 10.31c-.44.5-.6 1.17-.43 1.81.2.76.84 1.32 1.62 1.43.65.09 1.31-.15 1.74-.65 0 0 .01-.02.02-.02l10.7-11.72c.74-.81 2-.87 2.82-.13.81.74.87 2 .13 2.82l-10.69 11.71c-1.14 1.28-2.76 2-4.45 2ZM553.37 190.67c-.18 0-.35-.02-.53-.07-.45-.12-.88-.29-1.29-.52a5.96 5.96 0 0 1-3.06-5.8 5.96 5.96 0 0 1 3.14-4.68l8.6-4.53c2.44-1.3 5.79-3.09 7.43-.94.67.87.5 2.13-.37 2.79-.6.46-1.38.52-2.03.23-.42.11-1.3.44-3.15 1.43l-.22.12-8.39 4.42c-.58.31-.97.89-1.04 1.55-.08.78.32 1.53 1.01 1.91.13.07.27.13.4.16h.05c1.06.3 1.68 1.4 1.38 2.46-.25.88-1.05 1.45-1.92 1.45Zm-.12-1.57.12-.43-.12.43Zm11.25-12.56Z"/></svg>