<svg id="a" data-name="レイヤー 1" xmlns="http://www.w3.org/2000/svg" viewBox="0 0 508.64 383.39"><defs><style>.f{fill:#117dbf}</style></defs><g id="b" data-name="レイヤー 2"><g id="c" data-name="レイヤー 1のコピー"><path class="f" d="M137.74 323.07a25.45 25.45 0 0 1-17.91-12.48c-5.42-9.38-6.51-26.01-7.57-42.09-1.17-17.69-2.38-35.99-9.23-47.85-4.22-7.3-9.24-9.34-14.93-6.06-13.55 7.83-11.67 33.45-9.84 58.23.36 4.95.71 9.63.93 14.11l.05.09c.92 11.8 1.43 25.52 1.53 41.84h-2.79c-.13-32.34-2.23-72.38-11.39-88.24-4.86-8.43-10.55-7.51-14.46-5.25-12.57 7.26-11.97 30.11-9.88 59.23v.11c.46 4.36.67 9.01.95 14.47l.02.41c.18 2.97.36 5.98.47 8.82l.26 10.3c.02.61.04 1.34.09 2.15.28 6.96 1.09 26.98-6.08 34.48l-4.27-3.74c3-2.59 6.3-6.17 6.92-10.45 1.06-7.44.78-16.29.64-20.54-.64-37.67-3.75-59.97-9.6-70.11-5-8.66-11.06-6.91-14.21-5.09-13.43 7.76-14.5 30.88-6.43 44.86.8 1.39 1.93 2.56 3.29 3.4l-1.72 3.02a21.884 21.884 0 0 1-3.95-5.04c-8.15-14.12-5.71-39.43 8.68-47.73 6.26-3.61 11.57-2.29 15.76 3.94l6.12 9.02 1.21-10.85c1.27-11.26 4.87-18.26 11.4-22.03s12.56-2.25 17.01 5.02l6.52 10.69.87-12.49c.87-12.31 4.55-19.95 11.55-23.99 7.01-4.04 12.95-1.99 17.62 6.1 7.18 12.44 8.51 32.44 9.68 50.08 1.05 15.98 2.05 31.08 7.2 39.99a17.81 17.81 0 0 0 16.52 9.29l-1 4.42Z"/><path class="f" d="M85.76 209.72c-9.17 5.29-12.71 15.24-13.56 27.17-5.79-9.5-14.06-11.22-22.42-6.4s-12.14 13.82-13.39 25.05c-4.34-6.46-11.56-10.65-21.07-5.16-17.06 9.85-18.98 37.89-10.14 53.2 2.04 3.7 5.05 6.78 8.7 8.91l6.33-11.28a6.49 6.49 0 0 1-5.76-3.01c-7.5-12.99-5.6-33.29 4.97-39.39 2.9-1.67 5.73-1.6 8.74 3.62 5.56 9.63 8.4 31.97 9.07 68.26.14 4.25.43 12.75-.61 19.84-.67 4.73-6.96 9.13-9.19 10.88l10.33 9.05c12.53-7.24 10.36-34.31 10.15-41.92l-.22-10.39c-.11-2.87-.29-5.86-.49-8.84-.29-5.61-.52-10.53-.97-15.08-1.82-25.4-2.99-49.18 7.89-55.47 3.6-2.08 6.25-.98 9 3.79 10.31 17.87 10.86 70.01 10.82 90.3l10.8-.05c-.06-17.72-.56-33.06-1.55-46.1-1.25-25.74-6.88-60.69 6.93-68.66 3.46-2 6.18-1.09 9.46 4.59 12.6 21.82 4.88 69.29 16.81 89.95a29.47 29.47 0 0 0 24.46 14.82l3.12-13.35c-8.2 1.79-14.48-.15-18.23-6.65-10.19-17.64-2.74-65.58-16.88-90.07-6.16-10.67-14.73-12.38-23.08-7.56l-.04-.06ZM159.59 284.56c-7.12 4.11-13.22-.62-16.29-5.93-5.58-9.66-6.17-27.75-6.04-48.92l3.29.08c-.46 2.96-.66 5.95-.61 8.94 0 13.01 1 30.33 5.74 38.53 3.62 6.26 9.04 8.52 13.82 5.76 8.41-4.86 8.96-22.71 8.69-40.94l2.72-.05c.11 14.9-.45 36.25-11.32 42.53Zm-23.83-76.81-.5-10.69 2.78-.16.51 10.68-2.79.18Z"/><path class="f" d="m131.07 193.34.87 18.67 10.77-.64-.88-18.68-10.77.65Zm2.22 32.27c-.25 25.83.31 44.22 6.56 55.04 4.76 8.24 13.4 12.21 21.75 7.39 13.93-8.04 13.47-33.77 13.21-50.02l-10.74.16c.15 10.43 1.32 36.84-6.58 41.4-3.46 2-6.68-1.4-8.36-4.3-4.29-7.43-5.2-24.55-5.2-36.61-.03-4.3.46-8.58 1.46-12.76l-12.08-.29v-.02Z"/><path class="f" d="M196.08 308.37c-6.34 3.66-13.08 2.22-17.2.22l1.81-3.23c4.87 3.68 10.27 4.37 14.85 1.72 10.92-6.31 11.95-24.32 10.11-49.44l-1.15-15.99-6.43 14.61c-2.43 5.49-5.22 9.09-8.56 11.02-5.54 3.2-12.09.8-15.91-5.82s-5.96-19.52-6.27-37.46c-.06-2.5-.03-7.36.04-11.64l3.81.11c-.66 3.74-1.06 7.52-1.19 11.32.42 18.23 2.31 30 5.88 36.19s9.14 8.31 13.99 5.51c11.44-6.61 12.37-38.89 12.02-47.18l-.02-.19c-.75-8.14-1.44-16.49-2.15-24.97l3.76-1.02c-.2 11.14 1.25 26.61 2.27 37.41l.09 1c.12.82.19 1.66.28 2.48s.17 1.85.29 2.76l.47 3.7 3.73-.22c1.55-.08 3.07-.52 4.42-1.28 10.15-5.86 12.25-21 12.56-30.24l2.73-.04c-.35 8.61-2.66 24.63-14.58 31.51a18.87 18.87 0 0 1-5.33 2.05l-3.38.8.29 3.47c2.88 34.85 1.97 55.21-11.26 62.85Z"/><path class="f" d="M163.47 208.19c-.12 4.86-.21 12.5-.1 15.83.25 14.09 1.72 30.58 6.81 39.39s14.3 11.37 21.38 7.29c4.53-2.61 7.73-7.25 10.23-12.84 1.68 23.28.93 40.47-8.12 45.69-5.34 3.08-10.81-1.03-13.86-4.7l-6.18 10.99c4.23 3.59 14.76 7.56 24.48 1.95 15.9-9.18 16.04-32.77 13.17-66.71 2.27-.49 4.44-1.33 6.45-2.48 12.65-7.31 16.97-24.2 16.63-39l-10.8.21c.21 10.27-1.64 25.55-10.58 30.72-.82.45-1.72.71-2.66.76-.22-1.73-.33-3.53-.55-5.26-1.17-12.47-3.09-32.41-2.06-43.22l-12.28 3.39c.76 9.62 1.57 19.06 2.42 28.31.57 12.51-1.99 38.9-10 43.52-3.72 2.14-6.92-1.26-8.53-4.05-3.95-6.85-5.09-21.67-5.35-34.19.2-5.1.9-10.17 2.09-15.13l-12.63-.44.03-.02Z"/><path class="f" d="M284.69 212.34c-6.8 3.93-12.78-.45-15.83-5.41l-6.01-9.74-1.36 11.36c-1.48 12.26-5.12 20.14-10.8 23.42-8.96 5.18-15.73-5.5-16.99-7.69-8.97-15.53-9.94-49.21 5.93-58.37 4.94-2.85 10.45-2.44 16.84 1.27l2.2 1.27-1.63 1.98c-7.04-6.51-13.41-5.23-17.74-2.73-13.26 7.65-11.51 40.6-2.97 55.39 5 8.66 10.83 9.35 14.63 7.15 8.86-5.12 11.83-31.17 12.18-45.76v-.14l-.69-13.71.18.11-.13-7.06c-.04-1.89-.06-3.88-.03-6.19l3.92.11c-.9 3.9-1.31 7.89-1.22 11.88.24 17.42 2.21 29.44 5.81 35.68 3.6 6.24 8.97 8.41 13.76 5.65 8.41-4.85 9-23.37 8.69-40.94l2.73-.04c.18 14.25-.33 36.11-11.47 42.54Z"/><path class="f" d="M237.62 162.43c-18.19 10.5-17.38 46.54-7.39 63.84 4.96 8.59 13.64 14.25 22.46 9.16 8.24-4.76 11.48-15.75 12.77-26.4 4.85 7.88 13.34 11.33 21.23 6.77 14.05-8.11 13.7-33.9 13.33-50.09l-10.74.16c.17 10.29 1.31 36.84-6.58 41.4-3.46 2-6.62-1.28-8.29-4.18-4-6.93-5.1-21.96-5.28-33.78-.06-5.31.76-10.59 2.43-15.64l-13.05-.35c-.09 3.61-.14 7.01-.03 10.41-5.35-3.1-13.07-5.76-20.85-1.27v-.03Zm11.3 64.34c-2.43 1.4-5.88 0-9.16-5.69-8-13.86-8.93-43.89 1.51-49.92 6.15-3.55 11.38-.38 15.93 5.35l1.45-1.77.46 9.64c-.52 21.34-4.97 39.38-10.17 42.38h-.02ZM338.55 181.55c-5.04 2.91-11.19 4.26-18.29 3.99l-2.35-.07-1.22 1.99a52.783 52.783 0 0 1-7.89 9.92l-2.1-2.17c1.72-1.4 3.24-3.03 4.51-4.85 9.73-13.32 12.17-30.12 14.71-47.96.8-5.53 1.6-11.23 2.68-16.79l1.41-7.57 3.12 2.42c-1.58 7.99-2.84 15.43-3.95 22.05-2.29 13.61-4.28 25.36-7.87 35.04l-2.1 5.67 6.04-.28a30.11 30.11 0 0 0 13.75-3.71c14.12-8.15 16.47-27.85 16.47-45.3l2.69-.04c-.29 23.64-7.22 40.51-19.59 47.65Zm-45.35-19.74c-.31-14.36-.53-20.04-1.35-23.47.99-.28 2.09-.62 3.22-.97l.28 3.1c.4 4.5.48 10.51.59 18.14l.05 3.18-2.77.02Zm16.55-30.55c-3.4 1.99-7.02 3.59-10.77 4.78 4.03-1.47 7.93-3.29 11.64-5.44 1.26-.73 2.52-1.46 3.74-2.3a56.48 56.48 0 0 1-4.61 2.96Z"/><path class="f" d="M328.34 111.6a95.308 95.308 0 0 1-19.73 15.53c-9.29 5.37-16.63 6.89-22.18 8.66 2.08 3.59 2.3 4.24 2.82 30.09l10.74-.16c-.18-11.04-.14-19.55-.69-25.6 4.34-1.29 8.52-3.1 12.43-5.39 4.72-2.73 9.07-6.05 12.95-9.88-4.34 22.77-4.53 46.55-16.74 63.19a23.485 23.485 0 0 1-7.36 6.56l8.06 8.35c4.47-3.87 8.33-8.39 11.44-13.42 8.06.3 14.87-1.31 20.47-4.54 15.44-8.91 22.01-29.88 21.66-55.23l-10.74.16c.41 21.89-2.47 38.88-14.42 45.78-3.67 2-7.76 3.09-11.93 3.17 5.68-15.31 7.3-34.5 12.48-60.09l-9.26-7.18Z"/><path class="f" d="M412.57 138.5c-6.81 3.93-12.78-.45-15.83-5.41l-6.02-9.73-1.37 11.37c-1.47 12.26-5.11 20.13-10.79 23.41-8.96 5.18-15.74-5.5-17-7.69-8.97-15.53-9.9-49.24 5.94-58.38 4.94-2.85 10.45-2.44 16.84 1.27l2.2 1.27-1.64 1.98c-7.03-6.52-13.41-5.23-17.74-2.73-13.26 7.65-11.5 40.6-2.97 55.38 5 8.66 10.82 9.36 14.63 7.16 8.86-5.12 11.83-31.17 12.18-45.76v-.14l-.63-13.74.18.11-.17-7.04c-.05-1.89-.06-3.88-.03-6.18l3.93.1c-.9 3.89-1.31 7.89-1.22 11.88.24 17.42 2.2 29.45 5.8 35.68 3.6 6.24 8.98 8.41 13.76 5.65 8.42-4.86 9-23.37 8.69-40.94l2.73-.04c.19 14.24-.32 36.11-11.46 42.54Z"/><path class="f" d="M365.51 88.6c-18.19 10.5-17.38 46.55-7.4 63.84 4.96 8.59 13.64 14.25 22.47 9.15 8.24-4.76 11.48-15.75 12.76-26.4 4.86 7.88 13.35 11.32 21.23 6.77 14.05-8.11 13.7-33.9 13.32-50.08l-10.74.16c.17 10.29 1.32 36.84-6.58 41.4-3.46 2-6.62-1.28-8.29-4.18-4-6.93-5.1-21.97-5.27-33.78-.06-5.31.76-10.59 2.43-15.64l-13.05-.35c-.08 3.6-.13 7-.02 10.4-5.35-3.1-13.07-5.76-20.85-1.27v-.03Zm11.3 64.34c-2.43 1.4-5.88 0-9.16-5.69-8-13.86-8.94-43.89 1.5-49.92 6.15-3.55 11.38-.38 15.94 5.35l1.45-1.77.46 9.64c-.53 21.34-4.97 39.38-10.17 42.38h-.02Z"/><path class="f" d="M461.78 110.09c-8.89 5.13-18.12-.28-27.43-16.1l-1.19-2.06-9.28.35.51 4.32c.19 1.69.41 3.37.61 5.06s.41 3.23.61 4.9c.73 5.56 1.63 11.42 2.71 17.49l-4.15.8c.11-5.52-.24-11.03-1.06-16.49-3.24-24.04-4.43-46.23-5.49-65.79l-.51-9.4c-.06-4.58-.31-11.24-.51-15.65l3.6-.35a43.96 43.96 0 0 0-.7 10.24c.48 8.2.94 17.32 1.4 26.99l.73 14.59 6.72-9.79c1.52-2.29 3.54-4.2 5.91-5.6 6.06-3.5 12.49-1.73 16.02 4.39 5.25 9.1 2.54 24.25-8.97 30.89l-5.07 2.93 2.16 3.51c10.07 16.3 18.29 16.2 23.41 13.24 8.26-4.77 10.05-18.91 9.9-41.66l2.76-.04c.16 15.48-.47 36.17-12.7 43.23Zm-38.33-22.05 2.93.62c5.65 1.24 11.13.66 15.04-1.59 9.12-5.26 11.19-19.73 6.49-27.87-3.07-5.32-8.68-7.03-13.55-4.22-7.22 4.17-10.59 18.05-11.27 28.68l-.02.25v.25c.04.38.1.75.2 1.12l.19 2.77Z"/><path class="f" d="M412.41 13.86c.16 2.69.63 13.09.68 19.41 1.21 21.11 2.25 47.29 6.04 75.58.88 6.62 1.64 15.15.48 20.93l13.35-2.6c-1.32-7.12-2.43-14.22-3.38-21.14-.38-3.34-.88-6.62-1.26-9.96l2.58-.09c8.08 13.74 19.64 25.17 32.87 17.53 15.2-8.78 14.9-33.67 14.6-50.82l-10.74.16c.38 25.31-1.36 38.38-7.86 42.13s-13.28-4.25-18-11.88l1.51-.87c13.35-7.71 16.79-25.33 10.43-36.36-4.62-8-13.48-10.47-21.48-5.85a22.146 22.146 0 0 0-7.22 6.8c-.49-10.86-1.01-20.77-1.55-29.75-.14-4.9.48-9.8 1.84-14.51l-12.87 1.29Zm27 69.82c-3.36 1.94-8.07 2.03-12.18 1.14-.02-.29-.15-.52-.17-.83.68-10.6 4.06-22.46 9.28-25.47 3.36-1.94 6.38-.22 8.09 2.75 3.5 6.06 2.29 18.18-5.02 22.4Z"/><path class="f" d="M493.34 91.87c-7.12 4.11-13.22-.62-16.29-5.93-5.58-9.66-6.17-27.75-6.04-48.92l3.29.08c-.46 2.96-.66 5.95-.61 8.94 0 13.01.98 30.34 5.73 38.56 3.62 6.26 9.04 8.52 13.82 5.76 8.41-4.86 8.96-22.71 8.69-40.94l2.72-.05c.11 14.88-.45 36.23-11.32 42.5Zm-23.85-76.79-.5-10.69 2.78-.16.51 10.68-2.79.18Z"/><path class="f" d="m464.82.65.87 18.67 10.77-.64L475.58 0l-10.77.65Zm2.22 32.27c-.25 25.83.31 44.22 6.56 55.04 4.76 8.24 13.39 12.22 21.75 7.39 13.93-8.04 13.47-33.77 13.21-50.02l-10.74.16c.15 10.43 1.31 36.84-6.58 41.4-3.46 2-6.68-1.4-8.36-4.3-4.29-7.43-5.2-24.55-5.2-36.61-.03-4.3.46-8.58 1.46-12.76l-12.08-.29v-.02Z"/></g></g><g id="d" data-name="レイヤー 2"><g id="e" data-name="レイヤー 1のコピー"><path class="f" d="M337.35 233.49c-.45 6.45-1.01 15.13-.53 22.13 4.95 69.41 19.64 108.26-7.28 123.81-11.95 6.9-25.92 5.22-30.34-8.33l8.99-7.5c2.04 5.95 8.77 12.26 17.13 7.43 13.35-7.71 11.03-27.26 6.74-60.68-2.75 11.64-7.63 21.9-16.34 26.93-9.4 5.43-18.48 2-23.77-7.17-9.85-17.06-.19-46.32-7.02-58.15-1.81-3.14-4.54-4.66-8.35-2.46-9.4 5.43-11.12 25.76-5.79 37.39 1.54 2.8 4 4.99 6.97 6.19l-6.48 9.93c-4.65-2.42-8.03-6.66-10.35-11.76-7.21-16.16-3.4-41.57 11.55-50.2 8.82-5.09 17.28-2.24 21.9 5.76 8.91 15.44-1.02 44.23 7.15 58.39 2.68 4.64 6.29 5.81 10.35 3.47 13.11-7.57 17.17-44.26 15.43-59.04-.37-4.4-.79-9.14-1.1-13.91-.47-7-1.57-14.26-2.72-21.33l13.86-.89ZM427.14 251.43c.33 16.21.67 41.98-13.38 50.09-7.2 4.15-14.84 1.64-19.74-4.7-2.53 10.63-6.96 20.11-13.92 24.13-7.43 4.29-16.52 1.95-21.73-7.08-7.31-12.65-7.25-40.69-6.67-55.26l12.94.41c-1.45 3.93-2.5 10.68-2.3 17.74.35 11.88 1.61 25.23 5.36 31.72 1.54 2.67 4.76 6.08 8.47 3.93 8.12-4.69 10.53-31.61 9.91-43.94-.71-9.8-.86-19.63-.45-29.45l12.26.34a55.168 55.168 0 0 0-1.63 13.17c-.01 4.8.09 10.16.62 15.27l-.02.79c.74 8.24 2.24 15.89 4.8 20.32 1.6 2.78 4.76 6.08 8.15 4.12 8.01-4.62 6.89-31.22 6.69-41.47l10.63-.12Zm-63.75-16.89-7.71-.5 4.32-27.25 9.55 2.07 10.16 16.26-7.2 4.15-6.68-10.22-2.44 15.49Z"/><path class="f" d="M477.58 222.31c.3 17.15.61 42.05-14.59 50.83-13.23 7.64-24.79-3.79-32.88-17.54l-2.57.1c.38 3.34.87 6.61 1.25 9.95.89 6.91 2.04 13.98 3.39 21.14l-13.37 2.59c1.15-5.78.4-14.32-.48-20.93-3.79-28.29-4.87-54.44-6.04-75.59-.07-6.3-.52-16.72-.68-19.41l12.89-1.25a47.7 47.7 0 0 0-1.85 14.5c.54 8.93 1.02 18.9 1.55 29.74 1.86-2.78 4.33-5.11 7.22-6.8 8-4.62 16.86-2.15 21.48 5.85 6.37 11.03 2.92 28.65-10.43 36.36l-1.51.87c4.73 7.66 11.51 15.64 18.01 11.89 6.5-3.75 8.23-16.83 7.85-42.14l10.75-.14Zm-51.14 22.1c4.09.88 8.83.81 12.17-1.12 7.31-4.22 8.51-16.37 5.02-22.4-1.74-3.01-4.73-4.69-8.09-2.75-5.2 3-8.6 14.87-9.28 25.47 0 .28.13.52.17.8Z"/><path class="f" d="M472.79 247.51c-6.23-10.79-6.8-29.19-6.55-55.02l12.09.3c-1 4.18-1.5 8.46-1.47 12.76.03 12.05.91 29.17 5.2 36.6 1.67 2.9 4.88 6.32 8.36 4.31 7.9-4.56 6.73-30.96 6.58-41.41l10.74-.16c.26 16.25.72 41.99-13.21 50.03-8.35 4.78-16.99.83-21.75-7.41Zm-7.87-68.64-.88-18.68 10.77-.65.88 18.68-10.77.65Z"/></g></g></svg>