<svg xmlns="http://www.w3.org/2000/svg" viewBox="0 0 574.72 150.89">
    <defs>
        <style>.cls-1{fill:#117dbf;}</style>
    </defs>
    <g id="レイヤー_2" data-name="レイヤー 2">
        <g id="レイヤー_1のコピー" data-name="レイヤー 1のコピー">
            <path class="cls-1"
                  d="M124.62,125.69l-9.38,10.05a29.46,29.46,0,0,1-13.8-25.05c0-23.86,30.42-61.11,30.42-86.3,0-6.57-1.88-8.71-5.9-8.71-15.94,0-28.54,33.1-40.33,56C80,83.48,72.76,97,63.92,112.43l-9.38-5.36c10.18-17.56,35.78-63,35.78-83.62,0-5.49-1.74-7.77-5.9-7.77C71.83,15.68,61,36.85,49.85,59.77,48,63.92,45.7,68.34,43.15,73.3c-1.34,2.68-2.68,5.36-4,7.91l-5,9.11C30.55,97,18.89,121.54,4.42,121.54L0,108.54c2.81-.4,10.45-1.07,13.4-4.82,4.42-5.63,8.44-13.13,10.45-16.89C41.41,55.08,50.12,34.3,50.12,23.18c0-6-2.41-7.5-5.77-7.5-12.19,0-24,16.61-24,31.62a6.48,6.48,0,0,0,3.48,5.5L12.73,59.36A23.37,23.37,0,0,1,9.65,47.3c0-17.69,15.68-41,35.37-41,11,0,15.15,7.23,15.68,15,6.7-9.12,14.34-15,24.12-15s16,5.63,16.22,16.75c6.7-9.92,14.74-16.75,25.32-16.75,9.65,0,16.22,5.76,16.22,18.09,0,28.27-30.42,66.06-30.42,86.43C112.16,118.32,116.58,123.15,124.62,125.69Z"/>
            <path class="cls-1"
                  d="M137.75,94.74c0-12.46,8.71-28.68,21.84-50.92l10.32,6.3a53,53,0,0,0-7.64,10.32c-6,10.45-13.8,25.72-13.8,34.3,0,3.35,1.07,7.91,5.09,7.91,9.12,0,21.31-23.45,26.4-32.57l9.38,5.23C181.44,89.51,169,112,152.89,112,143.25,112,137.75,104.25,137.75,94.74Zm27.47-63.38,8.58-16.62,9.65,4.82-8.58,16.62Z"/>
            <path class="cls-1"
                  d="M258.08,75.31c-7.1,13-19.29,25.46-33.9,25.46a22.76,22.76,0,0,1-6.83-1.07c-14.48,30.82-26.4,51.19-44.76,51.19-11.26,0-18.36-8.71-20.23-13.94l10.85-6.43c.8,4.69,3.48,11,9.65,11,10.45,0,19.7-14.48,29.88-35.51-5,3.61-10.05,6-15.28,6-8.17,0-14.87-6.57-14.87-17,0-10.19,7-25.19,13.8-37.52,1.61-3,5.5-9.52,8-13.67l10.72,6.7a76.71,76.71,0,0,0-9.38,12.06c-6,11-12.46,24.39-12.46,32.29,0,3.22,1.07,7.78,5.36,7.78,9.25,0,24.66-21.58,30.42-32.7q5.83-12.66,12.06-25.73l12.33,3.22c-6.3,8.84-14.61,27.07-19.83,38.46-.67,1.6-1.48,3.21-2.15,4.82a6.14,6.14,0,0,0,2.68.67c10.32,0,19.57-12.33,24.52-21.31Z"/>
            <path class="cls-1"
                  d="M333.93,75.31C326.15,89.51,313.56,112,297.34,112c-9.11,0-14.74-7.24-15-16.49C275.9,104.12,267.6,112,258.08,112c-10.18,0-14.87-9.25-14.87-19.17,0-20,17.28-51.59,38.32-51.59,9,0,14.34,6.17,17.42,11.53,1.61-2.95,3.35-5.9,5.23-9l11.12,6.83A48.38,48.38,0,0,0,305.38,63c-5.76,10.32-12.32,23.85-12.32,31.89,0,3.35,1.07,7.78,5.09,7.78,9.11,0,21.44-23.59,26.4-32.57ZM289.17,71l4.42-8.57-2.14.8c-1.07-7.24-4-12.6-11.13-12.6-12.05,0-26.26,26.54-26.26,42.48,0,6.57,2.28,9.52,5.09,9.52C265.18,102.65,278.05,89.25,289.17,71Z"/>
            <path class="cls-1"
                  d="M405.75,75.31c-12.33,22.11-28.54,37-46.37,37-6.43,0-13.13-2-20-6.29a57.9,57.9,0,0,1-16.62,5.89L320,100.64a23.5,23.5,0,0,0,9.65-2c18.89-8.31,30.95-28.81,46.09-46.37a61.77,61.77,0,0,1-29.61.54c-2.55,5.49-6.84,12.86-12.2,22.51l-9.38-5.23c12.47-22.64,12.6-23.31,12.6-27.47,9.25,2,22.24,7,48.37,0l4.43,10.86C372.65,73,361.66,88.84,349.07,99.3A26.17,26.17,0,0,0,361,102.51c13.8,0,24.79-13.26,35.38-32.43Z"/>
            <path class="cls-1"
                  d="M481.59,75.31C473.82,89.51,461.23,112,445,112c-9.11,0-14.74-7.24-15-16.49-6.43,8.58-14.74,16.49-24.25,16.49-10.19,0-14.88-9.25-14.88-19.17,0-20,17.29-51.59,38.33-51.59,9,0,14.34,6.17,17.42,11.53,1.61-2.95,3.35-5.9,5.22-9L463,50.65A48.14,48.14,0,0,0,453.05,63c-5.76,10.32-12.33,23.85-12.33,31.89,0,3.35,1.07,7.78,5.09,7.78,9.12,0,21.44-23.59,26.4-32.57ZM436.84,71l4.42-8.57-2.15.8c-1.07-7.24-4-12.6-11.12-12.6-12.06,0-26.26,26.54-26.26,42.48,0,6.57,2.28,9.52,5.09,9.52C412.85,102.65,425.71,89.25,436.84,71Z"/>
            <path class="cls-1"
                  d="M539.88,75.31c-8.31,15-20.5,36.72-38.06,36.72-15.27,0-19.56-15.68-19.69-31.63l-2.28-1.2c-1.34,3.08-2.55,6.16-3.89,9.24-2.68,6.43-5.22,13.13-7.64,20L455.46,104c3.89-4.43,7.5-12.2,10.05-18.36,10.85-26.4,23.05-49.58,32.56-68.48C501.15,11.66,506,2.41,507.19,0L519,5.36A47.58,47.58,0,0,0,510.13,17c-4,8-8.57,16.88-13.53,26.53a22.24,22.24,0,0,1,9.65-2.28c9.24,0,15.68,6.57,15.68,15.81,0,12.74-11.8,26.27-27.21,26.27H493c.27,9,2.14,19.3,9.65,19.3s15.54-10.46,27.87-32.57Zm-55.34-6.43c3.08,2.81,7.23,5.09,11.12,5.09,8.44,0,15.54-9.92,15.54-16.89,0-3.48-1.74-6.43-5.62-6.43-6,0-14.88,8.58-20.77,17.42C484.67,68.34,484.67,68.61,484.54,68.88Z"/>
            <path class="cls-1"
                  d="M523.13,94.74c0-12.46,8.71-28.68,21.84-50.92l10.32,6.3a53,53,0,0,0-7.64,10.32c-6,10.45-13.8,25.72-13.8,34.3,0,3.35,1.07,7.91,5.09,7.91,9.11,0,21.31-23.45,26.4-32.57l9.38,5.23C566.81,89.51,554.35,112,538.27,112,528.62,112,523.13,104.25,523.13,94.74ZM550.6,31.36l8.58-16.62,9.64,4.82-8.57,16.62Z"/>
        </g>
    </g>
</svg>