<svg xmlns="http://www.w3.org/2000/svg" width="64.941" height="64.941" viewBox="0 0 64.941 64.941">
  <g id="pen" transform="translate(0 -0.019)">
    <path id="path_5" data-name="path 5" d="M43.137,18.459,25.064.387a1.145,1.145,0,0,0-1.828.2L20.8,5.666,37.857,22.723l5.077-2.437A1.145,1.145,0,0,0,43.137,18.459Z" transform="translate(21.437 0)" fill="#117dbf"/>
    <path id="path_6" data-name="path 6" d="M38.988,4.2,22.337,5.621c-1.015.2-2.031.406-2.437,1.828h0C15.433,29.177,0,50.5,0,50.5l3.655,3.655,17.26-17.26a5.621,5.621,0,0,1-.609-2.64A6.092,6.092,0,1,1,26.4,40.345a5.621,5.621,0,0,1-2.64-.609L6.5,57l3.655,3.655S31.475,45.218,53.2,40.751h0c1.421-.406,1.624-1.218,1.828-2.437l1.421-16.651Z" transform="translate(0 4.309)" fill="#117dbf"/>
  </g>
</svg>
