<svg xmlns="http://www.w3.org/2000/svg" width="87" height="87"><g transform="translate(-1137 -4071)"><circle cx="43.5" cy="43.5" r="43.5"  style="fill:#fff" transform="translate(1137 4071)"/><path d="M56.883 55.587c-.983-4.34-6.592-6.456-8.53-7.138-2.129-.751-5.159-.928-7.111-1.365a7.225 7.225 0 0 1-3.289-1.515c-.546-.655-.218-6.729-.218-6.729a20.244 20.244 0 0 0 1.556-2.962 38.2 38.2 0 0 0 1.146-5.173s1.119 0 1.515-1.965c.423-2.143 1.092-2.975 1.01-4.572-.082-1.57-.942-1.529-.942-1.529a23.93 23.93 0 0 0 .928-7C43.07 10.028 38.675 4.5 30.718 4.5c-8.066 0-12.366 5.528-12.243 11.137a24.96 24.96 0 0 0 .914 7s-.86-.041-.942 1.529c-.082 1.6.587 2.429 1.01 4.572.382 1.965 1.515 1.965 1.515 1.965a38.2 38.2 0 0 0 1.146 5.173 20.244 20.244 0 0 0 1.556 2.962s.328 6.074-.218 6.729a7.225 7.225 0 0 1-3.289 1.515c-1.952.437-4.982.614-7.111 1.365-1.938.682-7.548 2.8-8.53 7.138A1.091 1.091 0 0 0 5.6 56.911h50.218a1.089 1.089 0 0 0 1.065-1.324Z" style="fill:#117dbf" transform="translate(1149.499 4083.5)"/></g></svg>