<?xml version="1.0" encoding="UTF-8"?>
<svg id="a" data-name="レイヤー 1" xmlns="http://www.w3.org/2000/svg" xmlns:xlink="http://www.w3.org/1999/xlink" viewBox="0 0 964.25 316.95">
  <defs>
    <style>
      .d {
        fill: #fff;
      }

      .e {
        clip-path: url(#c);
      }

      .e, .f, .g {
        fill: none;
      }

      .f {
        clip-path: url(#b);
      }

      .h {
        fill: #d5eaff;
      }

      .i {
        fill: #1e1210;
      }
    </style>
    <clipPath id="b">
      <path class="g" d="m247.63,83.88l.22.05c11.32-.28,14.14,10.4,12.27,20.03-2.48,12.72-11.97,17.35-17.42,15.58-5,20.12-15.42,27.22-25.55,31h0c1.13,8.63.51,17.16,10.96,25.93,5.33,4.48,19.9,7.27,28.94,10.43,14.31,5,26.51,12.44,31.34,24.5,4.34,10.83,4.39,59.23,3.75,67.99-.3,4.14-2.42,7.94-5.83,10.3-19.48,13.49-73.28,17.24-93.2,17.24s-73.72-3.75-93.19-17.24c-3.41-2.36-5.53-6.16-5.83-10.3-.64-8.75-.59-57.15,3.75-67.99,4.83-12.06,17.03-19.5,31.33-24.5,9.04-3.16,23.62-5.95,28.94-10.42,10.45-8.79,9.83-17.31,10.96-25.94-10.13-3.78-20.37-10.88-25.53-31.01h-.02c-5.44,1.79-14.94-2.84-17.42-15.57-1.87-9.63.94-20.31,12.27-20.03l.22-.05C119.25.54,193.11,10.46,193.11,10.46c0,0,73.86-9.92,54.52,73.42Z"/>
    </clipPath>
    <clipPath id="c">
      <path class="g" d="m916.43,83.88l.22.05c11.32-.28,14.14,10.4,12.27,20.03-2.48,12.72-11.97,17.35-17.42,15.58-5,20.12-15.42,27.22-25.55,31h0c1.13,8.63.51,17.16,10.96,25.93,5.33,4.48,19.9,7.27,28.94,10.43,14.31,5,26.51,12.44,31.34,24.5,4.34,10.83,4.39,59.23,3.75,67.99-.3,4.14-2.42,7.94-5.83,10.3-19.48,13.49-73.28,17.24-93.2,17.24s-73.72-3.75-93.19-17.24c-3.41-2.36-5.53-6.16-5.83-10.3-.64-8.75-.59-57.15,3.75-67.99,4.83-12.06,17.03-19.5,31.33-24.5,9.04-3.16,23.62-5.95,28.94-10.42,10.45-8.79,9.83-17.31,10.96-25.94-10.13-3.78-20.37-10.88-25.53-31.01h-.02c-5.44,1.79-14.94-2.84-17.42-15.57-1.87-9.63.94-20.31,12.27-20.03l.22-.05c-19.34-83.34,54.51-73.42,54.51-73.42,0,0,73.86-9.92,54.52,73.42Z"/>
    </clipPath>
  </defs>
  <g>
    <g>
      <g>
        <path class="h" d="m193.12,158.88s-53.41.33-71.45-17.56l6.14-46.12C103.04-1.77,193.12,3.06,193.12,3.06c0,0,90.07-4.84,65.31,92.14l6.14,46.12c-18.04,17.89-71.45,17.56-71.45,17.56Z"/>
        <path class="i" d="m193.47,161.9c-.16,0-.28,0-.36,0-2.49.01-54.91.07-73.58-18.44-.67-.67-.99-1.61-.87-2.55l6.06-45.54c-7.82-31.05-4.87-55.23,8.78-71.86,8.62-10.5,21.7-17.89,37.83-21.36C182.71-.29,191.76-.02,193.12.04c1.35-.06,10.4-.33,21.77,2.12,16.13,3.48,29.22,10.86,37.83,21.36,13.65,16.63,16.6,40.8,8.78,71.86l6.06,45.54c.12.94-.2,1.88-.87,2.55-18.11,17.95-67.98,18.44-73.22,18.44Zm-68.6-21.73c7.24,6.34,20.91,11.05,39.7,13.64,15.21,2.1,28.39,2.04,28.53,2.04h.04c.13,0,13.38.05,28.6-2.05,18.75-2.6,32.4-7.3,39.63-13.63l-5.93-44.57c-.05-.38-.03-.77.07-1.15,7.5-29.36,4.99-51.94-7.45-67.1-18.81-22.93-54.41-21.29-54.77-21.27-.11,0-.22,0-.32,0-.09,0-9.19-.44-20.51,2.02-10.26,2.23-24.54,7.39-34.28,19.28-12.42,15.16-14.92,37.73-7.43,67.07.1.37.12.76.07,1.15l-5.93,44.57Z"/>
      </g>
      <g class="f">
        <path class="d" d="m247.63,83.88l.22.05c11.32-.28,14.14,10.4,12.27,20.03-2.48,12.72-11.97,17.35-17.42,15.58-5,20.12-15.42,27.22-25.55,31h0c1.13,8.63.51,17.16,10.96,25.93,5.33,4.48,19.9,7.27,28.94,10.43,14.31,5,26.51,12.44,31.34,24.5,4.34,10.83,4.39,59.23,3.75,67.99-.3,4.14-2.42,7.94-5.83,10.3-19.48,13.49-73.28,17.24-93.2,17.24s-73.72-3.75-93.19-17.24c-3.41-2.36-5.53-6.16-5.83-10.3-.64-8.75-.59-57.15,3.75-67.99,4.83-12.06,17.03-19.5,31.33-24.5,9.04-3.16,23.62-5.95,28.94-10.42,10.45-8.79,9.83-17.31,10.96-25.94-10.13-3.78-20.37-10.88-25.53-31.01h-.02c-5.44,1.79-14.94-2.84-17.42-15.57-1.87-9.63.94-20.31,12.27-20.03l.22-.05C123.84,1.04,193.11,3.06,193.11,3.06c0,0,68.8-2.9,54.52,80.81Z"/>
      </g>
      <path class="h" d="m159.16,41.79l-5.49-3.55c1.79,1.24,3.62,2.42,5.49,3.55Z"/>
      <path class="h" d="m193.12,8.55S115.59.41,140.18,90.17l5.91-26.27s3.06-6.56,14.31-21.29l-1.25-.81c-1.86-1.13-3.7-2.31-5.49-3.55l5.49,3.55c34.92,21.09,80.98,22.1,80.98,22.1l5.91,26.27C270.64.41,193.12,8.55,193.12,8.55Z"/>
      <path class="i" d="m169.07,153.56c-.35,0-.71-.06-1.06-.19-6.57-2.45-11.59-5.68-15.77-10.14-5.28-5.62-9.07-13.07-11.58-22.76-.02-.07-.04-.13-.06-.2-.25-.98-.44-1.79-.61-2.56-.36-1.63.67-3.24,2.29-3.61,1.63-.36,3.24.66,3.61,2.29.15.66.31,1.37.52,2.2.02.06.04.12.05.17,5.03,19.58,14.78,25.61,23.66,28.93,1.56.58,2.36,2.32,1.77,3.89-.45,1.22-1.61,1.97-2.83,1.97Z"/>
      <path class="i" d="m141.09,122.93c-2.44,0-5.04-.74-7.48-2.18-3.08-1.81-8.54-6.32-10.47-16.21-1.47-7.57-.22-14.4,3.44-18.73,2.81-3.33,6.91-5.02,11.86-4.9,1.67.04,2.99,1.43,2.95,3.1-.04,1.67-1.43,2.97-3.1,2.95-3.15-.07-5.47.83-7.1,2.76-2.4,2.84-3.22,8.08-2.13,13.67.63,3.24,2.46,9.14,7.59,12.16,2.06,1.21,4.33,1.64,5.92,1.13,1.59-.52,3.29.35,3.81,1.93s-.35,3.29-1.93,3.81c-1.06.35-2.2.52-3.37.52Z"/>
      <path class="i" d="m217.15,153.56c-1.23,0-2.38-.75-2.83-1.97-.58-1.56.21-3.31,1.77-3.89,5.71-2.13,10.02-4.87,13.56-8.62,4.64-4.91,7.95-11.54,10.12-20.28.21-.85.39-1.63.56-2.38.35-1.63,1.95-2.67,3.59-2.32,1.63.35,2.67,1.96,2.32,3.59-.18.82-.37,1.67-.6,2.58-2.43,9.77-6.22,17.28-11.59,22.97-4.19,4.44-9.23,7.66-15.84,10.13-.35.13-.71.19-1.06.19Z"/>
      <path class="i" d="m245.13,122.93c-1.14,0-2.24-.16-3.28-.49-1.26-.37-2.17-1.53-2.17-2.9,0-1.67,1.35-3.02,3.02-3.02h0c.32,0,.63.05.94.15,1.59.52,3.86.08,5.93-1.13,2.2-1.3,6.12-4.6,7.59-12.15,1.09-5.59.27-10.83-2.13-13.67-1.63-1.93-3.96-2.83-7.1-2.76-1.68.04-3.05-1.28-3.1-2.95-.04-1.67,1.28-3.05,2.95-3.1,4.95-.12,9.05,1.57,11.86,4.9,3.66,4.33,4.92,11.16,3.44,18.73-1.92,9.88-7.38,14.39-10.46,16.2-2.45,1.44-5.05,2.19-7.5,2.19Z"/>
      <path class="i" d="m140.18,93.19c-1.33,0-2.54-.88-2.91-2.22-.61-2.23-1.16-4.39-1.62-6.42-.37-1.63.65-3.25,2.28-3.62,1.63-.37,3.25.65,3.62,2.28.44,1.94.96,4.01,1.55,6.15.44,1.61-.5,3.27-2.11,3.72-.27.07-.54.11-.8.11Z"/>
      <path class="i" d="m246.05,93.19c-.27,0-.53-.04-.8-.11-1.61-.44-2.56-2.11-2.11-3.72.59-2.14,1.11-4.21,1.55-6.15.37-1.63,1.99-2.65,3.62-2.28,1.63.37,2.65,1.99,2.28,3.62-.46,2.03-1,4.19-1.62,6.42-.37,1.34-1.59,2.22-2.91,2.22Z"/>
      <path class="i" d="m193.11,309.95c-10.17,0-28.63-.94-47.19-3.59-22.77-3.25-38.83-8.02-47.72-14.18-4.15-2.88-6.75-7.45-7.12-12.56-.56-7.59-.85-57.34,3.96-69.33,4.59-11.46,15.43-20.04,33.14-26.23,2.9-1.01,6.24-1.96,9.77-2.96,7.06-2,15.05-4.26,18.22-6.92,8.09-6.8,8.74-13.11,9.5-20.42.12-1.17.25-2.39.41-3.6.22-1.66,1.73-2.82,3.39-2.61,1.66.22,2.82,1.73,2.61,3.39-.15,1.13-.27,2.31-.39,3.44-.78,7.52-1.66,16.05-11.62,24.42-4.16,3.5-12.45,5.85-20.47,8.11-3.44.97-6.7,1.9-9.42,2.85-15.97,5.59-25.63,13.03-29.53,22.77-3.93,9.82-4.25,57.07-3.54,66.64.24,3.28,1.89,6.2,4.54,8.03,8,5.54,23.61,10.1,45.14,13.17,18.25,2.61,36.37,3.53,46.33,3.53,21.98,0,73.26-4.08,91.48-16.7,2.64-1.83,4.3-4.76,4.54-8.03.7-9.58.37-56.86-3.55-66.64-3.9-9.74-13.56-17.19-29.53-22.77-2.72-.95-5.97-1.87-9.41-2.85-8.02-2.27-16.31-4.62-20.48-8.12-9.97-8.37-10.85-16.9-11.63-24.42-.12-1.13-.24-2.3-.39-3.43-.22-1.66.95-3.17,2.61-3.39,1.66-.22,3.17.95,3.39,2.61.16,1.21.28,2.42.4,3.59.76,7.31,1.41,13.62,9.5,20.42,3.18,2.67,11.18,4.94,18.24,6.94,3.53,1,6.87,1.94,9.76,2.96,17.72,6.19,28.56,14.78,33.15,26.23,4.78,11.95,4.52,61.73,3.96,69.33-.37,5.11-2.97,9.69-7.12,12.56-8.9,6.16-24.96,10.93-47.73,14.18-18.56,2.65-37.02,3.59-47.19,3.59Z"/>
      <path class="i" d="m193.11,197.94c-27.98,0-33.02-4.43-34.68-5.89l-.06-.05c-1.27-1.08-1.42-2.99-.34-4.26,1.08-1.27,2.99-1.42,4.26-.34l.13.11c4.62,4.06,24.66,4.38,30.69,4.38s26.06-.32,30.69-4.38l.13-.11c1.27-1.08,3.18-.93,4.26.34,1.08,1.27.93,3.18-.34,4.26l-.06.05c-1.19,1.05-3.18,2.41-7.96,3.6-6.12,1.52-15.11,2.29-26.72,2.29Z"/>
      <path class="i" d="m169.08,153.56c-.35,0-.71-.06-1.06-.19-6.87-2.57-12.07-5.99-16.35-10.77-5.46-6.08-9.28-14.22-11.67-24.88-.37-1.63.66-3.25,2.29-3.61,1.63-.37,3.25.66,3.61,2.29,4.8,21.4,14.95,27.84,24.24,31.31,1.56.58,2.36,2.33,1.77,3.89-.45,1.21-1.61,1.97-2.83,1.97Z"/>
      <path class="i" d="m217.15,153.56c-1.23,0-2.38-.75-2.83-1.97-.58-1.56.21-3.31,1.77-3.89,16.78-6.27,21.67-19.33,24.23-31.28.35-1.63,1.96-2.67,3.59-2.32,1.63.35,2.67,1.96,2.32,3.59-2.29,10.65-6.08,18.8-11.6,24.91-4.29,4.76-9.51,8.18-16.43,10.76-.35.13-.71.19-1.06.19Z"/>
      <path class="h" d="m193.12,306.92c-22.33,0-85.35-4.71-96.73-22.58-.91-11.67-3.65-60.18,1.46-72.94,4.83-12.06,17.03-19.5,31.33-24.5,9.04-3.16,23.62-5.95,28.94-10.42l35,61.67,34.99-61.67c5.33,4.48,19.9,7.27,28.94,10.43,14.31,5,26.51,12.44,31.34,24.5,5.1,12.76,2.37,61.27,1.46,72.94-11.39,17.87-74.41,22.58-96.73,22.58Z"/>
      <path class="i" d="m193.12,241.16c-1.09,0-2.09-.58-2.63-1.53l-35-61.67c-.82-1.45-.31-3.3,1.14-4.12,1.45-.83,3.3-.32,4.12,1.14l32.37,57.03,32.36-57.04c.82-1.45,2.67-1.96,4.12-1.14,1.45.82,1.96,2.67,1.14,4.12l-34.99,61.67c-.54.95-1.54,1.53-2.63,1.53Z"/>
      <path class="i" d="m179.93,251.01c-.52,0-1.05-.17-1.49-.53l-38.11-31.26c-.55-.45-.86-1.12-.86-1.83,0-.71.32-1.38.87-1.82l8.94-7.22-8.42-7.76c-.5-.46-.78-1.12-.76-1.8.02-.68.34-1.32.86-1.75l11.26-9.19c1.01-.82,2.49-.67,3.31.34.82,1.01.67,2.49-.34,3.31l-9.16,7.47,8.43,7.77c.5.46.78,1.12.76,1.81-.02.68-.34,1.32-.87,1.75l-8.81,7.12,35.88,29.43c1,.82,1.15,2.3.33,3.31-.46.57-1.14.86-1.82.86Z"/>
      <path class="i" d="m206.29,251.01c-.68,0-1.35-.29-1.82-.86-.82-1-.68-2.49.33-3.31l35.88-29.43-8.81-7.12c-.53-.43-.85-1.07-.87-1.75-.02-.68.25-1.34.76-1.81l8.43-7.77-9.16-7.47c-1.01-.82-1.16-2.3-.34-3.31.82-1.01,2.3-1.16,3.31-.34l11.26,9.19c.53.43.84,1.07.86,1.75.02.68-.26,1.34-.76,1.8l-8.42,7.76,8.94,7.22c.55.44.87,1.11.87,1.82,0,.71-.31,1.38-.86,1.83l-38.11,31.26c-.44.36-.97.53-1.49.53Z"/>
      <path class="i" d="m246.05,93.19s-.05,0-.07,0c-1.39-.03-2.57-1-2.88-2.36l-5.4-24.01c-4.51-.24-14.99-1.03-28.11-3.58-15.97-3.11-38.94-9.54-57.64-22.5-1.37-.95-1.71-2.83-.76-4.21.95-1.37,2.83-1.71,4.21-.76,34.22,23.73,84.31,25.1,84.81,25.11,1.39.03,2.58,1,2.88,2.36l3.37,14.98c.68-.56,1.6-.82,2.53-.62,1.63.34,2.68,1.94,2.34,3.57-.66,3.17-1.46,6.47-2.37,9.8-.36,1.32-1.56,2.22-2.91,2.22Z"/>
      <path class="i" d="m140.18,93.19c-1.36,0-2.55-.91-2.91-2.22-.84-3.06-1.58-6.09-2.2-9-.35-1.63.69-3.24,2.32-3.59.81-.17,1.61,0,2.26.41l3.5-15.55c.05-.21.12-.42.21-.61.13-.28,3.32-7.02,14.64-21.85,1.01-1.33,2.91-1.58,4.24-.57,1.33,1.01,1.58,2.91.57,4.24-9.61,12.59-13.15,19.13-13.84,20.48l-5.83,25.92c-.3,1.35-1.49,2.33-2.88,2.36-.02,0-.05,0-.07,0Z"/>
      <path class="i" d="m237.87,53.3c-.51,0-1.02-.19-1.41-.57-13.2-12.9-37.47-26.24-56.45-31.03-1.08-.27-1.73-1.37-1.46-2.45.27-1.08,1.37-1.73,2.45-1.46,19.59,4.94,44.64,18.72,58.29,32.06.8.78.81,2.05.03,2.85-.39.4-.92.61-1.44.61Z"/>
      <path class="i" d="m193.11,309.95c-10.17,0-28.63-.94-47.19-3.59-22.77-3.25-38.83-8.02-47.72-14.18-4.15-2.88-6.75-7.45-7.12-12.56-.56-7.59-.85-57.34,3.96-69.33,4.59-11.46,15.43-20.04,33.14-26.23,2.9-1.01,6.24-1.96,9.77-2.96,7.06-2,15.05-4.26,18.22-6.92,8.09-6.8,8.74-13.11,9.5-20.42.12-1.17.25-2.39.41-3.6.22-1.66,1.73-2.82,3.39-2.61,1.66.22,2.82,1.73,2.61,3.39-.15,1.13-.27,2.31-.39,3.44-.78,7.52-1.66,16.05-11.62,24.42-4.16,3.5-12.45,5.85-20.47,8.11-3.44.97-6.7,1.9-9.42,2.85-15.97,5.59-25.63,13.03-29.53,22.77-3.93,9.82-4.25,57.07-3.54,66.64.24,3.28,1.89,6.2,4.54,8.03,8,5.54,23.61,10.1,45.14,13.17,18.25,2.61,36.37,3.53,46.33,3.53,21.98,0,73.26-4.08,91.48-16.7,2.64-1.83,4.3-4.76,4.54-8.03.7-9.58.37-56.86-3.55-66.64-3.9-9.74-13.56-17.19-29.53-22.77-2.72-.95-5.97-1.87-9.41-2.85-8.02-2.27-16.31-4.62-20.48-8.12-9.97-8.37-10.85-16.9-11.63-24.42-.12-1.13-.24-2.3-.39-3.43-.22-1.66.95-3.17,2.61-3.39,1.66-.22,3.17.95,3.39,2.61.16,1.21.28,2.42.4,3.59.76,7.31,1.41,13.62,9.5,20.42,3.18,2.67,11.18,4.94,18.24,6.94,3.53,1,6.87,1.94,9.76,2.96,17.72,6.19,28.56,14.78,33.15,26.23,4.78,11.95,4.52,61.73,3.96,69.33-.37,5.11-2.97,9.69-7.12,12.56-8.9,6.16-24.96,10.93-47.73,14.18-18.56,2.65-37.02,3.59-47.19,3.59Z"/>
      <g>
        <path class="i" d="m193.11,111.74c-.74,0-1.34-.6-1.34-1.34v-1.7c0-.74.6-1.34,1.34-1.34s1.34.6,1.34,1.34v1.7c0,.74-.6,1.34-1.34,1.34Z"/>
        <ellipse class="i" cx="172.13" cy="89.98" rx="4.85" ry="5.42"/>
        <path class="g" d="m154.51,86.42l1.25,12.03c.37,3.58,3.39,6.31,7,6.31h17.96c3.6,0,6.62-2.72,7-6.31l1.25-12.03h8.3l1.25,12.03c.37,3.58,3.39,6.31,7,6.31h17.96c3.6,0,6.62-2.72,7-6.31l1.25-12.03"/>
        <ellipse class="i" cx="214.09" cy="89.98" rx="4.85" ry="5.42"/>
        <path class="i" d="m195.38,131.09h-4.52c-1.3,0-2.35-1.05-2.35-2.35s1.05-2.35,2.35-2.35h4.52c1.3,0,2.35,1.05,2.35,2.35s-1.05,2.35-2.35,2.35Z"/>
        <path class="i" d="m221.02,79.54s-.1,0-.15,0c-3.88-.24-9.37-1.91-12.88-5.08-.96-.87-1.04-2.36-.17-3.32.87-.97,2.36-1.04,3.32-.17,2.28,2.06,6.41,3.65,10.03,3.88,1.3.08,2.28,1.2,2.2,2.49-.08,1.25-1.11,2.2-2.34,2.2Z"/>
        <path class="i" d="m165.21,79.54c-1.23,0-2.27-.96-2.34-2.2-.08-1.3.9-2.41,2.2-2.49,3.63-.23,7.75-1.82,10.03-3.88.96-.87,2.45-.79,3.32.17.87.96.79,2.45-.17,3.32-3.52,3.17-9.01,4.83-12.88,5.08-.05,0-.1,0-.15,0Z"/>
      </g>
    </g>
    <path class="i" d="m99.94,87.43c-.17,0-.35-.01-.52-.05-1.64-.29-2.75-1.85-2.46-3.5.2-1.16.35-2.29.45-3.4-.52.2-1.05.38-1.58.55-4.19,1.34-8.97,1.47-13.13.35-2.33-.63-4.37-1.63-6.06-2.95-3.87-.02-7.72-.94-11.13-2.79-8.69-4.71-13.65-15.08-11.8-24.65.45-2.31,1.28-4.51,2.43-6.53-1.49.6-3.2-.06-3.88-1.54-2.3-5-2.79-10.93-1.37-16.69,1.37-5.6,4.44-10.69,8.64-14.36,8.13-7.09,20.47-9.35,31.44-5.75,5.81,1.91,11.11,5.59,14.93,10.36,4.1,5.12,6.18,11.2,5.86,17.11-.15,2.68-.82,5.28-1.9,7.69,2.31,4.03,3.92,8.44,4.67,12.98,1.48,9.05-2.85,17.72-10.94,23.07,0,2.89-.3,5.51-.66,7.57-.26,1.47-1.53,2.5-2.97,2.5Zm-12.43-11.38c2.28.13,4.58-.16,6.47-.77,1.13-.36,2.26-.82,3.36-1.36-.21-1.74-.57-3.38-1.1-4.9-1.05,1.36-2.24,2.61-3.56,3.72-1.58,1.33-3.33,2.43-5.18,3.3Zm-9.72-12.52c-.72,2.15-.68,4.66.16,6.88.26.68.6,1.28,1.01,1.83,3.59-.41,7.09-1.8,9.84-4.12,1.66-1.39,3.04-3.11,4.12-5.02-.02-.03-.05-.05-.07-.08-3.2,3.26-7.96,3.92-12.97,1.65-.73-.33-1.43-.72-2.09-1.13Zm-14.39-18.86c-1.87,2.12-3.22,4.7-3.75,7.47-1.34,6.94,2.42,14.76,8.75,18.19,1.14.62,2.36,1.1,3.62,1.43-1.32-4.11-.97-8.6.95-12.28-.54-.57-1.02-1.12-1.45-1.62l-.17-.21c-3.19-3.75-6.69-7.85-7.94-12.98Zm36.49,17.82c1.46,2.49,2.4,5.12,2.96,7.74,4.07-3.67,6.71-8.82,5.7-14.97-.46-2.78-1.3-5.51-2.47-8.09-1.33,1.53-2.84,2.9-4.51,4.07.27,3.83-.32,7.69-1.68,11.25Zm-18.02-3.58c.17.09.34.17.51.25,2.81,1.28,4.54.87,5.59.13-1.79-.83-3.37-1.03-4.3-.89-.67.11-1.27.28-1.8.51Zm-9.96-10.22c1.16,1.66,2.56,3.31,4.04,5.04l.18.21c.27.31.53.61.78.89.68-.5,1.41-.94,2.19-1.3-2.66-1.17-5.11-2.81-7.18-4.84Zm12.81-6.23c-.8,1.52.21,4.04,2.05,5.09.74.42,1.61.69,2.56.8-1-2.29-2.62-4.32-4.61-5.89Zm-12.07-3.19c.33.78.72,1.53,1.18,2.25,1.27,2.02,3,3.73,5,5.05-.69-2.31-.57-4.79.54-6.9-1.55-.47-3.18-.69-4.81-.61-.64.03-1.28.11-1.9.22Zm15.41-4.48c1.76,0,3.51.41,5.04,1.19,3,1.55,5.39,4.38,6.87,8.09.94-.93,1.77-1.97,2.48-3.1-2.81-3.82-6.4-7.07-10.5-9.36-4.57-2.55-9.65-3.32-13.94-2.11-2.36.67-4.48,2.01-6.07,3.74.77-.13,1.55-.21,2.33-.25,3.66-.17,7.25.68,10.45,2.3.3-.09.61-.18.92-.25.79-.18,1.6-.26,2.42-.26Zm-7.78-24.32c-6.25,0-12.32,2.07-16.78,5.96-6.82,5.96-9.3,16.26-5.75,23.96.19.41.28.83.28,1.25,1.51-1.93,3.33-3.61,5.35-4.96.38-1.59,1.02-3.11,1.86-4.53.04-3.94,1.03-7.88,2.99-11.28,2.81-4.88,7.54-8.59,12.89-10.39-.28,0-.56-.01-.85-.01Zm1.91,12.44c4.24,0,8.66,1.17,12.71,3.43,3.77,2.1,7.17,4.89,10.06,8.15.3-1.74.31-3.52,0-5.26-1.33-7.52-8.39-13.63-16.07-13.9-6.15-.22-12.35,3.22-15.42,8.56-.22.39-.43.79-.62,1.2,1.11-.57,2.29-1.04,3.52-1.39,1.86-.53,3.82-.79,5.82-.79Z"/>
    <path class="h" d="m302.39,67.09c-8.32,5.12-27.93,6.81-27.93,6.81,0,0,6.91-18.43,14.09-25.06,11.08-10.23,17.98-1.95,19.27-.25,1.29,1.71,7.4,10.59-5.44,18.49Z"/>
    <path class="h" d="m295.67,100.3c-7.61-1.63-19.82-11.44-19.82-11.44,0,0,14.11-6.8,21.89-6.67,12,.2,11.42,8.76,11.23,10.46-.19,1.69-1.56,10.16-13.3,7.65Z"/>
    <g>
      <g>
        <path class="d" d="m60.55,302.5l-2.22-8.75h158.63l-2.22,8.75c-1.14,6.6-6.86,11.43-13.56,11.43h-127.06c-6.7,0-12.43-4.83-13.56-11.43Z"/>
        <path class="i" d="m201.17,316.95h-127.06c-8.15,0-15.08-5.8-16.52-13.82l-2.2-8.64c-.23-.9-.03-1.86.54-2.6.57-.74,1.45-1.17,2.39-1.17h158.63c.93,0,1.81.43,2.39,1.17.57.74.77,1.7.54,2.6l-2.2,8.64c-1.44,8.01-8.37,13.82-16.52,13.82Zm-138.96-20.18l1.27,4.98c.02.08.04.15.05.23.89,5.17,5.34,8.92,10.58,8.92h127.06c5.24,0,9.7-3.75,10.58-8.92.01-.08.03-.16.05-.23l1.27-4.98H62.21Z"/>
      </g>
      <g>
        <path class="d" d="m19.78,300.17L3.02,215.53c0-7.6,6.16-13.76,13.76-13.76h131.11c7.6,0,13.76,6.16,13.76,13.76l16.76,84.64c0,7.6-6.16,13.76-13.76,13.76H33.54c-7.6,0-13.76-6.16-13.76-13.76Z"/>
        <path class="i" d="m164.65,316.95H33.54c-9.15,0-16.62-7.36-16.78-16.47L.06,216.11c-.04-.19-.06-.39-.06-.59,0-9.25,7.53-16.78,16.78-16.78h131.11c9.15,0,16.62,7.36,16.78,16.47l16.7,84.36c.04.19.06.39.06.59,0,9.25-7.53,16.78-16.78,16.78ZM6.05,215.25l16.69,84.33c.04.19.06.39.06.59,0,5.92,4.82,10.74,10.74,10.74h131.11c5.83,0,10.59-4.67,10.74-10.46l-16.69-84.33c-.04-.19-.06-.39-.06-.59,0-5.92-4.82-10.74-10.74-10.74H16.78c-5.83,0-10.59,4.67-10.74,10.46Z"/>
      </g>
      <circle class="h" cx="90.72" cy="257.85" r="9.77"/>
    </g>
    <g>
      <path class="d" d="m262.79,262.46c-11.73-3.25-24.41-6.37-32.03-5.27-.9.13-3,1.82-5.63,4.27-.99-1.29-6.13,1.57-7.77,2.44l-12.73,6.7c-1.78.94-2.97,2.71-3.17,4.72-.24,2.39.98,4.7,3.08,5.85.41.23.85.4,1.3.52-.53.6-.83.93-.83.93-1.33,1.51-1.82,3.59-1.29,5.53.63,2.32,2.58,4.05,4.96,4.38,1.99.27,4-.47,5.33-1.97l3.27-3.71c-1.24,1.49-1.67,3.5-1.17,5.38.63,2.32,2.58,4.04,4.96,4.37,2,.28,4-.46,5.33-1.97l2.49-2.83s.02,0,.03.01c-1.12,1.48-1.52,3.39-1.03,5.19.63,2.33,2.58,4.05,4.96,4.38,1.99.27,4-.47,5.33-1.97l3.18-3.48c-.88,1.4-1.14,3.12-.71,4.74.63,2.32,2.59,4.04,4.97,4.38,1.99.28,3.99-.46,5.32-1.97l2.97-3.35s2.29-2.61,5.37-6.09c27.07,7.51,44.62-19.77,3.5-31.18Z"/>
      <g>
        <path class="i" d="m221.93,299.69c-.42,0-.85-.03-1.27-.09-3.58-.5-6.51-3.08-7.46-6.57-.76-2.84-.1-5.86,1.76-8.1l.12-.15s.04-.05.06-.07l13.37-15.16c1.1-1.25,3.01-1.38,4.27-.27,1.25,1.1,1.37,3.01.27,4.27l-1.89,2.15-11.54,13.09c-.61.74-.83,1.74-.58,2.67.31,1.14,1.28,1.99,2.46,2.16.99.14,1.98-.22,2.64-.98l16.55-18.79c1.1-1.25,3.01-1.37,4.27-.27,1.25,1.1,1.37,3.01.27,4.27l-16.55,18.79c-1.73,1.96-4.18,3.06-6.75,3.06Z"/>
        <path class="i" d="m246.48,308.14c-.42,0-.84-.03-1.26-.09-3.58-.5-6.51-3.08-7.46-6.58-.65-2.41-.27-5,1.05-7.11.25-.42.55-.81.9-1.22.01-.02.03-.03.04-.05l12.46-13.5c1.13-1.23,3.04-1.3,4.27-.17,1.23,1.13,1.3,3.04.17,4.27l-12.43,13.47c-.1.12-.18.23-.24.32,0,.02-.02.03-.03.05-.44.7-.57,1.56-.35,2.35.31,1.15,1.28,2,2.47,2.17.99.14,1.97-.23,2.64-.98l2.97-3.36s2.29-2.61,5.37-6.09c.77-.87,1.96-1.22,3.07-.91,12.14,3.37,22.13-.96,23.83-7.12,1.44-5.2-3.44-13.1-21.95-18.24-11.16-3.1-23.49-6.13-30.54-5.23-.34.19-1.47.93-4.24,3.52-6.47,6.05-16.26,16.87-19.1,20.04-.46.52-.75.85-.82.92-.66.75-.89,1.77-.63,2.73.31,1.16,1.28,2.01,2.46,2.18.99.14,1.98-.23,2.65-.98l14.88-16.87c1.1-1.25,3.01-1.37,4.27-.27,1.25,1.1,1.37,3.01.27,4.27l-14.88,16.88c-2.01,2.27-5,3.38-8.01,2.97-3.6-.5-6.52-3.09-7.47-6.59-.79-2.93-.07-6.04,1.94-8.32,0,0,.02-.02.02-.03,0,0,.3-.33.81-.91,2.9-3.24,12.84-14.22,19.49-20.44,4.23-3.96,5.92-4.87,7.27-5.06,8.09-1.16,20.77,1.89,33.26,5.35,22.78,6.32,28.45,17.41,26.15,25.68-1.33,4.81-5.41,8.81-11.19,10.97-5.34,2-11.76,2.28-18.23.82-2.44,2.77-4.15,4.7-4.15,4.7l-2.97,3.36c-1.73,1.96-4.18,3.05-6.75,3.05Zm-15.28-47.96s0,0,0,0c0,0,0,0,0,0Z"/>
        <path class="i" d="m233.69,304.47c-.41,0-.83-.03-1.24-.08-3.59-.5-6.52-3.09-7.47-6.59-.79-2.94-.06-6.04,1.95-8.32l13.77-15.64c1.1-1.25,3.01-1.37,4.27-.27,1.25,1.1,1.37,3.01.27,4.27l-13.77,15.64c-.66.75-.91,1.78-.65,2.75.31,1.15,1.28,2,2.46,2.17.99.14,1.98-.23,2.64-.98.01-.01.02-.03.03-.04l16.23-17.77c1.13-1.23,3.04-1.32,4.27-.19,1.23,1.13,1.32,3.04.19,4.27l-16.21,17.75c-1.73,1.94-4.18,3.03-6.75,3.03Z"/>
        <path class="i" d="m205.87,284.72c-.25,0-.51-.03-.77-.1,0,0-.01,0-.02,0-.68-.18-1.35-.45-1.98-.79-3.18-1.74-4.99-5.2-4.64-8.8.3-3.02,2.08-5.67,4.76-7.09l13.05-6.87c3.71-1.98,8.78-4.68,11.27-1.43,1.01,1.33.76,3.22-.57,4.24-.91.7-2.1.8-3.08.36-.63.16-1.97.67-4.78,2.17l-.34.18-12.73,6.71c-.88.47-1.47,1.34-1.57,2.35-.12,1.19.48,2.33,1.53,2.9.2.11.41.19.61.25,0,0,.02,0,.03,0,1.62.42,2.57,2.07,2.15,3.69-.35,1.36-1.59,2.26-2.93,2.26Zm16.87-21.42s0,0,0,0c0,0,0,0,0,0Z"/>
      </g>
    </g>
  </g>
  <g>
    <g>
      <g>
        <g>
          <path class="h" d="m861.91,158.88s-53.41.33-71.45-17.56l6.14-46.12C771.84-1.77,861.91,3.06,861.91,3.06c0,0,90.07-4.84,65.31,92.14l6.14,46.12c-18.04,17.89-71.45,17.56-71.45,17.56Z"/>
          <path class="i" d="m862.27,161.9c-.16,0-.28,0-.36,0-2.49.01-54.91.07-73.58-18.44-.67-.67-.99-1.61-.87-2.55l6.06-45.54c-7.82-31.05-4.87-55.23,8.78-71.86,8.62-10.5,21.7-17.89,37.83-21.36,11.36-2.45,20.41-2.17,21.77-2.12,1.35-.06,10.4-.33,21.77,2.12,16.13,3.48,29.22,10.86,37.83,21.36,13.65,16.63,16.6,40.81,8.78,71.86l6.06,45.54c.12.94-.2,1.88-.87,2.55-18.11,17.95-67.98,18.44-73.22,18.44Zm-.36-6.05s0,0,.15,0c1.41,0,14.06-.06,28.47-2.05,18.75-2.6,32.4-7.3,39.63-13.63l-5.93-44.57c-.05-.38-.03-.77.07-1.15,7.49-29.34,4.99-51.91-7.43-67.07-9.74-11.89-24.02-17.05-34.28-19.28-11.32-2.46-20.42-2.03-20.51-2.02-.11,0-.22,0-.32,0-.09,0-9.19-.44-20.51,2.02-10.26,2.23-24.54,7.39-34.28,19.28-12.42,15.16-14.92,37.73-7.43,67.07.1.37.12.76.07,1.15l-5.93,44.57c7.23,6.33,20.87,11.03,39.63,13.63,15.22,2.11,28.47,2.05,28.6,2.05h.02Z"/>
        </g>
        <g class="e">
          <path class="d" d="m916.43,83.88l.22.05c11.32-.28,14.14,10.4,12.27,20.03-2.48,12.72-11.97,17.35-17.42,15.58-5,20.12-15.42,27.22-25.55,31h0c1.13,8.63.51,17.16,10.96,25.93,5.33,4.48,19.9,7.27,28.94,10.43,14.31,5,26.51,12.44,31.34,24.5,4.34,10.83,4.39,59.23,3.75,67.99-.3,4.14-2.42,7.94-5.83,10.3-19.48,13.49-73.28,17.24-93.2,17.24s-73.72-3.75-93.19-17.24c-3.41-2.36-5.53-6.16-5.83-10.3-.64-8.75-.59-57.15,3.75-67.99,4.83-12.06,17.03-19.5,31.33-24.5,9.04-3.16,23.62-5.95,28.94-10.42,10.45-8.79,9.83-17.31,10.96-25.94-10.13-3.78-20.37-10.88-25.53-31.01h-.02c-5.44,1.79-14.94-2.84-17.42-15.57-1.87-9.63.94-20.31,12.27-20.03l.22-.05C792.64,1.04,861.91,3.06,861.91,3.06c0,0,68.8-2.9,54.52,80.81Z"/>
        </g>
        <path class="h" d="m827.96,41.79l-5.49-3.55c1.79,1.24,3.62,2.42,5.49,3.55Z"/>
        <path class="h" d="m861.91,8.55s-77.52-8.14-52.93,81.61l5.91-26.27s3.06-6.56,14.31-21.29l-1.24-.81c-1.86-1.13-3.7-2.31-5.49-3.55l5.49,3.55c34.92,21.09,80.98,22.1,80.98,22.1l5.91,26.27C939.44.41,861.91,8.55,861.91,8.55Z"/>
        <path class="i" d="m837.87,153.56c-.35,0-.71-.06-1.06-.19-6.57-2.45-11.59-5.68-15.77-10.14-5.28-5.62-9.07-13.07-11.58-22.75-.02-.07-.04-.14-.06-.21-.25-.98-.44-1.79-.61-2.56-.36-1.63.67-3.24,2.29-3.61,1.63-.36,3.24.67,3.61,2.29.15.66.31,1.36.52,2.2.02.06.04.12.05.18,5.03,19.58,14.78,25.61,23.66,28.93,1.56.58,2.36,2.32,1.77,3.89-.45,1.22-1.61,1.97-2.83,1.97Z"/>
        <path class="i" d="m809.89,122.93c-2.44,0-5.04-.74-7.48-2.18-3.08-1.81-8.54-6.32-10.47-16.21-1.47-7.57-.22-14.4,3.44-18.73,2.81-3.33,6.91-5.02,11.86-4.9,1.67.04,2.99,1.43,2.95,3.1-.04,1.67-1.44,2.99-3.1,2.95-3.15-.07-5.47.83-7.1,2.76-2.4,2.84-3.22,8.08-2.13,13.67.63,3.24,2.46,9.14,7.59,12.16,2.06,1.21,4.33,1.64,5.92,1.13,1.59-.52,3.29.35,3.81,1.93.52,1.59-.35,3.29-1.93,3.81-1.06.35-2.2.52-3.37.52Z"/>
        <path class="i" d="m885.95,153.56c-1.23,0-2.38-.75-2.83-1.97-.58-1.56.21-3.31,1.77-3.89,5.71-2.13,10.02-4.87,13.56-8.62,4.64-4.91,7.95-11.54,10.12-20.28.21-.85.39-1.63.56-2.38.35-1.63,1.96-2.67,3.59-2.32,1.63.35,2.67,1.96,2.32,3.59-.18.82-.37,1.67-.6,2.58-2.43,9.77-6.22,17.28-11.59,22.97-4.2,4.44-9.23,7.66-15.84,10.13-.35.13-.71.19-1.06.19Z"/>
        <path class="i" d="m913.93,122.93c-1.14,0-2.24-.16-3.28-.49-1.26-.37-2.17-1.53-2.17-2.9,0-1.67,1.35-3.02,3.02-3.02h0c.32,0,.63.05.94.15,1.59.52,3.86.08,5.93-1.13,2.2-1.3,6.12-4.6,7.59-12.15,1.09-5.59.27-10.83-2.13-13.67-1.63-1.93-3.95-2.83-7.1-2.76-1.68.04-3.05-1.28-3.1-2.95-.04-1.67,1.28-3.05,2.95-3.1,4.95-.12,9.05,1.57,11.86,4.9,3.66,4.33,4.92,11.16,3.44,18.73-1.92,9.88-7.38,14.39-10.45,16.2-2.45,1.44-5.05,2.19-7.5,2.19Z"/>
        <path class="i" d="m808.97,93.19c-1.33,0-2.54-.88-2.91-2.22-.61-2.23-1.16-4.39-1.62-6.42-.37-1.63.65-3.25,2.28-3.62,1.63-.37,3.25.65,3.62,2.28.44,1.94.96,4.01,1.55,6.15.44,1.61-.5,3.27-2.11,3.72-.27.07-.54.11-.8.11Z"/>
        <path class="i" d="m914.84,93.19c-.27,0-.54-.04-.8-.11-1.61-.44-2.56-2.11-2.11-3.72.59-2.14,1.11-4.21,1.55-6.15.37-1.63,1.99-2.65,3.62-2.28,1.63.37,2.65,1.99,2.28,3.62-.46,2.03-1.01,4.19-1.62,6.42-.37,1.34-1.59,2.22-2.91,2.22Z"/>
        <path class="i" d="m861.91,309.95c-10.17,0-28.63-.94-47.19-3.59-22.77-3.25-38.83-8.02-47.72-14.18-4.15-2.88-6.75-7.45-7.12-12.56-.56-7.59-.85-57.34,3.96-69.33,4.59-11.46,15.43-20.04,33.14-26.23,2.9-1.01,6.24-1.96,9.77-2.96,7.06-2,15.05-4.26,18.22-6.92,8.09-6.8,8.74-13.11,9.5-20.42.12-1.17.25-2.39.41-3.6.22-1.66,1.73-2.82,3.39-2.61,1.66.22,2.82,1.73,2.61,3.39-.15,1.13-.27,2.31-.39,3.44-.78,7.52-1.66,16.05-11.62,24.42-4.16,3.5-12.45,5.85-20.47,8.11-3.44.97-6.7,1.9-9.42,2.85-15.97,5.59-25.63,13.03-29.53,22.77-3.93,9.82-4.25,57.07-3.54,66.64.24,3.28,1.89,6.2,4.54,8.03,8,5.54,23.61,10.1,45.14,13.17,18.25,2.61,36.37,3.53,46.33,3.53,21.98,0,73.26-4.08,91.48-16.7,2.64-1.83,4.3-4.76,4.54-8.03.7-9.58.37-56.86-3.55-66.64-3.9-9.74-13.56-17.19-29.53-22.77-2.72-.95-5.97-1.87-9.41-2.85-8.02-2.27-16.31-4.62-20.48-8.12-9.97-8.37-10.85-16.9-11.63-24.43-.12-1.13-.24-2.3-.39-3.43-.22-1.66.95-3.17,2.61-3.39,1.66-.22,3.17.95,3.39,2.61.16,1.21.28,2.42.4,3.59.76,7.31,1.41,13.62,9.5,20.42,3.18,2.67,11.18,4.94,18.24,6.94,3.53,1,6.87,1.94,9.76,2.96,17.72,6.19,28.56,14.78,33.15,26.23,4.78,11.95,4.52,61.73,3.96,69.33-.37,5.11-2.97,9.69-7.12,12.56-8.9,6.16-24.96,10.93-47.73,14.18-18.56,2.65-37.02,3.59-47.19,3.59Z"/>
        <path class="i" d="m861.91,111.35c-.74,0-1.34-.6-1.34-1.34v-1.7c0-.74.6-1.34,1.34-1.34s1.34.6,1.34,1.34v1.7c0,.74-.6,1.34-1.34,1.34Z"/>
        <path class="i" d="m861.91,197.94c-27.98,0-33.02-4.43-34.68-5.89l-.06-.05c-1.27-1.08-1.42-2.99-.34-4.26,1.08-1.27,2.99-1.42,4.26-.34l.13.11c4.62,4.06,24.66,4.38,30.69,4.38s26.06-.32,30.69-4.38l.13-.11c1.27-1.08,3.18-.93,4.26.34,1.08,1.27.93,3.18-.34,4.26l-.06.05c-1.2,1.05-3.18,2.41-7.96,3.6-6.12,1.52-15.11,2.29-26.72,2.29Z"/>
        <path class="i" d="m834.33,78.46c-.62,0-1.25-.25-1.71-.74-.89-.94-.85-2.43.09-3.32,3.48-3.3,9.7-4.23,14.77-2.22,1.21.48,1.8,1.85,1.32,3.05-.48,1.21-1.85,1.8-3.05,1.32-3.74-1.48-7.92-.52-9.81,1.26-.45.43-1.04.64-1.62.64Z"/>
        <path class="i" d="m837.88,153.56c-.35,0-.71-.06-1.06-.19-6.87-2.57-12.07-5.99-16.35-10.77-5.46-6.08-9.28-14.22-11.67-24.88-.37-1.63.66-3.25,2.29-3.61,1.63-.37,3.25.66,3.61,2.29,4.8,21.4,14.95,27.84,24.24,31.31,1.56.58,2.36,2.33,1.77,3.89-.45,1.21-1.61,1.97-2.83,1.97Z"/>
        <path class="i" d="m885.95,153.56c-1.23,0-2.38-.75-2.83-1.97-.58-1.56.21-3.31,1.77-3.89,16.78-6.27,21.67-19.33,24.23-31.28.35-1.63,1.96-2.67,3.59-2.32,1.63.35,2.67,1.96,2.32,3.59-2.29,10.65-6.08,18.8-11.6,24.91-4.29,4.76-9.51,8.18-16.43,10.76-.35.13-.71.19-1.06.19Z"/>
        <path class="h" d="m861.92,306.92c-22.33,0-85.35-4.71-96.73-22.58-.91-11.67-3.65-60.18,1.46-72.94,4.83-12.06,17.03-19.5,31.33-24.5,9.04-3.16,23.62-5.95,28.94-10.42l35,61.67,34.99-61.67c5.33,4.48,19.9,7.27,28.94,10.43,14.31,5,26.51,12.44,31.34,24.5,5.1,12.76,2.37,61.27,1.46,72.94-11.39,17.87-74.41,22.58-96.73,22.58Z"/>
        <path class="i" d="m861.92,241.16c-1.09,0-2.09-.58-2.63-1.53l-35-61.67c-.82-1.45-.31-3.3,1.14-4.12,1.45-.82,3.3-.32,4.12,1.14l32.37,57.03,32.36-57.04c.82-1.45,2.67-1.96,4.12-1.14,1.45.82,1.96,2.67,1.14,4.12l-34.99,61.67c-.54.95-1.54,1.53-2.63,1.53Z"/>
        <path class="i" d="m848.73,251.01c-.52,0-1.05-.17-1.49-.53l-38.11-31.26c-.55-.45-.86-1.12-.86-1.83,0-.71.32-1.38.87-1.82l8.94-7.22-8.42-7.76c-.5-.46-.78-1.12-.76-1.8.02-.68.34-1.32.86-1.75l11.26-9.19c1.01-.82,2.49-.67,3.31.34.82,1.01.67,2.49-.34,3.31l-9.16,7.47,8.43,7.77c.5.46.78,1.12.76,1.81-.02.68-.34,1.32-.87,1.75l-8.81,7.12,35.88,29.43c1,.82,1.15,2.3.33,3.31-.46.57-1.14.86-1.82.86Z"/>
        <path class="i" d="m875.09,251.01c-.68,0-1.35-.29-1.82-.86-.82-1-.68-2.49.33-3.31l35.88-29.43-8.81-7.12c-.53-.43-.85-1.07-.87-1.75-.02-.68.25-1.34.76-1.81l8.43-7.77-9.16-7.47c-1.01-.82-1.16-2.3-.34-3.31.82-1.01,2.3-1.16,3.31-.34l11.26,9.19c.53.43.84,1.07.86,1.75.02.68-.26,1.34-.76,1.8l-8.42,7.76,8.94,7.22c.55.44.87,1.11.87,1.82,0,.71-.31,1.38-.86,1.83l-38.11,31.26c-.44.36-.97.53-1.49.53Z"/>
        <path class="i" d="m914.85,93.19s-.05,0-.07,0c-1.39-.03-2.57-1-2.88-2.36l-5.4-24.01c-4.51-.24-14.99-1.03-28.11-3.58-15.97-3.11-38.94-9.54-57.64-22.5-1.37-.95-1.71-2.83-.76-4.21.95-1.37,2.83-1.71,4.21-.76,34.22,23.73,84.31,25.1,84.81,25.11,1.39.03,2.58,1,2.88,2.36l3.37,14.98c.68-.56,1.6-.82,2.53-.62,1.63.34,2.68,1.94,2.34,3.57-.66,3.17-1.46,6.47-2.37,9.8-.36,1.32-1.56,2.22-2.91,2.22Z"/>
        <path class="i" d="m808.98,93.19c-1.36,0-2.55-.91-2.91-2.22-.84-3.06-1.58-6.09-2.2-9-.35-1.63.69-3.24,2.32-3.59.81-.17,1.61,0,2.26.41l3.5-15.55c.05-.21.12-.42.21-.61.13-.28,3.32-7.02,14.64-21.85,1.01-1.33,2.91-1.58,4.24-.57,1.33,1.01,1.58,2.91.57,4.24-9.61,12.59-13.15,19.13-13.84,20.48l-5.83,25.92c-.3,1.35-1.49,2.33-2.88,2.36-.02,0-.05,0-.07,0Z"/>
        <path class="i" d="m906.66,53.3c-.51,0-1.02-.19-1.41-.57-13.2-12.9-37.47-26.24-56.45-31.03-1.08-.27-1.73-1.37-1.46-2.45.27-1.08,1.37-1.73,2.45-1.46,19.59,4.94,44.64,18.72,58.29,32.06.8.78.81,2.05.03,2.85-.39.4-.92.61-1.44.61Z"/>
        <path class="i" d="m861.91,309.95c-10.17,0-28.63-.94-47.19-3.59-22.77-3.25-38.83-8.02-47.72-14.18-4.15-2.88-6.75-7.45-7.12-12.56-.56-7.59-.85-57.34,3.96-69.33,4.59-11.46,15.43-20.04,33.14-26.23,2.9-1.01,6.24-1.96,9.77-2.96,7.06-2,15.05-4.26,18.22-6.92,8.09-6.8,8.74-13.11,9.5-20.42.12-1.17.25-2.39.41-3.6.22-1.66,1.73-2.82,3.39-2.61,1.66.22,2.82,1.73,2.61,3.39-.15,1.13-.27,2.31-.39,3.44-.78,7.52-1.66,16.05-11.62,24.42-4.16,3.5-12.45,5.85-20.47,8.11-3.44.97-6.7,1.9-9.42,2.85-15.97,5.59-25.63,13.03-29.53,22.77-3.93,9.82-4.25,57.07-3.54,66.64.24,3.28,1.89,6.2,4.54,8.03,8,5.54,23.61,10.1,45.14,13.17,18.25,2.61,36.37,3.53,46.33,3.53,21.98,0,73.26-4.08,91.48-16.7,2.64-1.83,4.3-4.76,4.54-8.03.7-9.58.37-56.86-3.55-66.64-3.9-9.74-13.56-17.19-29.53-22.77-2.72-.95-5.97-1.87-9.41-2.85-8.02-2.27-16.31-4.62-20.48-8.12-9.97-8.37-10.85-16.9-11.63-24.43-.12-1.13-.24-2.3-.39-3.43-.22-1.66.95-3.17,2.61-3.39,1.66-.22,3.17.95,3.39,2.61.16,1.21.28,2.42.4,3.59.76,7.31,1.41,13.62,9.5,20.42,3.18,2.67,11.18,4.94,18.24,6.94,3.53,1,6.87,1.94,9.76,2.96,17.72,6.19,28.56,14.78,33.15,26.23,4.78,11.95,4.52,61.73,3.96,69.33-.37,5.11-2.97,9.69-7.12,12.56-8.9,6.16-24.96,10.93-47.73,14.18-18.56,2.65-37.02,3.59-47.19,3.59Z"/>
        <path class="i" d="m889.5,78.46c-.58,0-1.16-.21-1.62-.64-1.89-1.78-6.07-2.74-9.81-1.26-1.21.48-2.57-.11-3.05-1.32-.48-1.21.11-2.57,1.32-3.05,5.07-2.01,11.29-1.08,14.77,2.22.94.89.98,2.38.09,3.32-.46.49-1.08.74-1.71.74Z"/>
        <path class="i" d="m861.91,135.25c-12.3,0-17.32-11.82-17.53-12.32-.3-.73-.22-1.55.22-2.2.44-.65,1.17-1.04,1.95-1.04h30.71c.78,0,1.52.39,1.95,1.04.44.65.52,1.48.22,2.2-.21.5-5.23,12.32-17.53,12.32Zm-11.27-10.86c2,2.72,5.64,6.16,11.27,6.16s9.27-3.44,11.27-6.16h-22.54Z"/>
        <path class="i" d="m889.39,94.87c-.72,0-1.44-.33-1.9-.96-1.39-1.9-3.49-2.26-4.61-2.3-1.83-.07-3.65.57-4.53,1.59-.84.99-2.33,1.1-3.31.25-.99-.85-1.1-2.33-.25-3.32,1.82-2.12,4.99-3.35,8.28-3.23,3.36.13,6.36,1.67,8.23,4.23.77,1.05.54,2.52-.51,3.29-.42.31-.9.45-1.38.45Z"/>
        <path class="i" d="m834.44,94.87c-.48,0-.97-.15-1.38-.45-1.05-.77-1.28-2.24-.51-3.29,1.87-2.56,4.87-4.1,8.23-4.23,3.29-.12,6.46,1.11,8.28,3.23.85.99.73,2.47-.25,3.32-.99.84-2.47.73-3.31-.25-.88-1.02-2.7-1.66-4.53-1.59-1.13.04-3.22.4-4.61,2.3-.46.63-1.18.96-1.9.96Z"/>
      </g>
      <g>
        <path class="d" d="m724.48,179.57l-17.73-21.68c-1.34-1.51-3.34-2.24-5.33-1.96-2.38.34-4.33,2.07-4.95,4.39-.52,1.95-.03,4.02,1.31,5.53,0,0,9.89,13.81,14.58,18.6,4.39,5.07,8.95,40.78,34.33,34.36,14.86-3.76,18.74-14.2,21.73-15.68,5.4-2.66,10.95-3.01,13.67-7.11,3.17-4.77,5.56-17.8,5.56-17.8.65-1.9.31-4.01-.92-5.61-1.47-1.91-3.93-2.75-6.26-2.15-1.95.5-3.52,1.95-4.17,3.86l-3.39,9.87s-5.02,2.3-7.45.38-4.98-17.56-4.98-17.56l8.1-4.12,11.49,4.96c1.88.72,4,.45,5.63-.72,1.96-1.4,2.89-3.83,2.37-6.18-.44-1.97-1.83-3.58-3.71-4.3,0,0-11.76-5.93-14.71-7.28-2.62-1.2-22.1,7.18-21.68,10.89.71,6.39,1.3,10.74,1.3,10.74l-12.23-38.08c-.57-1.93-2.06-3.45-3.99-4.05-2.3-.71-4.8.02-6.35,1.86-1.3,1.54-1.74,3.63-1.17,5.56l10.82,37.11-17.42-32.41c-.89-1.8-2.63-3.04-4.63-3.29-2.39-.3-4.72.86-5.93,2.93-1.01,1.74-1.08,3.87-.19,5.68l16.31,33.27Z"/>
        <path class="i" d="m740.81,222.61c-6.83,0-12.74-3.01-17.64-8.98-5.1-6.23-8.1-14.5-10.3-20.54-.98-2.71-2.1-5.77-2.76-6.61-4.65-4.78-13.68-17.31-14.71-18.75-1.93-2.26-2.62-5.3-1.86-8.18.93-3.5,3.86-6.1,7.44-6.61,3.01-.43,6,.67,8.02,2.94.03.03.05.06.08.09l1.14,1.39-4.78-9.74c-1.34-2.71-1.23-5.9.29-8.53,1.82-3.13,5.32-4.87,8.92-4.41,2.99.38,5.58,2.21,6.94,4.9l3.79,7.06-2.78-9.52c-.85-2.91-.19-6.03,1.77-8.35,2.34-2.77,6.09-3.87,9.55-2.8,2.89.89,5.12,3.15,5.98,6.04l7.57,23.56c.48-.42.97-.8,1.43-1.13,2.7-1.95,6.97-4.17,11.41-5.93,7.91-3.13,9.78-2.27,10.58-1.9,2.84,1.3,13.36,6.6,14.69,7.27,2.76,1.11,4.78,3.5,5.42,6.41.76,3.41-.52,6.93-3.25,9.06.5.42.96.89,1.36,1.42,1.8,2.34,2.34,5.39,1.45,8.2-.4,2.12-2.69,13.78-5.97,18.73-2.38,3.58-6.19,4.9-9.87,6.18-1.64.57-3.34,1.16-4.96,1.95-.37.25-1.26,1.34-1.97,2.22-3.26,4.02-8.72,10.74-20.39,13.69-2.29.58-4.5.87-6.62.87Zm-38.54-63.71c-.14,0-.28,0-.42.03-1.18.17-2.15,1.02-2.46,2.18-.26.97-.02,1.99.65,2.74.07.08.14.16.2.25.1.14,9.81,13.68,14.28,18.24.04.04.08.09.12.14,1.39,1.6,2.45,4.52,3.91,8.56,2.04,5.63,4.84,13.34,9.29,18.77,4.94,6.03,10.69,7.96,18.1,6.08,9.72-2.46,14.21-7.98,17.18-11.64,1.41-1.74,2.53-3.11,3.96-3.82,1.97-.97,3.94-1.65,5.68-2.25,3.11-1.08,5.56-1.93,6.81-3.81,2.32-3.49,4.47-13.22,5.1-16.68.03-.15.07-.3.11-.44.33-.95.16-1.99-.45-2.78-.73-.95-1.95-1.37-3.1-1.07-.97.25-1.74.97-2.07,1.91l-3.39,9.87c-.27.78-.85,1.42-1.6,1.76-1.12.51-6.88,2.92-10.58,0-1.23-.97-2.62-2.99-4.48-11.21-.95-4.19-1.59-8.08-1.61-8.24-.21-1.3.44-2.58,1.61-3.18l8.1-4.12c.8-.41,1.74-.44,2.57-.08l11.42,4.93c.92.34,1.95.2,2.75-.38.97-.7,1.43-1.9,1.17-3.07-.22-.98-.9-1.78-1.84-2.13-.09-.04-.19-.08-.28-.12-.11-.06-10.9-5.49-14.26-7.07-1.09.09-4.59,1.03-9.4,3.25-4.85,2.23-7.51,4.13-8.3,5.02.67,5.94,1.22,10.01,1.23,10.05.21,1.55-.8,3.01-2.33,3.35-1.53.35-3.07-.53-3.55-2.02l-12.23-38.08s-.02-.05-.02-.07c-.28-.96-1.02-1.71-1.98-2.01-1.14-.35-2.38,0-3.15.92-.65.76-.86,1.8-.58,2.76l10.82,37.11c.43,1.49-.32,3.06-1.76,3.64-1.43.59-3.07,0-3.81-1.37l-17.42-32.41s-.03-.06-.05-.09c-.44-.9-1.3-1.51-2.3-1.63-1.19-.15-2.34.42-2.94,1.46-.5.87-.54,1.92-.1,2.82l16.31,33.28c.68,1.38.21,3.05-1.08,3.87-1.29.83-3,.56-3.97-.63l-17.68-21.62c-.57-.62-1.36-.96-2.19-.96Zm65.24,23.46h0Zm-.08-.12c.47.18,1.77.04,3.1-.37l2.94-8.53c.53-1.54,1.45-2.88,2.65-3.91l-7.42-3.2-4.85,2.47c1.06,5.83,2.6,12.06,3.59,13.55Z"/>
      </g>
      <g>
        <g>
          <path class="d" d="m729.35,302.5l-2.22-8.75h158.63l-2.22,8.75c-1.14,6.6-6.86,11.43-13.56,11.43h-127.06c-6.7,0-12.43-4.83-13.56-11.43Z"/>
          <path class="i" d="m869.97,316.95h-127.06c-8.15,0-15.08-5.8-16.52-13.82l-2.2-8.64c-.23-.9-.03-1.86.54-2.6.57-.74,1.45-1.17,2.39-1.17h158.63c.93,0,1.81.43,2.39,1.17s.77,1.7.54,2.6l-2.2,8.64c-1.44,8.01-8.37,13.82-16.52,13.82Zm-138.96-20.18l1.27,4.98c.02.08.04.15.05.23.89,5.17,5.34,8.92,10.58,8.92h127.06c5.24,0,9.7-3.75,10.58-8.92.01-.08.03-.16.05-.23l1.27-4.98h-150.86Z"/>
        </g>
        <g>
          <path class="d" d="m688.58,300.16l-16.76-84.64c0-7.6,6.16-13.76,13.76-13.76h131.11c7.6,0,13.76,6.16,13.76,13.76l16.76,84.64c0,7.6-6.16,13.76-13.76,13.76h-131.11c-7.6,0-13.76-6.16-13.76-13.76Z"/>
          <path class="i" d="m833.44,316.95h-131.11c-9.15,0-16.62-7.36-16.78-16.47l-16.7-84.36c-.04-.19-.06-.39-.06-.59,0-9.25,7.53-16.78,16.78-16.78h131.11c9.15,0,16.61,7.36,16.78,16.47l16.7,84.36c.04.19.06.39.06.59,0,9.25-7.53,16.78-16.78,16.78Zm-158.6-101.7l16.69,84.33c.04.19.06.39.06.59,0,5.92,4.82,10.74,10.74,10.74h131.11c5.83,0,10.59-4.67,10.74-10.46l-16.69-84.33c-.04-.19-.06-.39-.06-.59,0-5.92-4.82-10.74-10.74-10.74h-131.11c-5.83,0-10.59,4.67-10.74,10.46Z"/>
        </g>
        <circle class="h" cx="759.51" cy="257.84" r="9.77"/>
      </g>
      <g>
        <path class="d" d="m931.59,262.46c-11.73-3.25-24.41-6.37-32.03-5.27-.9.13-3,1.82-5.63,4.27-.99-1.29-6.13,1.57-7.77,2.44l-12.73,6.7c-1.78.94-2.97,2.71-3.17,4.72-.24,2.39.98,4.7,3.08,5.85.41.23.85.4,1.3.52-.53.6-.83.93-.83.93-1.33,1.51-1.82,3.59-1.29,5.53.63,2.32,2.58,4.05,4.96,4.38,1.99.27,4-.47,5.33-1.97l3.27-3.71c-1.24,1.49-1.67,3.5-1.17,5.38.63,2.32,2.58,4.04,4.96,4.37,2,.28,4-.46,5.33-1.97l2.49-2.83s.02,0,.03.01c-1.12,1.48-1.52,3.39-1.03,5.19.63,2.33,2.58,4.05,4.96,4.38,1.99.27,4-.47,5.33-1.97l3.18-3.48c-.88,1.4-1.14,3.12-.71,4.74.63,2.32,2.59,4.04,4.97,4.38,1.99.28,3.99-.46,5.32-1.97l2.97-3.35s2.29-2.61,5.37-6.09c27.07,7.51,44.62-19.77,3.5-31.18Z"/>
        <g>
          <path class="i" d="m890.73,299.69c-.42,0-.85-.03-1.27-.09-3.58-.5-6.51-3.08-7.46-6.57-.76-2.84-.1-5.86,1.76-8.1l.12-.15s.04-.05.07-.08l13.37-15.16c1.1-1.25,3.01-1.37,4.27-.27s1.38,3.01.27,4.27l-1.89,2.15-11.54,13.09c-.62.74-.83,1.74-.58,2.67.31,1.14,1.28,1.99,2.46,2.16.99.14,1.98-.22,2.64-.98l16.55-18.79c1.1-1.25,3.01-1.37,4.27-.27,1.25,1.1,1.37,3.01.27,4.27l-16.55,18.79c-1.73,1.96-4.18,3.06-6.75,3.06Z"/>
          <path class="i" d="m915.27,308.14c-.42,0-.84-.03-1.26-.09-3.58-.5-6.51-3.08-7.46-6.58-.65-2.41-.27-5,1.05-7.11.25-.42.55-.82.9-1.22.01-.02.03-.03.04-.05l12.46-13.5c1.13-1.23,3.04-1.3,4.27-.17,1.23,1.13,1.3,3.04.17,4.27l-12.43,13.47c-.1.12-.18.23-.24.32,0,.02-.02.03-.03.05-.44.7-.57,1.56-.35,2.35.31,1.15,1.28,2,2.47,2.17.99.14,1.97-.23,2.64-.98l2.97-3.36h0s2.29-2.61,5.37-6.09c.77-.87,1.96-1.22,3.07-.91,12.14,3.37,22.13-.96,23.83-7.12,1.44-5.2-3.44-13.1-21.95-18.24-11.16-3.1-23.49-6.13-30.54-5.23-.34.19-1.47.93-4.24,3.52-6.46,6.05-16.26,16.87-19.1,20.04-.46.52-.75.85-.82.92-.66.75-.89,1.77-.63,2.73.31,1.16,1.28,2.01,2.46,2.18.99.14,1.98-.23,2.65-.98l14.88-16.87c1.1-1.25,3.01-1.37,4.27-.27,1.25,1.1,1.37,3.01.27,4.27l-14.88,16.88c-2.01,2.27-5,3.38-8.01,2.97-3.6-.5-6.52-3.09-7.47-6.59-.79-2.93-.07-6.04,1.94-8.32,0,0,.02-.02.02-.03,0,0,.3-.33.81-.91,2.91-3.24,12.85-14.22,19.49-20.44,4.23-3.96,5.92-4.87,7.27-5.06,8.09-1.16,20.77,1.89,33.26,5.35,22.78,6.32,28.45,17.41,26.15,25.68-1.33,4.81-5.41,8.81-11.19,10.97-5.35,2-11.76,2.28-18.23.82-2.44,2.77-4.15,4.7-4.15,4.7l-2.97,3.36c-1.73,1.96-4.18,3.05-6.74,3.05Zm-15.28-47.96s0,0,0,0c0,0,0,0,0,0Zm.36-.09h0,0Z"/>
          <path class="i" d="m902.49,304.47c-.41,0-.83-.03-1.24-.08-3.59-.5-6.52-3.09-7.47-6.59-.79-2.94-.06-6.04,1.95-8.32l13.77-15.64c1.1-1.25,3.01-1.37,4.27-.27,1.25,1.1,1.37,3.01.27,4.27l-13.77,15.64c-.66.75-.91,1.78-.65,2.75.31,1.15,1.28,2,2.46,2.17.99.14,1.98-.23,2.65-.98.01-.01.02-.03.03-.04l16.23-17.77c1.13-1.23,3.04-1.32,4.27-.19,1.23,1.13,1.32,3.04.19,4.27l-16.21,17.75c-1.73,1.94-4.18,3.03-6.75,3.03Z"/>
          <path class="i" d="m873.88,284.62l.78-2.92-.78,2.92c-.68-.18-1.35-.45-1.98-.79-3.17-1.74-4.99-5.2-4.64-8.8.3-3.02,2.08-5.67,4.76-7.09l13.05-6.87c3.71-1.98,8.78-4.69,11.27-1.43,1.01,1.33.76,3.22-.57,4.24-.91.7-2.1.8-3.08.36-.63.16-1.97.67-4.78,2.17l-.34.18-12.73,6.71c-.88.47-1.47,1.34-1.57,2.35-.12,1.19.48,2.33,1.53,2.9.2.11.41.19.61.25l-.75,2.93-.78,2.92Zm17.65-21.32s0,0,0,0c0,0,0,0,0,0Z"/>
        </g>
      </g>
    </g>
    <g>
      <path class="i" d="m759.46,101.86c-.47,0-.94-.11-1.39-.34-1.48-.77-2.06-2.59-1.29-4.08l13.11-25.26c.77-1.48,2.59-2.06,4.08-1.29,1.48.77,2.06,2.59,1.29,4.08l-13.11,25.26c-.54,1.04-1.59,1.63-2.69,1.63Z"/>
      <path class="i" d="m743.94,96.69c-.16,0-.33-.01-.5-.04-1.65-.27-2.76-1.83-2.49-3.48l4.66-28.08c.27-1.65,1.83-2.76,3.48-2.49,1.65.27,2.76,1.83,2.49,3.48l-4.66,28.08c-.25,1.48-1.53,2.53-2.98,2.53Z"/>
      <path class="i" d="m727.57,96.57c-1.47,0-2.76-1.07-2.99-2.57l-4.24-28.14c-.25-1.65.89-3.19,2.54-3.44,1.65-.25,3.19.89,3.44,2.54l4.24,28.14c.25,1.65-.89,3.19-2.54,3.44-.15.02-.3.03-.45.03Z"/>
      <path class="i" d="m711.98,101.51c-1.11,0-2.18-.61-2.71-1.67l-12.73-25.46c-.75-1.49-.14-3.31,1.35-4.06,1.49-.75,3.31-.14,4.06,1.35l12.73,25.46c.75,1.49.14,3.31-1.35,4.06-.43.22-.9.32-1.35.32Z"/>
    </g>
  </g>
  <path class="i" d="m487.41,111.24c-3.74.11-6.69,2.58-7.81,5.6-1.12,3.02-.5,6.82,2.25,9.35l30.37,28.64h-68.23.06c-4.79-.09-8.78,3.82-8.78,8.61s3.99,8.7,8.78,8.6h-.06,68.37l-30.63,28.63c-3.5,3.22-3.71,8.75-.47,12.22,3.24,3.47,8.78,3.63,12.22.36l46.42-43.39c3.6-3.36,3.62-9.18.03-12.55l-46.29-43.64c-1.67-1.62-3.92-2.49-6.25-2.43h0Zm.17,5.74c.78-.02,1.53.27,2.08.81h.02s46.33,43.69,46.33,43.69c1.24,1.17,1.23,3.02-.01,4.19l-46.46,43.41h-.01c-1.18,1.14-2.96,1.08-4.08-.11-1.11-1.19-1.04-2.97.16-4.07h0s41.29-38.59,41.29-38.59h-82.97c-1.64.03-2.92-1.23-2.92-2.87s1.29-2.9,2.92-2.87h82.74l-40.94-38.6h-.01c-1.04-.97-1.15-2.07-.75-3.13.39-1.05,1.19-1.83,2.61-1.87h0Zm0,0"/>
</svg>