<svg xmlns="http://www.w3.org/2000/svg" viewBox="0 0 599.48 102.15">
    <defs>
        <style>.cls-1{fill:#85d3f2;}</style>
    </defs>
    <g id="レイヤー_2" data-name="レイヤー 2">
        <g id="レイヤー_1のコピー" data-name="レイヤー 1のコピー">
            <path class="cls-1"
                  d="M78.66,51.39c-5.22,9.45-13,17.19-21.33,17.19A13.56,13.56,0,0,1,53.64,68c-4.41,4.77-9.72,8-15.12,8a10.57,10.57,0,0,1-9.72-5.58C25,80.19,22.05,87.3,18.9,92.34c-4.41,6.84-9.18,9.81-16.83,9.81L0,94.86a12.89,12.89,0,0,0,12.69-6.21C16.47,82.8,20.52,71.82,28,52.11l.81-2.25,1.08-2.79c2-4.5,2.61-11.79,1.53-14.94l8-1.26a15.08,15.08,0,0,1,.72,6.39c3.42-4.86,7.47-8.73,13.32-8.73,6.21,0,11.07,4.32,11.07,13.5,0,6.21-2.25,13.14-5.76,19.08,5.22-1,10.26-7.2,13.59-13.23ZM57.33,42c0-3.42-.72-7.2-3.87-7.2-4.86,0-13.5,7.83-18,17.91-2.34,5.49-3.06,17,3.06,17C46,69.75,57.33,55,57.33,42Z"/>
            <path class="cls-1"
                  d="M122.13,51.39c-5.31,9.54-13.77,24.66-24.75,24.66-5.67,0-10.08-4.14-10.08-10.53,0-7.29,5-20.16,10.62-28.71a36.26,36.26,0,0,1-11-2.52c-2.16,5.85-6.66,14.13-8.28,17.1l-6.3-3.51c5-9.45,7.47-15,8.19-17.19-.63-.45-1.17-1-1.8-1.53l5.49-5.4c.54,1.44,3,3.69,5.4,4.59,3.42,1.26,9.36,3.33,14.58,1.35l4.86,6.93a12.08,12.08,0,0,0-5.49,4.77c-4.86,7.38-9.09,18.09-9.09,23.94,0,2.25.81,4.41,3.24,4.41,6.48,0,14.67-15.66,18.09-21.87Z"/>
            <path class="cls-1"
                  d="M167.48,51.39c-4.5,8.19-11.88,17.1-21.23,17.1a16.12,16.12,0,0,1-5.13-.81c-4.14,4.95-9.36,8.37-15.21,8.37-7.38,0-13-4.77-13-14.58,0-13.41,11-32.94,24.57-32.94,7.65,0,13,5.13,13,14.67a39,39,0,0,1-5,18c.27,0,.54.09.81.09,6.21,0,12-8,14.93-13.41ZM134.82,64.62a9.56,9.56,0,0,1-1-.81l4.41-6.66,1,.72c2.52-4.86,4.05-10.44,4.05-14.67,0-5.85-2.43-8.37-5.85-8.37-8.64,0-17.37,16.47-17.37,26.64,0,5.67,2.25,8.28,5.85,8.28C129.06,69.75,132.21,67.68,134.82,64.62Z"/>
            <path class="cls-1"
                  d="M193.23,38A8.42,8.42,0,0,1,186.48,41,8.23,8.23,0,0,1,185,41c-4,4.5-4.5,11.16-.18,12.15-1.35,1.71-.81,1-4,4.68-5.76-1.35-6.57-10.8-.45-18-2-.72-4.05-1.53-5.94-2.43C171.36,43.29,168.3,50,165,56.52c-5.4,10.8-10.26,20.25-13.95,25.92-4.41,6.84-9.18,9.81-16.83,9.81l-2.25-8.19c4.59.63,9.72-.45,12.87-5.31,3-4.59,7.65-13.23,13.59-25.2,3.42-6.84,6.57-13.14,9.36-18.54a8,8,0,0,0-2-.27c-3.15,0-4.5,3.6-4.5,5l-4.86-5.94a12.58,12.58,0,0,1,9.27-4.5,15.51,15.51,0,0,1,4.68.81A80.36,80.36,0,0,1,177.84,18c3-3.78,5.67-6.75,9.18-8.46l1.89,9.09c-1.8.45-3.69,1.89-5.49,4.05A58.65,58.65,0,0,0,177,32.4c3.42,1.17,6.75,2.34,9.27,2.34h.45A26.29,26.29,0,0,1,190,33.3Z"/>
            <path class="cls-1"
                  d="M236.24,51.39c-7.11,13-17.9,24.66-32.48,24.66-9.72,0-17.28-5.22-17.28-15,0-12.78,13.77-32.49,27.27-32.49,16.46,0,10.62,28.26-7.11,28.26a21.3,21.3,0,0,1-11.34-3.51,22.4,22.4,0,0,0-1.62,7.47c0,5.94,4.41,9,10.08,9,11.7,0,20.51-11.7,26.18-21.87ZM198.54,47a15,15,0,0,0,8.37,3.51c7.92,0,12.87-15.66,5.76-15.66C208.44,34.83,202.59,40.41,198.54,47Z"/>
            <path class="cls-1"
                  d="M248.75,46.26c2.25,4.23,6.66,7.56,6.66,15.57,0,8.55-7.65,14.31-15.92,14.31s-15.66-5.94-15.66-14.58c0-6.57,4-11.7,6.12-13.68l6.3,3.51c-4.86,5.13-5.22,9.09-5.22,10.17,0,4.77,4.32,8.28,8.55,8.28s9.53-3.51,9.53-8c0-6.12-5.4-9.45-7.28-15.84a23,23,0,0,1-6.66-2.88l3-5.31a22.48,22.48,0,0,0,3.15,2c.81-7.56,7.11-12.15,14.48-12.15,3.69,0,7.29,1.8,7.83,6.48C264.41,40.77,257.39,45.36,248.75,46.26Zm8.73-10.53c0-1.44-.63-2.16-2.16-2.16-3.51,0-7.83,3.51-7.83,7.83C251.81,41.4,257.48,38.61,257.48,35.73Z"/>
            <path class="cls-1"
                  d="M286.1,46.26c2.25,4.23,6.66,7.56,6.66,15.57,0,8.55-7.65,14.31-15.93,14.31s-15.65-5.94-15.65-14.58c0-6.57,4.05-11.7,6.11-13.68l6.3,3.51c-4.85,5.13-5.21,9.09-5.21,10.17,0,4.77,4.31,8.28,8.54,8.28s9.54-3.51,9.54-8c0-6.12-5.4-9.45-7.29-15.84a22.89,22.89,0,0,1-6.65-2.88l3-5.31a23.08,23.08,0,0,0,3.15,2c.81-7.56,7.11-12.15,14.49-12.15,3.69,0,7.29,1.8,7.83,6.48C301.76,40.77,294.74,45.36,286.1,46.26Zm8.73-10.53c0-1.44-.63-2.16-2.16-2.16-3.51,0-7.83,3.51-7.83,7.83C289.16,41.4,294.83,38.61,294.83,35.73Z"/>
            <path class="cls-1"
                  d="M299.7,64.44c0-8.37,5.84-19.26,14.66-34.2l6.93,4.23a35.53,35.53,0,0,0-5.13,6.93c-4.05,7-9.27,17.28-9.27,23,0,2.25.72,5.31,3.42,5.31,6.12,0,14.31-15.75,17.73-21.87l6.3,3.51c-5.31,9.54-13.68,24.66-24.48,24.66C303.38,76.05,299.7,70.83,299.7,64.44Zm18.44-42.57,5.76-11.16L330.38,14l-5.76,11.16Z"/>
            <path class="cls-1"
                  d="M379.7,51.39c-4.5,8.19-11.88,17.1-21.24,17.1a16.12,16.12,0,0,1-5.13-.81c-4.14,4.95-9.36,8.37-15.21,8.37-7.38,0-13.05-4.77-13.05-14.58,0-13.41,11-32.94,24.57-32.94,7.65,0,13.05,5.13,13.05,14.67a39,39,0,0,1-5,18c.27,0,.54.09.81.09,6.21,0,12-8,14.94-13.41ZM347,64.62a9.56,9.56,0,0,1-1-.81l4.41-6.66,1,.72C354,53,355.49,47.43,355.49,43.2c0-5.85-2.43-8.37-5.85-8.37-8.64,0-17.37,16.47-17.37,26.64,0,5.67,2.25,8.28,5.85,8.28C341.27,69.75,344.42,67.68,347,64.62Z"/>
            <path class="cls-1"
                  d="M425.87,51.39c-5.4,9.72-13.68,24.66-24.75,24.66-6,0-10.08-4.32-10.08-10.8,0-9.9,10-19.26,10-25.38,0-2.61-2-5-4-5-5.67,0-17.55,17.37-21.33,26.1A108.69,108.69,0,0,0,371,73.44l-6.84-2a140.67,140.67,0,0,1,4.95-13.41H369l.81-1.8c2.7-6.39,5.4-12.15,6.48-16.65a7.55,7.55,0,0,0-1-5.76l7.83-3a14.61,14.61,0,0,1,.81,5.31c4.41-4.41,9.18-7.65,13.68-7.65,5.4,0,10.62,4.77,10.62,11.34,0,8.91-10,17.91-10,25.56,0,2.61,1.17,4.32,3.33,4.32,6.39,0,14.4-15.48,18-21.87Z"/>
            <path class="cls-1"
                  d="M472,51.39c-5.4,9.72-13.68,24.66-24.75,24.66-6,0-10.08-4.32-10.08-10.8,0-9.9,10-19.26,10-25.38,0-2.61-2-5-4.05-5-5.67,0-17.55,17.37-21.33,26.1a108.69,108.69,0,0,0-4.68,12.51l-6.84-2a140.67,140.67,0,0,1,4.95-13.41h-.09l.81-1.8c2.7-6.39,5.4-12.15,6.48-16.65a7.55,7.55,0,0,0-1-5.76l7.83-3a14.61,14.61,0,0,1,.81,5.31c4.41-4.41,9.18-7.65,13.68-7.65,5.4,0,10.62,4.77,10.62,11.34,0,8.91-10,17.91-10,25.56,0,2.61,1.17,4.32,3.33,4.32,6.39,0,14.4-15.48,18-21.87Z"/>
            <path class="cls-1"
                  d="M511.91,51.39c-7.11,13-17.91,24.66-32.49,24.66-9.72,0-17.28-5.22-17.28-15,0-12.78,13.77-32.49,27.27-32.49,16.47,0,10.62,28.26-7.11,28.26A21.3,21.3,0,0,1,471,53.28a22.4,22.4,0,0,0-1.62,7.47c0,5.94,4.41,9,10.08,9,11.7,0,20.52-11.7,26.19-21.87ZM474.2,47a15,15,0,0,0,8.37,3.51c7.92,0,12.87-15.66,5.76-15.66C484.1,34.83,478.25,40.41,474.2,47Z"/>
            <path class="cls-1"
                  d="M501.11,64.44c0-11,12.6-34.29,21.78-51.93A43.7,43.7,0,0,0,527.3,0l7.47,3.33c0,1.89-2.07,5.76-3.69,9-8.82,17.28-22.77,42.66-22.77,52.2,0,2.25.72,5.22,3.33,5.22,6.21,0,14.49-15.84,17.82-21.87l6.3,3.51c-5.22,9.54-13.68,24.66-24.39,24.66C504.89,76.05,501.11,70.92,501.11,64.44Z"/>
            <path class="cls-1"
                  d="M525,64.44c0-11,12.6-34.29,21.78-51.93A43.7,43.7,0,0,0,551.15,0l7.47,3.33c0,1.89-2.07,5.76-3.69,9-8.82,17.28-22.77,42.66-22.77,52.2,0,2.25.72,5.22,3.33,5.22,6.21,0,14.49-15.84,17.82-21.87l6.3,3.51c-5.22,9.54-13.68,24.66-24.39,24.66C528.74,76.05,525,70.92,525,64.44Z"/>
            <path class="cls-1"
                  d="M599.48,51.39c-7.11,13-17.91,24.66-32.49,24.66-9.72,0-17.28-5.22-17.28-15,0-12.78,13.77-32.49,27.27-32.49,16.47,0,10.62,28.26-7.11,28.26a21.3,21.3,0,0,1-11.34-3.51,22.4,22.4,0,0,0-1.62,7.47c0,5.94,4.41,9,10.08,9,11.7,0,20.52-11.7,26.19-21.87ZM561.77,47a15,15,0,0,0,8.37,3.51c7.92,0,12.87-15.66,5.76-15.66C571.67,34.83,565.82,40.41,561.77,47Z"/>
        </g>
    </g>
</svg>