<svg xmlns="http://www.w3.org/2000/svg" viewBox="0 0 576.95 115.24">
    <defs>
        <style>.cls-1{fill:#117dbf;}</style>
    </defs>
    <g id="レイヤー_2" data-name="レイヤー 2">
        <g id="レイヤー_1のコピー" data-name="レイヤー 1のコピー">
            <path class="cls-1"
                  d="M54.22,71a23.56,23.56,0,0,1,3.2,11.64c0,15.71-15.52,29.48-32,29.48C9.89,112.12,0,101.16,0,86.23,0,70.61,10.48,57.9,25.61,55.87A18.19,18.19,0,0,1,23.86,48c0-9.9,7.76-19.11,17.37-19.11,8.14,0,13.58,6.69,13.58,14.35a17.2,17.2,0,0,1-5.05,12.13L44.33,50a10.1,10.1,0,0,0,2.72-6.7c0-3.39-1.94-7.56-5.82-7.56-5.24,0-9.61,6.79-9.61,12.32,0,3.3,1.65,7.27,4.37,8.05h.29a1.59,1.59,0,0,0,.68.1v7.76c-.68,0-1.26-.1-1.85-.1A25.85,25.85,0,0,0,30,63.33c-13.38,0-22.21,10.19-22.21,22.9,0,10.57,6.4,19.1,17.65,19.1,12.42,0,24.25-11.15,24.25-22.69a16.12,16.12,0,0,0-2.32-8l-.29.19c-10.58,5.43-17.17,9-17.17,19.69H22.12c0-14.16,8.34-20,21.53-26.67,8.34-4.18,13.77-7,13.77-13.68h7.76C65.18,62.17,60.82,67,54.22,71Z"/>
            <path class="cls-1"
                  d="M157.71,43.28c2,9.11,5.36,18.5,5.36,29.22,0,22.91-15.68,42.74-37.52,42.74-17,0-28-12.59-28-27.74,0-14.74,10-27.74,25.46-27.74,5.49,0,9.91,1.61,13.53,5.1l-5.63,10c-1.2-2.15-4.15-5.76-8.71-5.76-8.57,0-13.93,9.64-13.93,18.35,0,9.38,6.29,18.36,17.82,18.36,15.54,0,26.26-16.75,26.26-33.36,0-9.38-3.62-19.57-5.63-30.29a37.8,37.8,0,0,1-14.47-6.57l7-9.78a56.84,56.84,0,0,0,6.3,4.29V30c0-19.84,11.25-30,23.31-30,9.79,0,15.82,6.43,15.82,15.81C184.65,28,172.72,41.27,157.71,43.28Zm16.22-27.6c0-3.62-1.61-6.3-5.63-6.3-8.44,0-12.06,11.52-12.06,21.84a20.48,20.48,0,0,0,.13,2.82C166.56,33.63,173.93,23.18,173.93,15.68Z"/>
            <path class="cls-1"
                  d="M249.23,69c-10.58,19.3-26.66,36.72-48.37,36.72-14.47,0-25.73-7.77-25.73-22.38,0-19,20.5-48.38,40.6-48.38,24.53,0,15.82,42.08-10.58,42.08a31.8,31.8,0,0,1-16.89-5.22A33.44,33.44,0,0,0,185.85,83c0,8.84,6.57,13.4,15,13.4,17.42,0,30.55-17.42,39-32.56Zm-56.14-6.56c2.54,2.41,8.44,5.22,12.46,5.22,11.79,0,19.16-23.32,8.58-23.32C207.83,44.35,199.12,52.66,193.09,62.45Z"/>
            <path class="cls-1"
                  d="M314,69c-7.91,14.21-20.51,36.72-36.85,36.72-8.45,0-15-6.17-15-15.68,0-10.85,7.37-30,15.81-42.75a53.9,53.9,0,0,1-16.35-3.75c-3.22,8.71-9.92,21-12.33,25.46l-9.38-5.22c7.51-14.08,11.12-22.38,12.2-25.6-.94-.67-1.75-1.47-2.68-2.28l8.17-8c.8,2.15,4.42,5.5,8,6.84,5.09,1.87,13.94,5,21.71,2L294.53,47c-2.15.67-5.63,3.21-8.18,7.1-7.23,11-13.53,26.93-13.53,35.64,0,3.35,1.2,6.57,4.82,6.57,9.65,0,21.84-23.32,26.94-32.56Z"/>
            <path class="cls-1"
                  d="M385.11,69c-9.92,18.09-21,29.48-35.11,29.48-5.36,0-11.12-1.61-17.42-5.22-2.41,2.81-.4.26-9.38,12.46,0,0-25.19.8-25.19-18.9,0-14.74,13.53-36.45,20.37-49l10.85,5.89c-2.55,2-5.36,6-8,10.86C315.56,65,308.86,78.26,308.86,85.9a9.94,9.94,0,0,0,8.71,10.31c7-9.51,26.4-30.68,34.84-46.9a24.85,24.85,0,0,0,2.95-10.58l11.39,2.81C364.2,54.94,350.4,72.09,339.68,85c4.69,2.41,8.58,3.62,12.06,3.62,9.65,0,15.41-9.38,24-24.79Z"/>
            <path class="cls-1"
                  d="M368.36,88.44c0-12.46,8.71-28.68,21.84-50.92l10.32,6.3a52.5,52.5,0,0,0-7.64,10.32c-6,10.45-13.8,25.73-13.8,34.3,0,3.35,1.07,7.91,5.09,7.91,9.11,0,21.3-23.45,26.4-32.56L420,69c-7.91,14.21-20.37,36.72-36.45,36.72C373.85,105.73,368.36,98,368.36,88.44Zm27.47-63.38L404.4,8.44l9.65,4.83-8.58,16.61Z"/>
            <path class="cls-1"
                  d="M405.34,83.35c0-19,20.5-48.38,39.53-48.38,9.92,0,15.95,5.9,15.95,13.67a18.72,18.72,0,0,1-6.7,14.48l-9-6.57c2.68-1.61,4.82-4.56,4.82-7.1,0-3-2.28-5.1-5.76-5.1-10.72,0-28,24.26-27.74,38.6-.27,8.44,5.63,13.4,14.21,13.4,15.94,0,28.54-17.69,36.71-32.56L476.76,69c-13.4,24.52-29.34,36.72-47.17,36.72C416.46,105.73,405.34,97.69,405.34,83.35Z"/>
            <path class="cls-1"
                  d="M536.12,69c-10.58,19.3-26.66,36.72-48.37,36.72C473.28,105.73,462,98,462,83.35c0-19,20.5-48.38,40.6-48.38,24.53,0,15.82,42.08-10.58,42.08a31.78,31.78,0,0,1-16.89-5.22A33.44,33.44,0,0,0,472.74,83c0,8.84,6.57,13.4,15,13.4,17.42,0,30.55-17.42,39-32.56ZM480,62.45c2.54,2.41,8.44,5.22,12.46,5.22,11.79,0,19.16-23.32,8.58-23.32C494.72,44.35,486,52.66,480,62.45Z"/>
            <path class="cls-1"
                  d="M554.75,61.37c3.35,6.3,9.91,11.26,9.91,23.19,0,12.73-11.39,21.3-23.72,21.3S517.63,97,517.63,84.15c0-9.78,6-17.42,9.11-20.36L536.12,69c-7.24,7.64-7.77,13.54-7.77,15.14,0,7.11,6.43,12.33,12.73,12.33s14.2-5.22,14.2-11.92c0-9.12-8-14.07-10.85-23.59a34.27,34.27,0,0,1-9.92-4.29l4.43-7.9a34.25,34.25,0,0,0,4.68,2.94c1.21-11.25,10.59-18.09,21.58-18.09,5.49,0,10.85,2.68,11.66,9.65C578.06,53.2,567.61,60,554.75,61.37Zm13-15.68c0-2.14-.94-3.21-3.22-3.21-5.23,0-11.66,5.23-11.66,11.66C559.3,54.14,567.75,50,567.75,45.69Z"/>
        </g>
    </g>
</svg>