<svg xmlns="http://www.w3.org/2000/svg" viewBox="0 0 341.12 132.26">
    <defs>
        <style>.cls-1{fill:#117dbf;}</style>
    </defs>
    <g id="レイヤー_2" data-name="レイヤー 2">
        <g id="レイヤー_1のコピー" data-name="レイヤー 1のコピー">
            <path class="cls-1"
                  d="M120.33,11.93c-10.58,9.11-20.5,8-24.52,8-8,0-16.08-2.15-24.65-4.29-5.1,7.9-14.34,28.94-16.08,32.83C38.19,86,23.45,117.65,7.1,117.65L1.88,105.59a20.12,20.12,0,0,0,16.48-8.84C29.21,80.94,41.94,51.46,45.29,44.09,51.59,30,56.15,20,60,13.13a87.55,87.55,0,0,0-14.74-1.47c-11.52,0-20.1,3.21-26.26,7.77-4.29,3.22-5.76,11-6.3,14.47L0,26.4C5.36,14.74,19,2.28,43,2.28c22.25,0,39.27,8.31,52.67,8.31,6.3,0,12.06-5.5,15.41-10.59Z"/>
            <path class="cls-1"
                  d="M157.72,71.42c-7.77,14.21-20.37,36.72-36.58,36.72-9.12,0-14.74-7.24-15-16.48-6.44,8.57-14.74,16.48-24.26,16.48C71.69,108.14,67,98.89,67,89c0-20,17.28-51.59,38.32-51.59,9,0,14.34,6.16,17.42,11.52,1.61-2.95,3.35-5.9,5.23-9l11.12,6.84a48.06,48.06,0,0,0-9.91,12.32C123.41,69.41,116.85,83,116.85,91c0,3.35,1.07,7.77,5.09,7.77,9.11,0,21.44-23.58,26.4-32.56ZM113,67.14l4.42-8.58-2.14.8c-1.07-7.23-4-12.59-11.12-12.59-12.06,0-26.27,26.53-26.27,42.48,0,6.56,2.28,9.51,5.09,9.51C89,98.76,101.84,85.36,113,67.14Z"/>
            <path class="cls-1"
                  d="M222.44,71.42c-7.91,14.21-20.5,36.72-36.85,36.72-8.44,0-15-6.16-15-15.68,0-10.85,7.37-30,15.81-42.75A53.74,53.74,0,0,1,170,46c-3.21,8.71-9.91,21-12.32,25.46l-9.38-5.22c7.5-14.07,11.12-22.38,12.19-25.6-.94-.67-1.74-1.47-2.68-2.27l8.17-8c.81,2.15,4.43,5.5,8,6.84,5.1,1.88,13.94,5,21.71,2L203,49.45c-2.15.67-5.63,3.21-8.18,7.1-7.23,11-13.53,26.93-13.53,35.64,0,3.35,1.21,6.57,4.82,6.57,9.65,0,21.85-23.32,26.94-32.56Z"/>
            <path class="cls-1"
                  d="M205.69,90.85c0-12.46,8.71-28.67,21.84-50.92l10.32,6.3a52.88,52.88,0,0,0-7.64,10.32c-6,10.45-13.8,25.73-13.8,34.3,0,3.35,1.07,7.91,5.09,7.91,9.11,0,21.3-23.45,26.4-32.56l9.38,5.22c-7.91,14.21-20.37,36.72-36.45,36.72C211.18,108.14,205.69,100.37,205.69,90.85Zm27.47-63.38,8.57-16.62,9.65,4.83L242.8,32.29Z"/>
            <path class="cls-1"
                  d="M295.6,51.46A12.53,12.53,0,0,1,285.55,56a12.68,12.68,0,0,1-2.28-.13c-6,6.7-6.7,16.62-.27,18.09-2,2.55-1.2,1.47-5.89,7-8.58-2-9.78-16.08-.67-26.8-2.95-1.07-6-2.28-8.85-3.62-4.55,8.84-9.11,18.76-14.07,28.54-8,16.08-15.27,30.15-20.77,38.59-6.56,10.19-13.67,14.61-25.06,14.61l-3.35-12.19c6.84.93,14.48-.67,19.17-7.91,4.42-6.83,11.39-19.7,20.23-37.52,5.09-10.18,9.78-19.56,13.94-27.6a11.88,11.88,0,0,0-3-.41c-4.69,0-6.7,5.36-6.7,7.51l-7.24-8.85a18.77,18.77,0,0,1,13.81-6.7,23.18,23.18,0,0,1,7,1.21c4.16-7.91,7.91-14.07,11.13-18.09,4.42-5.63,8.44-10,13.66-12.6l2.82,13.54c-2.68.67-5.5,2.81-8.18,6a87.18,87.18,0,0,0-9.51,14.47c5.09,1.74,10,3.48,13.8,3.48H286a40.77,40.77,0,0,1,4.83-2.14Z"/>
            <path class="cls-1"
                  d="M318.92,63.79c3.35,6.29,9.91,11.25,9.91,23.18,0,12.73-11.39,21.3-23.72,21.3s-23.31-8.84-23.31-21.7c0-9.79,6-17.42,9.11-20.37l9.38,5.22c-7.24,7.64-7.77,13.54-7.77,15.15,0,7.1,6.43,12.32,12.73,12.32s14.2-5.22,14.2-11.92c0-9.11-8-14.07-10.85-23.59a34,34,0,0,1-9.92-4.29l4.42-7.9a36.09,36.09,0,0,0,4.69,3c1.21-11.26,10.59-18.09,21.58-18.09,5.49,0,10.85,2.68,11.66,9.65C342.23,55.61,331.78,62.45,318.92,63.79Zm13-15.68c0-2.15-.93-3.22-3.21-3.22-5.23,0-11.66,5.23-11.66,11.66C323.47,56.55,331.91,52.39,331.91,48.11Z"/>
        </g>
    </g>
</svg>