<svg id="a" data-name="レイヤー 1" xmlns="http://www.w3.org/2000/svg" viewBox="0 0 495.27 472.54"><defs><style>.f{fill:#117dbf}</style></defs><g id="b" data-name="レイヤー 2"><g id="c" data-name="レイヤー 1のコピー"><path class="f" d="M274.49 85.52c-4.61 13.18-13.75 17.18-17.23 19.19-6.93 4-15 6.18-23.49 8.61-.47 9.39 2.05 32.23 2.49 36.47 4.14 40.95 7.2 75.73-6.96 83.9l-10.55-7.83c5.7-3.36 9.38-9.3 9.85-15.9 1.49-19.12-2.22-51.01-3.01-59.07-1.59-15.35-2.64-26.29-2.74-34.17a88.02 88.02 0 0 0-13.5 6.1c-9.98 5.76-15.8 12.83-18.86 19.86-2.11 4.93.51 12.41 1.78 15.68l-14.75-.15c-1.19-12.78 4.39-30.39 25.18-42.39 19.27-11.12 38.16-12.44 49.77-19.14 5.46-3.15 7.69-10.79 8.05-16.88l13.98 5.71Z"/><path class="f" d="M336.62 118.34c.38 16.19.72 41.99-13.32 50.09-7.9 4.56-16.39 1.1-21.23-6.77-1.29 10.64-4.53 21.64-12.77 26.4-8.82 5.09-17.51-.57-22.46-9.14-10-17.32-10.83-53.32 7.39-63.84 7.79-4.5 15.5-1.84 20.85 1.27-.08-3.36-.05-6.78.03-10.41l13.05.36a48.201 48.201 0 0 0-2.42 15.62c.16 11.82 1.28 26.87 5.28 33.8 1.67 2.9 4.81 6.19 8.29 4.18 7.89-4.56 6.78-31.14 6.58-41.4l10.73-.18Zm-40.87 18.65-.46-9.64-1.45 1.76c-4.54-5.73-9.76-8.9-15.93-5.34-10.44 6.03-9.49 36.11-1.51 49.92 3.28 5.68 6.73 7.1 9.16 5.69 5.21-3.01 9.63-21.03 10.19-42.39Z"/><path class="f" d="M392.67 85.98c.25 16.26.61 42.05-13.55 50.23-7.31 4.22-16.07 2.17-20.83-6.08-5.42-9.4-8.62-29.67-7.68-44.93a53.936 53.936 0 0 1-16.06 4.99c1.58 9.15 1.92 23.14 2.06 28.21l-10.73.17c-.54-15.93-1.56-24.94-2.24-28.27-1.15-.11-2.24-.4-3.46-.63l3.08-11.01c1.78 1.46 6.59 2.55 10.35 1.92 5.36-.92 14.57-2.64 19.8-9.12l11.45 5.21c-1.53 1.66-3.27 5.59-3.53 10.24-.76 13.14 1.75 30.09 6.1 37.63 1.67 2.9 4.33 5.08 7.46 3.28 8.36-4.82 7.26-31.12 7.05-41.67l10.74-.17Z"/><path class="f" d="M387.88 111.19c-6.23-10.79-6.79-29.18-6.55-55.02l12.09.3c-1 4.18-1.49 8.46-1.46 12.76.03 12.05.91 29.18 5.2 36.6 1.67 2.9 4.88 6.32 8.36 4.31 7.89-4.56 6.72-30.96 6.58-41.4l10.73-.17c.25 16.26.72 41.99-13.21 50.03-8.36 4.83-17 .84-21.76-7.4Zm-7.9-68.62-.89-18.68 10.77-.64.87 18.67-10.76.65Z"/><path class="f" d="M446.05 32.12c-.64 3.82-3.02 7.13-6.43 8.96a13 13 0 0 1-2.04 1.03c-1.85 8.8 2.51 17.74 8.81 15.8-.46 3.21-.3 1.87-1.6 9.01-8.43 2.56-16.51-9.04-13.98-22.87-3.09.55-6.34 1.03-9.47 1.29.48 9.93 1.49 20.8 2.09 31.75 1.11 17.93 1.85 33.75 1.31 43.8-.59 12.1-4.53 19.49-14.4 25.18l-9-8.88c6.39-2.61 12.21-7.82 12.65-16.44.41-8.12.01-22.76-1.24-42.61-.68-11.36-1.31-21.83-1.73-30.87-.98.26-1.92.65-2.8 1.14-4.06 2.35-3.12 7.99-2.05 9.85l-10.7-4.04c.93-5.27 4.06-9.89 8.61-12.71 2.08-1.16 4.33-1.98 6.67-2.45-.35-8.93-.18-16.14.59-21.23 1.01-7.09 2.31-12.88 5.53-17.74l9.21 10.32c-1.99 1.92-3.36 5.18-4.08 9.29a86.996 86.996 0 0 0-1 17.29c5.28-1.04 10.4-1.99 13.69-3.89l.63-.37c.94-1.49 1.98-2.91 3.11-4.27l7.62 3.66ZM472.41 31.14c6.05 3.77 14.21 4.79 20.17 15.12 6.36 11.02.79 24.14-9.89 30.31s-24.61 4-31.04-7.14c-4.9-8.48-3.51-18.09-2.3-22.2l10.73-.17c-2.45 10.24.04 15.61.85 17.01 3.55 6.15 11.73 7.45 17.18 4.3s9.69-11.62 6.34-17.42c-4.56-7.89-13.96-8.18-21.19-15-3.49.98-7.11 1.4-10.74 1.24l-.12-9.05c1.84.23 3.7.31 5.56.25-4.58-10.36.13-20.96 9.64-26.46 4.75-2.74 10.74-3.1 14.92 2.53 5.97 7.94.34 19.09-10.13 26.68Zm3.42-20.08c-1.08-1.86-2.42-2.32-4.39-1.18-4.53 2.62-7.48 10.36-4.27 15.93 5.56-3.21 10.79-11.03 8.65-14.74Z"/></g></g><g id="d" data-name="レイヤー 2"><g id="e" data-name="レイヤー 1のコピー"><path class="f" d="M43.75 418.72c3.55 2.03 6.51 4.96 8.59 8.48 7.85 13.61 1.3 33.29-12.97 41.53-13.45 7.77-27.49 3.22-34.96-9.71-7.81-13.53-5.09-29.77 7-39.1-2.24-1.55-4.1-3.58-5.45-5.94-4.95-8.57-2.83-20.43 5.49-25.23 7.05-4.07 15.11-1 18.94 5.64 2.27 3.95 2.87 8.63 1.69 13.03l-7.39-1.94c.56-2.43.21-4.98-.99-7.16-1.69-2.94-5.46-5.58-8.82-3.64-4.54 2.62-4.93 10.69-2.16 15.47 1.65 2.86 5.06 5.47 7.81 4.79l.25-.15c.23-.04.45-.12.64-.25l3.88 6.72c-.59.34-1.14.54-1.65.84-1.63.54-3.2 1.24-4.7 2.09-11.59 6.69-14.14 19.93-7.78 30.94 5.28 9.15 15.09 13.34 24.84 7.72 10.76-6.21 15.43-21.78 9.66-31.78a16.078 16.078 0 0 0-6.01-5.77l-.16.31c-6.45 9.99-10.37 16.38-5.02 25.64l-6.75 3.9c-7.08-12.26-2.78-21.49 5.31-33.86 5.13-7.79 8.43-12.95 5.09-18.73l6.72-3.88c4 6.93 2.64 13.29-1.08 20.06ZM119.51 342.97c6.29 6.89 13.89 13.34 19.25 22.63 11.46 19.84 7.79 44.85-11.12 55.77-14.72 8.5-30.54 3.1-38.12-10.02s-5.21-29.02 8.18-36.75c4.75-2.74 9.39-3.56 14.27-2.35l.12 11.48c-2.11-1.26-6.47-2.91-10.42-.63-7.42 4.28-7.24 15.31-2.89 22.86 4.69 8.12 14.63 12.76 24.61 6.99 13.46-7.77 14.37-27.64 6.06-42.02-4.69-8.12-12.92-15.14-20.02-23.42a37.826 37.826 0 0 1-15.82 1.55l1.17-11.97c2.52.36 5.06.55 7.6.57l-.05-.09c-9.92-17.18-5.26-31.61 5.19-37.64 8.48-4.89 16.92-2.34 21.61 5.78 6.07 10.57 2.37 28.03-9.62 37.27Zm.25-32.01c-1.81-3.14-4.54-4.65-8.03-2.64-7.31 4.22-4.68 16.01.48 24.94.45.83.96 1.62 1.52 2.38 8.62-5.45 9.78-18.19 6.03-24.68ZM211.63 319.48c.49 22-4.73 45.13-23.53 55.99-12.53 7.24-26.17 6.14-33.47-6.52-9.5-16.45-6.44-52.15 10.97-62.2 21.24-12.26 34.74 28.53 11.88 41.73a31.795 31.795 0 0 1-17.24 3.92c.53 3.8 1.72 7.49 3.5 10.89 4.42 7.66 12.39 8.32 19.69 4.1 15.09-8.71 17.75-30.36 17.49-47.7l10.7-.22Zm-51.9 22.39c3.4.82 9.92.3 13.4-1.71 10.21-5.89 4.93-29.78-4.23-24.49-5.45 3.16-8.84 14.71-9.17 26.2Z"/><path class="f" d="M267.72 287.1c.25 16.26.6 42.06-13.55 50.23-7.32 4.23-16.08 2.16-20.83-6.08-5.42-9.4-8.62-29.67-7.68-44.93a54.02 54.02 0 0 1-16.03 4.93c1.57 9.15 1.91 23.15 2.05 28.21l-10.73.17c-.54-15.95-1.56-24.94-2.23-28.27-1.15-.11-2.25-.4-3.46-.63l3.08-11.01c1.77 1.46 6.58 2.55 10.35 1.92 5.34-.93 14.57-2.64 19.8-9.12l11.39 5.27c-1.53 1.66-3.27 5.59-3.53 10.24-.76 13.14 1.75 30.09 6.1 37.63 1.67 2.9 4.32 5.09 7.46 3.28 8.36-4.82 7.25-31.12 7.05-41.67l10.78-.16Z"/><path class="f" d="M329.31 251.54c.45 20.63-3.45 36.03-15.67 43.09-4.64 2.68-10.44 4.17-17.7 4.19-.68 3.64-.22.43-1.89 15.48 0 0-21.42 13.29-31.27-3.77-7.37-12.77-6.51-38.33-6.86-52.62l12.34-.32c-1.21 3.01-1.64 7.88-1.5 13.41.3 11.87 1.13 26.7 4.95 33.32 2.39 4.6 7.92 6.6 12.7 4.57 1.31-11.74 7.52-39.77 6.72-58.04-.11-3.71-1.04-7.34-2.74-10.64l11.27-3.26c4.49 12.88 1.12 34.63-1.71 51.17 5.27-.26 9.24-1.15 12.25-2.89 8.36-4.82 8.66-15.83 8.39-33.47l10.7-.21Z"/><path class="f" d="M324.52 276.76c-6.23-10.79-6.8-29.19-6.55-55.02l12.09.3a52.716 52.716 0 0 0-1.46 12.76c.03 12.05.91 29.18 5.2 36.6 1.67 2.9 4.88 6.32 8.36 4.31 7.89-4.55 6.72-30.96 6.58-41.4l10.77-.2c.25 16.26.72 41.99-13.21 50.03-8.4 4.86-17.01.91-21.79-7.37Zm-7.9-68.62-.89-18.68 10.77-.64.87 18.67-10.76.65Z"/><path class="f" d="M354 253.86c-9.5-16.45-6.44-52.15 10.04-61.66 8.59-4.96 16.76-2.87 20.65 3.86a18.721 18.721 0 0 1 1.44 15.89l-11.08-1.19c1.52-2.73 1.89-6.36.62-8.56-1.5-2.6-4.52-3.28-7.54-1.54-9.28 5.36-12.12 35.01-4.72 47.3 3.99 7.44 11.58 8.79 19.01 4.5 13.8-7.97 15.87-29.59 15.51-46.55l10.75-.19c.66 27.93-7.05 46.47-22.49 55.39-11.37 6.57-25.02 5.17-32.19-7.25Z"/><path class="f" d="M460.08 176.04c.49 22-4.73 45.13-23.53 55.99-12.53 7.24-26.16 6.19-33.49-6.5-9.5-16.45-6.44-52.15 10.97-62.2 21.24-12.26 34.74 28.53 11.88 41.73a31.795 31.795 0 0 1-17.24 3.92c.54 3.8 1.73 7.47 3.52 10.87 4.42 7.66 12.39 8.32 19.69 4.1 15.09-8.71 17.75-30.36 17.49-47.7l10.7-.22Zm-51.88 22.39c3.4.82 9.92.3 13.4-1.71 10.21-5.9 4.93-29.78-4.23-24.49-5.47 3.16-8.87 14.72-9.17 26.2Z"/><path class="f" d="M472.4 160.12c6.05 3.78 14.21 4.8 20.18 15.13 6.36 11.02.79 24.14-9.89 30.31-10.68 6.16-24.62 3.98-31.04-7.15-4.89-8.47-3.51-18.09-2.29-22.19l10.73-.18c-2.45 10.24.04 15.61.84 17 3.56 6.16 11.73 7.46 17.19 4.31 5.46-3.15 9.69-11.62 6.34-17.42-4.56-7.9-13.96-8.18-21.19-15-3.49.98-7.11 1.4-10.74 1.24l-.11-9.06c1.83.22 3.68.29 5.52.21-4.58-10.35.13-20.96 9.64-26.46 4.75-2.74 10.74-3.1 14.92 2.53 6 8 .35 19.11-10.1 26.73Zm3.42-20.08c-1.07-1.85-2.42-2.31-4.39-1.17-4.53 2.61-7.48 10.36-4.27 15.93 5.57-3.21 10.82-11.03 8.66-14.76Z"/></g></g></svg>