<svg xmlns="http://www.w3.org/2000/svg" width="101.11" height="72.479" viewBox="0 0 101.11 72.479">
  <g id="teaching" transform="translate(0 -72.491)">
    <path id="path_1" data-name="path 1" d="M100.748,135.592l-9-11.321V76.662a4.171,4.171,0,0,0-4.171-4.171H13.537a4.171,4.171,0,0,0-4.17,4.171v47.61l-9,11.321A1.668,1.668,0,0,0,0,136.632v5.011a3.326,3.326,0,0,0,3.327,3.327H97.783a3.326,3.326,0,0,0,3.327-3.327v-5.011A1.663,1.663,0,0,0,100.748,135.592Zm-85.5-57.216H85.859v40.011H15.251Zm44.807,62.637H41.052v-5.031H60.058Z" fill="#117dbf"/>
    <path id="path_2" data-name="path 2" d="M157.8,167.431a.106.106,0,0,0-.061.019l-11.36,7.754a.113.113,0,0,0-.048.092v2.085a.106.106,0,0,0,.048.09l11.36,7.754a.1.1,0,0,0,.061.021.106.106,0,0,0,.05-.014.111.111,0,0,0,.059-.1v-3.322a.112.112,0,0,0-.048-.09l-7.887-5.385,7.887-5.383a.113.113,0,0,0,.048-.092v-3.321a.108.108,0,0,0-.059-.1A.09.09,0,0,0,157.8,167.431Z" transform="translate(-117.43 -76.191)" fill="#117dbf"/>
    <path id="path_3" data-name="path 3" d="M305.376,167.45a.11.11,0,0,0-.062-.019.092.092,0,0,0-.051.014.109.109,0,0,0-.058.1v3.322a.11.11,0,0,0,.048.09l7.887,5.383-7.887,5.385a.113.113,0,0,0-.048.092v3.321a.112.112,0,0,0,.058.1.11.11,0,0,0,.051.014.1.1,0,0,0,.062-.021l11.359-7.754a.1.1,0,0,0,.049-.09V175.3a.109.109,0,0,0-.049-.092Z" transform="translate(-244.933 -76.191)" fill="#117dbf"/>
    <path id="path_4" data-name="path 4" d="M238.727,158.224h-3.175a.107.107,0,0,0-.1.073l-7.211,20.909a.109.109,0,0,0,.015.1.114.114,0,0,0,.09.048h3.175a.109.109,0,0,0,.1-.075l7.21-20.905a.114.114,0,0,0-.014-.1A.112.112,0,0,0,238.727,158.224Z" transform="translate(-183.161 -68.802)" fill="#117dbf"/>
  </g>
</svg>
