<svg id="a" data-name="レイヤー 1" xmlns="http://www.w3.org/2000/svg" viewBox="0 0 437.51 413.3"><defs><style>.h{fill:#85d3f2}</style></defs><g id="b" data-name="レイヤー 2"><g id="c" data-name="レイヤー 1のコピー"><path class="h" d="M97.72 213.63c.31 13.85-2.34 24.21-10.52 28.94a23.407 23.407 0 0 1-11.87 2.84c-.46 2.45-.14.29-1.27 10.4 0 0-14.38 8.93-21-2.53-4.95-8.57-4.37-25.75-4.62-35.37l8.31-.18c-.81 2.02-1.12 5.26-1.03 9.01.21 7.93.76 17.88 3.31 22.3 1.59 3.14 5.33 4.51 8.57 3.14.86-7.87 5.05-26.71 4.51-38.98-.07-2.49-.69-4.94-1.82-7.16l7.57-2.19c3.02 8.65.73 23.27-1.16 34.34 2.86.01 5.68-.66 8.23-1.95 5.61-3.24 5.81-10.63 5.63-22.47l7.17-.14Z"/><path class="h" d="M137 190.95c.2 9.34-1.74 20.75-9.84 25.43a16.2 16.2 0 0 1-4.83 1.89c-1.09 6.4-3.92 11.93-8.99 14.85-6.39 3.69-13.69 2.39-18.59-6.1-6.7-11.61-6.94-34.03 4.81-40.81 6.63-3.83 13.82-2.06 18.59 6.2 3 5.56 4.6 11.77 4.67 18.09.23-.13.51-.19.75-.33 5.38-3.1 6.39-12.93 6.23-19.08l7.2-.14Zm-21.68 27.79c-.43-.04-.85-.11-1.27-.2l.49-7.97 1.23.12c-.25-5.47-1.71-11.07-3.83-14.73-2.93-5.07-6.29-6.03-9.25-4.32-7.48 4.32-6.81 22.95-1.72 31.76 2.84 4.91 6.09 6.05 9.21 4.25 2.71-1.61 4.44-4.92 5.15-8.9Z"/><path class="h" d="M133.78 207.88c-4.18-7.25-4.56-19.6-4.4-36.95l8.12.2c-.67 2.81-1 5.68-.98 8.57.04 8.06.61 19.6 3.47 24.55 1.12 1.95 3.28 4.24 5.62 2.89 5.3-3.06 4.52-20.79 4.42-27.8l7.21-.11c.17 10.92.48 28.2-8.87 33.6-5.59 3.27-11.4.6-14.59-4.93Zm-5.31-46.09-.59-12.54 7.23-.43.59 12.54-7.23.43Z"/><path class="h" d="M153.59 192.49c-6.39-11.07-4.32-35.02 6.75-41.41 5.77-3.33 11.28-1.89 13.87 2.6 1.9 3.23 2.25 7.15.96 10.67l-7.4-.82c1.02-1.84 1.28-4.27.42-5.75-1-1.73-3.04-2.2-5.06-1.03-6.24 3.6-8.14 23.51-3.17 31.76 2.68 5 7.77 5.9 12.76 3.02 9.28-5.36 10.66-19.87 10.42-31.27l7.21-.11c.44 18.76-4.74 31.21-15.11 37.2-7.66 4.43-16.83 3.48-21.65-4.86Z"/><path class="h" d="M187.1 177.1c-4.18-7.25-4.56-19.6-4.4-36.95l8.12.2c-.67 2.81-1 5.68-.98 8.57.04 8.06.61 19.6 3.47 24.55 1.12 1.95 3.28 4.24 5.62 2.89 5.3-3.06 4.52-20.79 4.42-27.8l7.21-.11c.17 10.92.48 28.2-8.87 33.6-5.59 3.27-11.4.6-14.59-4.93Zm-5.31-46.09-.59-12.54 7.23-.43.59 12.54-7.23.43Z"/></g></g><g id="d" data-name="レイヤー 2"><g id="e" data-name="レイヤー 1のコピー"><path class="h" d="M228.39 141.89c-6.39-11.07-4.32-35.02 6.75-41.41 5.77-3.33 11.28-1.89 13.87 2.6 1.9 3.23 2.25 7.15.96 10.67l-7.4-.82c.99-1.82 1.28-4.27.42-5.75-1-1.73-3.04-2.2-5.06-1.03-6.26 3.62-8.17 23.53-3.2 31.78 2.68 5 7.77 5.9 12.76 3.02 9.28-5.36 10.66-19.87 10.42-31.27l7.24-.13c.44 18.76-4.77 31.23-15.13 37.21-7.64 4.41-16.81 3.47-21.62-4.87Z"/><path class="h" d="M299.65 89.63c.34 14.81-3.18 30.31-15.81 37.6-8.42 4.86-17.57 4.12-22.46-4.35-6.4-11.09-4.33-35.05 7.36-41.8 14.26-8.24 23.36 19.14 7.97 28.03a21.257 21.257 0 0 1-11.58 2.63c.35 2.54 1.14 5 2.33 7.28 2.97 5.14 8.32 5.59 13.23 2.75 10.13-5.85 11.92-20.39 11.75-32.03l7.21-.11Zm-34.86 15.04c3.05.57 6.2.18 9.02-1.11 6.86-3.96 3.3-20.03-2.86-16.48-3.69 2.13-5.94 9.87-6.16 17.59ZM349.76 80.49c13.26 9.28 15.73 30.31 5.99 35.93-5.53 3.19-11.59.45-14.69-4.92-2-3.46-3.26-9.97-3.95-18.19-1.22 2.68-3.2 4.95-5.7 6.51-5.92 3.42-11.77-.38-15.1-6.15-6.72-11.65-7.28-35.85 4.96-42.92 5.2-3 10.41-1.23 14 .85-.06-2.27-.06-4.43-.2-6.64l8.68-.27c-1.25 4.67-1.2 9.93-1.08 14.13.18 7.69.33 13.53.51 17.27.95-.22 1.87-.58 2.72-1.05 5.53-3.19 7.02-11.95 6.8-20.09l7.21-.11c.2 10.27-3.37 20.64-10.15 25.64ZM335.69 67.1c-.1-2.33-.2-4.67-.22-7.04.02-.34 0-.67-.06-1l-.98 1.19c-3.05-3.85-6.57-5.98-10.7-3.59-7.01 4.05-6.37 24.25-1.01 33.53 2.2 3.82 4.52 4.77 6.16 3.82 3.33-1.97 6.21-13.3 6.79-26.93l.02.03Zm7.89 17.99c.33 6.57 1.49 18.77 4.49 23.97 1.22 2.1 2.7 3.06 4.6 1.96 4.43-2.71 2.33-20.2-9.1-25.97l.02.03Z"/><path class="h" d="M402.92 30.01c.25 10.87.48 28.2-8.95 33.64-4.83 2.79-9.98 1.08-13.25-3.16-1.68 7.1-4.67 13.51-9.35 16.21-4.99 2.88-11.09 1.31-14.6-4.77-4.91-8.5-4.87-27.33-4.49-37.11l8.69.29a35.3 35.3 0 0 0-1.54 11.91c.23 7.95 1.06 16.95 3.58 21.32 1.03 1.79 3.19 4.08 5.68 2.64 5.46-3.15 7.07-21.23 6.66-29.51-.48-6.58-.58-13.19-.3-19.78l8.22.24c-.73 2.9-1.1 5.87-1.12 8.86 0 3.23.09 6.81.41 10.26v.52c.46 5.5 1.48 10.69 3.19 13.64 1.08 1.87 3.19 4.08 5.45 2.78 5.38-3.11 4.63-20.96 4.5-27.85l7.23-.12Z"/><path class="h" d="M437.48 10.05c.34 14.81-3.18 30.31-15.81 37.6-8.42 4.86-17.57 4.12-22.46-4.35-6.44-11.07-4.33-35.05 7.32-41.78 14.26-8.24 23.33 19.16 7.97 28.03a21.354 21.354 0 0 1-11.58 2.64c.35 2.54 1.14 5 2.33 7.28 2.97 5.14 8.32 5.59 13.23 2.75 10.13-5.85 11.92-20.39 11.75-32.03l7.25-.14Zm-34.86 15.04c3.04.57 6.18.19 8.99-1.09 6.86-3.96 3.32-20-2.84-16.44-3.68 2.08-5.96 9.84-6.18 17.55l.03-.02Z"/></g></g><g id="f" data-name="レイヤー 2"><g id="g" data-name="レイヤー 1のコピー"><path class="h" d="M45.29 338.33c.29 10.95-4.44 22.37-12 26.73-1.33.75-2.76 1.3-4.26 1.63 1.96 23.55 1.65 38.69-8.71 44.67-5.85 3.38-10.93 1.95-16.53-1.27l2.68-7.61c2.44 2.23 7.18 5.42 10.69 3.39 8.2-4.7 6.13-25.74 3.52-48.54-.81-7.53-1.76-15.3-2.29-22.68-3.08 2.37-6.48 4.3-10.1 5.73.34 3.65 1.27 10.49 1.36 18.55l-7.21.11c-.12-6.69-.4-11.32-.75-15.16-.17-2.29-.32-3.97-1.68-5.79 8.8-1.86 16.93-8.84 21.05-11.42l4.61 2.95c.06 2.27.29 4.51.51 6.46.57 6.74 1.19 13.03 1.78 18.92l.36 4.41c.49-.16.96-.37 1.42-.61 5.14-2.97 8.48-11.96 8.29-20.38l7.27-.1Zm-20.86-18.3-7.23.43-.59-12.54 7.23-.43.59 12.54Z"/><path class="h" d="M79.82 318.4c.34 14.81-3.18 30.31-15.81 37.6-8.42 4.86-17.57 4.12-22.46-4.35-6.4-11.09-4.33-35.04 7.36-41.79 14.26-8.24 23.33 19.16 7.97 28.03a21.257 21.257 0 0 1-11.58 2.63c.35 2.54 1.14 5 2.33 7.28 2.97 5.14 8.32 5.59 13.23 2.75 10.13-5.85 11.92-20.39 11.75-32.03l7.21-.12Zm-34.85 15.03c3.04.58 6.19.19 9.01-1.09 6.86-3.96 3.32-20-2.84-16.44-3.69 2.07-5.99 9.84-6.17 17.53ZM136.32 285.77c.2 10.79-2.73 21.38-9.9 25.52-1.09.62-2.25 1.08-3.47 1.38-1.43 6.34-4.42 11.79-9.09 14.49a10.59 10.59 0 0 1-11.21.03c1.59 10.31 2.57 17.95 2.36 23.89-.4 8.13-3.05 13.09-9.67 16.91l-5.44-5.28c4.74-1.97 7.85-6.56 7.94-11.69.35-6.96-1.63-18.49-5.02-39.29l-.42-2.35-.46-2.96c-.52-4.9-3.63-11.52-6.14-13.7l6.3-5.09c1.63 1.43 2.93 3.19 3.82 5.17.53-5.92 2.1-11.3 7.17-14.22 5.38-3.11 11.75-1.79 16.34 6.16 3.1 5.38 4.62 12.5 4.55 19.4 4.02-3.48 5.29-11.37 5.15-18.25l7.19-.1Zm-23.15 2.56c-1.71-2.96-4.22-5.88-6.95-4.3-4.21 2.43-7.78 13.53-6.63 24.51.72 5.92 5.85 16.25 11.15 13.19 6.47-3.73 8.91-22.18 2.43-33.4Z"/><path class="h" d="M170.84 265.84c.34 14.81-3.17 30.31-15.8 37.6-8.42 4.86-17.57 4.12-22.46-4.35-6.44-11.07-4.33-35.04 7.36-41.79 14.25-8.23 23.32 19.17 7.97 28.03a21.257 21.257 0 0 1-11.58 2.63c.35 2.54 1.14 5 2.33 7.28 2.97 5.14 8.32 5.59 13.23 2.75 10.13-5.85 11.91-20.39 11.74-32.03l7.21-.12Zm-34.85 15.03c3.05.58 6.21.19 9.03-1.1 6.85-3.96 3.31-19.99-2.84-16.44-3.69 2.07-5.96 9.83-6.19 17.54Z"/><path class="h" d="M213.87 241c.25 10.87.48 28.2-8.95 33.64-4.83 2.79-9.98 1.08-13.25-3.16-1.68 7.1-4.66 13.5-9.34 16.2-4.99 2.88-11.09 1.31-14.6-4.77-4.91-8.5-4.87-27.33-4.49-37.11l8.68.29a35.017 35.017 0 0 0-1.53 11.9c.23 7.95 1.06 16.95 3.58 21.32 1.03 1.79 3.19 4.08 5.68 2.64 5.46-3.15 7.06-21.23 6.65-29.51-.48-6.58-.58-13.19-.3-19.78l8.22.24c-.73 2.9-1.1 5.87-1.12 8.86 0 3.23.09 6.81.41 10.26v.52c.46 5.5 1.48 10.69 3.19 13.64 1.08 1.87 3.19 4.08 5.45 2.78 5.38-3.11 4.63-20.96 4.5-27.85l7.23-.12Z"/><path class="h" d="M256.42 216.43c.36 18.81-3.18 30.31-10.35 34.45-6.24 3.6-11.34-.38-15.67-6.44-2.05 8.46-5.31 16.37-11.73 22.16l-5.6-4.85c2.21-.92 4.09-2.48 5.42-4.48 3.73-5.79 5.53-13.28 6.96-21.06-1.72-3.16-3.24-6.34-4.65-8.95-2.31-4.18-4.21-6.92-5.78-6.01-2.18 1.26-1.51 8.36-1.15 19.79l-7.21.11c-.54-15.2-.93-21.82 4.68-25.06 8.03-4.63 9.52-1.34 15.13 6.95.36.48.69.99.98 1.51 1.67-8.46 3.8-16.5 8.57-22.42l5.97 4.35c-2.03 1.17-3.66 3.67-4.78 6.3-2.29 5.94-3.28 13.22-4.64 20.76 4.03 7.34 7.51 13.54 11.25 11.38 5.53-3.2 5.56-20.98 5.43-28.39l7.18-.1ZM291.5 180.7a8.423 8.423 0 0 1-4.32 6.03c-.43.27-.89.5-1.37.69-1.26 5.92 1.68 11.91 5.92 10.61-.31 2.16-.2 1.27-1.12 6.05-5.66 1.71-11.09-6.07-9.39-15.36-2.09.38-4.27.7-6.36.87.36 6.65 1.03 13.95 1.45 21.32.72 12.05 1.24 22.67.84 29.45-.4 8.13-3.05 13.09-9.67 16.91l-6.04-5.97c4.29-1.75 8.19-5.25 8.49-11.03.3-5.48.01-15.28-.83-28.62-.46-7.63-.88-14.66-1.16-20.74-.65.18-1.28.43-1.87.77-2.73 1.57-2.1 5.37-1.4 6.58l-7.18-2.71c.62-3.54 2.72-6.64 5.78-8.53 1.39-.77 2.9-1.32 4.46-1.64-.29-4.75-.16-9.53.39-14.26.71-4.77 1.54-8.68 3.72-11.92l6.18 6.93c-1.33 1.29-2.25 3.48-2.73 6.25-.61 3.84-.83 7.73-.67 11.61 3.55-.7 7.02-1.35 9.2-2.61l.39-.23c.63-1 1.33-1.96 2.09-2.87l5.22 2.42Z"/><path class="h" d="M345.09 165.24c.25 10.87.48 28.2-8.95 33.64-5.3 3.06-11 .74-14.26-4.55-.89 7.16-3.08 14.56-8.62 17.76-5.92 3.42-11.77-.38-15.1-6.15-6.71-11.61-7.25-35.81 4.99-42.88 5.2-3 10.41-1.23 14 .85-.06-2.27-.05-4.59.04-6.95l8.76.24a32.28 32.28 0 0 0-1.63 10.5c.11 7.94.83 18 3.54 22.69 1.12 1.95 3.23 4.16 5.57 2.81 5.3-3.06 4.55-20.92 4.42-27.8l7.23-.17Zm-27.5 12.59-.28-6.49-.98 1.19c-3.05-3.85-6.57-5.98-10.7-3.59-7.01 4.05-6.37 24.25-1.01 33.53 2.2 3.82 4.52 4.77 6.16 3.82 3.47-2.04 6.45-14.15 6.81-28.46Z"/><path class="h" d="M341.83 182.19c-4.18-7.25-4.56-19.6-4.4-36.95l8.12.2c-.67 2.81-1 5.68-.98 8.57 0 8.09.61 19.6 3.47 24.55 1.12 1.95 3.28 4.24 5.62 2.89 5.3-3.06 4.52-20.79 4.42-27.8l7.21-.11c.17 10.92.48 28.2-8.87 33.6-5.59 3.27-11.4.6-14.59-4.93Zm-5.31-46.09-.59-12.54 7.23-.43.59 12.54-7.23.43Z"/><path class="h" d="M402.96 131.83c.17 10.92.4 28.24-9.1 33.73-4.91 2.84-10.79 1.45-13.98-4.07-3.65-6.31-5.79-19.93-5.16-30.17-3.4 1.66-7.04 2.78-10.79 3.32 1.05 6.15 1.3 15.57 1.38 18.95l-7.21.11c-.39-10.68-1.03-16.73-1.5-18.98-.77-.07-1.51-.28-2.32-.43l2.05-7.42c1.19.98 4.44 1.7 6.97 1.28 3.59-.62 9.77-1.8 13.3-6.12l7.67 3.57a12.08 12.08 0 0 0-2.37 6.88c-.52 8.82 1.17 20.21 4.1 25.28 1.12 1.95 2.91 3.41 5.01 2.2 5.61-3.24 4.87-20.9 4.73-27.98l7.21-.13Z"/><path class="h" d="M437.48 111.9c.34 14.81-3.18 30.31-15.81 37.6-8.42 4.86-17.57 4.12-22.46-4.35-6.4-11.09-4.33-35.04 7.36-41.79 14.26-8.23 23.33 19.16 7.97 28.03a21.257 21.257 0 0 1-11.58 2.63c.35 2.54 1.14 5 2.33 7.28 2.97 5.14 8.32 5.59 13.23 2.75 10.13-5.85 11.92-20.39 11.75-32.03l7.21-.12Zm-34.85 15.03c3.04.58 6.19.19 9.01-1.09 6.86-3.96 3.32-20-2.84-16.44-3.69 2.07-5.99 9.84-6.17 17.53Z"/></g></g></svg>