<svg xmlns="http://www.w3.org/2000/svg" viewBox="0 0 188.82 65.34">
    <defs>
        <style>.cls-1{fill:#85d3f2;}</style>
    </defs>
    <g id="レイヤー_2" data-name="レイヤー 2">
        <g id="レイヤー_1のコピー" data-name="レイヤー 1のコピー">
            <path class="cls-1"
                  d="M58.5,40.68c-6.66,12.15-14.13,19.8-23.58,19.8A23.43,23.43,0,0,1,23.22,57c-1.62,1.89-.27.18-6.3,8.37,0,0-16.92.54-16.92-12.69,0-9.9,9.09-24.48,13.68-32.94l7.29,4c-1.71,1.35-3.6,4-5.4,7.29C11.79,38,7.29,46.89,7.29,52A6.68,6.68,0,0,0,13.14,59c4.68-6.39,17.73-20.61,23.4-31.5a16.72,16.72,0,0,0,2-7.11l7.65,1.89c-1.71,9-11,20.52-18.18,29.16a18.11,18.11,0,0,0,8.1,2.43c6.48,0,10.35-6.3,16.11-16.65Z"/>
            <path class="cls-1"
                  d="M103.86,40.68c-4.5,8.19-11.88,17.1-21.24,17.1A16.12,16.12,0,0,1,77.49,57c-4.14,5-9.36,8.37-15.21,8.37-7.38,0-13.05-4.77-13.05-14.58,0-13.41,11-32.94,24.57-32.94,7.65,0,13,5.13,13,14.67a39,39,0,0,1-5,18c.27,0,.54.09.81.09,6.21,0,12-8,14.94-13.41ZM71.19,53.91a9.56,9.56,0,0,1-1-.81l4.41-6.66,1,.72c2.52-4.86,4.05-10.44,4.05-14.67,0-5.85-2.43-8.37-5.85-8.37-8.64,0-17.37,16.47-17.37,26.64,0,5.67,2.25,8.28,5.85,8.28C65.43,59,68.58,57,71.19,53.91Z"/>
            <path class="cls-1"
                  d="M92.61,53.73c0-8.37,5.85-19.26,14.67-34.2l6.93,4.23a35.53,35.53,0,0,0-5.13,6.93c-4,7-9.27,17.28-9.27,23,0,2.25.72,5.31,3.42,5.31,6.12,0,14.31-15.75,17.73-21.87l6.3,3.51c-5.31,9.54-13.68,24.66-24.48,24.66C96.3,65.34,92.61,60.12,92.61,53.73Zm18.45-42.57L116.82,0l6.48,3.24L117.54,14.4Z"/>
            <path class="cls-1"
                  d="M117.45,50.31c0-12.78,13.77-32.49,26.55-32.49,6.66,0,10.71,4,10.71,9.18a12.54,12.54,0,0,1-4.5,9.72l-6-4.41c1.8-1.08,3.24-3.06,3.24-4.77,0-2-1.53-3.42-3.87-3.42-7.2,0-18.81,16.29-18.63,25.92-.18,5.67,3.78,9,9.54,9,10.71,0,19.17-11.88,24.66-21.87l6.3,3.51c-9,16.47-19.71,24.66-31.68,24.66C124.92,65.34,117.45,59.94,117.45,50.31Z"/>
            <path class="cls-1"
                  d="M154.17,53.73c0-8.37,5.85-19.26,14.67-34.2l6.93,4.23a35.53,35.53,0,0,0-5.13,6.93c-4,7-9.27,17.28-9.27,23,0,2.25.72,5.31,3.42,5.31,6.12,0,14.31-15.75,17.73-21.87l6.3,3.51c-5.31,9.54-13.68,24.66-24.48,24.66C157.86,65.34,154.17,60.12,154.17,53.73Zm18.45-42.57L178.38,0l6.48,3.24L179.1,14.4Z"/>
        </g>
    </g>
</svg>