<svg xmlns="http://www.w3.org/2000/svg" viewBox="0 0 180.96 48.51">
    <defs>
        <style>.cls-1{fill:#85d3f2;}</style>
    </defs>
    <g id="レイヤー_2" data-name="レイヤー 2">
        <g id="レイヤー_1のコピー" data-name="レイヤー 1のコピー">
            <path class="cls-1"
                  d="M58.5,23.76c-6.66,12.15-14.13,19.8-23.58,19.8a23.43,23.43,0,0,1-11.7-3.51c-1.62,1.89-.27.18-6.3,8.37C16.92,48.42,0,49,0,35.73c0-9.9,9.09-24.48,13.68-32.94l7.29,4c-1.71,1.35-3.6,4.05-5.4,7.29C11.79,21.06,7.29,30,7.29,35.1A6.68,6.68,0,0,0,13.14,42c4.68-6.39,17.73-20.61,23.4-31.5a16.72,16.72,0,0,0,2-7.11l7.65,1.89c-1.71,9-11,20.52-18.18,29.16a18.11,18.11,0,0,0,8.1,2.43c6.48,0,10.35-6.3,16.11-16.65Z"/>
            <path class="cls-1"
                  d="M103.86,23.76C99.36,32,92,40.86,82.62,40.86a16.12,16.12,0,0,1-5.13-.81c-4.14,5-9.36,8.37-15.21,8.37-7.38,0-13.05-4.77-13.05-14.58C49.23,20.43,60.21.9,73.8.9c7.65,0,13,5.13,13,14.67a39,39,0,0,1-5,18c.27,0,.54.09.81.09,6.21,0,12-8,14.94-13.41ZM71.19,37a9.56,9.56,0,0,1-1-.81l4.41-6.66,1,.72c2.52-4.86,4.05-10.44,4.05-14.67,0-5.85-2.43-8.37-5.85-8.37-8.64,0-17.37,16.47-17.37,26.64,0,5.67,2.25,8.28,5.85,8.28C65.43,42.12,68.58,40.05,71.19,37Z"/>
            <path class="cls-1"
                  d="M153.54,23.76C148.32,33.3,139.86,48.42,129,48.42c-5.58,0-9.18-4.05-9.9-9.36-5,5.31-10.8,9.36-16.2,9.36C97.11,48.42,92.61,44,92.61,37c0-9.81,9.45-26.1,14.67-34.38l7.38,4.59a35.36,35.36,0,0,0-7.29,9.54c-3.78,7-7.56,15.21-7.56,20.25,0,2.07.72,5.13,3.6,5.13,6.3,0,16.74-14.85,20.52-22.23a173.71,173.71,0,0,1,9.63-17.28l7,4.32a37.45,37.45,0,0,0-5.4,7.11c-1.62,2.79-3.33,5.94-4.77,9.09l-.27.45c-2.34,5-4,10-4,13.41,0,2.16.72,5.13,3.33,5.13,6.21,0,14.49-15.84,17.82-21.87Z"/>
            <path class="cls-1"
                  d="M166.05,18.63c2.25,4.23,6.66,7.56,6.66,15.57,0,8.55-7.65,14.31-15.93,14.31s-15.66-5.94-15.66-14.58c0-6.57,4-11.7,6.12-13.68l6.3,3.51c-4.86,5.13-5.22,9.09-5.22,10.17,0,4.77,4.32,8.28,8.55,8.28s9.54-3.51,9.54-8c0-6.12-5.4-9.45-7.29-15.84a23.09,23.09,0,0,1-6.66-2.88l3-5.31a23.08,23.08,0,0,0,3.15,2C159.39,4.59,165.69,0,173.07,0c3.69,0,7.29,1.8,7.83,6.48C181.71,13.14,174.69,17.73,166.05,18.63ZM174.78,8.1c0-1.44-.63-2.16-2.16-2.16-3.51,0-7.83,3.51-7.83,7.83C169.11,13.77,174.78,11,174.78,8.1Z"/>
        </g>
    </g>
</svg>