<svg id="a" data-name="レイヤー 1" xmlns="http://www.w3.org/2000/svg" viewBox="0 0 465.67 504.49"><defs><style>.h{fill:#85d3f2}</style></defs><g id="b" data-name="レイヤー 2"><g id="c" data-name="レイヤー 1のコピー"><path class="h" d="M357.27 79.16c.31 13.85-2.34 24.21-10.52 28.94a23.454 23.454 0 0 1-11.89 2.81c-.46 2.45-.14.29-1.27 10.4 0 0-14.36 8.96-21-2.53-4.95-8.57-4.37-25.75-4.62-35.37l8.31-.18c-.81 2.02-1.09 5.31-1.03 9.01.22 7.93.79 17.93 3.34 22.34 1.61 3.08 5.32 4.4 8.52 3.05.86-7.87 5.05-26.71 4.51-38.98-.07-2.49-.69-4.94-1.82-7.16l7.57-2.19c3.02 8.65.73 23.27-1.16 34.34 2.86.01 5.68-.66 8.23-1.95 5.61-3.24 5.81-10.63 5.63-22.47l7.21-.07Z"/><path class="h" d="M396.56 56.48c.22 9.39-1.72 20.74-9.84 25.43-1.5.88-3.14 1.51-4.85 1.86-1.09 6.4-3.92 11.93-8.99 14.85-6.39 3.69-13.69 2.39-18.59-6.1-6.71-11.61-6.96-34.02 4.81-40.81 6.63-3.83 13.82-2.06 18.59 6.2 3 5.56 4.6 11.77 4.67 18.09.23-.13.51-.19.75-.33 5.38-3.1 6.39-12.93 6.23-19.08l7.22-.12Zm-21.67 27.8c-.43-.04-.85-.11-1.27-.2l.49-7.97 1.23.12c-.25-5.47-1.71-11.07-3.83-14.73-2.93-5.07-6.29-6.03-9.25-4.32-7.48 4.32-6.81 22.95-1.72 31.76 2.83 4.91 6.09 6.05 9.21 4.25 2.72-1.58 4.42-4.95 5.15-8.9Z"/><path class="h" d="M439.58 31.64c.25 10.87.48 28.2-8.92 33.63-4.83 2.79-9.98 1.08-13.25-3.16-1.68 7.1-4.67 13.51-9.35 16.21-5.01 2.89-11.12 1.32-14.62-4.75-4.91-8.5-4.87-27.33-4.49-37.11l8.69.29a35.3 35.3 0 0 0-1.54 11.91c.23 7.95 1.06 16.95 3.58 21.32 1.03 1.79 3.19 4.08 5.68 2.64 5.46-3.15 7.07-21.23 6.66-29.51-.48-6.58-.58-13.19-.3-19.78l8.22.24c-.73 2.9-1.1 5.87-1.12 8.86 0 3.23.09 6.81.41 10.26v.52c.46 5.5 1.53 10.66 3.23 13.61 1.08 1.87 3.19 4.08 5.45 2.78 5.38-3.11 4.63-20.96 4.5-27.85l7.18-.1Z"/><path class="h" d="M447.85 20.94c4.06 2.54 9.55 3.22 13.55 10.15 4.27 7.4.53 16.22-6.64 20.36-7.17 4.14-16.53 2.69-20.85-4.8-3.28-5.69-2.39-12.13-1.54-14.91l7.21-.11c-1.64 6.87.02 10.48.56 11.42 2.39 4.13 7.88 5.01 11.54 2.9s6.51-7.81 4.26-11.7c-3.06-5.3-9.4-5.48-14.23-10.07-2.34.66-4.78.94-7.21.84l-.06-6.1c1.24.15 2.48.21 3.73.16-3.12-6.96.04-14.09 6.43-17.78 3.2-1.85 7.21-2.09 10.02 1.7 4.03 5.36.25 12.85-6.79 17.95Zm2.3-13.48c-.72-1.25-1.63-1.56-2.95-.79-3.04 1.75-5.03 6.95-2.87 10.7 3.74-2.16 7.27-7.39 5.82-9.91Z"/><g id="d" data-name="レイヤー 2"><g id="e" data-name="レイヤー 1のコピー"><path class="h" d="M222.96 250.41c.34 14.81-3.18 30.31-15.81 37.6-8.42 4.86-17.57 4.12-22.48-4.38-6.39-11.07-4.32-35.02 7.37-41.77 14.26-8.23 23.33 19.16 7.97 28.03a21.257 21.257 0 0 1-11.58 2.63 22.22 22.22 0 0 0 2.31 7.24c2.97 5.14 8.32 5.59 13.23 2.75 10.15-5.86 11.94-20.36 11.77-32l7.21-.11Zm-34.86 15.04c3.05.56 6.19.16 9-1.15 6.86-3.96 3.32-20-2.84-16.44-3.63 2.1-5.94 9.87-6.16 17.59Z"/><path class="h" d="M262.95 227.33c.18 11.12.48 28.2-9.1 33.73-5.2 3-10.89 1.3-14.13-4.31-4.95-8.57-.97-21.68-4.03-26.98-1.31-2.26-4.23-3.33-5.96-2.33-4.91 2.83-6.51 23.82-5.42 33.27.43 4.44 1.13 8.84 2.1 13.19l-6.92 1.69c-1.04-4.65-1.85-9.35-2.42-14.09l-.08.05-.2-1.96c-.86-6.88-1.4-13.22-2.71-17.66a7.567 7.567 0 0 0-3.75-4.49l5.28-6.51a14.63 14.63 0 0 1 3.42 4.21c1.61-6.02 4.13-11.22 8.02-13.47 4.68-2.7 11.58-1.18 14.87 4.51 4.45 7.72.29 20.51 4.12 27.14 1.31 2.26 3.17 3.16 5.04 2.08 5.5-3.22 4.7-20.59 4.66-27.94l7.21-.11Z"/><path class="h" d="M271.21 216.63c4.06 2.54 9.55 3.22 13.55 10.15 4.27 7.4.53 16.22-6.64 20.36-7.17 4.14-16.53 2.69-20.85-4.8-3.28-5.69-2.39-12.13-1.54-14.91l7.21-.11c-1.64 6.87.02 10.48.56 11.42 2.39 4.13 7.88 5.01 11.54 2.9s6.51-7.81 4.26-11.7c-3.06-5.3-9.4-5.48-14.23-10.07-2.34.66-4.78.94-7.21.84l-.06-6.1c1.24.15 2.48.21 3.73.16-3.08-6.95.08-14.08 6.47-17.77 3.2-1.85 7.21-2.09 10.02 1.7 3.99 5.35.21 12.84-6.83 17.94Zm2.29-13.5c-.72-1.25-1.63-1.56-2.95-.79-3.04 1.76-5.03 6.95-2.87 10.7 3.75-2.14 7.27-7.39 5.82-9.91ZM329.82 188.72c.34 14.81-3.18 30.31-15.81 37.6-8.42 4.86-17.57 4.12-22.46-4.35-6.39-11.07-4.32-35.02 7.37-41.77 14.26-8.24 23.33 19.16 7.97 28.03a21.257 21.257 0 0 1-11.58 2.63 22.41 22.41 0 0 0 2.3 7.22c2.97 5.14 8.32 5.59 13.23 2.75 10.13-5.85 11.92-20.39 11.75-32.03l7.23-.08Zm-34.86 15.04c3.05.56 6.19.16 9-1.15 6.86-3.96 3.32-20-2.84-16.44-3.66 2.11-5.94 9.87-6.16 17.59Z"/><path class="h" d="M326.6 205.64c-4.18-7.25-4.56-19.6-4.4-36.95l8.12.2c-.67 2.81-1 5.68-.98 8.57.04 8.06.61 19.6 3.47 24.55 1.12 1.95 3.28 4.24 5.62 2.89 5.3-3.06 4.52-20.79 4.42-27.8l7.21-.11c.17 10.92.48 28.2-8.87 33.6-5.59 3.27-11.4.6-14.59-4.93Zm-5.31-46.09-.59-12.54 7.23-.43.59 12.54-7.23.43Z"/><path class="h" d="M391.17 153.3c.29 10.95-3.72 22-11.28 26.36a16.46 16.46 0 0 1-4.34 1.67c1.97 22.66 1.88 38.51-8.84 44.7-6.55 3.78-13.6 1.1-16.45-1.31l4.15-7.39c2.04 2.46 5.72 5.22 9.3 3.15 6.16-3.56 6.61-15.37 5.37-31.37-1.33 3.99-3.43 7.38-6.7 9.27-5.92 3.42-11.77-.38-15.1-6.15-6.7-11.61-7.27-35.81 4.97-42.88 4.75-2.74 9.63-1.51 13.08.35-.11-1.81-.29-3.57-.4-5.38l8.3-2.25c-.69 7.26.59 20.65 1.38 29.03.06 1 .21 1.96.26 2.97.54-.19 1.07-.43 1.57-.7 5.07-2.93 7.7-11.51 7.51-19.93l7.21-.15Zm-24.46 10.9c-.17-2.09-.42-4.12-.57-6.22l-.69.81c-3.04-3.85-6.56-5.98-10.69-3.6-7.01 4.05-6.37 24.25-1.01 33.53 2.2 3.82 4.52 4.77 6.16 3.82 3.47-2.05 6.48-14.18 6.79-28.34h.02Z"/><path class="h" d="M431.14 130.22c.18 11.12.48 28.2-9.1 33.73-5.2 3-10.88 1.29-14.12-4.32-4.95-8.57-.97-21.68-4.03-26.98-1.31-2.26-4.23-3.33-6.01-2.31-4.9 2.83-6.51 23.81-5.41 33.26.46 4.43 1.2 8.83 2.2 13.17l-6.92 1.69c-1.03-4.66-1.82-9.37-2.37-14.11l-.08.04-.2-1.96c-.86-6.88-1.4-13.22-2.71-17.66a7.567 7.567 0 0 0-3.75-4.49l5.28-6.51c1.37 1.18 2.51 2.6 3.36 4.19 1.61-6.02 4.13-11.22 8.01-13.46 4.68-2.7 11.58-1.18 14.87 4.51 4.45 7.72.29 20.51 4.12 27.14 1.31 2.26 3.17 3.16 5.04 2.08 5.53-3.2 4.73-20.61 4.65-27.94l7.17-.08Z"/><path class="h" d="M465.65 110.3c.34 14.81-3.18 30.31-15.81 37.6-8.42 4.86-17.57 4.12-22.46-4.35-6.39-11.07-4.32-35.02 7.37-41.77 14.26-8.24 23.33 19.16 7.97 28.03a21.257 21.257 0 0 1-11.58 2.63 22.62 22.62 0 0 0 2.31 7.21c2.97 5.14 8.32 5.59 13.23 2.75 10.13-5.85 11.92-20.39 11.75-32.03l7.21-.07Zm-34.86 15.04c3.05.56 6.19.16 9-1.15 6.86-3.96 3.32-20-2.84-16.44-3.65 2.11-5.92 9.86-6.14 17.58h-.02Z"/></g></g><g id="f" data-name="レイヤー 2"><g id="g" data-name="レイヤー 1のコピー"><path class="h" d="M9.54 498.14c-5.5-9.53-6.23-36-7.1-55.86-.14-4.44-.97-8.84-2.44-13.04l8.13-.85c.94 1.64 1.09 6.02 1.3 9.64 1 19.37 1.62 48.34 6.38 56.59 1.12 1.95 3.23 4.16 5.49 2.86 5.38-3.11 4.63-20.96 4.5-27.85l7.21-.11c.25 10.87.51 28.18-8.79 33.55-5.61 3.24-11.45.69-14.69-4.92Z"/><path class="h" d="M67.55 449.58c.32 14.78-3.18 30.31-15.83 37.62-8.42 4.86-17.57 4.12-22.46-4.35-6.39-11.07-4.32-35.02 7.37-41.77 14.26-8.24 23.33 19.16 7.97 28.03a21.257 21.257 0 0 1-11.58 2.63 22.44 22.44 0 0 0 2.39 7.21c2.97 5.14 8.32 5.59 13.23 2.75 10.13-5.85 11.92-20.39 11.75-32.03l7.17-.09ZM32.7 464.63c3.05.56 6.19.16 9-1.15 6.86-3.96 3.32-20-2.84-16.44-3.67 2.1-5.95 9.86-6.16 17.59ZM144.01 405.44c.31 13.85-2.34 24.21-10.52 28.94-3.58 1.94-7.61 2.9-11.69 2.8-.53 3.77-1.1 7.28-1.47 10.41-.28.06-9.99 7.54-16.66-2.85-.29 3.49-.78 7.83-1.3 13.22-.48.07-11.46 8.59-18.21-3.1-5.5-9.53-4.83-27.45-5.07-36.15l8.47-.27c-.9 1.87-1.26 5.2-1.21 8.7.14 8.29.88 18.72 4.01 24.14 1.53 2.65 3.41 3.75 5.46 2.98.69-7.98 3.08-22.67 3.06-26.19-.85-7.59-.68-15.4-.82-20.31l8.47-.27a24.67 24.67 0 0 0-1.2 8.9c.2 8.09.91 18.49 4.06 23.95.9 1.56 2.61 3.8 4.44 3.36.92-7.6 4.8-25.53 4.59-37.77-.18-2.72-1.06-5.34-2.55-7.62l8.23-2.67c2.78 8.06.97 21.68-1.09 34.3 2.83.04 5.62-.61 8.14-1.9 5.61-3.24 5.81-10.63 5.63-22.47l7.24-.13Z"/><path class="h" d="M178.54 385.5c.34 14.81-3.18 30.31-15.81 37.6-8.42 4.86-17.57 4.12-22.46-4.35-6.39-11.07-4.32-35.02 7.37-41.77 14.26-8.24 23.33 19.16 7.97 28.03a21.257 21.257 0 0 1-11.58 2.63c.35 2.54 1.14 5 2.33 7.28 2.97 5.14 8.32 5.59 13.23 2.75 10.13-5.85 11.92-20.39 11.75-32.03l7.2-.14Zm-34.83 15.04c3.05.56 6.19.16 9-1.15 6.86-3.96 3.32-20-2.84-16.44-3.7 2.11-5.99 9.88-6.16 17.59Z"/><path class="h" d="M217.89 362.78c.21 9.34-1.84 20.81-9.91 25.47a14.78 14.78 0 0 1-5.02 1.74c-1.33 6.69-4.45 12.44-9.29 15.23-3.95 2.48-9.05 2.1-12.6-.94.22 1.64.56 3.31.86 4.91l-8.98 1.72c.76-3.9.24-9.59-.32-14.05-2.55-19-3.24-36.58-4.06-50.77-.05-4.23-.35-11.23-.46-13.04l8.66-.84c-.91 3.17-1.32 6.46-1.23 9.75l1.26 21.88a14.92 14.92 0 0 1 6.17-7.31c5.38-3.11 11.75-1.79 16.34 6.16 3.15 5.46 4.67 12.58 4.56 19.6l.55-.32c5.38-3.11 6.44-12.96 6.29-19.11l7.18-.1Zm-24.87 3.52c-1.71-2.96-4.22-5.88-7.19-4.17-3.74 2.16-7.86 11.4-7.49 21.58l.4 3.93c1.04 5.95 6.71 15.04 12.09 11.94 6.25-3.57 8.7-22.02 2.2-33.28ZM274.28 326.17l7.21-.11c.25 10.87.48 28.2-8.95 33.64-5.46 3.15-11.29.6-14.08-4.24l-.17-.29c-.85 7.14-3.03 14.53-8.56 17.73-5.92 3.42-11.77-.38-15.1-6.15-6.7-11.61-7.27-35.81 4.97-42.88 4.75-2.74 9.42-1.49 12.91.24-1.09-15.4-1.16-31.91-1.28-39.5l8.85-.33c-.98 3.9-1.46 7.92-1.42 11.94.39 17.96 1.63 48.01 5.91 55.41 1.35 2.34 3.51 3.38 5.38 2.3 5.22-3.01 4.47-20.87 4.34-27.76Zm-20.22 12.5c-.27-1.92-.6-3.92-.76-6l-.57.64c-3.05-3.85-6.57-5.98-10.7-3.59-7.01 4.04-6.36 24.25-1 33.52 2.2 3.82 4.52 4.77 6.16 3.82 3.51-2.03 6.46-14.12 6.88-28.39Z"/><path class="h" d="M316.02 306.13c.34 14.81-3.18 30.31-15.8 37.6-8.42 4.86-17.57 4.12-22.46-4.35-6.39-11.07-4.32-35.02 7.37-41.77 14.25-8.23 23.33 19.16 7.97 28.03a21.257 21.257 0 0 1-11.58 2.63c.35 2.54 1.14 5 2.33 7.28 2.97 5.14 8.32 5.59 13.23 2.75 10.13-5.85 11.92-20.39 11.74-32.03l7.2-.14Zm-34.84 15.05c3.05.56 6.19.16 9-1.15 6.86-3.96 3.32-20-2.85-16.44-3.66 2.09-5.94 9.85-6.15 17.58Z"/><path class="h" d="M324.29 295.43c4.06 2.54 9.55 3.22 13.55 10.15 4.27 7.4.53 16.22-6.63 20.35-7.16 4.14-16.55 2.7-20.87-4.79-3.28-5.69-2.34-12.16-1.54-14.91l7.21-.11c-1.64 6.87.02 10.48.56 11.42 2.38 4.13 7.88 5.01 11.54 2.9s6.51-7.81 4.26-11.7c-3.06-5.3-9.41-5.48-14.23-10.07-2.35.66-4.78.94-7.22.84l-.06-6.1c1.24.15 2.49.2 3.74.15-3.09-6.95.07-14.07 6.47-17.76 3.2-1.85 7.21-2.09 10.02 1.7 4.01 5.34.22 12.83-6.81 17.93Zm2.3-13.48c-.72-1.25-1.63-1.56-2.95-.79-3.04 1.76-5.02 6.95-2.86 10.69 3.73-2.15 7.25-7.41 5.81-9.9ZM345.16 304.37c-4.18-7.25-4.56-19.6-4.4-36.95l8.12.2c-.67 2.81-1 5.68-.98 8.57 0 8.09.61 19.6 3.47 24.55 1.12 1.95 3.28 4.24 5.62 2.89 5.3-3.06 4.52-20.79 4.42-27.8l7.21-.11c.17 10.92.48 28.2-8.87 33.6-5.58 3.27-11.39.59-14.58-4.94Zm-5.3-46.1-.59-12.54 7.24-.38.59 12.54-7.24.38Z"/><path class="h" d="M409.71 252.04c.29 10.95-3.72 22-11.28 26.36a16.46 16.46 0 0 1-4.34 1.67c1.97 22.66 1.87 38.52-8.84 44.7-6.54 3.77-13.6 1.1-16.44-1.32l4.15-7.39c2.04 2.46 5.72 5.22 9.29 3.16 6.16-3.55 6.61-15.37 5.37-31.37-1.33 3.99-3.43 7.38-6.7 9.27-5.92 3.42-11.77-.38-15.1-6.15-6.7-11.61-7.27-35.81 4.97-42.88 4.75-2.74 9.63-1.51 13.08.34-.11-1.81-.29-3.57-.4-5.38l8.25-2.27c-.69 7.26.59 20.65 1.38 29.03.06 1 .2 1.96.26 2.97.54-.19 1.07-.43 1.57-.7 5.07-2.93 7.7-11.51 7.51-19.93l7.25-.13Zm-24.44 10.89c-.17-2.09-.41-4.13-.57-6.22l-.69.81c-3.05-3.85-6.57-5.98-10.7-3.59-7.01 4.05-6.37 24.25-1.01 33.53 2.21 3.82 4.52 4.77 6.16 3.82 3.53-2.04 6.47-14.13 6.81-28.36Z"/><path class="h" d="M449.69 228.95c.18 11.12.48 28.2-9.1 33.73-5.2 3-10.89 1.3-14.13-4.31-4.95-8.57-.97-21.68-4.03-26.98-1.31-2.26-4.23-3.33-6.01-2.31-4.91 2.84-6.51 23.82-5.42 33.27.46 4.43 1.2 8.83 2.2 13.17l-6.92 1.69c-1.05-4.66-1.86-9.37-2.43-14.11l-.08.04-.2-1.96c-.86-6.88-1.4-13.22-2.71-17.66a7.567 7.567 0 0 0-3.75-4.49l5.28-6.51c1.37 1.18 2.51 2.6 3.36 4.19 1.61-6.02 4.13-11.22 8.02-13.47 4.68-2.7 11.58-1.18 14.87 4.51 4.45 7.72.29 20.51 4.12 27.14 1.31 2.26 3.17 3.16 5.04 2.08 5.53-3.2 4.73-20.61 4.65-27.94l7.23-.09ZM454.15 248.72a6.818 6.818 0 0 1 2.52-9.14 5.082 5.082 0 0 1 6.97 1.8c.06.1.12.21.17.32 1.72 3.18.64 7.14-2.46 9-2.32 1.5-5.41.84-6.92-1.47-.1-.16-.2-.33-.29-.5Z"/></g></g></g></g></svg>