<svg xmlns="http://www.w3.org/2000/svg" viewBox="0 0 423.26 82.71">
    <defs>
        <style>.cls-1{fill:#85d3f2;}</style>
    </defs>
    <g id="レイヤー_2" data-name="レイヤー 2">
        <g id="レイヤー_1のコピー" data-name="レイヤー 1のコピー">
            <path class="cls-1"
                  d="M58.5,41.85C51.84,54,44.37,61.65,34.92,61.65a23.43,23.43,0,0,1-11.7-3.51c-1.62,1.89-.27.18-6.3,8.37,0,0-16.92.54-16.92-12.69,0-9.9,9.09-24.48,13.68-32.94l7.29,4c-1.71,1.35-3.6,4.05-5.4,7.29-3.78,7-8.28,15.93-8.28,21.06a6.68,6.68,0,0,0,5.85,6.93c4.68-6.39,17.73-20.61,23.4-31.5a16.72,16.72,0,0,0,2-7.11l7.65,1.89c-1.71,9-11,20.52-18.18,29.16A18.11,18.11,0,0,0,36.09,55c6.48,0,10.35-6.3,16.11-16.65Z"/>
            <path class="cls-1"
                  d="M103.86,41.85C99.36,50,92,59,82.62,59a16.12,16.12,0,0,1-5.13-.81c-4.14,5-9.36,8.37-15.21,8.37-7.38,0-13.05-4.77-13.05-14.58C49.23,38.52,60.21,19,73.8,19c7.65,0,13,5.13,13,14.67a39,39,0,0,1-5,18c.27,0,.54.09.81.09,6.21,0,12-8,14.94-13.41ZM71.19,55.08a9.56,9.56,0,0,1-1-.81l4.41-6.66,1,.72c2.52-4.86,4.05-10.44,4.05-14.67,0-5.85-2.43-8.37-5.85-8.37-8.64,0-17.37,16.47-17.37,26.64,0,5.67,2.25,8.28,5.85,8.28C65.43,60.21,68.58,58.14,71.19,55.08Z"/>
            <path class="cls-1"
                  d="M153.54,41.85c-5.22,9.54-13.68,24.66-24.57,24.66-5.58,0-9.18-4.05-9.9-9.36-5,5.31-10.8,9.36-16.2,9.36-5.76,0-10.26-4.41-10.26-11.43,0-9.81,9.45-26.1,14.67-34.38l7.38,4.59a35.36,35.36,0,0,0-7.29,9.54c-3.78,7-7.56,15.21-7.56,20.25,0,2.07.72,5.13,3.6,5.13,6.3,0,16.74-14.85,20.52-22.23a173.71,173.71,0,0,1,9.63-17.28l7,4.32a37.45,37.45,0,0,0-5.4,7.11c-1.62,2.79-3.33,5.94-4.77,9.09l-.27.45c-2.34,5-4,10-4,13.41,0,2.16.72,5.13,3.33,5.13,6.21,0,14.49-15.84,17.82-21.87Z"/>
            <path class="cls-1"
                  d="M166.05,36.72c2.25,4.23,6.66,7.56,6.66,15.57,0,8.55-7.65,14.31-15.93,14.31S141.12,60.66,141.12,52c0-6.57,4-11.7,6.12-13.68l6.3,3.51c-4.86,5.13-5.22,9.09-5.22,10.17,0,4.77,4.32,8.28,8.55,8.28s9.54-3.51,9.54-8c0-6.12-5.4-9.45-7.29-15.84a23.09,23.09,0,0,1-6.66-2.88l3-5.31a23.08,23.08,0,0,0,3.15,2c.81-7.56,7.11-12.15,14.49-12.15,3.69,0,7.29,1.8,7.83,6.48C181.71,31.23,174.69,35.82,166.05,36.72Zm8.73-10.53c0-1.44-.63-2.16-2.16-2.16-3.51,0-7.83,3.51-7.83,7.83C169.11,31.86,174.78,29.07,174.78,26.19Z"/>
            <path class="cls-1"
                  d="M258.75,41.85C254.25,50,246.87,59,237.51,59a16.12,16.12,0,0,1-5.13-.81c-4.14,5-9.36,8.37-15.21,8.37-7.38,0-13-4.77-13-14.58,0-13.41,11-32.94,24.57-32.94,7.65,0,13.05,5.13,13.05,14.67a39,39,0,0,1-5,18c.27,0,.54.09.81.09,6.21,0,12-8,14.94-13.41ZM226.08,55.08a9.56,9.56,0,0,1-1-.81l4.41-6.66,1,.72c2.52-4.86,4-10.44,4-14.67,0-5.85-2.43-8.37-5.85-8.37-8.64,0-17.37,16.47-17.37,26.64,0,5.67,2.25,8.28,5.85,8.28C220.32,60.21,223.47,58.14,226.08,55.08Z"/>
            <path class="cls-1"
                  d="M301.49,31.41c-4.05,4.5-4.49,11.16-.18,12.15-1.34,1.71-.8,1-4,4.68-5.48-1.35-6.47-9.81-1.43-16.83a53.42,53.42,0,0,1-6.39-.72c-2.61,5.13-5.22,10.71-8,16.29-5.4,10.8-10.26,20.25-13.95,25.92-4.41,6.84-9.18,9.81-16.83,9.81l-2.25-8.19c4.59.63,9.72-.45,12.87-5.31C264.33,64.62,269,56,275,44c2.7-5.31,5.13-10.35,7.47-14.94-5.31-1.35-10.53-2.88-15.39-3.87-3.51,6.48-7,14.22-10.8,21.78-5.4,10.8-10.26,20.25-14,25.92-4.41,6.84-9.18,9.81-16.83,9.81l-2.25-8.19c4.59.63,9.72-.45,12.87-5.31,3-4.59,7.65-13.23,13.59-25.2,3.6-7.2,6.93-13.86,9.9-19.53-4.41.18-7,4.32-7,5.76l-4.86-5.94c1.71-2.16,4.14-5.13,9.27-5.13a49.89,49.89,0,0,1,5.31.27,80.48,80.48,0,0,1,6.84-11c3-3.78,5.67-6.75,9.18-8.46l1.89,9.09c-1.8.45-3.69,1.89-5.49,4.05a49.93,49.93,0,0,0-5.13,7.56c4.86,1.08,9.63,2.52,15.48,3.42,3.6-6.93,6.75-12.33,9.36-15.66,3-3.78,5.67-6.75,9.17-8.46l1.89,9.09c-1.8.45-3.68,1.89-5.48,4.05A72.07,72.07,0,0,0,292.41,25c1.71.09,3.51.18,5.4.18,3.5,0,8-1.44,8.72-2.34l3.24,5.58C308.33,30.06,305.73,31.05,301.49,31.41Z"/>
            <path class="cls-1"
                  d="M356.39,41.85c-5.31,9.54-13.77,24.66-24.74,24.66-5.67,0-10.09-4.14-10.09-10.53,0-7.29,5-20.16,10.63-28.71a36.26,36.26,0,0,1-11-2.52c-2.16,5.85-6.66,14.13-8.28,17.1l-6.3-3.51c5-9.45,7.47-15,8.18-17.19-.62-.45-1.16-1-1.79-1.53l5.49-5.4c.54,1.44,3,3.69,5.39,4.59,3.42,1.26,9.36,3.33,14.58,1.35l4.86,6.93a12.08,12.08,0,0,0-5.49,4.77C333,39.24,328.77,50,328.77,55.8c0,2.25.8,4.41,3.23,4.41,6.48,0,14.67-15.66,18.09-21.87Z"/>
            <path class="cls-1"
                  d="M345.15,54.9c0-8.37,5.84-19.26,14.66-34.2l6.93,4.23a35.53,35.53,0,0,0-5.13,6.93c-4.05,7-9.27,17.28-9.27,23,0,2.25.72,5.31,3.42,5.31,6.12,0,14.31-15.75,17.73-21.87l6.3,3.51c-5.31,9.54-13.68,24.66-24.48,24.66C348.83,66.51,345.15,61.29,345.15,54.9Zm18.44-42.57,5.76-11.16,6.48,3.24-5.76,11.16Z"/>
            <path class="cls-1"
                  d="M423.26,41.85c-5.31,9.54-13.77,24.66-24.75,24.66-5.67,0-10.08-4.14-10.08-10.53,0-7.29,4.95-20.16,10.62-28.71a36.26,36.26,0,0,1-11-2.52c-2.16,5.85-6.66,14.13-8.28,17.1l-6.3-3.51c5-9.45,7.47-15,8.19-17.19-.63-.45-1.17-1-1.8-1.53l5.49-5.4c.54,1.44,3,3.69,5.4,4.59,3.42,1.26,9.36,3.33,14.58,1.35l4.86,6.93a12.08,12.08,0,0,0-5.49,4.77c-4.86,7.38-9.09,18.09-9.09,23.94,0,2.25.81,4.41,3.24,4.41,6.48,0,14.67-15.66,18.09-21.87Z"/>
        </g>
    </g>
</svg>