<svg xmlns="http://www.w3.org/2000/svg" width="73" height="73" viewBox="0 0 73 73">
  <path id="wordpress" d="M9.125,36.5A26.725,26.725,0,0,0,24.638,60.453L11.406,25.55A29.366,29.366,0,0,0,9.125,36.5Zm45.853-1.369a13.194,13.194,0,0,0-2.281-7.3c-1.369-2.281-2.738-4.106-2.738-6.159a4.625,4.625,0,0,1,4.563-4.791h.456A27.729,27.729,0,0,0,36.5,9.809,27.177,27.177,0,0,0,13.688,21.9h1.825c2.966,0,7.3-.228,7.3-.228a1.153,1.153,0,0,1,.228,2.281,21.539,21.539,0,0,1-3.194.228l9.809,28.744,5.931-17.566L31.253,23.953a24.79,24.79,0,0,1-2.966-.228c-1.369,0-1.369-2.281.228-2.281,0,0,4.563.228,7.3.228,2.966,0,7.3-.228,7.3-.228a1.153,1.153,0,0,1,.228,2.281,25.884,25.884,0,0,1-3.194.228L50.188,52.7l2.738-8.9c1.141-3.65,2.053-6.388,2.053-8.669Zm-18.022,3.65L28.744,62.05A28.972,28.972,0,0,0,36.5,63.191a24.817,24.817,0,0,0,9.125-1.6.8.8,0,0,1-.228-.456L36.956,38.781Zm23.5-15.056a11.107,11.107,0,0,1,.228,2.738,24.158,24.158,0,0,1-2.053,9.581l-8.441,23.5A26.4,26.4,0,0,0,63.875,36.5,24.937,24.937,0,0,0,60.453,23.725ZM36.5,0A36.5,36.5,0,1,0,73,36.5,36.607,36.607,0,0,0,36.5,0Zm0,68.438A31.938,31.938,0,1,1,68.438,36.5,32.031,32.031,0,0,1,36.5,68.438Z" fill="#117dbf"/>
</svg>
