<svg xmlns="http://www.w3.org/2000/svg" viewBox="0 0 267.08 137.35">
    <defs>
        <style>.cls-1{fill:#117dbf;}</style>
    </defs>
    <g id="レイヤー_2" data-name="レイヤー 2">
        <g id="レイヤー_1のコピー" data-name="レイヤー 1のコピー">
            <path class="cls-1"
                  d="M105.21,14.87c-3.61,5.36-8.44,12.6-11.52,18.9C63.27,96.35,56.57,137.35,25.48,137.35c-13.8,0-25.06-8.44-22.11-22.38l11.53-2c-1.21,6.17,1.47,15,11.12,15,15.41,0,23.18-18.09,36.18-49.18C54,87.5,44.64,93.94,34.59,93.94c-10.85,0-17-7.51-17-18.09,0-19.7,23-40.21,23-53.87,0-3.62-1.6-6.3-6-6.3-10.85,0-22.51,16.75-23.71,29.48A13.9,13.9,0,0,0,13.82,54L3.24,59.36C.42,54.94-.38,49.58.16,44,2,26.4,18,6.3,35.26,6.3c10.19,0,16.08,6.7,16.08,15.94,0,17.83-23,37.79-23,54.14,0,5.36,2.54,8.18,7.23,8.18,15.14,0,37-29.75,42.88-43.42,1.88-4,3.89-8.31,6-12.6,3.09-6.3,5.77-13.13,8.31-19.83Z"/>
            <path class="cls-1"
                  d="M174,75.31C166.18,89.51,153.59,112,137.37,112c-8.31,0-13.67-6-14.74-13.94C115.13,106,106.55,112,98.51,112c-8.58,0-15.28-6.57-15.28-17,0-14.61,14.07-38.86,21.85-51.19l11,6.83c-3.22,2.68-7.51,8-10.86,14.21C99.58,75.31,94,87.5,94,95c0,3.08,1.08,7.64,5.37,7.64,9.38,0,24.92-22.11,30.55-33.1a259.11,259.11,0,0,1,14.34-25.73l10.45,6.43a55.14,55.14,0,0,0-8,10.59c-2.41,4.15-5,8.84-7.1,13.53l-.41.67c-3.48,7.51-6,14.88-6,20,0,3.21,1.08,7.64,5,7.64,9.25,0,21.58-23.59,26.53-32.57Zm-46.76-46.5-6.43-4.29L138.18,3.08l7.23,6.57.67,19.16h-8.31l-.67-12.19Z"/>
            <path class="cls-1"
                  d="M232.24,75.31c-8.31,15-20.5,36.72-38.05,36.72-15.28,0-19.57-15.68-19.7-31.63l-2.28-1.2c-1.34,3.08-2.55,6.16-3.89,9.24-2.68,6.43-5.22,13.13-7.63,20L147.82,104c3.89-4.43,7.5-12.2,10.05-18.36,10.86-26.4,23-49.58,32.56-68.48,3.09-5.49,7.91-14.74,9.12-17.15l11.79,5.36A47.58,47.58,0,0,0,202.49,17c-4,8-8.57,16.88-13.53,26.53a22.24,22.24,0,0,1,9.65-2.28c9.24,0,15.68,6.57,15.68,15.81,0,12.74-11.8,26.27-27.21,26.27h-1.74c.27,9,2.15,19.3,9.65,19.3s15.54-10.46,27.87-32.57ZM176.9,68.88C180,71.69,184.14,74,188,74c8.44,0,15.55-9.92,15.55-16.89,0-3.48-1.75-6.43-5.63-6.43-6,0-14.88,8.58-20.77,17.42C177,68.34,177,68.61,176.9,68.88Z"/>
            <path class="cls-1"
                  d="M215.49,94.74c0-12.46,8.71-28.68,21.84-50.92l10.32,6.3A53,53,0,0,0,240,60.44c-6,10.45-13.8,25.72-13.8,34.3,0,3.35,1.07,7.91,5.09,7.91,9.12,0,21.31-23.45,26.4-32.57l9.38,5.23c-7.9,14.2-20.37,36.72-36.45,36.72C221,112,215.49,104.25,215.49,94.74ZM243,31.36l8.58-16.62,9.65,4.82-8.58,16.62Z"/>
        </g>
    </g>
</svg>